<svg width="40" height="40" viewBox="0 0 40 40" fill="none" xmlns="http://www.w3.org/2000/svg">
<path d="M31.734 0C31.4409 0 31.1404 0.0384224 30.8437 0.122075L2.32641 8.14324C1.50013 8.37503 0.799313 8.92369 0.386195 9.66999C-0.0114689 10.3885 -0.107838 11.2377 0.124136 12.0269L0.648255 14.1575C0.655907 14.1867 0.665145 14.2155 0.675925 14.2437C0.676838 14.2535 0.677923 14.2633 0.679181 14.273L4.44079 37.3583C4.6886 38.8859 6.03851 40 7.59527 40C7.76472 40 7.93521 39.9862 8.10473 39.9593L14.443 38.9648L37.3056 35.3888C38.1512 35.2566 38.9091 34.7975 39.4086 34.1078C39.8922 33.4406 40.0921 32.6081 39.9604 31.7965L36.1972 8.70153C36.1619 8.48397 36.042 8.28923 35.8635 8.15989C35.6851 8.03056 35.4627 7.97716 35.245 8.01139L12.2277 11.6167L34.7274 4.90743C34.939 4.84446 35.117 4.70008 35.2223 4.50599C35.3276 4.3119 35.3515 4.08397 35.2889 3.87223L34.812 2.26734C34.4083 0.889177 33.1208 0 31.734 0ZM31.734 1.66673C32.4123 1.66673 33.0239 2.09257 33.212 2.73449L33.2136 2.73774L33.4447 3.52228L30.1552 2.04761L31.2962 1.72696C31.4428 1.68561 31.5888 1.66673 31.734 1.66673ZM25.4381 3.37416L28.8628 4.91719L24.2629 6.28932L20.708 4.70397L25.4381 3.37416ZM15.9893 6.03215L19.637 7.66795L15.0273 9.04334L11.2787 7.35707L15.9893 6.03215ZM6.54052 8.69013L10.4096 10.4203L5.79503 11.7957L2.10179 10.1453C2.28359 9.96254 2.5074 9.82383 2.77728 9.74812L6.54052 8.69013ZM34.685 9.78718L38.3164 32.0651C38.3776 32.4447 38.2904 32.8106 38.0592 33.1296C37.8187 33.4617 37.4713 33.6755 37.0485 33.7416L14.1858 37.3176L7.84593 38.3137H7.8443C7.76272 38.3267 7.67695 38.3333 7.59527 38.3333C6.81522 38.3333 6.2036 37.8138 6.08639 37.0914L2.88146 17.4258L5.59157 14.3414L10.4356 13.5829L7.62457 16.7829L12.4832 16.0244L15.2878 12.8228L20.1188 12.0675L17.3159 15.2659L22.1583 14.5074L24.9693 11.3074L29.8068 10.5506L27.0088 13.7489L31.8431 12.9904H31.8512L34.6541 9.79206L34.685 9.78718ZM33.0622 14.4928C33.0165 14.4923 32.9707 14.4955 32.9255 14.5025L5.6404 18.7801C5.5319 18.7971 5.42784 18.8354 5.33419 18.8928C5.24054 18.9502 5.15916 19.0255 5.09473 19.1144C5.03029 19.2034 4.98407 19.3042 4.95872 19.411C4.93336 19.5179 4.92938 19.6287 4.947 19.7371L7.57085 35.8315C7.60609 36.0488 7.72581 36.2432 7.90389 36.3725C8.08197 36.5018 8.30396 36.5554 8.52143 36.5217L35.8081 32.2507C35.9166 32.2336 36.0207 32.1953 36.1144 32.1379C36.208 32.0805 36.2894 32.0052 36.3538 31.9163C36.4183 31.8273 36.4645 31.7265 36.4898 31.6197C36.5152 31.5128 36.5192 31.402 36.5015 31.2936L33.8777 15.1927C33.8462 14.9986 33.7471 14.8218 33.5978 14.6937C33.4486 14.5657 33.2589 14.4945 33.0622 14.4928ZM32.3656 16.2783L34.7208 30.7337L9.08136 34.7475L6.72608 20.2971L32.3656 16.2783Z" fill="black"/>
</svg>
