<svg width="40" height="40" viewBox="0 0 40 40" fill="none" xmlns="http://www.w3.org/2000/svg">
<g clip-path="url(#clip0_58_117972)">
<path fill-rule="evenodd" clip-rule="evenodd" d="M2.22248 37.7778H12.2225C12.8225 37.7778 13.3114 38.2889 13.3114 38.8889C13.3114 39.4889 12.8003 40 12.2003 40H1.0447C0.733594 40 0.466914 39.8667 0.266914 39.6667C0.0446913 39.4445 -0.0664062 39.1778 -0.0664062 38.8889V27.7333C-0.0664062 27.1111 0.444705 26.6222 1.0447 26.6222C1.6447 26.6222 2.15582 27.1111 2.15582 27.7111V37.7111L2.22248 37.7778ZM37.778 37.7778H27.7558C27.1558 37.7778 26.6447 38.2667 26.6447 38.8889C26.6447 39.4667 27.1114 40 27.7336 40H38.8669C39.1558 40 39.4225 39.8667 39.6225 39.6667C39.8225 39.4445 39.9336 39.1778 39.9336 38.8889V27.7333C39.9336 27.1333 39.4225 26.6222 38.8225 26.6222C38.2225 26.6222 37.7114 27.0889 37.7114 27.7111V37.7111L37.778 37.7778ZM39.6669 0.31113C39.4669 0.11113 39.178 -0.0221897 38.8891 -0.0221897H27.7336C27.1336 -0.0221897 26.6225 0.466699 26.6225 1.08892C26.6225 1.6667 27.0892 2.20003 27.7114 2.20003H37.7114V12.2C37.7114 12.7778 38.2003 13.2889 38.8225 13.2889C39.4003 13.2889 39.9336 12.8 39.9336 12.1778V1.02226C39.9336 0.711146 39.8003 0.444466 39.6003 0.244466L39.6669 0.31113ZM0.311367 0.28892C0.489145 0.0889201 0.778026 -0.0444336 1.06691 -0.0444336H12.2003C12.8003 -0.0444336 13.2891 0.466677 13.2891 1.06668C13.2891 1.66668 12.778 2.17779 12.178 2.17779H2.15582V12.1778C2.15582 12.7778 1.62248 13.2667 1.0447 13.2667C0.422483 13.2667 -0.0664062 12.7556 -0.0664062 12.1556V1.00001C-0.0664062 0.688902 0.0447035 0.422256 0.244704 0.222256L0.311367 0.28892ZM19.978 24.4C22.4225 24.4 24.4225 22.4 24.4225 19.9556C24.4225 17.4889 22.4225 15.5111 19.978 15.5111C17.5114 15.5111 15.5336 17.4889 15.5336 19.9556C15.5336 22.4 17.5114 24.4 19.978 24.4Z" fill="black"/>
</g>
<defs>
<clipPath id="clip0_58_117972">
<rect width="40" height="40" fill="white"/>
</clipPath>
</defs>
</svg>
