<svg width="41" height="40" viewBox="0 0 41 40" fill="none" xmlns="http://www.w3.org/2000/svg">
<path d="M20.9987 3.3335C11.7937 3.3335 4.33203 10.7952 4.33203 20.0002C4.33203 29.2052 11.7937 36.6668 20.9987 36.6668C30.2037 36.6668 37.6654 29.2052 37.6654 20.0002C37.6654 10.7952 30.2037 3.3335 20.9987 3.3335Z" fill="#4E6E91"/>
<path d="M21.8945 21.3799L24.239 27.3593C24.7706 28.0593 25.4023 28.671 26.1556 29.086C28.5101 30.3827 31.509 29.6349 32.8529 27.4154C32.8518 27.4149 22.1629 21.5793 21.8945 21.3799Z" fill="#F5905F"/>
<path d="M21.8945 21.3799C22.209 21.5016 32.8529 27.4138 32.8529 27.4138C34.1962 25.1933 33.3768 22.3433 31.0212 21.0466C30.2679 20.6321 29.3968 20.4166 28.4956 20.3271L21.8945 21.3799Z" fill="#F16E7C"/>
<path d="M30.0971 22.6816C29.8138 22.526 29.5082 22.3927 29.1927 22.271C29.2938 23.2088 29.1099 24.1827 28.5777 25.0621C28.0455 25.9416 27.2538 26.5799 26.3516 26.9654C26.6205 27.1649 26.8938 27.351 27.1771 27.5066C30.1271 29.131 32.0443 28.7477 32.8516 27.416C33.6582 26.0827 33.0471 24.306 30.0971 22.6816Z" fill="#F27C7C"/>
<path d="M24.4258 25.1267C24.9991 25.7973 25.648 26.4412 26.3541 26.964C27.2563 26.5784 28.0486 25.9401 28.5802 25.0606C29.1124 24.1812 29.2963 23.2079 29.1952 22.2695C28.368 21.9484 27.458 21.734 26.5636 21.5962C26.6063 22.2962 26.4469 23.0156 26.0524 23.6684C25.6558 24.3212 25.0824 24.8134 24.4258 25.1267Z" fill="#F7C498"/>
<path d="M26.3527 26.9647C25.6472 26.4424 24.9977 25.7974 24.4244 25.1274C24.0144 25.323 23.5716 25.4408 23.1172 25.4902C23.4255 26.1352 23.7966 26.7774 24.2394 27.3602C24.9689 27.3769 25.69 27.2474 26.3527 26.9647Z" fill="#EAA871"/>
<path d="M26.5622 21.597C27.4577 21.7359 28.3677 21.9493 29.1938 22.2704C29.1199 21.5809 28.8766 20.9215 28.4961 20.3265C27.7455 20.252 26.9777 20.2682 26.2383 20.3348C26.4199 20.7359 26.5361 21.1609 26.5622 21.597Z" fill="#F599A0"/>
<path d="M26.0501 23.6685C26.4451 23.0157 26.6051 22.2974 26.5612 21.5963C24.1551 21.224 21.8945 21.3801 21.8945 21.3801C21.8945 21.3801 22.8834 23.3257 24.4251 25.1268C25.0818 24.8135 25.6551 24.3213 26.0501 23.6685Z" fill="#F7C498"/>
<path d="M24.4253 25.1265C22.8836 23.3254 21.8947 21.3799 21.8947 21.3799C21.838 21.4727 21.818 21.5849 21.8419 21.6993C21.9908 22.3999 22.3775 23.946 23.1169 25.4904C23.5714 25.4399 24.0153 25.3232 24.4253 25.1265Z" fill="#EAA871"/>
<path d="M26.2401 20.3354C24.4679 20.496 22.8718 20.9504 22.1612 21.1777C22.0457 21.2143 21.954 21.2882 21.8984 21.3804C21.8984 21.3804 24.1595 21.2249 26.5651 21.5966C26.5379 21.161 26.4218 20.736 26.2401 20.3354Z" fill="#F599A0"/>
<path d="M20.1057 21.3799C19.8368 21.5793 9.14844 27.4149 9.14844 27.4149C10.4923 29.6349 13.4901 30.3827 15.8457 29.086C16.599 28.6716 17.2307 28.0593 17.7623 27.3593L20.1057 21.3799Z" fill="#CEB743"/>
<path d="M20.104 21.3795L13.5029 20.3262C12.6018 20.4151 11.7296 20.6312 10.9774 21.0462C8.62292 22.3428 7.80237 25.1939 9.1457 27.4145C9.14681 27.4145 19.7896 21.5023 20.104 21.3795Z" fill="#A0D2A1"/>
<path d="M14.82 27.5066C15.1034 27.3504 15.3767 27.1638 15.6456 26.9654C14.7434 26.5799 13.9511 25.9416 13.4195 25.0621C12.8872 24.1827 12.7034 23.2088 12.8045 22.271C12.49 22.3927 12.1834 22.526 11.9 22.6821C8.95003 24.3066 8.33947 26.0827 9.14558 27.4154C9.95225 28.7477 11.87 29.131 14.82 27.5066Z" fill="#DCE775"/>
<path d="M15.4395 21.5972C14.5439 21.7361 13.6339 21.9494 12.8078 22.2705C12.7067 23.2083 12.8906 24.1822 13.4228 25.0616C13.955 25.9411 14.7467 26.5794 15.6489 26.9649C16.3545 26.4427 17.0039 25.7977 17.5773 25.1277C16.92 24.8133 16.3473 24.3222 15.9517 23.6694C15.5561 23.0161 15.3967 22.2972 15.4395 21.5972Z" fill="#FEF6AA"/>
<path d="M12.8047 22.2703C13.6319 21.9492 14.5419 21.7348 15.4364 21.597C15.4636 21.1603 15.5786 20.7353 15.7602 20.3348C15.0208 20.2676 14.2514 20.2526 13.5019 20.3265C13.1225 20.9215 12.8791 21.582 12.8047 22.2703Z" fill="#DCE775"/>
<path d="M17.5768 25.127C17.0034 25.7975 16.3545 26.442 15.6484 26.9642C16.3112 27.2475 17.0323 27.377 17.7623 27.3597C18.2051 26.777 18.5751 26.1347 18.8845 25.4897C18.4295 25.4403 17.9862 25.3231 17.5768 25.127Z" fill="#F9E65C"/>
<path d="M15.9477 23.6681C16.3427 24.3208 16.916 24.8119 17.5733 25.1264C19.1149 23.3253 20.1038 21.3792 20.1038 21.3792C20.1038 21.3792 17.8427 21.2231 15.4366 21.5953C15.3933 22.2969 15.5527 23.0158 15.9477 23.6681Z" fill="#FEF6AA"/>
<path d="M15.4375 21.5972C17.8436 21.225 20.1047 21.3811 20.1047 21.3811C20.0481 21.2883 19.9575 21.215 19.8419 21.1777C19.1303 20.95 17.5342 20.4966 15.7631 20.335C15.5792 20.7355 15.4647 21.1605 15.4375 21.5972Z" fill="#DCE775"/>
<path d="M18.8826 25.4895C19.622 23.9451 20.0087 22.4001 20.1576 21.6979C20.182 21.5834 20.1614 21.4712 20.1048 21.3784C20.1048 21.3784 19.1159 23.324 17.5742 25.1256C17.9848 25.3229 18.4281 25.4401 18.8826 25.4895Z" fill="#F9E65C"/>
<path d="M21.0011 7.5L21 19.7222C21.1083 19.7222 21.2172 19.6828 21.3061 19.6044C22.3533 18.6839 25.7222 15.4694 25.7222 12.2561C25.7222 9.62944 23.6083 7.50111 21.0011 7.5Z" fill="#78A1D1"/>
<path d="M20.9996 7.5C20.9985 7.5 20.9985 7.5 20.9996 7.5C18.3918 7.5 16.2773 9.62944 16.2773 12.2561C16.2773 15.4694 19.6462 18.6839 20.6935 19.6044C20.7823 19.6822 20.8907 19.7222 20.9996 19.7222V7.5Z" fill="#52BEA0"/>
<path d="M21.0013 7.5C19.4352 7.5 18.168 8.91 18.168 12.2011C18.168 15.5761 21.0013 19.7222 21.0013 19.7222C21.0013 19.7222 23.8346 15.5761 23.8346 12.2011C23.8346 8.91 22.5663 7.5 21.0013 7.5Z" fill="#9DC4E8"/>
<path d="M21 7.5C21.5128 7.5 21.8889 7.58667 21.9417 7.59889C23.5717 7.96833 24.7778 9.26 24.7778 10.7906C24.7778 11.6461 24.3906 12.4267 23.7767 13.0094C23.7861 12.9433 21.2656 7.52833 21 7.5Z" fill="#78CCD3"/>
<path d="M22.719 16.582C21.9257 18.3681 21.0001 19.722 21.0001 19.722C21.0001 19.722 20.0746 18.3681 19.2812 16.582C19.8196 16.7887 20.3957 16.9015 21.0001 16.9015C21.6046 16.9015 22.1807 16.7887 22.719 16.582Z" fill="#9DC4E8"/>
<path d="M18.2238 13.0094C17.6004 12.4361 17.2227 11.6461 17.2227 10.7906C17.2227 9.20167 18.5165 7.87611 20.2354 7.56556C20.3865 7.53778 20.841 7.5 21.0004 7.5C19.5743 7.66944 18.186 12.7367 18.2238 13.0094Z" fill="#78CCD3"/>
<path d="M23.8346 12.2011C23.8346 12.3328 23.8346 12.4739 23.8157 12.6056C23.8157 12.7372 23.7969 12.8783 23.778 13.01C23.0885 13.6683 22.0969 14.0817 21.0013 14.0817C19.9057 14.0817 18.9141 13.6678 18.2246 13.01C18.1869 12.7372 18.168 12.4644 18.168 12.2017C18.168 9.11778 19.2824 7.68889 20.7085 7.51944C20.803 7.5 20.9069 7.5 21.0013 7.5C21.0957 7.5 21.1996 7.5 21.2941 7.51889C21.5585 7.54722 21.823 7.62222 22.0591 7.75389C22.1346 7.79167 22.2102 7.83833 22.2857 7.88556C22.3613 7.93278 22.4369 7.98889 22.5124 8.06444C22.5785 8.12111 22.6446 8.17722 22.7013 8.24333C22.9185 8.46889 23.1169 8.75111 23.268 9.09889C23.3152 9.20222 23.3624 9.30556 23.4002 9.40889C23.4474 9.52167 23.4852 9.63444 23.523 9.75667C23.5607 9.86 23.5891 9.97278 23.608 10.0856C23.6457 10.2361 23.6835 10.3867 23.7024 10.5461C23.7402 10.725 23.7685 10.9222 23.7874 11.1194C23.8157 11.4489 23.8346 11.8156 23.8346 12.2011Z" fill="#78CCD3"/>
<path d="M25.7033 12.624C25.4672 15.7174 22.3128 18.7257 21.3022 19.6096C21.2172 19.6846 21.1133 19.7224 21 19.7224C21 19.7224 21.9256 18.3685 22.7189 16.5824C24.3433 15.9429 25.5333 14.429 25.7033 12.624Z" fill="#78A1D1"/>
<path d="M21.0002 19.7224C20.8869 19.7224 20.783 19.6846 20.698 19.6096C19.6874 18.7257 16.533 15.7174 16.2969 12.624C16.4669 14.429 17.6569 15.9429 19.2813 16.5824C20.0747 18.3685 21.0002 19.7224 21.0002 19.7224Z" fill="#52BEA0"/>
<path d="M39.7591 25.0277C39.3202 26.6888 38.6647 28.261 37.8258 29.7166L35.4258 28.3333C36.1536 27.0888 36.7202 25.7388 37.0924 24.311L39.7591 25.0277Z" fill="#E85654"/>
<path d="M12.6667 34.4276L11.2833 36.8276C9.81111 35.9721 8.45 34.9443 7.25 33.7499L9.21667 31.7832C10.2444 32.811 11.4 33.6999 12.6667 34.4276Z" fill="#F9E65C"/>
<path d="M4.90469 24.3111L2.23246 25.0278C1.80469 23.4222 1.55469 21.7444 1.55469 20H4.33247C4.33247 21.4889 4.52691 22.9333 4.90469 24.3111Z" fill="#A0D2A1"/>
<path d="M9.21632 31.7835L7.24965 33.7502C6.05521 32.5502 5.02743 31.1891 4.17188 29.7168L6.57188 28.3335C7.29965 29.6002 8.18854 30.7557 9.21632 31.7835Z" fill="#FEF6AA"/>
<path d="M6.57326 28.3333L4.17326 29.7166C3.33437 28.261 2.67882 26.6888 2.23438 25.0277L4.9066 24.311C5.27882 25.7388 5.84549 27.0888 6.57326 28.3333Z" fill="#DCE775"/>
<path d="M16.6868 36.0944L15.9701 38.7611C14.309 38.3222 12.7368 37.6666 11.2812 36.8277L12.6646 34.4277C13.909 35.1555 15.259 35.7222 16.6868 36.0944Z" fill="#EAD032"/>
<path d="M34.7487 33.7499C33.5487 34.9443 32.1876 35.9721 30.7154 36.8276L29.332 34.4276C30.5987 33.6999 31.7543 32.811 32.782 31.7832L34.7487 33.7499Z" fill="#F59173"/>
<path d="M30.7164 36.8277C29.2608 37.6666 27.6886 38.3222 26.0275 38.7611L25.3164 36.0944C26.7386 35.7222 28.0886 35.1555 29.3331 34.4277L30.7164 36.8277Z" fill="#F5905F"/>
<path d="M37.8257 29.7168C36.9701 31.1891 35.9424 32.5502 34.7479 33.7502L32.7812 31.7835C33.809 30.7557 34.6979 29.6002 35.4257 28.3335L37.8257 29.7168Z" fill="#F16E7C"/>
<path d="M21.0004 36.6665V39.4442C19.256 39.4442 17.5782 39.1942 15.9727 38.7609L16.6893 36.0942C18.0671 36.472 19.5115 36.6665 21.0004 36.6665Z" fill="#FBB97F"/>
<path d="M26.0278 38.7609C24.4222 39.1942 22.7444 39.4442 21 39.4442V36.6665C22.4944 36.6665 23.9389 36.472 25.3167 36.0942L26.0278 38.7609Z" fill="#EAA871"/>
<path d="M16.6813 3.90562C15.259 4.27784 13.909 4.84451 12.6646 5.57229L11.2812 3.17229C12.7368 2.3334 14.309 1.67784 15.9701 1.2334L16.6813 3.90562Z" fill="#40A6DD"/>
<path d="M39.7591 14.9721L37.0869 15.6665C36.7147 14.2499 36.148 12.9054 35.4258 11.6665L37.8258 10.2832C38.6647 11.7388 39.3202 13.311 39.7591 14.9721Z" fill="#C26DAB"/>
<path d="M37.8257 10.2833L35.4257 11.6667C34.6979 10.4 33.809 9.24444 32.7812 8.21667L34.7479 6.25C35.9424 7.45 36.9701 8.81111 37.8257 10.2833Z" fill="#787AB5"/>
<path d="M34.7487 6.25014L32.782 8.21681C31.7543 7.18903 30.5987 6.30014 29.332 5.57236L30.7154 3.17236C32.1876 4.02792 33.5487 5.0557 34.7487 6.25014Z" fill="#8789B9"/>
<path d="M30.7141 3.17229L29.3308 5.57229C28.0864 4.84451 26.7364 4.27784 25.3086 3.90562L26.0253 1.23895V1.2334C27.6864 1.67784 29.2586 2.3334 30.7141 3.17229Z" fill="#78A1D1"/>
<path d="M40.4415 19.9999H37.6637C37.6637 18.4999 37.4637 17.0499 37.0859 15.6666L39.7582 14.9722C40.1915 16.5777 40.4415 18.2555 40.4415 19.9999Z" fill="#EF6388"/>
<path d="M4.90469 15.6888C4.52691 17.0666 4.33247 18.5111 4.33247 19.9999H1.55469C1.55469 18.2555 1.80469 16.5777 2.23246 14.9722L4.90469 15.6888Z" fill="#8CC78C"/>
<path d="M40.4437 20C40.4437 21.7444 40.1937 23.4222 39.7604 25.0278L37.0938 24.3111C37.4715 22.9333 37.666 21.4889 37.666 20H40.4437Z" fill="#F05B6C"/>
<path d="M26.0278 1.239L25.3111 3.90566C23.9333 3.52789 22.4889 3.33344 21 3.33344V0.555664C22.7444 0.555664 24.4222 0.805664 26.0278 1.239Z" fill="#40A6DD"/>
<path d="M9.21632 8.21667C8.18854 9.24444 7.29965 10.4 6.57188 11.6667L4.17188 10.2833C5.02743 8.81111 6.05521 7.45 7.24965 6.25L9.21632 8.21667Z" fill="#52BEA0"/>
<path d="M6.57326 11.6665C5.84549 12.911 5.27882 14.261 4.9066 15.6888L2.23438 14.9721C2.67882 13.311 3.33437 11.7388 4.17326 10.2832L6.57326 11.6665Z" fill="#60BD91"/>
<path d="M12.6667 5.57236C11.4 6.30014 10.2444 7.18903 9.21667 8.21681L7.25 6.25014C8.45 5.0557 9.81111 4.02792 11.2833 3.17236L12.6667 5.57236Z" fill="#4DB6AC"/>
<path d="M21.0004 0.555664V3.33344C19.506 3.33344 18.0615 3.52789 16.6838 3.90566L15.9727 1.23344C17.5782 0.805664 19.256 0.555664 21.0004 0.555664Z" fill="#449AE3"/>
<path d="M21 40C9.97167 40 1 31.0283 1 20C1 8.97167 9.97167 0 21 0C32.0283 0 41 8.97167 41 20C41 31.0283 32.0283 40 21 40ZM21 1.11111C10.5844 1.11111 2.11111 9.58444 2.11111 20C2.11111 30.4156 10.5844 38.8889 21 38.8889C31.4156 38.8889 39.8889 30.4156 39.8889 20C39.8889 9.58444 31.4156 1.11111 21 1.11111Z" fill="#1F212B"/>
<path d="M29.612 5.68191C29.5636 5.68191 29.5153 5.66969 29.4709 5.64358C29.1164 5.43469 28.7486 5.2358 28.377 5.05136C28.2397 4.98302 28.1836 4.81636 28.2514 4.67858C28.3203 4.5408 28.4881 4.4858 28.6242 4.55302C29.007 4.74358 29.387 4.94969 29.7525 5.16525C29.8847 5.24358 29.9286 5.41358 29.8509 5.5458C29.7997 5.63302 29.707 5.68191 29.612 5.68191Z" fill="#1F212B"/>
<path d="M31.2788 6.80494C31.2199 6.80494 31.1604 6.78661 31.1099 6.74772C30.9304 6.6105 30.7482 6.47716 30.5638 6.34716C30.4377 6.25883 30.4077 6.0855 30.496 5.9605C30.5843 5.83438 30.7582 5.80494 30.8827 5.89272C31.0738 6.02661 31.2627 6.16438 31.4477 6.30605C31.5699 6.39938 31.5927 6.57327 31.4999 6.6955C31.4449 6.76772 31.3621 6.80494 31.2788 6.80494Z" fill="#1F212B"/>
<path d="M20.9996 37.2223C11.5029 37.2223 3.77734 29.4967 3.77734 20.0001C3.77734 10.5034 11.5029 2.77783 20.9996 2.77783C23.0357 2.77783 25.0307 3.13061 26.9285 3.82616C27.0729 3.8795 27.1468 4.03894 27.094 4.18283C27.0412 4.32783 26.8812 4.40061 26.7373 4.34839C24.9007 3.6745 22.9707 3.33339 20.9996 3.33339C11.8096 3.33339 4.3329 10.8101 4.3329 20.0001C4.3329 29.1901 11.8096 36.6667 20.9996 36.6667C30.1896 36.6667 37.6662 29.1901 37.6662 20.0001C37.6662 15.3117 35.6746 10.8139 32.2018 7.6595C32.0879 7.55617 32.0796 7.38061 32.1829 7.26728C32.2868 7.15394 32.4623 7.14505 32.5751 7.24839C36.164 10.5078 38.2218 15.1551 38.2218 20.0001C38.2218 29.4967 30.4962 37.2223 20.9996 37.2223Z" fill="#1F212B"/>
<path d="M13.3711 29.9963C11.5872 29.9963 9.85723 29.1229 8.91001 27.5579C8.23668 26.4457 8.05001 25.144 8.38556 23.8929C8.73668 22.5807 9.61001 21.4829 10.8445 20.8029C11.5683 20.404 12.4539 20.1507 13.4772 20.0496C14.185 19.9807 14.9633 19.9835 15.7872 20.0585C17.645 20.2285 19.3011 20.7129 19.9267 20.9129C20.1017 20.9685 20.2506 21.0835 20.3433 21.2368L20.3439 21.2379C20.4372 21.3929 20.4678 21.5774 20.4289 21.7568C20.2983 22.3718 19.9122 23.974 19.1439 25.5857C19.1406 25.594 19.1372 25.6018 19.1333 25.6096C18.7861 26.334 18.3989 26.9796 17.9822 27.5279C17.3756 28.3246 16.7017 28.9296 15.9783 29.3285C15.1556 29.7807 14.2567 29.9963 13.3711 29.9963ZM14.5433 20.5557C14.1917 20.5557 13.8533 20.5713 13.5311 20.6035C12.5833 20.6968 11.7695 20.9279 11.1122 21.2896C10.0117 21.8963 9.2339 22.8718 8.92223 24.0363C8.62668 25.1402 8.79112 26.289 9.38445 27.2702C10.6506 29.3596 13.4872 30.0646 15.7111 28.8407C16.3672 28.4802 16.9822 27.9252 17.5395 27.1907C17.9295 26.6785 18.2933 26.0735 18.6222 25.3918C18.625 25.384 18.6283 25.3763 18.6322 25.3685C19.3828 23.8035 19.7589 22.2396 19.8861 21.6402C19.8978 21.5874 19.8828 21.5479 19.8689 21.524C19.8456 21.4863 19.8072 21.4574 19.7595 21.4424C19.15 21.2468 17.5406 20.7763 15.7378 20.6118C15.325 20.5746 14.9256 20.5557 14.5433 20.5557Z" fill="#1F212B"/>
<path d="M28.627 29.9963C27.7415 29.9963 26.8432 29.7807 26.0209 29.3285C25.2965 28.9296 24.6226 28.3235 24.0182 27.5279C23.6015 26.9807 23.2137 26.3352 22.8659 25.6096C22.0909 23.9896 21.702 22.3763 21.5709 21.7563C21.5326 21.5779 21.5626 21.3935 21.6559 21.2379C21.7493 21.0835 21.8982 20.9685 22.0743 20.9129C22.6987 20.7129 24.3548 20.2285 26.212 20.0585C27.0365 19.9835 27.8137 19.9807 28.5226 20.0496C29.5465 20.1513 30.432 20.4046 31.1548 20.8029C32.3893 21.4824 33.2626 22.579 33.6143 23.8918C33.9498 25.1435 33.7637 26.4452 33.0909 27.5579C33.0859 27.5657 33.0809 27.5729 33.0759 27.5802C32.1248 29.1313 30.4032 29.9963 28.627 29.9963ZM27.4559 20.5557C27.0732 20.5557 26.6743 20.5746 26.2626 20.6124C24.4604 20.7768 22.8504 21.2479 22.2426 21.4429C22.1937 21.4579 22.1548 21.4874 22.132 21.5246C22.1182 21.5479 22.1031 21.5874 22.1148 21.6396V21.6407C22.242 22.2402 22.6182 23.8035 23.3682 25.369C23.6982 26.0585 24.0654 26.6718 24.4604 27.1913C25.0187 27.9252 25.6343 28.4807 26.2898 28.8413C28.5109 30.0652 31.3498 29.3602 32.6154 27.2707C33.2093 26.2885 33.3737 25.1402 33.0781 24.0368C32.7665 22.8713 31.9887 21.8963 30.8882 21.2902C30.2309 20.9285 29.4176 20.6974 28.4693 20.604C28.1454 20.5713 27.8076 20.5557 27.4559 20.5557Z" fill="#1F212B"/>
<path d="M4.98667 23.7783C4.80945 23.7783 4.64278 23.7139 4.50389 23.5911C3.44778 22.6617 0 19.3694 0 16.0344C0 13.2589 2.24 11 4.99334 11H4.99445C7.74722 11.0017 9.98667 13.26 9.98667 16.035C9.98667 19.37 6.53889 22.6622 5.48222 23.5917C5.34778 23.71 5.16667 23.7783 4.98667 23.7783ZM4.99445 11.5561C2.54667 11.5561 0.555556 13.565 0.555556 16.035C0.555556 19.1367 3.85889 22.2839 4.87167 23.175C5.00833 23.295 5.06167 23.2222 5.115 23.175C6.12778 22.2839 9.43111 19.1367 9.43111 16.035C9.43111 13.5661 7.44056 11.5572 4.99445 11.5561Z" fill="#1F212B"/>
</svg>
