<svg width="40" height="40" viewBox="0 0 40 40" fill="none" xmlns="http://www.w3.org/2000/svg">
<path fill-rule="evenodd" clip-rule="evenodd" d="M39.716 4.90616C39.1698 3.26697 37.8478 1.79396 35.8834 0.883099C33.919 -0.0282 31.6707 -0.211167 29.6303 0.22813C27.5905 0.667428 25.757 1.72899 24.6226 3.30675L11.6874 21.3073L9.89069 23.8066C9.13924 24.8531 8.98796 26.0503 9.35048 27.1362C9.71246 28.2221 10.5882 29.1988 11.8909 29.8025C13.193 30.4066 14.6833 30.5282 16.0349 30.2365C17.3865 29.9457 18.6017 29.2416 19.3537 28.1955L26.8522 17.7611L24.9533 16.8799L17.4536 27.3152C17.0042 27.9397 16.2769 28.3604 15.4666 28.535C14.6563 28.7095 13.7646 28.6371 12.9867 28.2769C12.2094 27.9162 11.6857 27.3315 11.4684 26.681C11.2517 26.03 11.3413 25.3132 11.7902 24.6887L19.2888 14.2538L26.5222 4.18844C27.3539 3.03185 28.6995 2.25314 30.1986 1.93096C31.6971 1.60834 33.3468 1.74181 34.7859 2.40959C36.2256 3.07738 37.1954 4.15882 37.597 5.36269C37.998 6.56612 37.8324 7.89241 37.0007 9.04855L35.9951 10.4478L24.0648 27.0487L18.5511 34.7218C17.3458 36.3981 15.3951 37.5277 13.2233 37.9949C11.0514 38.4625 8.659 38.2684 6.57133 37.3006C4.48366 36.3318 3.07868 34.7647 2.49666 33.0194C1.91519 31.2746 2.15614 29.3526 3.36143 27.6754L20.8054 3.40177L18.9059 2.52052L1.46135 26.7946C-0.0464976 28.8929 -0.349608 31.2958 0.377638 33.4755C1.10433 35.6556 2.86194 37.6144 5.47496 38.8257C8.08688 40.0376 11.0773 40.2806 13.791 39.6968C16.5047 39.1126 18.9433 37.7005 20.4517 35.6022L25.9655 27.9299L37.8962 11.3286L38.9013 9.92935C40.0351 8.35159 40.2628 6.54491 39.716 4.90616Z" fill="#FFF72D" fill-opacity="0.65"/>
</svg>
