<svg width="22" height="22" viewBox="0 0 22 22" fill="none" xmlns="http://www.w3.org/2000/svg">
<path d="M14.0367 10.1088C13.8835 10.1081 13.7319 10.1395 13.5916 10.2009C13.4512 10.2623 13.3252 10.3523 13.2217 10.4651C13.1181 10.578 13.0393 10.7113 12.9902 10.8564C12.9412 11.0015 12.9229 11.1552 12.9367 11.3078H15.2027C15.2174 11.1495 15.1975 10.9899 15.1446 10.84C15.0916 10.6902 15.0068 10.5536 14.896 10.4396C14.7852 10.3257 14.651 10.2371 14.5026 10.18C14.3543 10.1228 14.1953 10.0986 14.0367 10.1088ZM8.23972 11.3298H6.88672V13.4638H7.98672C9.08672 13.4638 9.57072 13.1008 9.57072 12.3638C9.57072 11.6268 9.06472 11.3298 8.23972 11.3298ZM9.19672 9.37177C9.19672 8.78877 8.81172 8.43677 8.15172 8.43677H6.88672V10.3508H7.82172C8.80072 10.3508 9.19672 9.99877 9.19672 9.37177Z" fill="#D9D9D9"/>
<path d="M11 0C8.82441 0 6.69767 0.645139 4.88873 1.85383C3.07979 3.06253 1.66989 4.78049 0.83733 6.79048C0.00476612 8.80047 -0.213071 11.0122 0.211367 13.146C0.635804 15.2798 1.68345 17.2398 3.22183 18.7782C4.76021 20.3165 6.72022 21.3642 8.85401 21.7886C10.9878 22.2131 13.1995 21.9952 15.2095 21.1627C17.2195 20.3301 18.9375 18.9202 20.1462 17.1113C21.3549 15.3023 22 13.1756 22 11C22 9.55546 21.7155 8.12506 21.1627 6.79048C20.6099 5.4559 19.7996 4.24327 18.7782 3.22182C17.7567 2.20038 16.5441 1.39013 15.2095 0.837325C13.8749 0.284523 12.4445 0 11 0ZM8.47 14.52H5.5V7.37H8.47C9.757 7.37 10.604 8.041 10.604 9.13C10.6192 9.49585 10.5035 9.85514 10.2777 10.1434C10.0519 10.4317 9.73084 10.6301 9.372 10.703C9.59941 10.7083 9.82335 10.7599 10.0301 10.8547C10.2369 10.9495 10.4221 11.0855 10.5745 11.2544C10.7269 11.4232 10.8433 11.6214 10.9164 11.8368C10.9896 12.0522 11.018 12.2802 11 12.507C11 13.783 9.9 14.52 8.47 14.52ZM12.375 7.92H15.675V8.47H12.375V7.92ZM16.5 12.155H12.87V12.309C12.8511 12.4761 12.8682 12.6454 12.9202 12.8054C12.9723 12.9654 13.058 13.1123 13.1716 13.2364C13.2852 13.3604 13.4241 13.4587 13.5789 13.5245C13.7337 13.5903 13.9008 13.6222 14.069 13.618C14.3051 13.6547 14.5465 13.6047 14.7487 13.4774C14.9509 13.35 15.1002 13.1538 15.169 12.925H16.5C16.3815 13.453 16.0725 13.9188 15.6321 14.2334C15.1918 14.5479 14.6509 14.6891 14.113 14.63C13.7692 14.6647 13.422 14.6237 13.0957 14.5098C12.7695 14.3959 12.4722 14.2118 12.2247 13.9707C11.9773 13.7295 11.7857 13.437 11.6634 13.1138C11.5411 12.7906 11.4911 12.4446 11.517 12.1V11.616C11.4936 11.2821 11.5428 10.9471 11.661 10.634C11.7793 10.3209 11.9638 10.0371 12.2021 9.80196C12.4403 9.56686 12.7265 9.38607 13.0412 9.27199C13.3559 9.1579 13.6915 9.11322 14.025 9.141C14.3574 9.11969 14.6906 9.16985 15.002 9.2881C15.3135 9.40636 15.5959 9.58996 15.8304 9.82656C16.065 10.0632 16.2461 10.3472 16.3615 10.6597C16.477 10.9722 16.5243 11.3058 16.5 11.638V12.155Z" fill="#D9D9D9"/>
</svg>
