<svg width="440" height="328" viewBox="0 0 440 328" fill="none" xmlns="http://www.w3.org/2000/svg">
<path d="M440 288.112H0V288.332H440V288.112Z" fill="#EBEBEB"/>
<path d="M395.912 302.271H366.766V302.491H395.912V302.271Z" fill="#EBEBEB"/>
<path d="M291.474 304.665H283.826V304.885H291.474V304.665Z" fill="#EBEBEB"/>
<path d="M365.886 294.105H348.999V294.325H365.886V294.105Z" fill="#EBEBEB"/>
<path d="M84.172 295.583H46.1648V295.803H84.172V295.583Z" fill="#EBEBEB"/>
<path d="M97.5831 295.583H92.0127V295.803H97.5831V295.583Z" fill="#EBEBEB"/>
<path d="M198.132 299.296H115.694V299.516H198.132V299.296Z" fill="#EBEBEB"/>
<path d="M208.56 248.864H38.6408C37.3096 248.862 36.0338 248.331 35.0934 247.389C34.1529 246.447 33.6248 245.17 33.6248 243.839V4.9808C33.6363 3.6573 34.1696 2.39182 35.1088 1.45923C36.048 0.526643 37.3172 0.00226722 38.6408 0H208.56C209.893 0 211.171 0.529397 212.113 1.47173C213.055 2.41406 213.585 3.69214 213.585 5.0248V243.839C213.585 245.172 213.055 246.45 212.113 247.392C211.171 248.335 209.893 248.864 208.56 248.864ZM38.6408 0.176001C37.368 0.178332 36.1481 0.685577 35.2489 1.5864C34.3498 2.48722 33.8448 3.70801 33.8448 4.9808V243.839C33.8448 245.112 34.3498 246.333 35.2489 247.234C36.1481 248.134 37.368 248.642 38.6408 248.644H208.56C209.834 248.642 211.054 248.135 211.955 247.234C212.855 246.334 213.362 245.113 213.365 243.839V4.9808C213.362 3.7072 212.855 2.48643 211.955 1.58586C211.054 0.685291 209.834 0.178327 208.56 0.176001H38.6408Z" fill="#EBEBEB"/>
<path d="M398.913 248.864H228.985C227.653 248.862 226.376 248.332 225.434 247.39C224.492 246.448 223.962 245.171 223.96 243.839V4.9808C223.974 3.6565 224.509 2.39103 225.45 1.45868C226.39 0.526336 227.66 0.0022425 228.985 0H398.913C400.235 0.00457996 401.502 0.529979 402.439 1.46232C403.376 2.39466 403.908 3.65882 403.92 4.9808V243.839C403.92 245.169 403.393 246.444 402.454 247.386C401.516 248.328 400.242 248.859 398.913 248.864ZM228.985 0.176001C227.711 0.178327 226.49 0.685291 225.59 1.58586C224.689 2.48643 224.182 3.7072 224.18 4.9808V243.839C224.182 245.113 224.689 246.334 225.59 247.234C226.49 248.135 227.711 248.642 228.985 248.644H398.913C400.186 248.642 401.407 248.135 402.308 247.234C403.208 246.334 403.715 245.113 403.718 243.839V4.9808C403.715 3.7072 403.208 2.48643 402.308 1.58586C401.407 0.685291 400.186 0.178327 398.913 0.176001H228.985Z" fill="#EBEBEB"/>
<path d="M272.351 282.982H253.774L263.542 203.456C263.777 201.795 264.593 200.271 265.844 199.155C267.096 198.038 268.703 197.402 270.38 197.358H351.428L339.548 282.982H272.351Z" fill="#F5F5F5"/>
<path d="M331.258 282.982H349.835L359.603 203.456C359.723 202.691 359.674 201.91 359.458 201.166C359.243 200.423 358.867 199.736 358.356 199.154C357.846 198.572 357.213 198.109 356.504 197.799C355.795 197.489 355.027 197.338 354.253 197.358H347.873C346.194 197.399 344.585 198.035 343.332 199.152C342.078 200.269 341.261 201.794 341.026 203.456L331.258 282.982Z" fill="#F0F0F0"/>
<path d="M324.421 282.894L327.782 244.42C327.86 243.59 328.217 242.811 328.796 242.211C329.375 241.611 330.141 241.227 330.968 241.12L332.358 240.944C333.464 240.804 334.49 240.292 335.267 239.493C336.044 238.693 336.526 237.654 336.635 236.544L337.242 229.504C337.302 228.825 337.22 228.141 337.001 227.495C336.783 226.85 336.432 226.256 335.972 225.753C335.512 225.25 334.953 224.848 334.329 224.573C333.705 224.298 333.031 224.155 332.35 224.154H363.387C364.07 224.154 364.745 224.295 365.369 224.57C365.994 224.845 366.555 225.247 367.016 225.75C367.477 226.253 367.828 226.847 368.047 227.493C368.266 228.14 368.349 228.824 368.289 229.504L367.673 236.544C367.566 237.654 367.084 238.695 366.306 239.494C365.529 240.294 364.503 240.805 363.396 240.944L362.014 241.12C361.185 241.227 360.417 241.615 359.837 242.218C359.258 242.821 358.902 243.605 358.829 244.438L355.458 282.911C355.34 284.263 354.719 285.521 353.719 286.438C352.719 287.355 351.412 287.864 350.055 287.866H319.009C320.369 287.864 321.68 287.353 322.682 286.432C323.684 285.512 324.304 284.249 324.421 282.894Z" fill="#E6E6E6"/>
<path d="M238.99 234.793C238.735 231.879 237.397 229.167 235.24 227.191C233.083 225.215 230.264 224.118 227.339 224.119H254.364C257.289 224.118 260.108 225.215 262.265 227.191C264.422 229.167 265.76 231.879 266.015 234.793L268.655 265.285H241.657L238.99 234.793Z" fill="#E6E6E6"/>
<path d="M215.336 224.119H227.339C230.264 224.119 233.083 225.215 235.24 227.191C237.397 229.167 238.735 231.879 238.99 234.793L241.63 265.285H305.994L308.634 234.793C308.891 231.874 310.235 229.157 312.399 227.181C314.563 225.205 317.389 224.112 320.32 224.119H332.332C333.014 224.12 333.688 224.262 334.311 224.538C334.935 224.813 335.495 225.215 335.955 225.718C336.415 226.221 336.765 226.814 336.984 227.46C337.203 228.106 337.285 228.79 337.225 229.469L336.618 236.509C336.509 237.619 336.026 238.658 335.249 239.458C334.472 240.257 333.447 240.769 332.341 240.909L330.95 241.085C330.121 241.192 329.353 241.58 328.773 242.183C328.194 242.786 327.838 243.569 327.765 244.403L324.403 282.876C324.282 284.229 323.66 285.487 322.659 286.404C321.657 287.32 320.349 287.829 318.991 287.831H228.668C227.311 287.829 226.004 287.32 225.004 286.403C224.004 285.486 223.384 284.228 223.265 282.876L219.894 244.403C219.821 243.569 219.465 242.786 218.886 242.183C218.307 241.58 217.538 241.192 216.709 241.085L215.327 240.909C214.221 240.77 213.194 240.259 212.417 239.459C211.64 238.66 211.158 237.619 211.05 236.509L210.434 229.469C210.375 228.789 210.457 228.104 210.676 227.458C210.895 226.812 211.247 226.218 211.708 225.715C212.169 225.212 212.729 224.81 213.354 224.535C213.979 224.26 214.654 224.119 215.336 224.119Z" fill="#F0F0F0"/>
<path d="M81.4089 67.1878C81.4089 67.1878 80.3793 60.3854 85.3337 56.0294C90.2881 51.6734 89.8569 49.0774 88.4401 48.7342C87.0233 48.391 85.7209 52.7558 83.5385 53.9526C83.5385 53.9526 83.4681 47.7398 85.6857 45.4518C87.9033 43.1638 89.0649 37.2678 86.9529 37.171C84.8409 37.0742 84.6297 40.691 84.1897 43.2254C83.7497 45.7598 81.4089 49.3854 81.4089 49.3854C81.4089 49.3854 80.9513 43.8326 79.5169 41.5358C78.0825 39.239 81.9017 34.0206 80.3969 31.7326C78.8921 29.4446 76.3489 33.7918 76.5601 38.7198C76.7713 43.6478 80.0801 48.8574 79.2881 53.979C79.2881 53.979 77.8449 50.3886 76.5513 50.063C75.2577 49.7374 73.9113 47.3526 73.0753 46.4726C72.2393 45.5926 71.1129 48.6462 73.0753 51.4798C75.0377 54.3134 80.0801 61.8638 79.2881 67.9886L81.4089 67.1878Z" fill="#E6E6E6"/>
<path d="M84.3745 64.0903L86.0025 74.2807C86.1194 75.0213 86.0746 75.7783 85.871 76.4999C85.6675 77.2214 85.3101 77.8904 84.8235 78.4607C84.3368 79.0309 83.7324 79.4891 83.0518 79.8035C82.3712 80.118 81.6306 80.2813 80.8809 80.2823H79.1209C78.3715 80.2815 77.6311 80.1183 76.9509 79.8037C76.2707 79.4892 75.6667 79.0309 75.1807 78.4604C74.6947 77.8899 74.3382 77.2208 74.1358 76.4992C73.9334 75.7777 73.8898 75.0208 74.0081 74.2807L75.6801 64.0903H84.3745Z" fill="#E6E6E6"/>
<path d="M59.8136 82.4204L174.601 82.4204V76.5244L59.8136 76.5244V82.4204Z" fill="#E0E0E0"/>
<path d="M164.252 76.5161H169.312V54.7801H164.252V76.5161Z" fill="#EBEBEB"/>
<path d="M139.806 76.5161H144.866V54.7801H139.806V76.5161Z" fill="#EBEBEB"/>
<path d="M108.352 75.6605L113.338 76.52L117.03 55.0999L112.044 54.2404L108.352 75.6605Z" fill="#EBEBEB"/>
<path d="M157.986 76.5249H163.046V57.6489H157.986V76.5249Z" fill="#EBEBEB"/>
<path d="M146.362 76.5249H151.422V57.6489H146.362V76.5249Z" fill="#EBEBEB"/>
<path d="M117.031 76.5249H122.091V57.6489H117.031V76.5249Z" fill="#EBEBEB"/>
<path d="M129.077 75.4105L134.017 76.5083L138.112 58.0819L133.172 56.9841L129.077 75.4105Z" fill="#EBEBEB"/>
<path d="M153.622 76.5249H156.147V53.7065H153.622V76.5249Z" fill="#EBEBEB"/>
<path d="M123.543 76.5249H126.069V53.7065H123.543V76.5249Z" fill="#EBEBEB"/>
<path d="M174.601 120.542H59.8135V126.438H174.601V120.542Z" fill="#E0E0E0"/>
<path d="M70.1535 98.8062H65.0935V120.542H70.1535V98.8062Z" fill="#EBEBEB"/>
<path d="M94.6088 98.8062H89.5488V120.542H94.6088V98.8062Z" fill="#EBEBEB"/>
<path d="M122.365 98.2611L117.378 99.1206L121.07 120.541L126.057 119.681L122.365 98.2611Z" fill="#EBEBEB"/>
<path d="M76.4191 101.675H71.3591V120.551H76.4191V101.675Z" fill="#EBEBEB"/>
<path d="M88.0441 101.675H82.9841V120.551H88.0441V101.675Z" fill="#EBEBEB"/>
<path d="M117.383 101.675H112.323V120.551H117.383V101.675Z" fill="#EBEBEB"/>
<path d="M101.254 101.02L96.3145 102.118L100.41 120.545L105.349 119.447L101.254 101.02Z" fill="#EBEBEB"/>
<path d="M80.7927 97.7241H78.2671V120.543H80.7927V97.7241Z" fill="#EBEBEB"/>
<path d="M110.871 97.7241H108.346V120.543H110.871V97.7241Z" fill="#EBEBEB"/>
<path d="M163.583 103.338H138.943V120.349H163.583V103.338Z" fill="#EBEBEB"/>
<path d="M361.09 60.9048H262.363V170.095H361.09V60.9048Z" fill="#E0E0E0"/>
<path d="M364.241 60.9048H261.844V170.095H364.241V60.9048Z" fill="#F0F0F0"/>
<path d="M359.911 64.3896H266.015V165.079H359.911V64.3896Z" fill="#121415"/>
<path d="M359.911 64.3896H357.192V165.079H359.911V64.3896Z" fill="#E0E0E0"/>
<path d="M265.769 136.787V139.506H357.482V136.787H265.769Z" fill="#E0E0E0"/>
<path d="M359.911 132.238H264.554V136.796H359.911V132.238Z" fill="#F0F0F0"/>
<path d="M220 327.852C314.232 327.852 390.623 323.392 390.623 317.891C390.623 312.389 314.232 307.929 220 307.929C125.767 307.929 49.3767 312.389 49.3767 317.891C49.3767 323.392 125.767 327.852 220 327.852Z" fill="#F5F5F5"/>
<path d="M287.91 303.38C288.034 303.111 288.093 302.816 288.081 302.519C288.069 302.223 287.986 301.934 287.84 301.676C287.694 301.417 287.488 301.198 287.24 301.035C286.992 300.873 286.709 300.771 286.414 300.74C286.68 299.965 286.701 299.127 286.475 298.34C286.248 297.553 285.784 296.854 285.146 296.34C284.996 296.201 284.805 296.114 284.601 296.094C284.381 296.116 284.174 296.209 284.011 296.358L280.491 298.857C280.213 299.03 279.978 299.265 279.805 299.543C279.092 300.925 281.653 302.694 280.597 303.829C280.298 304.155 279.814 304.225 279.435 304.463C278.599 304.982 278.502 306.117 278.115 307.015C277.728 307.912 276.355 308.616 275.862 307.78C276.241 306.9 275.097 306.179 274.155 306.073C273.214 305.967 272.246 305.906 271.726 305.035C270.398 306.187 267.423 302.949 267.494 301.647C266.969 301.741 266.487 301.997 266.114 302.379C265.742 302.761 265.498 303.249 265.417 303.776C265.264 304.854 265.226 305.946 265.302 307.032C265.302 309.144 264.59 311.212 264.625 313.324C264.625 314.97 265.294 316.8 266.798 317.46C267.549 317.725 268.345 317.833 269.139 317.777L286.29 317.663C286.702 317.693 287.115 317.627 287.496 317.469C288.27 317.064 288.429 316.043 288.499 315.172L289.423 303.996L287.91 303.38Z" fill="#407BFF"/>
<path opacity="0.3" d="M287.91 303.38C288.034 303.111 288.093 302.816 288.081 302.519C288.069 302.223 287.986 301.934 287.84 301.676C287.694 301.417 287.488 301.198 287.24 301.035C286.992 300.873 286.709 300.771 286.414 300.74C286.68 299.965 286.701 299.127 286.475 298.34C286.248 297.553 285.784 296.854 285.146 296.34C284.996 296.201 284.805 296.114 284.601 296.094C284.381 296.116 284.174 296.209 284.011 296.358L280.491 298.857C280.213 299.03 279.978 299.265 279.805 299.543C279.092 300.925 281.653 302.694 280.597 303.829C280.298 304.155 279.814 304.225 279.435 304.463C278.599 304.982 278.502 306.117 278.115 307.015C277.728 307.912 276.355 308.616 275.862 307.78C276.241 306.9 275.097 306.179 274.155 306.073C273.214 305.967 272.246 305.906 271.726 305.035C270.398 306.187 267.423 302.949 267.494 301.647C266.969 301.741 266.487 301.997 266.114 302.379C265.742 302.761 265.498 303.249 265.417 303.776C265.264 304.854 265.226 305.946 265.302 307.032C265.302 309.144 264.59 311.212 264.625 313.324C264.625 314.97 265.294 316.8 266.798 317.46C267.549 317.725 268.345 317.833 269.139 317.777L286.29 317.663C286.702 317.693 287.115 317.627 287.496 317.469C288.27 317.064 288.429 316.043 288.499 315.172L289.423 303.996L287.91 303.38Z" fill="#121415"/>
<path d="M288.904 285.252H262.293L262.513 287.945L262.671 289.863L263.076 294.853L263.305 297.73L263.613 301.55L263.745 303.186L263.789 303.67L263.947 305.598L264.158 308.238L264.29 309.874L264.422 311.538L264.581 313.465L264.704 314.926L264.836 316.562L264.889 317.275H289.309L289.37 316.562L289.502 314.926L289.617 313.456L289.775 311.529L289.916 309.874L290.048 308.238L290.259 305.598L290.418 303.679V303.195L290.55 301.558L290.858 297.739L291.095 294.87L291.491 289.872L291.65 287.954L291.87 285.261L288.904 285.252ZM290.506 287.012L289.995 286.502H290.55L290.506 287.012ZM290.4 288.64L290.356 289.291L287.971 291.667L285.234 288.939L287.681 286.493H288.262L290.4 288.64ZM289.714 297.158L287.954 298.918L285.217 296.182L287.954 293.462L289.837 295.346L289.714 297.158ZM264.387 295.328L266.279 293.445L269.007 296.164L266.279 298.901L264.519 297.141L264.387 295.328ZM287.091 292.556L284.354 295.284L281.626 292.556L284.354 289.819L287.091 292.556ZM282.797 286.493H285.921L284.354 288.059L282.797 286.493ZM283.466 296.173L280.738 298.91L278.01 296.173L280.738 293.454L283.466 296.173ZM274.393 299.79L277.13 297.062L279.858 299.79L277.13 302.526L274.393 299.79ZM276.241 303.406L273.504 306.134L270.785 303.406L273.513 300.678L276.241 303.406ZM280.738 300.678L283.466 303.406L280.738 306.134L278.01 303.406L280.738 300.678ZM277.13 295.293L274.393 292.565L277.13 289.828L279.858 292.565L277.13 295.293ZM276.25 296.173L273.522 298.91L270.794 296.173L273.522 293.454L276.25 296.173ZM269.905 295.293L267.177 292.565L269.905 289.828L272.633 292.565L269.905 295.293ZM269.905 297.053L272.633 299.781L269.905 302.518L267.177 299.781L269.905 297.053ZM272.633 307.014L269.905 309.742L267.177 307.014L269.905 304.286L272.633 307.014ZM273.513 307.894L276.25 310.631L273.522 313.359L270.794 310.631L273.513 307.894ZM274.393 307.014L277.13 304.286L279.858 307.014L277.13 309.742L274.393 307.014ZM280.738 307.894L283.466 310.631L280.738 313.359L278.01 310.631L280.738 307.894ZM284.328 311.52L287.065 314.257L285.305 316.017H283.36L281.6 314.257L284.328 311.52ZM281.6 307.023L284.328 304.295L287.065 307.023L284.328 309.76L281.6 307.023ZM281.6 299.79L284.328 297.062L287.065 299.79L284.328 302.526L281.6 299.79ZM283.439 288.948L280.711 291.676L277.983 288.948L280.43 286.502H281.002L283.439 288.948ZM277.103 288.068L275.537 286.502H278.661L277.103 288.068ZM276.223 288.948L273.495 291.676L270.767 288.948L273.205 286.502H273.786L276.223 288.948ZM271.436 286.502L269.878 288.068L268.321 286.502H271.436ZM266.552 286.502L268.99 288.948L266.262 291.676L263.886 289.3L263.833 288.649L265.971 286.502H266.552ZM264.211 286.502L263.701 287.012V286.502H264.211ZM264.044 291.227L265.382 292.565L264.238 293.7L264.044 291.227ZM264.783 300.388L264.678 299.094L265.382 299.798L264.783 300.397V300.388ZM264.915 302.025L266.262 300.678L268.99 303.406L266.262 306.134L265.162 305.034L264.915 302.025ZM265.32 307.085V306.962L265.382 307.023L265.32 307.085ZM265.795 312.902L265.452 308.713L266.262 307.903L268.99 310.64L266.262 313.368L265.795 312.902ZM266.05 316.026L265.998 315.401L266.262 315.137L267.142 316.017L266.05 316.026ZM267.15 314.266L269.878 311.529L272.606 314.266L270.846 316.026H268.919L267.15 314.266ZM272.606 316.026L273.486 315.146L274.366 316.026H272.606ZM276.126 316.026L274.366 314.266L277.103 311.529L279.831 314.266L278.071 316.026H276.126ZM279.822 316.026L280.702 315.146L281.582 316.026H279.822ZM288.147 316.026H287.056L287.936 315.146L288.2 315.41L288.147 316.026ZM288.402 312.902L287.936 313.368L285.208 310.64L287.945 307.903L288.754 308.713L288.402 312.902ZM288.886 306.953V307.085L288.834 307.023L288.904 306.953H288.886ZM289.045 305.034L287.936 306.134L285.199 303.406L287.936 300.678L289.282 302.025L289.045 305.034ZM289.414 300.388L288.816 299.79L289.52 299.094L289.414 300.388ZM290.162 291.218L289.96 293.709L288.816 292.565L290.162 291.218Z" fill="#407BFF"/>
<g opacity="0.6">
<path d="M288.904 285.252H262.293L262.513 287.945L262.671 289.863L263.076 294.853L263.305 297.73L263.613 301.55L263.745 303.186L263.789 303.67L263.947 305.598L264.158 308.238L264.29 309.874L264.422 311.538L264.581 313.465L264.704 314.926L264.836 316.562L264.889 317.275H289.309L289.37 316.562L289.502 314.926L289.617 313.456L289.775 311.529L289.916 309.874L290.048 308.238L290.259 305.598L290.418 303.679V303.195L290.55 301.558L290.858 297.739L291.095 294.87L291.491 289.872L291.65 287.954L291.87 285.261L288.904 285.252ZM290.506 287.012L289.995 286.502H290.55L290.506 287.012ZM290.4 288.64L290.356 289.291L287.971 291.667L285.234 288.939L287.681 286.493H288.262L290.4 288.64ZM289.714 297.158L287.954 298.918L285.217 296.182L287.954 293.462L289.837 295.346L289.714 297.158ZM264.387 295.328L266.279 293.445L269.007 296.164L266.279 298.901L264.519 297.141L264.387 295.328ZM287.091 292.556L284.354 295.284L281.626 292.556L284.354 289.819L287.091 292.556ZM282.797 286.493H285.921L284.354 288.059L282.797 286.493ZM283.466 296.173L280.738 298.91L278.01 296.173L280.738 293.454L283.466 296.173ZM274.393 299.79L277.13 297.062L279.858 299.79L277.13 302.526L274.393 299.79ZM276.241 303.406L273.504 306.134L270.785 303.406L273.513 300.678L276.241 303.406ZM280.738 300.678L283.466 303.406L280.738 306.134L278.01 303.406L280.738 300.678ZM277.13 295.293L274.393 292.565L277.13 289.828L279.858 292.565L277.13 295.293ZM276.25 296.173L273.522 298.91L270.794 296.173L273.522 293.454L276.25 296.173ZM269.905 295.293L267.177 292.565L269.905 289.828L272.633 292.565L269.905 295.293ZM269.905 297.053L272.633 299.781L269.905 302.518L267.177 299.781L269.905 297.053ZM272.633 307.014L269.905 309.742L267.177 307.014L269.905 304.286L272.633 307.014ZM273.513 307.894L276.25 310.631L273.522 313.359L270.794 310.631L273.513 307.894ZM274.393 307.014L277.13 304.286L279.858 307.014L277.13 309.742L274.393 307.014ZM280.738 307.894L283.466 310.631L280.738 313.359L278.01 310.631L280.738 307.894ZM284.328 311.52L287.065 314.257L285.305 316.017H283.36L281.6 314.257L284.328 311.52ZM281.6 307.023L284.328 304.295L287.065 307.023L284.328 309.76L281.6 307.023ZM281.6 299.79L284.328 297.062L287.065 299.79L284.328 302.526L281.6 299.79ZM283.439 288.948L280.711 291.676L277.983 288.948L280.43 286.502H281.002L283.439 288.948ZM277.103 288.068L275.537 286.502H278.661L277.103 288.068ZM276.223 288.948L273.495 291.676L270.767 288.948L273.205 286.502H273.786L276.223 288.948ZM271.436 286.502L269.878 288.068L268.321 286.502H271.436ZM266.552 286.502L268.99 288.948L266.262 291.676L263.886 289.3L263.833 288.649L265.971 286.502H266.552ZM264.211 286.502L263.701 287.012V286.502H264.211ZM264.044 291.227L265.382 292.565L264.238 293.7L264.044 291.227ZM264.783 300.388L264.678 299.094L265.382 299.798L264.783 300.397V300.388ZM264.915 302.025L266.262 300.678L268.99 303.406L266.262 306.134L265.162 305.034L264.915 302.025ZM265.32 307.085V306.962L265.382 307.023L265.32 307.085ZM265.795 312.902L265.452 308.713L266.262 307.903L268.99 310.64L266.262 313.368L265.795 312.902ZM266.05 316.026L265.998 315.401L266.262 315.137L267.142 316.017L266.05 316.026ZM267.15 314.266L269.878 311.529L272.606 314.266L270.846 316.026H268.919L267.15 314.266ZM272.606 316.026L273.486 315.146L274.366 316.026H272.606ZM276.126 316.026L274.366 314.266L277.103 311.529L279.831 314.266L278.071 316.026H276.126ZM279.822 316.026L280.702 315.146L281.582 316.026H279.822ZM288.147 316.026H287.056L287.936 315.146L288.2 315.41L288.147 316.026ZM288.402 312.902L287.936 313.368L285.208 310.64L287.945 307.903L288.754 308.713L288.402 312.902ZM288.886 306.953V307.085L288.834 307.023L288.904 306.953H288.886ZM289.045 305.034L287.936 306.134L285.199 303.406L287.936 300.678L289.282 302.025L289.045 305.034ZM289.414 300.388L288.816 299.79L289.52 299.094L289.414 300.388ZM290.162 291.218L289.96 293.709L288.816 292.565L290.162 291.218Z" fill="#121415"/>
</g>
<path d="M262.029 287.619H292.16C292.957 287.619 293.603 286.973 293.603 286.176V285.578C293.603 284.78 292.957 284.134 292.16 284.134H262.029C261.232 284.134 260.586 284.78 260.586 285.578V286.176C260.586 286.973 261.232 287.619 262.029 287.619Z" fill="#407BFF"/>
<path d="M289.784 315.401H264.413C263.616 315.401 262.97 316.047 262.97 316.844V317.442C262.97 318.24 263.616 318.886 264.413 318.886H289.784C290.581 318.886 291.227 318.24 291.227 317.442V316.844C291.227 316.047 290.581 315.401 289.784 315.401Z" fill="#407BFF"/>
<path d="M377.89 33.8887H159.597C157.59 33.8887 155.962 35.5158 155.962 37.5231V194.999C155.962 197.006 157.59 198.633 159.597 198.633H377.89C379.897 198.633 381.524 197.006 381.524 194.999V37.5231C381.524 35.5158 379.897 33.8887 377.89 33.8887Z" fill="#407BFF"/>
<path opacity="0.4" d="M381.524 42.7944H155.962V191.497H381.524V42.7944Z" fill="black"/>
<path d="M376.244 40.348C377.415 40.348 378.365 39.3985 378.365 38.2272C378.365 37.056 377.415 36.1064 376.244 36.1064C375.073 36.1064 374.123 37.056 374.123 38.2272C374.123 39.3985 375.073 40.348 376.244 40.348Z" fill="#121415"/>
<path d="M369.09 40.348C370.261 40.348 371.21 39.3985 371.21 38.2272C371.21 37.056 370.261 36.1064 369.09 36.1064C367.918 36.1064 366.969 37.056 366.969 38.2272C366.969 39.3985 367.918 40.348 369.09 40.348Z" fill="#121415"/>
<path d="M361.935 40.348C363.107 40.348 364.056 39.3985 364.056 38.2272C364.056 37.056 363.107 36.1064 361.935 36.1064C360.764 36.1064 359.814 37.056 359.814 38.2272C359.814 39.3985 360.764 40.348 361.935 40.348Z" fill="#121415"/>
<path d="M230.094 120.076H156.798V184.298H230.094V120.076Z" fill="#263238"/>
<path d="M230.094 54.437H156.798V118.659H230.094V54.437Z" fill="#263238"/>
<path d="M305.07 54.437H231.774V118.659H305.07V54.437Z" fill="#407BFF"/>
<path d="M380.054 54.437H306.759V118.659H380.054V54.437Z" fill="#121415"/>
<path d="M305.07 120.076H231.774V184.298H305.07V120.076Z" fill="#263238"/>
<path d="M380.054 120.076H306.759V184.298H380.054V120.076Z" fill="#407BFF"/>
<path d="M367.497 118.659L369.16 104.65C369.382 102.841 368.924 101.013 367.875 99.5225C366.826 98.0316 365.262 96.9831 363.484 96.5802C344.458 92.3474 333.106 96.5362 333.106 96.5362C328.849 103.428 325.559 110.872 323.33 118.659H367.497Z" fill="#263238"/>
<path d="M353.76 95.9729C355.391 95.7938 357.034 95.7614 358.67 95.8761C354.534 92.4177 356.585 83.6353 358.266 78.8657L345.479 86.0905C345.627 86.7014 345.733 87.3218 345.796 87.9473C345.957 89.0652 345.823 90.2056 345.409 91.2561C344.655 92.6048 343.619 93.7753 342.373 94.6881L347.494 96.9673L353.76 95.9729Z" fill="#E4897B"/>
<path opacity="0.2" d="M355.335 83.4595C354.825 89.3203 348.524 90.9307 345.435 91.2563C345.85 90.2058 345.983 89.0653 345.823 87.9475L355.335 83.4595Z" fill="black"/>
<path d="M338.518 65.7274C338.518 65.7274 337.515 74.061 342.355 77.5722C347.195 81.0834 346.148 60.7202 346.148 60.7202L338.518 65.7274Z" fill="#263238"/>
<path d="M357.28 83.3362C357.027 83.8516 356.732 84.346 356.4 84.8146C355.457 86.2129 354.107 87.2882 352.534 87.8956C350.96 88.503 349.238 88.6132 347.6 88.2114C347.368 88.1603 347.139 88.0956 346.914 88.0178C344.755 87.3427 342.924 85.8909 341.775 83.9434C341.775 83.8818 341.695 83.8026 341.651 83.741C341.493 83.4594 341.352 83.169 341.211 82.861C340.94 82.2135 340.702 81.5526 340.498 80.881C338.738 75.2226 338.95 65.7626 344.203 62.5154C348.383 59.8754 354.992 60.7554 357.623 64.953C358.38 66.141 357.535 69.2474 357.667 70.6466C358.292 76.3314 358.926 79.9482 357.28 83.3362Z" fill="#E4897B"/>
<path d="M348.163 74.1312C348.286 74.6416 348.049 75.1256 347.697 75.1872C347.345 75.2488 347.002 74.8616 346.914 74.3072C346.826 73.7528 347.028 73.304 347.371 73.2512C347.714 73.1984 348.066 73.6032 348.163 74.1312Z" fill="#263238"/>
<path d="M342.214 75.1431C342.337 75.6623 342.091 76.1463 341.748 76.1991C341.405 76.2519 341.061 75.8735 340.965 75.3191C340.868 74.7647 341.088 74.3159 341.422 74.2631C341.757 74.2103 342.126 74.6503 342.214 75.1431Z" fill="#263238"/>
<path d="M344.15 75.0815C343.795 76.7978 343.202 78.4563 342.39 80.0095C342.8 80.2097 343.249 80.3175 343.705 80.3251C344.162 80.3327 344.614 80.24 345.03 80.0535L344.15 75.0815Z" fill="#DE5753"/>
<path d="M349.677 71.8873C349.621 71.905 349.562 71.9079 349.505 71.8955C349.448 71.8832 349.395 71.8561 349.351 71.8169C349.071 71.5436 348.731 71.3386 348.359 71.2181C347.987 71.0975 347.591 71.0645 347.204 71.1217C347.124 71.1404 347.039 71.127 346.968 71.0842C346.898 71.0415 346.846 70.9728 346.826 70.8929C346.815 70.8536 346.813 70.8125 346.819 70.7723C346.825 70.732 346.839 70.6934 346.86 70.6588C346.882 70.6242 346.91 70.5944 346.943 70.5711C346.977 70.5478 347.015 70.5315 347.054 70.5233C347.546 70.4386 348.052 70.4744 348.527 70.6277C349.002 70.7809 349.433 71.0471 349.782 71.4033C349.839 71.4623 349.871 71.5412 349.871 71.6233C349.871 71.7054 349.839 71.7842 349.782 71.8433C349.75 71.8633 349.714 71.8782 349.677 71.8873Z" fill="#263238"/>
<path d="M339.31 73.5327C339.254 73.5649 339.19 73.5802 339.125 73.5767C339.086 73.5656 339.049 73.5467 339.017 73.5211C338.985 73.4955 338.958 73.4637 338.938 73.4276C338.919 73.3915 338.906 73.3519 338.902 73.311C338.898 73.2701 338.902 73.2287 338.914 73.1895C339.042 72.7072 339.283 72.2627 339.619 71.8936C339.954 71.5244 340.374 71.2415 340.841 71.0687C340.921 71.0466 341.006 71.0564 341.078 71.0958C341.15 71.1352 341.204 71.2012 341.229 71.2799C341.251 71.3592 341.241 71.444 341.202 71.5163C341.162 71.5885 341.096 71.6426 341.017 71.6671C340.654 71.8149 340.329 72.0452 340.069 72.34C339.81 72.6347 339.622 72.9858 339.521 73.3655C339.5 73.4064 339.47 73.4425 339.433 73.4713C339.397 73.5001 339.355 73.521 339.31 73.5327Z" fill="#263238"/>
<path d="M360.131 66.6423C360.131 66.4663 360.202 66.2903 360.228 66.0967C361.108 59.8575 351.965 56.1879 343.71 56.9623C340.111 57.3055 340.938 63.4567 340.938 63.4567C340.938 63.4567 338.897 63.4567 337.973 64.6975C336.345 66.8975 338.853 71.7375 338.853 71.7375C337.594 64.6975 341.238 64.3103 341.238 64.3103C341.238 64.3103 342.118 67.0383 343.746 66.7919C345.374 66.5455 349.492 62.5591 351.516 63.0343C352.155 63.1698 352.747 63.4714 353.232 63.9086C353.717 64.3459 354.078 64.9033 354.279 65.5248C354.309 66.1493 354.204 66.773 353.974 67.3541C353.743 67.9353 353.391 68.4606 352.942 68.8951C351.182 70.8399 354.138 74.9935 356.171 76.2607C356.171 76.2607 356.101 75.2135 357.007 75.3807C357.914 75.5479 358.345 80.9951 356.937 83.8023C356.937 83.8023 359.251 81.1623 360.026 75.2487C360.463 72.399 360.499 69.5019 360.131 66.6423Z" fill="#263238"/>
<path d="M346.333 82.6322C347.103 82.6153 347.859 82.4139 348.536 82.0449C349.212 81.6759 349.791 81.15 350.222 80.5114C350.235 80.4932 350.244 80.4726 350.248 80.4509C350.252 80.4292 350.252 80.4068 350.247 80.3853C350.242 80.3637 350.232 80.3435 350.219 80.3258C350.206 80.3081 350.189 80.2934 350.17 80.2826C350.152 80.271 350.133 80.263 350.112 80.2589C350.092 80.2548 350.071 80.2548 350.05 80.2589C350.03 80.263 350.011 80.2711 349.993 80.2827C349.976 80.2943 349.961 80.3092 349.95 80.3266C349.538 80.9109 348.996 81.3916 348.367 81.7307C347.738 82.0697 347.038 82.2578 346.324 82.2802C346.281 82.2801 346.24 82.2965 346.209 82.326C346.178 82.3555 346.159 82.3958 346.157 82.4386C346.157 82.4815 346.173 82.5227 346.203 82.5538C346.232 82.5849 346.272 82.6035 346.315 82.6058L346.333 82.6322Z" fill="#263238"/>
<path d="M361.381 75.4688C360.913 77.0507 359.837 78.3828 358.389 79.1736C356.462 80.212 355.027 78.6016 355.15 76.5336C355.291 74.6944 356.426 71.8784 358.565 71.72C360.703 71.5616 361.926 73.5152 361.381 75.4688Z" fill="#E4897B"/>
<path opacity="0.1" d="M347.6 88.2111C347.368 88.16 347.138 88.0953 346.914 88.0175C344.755 87.3424 342.924 85.8906 341.774 83.9431C343.306 83.7759 346.5 83.4591 347.151 83.7407C347.802 84.0223 347.688 86.9087 347.6 88.2111Z" fill="black"/>
<path d="M337.938 118.659H342.223L346.887 101.464L351.129 96.9673H343.702L345.435 101.297L337.938 118.659Z" fill="#407BFF"/>
<path d="M322.159 115.447L321.886 118.659H328.847C334.805 104.518 340.34 94.2656 340.34 94.2656L333.106 96.536C316.386 101.429 314.978 112.376 317.83 115.174C320.681 117.973 322.159 115.447 322.159 115.447Z" fill="#407BFF"/>
<path opacity="0.5" d="M322.159 115.447L321.886 118.659H328.847C334.805 104.518 340.34 94.2656 340.34 94.2656L333.106 96.536C316.386 101.429 314.978 112.376 317.83 115.174C320.681 117.973 322.159 115.447 322.159 115.447Z" fill="#121415"/>
<path d="M327.36 118.66H328.979C334.4 106.982 343.403 93.2804 343.403 93.2804C339.712 93.2717 336.056 93.9862 332.64 95.3836L334.497 100.558L330.018 101.438L327.36 118.66Z" fill="#407BFF"/>
<path opacity="0.4" d="M327.36 118.66H328.979C334.4 106.982 343.403 93.2804 343.403 93.2804C339.712 93.2717 336.056 93.9862 332.64 95.3836L334.497 100.558L330.018 101.438L327.36 118.66Z" fill="#121415"/>
<path opacity="0.2" d="M325.477 118.659C326.398 116.679 326.89 114.525 326.92 112.341L322.159 115.447L321.886 118.659H325.477Z" fill="black"/>
<path d="M341.044 94.9873L344.467 91.8896L347.521 96.052L357.201 91.8896L359.63 95.8145L350.249 100.47L347.134 97.4688L343.702 99.6337L341.044 94.9873Z" fill="#263238"/>
<path opacity="0.2" d="M341.044 94.9873L344.467 91.8896L347.521 96.052L357.201 91.8896L359.63 95.8145L350.249 100.47L347.134 97.4688L343.702 99.6337L341.044 94.9873Z" fill="#121415"/>
<path d="M330 105.327L340.331 94.2657C341.666 94.2421 342.949 93.7428 343.948 92.8577C345.479 91.4145 347.565 85.0257 347.055 84.6121C346.544 84.1985 340.384 83.6881 339.803 84.4097C339.223 85.1313 336.67 91.5905 336.67 91.5905L325.6 100.25L330 105.327Z" fill="#E4897B"/>
<path d="M331.144 95.6561L333.185 93.8521L338.078 97.6449L335.861 100.593L331.144 95.6561Z" fill="#263238"/>
<path opacity="0.2" d="M331.144 95.6561L333.185 93.8521L338.078 97.6449L335.861 100.593L331.144 95.6561Z" fill="#121415"/>
<path d="M331.698 94.5029L337.559 99.1405C337.559 99.1405 323.937 120.718 318.982 116.16C314.028 111.601 316.562 104.465 331.698 94.5029Z" fill="#407BFF"/>
<path opacity="0.6" d="M331.698 94.5029L337.559 99.1405C337.559 99.1405 323.937 120.718 318.982 116.16C314.028 111.601 316.562 104.465 331.698 94.5029Z" fill="#121415"/>
<path d="M369.274 118.659L370.154 103.189C370.222 101.689 369.815 100.206 368.99 98.9511C368.165 97.6964 366.965 96.7342 365.561 96.2019L357.843 93.2803C357.843 93.2803 358.169 104.896 359.066 118.633L369.274 118.659Z" fill="#407BFF"/>
<path opacity="0.5" d="M369.274 118.659L370.154 103.189C370.222 101.689 369.815 100.206 368.99 98.9511C368.165 97.6964 366.965 96.7342 365.561 96.2019L357.843 93.2803C357.843 93.2803 358.169 104.896 359.066 118.633L369.274 118.659Z" fill="#121415"/>
<path d="M362.226 118.659L365.068 110.678L360.8 106.788L365.684 105.327C362.578 95.7531 357.544 92.4971 357.544 92.4971C356.294 98.6571 357.544 110.81 358.538 118.659H362.226Z" fill="#407BFF"/>
<path opacity="0.4" d="M362.226 118.659L365.068 110.678L360.8 106.788L365.684 105.327C362.578 95.7531 357.544 92.4971 357.544 92.4971C356.294 98.6571 357.544 110.81 358.538 118.659H362.226Z" fill="#121415"/>
<path d="M323.382 116.776C324.262 117.11 331.17 117.568 331.17 117.568L332.781 118.659H344.027L332.587 113.265C332.156 112.003 331.293 110.933 330.15 110.246C328.302 109.226 321.578 109.199 321.35 109.806C321.121 110.414 322.511 116.433 323.382 116.776Z" fill="#E4897B"/>
<path d="M340.49 118.659L341.528 116.794L337.251 114.919L335.729 118.659H340.49Z" fill="#263238"/>
<path opacity="0.2" d="M340.49 118.659L341.528 116.794L337.251 114.919L335.729 118.659H340.49Z" fill="#121415"/>
<path d="M363.748 118.659C368.852 110.677 372.442 100.962 368.271 98.1375C368.271 98.1375 365.068 97.2575 351.842 117.436C351.842 117.436 350.39 120.551 339.522 115.676L338.105 118.668L363.748 118.659Z" fill="#407BFF"/>
<path opacity="0.6" d="M363.748 118.659C368.852 110.677 372.442 100.962 368.271 98.1375C368.271 98.1375 365.068 97.2575 351.842 117.436C351.842 117.436 350.39 120.551 339.522 115.676L338.105 118.668L363.748 118.659Z" fill="#121415"/>
<path opacity="0.3" d="M305.07 120.076H231.774V184.298H305.07V120.076Z" fill="#121415"/>
<path d="M169.409 118.659C171.169 114.074 181.509 105.142 181.509 105.142V95.9199C176.229 96.9055 163.302 108.029 162.967 118.633L169.409 118.659Z" fill="#407BFF"/>
<path opacity="0.6" d="M169.409 118.659C170.289 116.477 173.026 113.318 175.692 110.598C178.658 107.606 181.509 105.151 181.509 105.151V95.9199C176.229 96.9055 163.293 108.029 162.967 118.633L169.409 118.659Z" fill="#121415"/>
<path opacity="0.2" d="M175.692 110.598C178.657 107.606 181.509 105.151 181.509 105.151V102.467C181.509 102.467 176.422 104.993 175.692 110.598Z" fill="black"/>
<path d="M218.75 118.659C220.07 110.546 221.39 103.858 221.962 100.831C222.057 100.365 221.965 99.8817 221.707 99.4835C221.448 99.0853 221.044 98.8044 220.581 98.7009C218.689 98.2873 216.735 97.9353 214.773 97.6361C205.896 96.3916 196.94 95.8034 187.977 95.8761C183.999 95.8761 181.509 95.9905 181.509 95.9905C179.696 102.485 178.614 110.572 177.989 118.703L218.75 118.659Z" fill="#407BFF"/>
<path opacity="0.7" d="M218.759 118.659L218.865 117.982C220.141 110.176 221.373 103.77 221.954 100.831C221.98 100.67 221.98 100.507 221.954 100.347C221.936 99.9557 221.79 99.5818 221.536 99.2838C221.283 98.9858 220.937 98.7807 220.554 98.7009C218.654 98.2873 216.709 97.9353 214.746 97.6361C205.87 96.3916 196.914 95.8034 187.95 95.8761C183.973 95.8761 181.482 95.9905 181.482 95.9905C179.67 102.485 178.587 110.572 177.962 118.703L218.759 118.659Z" fill="#121415"/>
<path d="M195.818 106.287C207.258 107.501 214.922 97.7505 214.922 97.7505L214.773 97.6361C205.896 96.3916 196.94 95.8034 187.977 95.8761C187.977 95.8761 185.055 105.143 195.818 106.287Z" fill="#407BFF"/>
<path d="M208.49 96.7384C205.269 99.6688 197.375 98.5864 197.375 98.5864C197.375 98.5864 192.447 97.24 193.477 95.7C196.381 95.216 197.789 93.8608 198.37 92.1272C198.687 91.0548 198.785 89.9297 198.66 88.8184C198.616 88.1955 198.536 87.5756 198.423 86.9616L208.182 79.7368C206.906 84.48 205.339 93.28 208.49 96.7384Z" fill="#E4897B"/>
<path opacity="0.2" d="M205.92 84.3306C205.533 90.1826 200.719 91.8018 198.361 92.1274C198.678 91.0549 198.776 89.9298 198.651 88.8186L205.92 84.3306Z" fill="black"/>
<path d="M207.055 93.0249L197.727 97.2313L197.173 93.8609L193.75 95.0401C193.15 95.2504 192.639 95.6566 192.299 96.1931C191.959 96.7296 191.81 97.3651 191.875 97.9969L192.262 101.693L196.997 99.1057L199.355 102.441L210.566 97.0465L207.055 93.0249Z" fill="#407BFF"/>
<path opacity="0.3" d="M207.055 93.0249L197.727 97.2313L197.173 93.8609L193.75 95.0401C193.15 95.2504 192.639 95.6566 192.299 96.1931C191.959 96.7296 191.81 97.3651 191.875 97.9969L192.262 101.693L196.997 99.1057L199.355 102.441L210.566 97.0465L207.055 93.0249Z" fill="#121415"/>
<path d="M191.03 65.0405C191.03 65.0405 188.39 74.1749 192.852 78.4165C197.314 82.6581 199.619 65.3045 199.619 65.3045L191.03 65.0405Z" fill="#263238"/>
<path opacity="0.2" d="M191.03 65.0405C191.03 65.0405 188.39 74.1749 192.852 78.4165C197.314 82.6581 199.619 65.3045 199.619 65.3045L191.03 65.0405Z" fill="#121415"/>
<path d="M190.96 83.67C191.057 83.9956 191.162 84.3212 191.286 84.6292C192.186 86.8739 193.902 88.6944 196.09 89.7244C198.053 90.6668 200.297 90.8425 202.382 90.2172C203.868 89.7496 205.2 88.8891 206.237 87.7268C209.528 84.154 209.29 80.1676 209.431 73.4092C209.493 71.8302 209.149 70.2617 208.432 68.8536C207.714 67.4456 206.648 66.245 205.334 65.3666C204.021 64.4882 202.504 63.9614 200.929 63.8365C199.353 63.7116 197.772 63.9928 196.337 64.6532C189.825 67.5836 189.279 77.6508 190.96 83.67Z" fill="#E4897B"/>
<path d="M199.258 75.6801C199.311 76.2169 199.003 76.6833 198.642 76.6921C198.282 76.7009 197.974 76.2697 197.947 75.7241C197.921 75.1785 198.211 74.7121 198.563 74.7033C198.915 74.6945 199.232 75.1257 199.258 75.6801Z" fill="#263238"/>
<path d="M193.037 75.9173C193.098 76.4629 192.782 76.9293 192.421 76.9381C192.06 76.9469 191.761 76.5158 191.734 75.9614C191.708 75.407 191.99 74.9581 192.35 74.9493C192.711 74.9405 193.019 75.3981 193.037 75.9173Z" fill="#263238"/>
<path d="M195.026 76.1201C194.434 77.8277 193.607 79.4448 192.57 80.9249C192.957 81.1754 193.392 81.3397 193.848 81.4065C194.304 81.4733 194.768 81.4411 195.21 81.3121L195.026 76.1201Z" fill="#DE5753"/>
<path d="M190.634 73.3478C190.684 73.38 190.742 73.3972 190.802 73.3972C190.861 73.3972 190.919 73.38 190.969 73.3478C191.3 73.115 191.68 72.9614 192.08 72.8988C192.479 72.8363 192.888 72.8664 193.274 72.987C193.313 73.0044 193.355 73.0138 193.397 73.0148C193.439 73.0158 193.482 73.0082 193.521 72.9926C193.56 72.9771 193.596 72.9537 193.626 72.924C193.657 72.8944 193.681 72.8589 193.697 72.8198C193.729 72.7415 193.73 72.6535 193.699 72.5746C193.668 72.4957 193.607 72.4322 193.53 72.3974C193.046 72.2301 192.53 72.1803 192.023 72.2522C191.517 72.3241 191.035 72.5157 190.617 72.811C190.545 72.8579 190.494 72.9314 190.476 73.0154C190.458 73.0995 190.474 73.1874 190.52 73.2598C190.551 73.2973 190.59 73.3274 190.634 73.3478Z" fill="#263238"/>
<path d="M200.394 73.1546C200.458 73.1481 200.519 73.1237 200.57 73.0842C200.628 73.0222 200.66 72.9403 200.66 72.8553C200.66 72.7703 200.628 72.6885 200.57 72.6266C200.174 72.2985 199.705 72.0704 199.203 71.9617C198.7 71.8529 198.179 71.8667 197.683 72.0018C197.604 72.0298 197.538 72.0877 197.5 72.1632C197.462 72.2388 197.455 72.326 197.481 72.4066C197.511 72.4869 197.57 72.5526 197.647 72.5903C197.724 72.6279 197.813 72.6346 197.894 72.6089C198.289 72.5185 198.698 72.5199 199.092 72.613C199.486 72.706 199.853 72.8883 200.165 73.1457C200.238 73.1741 200.319 73.1772 200.394 73.1546Z" fill="#263238"/>
<path d="M204.16 65.1729L203.764 68.1473C204.267 68.3903 204.66 68.8151 204.862 69.336C205.065 69.857 205.062 70.4353 204.855 70.9545C203.87 73.4537 205.251 77.352 207.161 78.9184C207.161 78.9184 207.231 77.8361 208.146 78.1001C209.062 78.3641 208.745 84.0225 206.932 86.6977C206.932 86.6977 209.66 84.2865 211.244 78.3641C212.714 72.8905 212.934 68.3145 211.825 66.1849L204.16 65.1729Z" fill="#263238"/>
<path d="M196.24 84.8583C196.2 84.8711 196.157 84.8711 196.117 84.8583C196.069 84.8245 196.036 84.7738 196.025 84.7166C196.013 84.6593 196.024 84.5998 196.055 84.5503C196.77 83.4886 197.845 82.7224 199.082 82.3943C199.111 82.3879 199.141 82.3875 199.17 82.3929C199.199 82.3984 199.227 82.4097 199.252 82.4261C199.276 82.4425 199.298 82.4638 199.314 82.4886C199.33 82.5134 199.341 82.5412 199.346 82.5703C199.357 82.6262 199.345 82.684 199.314 82.7316C199.283 82.7792 199.235 82.8129 199.179 82.8255C198.056 83.1351 197.08 83.8338 196.425 84.7967C196.4 84.82 196.371 84.8375 196.339 84.8482C196.307 84.8588 196.273 84.8623 196.24 84.8583Z" fill="#263238"/>
<path opacity="0.1" d="M193.186 87.6128C194.009 88.4976 194.995 89.2147 196.09 89.7248C198.053 90.6672 200.297 90.8429 202.382 90.2176C201.455 89.385 200.327 88.8087 199.109 88.5456C197.172 88.0305 195.187 87.7179 193.186 87.6128Z" fill="black"/>
<path opacity="0.2" d="M204.16 65.1729L203.764 68.1473C204.267 68.3903 204.66 68.8151 204.862 69.336C205.065 69.857 205.062 70.4353 204.855 70.9545C203.87 73.4537 205.251 77.352 207.161 78.9184C207.161 78.9184 207.231 77.8361 208.146 78.1001C209.062 78.3641 208.745 84.0225 206.932 86.6977C206.932 86.6977 209.66 84.2865 211.244 78.3641C212.714 72.8905 212.934 68.3145 211.825 66.1849L204.16 65.1729Z" fill="#121415"/>
<path d="M212.291 67.5489C212.291 67.5489 213.022 63.6417 206.87 60.5881C200.719 57.5345 193.978 61.0193 189.869 58.3881C185.759 55.7569 185.61 66.5721 194.392 67.7865C200.344 68.4766 206.36 68.3967 212.291 67.5489Z" fill="#263238"/>
<path opacity="0.3" d="M212.291 67.5489C212.291 67.5489 213.022 63.6417 206.87 60.5881C200.719 57.5345 193.978 61.0193 189.869 58.3881C185.759 55.7569 185.61 66.5721 194.392 67.7865C200.344 68.4766 206.36 68.3967 212.291 67.5489Z" fill="#121415"/>
<path d="M212.59 78.8394C211.909 80.3882 210.644 81.6057 209.07 82.2274C206.958 83.0194 205.709 81.1802 206.114 79.0858C206.501 77.2202 208.05 74.501 210.258 74.6242C212.467 74.7474 213.418 76.9122 212.59 78.8394Z" fill="#E4897B"/>
<path d="M202.145 100.619L201.212 95.6557C201.212 95.6557 203.148 93.8253 202.919 92.1357C202.69 90.4461 194.119 87.6477 192.57 87.5333C191.021 87.4189 191.629 93.6141 192.095 94.7493C192.561 95.8845 197.727 97.2397 197.727 97.2397L198.369 102.476L202.145 100.619Z" fill="#E4897B"/>
<path opacity="0.2" d="M217.598 118.659C218.046 118.439 218.478 118.21 218.865 117.981C220.141 110.176 221.373 103.769 221.954 100.83C221.98 100.67 221.98 100.506 221.954 100.346C216.392 106.013 207.733 115.491 208.754 118.659H217.598Z" fill="black"/>
<path d="M214.579 118.66C220.977 112.922 226.538 105.011 222.605 99.6692C219.155 94.97 210.285 111.989 207.583 113.16C204.882 114.33 202.541 98.7188 202.541 98.7188L197.261 100.285C197.261 100.285 198.229 111.532 200.939 118.66H214.579Z" fill="#407BFF"/>
<path opacity="0.6" d="M214.579 118.66C220.977 112.922 226.538 105.011 222.605 99.6692C219.155 94.97 210.285 111.989 207.583 113.16C204.882 114.33 202.541 98.7188 202.541 98.7188L197.261 100.285C197.261 100.285 198.229 111.532 200.939 118.66H214.579Z" fill="#121415"/>
<path d="M254.461 118.659C256.318 116.785 257.523 115.465 257.523 115.465L256.503 99.8623C253.563 101.429 244.755 113.186 240.126 118.659H254.461Z" fill="#407BFF"/>
<path opacity="0.5" d="M254.461 118.659C256.318 116.785 257.523 115.465 257.523 115.465L256.503 99.8623C253.563 101.429 244.755 113.186 240.126 118.659H254.461Z" fill="#121415"/>
<path opacity="0.2" d="M254.452 118.659C256.318 116.785 257.523 115.465 257.523 115.465L257.286 111.76L256.08 108.169C253.37 110.982 251.883 114.753 251.944 118.659H254.452Z" fill="black"/>
<path d="M285.305 118.659C285.736 117.11 286.185 115.465 286.783 113.67C287.382 111.874 287.918 110.07 288.587 108.055C289.086 106.536 289.634 104.922 290.233 103.215C286.661 102.074 283.011 101.192 279.312 100.575C275.416 99.8813 271.475 99.4667 267.52 99.3345C262.407 99.3345 256.52 99.8625 256.52 99.8625C256.52 99.8625 255.64 100.065 255.156 105.494C254.901 108.231 254.646 112.455 254.628 118.694L285.305 118.659Z" fill="#407BFF"/>
<path opacity="0.5" d="M285.305 118.659C285.736 117.11 286.185 115.465 286.783 113.67C287.382 111.874 287.918 110.07 288.587 108.055C289.086 106.536 289.634 104.922 290.233 103.215C286.661 102.074 283.011 101.192 279.312 100.575C275.416 99.8813 271.475 99.4667 267.52 99.3345C262.407 99.3345 256.52 99.8625 256.52 99.8625C256.52 99.8625 255.64 100.065 255.156 105.494C254.901 108.231 254.646 112.455 254.628 118.694L285.305 118.659Z" fill="#121415"/>
<path d="M268.954 118.659L276.17 105.741L267.828 110.414L262.988 104.342L264.757 118.659H268.954Z" fill="#263238"/>
<path d="M276.452 98.9383C281.221 100.065 282.665 103.884 282.137 107.36L278.661 106.198C274.655 107.648 270.897 109.708 267.52 112.305C267.52 112.305 264.88 107.465 262.363 105.881L258.79 106.304C258.79 106.304 264.361 96.1047 276.452 98.9383Z" fill="#263238"/>
<path opacity="0.1" d="M276.452 98.9383C281.221 100.065 282.665 103.884 282.137 107.36L278.661 106.198C274.655 107.648 270.897 109.708 267.52 112.305C267.52 112.305 264.88 107.465 262.363 105.881L258.79 106.304C258.79 106.304 264.361 96.1047 276.452 98.9383Z" fill="#121415"/>
<path d="M267.802 100.461C268.059 100.324 268.326 100.21 268.602 100.118C269.21 99.6426 269.949 98.481 269.914 95.7178C269.886 94.615 269.783 93.5154 269.606 92.4266L277.411 90.9746C277.411 90.9746 274.771 96.2546 276.971 100.118C277.728 100.461 278.186 100.945 278.106 101.579C277.517 106.084 267.828 110.449 267.828 110.449C267.828 110.449 263.12 103.048 267.802 100.461Z" fill="#EEC1BB"/>
<path opacity="0.2" d="M269.605 92.4002C269.783 93.489 269.886 94.5887 269.913 95.6914C275.193 95.6914 277.411 90.9482 277.411 90.9482L269.605 92.4002Z" fill="black"/>
<path d="M273.09 66.6509C273.09 66.6509 263.939 65.4893 262.249 72.8109C261.766 74.9012 261.886 77.0856 262.595 79.1105C263.304 81.1354 264.572 82.9178 266.253 84.2509L273.09 66.6509Z" fill="#263238"/>
<path d="M273.918 70.5758C267.133 70.2062 264.757 73.7174 263.877 80.6782C262.777 89.3814 264.37 95.691 272.958 94.2918C284.61 92.3998 285.182 71.1918 273.918 70.5758Z" fill="#EEC1BB"/>
<path d="M268.277 80.5376C267.681 81.5199 266.969 82.4269 266.156 83.2392C266.338 83.5353 266.6 83.7746 266.911 83.9301C267.222 84.0856 267.57 84.1511 267.916 84.1192L268.277 80.5376Z" fill="#D4827D"/>
<path d="M272.466 80.2121C272.422 80.7665 272.686 81.2418 273.055 81.2682C273.425 81.2946 273.759 80.8722 273.803 80.3178C273.847 79.7634 273.583 79.2882 273.214 79.253C272.844 79.2178 272.51 79.6577 272.466 80.2121Z" fill="#263238"/>
<path d="M273.363 79.2966L272.193 78.7246C272.193 78.7246 272.712 79.7894 273.363 79.2966Z" fill="#263238"/>
<path d="M265.549 79.5521C265.549 80.1065 265.778 80.5818 266.147 80.617C266.517 80.6522 266.851 80.2122 266.895 79.6578C266.939 79.1034 266.675 78.6282 266.306 78.6018C265.936 78.5754 265.593 78.9977 265.549 79.5521Z" fill="#263238"/>
<path d="M266.455 78.6369L265.285 78.0649C265.285 78.0649 265.804 79.1385 266.455 78.6369Z" fill="#263238"/>
<path d="M275.669 77.0177C275.622 77.0177 275.576 77.0065 275.535 76.9851C275.493 76.9636 275.458 76.9326 275.431 76.8945C275.1 76.5292 274.69 76.2436 274.233 76.0592C273.776 75.8748 273.283 75.7963 272.791 75.8297C272.713 75.8326 272.636 75.8063 272.576 75.7559C272.516 75.7055 272.476 75.6346 272.465 75.5569C272.461 75.4766 272.487 75.3975 272.54 75.3367C272.593 75.2759 272.667 75.238 272.747 75.2313C273.338 75.1892 273.931 75.2859 274.478 75.5135C275.025 75.7412 275.511 76.0935 275.897 76.5425C275.944 76.6072 275.963 76.6873 275.952 76.7661C275.94 76.8448 275.899 76.9161 275.836 76.9649C275.785 76.9956 275.728 77.0137 275.669 77.0177Z" fill="#263238"/>
<path d="M265.135 75.68C265.083 75.6793 265.032 75.6652 264.988 75.639C264.943 75.6127 264.906 75.5753 264.88 75.5304C264.859 75.4964 264.846 75.4586 264.84 75.4193C264.834 75.38 264.836 75.34 264.846 75.3015C264.856 75.263 264.873 75.2268 264.897 75.1951C264.921 75.1634 264.951 75.1368 264.986 75.1168C265.423 74.8246 265.921 74.6341 266.441 74.5595C266.962 74.4849 267.493 74.528 267.995 74.6856C268.031 74.7018 268.063 74.7248 268.09 74.7535C268.117 74.7821 268.138 74.8158 268.152 74.8526C268.166 74.8894 268.172 74.9285 268.171 74.9678C268.17 75.0071 268.161 75.0458 268.145 75.0816C268.131 75.1187 268.11 75.1526 268.083 75.1811C268.056 75.2096 268.023 75.232 267.986 75.2469C267.95 75.2619 267.911 75.269 267.871 75.2678C267.832 75.2666 267.793 75.2571 267.758 75.24C267.343 75.1187 266.907 75.0913 266.481 75.1598C266.055 75.2283 265.649 75.391 265.294 75.636C265.245 75.6627 265.191 75.6777 265.135 75.68Z" fill="#263238"/>
<path d="M280.72 82.4119C280.72 82.4119 277.86 76.6655 278.573 72.3887C278.573 72.3887 265.434 66.1583 264.018 79.7719C264.018 79.7719 263.375 67.584 275.044 67.9536C286.713 68.3232 285.736 85.3776 279.444 90.1295C279.418 90.1295 282.48 86.0023 280.72 82.4119Z" fill="#263238"/>
<path d="M271.92 66.1233C271.92 66.1233 266.35 64.7505 264.766 66.2289C263.182 67.7073 274.446 78.1177 280.342 79.1649C280.342 79.1649 282.339 85.6857 280.755 88.7393C280.755 88.7393 287.39 86.4249 287.698 76.3225C288.006 66.2201 277.402 62.4801 271.92 66.1233Z" fill="#263238"/>
<path d="M279.523 83.7849C279.576 83.3977 279.705 83.0247 279.902 82.6873C280.099 82.3499 280.361 82.0547 280.673 81.8185C280.984 81.5823 281.339 81.4098 281.717 81.3108C282.095 81.2118 282.489 81.1884 282.876 81.2417C284.962 81.5849 285.727 85.9585 280.438 86.7065C279.682 86.8121 279.303 86.0553 279.523 83.7849Z" fill="#EEC1BB"/>
<path d="M282.48 70.1184C282.48 70.1184 284.794 64.2312 290.998 64.6448C297.202 65.0584 298.153 74.7472 294.888 81.9016C291.623 89.056 293.841 91.3704 293.841 91.3704C293.841 91.3704 290.365 90.948 290.365 84.5328C290.175 85.891 290.104 87.2632 290.154 88.6336C290.154 88.6336 287.839 85.3688 290.048 79.1648C292.257 72.9608 285.208 75.8032 285.208 75.8032L282.48 70.1184Z" fill="#263238"/>
<path d="M276.135 79.3585C276.103 79.3664 276.07 79.3664 276.038 79.3585C268.118 76.5073 265.047 66.9593 265.012 66.8625C264.99 66.7855 264.999 66.7029 265.036 66.6323C265.074 66.5617 265.138 66.5085 265.214 66.4842C265.252 66.4718 265.292 66.4671 265.331 66.4701C265.37 66.4732 265.409 66.4841 265.444 66.5021C265.479 66.5201 265.51 66.5449 265.536 66.575C265.561 66.6052 265.581 66.6401 265.593 66.6778C265.593 66.7746 268.585 76.0409 276.241 78.7953C276.316 78.8232 276.377 78.8792 276.412 78.9515C276.446 79.0238 276.451 79.1066 276.426 79.1825C276.401 79.2379 276.36 79.2843 276.308 79.3157C276.256 79.3472 276.196 79.3621 276.135 79.3585Z" fill="#263238"/>
<path d="M269.509 88.4136H269.28C269.24 88.4137 269.201 88.4056 269.165 88.3899C269.128 88.3742 269.095 88.3513 269.068 88.3224C269.041 88.2935 269.02 88.2594 269.006 88.2221C268.993 88.1848 268.987 88.1452 268.99 88.1056C268.994 88.0254 269.03 87.9502 269.089 87.896C269.148 87.8418 269.226 87.8128 269.306 87.8152C270.673 87.8119 271.985 87.2788 272.967 86.328C273.023 86.2721 273.099 86.2407 273.178 86.2407C273.258 86.2407 273.333 86.2721 273.39 86.328C273.445 86.3841 273.477 86.46 273.477 86.5392C273.477 86.6184 273.445 86.6943 273.39 86.7504C272.352 87.7742 270.966 88.3682 269.509 88.4136Z" fill="#263238"/>
<path d="M270.486 83.0105C270.113 83.0388 269.741 82.9542 269.418 82.7678C269.094 82.5813 268.834 82.3016 268.672 81.9653C268.51 81.6289 268.453 81.2515 268.509 80.8823C268.564 80.5131 268.73 80.1692 268.984 79.8956C269.238 79.622 269.569 79.4313 269.933 79.3485C270.297 79.2657 270.678 79.2946 271.025 79.4314C271.373 79.5682 271.671 79.8065 271.881 80.1154C272.09 80.4242 272.202 80.7891 272.202 81.1625C272.213 81.3973 272.178 81.632 272.098 81.8529C272.017 82.0738 271.894 82.2763 271.734 82.4486C271.574 82.6208 271.381 82.7593 271.166 82.8558C270.952 82.9523 270.721 83.0049 270.486 83.0105ZM270.486 79.7545C270.201 79.7261 269.914 79.7846 269.663 79.9224C269.412 80.0602 269.209 80.2707 269.08 80.5264C268.951 80.782 268.902 81.0707 268.941 81.3544C268.979 81.6381 269.103 81.9035 269.295 82.1157C269.487 82.3278 269.739 82.4768 270.018 82.5428C270.296 82.6089 270.588 82.589 270.856 82.4858C271.123 82.3826 271.352 82.201 271.514 81.9647C271.676 81.7285 271.762 81.4488 271.762 81.1625C271.778 80.8068 271.654 80.4589 271.414 80.195C271.175 79.9311 270.841 79.7727 270.486 79.7545Z" fill="#263238"/>
<path d="M265.17 82.7204C264.8 82.7397 264.432 82.6475 264.114 82.4556C263.796 82.2637 263.543 81.9809 263.387 81.6438C263.232 81.3066 263.181 80.9306 263.241 80.5643C263.302 80.198 263.471 79.8582 263.726 79.5887C263.981 79.3193 264.312 79.1326 264.674 79.0527C265.037 78.9729 265.415 79.0036 265.76 79.1408C266.105 79.278 266.401 79.5155 266.609 79.8226C266.818 80.1297 266.93 80.4923 266.93 80.8636C266.944 81.1027 266.908 81.342 266.825 81.5668C266.743 81.7917 266.615 81.9973 266.45 82.1711C266.286 82.3449 266.087 82.4833 265.867 82.5777C265.647 82.6722 265.41 82.7207 265.17 82.7204ZM265.17 79.4555C264.886 79.4289 264.6 79.489 264.35 79.6281C264.1 79.7671 263.898 79.9784 263.77 80.2344C263.643 80.4903 263.596 80.7789 263.635 81.0621C263.675 81.3453 263.799 81.61 263.992 81.8212C264.185 82.0324 264.437 82.1804 264.715 82.2456C264.994 82.3109 265.285 82.2903 265.552 82.1867C265.818 82.0831 266.047 81.9013 266.208 81.6651C266.37 81.4289 266.456 81.1495 266.455 80.8636C266.462 80.5123 266.332 80.1722 266.092 79.9157C265.852 79.6593 265.521 79.5067 265.17 79.4908V79.4555Z" fill="#263238"/>
<path d="M268.99 81.3823C268.947 81.3844 268.906 81.3737 268.869 81.3518C268.833 81.3298 268.805 81.2975 268.787 81.2591C268.709 81.0942 268.597 80.9472 268.46 80.8276C268.322 80.7079 268.161 80.6181 267.986 80.5639C267.767 80.5511 267.548 80.5898 267.346 80.6769C267.144 80.764 266.966 80.8971 266.825 81.0655C266.782 81.1064 266.725 81.1292 266.666 81.1292C266.607 81.1292 266.551 81.1064 266.508 81.0655C266.468 81.0244 266.445 80.9691 266.445 80.9115C266.445 80.8539 266.468 80.7986 266.508 80.7575C266.699 80.5406 266.94 80.3724 267.209 80.2668C267.478 80.1612 267.769 80.1213 268.057 80.1503C268.3 80.2181 268.525 80.3372 268.718 80.4996C268.911 80.6621 269.066 80.8641 269.174 81.0919C269.188 81.1177 269.195 81.146 269.197 81.1749C269.199 81.2039 269.195 81.2328 269.185 81.2601C269.175 81.2873 269.159 81.3122 269.139 81.3333C269.12 81.3543 269.095 81.371 269.069 81.3823H268.99Z" fill="#263238"/>
<path d="M271.982 81.3824C271.925 81.3824 271.87 81.3604 271.829 81.3211C271.788 81.2817 271.764 81.228 271.762 81.1712C271.762 81.1134 271.783 81.0577 271.822 81.0153C271.862 80.9729 271.915 80.9468 271.973 80.9424C272.325 80.9424 280.412 80.6872 281.407 80.7312C281.466 80.7357 281.521 80.763 281.56 80.8073C281.6 80.8516 281.62 80.9095 281.618 80.9688C281.613 81.0256 281.587 81.0784 281.544 81.1161C281.501 81.1539 281.446 81.1736 281.389 81.1712C280.403 81.1272 272.079 81.3824 271.991 81.3824H271.982Z" fill="#263238"/>
<path d="M296.718 118.659C293.515 110.247 290.233 103.215 290.233 103.215C290.233 103.215 284.874 111.012 284.39 118.659H296.718Z" fill="#407BFF"/>
<path opacity="0.5" d="M296.718 118.659C293.515 110.247 290.233 103.215 290.233 103.215C290.233 103.215 284.874 111.012 284.39 118.659H296.718Z" fill="#121415"/>
<path d="M298.725 184.307C296.965 179.485 295.205 175.402 295.205 175.402L287.848 181.843L289.133 184.307H298.725Z" fill="#E4897B"/>
<path d="M246.778 184.307C248.538 182.178 249.779 180.611 249.779 180.611L242.589 174.645C242.589 174.645 239.069 180.075 236.201 184.325L246.778 184.307Z" fill="#E4897B"/>
<path d="M248.538 184.307L252.806 181.315L251.152 161.445C245.713 162.325 237.811 178.165 237.811 178.165L243.971 184.325L248.538 184.307Z" fill="#407BFF"/>
<path opacity="0.2" d="M243.98 184.307H248.538L251.601 182.16L252.806 181.28L251.152 161.401C245.713 162.334 237.811 178.121 237.811 178.121L243.249 183.515L243.98 184.307Z" fill="#121415"/>
<path d="M245.318 184.307L237.811 176.431L236.518 178.596L242.528 184.307H245.318Z" fill="#407BFF"/>
<path opacity="0.2" d="M248.538 184.307L251.601 182.16L250.149 173.545C250.149 173.545 244.464 177.135 243.25 183.577L243.98 184.307H248.538Z" fill="black"/>
<path d="M288.323 184.307C290.136 173.113 291.905 164.595 291.905 164.595C274.489 160.389 251.108 161.445 251.108 161.445C249.277 167.974 248.195 176.114 247.588 184.325L288.323 184.307Z" fill="#407BFF"/>
<path opacity="0.2" d="M288.323 184.307C288.446 183.524 288.569 182.749 288.693 181.993C290.373 171.961 291.905 164.595 291.905 164.595C274.489 160.389 251.108 161.445 251.108 161.445C249.277 167.974 248.204 176.114 247.588 184.325L288.323 184.307Z" fill="#121415"/>
<path opacity="0.2" d="M288.323 184.307C288.446 183.524 288.569 182.75 288.693 181.993L286.123 179.582C285.501 181.091 285.103 182.683 284.944 184.307H288.323Z" fill="black"/>
<path d="M261.025 184.307H263.789C264.09 179.27 264.805 174.267 265.927 169.347L270.811 165.352L266.965 164.111L263.445 164.305L264.387 168.925C264.387 168.925 262.715 176 261.025 184.307Z" fill="#263238"/>
<path d="M278.08 162.237C274.859 165.167 266.957 164.085 266.957 164.085C266.957 164.085 262.029 162.73 263.067 161.19C265.971 160.715 267.379 159.359 267.951 157.67C268.271 156.595 268.373 155.467 268.25 154.352C268.203 153.732 268.121 153.115 268.004 152.504L277.772 145.271C276.496 149.996 274.929 158.779 278.08 162.237Z" fill="#E4897B"/>
<path opacity="0.2" d="M275.519 149.82C275.132 155.681 270.318 157.292 267.96 157.626C268.28 156.551 268.382 155.423 268.259 154.308L275.519 149.82Z" fill="black"/>
<path d="M276.646 158.515L267.318 162.73L266.772 159.351L263.34 160.556C262.741 160.767 262.231 161.173 261.893 161.71C261.554 162.247 261.407 162.882 261.474 163.513L261.862 167.218L266.596 164.578L268.954 167.913L280.157 162.519L276.646 158.515Z" fill="#407BFF"/>
<path opacity="0.3" d="M276.646 158.515L267.318 162.73L266.772 159.351L263.34 160.556C262.741 160.767 262.231 161.173 261.893 161.71C261.554 162.247 261.407 162.882 261.474 163.513L261.862 167.218L266.596 164.578L268.954 167.913L280.157 162.519L276.646 158.515Z" fill="#121415"/>
<path d="M257.761 131.666C257.761 131.666 256.309 141.064 261.281 144.698C266.253 148.333 266.314 130.83 266.314 130.83L257.761 131.666Z" fill="#263238"/>
<path d="M275.757 152.24C274.705 153.785 273.176 154.942 271.404 155.535C269.632 156.128 267.714 156.124 265.945 155.522C263.649 154.793 261.715 153.221 260.533 151.122C260.368 150.837 260.218 150.543 260.084 150.242C257.646 144.487 256.89 134.402 262.979 130.689C264.322 129.864 265.852 129.394 267.427 129.325C269.001 129.256 270.567 129.59 271.976 130.295C273.386 130.999 274.592 132.052 275.482 133.353C276.371 134.654 276.914 136.16 277.059 137.729C277.816 144.32 278.564 148.245 275.757 152.24Z" fill="#E4897B"/>
<path d="M267.282 141.17C267.414 141.706 267.168 142.199 266.807 142.261C266.446 142.322 266.094 141.926 265.997 141.381C265.901 140.835 266.121 140.351 266.473 140.298C266.825 140.246 267.186 140.624 267.282 141.17Z" fill="#263238"/>
<path d="M261.149 142.199C261.281 142.736 261.026 143.229 260.674 143.291C260.322 143.352 259.952 142.947 259.864 142.411C259.776 141.874 259.987 141.381 260.339 141.319C260.691 141.258 261.061 141.68 261.149 142.199Z" fill="#263238"/>
<path d="M263.12 142.138C262.752 143.905 262.142 145.614 261.307 147.215C261.718 147.412 262.166 147.519 262.621 147.528C263.077 147.537 263.529 147.449 263.947 147.268L263.12 142.138Z" fill="#DE5753"/>
<path d="M258.438 139.964C258.494 139.98 258.552 139.983 258.609 139.973C258.665 139.962 258.718 139.938 258.764 139.902C259.063 139.629 259.421 139.428 259.81 139.315C260.199 139.202 260.609 139.18 261.008 139.251C261.049 139.263 261.092 139.267 261.134 139.261C261.177 139.256 261.218 139.243 261.255 139.221C261.292 139.2 261.324 139.171 261.35 139.137C261.375 139.103 261.394 139.064 261.404 139.022C261.426 138.941 261.415 138.854 261.374 138.78C261.333 138.706 261.265 138.651 261.184 138.626C260.682 138.522 260.162 138.538 259.668 138.675C259.174 138.811 258.719 139.063 258.341 139.41C258.281 139.47 258.248 139.553 258.248 139.638C258.248 139.724 258.281 139.806 258.341 139.867C258.367 139.905 258.4 139.938 258.438 139.964Z" fill="#263238"/>
<path d="M268.092 138.512C268.155 138.499 268.213 138.469 268.259 138.424C268.302 138.35 268.316 138.262 268.296 138.179C268.276 138.095 268.225 138.022 268.153 137.975C267.719 137.701 267.226 137.536 266.714 137.493C266.202 137.45 265.688 137.531 265.214 137.729C265.138 137.767 265.079 137.833 265.051 137.914C265.023 137.995 265.028 138.083 265.065 138.16C265.104 138.235 265.171 138.292 265.252 138.318C265.332 138.344 265.42 138.338 265.496 138.301C265.875 138.16 266.282 138.108 266.685 138.149C267.088 138.19 267.476 138.323 267.819 138.539C267.864 138.555 267.911 138.561 267.958 138.556C268.006 138.552 268.051 138.537 268.092 138.512Z" fill="#263238"/>
<path d="M270.802 130.117V133.118C271.331 133.296 271.773 133.667 272.04 134.156C272.307 134.645 272.381 135.217 272.245 135.758C271.585 138.354 273.46 142.05 275.545 143.361C275.545 143.361 275.484 142.27 276.425 142.42C277.367 142.569 277.789 148.21 276.329 151.105C276.329 151.105 278.722 148.36 279.541 142.305C280.289 136.682 279.928 132.124 278.555 130.152L270.802 130.117Z" fill="#263238"/>
<path d="M280.922 142.56C280.435 144.193 279.322 145.566 277.825 146.379C275.836 147.444 274.349 145.772 274.489 143.643C274.639 141.751 275.827 138.855 278.009 138.688C280.192 138.521 281.494 140.58 280.922 142.56Z" fill="#E4897B"/>
<path d="M264.721 148.913C265.192 149.63 265.61 150.38 265.971 151.157L266.411 151.034C268.382 150.462 269.104 149.538 269.306 148.702C269.4 148.288 269.4 147.858 269.306 147.444C269.25 147.21 269.161 146.984 269.042 146.775C267.986 147.672 266.75 148.333 265.417 148.711C264.985 148.852 264.721 148.913 264.721 148.913Z" fill="#263238"/>
<path d="M265.39 148.72L265.778 149.371C267.634 148.826 268.858 148.192 269.298 147.453C269.241 147.219 269.152 146.994 269.034 146.784C267.972 147.684 266.73 148.344 265.39 148.72Z" fill="#121415"/>
<path d="M266.411 151.034C268.382 150.462 269.104 149.538 269.306 148.702C268.56 148.932 267.863 149.296 267.247 149.776C266.844 150.098 266.552 150.538 266.411 151.034Z" fill="#DE5753"/>
<path d="M274.815 141.073L273.935 140.554C273.935 140.554 274.49 144.153 273.346 145.165C273.346 145.165 269.386 145.587 268.004 145.957C267.056 146.325 266.272 147.022 265.795 147.919C265.795 147.919 262.689 147.259 261.342 149.591C260.225 148.594 259.341 147.362 258.755 145.983C258.755 145.983 258.861 152.566 262.548 156.068C266.235 159.571 272.228 157.828 275.044 155.091C277.86 152.355 274.815 141.073 274.815 141.073ZM272.175 151.448C271.938 151.801 271.612 152.085 271.23 152.273C270.849 152.461 270.425 152.545 270.001 152.519C269.576 152.492 269.166 152.355 268.811 152.121C268.457 151.887 268.169 151.564 267.978 151.184L266.746 151.862C266.746 151.862 268.101 153.006 267.071 154.062C266.042 155.118 262.856 154.739 262.53 151.703C262.205 148.667 266.05 148.324 266.05 148.324C266.53 147.84 267.102 147.457 267.732 147.199C268.363 146.94 269.039 146.811 269.72 146.819C270.25 146.841 270.765 147 271.215 147.281C271.665 147.563 272.034 147.956 272.285 148.424C272.536 148.891 272.662 149.415 272.649 149.946C272.635 150.476 272.484 150.994 272.21 151.448H272.175Z" fill="#263238"/>
<path d="M270.793 133.118C270.793 133.118 255.833 138.222 257.593 128.137C257.593 128.137 265.663 123.385 272.694 124.714C279.725 126.042 279.18 133.338 279.18 133.338L270.793 133.118Z" fill="#263238"/>
<path d="M300.652 184.307C299.772 181.438 294.835 166.126 291.905 164.595C290.173 166.228 288.783 168.187 287.813 170.359C285.815 174.425 285.384 182.574 285.384 182.574L286.677 184.334L300.652 184.307Z" fill="#407BFF"/>
<path opacity="0.2" d="M300.652 184.307C299.772 181.438 294.835 166.126 291.905 164.595C290.173 166.228 288.783 168.187 287.813 170.359C285.815 174.425 285.384 182.574 285.384 182.574L286.677 184.334L300.652 184.307Z" fill="#121415"/>
<path opacity="0.6" d="M380.054 120.076H306.759V184.298H380.054V120.076Z" fill="#121415"/>
<path d="M325.151 184.307C327.923 181.614 329.859 179.485 329.859 179.485L328.838 163.891C325.565 165.651 314.978 180.066 311.045 184.307H325.151Z" fill="#263238"/>
<path opacity="0.3" d="M325.151 184.307C327.923 181.614 329.859 179.485 329.859 179.485L328.838 163.891C325.565 165.651 314.978 180.066 311.045 184.307H325.151Z" fill="#121415"/>
<path opacity="0.2" d="M325.151 184.307C327.923 181.623 329.859 179.485 329.859 179.485L329.622 175.789L328.451 172.189C326.921 173.782 325.765 175.697 325.069 177.793C324.374 179.89 324.155 182.115 324.43 184.307H325.151Z" fill="black"/>
<path d="M358.336 143.634C357.579 146.538 361.733 154.563 360.052 169.154C358.371 183.744 342.355 182.864 335.157 177.954C327.958 173.043 329.208 146.678 331.681 141.469C334.154 136.259 358.336 143.634 358.336 143.634Z" fill="#263238"/>
<path d="M357.201 184.307C357.729 182.31 358.362 180.119 359.119 177.69C359.659 175.93 360.26 174.061 360.923 172.084C361.428 170.588 361.973 168.96 362.56 167.2C358.987 166.063 355.337 165.181 351.639 164.56C347.736 163.874 343.79 163.459 339.83 163.319C334.717 163.319 328.83 163.856 328.83 163.856C328.83 163.856 327.994 164.05 327.474 169.479C327.193 172.454 326.911 177.171 326.946 184.272L357.201 184.307Z" fill="#263238"/>
<path opacity="0.3" d="M357.201 184.307C357.729 182.31 358.362 180.119 359.119 177.69C359.659 175.93 360.26 174.061 360.923 172.084C361.428 170.588 361.973 168.96 362.56 167.2C358.987 166.063 355.337 165.181 351.639 164.56C347.736 163.874 343.79 163.459 339.83 163.319C334.717 163.319 328.83 163.856 328.83 163.856C328.83 163.856 327.994 164.05 327.474 169.479C327.193 172.454 326.911 177.171 326.946 184.272L357.201 184.307Z" fill="#121415"/>
<path d="M344.564 162.597C347.723 162.791 352.774 162.756 356.004 167.807H350.02L353.276 171.785C353.276 171.785 342.795 174.284 339.521 181.157C339.521 181.157 334.822 173.008 332.27 171.116C333.827 169.566 335.606 168.258 337.55 167.235C335.856 166.512 334.085 165.986 332.27 165.669C332.27 165.669 340.296 162.342 344.564 162.597Z" fill="#121415"/>
<path d="M350.442 165.563C350.442 165.563 342.329 174.715 339.821 179.133C338.681 174.3 338.799 169.255 340.164 164.481L350.442 165.563Z" fill="#407BFF"/>
<path opacity="0.6" d="M350.442 165.563C350.442 165.563 342.329 174.715 339.821 179.133C338.681 174.3 338.799 169.255 340.164 164.481L350.442 165.563Z" fill="#121415"/>
<path d="M342.012 169.163C348.498 168.335 350.442 165.563 350.442 165.563C346.324 161.683 349.747 155.003 349.747 155.003L341.942 156.464C342.119 157.55 342.222 158.647 342.25 159.747C342.303 164.481 340.164 164.525 340.164 164.525C338.8 167.051 342.012 169.163 342.012 169.163Z" fill="#EEC1BB"/>
<path opacity="0.2" d="M341.942 156.42C342.119 157.506 342.222 158.602 342.25 159.702C347.53 159.702 349.747 154.959 349.747 154.959L341.942 156.42Z" fill="black"/>
<path d="M346.254 134.64C339.469 134.271 337.093 137.782 336.213 144.743C335.113 153.446 336.706 159.755 345.295 158.356C356.946 156.411 357.518 135.212 346.254 134.64Z" fill="#EEC1BB"/>
<path d="M340.613 144.558C340.019 145.544 339.306 146.454 338.492 147.268C338.674 147.564 338.936 147.803 339.247 147.959C339.557 148.114 339.906 148.18 340.252 148.148L340.613 144.558Z" fill="#D4827D"/>
<path d="M344.802 144.232C344.758 144.795 345.022 145.261 345.391 145.297C345.761 145.332 346.095 144.892 346.139 144.337C346.183 143.783 345.919 143.308 345.55 143.281C345.18 143.255 344.846 143.677 344.802 144.232Z" fill="#263238"/>
<path d="M345.699 143.317L344.529 142.753C344.529 142.753 345.048 143.818 345.699 143.317Z" fill="#263238"/>
<path d="M337.92 143.581C337.876 144.135 338.14 144.611 338.51 144.637C338.879 144.663 339.214 144.241 339.258 143.687C339.302 143.132 339.038 142.648 338.668 142.622C338.298 142.595 337.92 143.018 337.92 143.581Z" fill="#263238"/>
<path d="M338.8 142.665L337.63 142.093C337.63 142.093 338.14 143.158 338.8 142.665Z" fill="#263238"/>
<path d="M348.014 141.046C347.965 141.048 347.916 141.036 347.873 141.013C347.83 140.99 347.793 140.956 347.767 140.914C347.437 140.548 347.027 140.263 346.57 140.08C346.112 139.897 345.619 139.821 345.127 139.858C345.047 139.861 344.97 139.833 344.909 139.781C344.849 139.729 344.81 139.656 344.802 139.577C344.797 139.496 344.823 139.417 344.876 139.356C344.929 139.296 345.003 139.258 345.083 139.251C345.674 139.21 346.266 139.307 346.813 139.534C347.36 139.762 347.847 140.114 348.234 140.562C348.28 140.627 348.299 140.707 348.288 140.786C348.276 140.865 348.235 140.936 348.172 140.985C348.126 141.019 348.071 141.04 348.014 141.046Z" fill="#263238"/>
<path d="M337.471 139.709C337.419 139.708 337.369 139.694 337.324 139.668C337.279 139.642 337.242 139.604 337.216 139.559C337.196 139.525 337.182 139.487 337.176 139.448C337.17 139.409 337.172 139.369 337.182 139.33C337.192 139.292 337.209 139.256 337.233 139.224C337.257 139.192 337.287 139.166 337.322 139.146C337.757 138.849 338.255 138.656 338.777 138.583C339.299 138.51 339.831 138.558 340.331 138.723C340.404 138.756 340.461 138.816 340.49 138.889C340.52 138.963 340.519 139.046 340.49 139.119C340.457 139.192 340.397 139.249 340.324 139.278C340.25 139.308 340.167 139.307 340.094 139.278C339.68 139.151 339.244 139.12 338.817 139.187C338.39 139.255 337.984 139.418 337.63 139.665C337.581 139.691 337.527 139.707 337.471 139.709Z" fill="#263238"/>
<path d="M341.079 150.859C341.355 151.64 341.576 152.44 341.739 153.252C341.886 153.261 342.033 153.261 342.179 153.252C344.168 153.164 345.057 152.469 345.444 151.721C345.619 151.35 345.706 150.943 345.699 150.533C345.7 150.301 345.67 150.071 345.611 149.847C344.412 150.448 343.097 150.784 341.757 150.832L341.079 150.859Z" fill="#263238"/>
<path d="M341.757 150.815L341.968 151.519C343.834 151.422 345.145 151.114 345.699 150.516C345.7 150.284 345.671 150.053 345.611 149.829C344.412 150.431 343.098 150.767 341.757 150.815Z" fill="#121415"/>
<path d="M342.179 153.235C344.168 153.147 345.057 152.452 345.444 151.704C344.688 151.751 343.946 151.933 343.253 152.24C342.8 152.451 342.424 152.799 342.179 153.235Z" fill="#DE5753"/>
<path d="M353.047 146.432C353.047 146.432 350.178 140.686 350.891 136.409C350.891 136.409 337.753 130.187 336.345 143.792C336.345 143.792 335.694 131.604 347.362 131.974C359.031 132.343 358.054 149.398 351.762 154.15C351.754 154.15 354.816 150.031 353.047 146.432Z" fill="#263238"/>
<path d="M351.859 147.84C351.912 147.453 352.041 147.08 352.238 146.742C352.435 146.405 352.697 146.11 353.008 145.874C353.32 145.637 353.675 145.465 354.053 145.366C354.431 145.267 354.825 145.244 355.212 145.297C357.297 145.64 358.063 150.014 352.774 150.762C352 150.841 351.639 150.084 351.859 147.84Z" fill="#EEC1BB"/>
<path d="M349.087 135.74C348.627 141.35 350.015 146.956 353.038 151.703C356.858 157.467 352.475 162.51 352.475 162.51C352.475 162.51 361.53 159.386 357.579 146.538C357.579 146.538 361.838 135.054 353.461 131.965C353.461 131.965 353.417 128.445 345.84 129.131C338.263 129.818 332.174 136.286 331.012 144.558C329.85 152.83 334.171 162.061 334.171 162.061C334.171 162.061 329.586 132.739 349.087 135.74Z" fill="#263238"/>
<path d="M349.51 135.872C349.011 137.837 348.821 139.868 348.946 141.892C349.066 143.941 349.393 145.972 349.923 147.955C350.451 149.952 351.216 151.878 352.203 153.692C353.169 155.523 354.47 157.156 356.039 158.506C354.414 157.202 353.047 155.605 352.009 153.798C350.949 151.998 350.107 150.077 349.501 148.078C348.884 146.072 348.477 144.008 348.286 141.918C348.08 139.799 348.207 137.661 348.665 135.582L349.51 135.872Z" fill="#263238"/>
<path opacity="0.2" d="M357.201 184.307C357.315 183.885 357.43 183.427 357.553 183.022C356.734 180.154 355.89 182.398 355.89 182.398C355.753 183.028 355.653 183.665 355.59 184.307H357.201Z" fill="black"/>
<path d="M368.65 184.307C365.587 176.141 362.56 167.2 362.56 167.2C356.277 169.682 355.934 182.539 355.934 182.539L356.919 184.299L368.65 184.307Z" fill="#263238"/>
<path opacity="0.3" d="M368.65 184.307C365.587 176.141 362.56 167.2 362.56 167.2C356.277 169.682 355.934 182.539 355.934 182.539L356.919 184.299L368.65 184.307Z" fill="#121415"/>
<path opacity="0.5" d="M230.094 120.076H156.798V184.298H230.094V120.076Z" fill="#121415"/>
<path d="M194.454 130.522L187.097 137.888H185.574V130.522H194.454Z" fill="#121415"/>
<path d="M195.993 132.722V137.887H190.828L195.993 132.722Z" fill="#121415"/>
<path d="M199.707 137.174L196.918 136.294V132.229L199.707 131.349V137.174Z" fill="#121415"/>
<path d="M192.641 144.637C190.226 144.637 187.885 143.8 186.019 142.269C184.152 140.737 182.874 138.605 182.402 136.237C181.931 133.868 182.296 131.41 183.434 129.28C184.573 127.15 186.414 125.481 188.646 124.557C190.877 123.633 193.359 123.512 195.67 124.213C197.981 124.915 199.977 126.396 201.318 128.404C202.659 130.412 203.262 132.824 203.025 135.227C202.787 137.63 201.723 139.876 200.015 141.583C199.049 142.554 197.899 143.324 196.634 143.848C195.368 144.372 194.011 144.64 192.641 144.637ZM192.641 124.652C191.068 124.651 189.52 125.038 188.133 125.778C186.746 126.519 185.563 127.59 184.689 128.897C183.815 130.204 183.277 131.707 183.123 133.272C182.968 134.837 183.203 136.415 183.805 137.868C184.407 139.32 185.358 140.602 186.574 141.599C187.79 142.596 189.233 143.278 190.776 143.583C192.318 143.889 193.912 143.809 195.416 143.351C196.921 142.894 198.289 142.072 199.399 140.958C200.733 139.621 201.641 137.919 202.008 136.067C202.375 134.214 202.185 132.294 201.462 130.55C200.739 128.805 199.515 127.314 197.945 126.264C196.375 125.214 194.529 124.653 192.641 124.652Z" fill="#121415"/>
<path d="M199.396 126.834L185.265 140.965L185.887 141.588L200.019 127.456L199.396 126.834Z" fill="#121415"/>
<path d="M73.7001 301.664L95.5065 299.525V268.875H104.148V299.517L126.051 301.664C127.101 301.769 128.074 302.26 128.781 303.042C129.489 303.824 129.88 304.842 129.879 305.897V309.17H69.8633V305.897C69.8646 304.841 70.2579 303.824 70.9668 303.042C71.6757 302.259 72.6497 301.768 73.7001 301.664Z" fill="#263238"/>
<path opacity="0.3" d="M73.7001 301.664L95.5065 299.525V268.875H104.148V299.517L126.051 301.664C127.101 301.769 128.074 302.26 128.781 303.042C129.489 303.824 129.88 304.842 129.879 305.897V309.17H69.8633V305.897C69.8646 304.841 70.2579 303.824 70.9668 303.042C71.6757 302.259 72.6497 301.768 73.7001 301.664Z" fill="#121415"/>
<path d="M121.924 313.227C121.924 314.345 122.255 315.437 122.876 316.366C123.497 317.295 124.379 318.019 125.412 318.447C126.444 318.874 127.58 318.986 128.676 318.768C129.772 318.55 130.778 318.012 131.569 317.222C132.359 316.432 132.897 315.425 133.115 314.329C133.333 313.234 133.221 312.098 132.793 311.065C132.366 310.033 131.641 309.151 130.712 308.53C129.783 307.909 128.691 307.578 127.574 307.578C126.075 307.578 124.638 308.173 123.579 309.232C122.519 310.292 121.924 311.729 121.924 313.227Z" fill="#407BFF"/>
<path d="M77.8273 313.227C77.829 314.346 77.4989 315.441 76.8786 316.372C76.2583 317.304 75.3757 318.03 74.3424 318.46C73.3091 318.89 72.1716 319.004 71.0736 318.787C69.9757 318.571 68.9666 318.033 68.174 317.243C67.3815 316.453 66.841 315.446 66.6209 314.349C66.4009 313.251 66.5112 312.113 66.9379 311.079C67.3645 310.044 68.0884 309.159 69.0179 308.536C69.9475 307.913 71.041 307.579 72.1601 307.578C72.9032 307.576 73.6392 307.722 74.3261 308.005C75.0131 308.288 75.6375 308.704 76.1638 309.229C76.69 309.753 77.1078 310.376 77.3932 311.063C77.6786 311.749 77.8261 312.484 77.8273 313.227Z" fill="#407BFF"/>
<path d="M101.983 275.457H97.636C96.6721 275.457 95.7477 275.075 95.0661 274.393C94.3845 273.711 94.0016 272.787 94.0016 271.823V248.177H105.644V271.823C105.644 272.303 105.549 272.777 105.365 273.22C105.181 273.663 104.911 274.064 104.57 274.402C104.23 274.74 103.826 275.007 103.382 275.188C102.938 275.369 102.463 275.461 101.983 275.457Z" fill="#263238"/>
<path opacity="0.5" d="M101.983 275.457H97.636C96.6721 275.457 95.7477 275.075 95.0661 274.393C94.3845 273.711 94.0016 272.787 94.0016 271.823V248.177H105.644V271.823C105.644 272.303 105.549 272.777 105.365 273.22C105.181 273.663 104.911 274.064 104.57 274.402C104.23 274.74 103.826 275.007 103.382 275.188C102.938 275.369 102.463 275.461 101.983 275.457Z" fill="#121415"/>
<path d="M79.1999 200.244C79.1999 200.244 77.5191 241.12 88.8799 248.16H75.9087C75.9087 248.16 65.8415 234.239 68.6839 200.244H79.1999Z" fill="#263238"/>
<path opacity="0.5" d="M79.1999 200.244C79.1999 200.244 77.5191 241.12 88.8799 248.16H75.9087C75.9087 248.16 65.8415 234.239 68.6839 200.244H79.1999Z" fill="#121415"/>
<path d="M75.8824 242.44H125.312C126.479 242.44 127.598 242.904 128.423 243.729C129.248 244.554 129.712 245.673 129.712 246.84V251.293H71.4824V246.84C71.4824 245.673 71.946 244.554 72.7711 243.729C73.5963 242.904 74.7155 242.44 75.8824 242.44Z" fill="#407BFF"/>
<path d="M130.363 246.866H70.8223C69.8454 246.866 69.0535 247.658 69.0535 248.635V249.524C69.0535 250.501 69.8454 251.293 70.8223 251.293H130.363C131.34 251.293 132.132 250.501 132.132 249.524V248.635C132.132 247.658 131.34 246.866 130.363 246.866Z" fill="#407BFF"/>
<path opacity="0.6" d="M130.363 246.866H70.8223C69.8454 246.866 69.0535 247.658 69.0535 248.635V249.524C69.0535 250.501 69.8454 251.293 70.8223 251.293H130.363C131.34 251.293 132.132 250.501 132.132 249.524V248.635C132.132 247.658 131.34 246.866 130.363 246.866Z" fill="#121415"/>
<path d="M67.2849 208.551H84.5153C91.6013 208.551 97.3457 202.807 97.3457 195.721V191.162C97.3457 184.076 91.6013 178.332 84.5153 178.332H67.2849C60.1989 178.332 54.4545 184.076 54.4545 191.162V195.721C54.4545 202.807 60.1989 208.551 67.2849 208.551Z" fill="#407BFF"/>
<path d="M122.003 172.058C124.335 173.017 137.562 189.886 137.905 193.442C138.336 197.754 133.963 198.572 129.202 197.454C124.441 196.337 128.049 191.664 128.049 191.664L120.719 181.403L122.003 172.058Z" fill="#263238"/>
<path d="M119.891 214.069H103.171C103.171 214.069 106.392 191.981 106.92 191.664C107.448 191.348 119.134 190.564 119.134 190.564V202.884L119.891 214.069Z" fill="#263238"/>
<path d="M100.83 166.065C101.438 165.942 107.818 163.302 111.285 165.968C114.752 168.635 118.659 177.514 112.446 180.735C106.234 183.955 98.3048 182.275 97.3544 177.426C96.404 172.577 100.83 166.065 100.83 166.065Z" fill="#263238"/>
<path d="M95.8584 146.15C95.8584 146.15 91.6696 155.83 94.6 159.421C97.5304 163.011 116.644 165.862 119.962 162.492C123.279 159.122 118.932 145.772 118.932 145.772L95.8584 146.15Z" fill="#263238"/>
<path d="M170.993 288.095L166.012 289.291L163.495 282.418L161.207 276.17L166.874 273.75L169.057 281.336L170.993 288.095Z" fill="#E4897B"/>
<path opacity="0.2" d="M169.057 281.336L163.495 282.418L161.207 276.17L166.874 273.75L169.057 281.336Z" fill="black"/>
<path d="M168.555 277.711L161.656 280.272C161.656 280.272 143.238 234.23 139.454 234.072C135.67 233.913 97.1257 251.619 87.4721 241.798C77.8185 231.977 91.7753 208.305 91.7753 208.305C91.7753 208.305 115.007 204.996 116.758 210.241C117.191 211.787 117.521 213.36 117.744 214.949C118.008 216.551 118.184 217.897 118.184 217.897C118.906 217.721 142.226 211.737 151.413 217.897C160.767 224.216 168.555 277.711 168.555 277.711Z" fill="#263238"/>
<path opacity="0.2" d="M168.555 277.711L161.656 280.272C161.656 280.272 143.238 234.23 139.454 234.072C135.67 233.913 97.1257 251.619 87.4721 241.798C77.8185 231.977 91.7753 208.305 91.7753 208.305C91.7753 208.305 115.007 204.996 116.758 210.241C117.191 211.787 117.521 213.36 117.744 214.949C118.008 216.551 118.184 217.897 118.184 217.897C118.906 217.721 142.226 211.737 151.413 217.897C160.767 224.216 168.555 277.711 168.555 277.711Z" fill="#121415"/>
<path d="M128.85 307.736L123.886 306.46L124.846 299.349L125.726 292.82L131.859 293.374L130.266 300.977L128.85 307.736Z" fill="#E4897B"/>
<path opacity="0.2" d="M130.231 301.127L124.811 299.482L125.708 292.891L131.851 293.41L130.231 301.127Z" fill="black"/>
<path d="M158.805 277.719L168.854 274.305L169.285 278.423L161.665 281.116L158.805 277.719Z" fill="#263238"/>
<path d="M104.157 244.156C104.157 244.156 105.723 244.2 130.09 243.065C130.09 243.065 126.456 273.522 124.467 296.331L131.754 297.572C131.754 297.572 149.16 248.741 148.975 240.979C148.79 233.218 139.92 230.947 139.92 230.947C139.92 230.947 122.531 240.979 104.157 244.156Z" fill="#263238"/>
<path opacity="0.1" d="M104.157 244.156C104.157 244.156 105.723 244.2 130.09 243.065C130.09 243.065 126.456 273.522 124.467 296.331L131.754 297.572C131.754 297.572 149.16 248.741 148.975 240.979C148.79 233.218 139.92 230.947 139.92 230.947C139.92 230.947 122.531 240.979 104.157 244.156Z" fill="#121415"/>
<path d="M123.402 294.123L133.417 295.258L131.481 299.183L123.376 298.144L123.402 294.123Z" fill="#263238"/>
<path opacity="0.3" d="M118.184 217.897L104.597 220.731C104.597 220.731 112.112 216.586 117.744 214.949C118.008 216.551 118.184 217.897 118.184 217.897Z" fill="black"/>
<path d="M92.3383 204.697L91.7751 208.314L116.758 210.241L117.418 205.964L92.3383 204.697Z" fill="#263238"/>
<path opacity="0.2" d="M92.3383 204.697L91.7751 208.314L116.758 210.241L117.418 205.964L92.3383 204.697Z" fill="black"/>
<path d="M100.86 204.458L99.6255 204.331L98.9793 210.616L100.214 210.743L100.86 204.458Z" fill="#263238"/>
<path d="M111.558 205.967L106.086 205.615L105.819 209.769L111.29 210.12L111.558 205.967Z" fill="#121415"/>
<path d="M116.207 205.134L114.973 205.007L114.326 211.293L115.561 211.42L116.207 205.134Z" fill="#263238"/>
<path opacity="0.2" d="M100.86 204.458L99.6255 204.331L98.9793 210.616L100.214 210.743L100.86 204.458Z" fill="#121415"/>
<path opacity="0.2" d="M116.207 205.134L114.973 205.007L114.326 211.293L115.561 211.42L116.207 205.134Z" fill="#121415"/>
<path d="M120.367 171.512C116.194 168.858 111.416 167.308 106.48 167.006C98.4633 166.593 91.2561 171.01 91.2561 171.01L92.3209 204.697L117.401 205.964C117.401 205.964 125.33 183.489 120.367 171.512Z" fill="#407BFF"/>
<path d="M119.143 149.002C119.143 149.002 122.76 132.731 107.703 134.341C88.8097 136.365 95.9817 159.861 105.354 158.392C114.726 156.922 119.143 149.002 119.143 149.002Z" fill="#263238"/>
<path opacity="0.2" d="M116.037 170.799L116.486 177.892L111.047 173.017C111.047 173.017 110.678 176.537 109.419 182.389C109.024 179.342 108.163 176.374 106.867 173.589L101.728 178.816L98.3665 170.799C98.3665 170.799 108.662 163.337 116.037 170.799Z" fill="black"/>
<path d="M109.182 176.555L106.48 169.884L101.49 167.649C105.89 164.604 103.682 157.793 103.682 157.793L110.801 160.301C110.472 161.293 110.216 162.308 110.035 163.337C109.296 167.737 111.294 168.124 111.294 168.124L109.921 170.113L109.182 176.555Z" fill="#E4897B"/>
<path opacity="0.2" d="M110.792 160.301C110.463 161.293 110.208 162.308 110.026 163.337C106.621 161.973 103.673 157.793 103.673 157.793L110.792 160.301Z" fill="black"/>
<path d="M111.038 139.04C117.471 139.594 119.24 143.211 119.143 149.873C119.02 158.206 116.679 163.953 108.794 161.471C98.0848 158.136 100.364 138.16 111.038 139.04Z" fill="#E4897B"/>
<path d="M115.016 149.16C115.45 150.164 116.002 151.113 116.662 151.985C116.451 152.236 116.175 152.423 115.864 152.526C115.553 152.628 115.22 152.642 114.902 152.566L115.016 149.16Z" fill="#DE5753"/>
<path d="M111.127 148.298C111.127 148.826 110.783 149.239 110.431 149.178C110.079 149.116 109.815 148.711 109.851 148.183C109.886 147.655 110.194 147.242 110.546 147.259C110.898 147.277 111.162 147.77 111.127 148.298Z" fill="#263238"/>
<path d="M110.405 147.312L111.584 146.934C111.584 146.934 110.95 147.84 110.405 147.312Z" fill="#263238"/>
<path d="M117.718 148.597C117.718 149.125 117.366 149.539 117.014 149.477C116.662 149.415 116.406 149.011 116.433 148.483C116.459 147.955 116.785 147.541 117.137 147.559C117.489 147.576 117.744 148.069 117.718 148.597Z" fill="#263238"/>
<path d="M116.987 147.611L118.166 147.233C118.166 147.233 117.533 148.166 116.987 147.611Z" fill="#263238"/>
<path d="M108.574 144.901C108.534 144.901 108.493 144.894 108.456 144.879C108.418 144.863 108.383 144.841 108.354 144.813C108.324 144.784 108.299 144.749 108.283 144.71C108.266 144.672 108.257 144.63 108.257 144.588C108.257 144.546 108.266 144.505 108.283 144.466C108.299 144.427 108.324 144.393 108.354 144.364C108.781 143.988 109.29 143.718 109.84 143.574C110.39 143.431 110.966 143.418 111.522 143.537C111.604 143.556 111.676 143.606 111.722 143.676C111.768 143.747 111.785 143.832 111.769 143.915C111.76 143.956 111.744 143.995 111.72 144.03C111.697 144.065 111.666 144.094 111.631 144.117C111.596 144.14 111.557 144.156 111.515 144.164C111.474 144.171 111.431 144.17 111.39 144.161C110.94 144.069 110.474 144.079 110.028 144.19C109.582 144.301 109.167 144.511 108.812 144.804C108.781 144.835 108.744 144.859 108.703 144.876C108.662 144.892 108.618 144.901 108.574 144.901Z" fill="#263238"/>
<path d="M118.659 145.05C118.586 145.049 118.515 145.024 118.457 144.98C118.16 144.705 117.805 144.499 117.418 144.379C117.031 144.258 116.622 144.226 116.222 144.285C116.141 144.307 116.055 144.296 115.983 144.254C115.91 144.213 115.857 144.145 115.834 144.065C115.812 143.983 115.823 143.896 115.864 143.822C115.905 143.748 115.973 143.693 116.054 143.669C116.552 143.583 117.062 143.612 117.547 143.752C118.031 143.892 118.478 144.141 118.853 144.478C118.886 144.504 118.914 144.536 118.934 144.573C118.955 144.61 118.968 144.65 118.973 144.692C118.978 144.734 118.975 144.776 118.963 144.816C118.951 144.857 118.932 144.894 118.906 144.927C118.877 144.966 118.84 144.997 118.797 145.018C118.754 145.039 118.707 145.05 118.659 145.05Z" fill="#263238"/>
<path d="M103.083 149.266C103.083 149.266 106.542 144.25 106.436 140.132C106.436 140.132 119.636 136.022 119.143 149.002C119.143 149.002 121.37 137.632 110.343 136.427C99.317 135.221 97.9706 151.387 103.303 156.667C103.268 156.702 100.936 152.416 103.083 149.266Z" fill="#263238"/>
<path d="M104.016 150.718C104.022 150.344 103.953 149.972 103.815 149.624C103.676 149.276 103.47 148.96 103.208 148.692C102.946 148.424 102.634 148.211 102.289 148.065C101.945 147.919 101.574 147.843 101.2 147.84C99.1936 147.893 97.8912 151.897 102.758 153.305C103.462 153.543 103.919 152.883 104.016 150.718Z" fill="#E4897B"/>
<path d="M115.28 155.188C114.894 155.877 114.556 156.591 114.268 157.327L113.863 157.239C112.015 156.825 111.302 156.033 111.065 155.267C110.952 154.893 110.934 154.497 111.012 154.115C111.047 153.898 111.112 153.688 111.206 153.49C112.231 154.248 113.407 154.776 114.655 155.039C115.016 155.144 115.28 155.188 115.28 155.188Z" fill="#263238"/>
<path d="M114.638 155.039L114.321 155.663C112.561 155.276 111.417 154.783 110.994 154.115C111.029 153.898 111.094 153.688 111.188 153.49C112.213 154.248 113.39 154.776 114.638 155.039Z" fill="#121415"/>
<path d="M113.846 157.239C111.998 156.825 111.285 156.033 111.047 155.268C111.745 155.445 112.406 155.742 113.001 156.148C113.386 156.417 113.681 156.798 113.846 157.239Z" fill="#DE5753"/>
<path d="M110.88 139.515C110.88 139.515 107.36 149.864 100.734 149.195C94.1073 148.527 105.512 135.995 105.512 135.995C105.512 135.995 116.741 132.827 121.607 139.058C126.474 145.288 119.161 149.055 119.161 149.055C119.161 149.055 120.252 140.844 110.88 139.515Z" fill="#263238"/>
<path d="M105.538 148.351C105.494 148.35 105.452 148.336 105.416 148.311C105.38 148.286 105.352 148.251 105.336 148.21C105.316 148.154 105.318 148.092 105.343 148.038C105.368 147.984 105.412 147.941 105.468 147.92C110.748 145.922 110.642 138.829 110.642 138.759C110.642 138.7 110.666 138.644 110.707 138.603C110.748 138.562 110.804 138.539 110.862 138.539C110.891 138.538 110.919 138.542 110.946 138.552C110.973 138.562 110.997 138.578 111.017 138.597C111.038 138.617 111.054 138.641 111.065 138.667C111.077 138.693 111.082 138.721 111.082 138.75C111.082 138.82 111.188 146.221 105.618 148.333L105.538 148.351Z" fill="#263238"/>
<path d="M103.409 165.044L106.471 169.884L102.634 176.554L99.8535 167.992L103.409 165.044Z" fill="#407BFF"/>
<path d="M109.912 165.968V170.113L114.444 175.12L112.966 167.931L109.912 165.968Z" fill="#407BFF"/>
<path d="M179.23 297.757C178.475 297.411 177.664 297.205 176.836 297.15C176.836 297.15 173.958 295.46 171.107 288.887H167.904C167.362 288.892 166.835 289.063 166.395 289.378C165.954 289.693 165.621 290.136 165.44 290.647C165.389 290.788 165.359 290.936 165.352 291.087C165.386 291.863 165.468 292.636 165.598 293.401C166.071 295.948 166.697 298.463 167.473 300.934L168.01 300.802L167.024 296.015C166.698 294.396 168.406 295.962 169.198 297.599C169.99 299.236 171.204 300.89 174.742 300.08C178.869 299.095 180.523 298.505 179.23 297.757Z" fill="#263238"/>
<path d="M170.526 287.161C170.526 287.161 174.53 295.53 176.836 297.149C176.836 297.149 173.747 298.989 170.526 294.888C166.364 289.608 165.352 291.069 165.352 291.069C165.436 290.155 165.604 289.25 165.854 288.367C166.478 286.66 170.526 287.161 170.526 287.161Z" fill="#E4897B"/>
<path d="M135.159 317.68C134.508 317.164 133.769 316.771 132.977 316.519C132.977 316.519 130.583 314.196 129.369 307.129L126.262 306.355C125.735 306.232 125.184 306.275 124.682 306.476C124.179 306.677 123.751 307.028 123.455 307.481C123.368 307.607 123.303 307.747 123.262 307.895C123.11 308.653 123.007 309.42 122.954 310.191C122.794 312.779 122.794 315.374 122.954 317.962H123.508L123.684 313.087C123.754 311.432 125.039 313.359 125.444 315.137C125.849 316.915 126.614 318.807 130.24 318.859C134.49 318.921 136.242 318.736 135.159 317.68Z" fill="#263238"/>
<path d="M129.219 305.36C129.219 305.36 131.12 314.451 132.977 316.563C132.977 316.563 129.536 317.619 127.38 312.876C124.599 306.716 123.262 307.939 123.262 307.939C123.558 307.069 123.935 306.23 124.388 305.431C125.4 303.9 129.219 305.36 129.219 305.36Z" fill="#E4897B"/>
<path d="M99.0441 167.596C99.0441 167.596 106.85 190.784 95.8497 217.114L85.1665 215.723L91.7753 200.763L90.3321 170.632L99.0441 167.596Z" fill="#263238"/>
<path d="M113.846 168.423C113.846 168.423 117.419 174.179 116.987 191.664L119.143 216.419L121.22 214.949L119.522 202.875C119.522 202.875 124.036 181.623 122.003 172.075L113.846 168.423Z" fill="#263238"/>
<path d="M111.285 165.968C111.285 165.968 117.348 169.154 120.446 173.51L118.184 175.595L121.22 179.995L116.987 191.62C116.987 191.62 114.691 169.84 111.285 165.968Z" fill="#263238"/>
<path opacity="0.2" d="M111.285 165.968C111.285 165.968 117.348 169.154 120.446 173.51L118.184 175.595L121.22 179.995L116.987 191.62C116.987 191.62 114.691 169.84 111.285 165.968Z" fill="#121415"/>
<path d="M100.83 166.065C100.83 166.065 103.611 181.905 101.482 192.914L94.8287 177.839L98.6391 174.179L93.5615 170.553C95.5938 168.501 98.0855 166.963 100.83 166.065Z" fill="#263238"/>
<path opacity="0.2" d="M100.83 166.065C100.83 166.065 103.611 181.905 101.482 192.914L94.8287 177.839L98.6391 174.179L93.5615 170.553C95.5938 168.501 98.0855 166.963 100.83 166.065Z" fill="#121415"/>
<path d="M108.707 193.978L117.709 194.612C118.438 194.131 119.232 193.757 120.067 193.503C121.167 193.239 127.565 192.544 128.727 192.993C129.888 193.441 130.927 197.234 130.821 198.017C130.715 198.801 121.044 199.065 120.736 199.091C120.428 199.117 119.328 198.097 119.328 198.097L108.707 198V193.978Z" fill="#E4897B"/>
<path d="M90.332 170.597C84.4712 174.117 81.2768 193.081 85.1664 196.046C89.056 199.012 115.782 199.091 115.782 199.091L116.662 193.441C116.662 193.441 93.7024 191.145 92.532 188.918C91.3616 186.692 91.7752 177.892 91.7752 177.892L90.332 170.597Z" fill="#263238"/>
<path d="M193.987 318.886H198.625L206.958 202.875H200.807L193.987 318.886Z" fill="#263238"/>
<path opacity="0.7" d="M193.987 318.886H198.625L206.554 208.639L206.958 203.069H200.807L200.473 208.639L193.987 318.886Z" fill="#121415"/>
<path opacity="0.2" d="M200.473 208.366H206.554L206.958 203.069H200.807L200.473 208.366Z" fill="black"/>
<path d="M159.957 318.886H164.595L165.352 202.875H159.201L159.957 318.886Z" fill="#263238"/>
<path opacity="0.7" d="M159.192 203.069L159.315 221.778L159.949 318.886H164.595L165.229 221.778L165.352 203.069H159.192Z" fill="#121415"/>
<path opacity="0.2" d="M159.192 203.069L159.315 221.989H165.229L165.352 203.069H159.192Z" fill="black"/>
<path d="M110.722 318.886H115.359L123.693 202.875H117.542L110.722 318.886Z" fill="#263238"/>
<path opacity="0.7" d="M110.722 318.886H115.359L123.288 208.639L123.693 203.069H117.542L117.207 208.639L110.722 318.886Z" fill="#121415"/>
<path opacity="0.2" d="M117.207 208.366H123.288L123.693 203.069H117.542L117.207 208.366Z" fill="black"/>
<path d="M247.042 318.886H251.68L244.86 202.875H238.709L247.042 318.886Z" fill="#263238"/>
<path opacity="0.7" d="M238.709 203.069L239.114 208.639L247.042 318.886H251.671L245.194 208.639L244.86 203.069H238.709Z" fill="#121415"/>
<path opacity="0.2" d="M244.86 203.069H238.709L239.114 208.366H245.194L244.86 203.069Z" fill="black"/>
<path d="M247.835 205.788L114.567 205.788C114.063 205.788 113.58 205.588 113.223 205.231C112.867 204.875 112.667 204.391 112.667 203.887V199.98L249.762 199.98V203.887C249.762 204.139 249.712 204.388 249.615 204.621C249.517 204.853 249.375 205.064 249.196 205.241C249.016 205.417 248.804 205.557 248.57 205.651C248.336 205.745 248.086 205.791 247.835 205.788Z" fill="#407BFF"/>
<path opacity="0.6" d="M247.835 205.788L114.567 205.788C114.063 205.788 113.58 205.588 113.223 205.231C112.867 204.875 112.667 204.391 112.667 203.887V199.98L249.762 199.98V203.887C249.762 204.139 249.712 204.388 249.615 204.621C249.517 204.853 249.375 205.064 249.196 205.241C249.016 205.417 248.804 205.557 248.57 205.651C248.336 205.745 248.086 205.791 247.835 205.788Z" fill="#121415"/>
<path opacity="0.2" d="M112.667 202.884L249.744 202.884V199.98L112.667 199.98V202.884Z" fill="black"/>
<path d="M109.789 200.728H252.613C253.047 200.728 253.463 200.556 253.77 200.249C254.077 199.942 254.25 199.525 254.25 199.091C254.247 198.658 254.074 198.243 253.768 197.937C253.461 197.63 253.046 197.457 252.613 197.455H109.789C109.355 197.455 108.938 197.627 108.632 197.934C108.325 198.241 108.152 198.657 108.152 199.091C108.152 199.525 108.325 199.942 108.632 200.249C108.938 200.556 109.355 200.728 109.789 200.728Z" fill="#407BFF"/>
<path opacity="0.6" d="M109.789 200.728H252.613C253.047 200.728 253.463 200.556 253.77 200.249C254.077 199.942 254.25 199.525 254.25 199.091C254.247 198.658 254.074 198.243 253.768 197.937C253.461 197.63 253.046 197.457 252.613 197.455H109.789C109.355 197.455 108.938 197.627 108.632 197.934C108.325 198.241 108.152 198.657 108.152 199.091C108.152 199.525 108.325 199.942 108.632 200.249C108.938 200.556 109.355 200.728 109.789 200.728Z" fill="#121415"/>
<path d="M194.04 197.454L193.292 194.638H162.598L148.465 196.046L147.919 197.454H194.04Z" fill="#263238"/>
<path opacity="0.4" d="M162.598 194.638V197.454H194.04L193.292 194.638H162.598Z" fill="black"/>
<path d="M168.766 181.121C168.725 181.464 168.757 181.811 168.861 182.14C168.965 182.469 169.139 182.771 169.37 183.028C169.601 183.284 169.884 183.487 170.201 183.624C170.517 183.762 170.859 183.829 171.204 183.823H218.24C218.976 183.808 219.681 183.526 220.224 183.028C220.766 182.531 221.109 181.853 221.188 181.121L223.978 151.017C224.016 150.675 223.982 150.329 223.877 150.001C223.771 149.674 223.598 149.372 223.367 149.117C223.137 148.861 222.855 148.658 222.54 148.52C222.225 148.381 221.884 148.312 221.54 148.315H174.504C173.767 148.326 173.06 148.608 172.516 149.105C171.973 149.603 171.631 150.283 171.556 151.017L168.766 181.121Z" fill="#263238"/>
<path opacity="0.4" d="M171.362 183.823H218.24C218.976 183.808 219.681 183.526 220.223 183.028C220.766 182.531 221.109 181.853 221.188 181.122L223.978 151.017C224.011 150.722 223.99 150.424 223.916 150.137H177.047C176.311 150.152 175.606 150.434 175.064 150.932C174.521 151.429 174.178 152.107 174.099 152.838L171.31 182.943C171.278 183.237 171.296 183.535 171.362 183.823Z" fill="black"/>
<path d="M203.676 165.361H193.943L196.539 193.213L181.157 195.518V197.454H213.55V195.518L206.914 193.213L203.676 165.361Z" fill="#263238"/>
<path opacity="0.1" d="M193.943 165.361L201.15 197.014L206.914 196.847L203.676 165.361H193.943Z" fill="#121415"/>
<path d="M199.135 146.265H197.261V149.529H199.135V146.265Z" fill="#263238"/>
<path d="M197.261 146.142H194.999C194.769 145.681 194.657 145.17 194.674 144.655C194.649 144.142 194.761 143.631 194.999 143.176H197.261V146.142Z" fill="#263238"/>
<path d="M201.124 144.531C201.124 145.071 200.964 145.598 200.664 146.047C200.364 146.495 199.938 146.845 199.44 147.052C198.941 147.258 198.393 147.312 197.864 147.207C197.335 147.102 196.849 146.842 196.467 146.46C196.085 146.079 195.826 145.593 195.72 145.063C195.615 144.534 195.669 143.986 195.876 143.487C196.082 142.989 196.432 142.563 196.88 142.263C197.329 141.963 197.856 141.803 198.396 141.803C198.755 141.802 199.11 141.872 199.441 142.009C199.773 142.145 200.074 142.346 200.328 142.6C200.581 142.853 200.782 143.154 200.919 143.486C201.055 143.817 201.125 144.173 201.124 144.531Z" fill="#263238"/>
<path opacity="0.1" d="M201.124 144.531C201.124 145.071 200.964 145.598 200.664 146.047C200.364 146.495 199.938 146.845 199.44 147.052C198.941 147.258 198.393 147.312 197.864 147.207C197.335 147.102 196.849 146.842 196.467 146.46C196.085 146.079 195.826 145.593 195.72 145.063C195.615 144.534 195.669 143.986 195.876 143.487C196.082 142.989 196.432 142.563 196.88 142.263C197.329 141.963 197.856 141.803 198.396 141.803C198.755 141.802 199.11 141.872 199.441 142.009C199.773 142.145 200.074 142.346 200.328 142.6C200.581 142.853 200.782 143.154 200.919 143.486C201.055 143.817 201.125 144.173 201.124 144.531Z" fill="#121415"/>
<path d="M231.642 176.431V197.454H221.162C221.234 190.15 222.26 182.888 224.215 175.85C224.342 175.402 224.611 175.007 224.983 174.725C225.355 174.444 225.808 174.292 226.274 174.292H229.504C229.785 174.292 230.063 174.348 230.322 174.455C230.582 174.563 230.818 174.72 231.016 174.919C231.215 175.117 231.372 175.353 231.48 175.613C231.587 175.872 231.642 176.15 231.642 176.431Z" fill="#263238"/>
<path opacity="0.4" d="M231.643 176.431V197.454H226.363V177.214C226.363 176.442 226.669 175.701 227.216 175.155C227.762 174.608 228.503 174.302 229.275 174.302H229.469C229.752 174.297 230.033 174.348 230.296 174.453C230.559 174.558 230.799 174.714 231.001 174.912C231.203 175.11 231.364 175.347 231.474 175.607C231.584 175.868 231.641 176.148 231.643 176.431Z" fill="black"/>
<path d="M164.762 176.431V197.454H154.281C154.354 190.15 155.38 182.888 157.335 175.85C157.462 175.402 157.731 175.007 158.103 174.725C158.475 174.444 158.928 174.292 159.394 174.292H162.624C162.905 174.292 163.183 174.348 163.442 174.455C163.702 174.563 163.937 174.72 164.136 174.919C164.335 175.117 164.492 175.353 164.6 175.613C164.707 175.872 164.762 176.15 164.762 176.431Z" fill="#263238"/>
<path opacity="0.4" d="M164.762 176.431V197.454H159.482V177.214C159.482 176.442 159.789 175.701 160.336 175.155C160.882 174.608 161.623 174.302 162.395 174.302H162.589C162.872 174.297 163.153 174.348 163.416 174.453C163.679 174.558 163.918 174.714 164.121 174.912C164.323 175.11 164.484 175.347 164.594 175.607C164.704 175.868 164.761 176.148 164.762 176.431Z" fill="black"/>
</svg>
