<svg width="250" height="186" viewBox="0 0 250 186" fill="none" xmlns="http://www.w3.org/2000/svg">
<path d="M224.951 172.494H208.391V172.619H224.951V172.494Z" fill="#EBEBEB"/>
<path d="M165.611 173.854H161.266V173.979H165.611V173.854Z" fill="#EBEBEB"/>
<path d="M207.891 167.854H198.296V167.979H207.891V167.854Z" fill="#EBEBEB"/>
<path d="M47.8255 168.693H26.2305V168.818H47.8255V168.693Z" fill="#EBEBEB"/>
<path d="M55.4443 168.693H52.2793V168.818H55.4443V168.693Z" fill="#EBEBEB"/>
<path d="M112.574 170.804H65.7344V170.929H112.574V170.804Z" fill="#EBEBEB"/>
<path d="M119.199 142.149H22.6489C21.8918 142.149 21.1656 141.848 20.6302 141.312C20.0947 140.777 19.7939 140.051 19.7939 139.294V3.57854C19.8005 2.82568 20.1042 2.10591 20.6389 1.57589C21.1736 1.04587 21.8961 0.748506 22.6489 0.748535H119.199C119.574 0.748535 119.945 0.822381 120.291 0.965858C120.638 1.10934 120.953 1.31963 121.218 1.58475C121.483 1.84986 121.693 2.16459 121.837 2.51097C121.98 2.85736 122.054 3.22861 122.054 3.60353V139.294C122.054 139.668 121.98 140.04 121.837 140.386C121.693 140.732 121.483 141.047 121.218 141.312C120.953 141.577 120.638 141.788 120.291 141.931C119.945 142.075 119.574 142.149 119.199 142.149ZM22.6489 0.848536C21.9253 0.849857 21.2317 1.13791 20.72 1.64959C20.2083 2.16128 19.9203 2.8549 19.9189 3.57854V139.294C19.9203 140.017 20.2083 140.711 20.72 141.222C21.2317 141.734 21.9253 142.022 22.6489 142.024H119.199C119.923 142.022 120.616 141.734 121.128 141.222C121.64 140.711 121.928 140.017 121.929 139.294V3.57854C121.928 2.8549 121.64 2.16128 121.128 1.64959C120.616 1.13791 119.923 0.849857 119.199 0.848536H22.6489Z" fill="#EBEBEB"/>
<path d="M227.35 142.149H130.8C130.043 142.149 129.317 141.848 128.782 141.312C128.246 140.777 127.945 140.051 127.945 139.294V3.57854C127.952 2.82568 128.256 2.10591 128.79 1.57589C129.325 1.04587 130.047 0.748506 130.8 0.748535H227.35C228.107 0.748535 228.834 1.04933 229.369 1.58475C229.905 2.12016 230.205 2.84634 230.205 3.60353V139.294C230.205 140.051 229.905 140.777 229.369 141.312C228.834 141.848 228.107 142.149 227.35 142.149ZM130.8 0.848536C130.077 0.849857 129.383 1.13791 128.871 1.64959C128.36 2.16128 128.072 2.8549 128.07 3.57854V139.294C128.072 140.017 128.36 140.711 128.871 141.222C129.383 141.734 130.077 142.022 130.8 142.024H227.35C228.074 142.022 228.768 141.734 229.279 141.222C229.791 140.711 230.079 140.017 230.08 139.294V3.57854C230.079 2.8549 229.791 2.16128 229.279 1.64959C228.768 1.13791 228.074 0.849857 227.35 0.848536H130.8Z" fill="#EBEBEB"/>
<path d="M250 164.449H0V164.574H250V164.449Z" fill="#EBEBEB"/>
<path d="M202.205 18.9136H188.76C184.496 18.9136 181.04 22.3699 181.04 26.6336V40.0786C181.04 44.3422 184.496 47.7986 188.76 47.7986H202.205C206.469 47.7986 209.925 44.3422 209.925 40.0786V26.6336C209.925 22.3699 206.469 18.9136 202.205 18.9136Z" fill="#F0F0F0"/>
<path d="M199.075 29.2734C199.075 31.7334 197.825 33.7234 195.365 33.7234C192.905 33.7234 191.655 31.7234 191.655 29.2734C191.655 26.8234 192.905 24.8184 195.365 24.8184C197.825 24.8184 199.075 26.8134 199.075 29.2734Z" fill="#FAFAFA"/>
<path d="M195.365 41.8886H202.23V37.8086C202.23 35.5536 199.155 33.7236 195.365 33.7236C191.575 33.7236 188.5 35.5536 188.5 37.8086V41.8886H195.365Z" fill="#FAFAFA"/>
<path d="M75.7458 28.5986H66.3558C63.379 28.5986 60.9658 31.0118 60.9658 33.9886V43.3786C60.9658 46.3554 63.379 48.7686 66.3558 48.7686H75.7458C78.7226 48.7686 81.1358 46.3554 81.1358 43.3786V33.9886C81.1358 31.0118 78.7226 28.5986 75.7458 28.5986Z" fill="#E6E6E6"/>
<path d="M70.6401 39.7735C70.943 39.3527 71.2937 38.9685 71.6851 38.6285C71.9522 38.3923 72.1997 38.1348 72.4251 37.8585C72.5793 37.6541 72.6619 37.4045 72.6601 37.1485C72.6656 36.9736 72.6273 36.8002 72.5487 36.6439C72.4701 36.4876 72.3537 36.3534 72.2101 36.2535C71.8562 36.0214 71.4378 35.9077 71.0151 35.9285C70.572 35.918 70.1335 36.0195 69.7401 36.2235C69.3672 36.4244 69.0456 36.7084 68.8001 37.0535L66.9551 35.9735C67.3844 35.3253 67.9826 34.8067 68.6851 34.4735C69.4955 34.0976 70.382 33.9144 71.2751 33.9385C72.2677 33.8916 73.2506 34.1518 74.0901 34.6835C74.4266 34.9103 74.7003 35.2186 74.8857 35.5796C75.071 35.9407 75.162 36.3428 75.1501 36.7485C75.1583 37.1258 75.0868 37.5007 74.9401 37.8485C74.8187 38.1409 74.6497 38.4112 74.4401 38.6485C74.2401 38.8685 73.9851 39.1185 73.6701 39.4035C73.3686 39.6598 73.0923 39.9445 72.8451 40.2535C72.6675 40.493 72.5759 40.7854 72.5851 41.0835H70.2801C70.2616 40.6201 70.3874 40.1624 70.6401 39.7735ZM70.3951 44.5085C70.2577 44.3815 70.1492 44.2265 70.0767 44.054C70.0043 43.8815 69.9696 43.6955 69.9751 43.5085C69.9711 43.3273 70.0061 43.1474 70.0777 42.9809C70.1493 42.8144 70.2558 42.6652 70.3901 42.5435C70.683 42.2918 71.0564 42.1534 71.4426 42.1534C71.8288 42.1534 72.2022 42.2918 72.4951 42.5435C72.6284 42.6657 72.734 42.815 72.8048 42.9815C72.8755 43.148 72.9097 43.3277 72.9051 43.5085C72.9105 43.6955 72.8759 43.8815 72.8034 44.054C72.731 44.2265 72.6224 44.3815 72.4851 44.5085C72.1995 44.7692 71.8268 44.9137 71.4401 44.9137C71.0534 44.9137 70.6807 44.7692 70.3951 44.5085Z" fill="#FAFAFA"/>
<path d="M200.819 97.6436H208.084C209.192 97.6436 210.254 98.0834 211.037 98.8664C211.82 99.6494 212.259 100.711 212.259 101.819V109.084C212.259 110.19 211.82 111.25 211.038 112.032C210.256 112.814 209.195 113.254 208.089 113.254H200.819C199.713 113.254 198.653 112.814 197.871 112.032C197.089 111.25 196.649 110.19 196.649 109.084V101.819C196.649 100.713 197.089 99.652 197.871 98.8699C198.653 98.0879 199.713 97.6486 200.819 97.6486V97.6436Z" fill="#EBEBEB"/>
<path d="M204.13 106.294C204.365 105.968 204.637 105.671 204.94 105.409C205.148 105.225 205.341 105.024 205.515 104.809C205.634 104.652 205.698 104.46 205.695 104.264C205.701 104.128 205.671 103.994 205.61 103.873C205.549 103.752 205.458 103.649 205.345 103.574C205.072 103.391 204.748 103.302 204.42 103.319C204.085 103.309 203.753 103.383 203.454 103.535C203.155 103.687 202.9 103.912 202.71 104.189L201.28 103.354C201.611 102.848 202.074 102.443 202.62 102.184C203.246 101.894 203.931 101.752 204.62 101.769C205.389 101.731 206.151 101.934 206.8 102.349C207.062 102.525 207.274 102.764 207.418 103.045C207.561 103.326 207.631 103.638 207.62 103.954C207.626 104.245 207.572 104.534 207.46 104.804C207.366 105.031 207.234 105.24 207.07 105.424C206.883 105.629 206.684 105.825 206.475 106.009C206.244 106.208 206.029 106.427 205.835 106.664C205.701 106.851 205.631 107.078 205.635 107.309H203.855C203.84 106.95 203.936 106.595 204.13 106.294ZM203.94 109.959C203.836 109.862 203.753 109.744 203.698 109.613C203.643 109.482 203.617 109.341 203.62 109.199C203.617 109.058 203.644 108.919 203.698 108.79C203.752 108.661 203.833 108.544 203.935 108.449C204.162 108.254 204.451 108.148 204.75 108.148C205.049 108.148 205.338 108.254 205.565 108.449C205.668 108.544 205.75 108.66 205.805 108.789C205.86 108.919 205.888 109.058 205.885 109.199C205.888 109.341 205.861 109.483 205.805 109.614C205.749 109.745 205.665 109.862 205.56 109.959C205.453 110.063 205.327 110.144 205.187 110.199C205.048 110.253 204.9 110.278 204.75 110.274C204.601 110.277 204.453 110.251 204.314 110.197C204.175 110.143 204.048 110.062 203.94 109.959Z" fill="#FAFAFA"/>
<path d="M58.5544 58.8486H49.1644C46.1876 58.8486 43.7744 61.2618 43.7744 64.2386V73.6286C43.7744 76.6054 46.1876 79.0186 49.1644 79.0186H58.5544C61.5312 79.0186 63.9444 76.6054 63.9444 73.6286V64.2386C63.9444 61.2618 61.5312 58.8486 58.5544 58.8486Z" fill="#EBEBEB"/>
<path d="M53.8598 63.2485C53.2606 63.2485 52.6672 63.3666 52.1136 63.5961C51.56 63.8256 51.0571 64.1619 50.6336 64.5859C50.2101 65.0099 49.8743 65.5131 49.6455 66.067C49.4166 66.6208 49.2992 67.2143 49.2998 67.8135C49.2998 70.3135 51.3398 76.3735 53.8598 76.3735C56.3798 76.3735 58.4198 70.3285 58.4198 67.8135C58.4205 67.2143 58.303 66.6208 58.0741 66.067C57.8453 65.5131 57.5095 65.0099 57.086 64.5859C56.6625 64.1619 56.1596 63.8256 55.606 63.5961C55.0524 63.3666 54.4591 63.2485 53.8598 63.2485ZM53.8598 69.1885C53.5879 69.1885 53.322 69.1079 53.0959 68.9568C52.8698 68.8057 52.6935 68.591 52.5895 68.3397C52.4854 68.0885 52.4582 67.812 52.5112 67.5453C52.5643 67.2786 52.6952 67.0336 52.8875 66.8413C53.0798 66.649 53.3248 66.518 53.5916 66.465C53.8583 66.4119 54.1347 66.4391 54.386 66.5432C54.6372 66.6473 54.852 66.8235 55.0031 67.0496C55.1542 67.2757 55.2348 67.5416 55.2348 67.8135C55.2296 68.1747 55.0824 68.5194 54.8251 68.7729C54.5678 69.0265 54.221 69.1686 53.8598 69.1685V69.1885Z" fill="#FAFAFA"/>
<path d="M55.8745 96.4685C56.0212 95.5426 56.0212 94.5994 55.8745 93.6735L54.4695 93.4885C54.3562 92.9723 54.1886 92.4695 53.9695 91.9885L54.9995 91.0135C54.5713 90.1797 54.0163 89.4173 53.3545 88.7535L52.1045 89.4335C51.7181 89.0833 51.2958 88.7749 50.8445 88.5135L51.1045 87.1185C50.2741 86.6913 49.3814 86.3976 48.4595 86.2485L47.8545 87.5235C47.5995 87.4985 47.3545 87.4835 47.0745 87.4835C46.7945 87.4835 46.5445 87.4835 46.2895 87.5235L45.6845 86.2485C44.7577 86.3945 43.8599 86.6865 43.0245 87.1135L43.2845 88.5085C42.8333 88.7699 42.4109 89.0783 42.0245 89.4285L40.7745 88.7485C40.1127 89.4123 39.5578 90.1747 39.1295 91.0085L40.1595 91.9835C39.9405 92.4645 39.7729 92.9673 39.6595 93.4835L38.2595 93.6685C38.1062 94.5939 38.1062 95.5382 38.2595 96.4635L39.6595 96.6485C39.7729 97.1648 39.9405 97.6676 40.1595 98.1485L39.1295 99.1235C39.5568 99.9579 40.1118 100.72 40.7745 101.384L42.0245 100.704C42.4109 101.054 42.8333 101.362 43.2845 101.624L43.0245 103.019C43.8599 103.446 44.7577 103.738 45.6845 103.884L46.2895 102.609C46.5445 102.634 46.7895 102.649 47.0745 102.649C47.3595 102.649 47.5745 102.649 47.8545 102.609L48.4595 103.884C49.3863 103.738 50.2841 103.446 51.1195 103.019L50.8595 101.624C51.3108 101.362 51.7331 101.054 52.1195 100.704L53.3695 101.384C54.0313 100.72 54.5863 99.9573 55.0145 99.1235L53.9995 98.1385C54.218 97.6573 54.3855 97.1546 54.4995 96.6385L55.8745 96.4685ZM47.0745 98.1835C46.458 98.1845 45.8551 98.0025 45.342 97.6606C44.829 97.3187 44.429 96.8323 44.1926 96.2629C43.9562 95.6935 43.8941 95.0668 44.0141 94.4621C44.1342 93.8573 44.4309 93.3018 44.8669 92.8659C45.3028 92.43 45.8583 92.1332 46.463 92.0132C47.0678 91.8931 47.6945 91.9552 48.2639 92.1916C48.8333 92.428 49.3197 92.828 49.6616 93.3411C50.0035 93.8541 50.1855 94.457 50.1845 95.0735C50.1832 95.8979 49.8551 96.6882 49.2722 97.2712C48.6892 97.8541 47.8989 98.1822 47.0745 98.1835Z" fill="#EBEBEB"/>
<path d="M60.3852 106.529C60.4211 106.297 60.4395 106.063 60.4402 105.829C60.4398 105.594 60.4215 105.36 60.3852 105.129L59.6802 105.039C59.6267 104.783 59.5463 104.533 59.4402 104.294L59.9402 103.794C59.7262 103.375 59.4478 102.992 59.1152 102.659L58.4902 102.999C58.296 102.825 58.085 102.671 57.8602 102.539L57.9902 101.844C57.5728 101.629 57.1238 101.482 56.6602 101.409L56.3602 102.049C56.2302 102.049 56.1002 102.049 55.9702 102.049C55.8402 102.049 55.7052 102.049 55.5752 102.049L55.2752 101.409C54.8116 101.482 54.3626 101.629 53.9452 101.844L54.0752 102.539C53.8504 102.671 53.6394 102.825 53.4452 102.999L52.8202 102.659C52.4875 102.992 52.2091 103.375 51.9952 103.794L52.4952 104.294C52.3891 104.533 52.3087 104.783 52.2552 105.039L51.5552 105.129C51.5164 105.36 51.498 105.594 51.5002 105.829C51.4984 106.063 51.5168 106.297 51.5552 106.529L52.2552 106.619C52.3087 106.873 52.3891 107.121 52.4952 107.359L51.9952 107.859C52.2096 108.276 52.4879 108.657 52.8202 108.989L53.4452 108.649C53.6368 108.826 53.8482 108.98 54.0752 109.109L53.9452 109.804C54.3626 110.018 54.8116 110.165 55.2752 110.239L55.5752 109.599C55.8362 109.625 56.0992 109.625 56.3602 109.599L56.6602 110.239C57.1238 110.165 57.5728 110.018 57.9902 109.804L57.8602 109.109C58.0872 108.98 58.2986 108.826 58.4902 108.649L59.1152 108.989C59.4474 108.657 59.7258 108.276 59.9402 107.859L59.4402 107.359C59.5462 107.121 59.6267 106.873 59.6802 106.619L60.3852 106.529ZM55.9852 107.384C55.6776 107.384 55.377 107.292 55.1213 107.122C54.8656 106.951 54.6662 106.708 54.5485 106.424C54.4309 106.14 54.4001 105.827 54.4601 105.525C54.5201 105.224 54.6682 104.947 54.8856 104.729C55.1031 104.512 55.3802 104.364 55.6818 104.304C55.9835 104.244 56.2961 104.274 56.5803 104.392C56.8644 104.51 57.1072 104.709 57.2781 104.965C57.449 105.221 57.5402 105.521 57.5402 105.829C57.5389 106.238 57.3767 106.631 57.0886 106.922C56.8005 107.212 56.4096 107.378 56.0002 107.384H55.9852Z" fill="#E0E0E0"/>
<path d="M214.87 96.4383C215.058 96.2992 215.237 96.1472 215.405 95.9833C215.57 95.817 215.722 95.6382 215.86 95.4483L215.43 94.8883C215.572 94.6704 215.689 94.4373 215.78 94.1933H216.49C216.635 93.7478 216.709 93.282 216.71 92.8133L216.025 92.6133C216.014 92.3529 215.974 92.0945 215.905 91.8433L216.49 91.4433C216.348 90.9961 216.134 90.5754 215.855 90.1983L215.19 90.4333C215.108 90.332 215.021 90.2352 214.93 90.1433C214.835 90.0483 214.74 89.9633 214.64 89.8783L214.875 89.2133C214.495 88.9392 214.075 88.725 213.63 88.5783L213.23 89.1633C212.976 89.0986 212.716 89.0584 212.455 89.0433L212.255 88.3633C211.786 88.3619 211.32 88.4362 210.875 88.5833V89.2883C210.631 89.3824 210.398 89.5014 210.18 89.6433L209.615 89.2133C209.232 89.4931 208.894 89.8304 208.615 90.2133L209.045 90.7733C208.904 90.9944 208.785 91.2289 208.69 91.4733H207.985C207.84 91.919 207.766 92.3847 207.765 92.8533L208.445 93.0533C208.459 93.3133 208.5 93.5712 208.565 93.8233L207.98 94.2283C208.126 94.6733 208.341 95.0932 208.615 95.4733L209.28 95.2333C209.365 95.3333 209.45 95.4333 209.545 95.5283C209.64 95.6233 209.735 95.7083 209.835 95.7883L209.6 96.4533C209.977 96.7322 210.397 96.9468 210.845 97.0883L211.245 96.5033C211.496 96.5729 211.754 96.6131 212.015 96.6233L212.215 97.3083C212.685 97.3078 213.152 97.2336 213.6 97.0883V96.3783C213.843 96.2859 214.076 96.1686 214.295 96.0283L214.87 96.4383ZM211.155 93.9383C210.937 93.7208 210.789 93.4437 210.729 93.1421C210.67 92.8405 210.7 92.5279 210.818 92.2438C210.936 91.9598 211.135 91.717 211.391 91.5462C211.647 91.3754 211.947 91.2842 212.255 91.2842C212.562 91.2842 212.863 91.3754 213.118 91.5462C213.374 91.717 213.573 91.9598 213.691 92.2438C213.809 92.5279 213.84 92.8405 213.78 93.1421C213.72 93.4437 213.572 93.7208 213.355 93.9383C213.21 94.0831 213.039 94.1979 212.85 94.2761C212.661 94.3542 212.458 94.3943 212.254 94.3938C212.049 94.3933 211.847 94.3524 211.658 94.2734C211.47 94.1943 211.298 94.0788 211.155 93.9333V93.9383Z" fill="#F0F0F0"/>
<path d="M125 185.104C178.541 185.104 221.945 182.57 221.945 179.444C221.945 176.318 178.541 173.784 125 173.784C71.4584 173.784 28.0547 176.318 28.0547 179.444C28.0547 182.57 71.4584 185.104 125 185.104Z" fill="#F5F5F5"/>
<path d="M142.779 30.1288V22.3388L146.609 21.7988V29.5888L142.779 30.1288Z" fill="#263238"/>
<path d="M130.045 34.4684L127.175 29.8984L129.62 28.1484L132.485 32.7134L130.045 34.4684Z" fill="#263238"/>
<path d="M156.899 29.2787L159.769 23.9087L162.209 24.9737L159.344 30.3487L156.899 29.2787Z" fill="#263238"/>
<g opacity="0.5">
<path d="M142.78 30.1288V22.3388L146.61 21.7988V29.5888L142.78 30.1288Z" fill="white"/>
<path d="M130.045 34.4689L127.175 29.8989L129.62 28.1489L132.485 32.7139L130.045 34.4689Z" fill="white"/>
<path d="M156.9 29.2787L159.77 23.9087L162.21 24.9737L159.345 30.3487L156.9 29.2787Z" fill="white"/>
</g>
<path d="M147.154 23.0536L142.234 23.7486C142.056 23.7816 141.872 23.7741 141.697 23.7267C141.521 23.6793 141.359 23.5932 141.221 23.4748C141.084 23.3563 140.974 23.2084 140.901 23.0421C140.828 22.8758 140.793 22.6952 140.799 22.5136C140.811 22.1166 140.96 21.736 141.222 21.4375C141.484 21.139 141.842 20.9414 142.234 20.8786L147.154 20.1886C147.333 20.1557 147.516 20.1631 147.691 20.2103C147.866 20.2574 148.028 20.343 148.166 20.461C148.303 20.5789 148.413 20.7261 148.486 20.8918C148.559 21.0575 148.595 21.2375 148.589 21.4186C148.577 21.8153 148.427 22.1954 148.166 22.4937C147.904 22.7921 147.546 22.99 147.154 23.0536Z" fill="#263238"/>
<path d="M130.414 28.0237L126.769 30.6437C126.694 30.7071 126.606 30.7542 126.511 30.7821C126.416 30.81 126.317 30.8181 126.219 30.8059C126.121 30.7937 126.026 30.7614 125.941 30.7112C125.856 30.6609 125.782 30.5937 125.724 30.5137C125.628 30.3303 125.604 30.1178 125.655 29.9173C125.707 29.7168 125.832 29.5427 126.004 29.4287L129.654 26.8137C129.729 26.7497 129.817 26.7021 129.911 26.6738C130.006 26.6456 130.105 26.6373 130.203 26.6495C130.301 26.6618 130.395 26.6942 130.48 26.7449C130.564 26.7955 130.637 26.8632 130.694 26.9437C130.79 27.1263 130.815 27.3381 130.763 27.5378C130.711 27.7374 130.587 27.9107 130.414 28.0237Z" fill="#263238"/>
<path d="M162.62 25.6037L158.97 24.0137C158.883 23.9695 158.806 23.9077 158.744 23.8323C158.682 23.7568 158.636 23.6693 158.61 23.5752C158.584 23.4812 158.577 23.3828 158.591 23.2861C158.605 23.1895 158.638 23.0967 158.69 23.0137C158.781 22.8266 158.938 22.6798 159.131 22.6013C159.324 22.5229 159.539 22.5184 159.735 22.5887L163.38 24.1837C163.468 24.2268 163.546 24.288 163.609 24.3633C163.672 24.4387 163.718 24.5265 163.744 24.6209C163.771 24.7154 163.777 24.8144 163.762 24.9114C163.748 25.0084 163.713 25.1012 163.66 25.1837C163.569 25.3696 163.412 25.5152 163.22 25.5927C163.028 25.6703 162.814 25.6742 162.62 25.6037Z" fill="#263238"/>
<path opacity="0.7" d="M147.154 23.0536L142.234 23.7486C142.056 23.7816 141.872 23.7741 141.697 23.7267C141.521 23.6793 141.359 23.5932 141.221 23.4748C141.084 23.3563 140.974 23.2084 140.901 23.0421C140.828 22.8758 140.793 22.6952 140.799 22.5136C140.811 22.1166 140.96 21.736 141.222 21.4375C141.484 21.139 141.842 20.9414 142.234 20.8786L147.154 20.1886C147.333 20.1557 147.516 20.1631 147.691 20.2103C147.866 20.2574 148.028 20.343 148.166 20.461C148.303 20.5789 148.413 20.7261 148.486 20.8918C148.559 21.0575 148.595 21.2375 148.589 21.4186C148.577 21.8153 148.427 22.1954 148.166 22.4937C147.904 22.7921 147.546 22.99 147.154 23.0536Z" fill="white"/>
<path opacity="0.7" d="M130.414 28.0237L126.769 30.6437C126.694 30.7071 126.606 30.7542 126.511 30.7821C126.416 30.81 126.317 30.8181 126.219 30.8059C126.121 30.7937 126.026 30.7614 125.941 30.7112C125.856 30.6609 125.782 30.5937 125.724 30.5137C125.628 30.3303 125.604 30.1178 125.655 29.9173C125.707 29.7168 125.832 29.5427 126.004 29.4287L129.654 26.8137C129.729 26.7497 129.817 26.7021 129.911 26.6738C130.006 26.6456 130.105 26.6373 130.203 26.6495C130.301 26.6618 130.395 26.6942 130.48 26.7449C130.564 26.7955 130.637 26.8632 130.694 26.9437C130.79 27.1263 130.815 27.3381 130.763 27.5378C130.711 27.7374 130.587 27.9107 130.414 28.0237Z" fill="white"/>
<path opacity="0.7" d="M162.62 25.6037L158.97 24.0137C158.883 23.9695 158.806 23.9077 158.744 23.8323C158.682 23.7568 158.636 23.6693 158.61 23.5752C158.584 23.4812 158.577 23.3828 158.591 23.2861C158.605 23.1895 158.638 23.0967 158.69 23.0137C158.781 22.8266 158.938 22.6798 159.131 22.6013C159.324 22.5229 159.539 22.5184 159.735 22.5887L163.38 24.1837C163.468 24.2268 163.546 24.288 163.609 24.3633C163.672 24.4387 163.718 24.5265 163.744 24.6209C163.771 24.7154 163.777 24.8144 163.762 24.9114C163.748 25.0084 163.713 25.1012 163.66 25.1837C163.569 25.3696 163.412 25.5152 163.22 25.5927C163.028 25.6703 162.814 25.6742 162.62 25.6037Z" fill="white"/>
<path d="M144.695 78.8986C131.38 80.7686 120.585 71.4936 120.585 58.1786C120.585 44.8636 131.38 32.5486 144.695 30.6786C158.01 28.8086 168.805 38.0836 168.805 51.3986L172.095 50.9386C172.095 35.8036 159.825 25.2636 144.695 27.3886C129.565 29.5136 117.295 43.5086 117.295 58.6386C117.295 73.7686 129.56 84.3136 144.695 82.1886V78.8986Z" fill="#407BFF"/>
<path d="M135.115 71.8671L133.315 75.2368L134.021 75.6136L135.82 72.2439L135.115 71.8671Z" fill="#263238"/>
<path d="M155.358 33.9594L153.559 37.3291L154.264 37.7059L156.064 34.3362L155.358 33.9594Z" fill="#263238"/>
<path d="M125.759 46.0745L125.438 46.8076L128.554 48.1683L128.875 47.4351L125.759 46.0745Z" fill="#263238"/>
<path d="M134.322 37.5184L133.642 37.9424L135.436 40.8196L136.116 40.3956L134.322 37.5184Z" fill="#263238"/>
<path d="M128.489 65.9411L125.369 68.1797L125.836 68.8297L128.955 66.5911L128.489 65.9411Z" fill="#263238"/>
<path d="M163.552 40.7614L160.432 43L160.898 43.65L164.018 41.4114L163.552 40.7614Z" fill="#263238"/>
<path d="M127.34 56.4199L122.542 57.0942L122.765 58.6787L127.563 58.0044L127.34 56.4199Z" fill="#263238"/>
<path d="M145.495 32.7485H143.895V37.5485H145.495V32.7485Z" fill="#263238"/>
<path d="M145.495 72.0283H143.895V76.8283H145.495V72.0283Z" fill="#263238"/>
<path d="M138.5 49.5889C138.314 49.7763 138.209 50.0297 138.209 50.2939C138.209 50.5581 138.314 50.8116 138.5 50.9989L143.87 55.6089L145.275 54.0039L139.91 49.3889C139.804 49.3086 139.684 49.25 139.556 49.2165C139.428 49.183 139.294 49.1754 139.163 49.194C139.032 49.2126 138.906 49.2571 138.792 49.3249C138.678 49.3927 138.579 49.4824 138.5 49.5889Z" fill="#407BFF"/>
<path opacity="0.4" d="M138.5 49.5889C138.314 49.7763 138.209 50.0297 138.209 50.2939C138.209 50.5581 138.314 50.8116 138.5 50.9989L143.87 55.6089L145.275 54.0039L139.91 49.3889C139.804 49.3086 139.684 49.25 139.556 49.2165C139.428 49.183 139.294 49.1754 139.163 49.194C139.032 49.2126 138.906 49.2571 138.792 49.3249C138.678 49.3927 138.579 49.4824 138.5 49.5889Z" fill="white"/>
<path d="M174.44 50.2085L170.435 55.5735L166.435 51.3335L174.44 50.2085Z" fill="#407BFF"/>
<path d="M153.829 44.2185C153.724 44.1382 153.604 44.0796 153.476 44.0461C153.347 44.0126 153.214 44.005 153.083 44.0236C152.951 44.0422 152.825 44.0867 152.711 44.1545C152.598 44.2223 152.498 44.312 152.419 44.4185L145.149 52.7085C144.76 52.6594 144.365 52.7082 143.999 52.8506C143.633 52.9929 143.308 53.2242 143.054 53.5235C142.234 54.4635 142.234 55.7985 143.054 56.5235C143.874 57.2485 145.214 57.0235 146.054 56.1035C146.313 55.815 146.495 55.4656 146.583 55.0879C146.67 54.7102 146.66 54.3165 146.554 53.9435L153.824 45.6485C153.92 45.5557 153.996 45.4448 154.048 45.3222C154.1 45.1995 154.127 45.0678 154.128 44.9346C154.128 44.8014 154.102 44.6694 154.051 44.5464C154 44.4235 153.924 44.312 153.829 44.2185Z" fill="#407BFF"/>
<path d="M155.144 74.3787L161.394 73.4987L160.839 76.3837L149.574 77.9687L150.024 75.6737L156.804 69.4087C157.442 68.8322 158.015 68.1884 158.514 67.4887C158.825 67.0487 158.999 66.527 159.014 65.9887C159.027 65.7707 158.982 65.5531 158.884 65.3581C158.786 65.1631 158.637 64.9977 158.454 64.8787C157.956 64.6152 157.379 64.5389 156.829 64.6637C156.214 64.7511 155.626 64.9712 155.104 65.3087C154.542 65.6637 154.052 66.1217 153.659 66.6587L151.344 65.3037C151.992 64.3462 152.846 63.5464 153.844 62.9637C154.915 62.3225 156.107 61.9073 157.344 61.7437C158.253 61.5914 159.183 61.634 160.074 61.8687C160.79 62.0544 161.429 62.4622 161.899 63.0337C162.338 63.5968 162.568 64.2949 162.549 65.0087C162.54 65.9609 162.276 66.8933 161.784 67.7087C161.05 68.8476 160.156 69.8748 159.129 70.7587L155.144 74.3787Z" fill="#263238"/>
<path d="M176.29 71.0886L173.85 71.4336L173.23 74.6436L169.875 75.1136L170.5 71.8986L162.5 73.0286L162.945 70.6486L171.7 59.9786L175.465 59.4536L167.3 69.5486L171.215 68.9986L171.765 66.1336L174.975 65.6836L174.42 68.5436L176.865 68.2036L176.29 71.0886Z" fill="#263238"/>
<path d="M186.109 54.9385L189.214 54.4985L178.289 76.0585L175.209 76.4885L186.109 54.9385Z" fill="#263238"/>
<path d="M200.285 55.9634L199.84 58.2584L191.89 72.0184L188.065 72.5584L195.695 59.4134L190.87 60.0934L190.37 62.5934L187.31 63.0234L188.35 57.6484L200.285 55.9634Z" fill="#263238"/>
<path d="M151.283 92.7486C150.809 92.696 150.35 92.5499 149.933 92.3186L150.663 90.8186C151.033 91.0348 151.44 91.1806 151.863 91.2486C152.315 91.3213 152.776 91.3213 153.228 91.2486C153.646 91.2066 154.049 91.0661 154.403 90.8386C154.529 90.7634 154.635 90.6576 154.71 90.531C154.785 90.4043 154.827 90.2608 154.833 90.1136C154.838 90.004 154.807 89.8956 154.745 89.8052C154.682 89.7149 154.592 89.6475 154.488 89.6136C154.132 89.4943 153.765 89.4139 153.393 89.3736C152.978 89.3127 152.567 89.2275 152.163 89.1186C151.847 89.0267 151.561 88.8544 151.333 88.6186C151.085 88.331 150.961 87.9572 150.988 87.5786C150.985 87.0644 151.137 86.5612 151.423 86.1336C151.74 85.6711 152.168 85.2948 152.668 85.0386C153.249 84.7339 153.881 84.5357 154.533 84.4536C155.029 84.3789 155.533 84.3672 156.033 84.4186C156.449 84.4529 156.856 84.563 157.233 84.7436L156.558 86.2136C156.255 86.0495 155.924 85.9427 155.583 85.8986C155.206 85.8488 154.824 85.8488 154.448 85.8986C154.016 85.9436 153.602 86.0948 153.243 86.3386C153.112 86.4159 153.003 86.5246 152.926 86.6547C152.848 86.7848 152.804 86.9322 152.798 87.0836C152.794 87.1609 152.809 87.2379 152.842 87.3077C152.875 87.3776 152.925 87.438 152.988 87.4836C153.128 87.5904 153.29 87.6639 153.463 87.6986C153.653 87.7386 153.923 87.7836 154.273 87.8336C154.684 87.8795 155.092 87.9564 155.493 88.0636C155.803 88.1573 156.084 88.3295 156.308 88.5636C156.427 88.6995 156.519 88.8579 156.576 89.0297C156.634 89.2015 156.656 89.383 156.643 89.5636C156.648 90.0821 156.494 90.5898 156.203 91.0186C155.878 91.4793 155.448 91.8549 154.948 92.1136C154.358 92.4377 153.714 92.6528 153.048 92.7486C152.462 92.8337 151.868 92.8337 151.283 92.7486Z" fill="#263238"/>
<path d="M160.47 85.2487L160.135 86.9837L163.74 86.4837L163.465 87.9237L159.85 88.4237L159.495 90.2737L163.73 89.6787L163.43 91.1787L157.43 92.0237L158.98 84.0237L164.85 83.1987L164.55 84.6987L160.47 85.2487Z" fill="#263238"/>
<path d="M172.024 86.4735C171.617 87.0597 171.052 87.519 170.394 87.7985L171.744 90.0035L169.849 90.2735L168.629 88.2735L167.099 88.4885L166.664 90.7235L164.859 90.9785L166.409 82.9785L169.574 82.5335C170.334 82.3651 171.128 82.4788 171.809 82.8535C172.078 83.0347 172.293 83.2838 172.434 83.5754C172.574 83.8671 172.635 84.1908 172.609 84.5135C172.622 85.2117 172.418 85.8967 172.024 86.4735ZM170.299 86.1935C170.464 86.0318 170.594 85.8377 170.68 85.6234C170.766 85.4091 170.807 85.1793 170.799 84.9485C170.814 84.7973 170.787 84.6449 170.721 84.5082C170.655 84.3714 170.552 84.2556 170.424 84.1735C170.091 84.0105 169.712 83.9647 169.349 84.0435L167.929 84.2435L167.384 87.0185L168.914 86.8035C169.429 86.7524 169.914 86.5388 170.299 86.1935Z" fill="#263238"/>
<path d="M182.025 80.7983L177.115 89.2483L175.35 89.4933L173.54 81.9933L175.395 81.7333L176.645 87.0883L180.145 81.0583L182.025 80.7983Z" fill="#263238"/>
<path d="M182.664 80.7086L184.474 80.4536L182.924 88.4536L181.114 88.7086L182.664 80.7086Z" fill="#263238"/>
<path d="M186.799 87.6034C186.253 87.4281 185.782 87.0763 185.459 86.6034C185.137 86.0961 184.975 85.5039 184.994 84.9034C184.99 84.0461 185.197 83.2011 185.599 82.4434C186.003 81.6777 186.589 81.0221 187.304 80.5334C188.049 80.019 188.906 79.6883 189.804 79.5684C190.417 79.4668 191.045 79.5009 191.644 79.6684C192.135 79.7994 192.564 80.1006 192.854 80.5184L191.554 81.7634C191.337 81.4875 191.045 81.28 190.714 81.1656C190.382 81.0512 190.024 81.0348 189.684 81.1184C189.14 81.1913 188.624 81.4012 188.184 81.7284C187.758 82.0542 187.416 82.4756 187.184 82.9584C186.944 83.4503 186.82 83.9911 186.824 84.5384C186.805 84.7918 186.847 85.0459 186.946 85.2798C187.045 85.5137 187.199 85.7206 187.394 85.8834C187.626 86.0413 187.889 86.1494 188.165 86.201C188.441 86.2526 188.725 86.2466 188.999 86.1834C189.813 86.071 190.552 85.646 191.059 84.9984L192.124 85.9334C191.726 86.4393 191.231 86.8599 190.668 87.17C190.104 87.4802 189.484 87.6735 188.844 87.7384C188.161 87.8573 187.46 87.811 186.799 87.6034Z" fill="#263238"/>
<path d="M195.93 80.2885L195.595 82.0185L199.2 81.5185L198.925 82.9535L195.31 83.4535L194.955 85.2985L199.19 84.7035L198.89 86.2035L192.89 87.0485L194.445 79.0485L200.3 78.2485L200 79.7485L195.93 80.2885Z" fill="#263238"/>
<path d="M98.2346 45.4834C92.8896 45.4834 88.5596 48.6384 88.5596 52.5284C88.5596 55.3534 90.8546 57.7884 94.1596 58.9084C93.8053 60.5308 93.1961 62.0868 92.3546 63.5184C93.554 63.3399 94.6971 62.8912 95.6976 62.206C96.698 61.5208 97.5297 60.6172 98.1296 59.5634H98.2346C103.58 59.5634 107.91 56.4134 107.91 52.5234C107.91 48.6334 103.58 45.4834 98.2346 45.4834Z" fill="#407BFF"/>
<path opacity="0.7" d="M98.2346 45.4834C92.8896 45.4834 88.5596 48.6384 88.5596 52.5284C88.5596 55.3534 90.8546 57.7884 94.1596 58.9084C93.8053 60.5308 93.1961 62.0868 92.3546 63.5184C93.554 63.3399 94.6971 62.8912 95.6976 62.206C96.698 61.5208 97.5297 60.6172 98.1296 59.5634H98.2346C103.58 59.5634 107.91 56.4134 107.91 52.5234C107.91 48.6334 103.58 45.4834 98.2346 45.4834Z" fill="white"/>
<path d="M93.9704 53.8836C94.5144 53.8836 94.9554 53.4426 94.9554 52.8986C94.9554 52.3546 94.5144 51.9136 93.9704 51.9136C93.4264 51.9136 92.9854 52.3546 92.9854 52.8986C92.9854 53.4426 93.4264 53.8836 93.9704 53.8836Z" fill="#263238"/>
<path d="M99.1543 52.8984C99.1543 53.0962 99.0957 53.2896 98.9858 53.454C98.8759 53.6185 98.7197 53.7466 98.537 53.8223C98.3543 53.898 98.1532 53.9178 97.9592 53.8792C97.7652 53.8406 97.587 53.7454 97.4472 53.6055C97.3073 53.4657 97.2121 53.2875 97.1735 53.0935C97.1349 52.8995 97.1547 52.6985 97.2304 52.5158C97.3061 52.333 97.4343 52.1768 97.5987 52.067C97.7632 51.9571 97.9565 51.8984 98.1543 51.8984C98.4195 51.8984 98.6739 52.0038 98.8614 52.1913C99.0489 52.3789 99.1543 52.6332 99.1543 52.8984Z" fill="#263238"/>
<path d="M102.37 53.8836C102.914 53.8836 103.355 53.4426 103.355 52.8986C103.355 52.3546 102.914 51.9136 102.37 51.9136C101.826 51.9136 101.385 52.3546 101.385 52.8986C101.385 53.4426 101.826 53.8836 102.37 53.8836Z" fill="#263238"/>
<path d="M186 153.273C186 153.273 186.065 146.598 183.635 147.478C181.205 148.358 186 153.273 186 153.273Z" fill="#407BFF"/>
<path d="M188.609 147.094C188.609 147.094 191.829 141.754 188.919 140.989C186.009 140.224 188.609 147.094 188.609 147.094Z" fill="#407BFF"/>
<path d="M201.335 143.324C201.335 143.324 208.02 142.979 206.51 140.474C205 137.969 201.335 143.324 201.335 143.324Z" fill="#407BFF"/>
<path d="M190.76 145.099C190.76 145.099 197.76 143.519 196.45 147.449C195.14 151.379 190.76 145.099 190.76 145.099Z" fill="#407BFF"/>
<path d="M185.674 159.309C185.674 159.309 182.999 153.249 181.499 155.404C179.999 157.559 185.674 159.309 185.674 159.309Z" fill="#407BFF"/>
<path d="M193.306 143.839C193.306 143.839 200.436 141.969 198.216 139.339C195.996 136.709 193.306 143.839 193.306 143.839Z" fill="#407BFF"/>
<path d="M198.695 143.104C198.695 143.104 204.335 145.874 201.735 147.684C199.135 149.494 198.695 143.104 198.695 143.104Z" fill="#407BFF"/>
<path d="M186.705 150.588C186.705 150.588 190.61 145.888 191.815 149.303C193.02 152.718 186.705 150.588 186.705 150.588Z" fill="#407BFF"/>
<g opacity="0.4">
<path d="M185.675 159.309C185.675 159.309 183 153.249 181.5 155.404C180 157.559 185.675 159.309 185.675 159.309Z" fill="white"/>
<path d="M193.306 143.839C193.306 143.839 200.436 141.969 198.216 139.339C195.996 136.709 193.306 143.839 193.306 143.839Z" fill="white"/>
<path d="M198.696 143.104C198.696 143.104 204.336 145.874 201.736 147.684C199.136 149.494 198.696 143.104 198.696 143.104Z" fill="white"/>
<path d="M186.705 150.589C186.705 150.589 190.61 145.889 191.815 149.304C193.02 152.719 186.705 150.589 186.705 150.589Z" fill="white"/>
</g>
<path d="M185.636 156.689C185.636 156.689 188.436 150.689 190.691 153.714C192.946 156.739 185.636 156.689 185.636 156.689Z" fill="#407BFF"/>
<path d="M185.68 162.999C184.832 159.089 184.954 155.031 186.035 151.179C188.325 143.679 195.35 141.914 202.45 143.049C203.015 143.139 202.765 143.989 202.205 143.899C198.435 143.299 194.205 143.239 190.92 145.519C188.57 147.164 187.24 149.779 186.6 152.519C185.85 155.897 185.831 159.397 186.545 162.784C186.66 163.344 185.8 163.564 185.68 163.004V162.999Z" fill="#407BFF"/>
<g opacity="0.3">
<path d="M185.679 162.998C184.831 159.088 184.953 155.03 186.034 151.178C188.324 143.678 195.349 141.913 202.449 143.048C203.014 143.138 202.764 143.988 202.204 143.898C198.434 143.298 194.204 143.238 190.919 145.518C188.569 147.163 187.239 149.778 186.599 152.518C185.849 155.897 185.83 159.397 186.544 162.783C186.659 163.343 185.799 163.563 185.679 163.003V162.998Z" fill="black"/>
</g>
<path d="M180.115 151.248C180.115 151.248 176.615 143.088 174.345 145.218C172.075 147.348 180.115 151.248 180.115 151.248Z" fill="#407BFF"/>
<path d="M179.816 142.569C179.816 142.569 180.646 134.664 176.926 135.004C173.206 135.344 179.816 142.569 179.816 142.569Z" fill="#407BFF"/>
<path d="M192.311 132.429C192.311 132.429 199.736 129.094 196.686 126.704C193.636 124.314 192.311 132.429 192.311 132.429Z" fill="#407BFF"/>
<path d="M181.205 139.204C181.205 139.204 188.35 134.204 188.935 139.584C189.52 144.964 181.205 139.204 181.205 139.204Z" fill="#407BFF"/>
<path d="M182.965 158.719C182.965 158.719 176.67 152.529 176.105 155.799C175.54 159.069 182.965 158.719 182.965 158.719Z" fill="#407BFF"/>
<path d="M183.431 136.559C183.431 136.559 190.561 131.169 186.631 128.934C182.701 126.699 183.431 136.559 183.431 136.559Z" fill="#407BFF"/>
<path d="M189.186 133.313C189.186 133.313 197.081 134.228 195.076 137.563C193.071 140.898 189.186 133.313 189.186 133.313Z" fill="#407BFF"/>
<path d="M179.5 147.654C179.5 147.654 181.45 140.229 184.64 143.864C187.83 147.499 179.5 147.654 179.5 147.654Z" fill="#407BFF"/>
<g opacity="0.4">
<path d="M182.966 158.719C182.966 158.719 176.671 152.529 176.106 155.799C175.541 159.069 182.966 158.719 182.966 158.719Z" fill="white"/>
<path d="M183.431 136.559C183.431 136.559 190.562 131.169 186.632 128.934C182.702 126.699 183.431 136.559 183.431 136.559Z" fill="white"/>
<path d="M189.187 133.314C189.187 133.314 197.082 134.229 195.077 137.564C193.072 140.899 189.187 133.314 189.187 133.314Z" fill="white"/>
<path d="M179.5 147.654C179.5 147.654 181.45 140.229 184.64 143.864C187.83 147.499 179.5 147.654 179.5 147.654Z" fill="white"/>
</g>
<path d="M181.53 155.549C181.53 155.549 181.53 147.014 185.7 149.719C189.87 152.424 181.53 155.549 181.53 155.549Z" fill="#407BFF"/>
<path d="M184.926 163.209C181.996 158.924 179.736 153.709 179.056 148.669C177.686 138.549 184.736 133.324 193.431 131.604C194.121 131.469 194.286 132.604 193.606 132.754C188.991 133.664 184.106 135.449 181.606 139.649C179.801 142.674 179.671 146.439 180.396 150.049C181.36 154.527 183.191 158.773 185.786 162.549C185.828 162.606 185.858 162.671 185.875 162.74C185.892 162.809 185.895 162.88 185.885 162.95C185.874 163.02 185.85 163.088 185.813 163.148C185.776 163.209 185.728 163.262 185.671 163.304C185.614 163.346 185.549 163.376 185.48 163.393C185.411 163.41 185.34 163.413 185.269 163.403C185.199 163.392 185.132 163.368 185.071 163.331C185.011 163.294 184.958 163.246 184.916 163.189L184.926 163.209Z" fill="#407BFF"/>
<g opacity="0.3">
<path d="M184.926 163.208C181.996 158.923 179.736 153.708 179.056 148.668C177.686 138.548 184.736 133.323 193.431 131.603C194.121 131.468 194.286 132.603 193.606 132.753C188.991 133.663 184.106 135.448 181.606 139.648C179.801 142.673 179.671 146.438 180.396 150.048C181.36 154.527 183.191 158.773 185.786 162.548C185.828 162.606 185.858 162.67 185.875 162.739C185.892 162.808 185.895 162.88 185.885 162.95C185.874 163.02 185.85 163.087 185.813 163.148C185.776 163.209 185.728 163.261 185.671 163.303C185.614 163.345 185.549 163.376 185.48 163.393C185.411 163.41 185.34 163.413 185.269 163.402C185.199 163.392 185.132 163.367 185.071 163.331C185.011 163.294 184.958 163.246 184.916 163.188L184.926 163.208Z" fill="black"/>
</g>
<path d="M179.286 153.394C179.286 153.394 180.946 147.859 182.726 149.209C184.506 150.559 179.286 153.394 179.286 153.394Z" fill="#407BFF"/>
<path d="M178.705 147.613C178.705 147.613 177.42 142.368 180.02 142.488C182.62 142.608 178.705 147.613 178.705 147.613Z" fill="#407BFF"/>
<path d="M169.16 141.249C169.16 141.249 163.725 139.249 165.62 137.564C167.515 135.879 169.16 141.249 169.16 141.249Z" fill="#407BFF"/>
<path d="M177.445 145.409C177.445 145.409 172.055 142.304 172.14 145.909C172.225 149.514 177.445 145.409 177.445 145.409Z" fill="#407BFF"/>
<path d="M178 158.458C178 158.458 181.79 154.153 182.475 156.313C183.16 158.473 178 158.458 178 158.458Z" fill="#407BFF"/>
<path d="M175.665 143.714C175.665 143.714 170.255 140.334 172.765 138.714C175.275 137.094 175.665 143.714 175.665 143.714Z" fill="#407BFF"/>
<path d="M171.396 141.749C171.396 141.749 166.026 142.589 167.711 144.749C169.396 146.909 171.396 141.749 171.396 141.749Z" fill="#407BFF"/>
<path d="M179.386 150.989C179.386 150.989 177.386 146.099 175.491 148.614C173.596 151.129 179.386 150.989 179.386 150.989Z" fill="#407BFF"/>
<g opacity="0.4">
<path d="M178 158.459C178 158.459 181.79 154.154 182.475 156.314C183.16 158.474 178 158.459 178 158.459Z" fill="white"/>
<path d="M175.665 143.714C175.665 143.714 170.255 140.334 172.765 138.714C175.275 137.094 175.665 143.714 175.665 143.714Z" fill="white"/>
<path d="M171.395 141.749C171.395 141.749 166.025 142.589 167.71 144.749C169.395 146.909 171.395 141.749 171.395 141.749Z" fill="white"/>
<path d="M179.385 150.989C179.385 150.989 177.385 146.099 175.49 148.614C173.595 151.129 179.385 150.989 179.385 150.989Z" fill="white"/>
</g>
<path d="M178.696 156.303C178.696 156.303 177.931 150.618 175.286 152.543C172.641 154.468 178.696 156.303 178.696 156.303Z" fill="#407BFF"/>
<path d="M177.041 161.504C178.747 158.493 179.688 155.108 179.781 151.649C179.816 144.869 174.471 141.599 168.311 140.709C167.811 140.639 167.811 141.409 168.311 141.479C171.581 141.949 175.106 142.979 177.216 145.719C178.716 147.679 179.166 150.184 178.991 152.609C178.742 155.595 177.857 158.493 176.396 161.109C176.156 161.539 176.811 161.944 177.056 161.509L177.041 161.504Z" fill="#407BFF"/>
<g opacity="0.3">
<path d="M177.04 161.504C178.746 158.493 179.687 155.108 179.78 151.649C179.815 144.869 174.47 141.599 168.31 140.709C167.81 140.639 167.81 141.409 168.31 141.479C171.58 141.949 175.105 142.979 177.215 145.719C178.715 147.679 179.165 150.184 178.99 152.609C178.741 155.595 177.856 158.493 176.395 161.109C176.155 161.539 176.81 161.944 177.055 161.509L177.04 161.504Z" fill="black"/>
</g>
<path d="M192.6 160.099L190.665 174.694C190.544 175.601 190.098 176.434 189.409 177.037C188.72 177.64 187.836 177.973 186.92 177.974H174.885C173.969 177.973 173.085 177.64 172.396 177.037C171.708 176.434 171.261 175.601 171.14 174.694L169.205 160.099H192.6Z" fill="#407BFF"/>
<path opacity="0.3" d="M192.6 160.099L190.665 174.694C190.544 175.601 190.098 176.434 189.409 177.037C188.72 177.64 187.836 177.973 186.92 177.974H174.885C173.969 177.973 173.085 177.64 172.396 177.037C171.708 176.434 171.261 175.601 171.14 174.694L169.205 160.099H192.6Z" fill="white"/>
<path d="M83.9344 132.063H80.6494V153.653H83.9344V132.063Z" fill="#263238"/>
<path opacity="0.5" d="M83.9344 132.063H80.6494V153.653H83.9344V132.063Z" fill="white"/>
<path d="M92.2748 169.824L84.5798 168.434V152.984C84.5804 152.87 84.5585 152.757 84.5153 152.652C84.472 152.547 84.4083 152.451 84.3279 152.371C84.2474 152.29 84.1518 152.226 84.0466 152.183C83.9413 152.14 83.8285 152.118 83.7148 152.119H80.8698C80.7558 152.118 80.6427 152.14 80.5372 152.183C80.4317 152.226 80.3357 152.29 80.2549 152.37C80.174 152.451 80.1099 152.546 80.0661 152.651C80.0223 152.757 79.9998 152.87 79.9998 152.984V168.434L72.3098 169.824C71.7699 169.92 71.2811 170.203 70.9292 170.624C70.5772 171.044 70.3845 171.575 70.3848 172.124L82.2898 171.049L94.1998 172.124C94.1991 171.576 94.006 171.045 93.6542 170.625C93.3024 170.204 92.8142 169.921 92.2748 169.824Z" fill="#263238"/>
<path d="M72.8838 174.459C72.8838 174.953 72.7372 175.437 72.4625 175.848C72.1878 176.259 71.7973 176.579 71.3405 176.769C70.8837 176.958 70.381 177.007 69.8961 176.911C69.4111 176.814 68.9657 176.576 68.616 176.227C68.2664 175.877 68.0283 175.432 67.9318 174.947C67.8354 174.462 67.8849 173.959 68.0741 173.502C68.2633 173.045 68.5837 172.655 68.9949 172.38C69.406 172.106 69.8893 171.959 70.3838 171.959C71.0468 171.959 71.6827 172.222 72.1516 172.691C72.6204 173.16 72.8838 173.796 72.8838 174.459Z" fill="#407BFF"/>
<path d="M96.7002 174.459C96.7002 174.953 96.5536 175.437 96.2789 175.848C96.0042 176.259 95.6137 176.579 95.1569 176.769C94.7001 176.958 94.1974 177.007 93.7125 176.911C93.2275 176.814 92.7821 176.576 92.4324 176.227C92.0828 175.877 91.8447 175.432 91.7482 174.947C91.6518 174.462 91.7013 173.959 91.8905 173.502C92.0797 173.045 92.4001 172.655 92.8113 172.38C93.2224 172.106 93.7057 171.959 94.2002 171.959C94.5285 171.959 94.8536 172.024 95.1569 172.149C95.4602 172.275 95.7358 172.459 95.968 172.691C96.2001 172.923 96.3843 173.199 96.5099 173.502C96.6355 173.806 96.7002 174.131 96.7002 174.459Z" fill="#407BFF"/>
<path d="M84.2448 174.459C84.2448 175.839 83.6748 176.959 82.2898 176.959C80.9048 176.959 80.3398 175.839 80.3398 174.459C80.3398 173.079 80.9098 171.959 82.2898 171.959C83.6698 171.959 84.2448 173.079 84.2448 174.459Z" fill="#407BFF"/>
<g opacity="0.5">
<path d="M84.6543 168.444V171.264L85.5843 171.349V168.614L84.6543 168.444Z" fill="black"/>
<path d="M79.0195 168.609V171.344L79.9495 171.264V168.444L79.0195 168.609Z" fill="black"/>
</g>
<path d="M60.8448 112.398C60.6375 112.399 60.4329 112.445 60.2453 112.533C60.0576 112.621 59.8917 112.749 59.7591 112.908C59.6265 113.068 59.5305 113.254 59.4779 113.454C59.4253 113.655 59.4175 113.865 59.4548 114.068L62.5048 130.503C62.6427 131.25 63.0377 131.925 63.6214 132.411C64.205 132.897 64.9404 133.163 65.6998 133.163H113.765C114.048 133.163 114.329 133.108 114.591 132.999C114.852 132.89 115.09 132.731 115.29 132.53C115.491 132.33 115.649 132.092 115.757 131.83C115.865 131.568 115.92 131.287 115.92 131.003C115.92 130.191 115.597 129.411 115.022 128.836C114.447 128.261 113.668 127.938 112.855 127.938H85.4298C84.7029 127.939 83.9969 127.696 83.4242 127.248C82.8515 126.8 82.4451 126.174 82.2698 125.468L79.8148 115.558C79.5915 114.657 79.073 113.856 78.3417 113.283C77.6105 112.711 76.7086 112.399 75.7798 112.398H60.8448Z" fill="#263238"/>
<path d="M67.3348 125.468L64.8798 115.558C64.6565 114.657 64.138 113.856 63.4067 113.283C62.6755 112.711 61.7736 112.399 60.8448 112.398C60.6375 112.399 60.4329 112.445 60.2453 112.533C60.0576 112.621 59.8917 112.749 59.7591 112.908C59.6265 113.068 59.5305 113.254 59.4779 113.454C59.4253 113.655 59.4175 113.865 59.4548 114.068L62.5048 130.503C62.6427 131.25 63.0377 131.925 63.6214 132.411C64.205 132.897 64.9404 133.163 65.6998 133.163H98.8248C99.1086 133.164 99.3898 133.109 99.6522 133C99.9145 132.892 100.153 132.733 100.354 132.532C100.554 132.332 100.713 132.093 100.822 131.831C100.93 131.568 100.985 131.287 100.985 131.003C100.983 130.191 100.66 129.412 100.086 128.838C99.5111 128.263 98.7323 127.94 97.9198 127.938H70.4998C69.7718 127.941 69.0642 127.698 68.4903 127.251C67.9164 126.803 67.5095 126.175 67.3348 125.468Z" fill="#263238"/>
<path opacity="0.2" d="M67.3348 125.468L64.8798 115.558C64.6565 114.657 64.138 113.856 63.4067 113.283C62.6755 112.711 61.7736 112.399 60.8448 112.398C60.6375 112.399 60.4329 112.445 60.2453 112.533C60.0576 112.621 59.8917 112.749 59.7591 112.908C59.6265 113.068 59.5305 113.254 59.4779 113.454C59.4253 113.655 59.4175 113.865 59.4548 114.068L62.5048 130.503C62.6427 131.25 63.0377 131.925 63.6214 132.411C64.205 132.897 64.9404 133.163 65.6998 133.163H98.8248C99.1086 133.164 99.3898 133.109 99.6522 133C99.9145 132.892 100.153 132.733 100.354 132.532C100.554 132.332 100.713 132.093 100.822 131.831C100.93 131.568 100.985 131.287 100.985 131.003C100.983 130.191 100.66 129.412 100.086 128.838C99.5111 128.263 98.7323 127.94 97.9198 127.938H70.4998C69.7718 127.941 69.0642 127.698 68.4903 127.251C67.9164 126.803 67.5095 126.175 67.3348 125.468Z" fill="white"/>
<path d="M87.6396 65.3735C87.6396 65.3735 93.1096 67.0035 90.5546 71.0485L88.1796 67.5885L87.6396 65.3735Z" fill="#263238"/>
<path d="M107.345 86.2236L109.73 82.7236L112.09 83.4736L112.52 84.4236L109.58 88.6286L107.345 86.2236Z" fill="#DBB178"/>
<path d="M110.881 87.1385C108.491 90.8885 104.721 96.3585 103.281 96.0335C99.0506 95.0885 93.2356 91.0834 90.2506 86.6834C89.8 86.0196 89.6152 85.2108 89.7328 84.4172C89.8504 83.6235 90.2619 82.9031 90.8856 82.3985V82.3685C91.2111 82.1027 91.5858 81.9038 91.9882 81.7831C92.3907 81.6624 92.813 81.6223 93.231 81.665C93.649 81.7077 94.0545 81.8325 94.4242 82.0321C94.7939 82.2318 95.1206 82.5024 95.3856 82.8285C95.4406 82.8935 95.4906 82.9635 95.5406 83.0335C98.1856 86.8285 101.541 90.4285 102.091 90.7335C102.736 91.1035 104.411 89.5185 107.956 85.0385L110.881 87.1385Z" fill="#407BFF"/>
<path opacity="0.6" d="M110.881 87.1385C108.491 90.8885 104.721 96.3585 103.281 96.0335C99.0506 95.0885 93.2356 91.0834 90.2506 86.6834C89.8 86.0196 89.6152 85.2108 89.7328 84.4172C89.8504 83.6235 90.2619 82.9031 90.8856 82.3985V82.3685C91.2111 82.1027 91.5858 81.9038 91.9882 81.7831C92.3907 81.6624 92.813 81.6223 93.231 81.665C93.649 81.7077 94.0545 81.8325 94.4242 82.0321C94.7939 82.2318 95.1206 82.5024 95.3856 82.8285C95.4406 82.8935 95.4906 82.9635 95.5406 83.0335C98.1856 86.8285 101.541 90.4285 102.091 90.7335C102.736 91.1035 104.411 89.5185 107.956 85.0385L110.881 87.1385Z" fill="white"/>
<path d="M110.935 84.1136L115.66 85.0386L113.46 81.0786C113.46 81.0786 110.6 81.0786 109.73 82.7236L110.935 84.1136Z" fill="#DBB178"/>
<path opacity="0.2" d="M97.25 93.2985C93.825 90.9585 93.37 85.4685 93.37 85.4685L91.43 84.5835L90.5 87.0535C92.3584 89.5221 94.6446 91.6373 97.25 93.2985Z" fill="black"/>
<path d="M119 83.3435L116.98 80.1235L113.465 81.0785L115.66 85.0385L119 83.3435Z" fill="#DBB178"/>
<path d="M92.7607 105.318L76.0007 106.418C76.0007 106.418 75.8807 101.918 75.2957 97.7734C75.1142 96.3309 74.8268 94.9037 74.4357 93.5034C74.0007 92.0734 73.4357 90.4684 72.7857 88.6034C72.7007 88.3734 72.6157 88.1434 72.5207 87.9034C72.3007 87.3234 72.0757 86.7184 71.8207 86.0884V86.0584C71.5942 85.4427 71.6188 84.7628 71.8891 84.1651C72.1594 83.5674 72.6538 83.0999 73.2657 82.8634C73.3809 82.8186 73.4997 82.7834 73.6207 82.7584C74.6857 82.5334 75.7607 82.3284 76.8507 82.1584L77.7907 82.0184C80.3003 81.6445 82.8296 81.4174 85.3657 81.3384C86.6807 81.3384 88.0857 81.3784 89.2857 81.4334L90.2857 81.4834C91.5557 81.5584 92.4357 81.6384 92.4357 81.6384C92.4357 81.6384 92.9857 81.7484 93.3107 84.6934C93.3181 84.8609 93.3347 85.0278 93.3607 85.1934C93.4007 85.8034 93.4357 86.5734 93.4507 87.4984C93.5007 91.2784 93.2757 97.6234 92.7607 105.318Z" fill="#407BFF"/>
<path opacity="0.6" d="M92.7607 105.318L76.0007 106.418C76.0007 106.418 75.8807 101.918 75.2957 97.7734C75.1142 96.3309 74.8268 94.9037 74.4357 93.5034C74.0007 92.0734 73.4357 90.4684 72.7857 88.6034C72.7007 88.3734 72.6157 88.1434 72.5207 87.9034C72.3007 87.3234 72.0757 86.7184 71.8207 86.0884V86.0584C71.5942 85.4427 71.6188 84.7628 71.8891 84.1651C72.1594 83.5674 72.6538 83.0999 73.2657 82.8634C73.3809 82.8186 73.4997 82.7834 73.6207 82.7584C74.6857 82.5334 75.7607 82.3284 76.8507 82.1584L77.7907 82.0184C80.3003 81.6445 82.8296 81.4174 85.3657 81.3384C86.6807 81.3384 88.0857 81.3784 89.2857 81.4334L90.2857 81.4834C91.5557 81.5584 92.4357 81.6384 92.4357 81.6384C92.4357 81.6384 92.9857 81.7484 93.3107 84.6934C93.3181 84.8609 93.3347 85.0278 93.3607 85.1934C93.4007 85.8034 93.4357 86.5734 93.4507 87.4984C93.5007 91.2784 93.2757 97.6234 92.7607 105.318Z" fill="white"/>
<path d="M78.374 81.9388L82.554 87.5088L85.554 84.9388L89.454 86.8188L87.344 81.3638C86.694 81.3638 86.024 81.3638 85.379 81.3638C83.0353 81.4271 80.6967 81.6191 78.374 81.9388Z" fill="#407BFF"/>
<path opacity="0.9" d="M78.374 81.9388L82.554 87.5088L85.554 84.9388L89.454 86.8188L87.344 81.3638C86.694 81.3638 86.024 81.3638 85.379 81.3638C83.0353 81.4271 80.6967 81.6191 78.374 81.9388Z" fill="white"/>
<path d="M115.37 172.534H111.805L113.43 145.624H120.1L115.37 172.534Z" fill="#DBB178"/>
<path d="M111.409 172.194C111.369 171.854 115.624 171.534 115.624 171.534C115.624 171.534 118.584 173.814 121.184 174.034C123.784 174.254 122.589 175.979 119.774 176.369L112.809 177.369C110.809 177.664 111.819 175.749 111.409 172.194Z" fill="#263238"/>
<path d="M117.759 172.339C117.217 172.307 116.68 172.204 116.164 172.034C116.144 172.029 116.125 172.018 116.109 172.004C116.099 171.969 116.099 171.933 116.109 171.899C116.109 171.854 116.344 170.799 116.889 170.489C116.971 170.439 117.062 170.407 117.157 170.396C117.252 170.385 117.348 170.394 117.439 170.424C117.704 170.504 117.774 170.654 117.779 170.759C117.779 170.974 117.574 171.214 117.279 171.434C117.564 171.354 117.865 171.354 118.149 171.434C118.211 171.457 118.268 171.493 118.316 171.538C118.364 171.584 118.402 171.638 118.429 171.699C118.471 171.777 118.489 171.867 118.481 171.955C118.473 172.044 118.439 172.129 118.384 172.199C118.202 172.326 117.978 172.376 117.759 172.339ZM116.614 171.889C117.254 172.054 118.004 172.164 118.169 171.984C118.209 171.949 118.199 171.874 118.169 171.784C118.157 171.754 118.139 171.728 118.115 171.706C118.092 171.685 118.064 171.669 118.034 171.659C117.549 171.601 117.057 171.681 116.614 171.889ZM117.194 170.639C117.12 170.639 117.047 170.659 116.984 170.699C116.699 170.947 116.498 171.277 116.409 171.644C116.959 171.329 117.509 170.934 117.509 170.764C117.509 170.734 117.449 170.694 117.354 170.659C117.302 170.644 117.248 170.638 117.194 170.639Z" fill="#407BFF"/>
<path opacity="0.2" d="M113.144 150.329L119.239 150.514L120.099 145.624H113.429L113.144 150.329Z" fill="black"/>
<path d="M98.2597 172.989L94.8447 172.534L100.25 142.739L106.99 144.664L98.2597 172.989Z" fill="#DBB178"/>
<path d="M94.3992 172.058C94.3992 171.708 98.6592 172.058 98.6592 172.058C98.6592 172.058 101.244 174.753 103.779 175.358C106.314 175.963 104.879 177.498 102.039 177.458L94.9992 177.373C92.9642 177.353 94.2642 175.648 94.3992 172.058Z" fill="#263238"/>
<path d="M100.899 173.169C100.276 173.092 99.6718 172.906 99.1138 172.619L99.0788 172.589C99.0765 172.583 99.0753 172.577 99.0753 172.571C99.0753 172.565 99.0765 172.559 99.0788 172.554C99.0713 172.538 99.0674 172.521 99.0674 172.504C99.0674 172.486 99.0713 172.469 99.0788 172.454C99.0788 172.414 99.4688 171.414 100.079 171.179C100.165 171.139 100.259 171.119 100.354 171.119C100.449 171.119 100.543 171.139 100.629 171.179C100.879 171.304 100.924 171.454 100.914 171.559C100.914 171.774 100.644 171.979 100.329 172.149C100.622 172.113 100.92 172.16 101.189 172.284C101.246 172.314 101.297 172.357 101.336 172.409C101.376 172.46 101.404 172.52 101.419 172.584C101.451 172.665 101.457 172.754 101.436 172.839C101.416 172.924 101.37 173.001 101.304 173.059C101.186 173.143 101.043 173.182 100.899 173.169ZM99.5638 172.529C100.174 172.789 100.899 173.029 101.064 172.859C101.104 172.829 101.114 172.759 101.064 172.659C101.056 172.629 101.043 172.601 101.024 172.577C101.005 172.553 100.981 172.533 100.954 172.519C100.498 172.4 100.018 172.404 99.5638 172.529ZM100.264 171.379C100.209 171.381 100.155 171.393 100.104 171.414C99.7888 171.613 99.5427 171.905 99.3988 172.249C100.009 172.024 100.584 171.699 100.594 171.539C100.594 171.509 100.544 171.459 100.459 171.419C100.406 171.392 100.348 171.375 100.289 171.369L100.264 171.379Z" fill="#407BFF"/>
<path opacity="0.2" d="M106.99 144.664L100.25 142.739L99.1846 148.614L105.425 149.739L106.99 144.664Z" fill="black"/>
<path d="M111.665 147.934L120.24 148.384C122.435 138.274 124.625 127.129 124.19 124.684C123.365 119.999 117 115.229 92.29 111.184L80.79 128.464C80.79 128.464 97.61 127.679 112.94 127.679C112.935 127.689 112.08 137.309 111.665 147.934Z" fill="#407BFF"/>
<path opacity="0.1" d="M111.665 147.934L120.24 148.384C122.435 138.274 124.625 127.129 124.19 124.684C123.365 119.999 117 115.229 92.29 111.184L80.79 128.464C80.79 128.464 97.61 127.679 112.94 127.679C112.935 127.689 112.08 137.309 111.665 147.934Z" fill="black"/>
<path d="M111.089 146.588L111.344 148.833L120.739 149.153L121.199 147.088L111.089 146.588Z" fill="#407BFF"/>
<path d="M86.8145 81.3535H85.3645C83.2845 81.4185 81.2095 81.5885 79.1445 81.8535C80.0445 82.9285 82.8495 84.6035 84.7295 84.6035C87.3545 84.5835 86.7695 82.6335 86.8145 81.3535Z" fill="#DBB178"/>
<path d="M98.3356 146.193L107.101 147.618C110.661 137.653 114.221 127.048 114.161 124.658C114.041 119.898 112.996 117.428 95.7806 113.588C95.7806 113.588 94.8656 112.253 92.7806 105.338L76.0006 106.438C76.0006 106.438 68.3456 120.538 74.2706 126.558C75.5806 127.898 78.1556 128.498 80.7706 128.473C80.7706 128.473 86.8206 128.503 101.771 127.803C101.776 127.803 100.001 136.333 98.3356 146.193Z" fill="#407BFF"/>
<path d="M97.9845 144.664L108.139 146.379L107.174 148.514L97.9395 146.999L97.9845 144.664Z" fill="#407BFF"/>
<path opacity="0.1" d="M111.089 146.588L111.344 148.833L120.739 149.153L121.199 147.088L111.089 146.588Z" fill="black"/>
<path d="M85.545 79.9086C85.3521 81.1432 85.4031 82.4036 85.695 83.6186L81.1 82.9436C81.0011 82.929 80.9068 82.8917 80.8245 82.8347C80.7423 82.7777 80.6744 82.7025 80.626 82.6149C80.5776 82.5273 80.5501 82.4297 80.5456 82.3298C80.5411 82.2298 80.5597 82.1301 80.6 82.0386C81.23 80.6086 81.48 77.7286 81.635 76.4036C81.72 75.6036 81.755 74.8736 81.76 74.3636C81.765 73.8536 81.76 73.6636 81.76 73.6636L83.815 74.6036L87.17 76.1386C86.3966 77.2821 85.8453 78.5611 85.545 79.9086Z" fill="#DBB178"/>
<path opacity="0.2" d="M87.18 76.1386C86.3991 77.2811 85.8394 78.5599 85.53 79.9087C83.8534 79.2437 82.4688 78.0028 81.625 76.4087C81.715 75.6087 81.75 74.8787 81.755 74.3687C82.485 74.4437 83.165 74.5187 83.815 74.6087L87.18 76.1386Z" fill="black"/>
<path d="M87.4243 72.8586C87.2893 74.3936 88.0743 75.6336 89.1743 75.6336C90.2743 75.6336 91.2793 74.3936 91.4143 72.8586C91.5493 71.3236 90.7643 70.0786 89.6643 70.0786C88.5643 70.0786 87.5593 71.3236 87.4243 72.8586Z" fill="#407BFF"/>
<path opacity="0.5" d="M87.229 72.8586C87.094 74.3936 87.879 75.6336 88.979 75.6336C90.079 75.6336 91.079 74.3936 91.214 72.8586C91.349 71.3236 90.564 70.0786 89.464 70.0786C88.364 70.0786 87.359 71.3236 87.229 72.8586Z" fill="black"/>
<path d="M79.5349 70.1587C80.3549 73.9187 80.6399 76.1587 82.8599 77.8737C83.5756 78.4421 84.4334 78.8035 85.3401 78.9185C86.2468 79.0336 87.1676 78.898 88.0026 78.5263C88.8376 78.1547 89.5548 77.5614 90.0761 76.8107C90.5975 76.0601 90.9032 75.1809 90.9599 74.2687C91.2549 70.7687 89.8649 65.2037 85.9049 64.1387C85.0538 63.8846 84.1507 63.859 83.2866 64.0646C82.4224 64.2701 81.6275 64.6996 80.982 65.3097C80.3364 65.9198 79.8628 66.6891 79.6087 67.5403C79.3547 68.3915 79.3293 69.2946 79.5349 70.1587Z" fill="#DBB178"/>
<path d="M78.664 74.0836C79.2729 74.8185 80.1173 75.3202 81.054 75.5036C82.239 75.7036 82.509 74.6086 81.904 73.5436C81.364 72.5886 80.089 71.3336 79.029 71.6136C77.969 71.8936 77.899 73.1586 78.664 74.0836Z" fill="#DBB178"/>
<path d="M85.4704 70.5288C85.5204 70.8388 85.7204 71.0688 85.9254 71.0288C86.1304 70.9888 86.2504 70.7338 86.2054 70.4288C86.1604 70.1238 85.9554 69.8888 85.7504 69.9288C85.5454 69.9688 85.4254 70.2188 85.4704 70.5288Z" fill="#263238"/>
<path d="M88.9997 70.1135C89.0447 70.4235 89.2497 70.6535 89.4497 70.6135C89.6497 70.5735 89.7797 70.3185 89.7347 70.0085C89.6897 69.6985 89.4797 69.4735 89.2797 69.5085C89.0797 69.5435 88.9247 69.8035 88.9997 70.1135Z" fill="#263238"/>
<path d="M87.8857 70.3984C88.4031 71.2993 89.0369 72.1281 89.7707 72.8634C89.5795 73.0395 89.3516 73.1711 89.1036 73.2489C88.8555 73.3267 88.5933 73.3487 88.3357 73.3134L87.8857 70.3984Z" fill="#C0854B"/>
<path d="M84.2142 69.5336C84.1846 69.5402 84.1538 69.5402 84.1242 69.5336C84.1028 69.5221 84.084 69.5064 84.0689 69.4875C84.0537 69.4686 84.0425 69.4468 84.036 69.4235C84.0294 69.4001 84.0277 69.3757 84.0308 69.3517C84.0339 69.3276 84.0419 69.3045 84.0542 69.2836C84.1887 69.0284 84.3841 68.8105 84.6231 68.6491C84.8621 68.4877 85.1373 68.3879 85.4242 68.3586C85.448 68.3565 85.472 68.3593 85.4946 68.3669C85.5173 68.3745 85.5382 68.3866 85.556 68.4025C85.5738 68.4184 85.5881 68.4378 85.5981 68.4595C85.6081 68.4812 85.6136 68.5047 85.6142 68.5286C85.6163 68.5526 85.6134 68.5768 85.6059 68.5998C85.5984 68.6227 85.5864 68.6439 85.5705 68.6621C85.5547 68.6803 85.5353 68.6951 85.5136 68.7057C85.4919 68.7162 85.4683 68.7223 85.4442 68.7236C85.2186 68.749 85.0029 68.8299 84.8162 68.959C84.6295 69.0881 84.4776 69.2615 84.3742 69.4636C84.3554 69.4875 84.3309 69.5064 84.303 69.5186C84.2751 69.5308 84.2446 69.536 84.2142 69.5336Z" fill="#263238"/>
<path d="M90.2957 68.7485C90.2659 68.7495 90.2364 68.7427 90.21 68.7286C90.1837 68.7146 90.1615 68.6938 90.1457 68.6685C90.0188 68.4709 89.8483 68.305 89.6471 68.1836C89.446 68.0623 89.2198 67.9887 88.9857 67.9685C88.9425 67.9613 88.9033 67.9391 88.8749 67.9056C88.8466 67.8722 88.8311 67.8298 88.8311 67.786C88.8311 67.7422 88.8466 67.6998 88.8749 67.6664C88.9033 67.633 88.9425 67.6107 88.9857 67.6035C89.2793 67.623 89.5643 67.7109 89.8178 67.8602C90.0713 68.0096 90.2864 68.2162 90.4457 68.4635C90.4731 68.5034 90.4837 68.5525 90.4753 68.6002C90.4669 68.6479 90.4401 68.6903 90.4007 68.7185C90.369 68.7376 90.3328 68.7479 90.2957 68.7485Z" fill="#263238"/>
<path d="M80.2704 75.1036C80.2704 75.1036 82.6604 72.6586 81.4904 66.6586C81.4904 66.6586 83.4155 68.2936 87.8855 67.0836C87.8855 67.0836 85.2404 67.3436 84.0304 66.0836C84.0304 66.0836 86.4955 67.2286 90.4805 66.0836C90.4805 66.0836 89.7705 62.0486 85.4805 61.8436C85.4805 61.8436 86.8654 60.6786 88.2004 60.9036C88.2004 60.9036 86.8355 59.7286 83.3705 62.0136L82.0004 62.5736C82.0004 62.5736 78.1404 61.1836 76.0004 64.4536C74.2954 67.0386 75.1504 75.1786 80.2704 75.1036Z" fill="#263238"/>
<path d="M89.0341 73.9986C89.0341 73.9986 87.8241 73.6937 84.4141 73.6187C84.7941 74.6537 85.5191 75.5086 87.2691 75.5286C87.4871 75.5529 87.7078 75.5318 87.9173 75.4666C88.1268 75.4014 88.3205 75.2935 88.4863 75.1498C88.6521 75.0061 88.7864 74.8297 88.8806 74.6315C88.9749 74.4334 89.0271 74.2179 89.0341 73.9986Z" fill="#263238"/>
<path d="M86.5002 74.7037C87.1723 74.6791 87.8351 74.8662 88.3951 75.2387C88.068 75.448 87.6828 75.5478 87.2952 75.5237C86.6258 75.5517 85.965 75.3642 85.4102 74.9887C85.7345 74.7814 86.1159 74.6817 86.5002 74.7037Z" fill="#A02724"/>
<path d="M88.8782 73.9686C88.8426 74.0942 88.7728 74.2075 88.6766 74.2958C88.5803 74.3841 88.4615 74.4439 88.3332 74.4686C87.3261 74.4453 86.3226 74.3383 85.3332 74.1486C85.1751 74.1346 85.0229 74.0816 84.8903 73.9943C84.7576 73.9071 84.6487 73.7883 84.5732 73.6486C86.0144 73.6439 87.4537 73.7509 88.8782 73.9686Z" fill="white"/>
<path d="M78.4141 71.4538V67.4188C78.4138 66.2245 78.799 65.0621 79.5125 64.1045C80.226 63.1468 81.2297 62.4451 82.3741 62.1038L83.7241 61.8638C82.5506 62.2138 81.5216 62.9333 80.79 63.9153C80.0585 64.8973 79.6636 66.0893 79.6641 67.3138V71.4538H78.4141Z" fill="#407BFF"/>
<path d="M81.5509 73.4084C81.6859 74.9434 80.9009 76.1834 79.8009 76.1834C78.7009 76.1834 77.6959 74.9434 77.5659 73.4084C77.4359 71.8734 78.2159 70.6284 79.3159 70.6284C80.4159 70.6284 81.4159 71.8734 81.5509 73.4084Z" fill="#407BFF"/>
<path opacity="0.5" d="M81.5509 73.4084C81.6859 74.9434 80.9009 76.1834 79.8009 76.1834C78.7009 76.1834 77.6959 74.9434 77.5659 73.4084C77.4359 71.8734 78.2159 70.6284 79.3159 70.6284C80.4159 70.6284 81.4159 71.8734 81.5509 73.4084Z" fill="black"/>
<path d="M80.884 73.4084C81.014 74.9434 80.234 76.1834 79.129 76.1834C78.024 76.1834 77.029 74.9434 76.894 73.4084C76.759 71.8734 77.544 70.6284 78.644 70.6284C79.744 70.6284 80.749 71.8734 80.884 73.4084Z" fill="#407BFF"/>
<path opacity="0.3" d="M79.4996 73.8138L79.4096 73.0038H79.5646C79.3646 72.2088 78.8046 71.6138 78.1896 71.6138C77.5746 71.6138 77.1246 72.2088 77.0596 73.0038H77.1646L77.2546 73.8138H77.1346C77.3346 74.6088 77.8946 75.1988 78.5046 75.1988C79.1146 75.1988 79.5746 74.6088 79.6346 73.8138H79.4996Z" fill="white"/>
<path d="M72.3154 73.7487L74.5004 69.4487L76.2654 73.6187C76.2654 73.6187 74.4954 75.8687 72.6704 75.5437L72.3154 73.7487Z" fill="#DBB178"/>
<path d="M77.894 67.8633L79.179 71.4383L76.259 73.6183L74.499 69.4483L77.894 67.8633Z" fill="#DBB178"/>
<path d="M72.8892 78.3785L74.9892 74.8435L74.7692 73.4035L72.9192 72.7485L70.2842 76.8485L72.8892 78.3785Z" fill="#DBB178"/>
<path d="M74.4043 76.1787L70.5693 84.6188C70.5693 84.6188 72.4343 82.9437 73.4643 82.7037C75.1043 82.3187 80.0543 83.8137 75.0393 89.2587C75.0393 89.2587 65.1093 95.4637 63.0843 93.0587C61.5093 91.1887 68.1993 79.8237 71.2643 74.8438L74.4043 76.1787Z" fill="#407BFF"/>
<path opacity="0.6" d="M74.4043 76.1787L70.5693 84.6188C70.5693 84.6188 72.4343 82.9437 73.4643 82.7037C75.1043 82.3187 80.0543 83.8137 75.0393 89.2587C75.0393 89.2587 65.1093 95.4637 63.0843 93.0587C61.5093 91.1887 68.1993 79.8237 71.2643 74.8438L74.4043 76.1787Z" fill="white"/>
<path opacity="0.2" d="M70.569 84.6185L69.499 87.9135L72.639 83.0835C71.9067 83.5355 71.2142 84.049 70.569 84.6185Z" fill="black"/>
<path d="M84.935 77.1334C84.5151 77.1441 84.0951 77.1173 83.68 77.0534C82.6099 76.6687 81.5745 76.1936 80.585 75.6334L80.785 75.2734C81.7459 75.8126 82.7492 76.2724 83.785 76.6484C84.8498 76.7366 85.9201 76.7366 86.985 76.6484L87.015 77.0634C86.935 77.0634 85.885 77.1334 84.935 77.1334Z" fill="#407BFF"/>
<path d="M85.3848 77.2189L87.3848 77.0689C87.3848 77.0689 87.3298 76.4489 86.3848 76.4739C85.4398 76.4989 85.3848 77.2189 85.3848 77.2189Z" fill="#407BFF"/>
<g opacity="0.5">
<path d="M84.934 77.1334C84.5141 77.1441 84.0941 77.1173 83.679 77.0534C82.6089 76.6687 81.5736 76.1936 80.584 75.6334L80.784 75.2734C81.7449 75.8126 82.7483 76.2724 83.784 76.6484C84.8488 76.7366 85.9191 76.7366 86.984 76.6484L87.014 77.0634C86.934 77.0634 85.884 77.1334 84.934 77.1334Z" fill="black"/>
<path d="M85.3838 77.2184L87.3838 77.0684C87.3838 77.0684 87.3288 76.4484 86.3838 76.4734C85.4388 76.4984 85.3838 77.2184 85.3838 77.2184Z" fill="black"/>
</g>
<path d="M165.03 177.518C164.925 177.522 164.82 177.506 164.722 177.469C164.623 177.433 164.532 177.377 164.455 177.305C164.378 177.234 164.316 177.148 164.272 177.052C164.228 176.957 164.204 176.854 164.2 176.748L159.2 118.858C159.191 118.359 158.996 117.881 158.653 117.518C158.31 117.156 157.843 116.935 157.345 116.898H133.725C133.227 116.935 132.76 117.156 132.417 117.518C132.074 117.881 131.879 118.359 131.87 118.858L126.87 176.748C126.869 176.856 126.847 176.962 126.805 177.06C126.763 177.159 126.701 177.248 126.623 177.322C126.546 177.396 126.454 177.454 126.354 177.492C126.254 177.53 126.147 177.547 126.04 177.543C125.824 177.5 125.633 177.375 125.506 177.194C125.38 177.014 125.327 176.791 125.36 176.573L130.36 118.678C130.535 116.653 131.98 115.128 133.725 115.128H157.345C159.09 115.128 160.535 116.653 160.71 118.678L165.71 176.573C165.743 176.791 165.69 177.014 165.564 177.194C165.437 177.375 165.246 177.5 165.03 177.543V177.518Z" fill="#407BFF"/>
<g opacity="0.4">
<path d="M165.03 177.518C164.925 177.522 164.82 177.506 164.722 177.469C164.623 177.433 164.532 177.377 164.455 177.305C164.378 177.234 164.316 177.148 164.272 177.052C164.228 176.957 164.204 176.854 164.2 176.748L159.2 118.858C159.191 118.359 158.996 117.881 158.653 117.518C158.31 117.156 157.843 116.935 157.345 116.898H133.725C133.227 116.935 132.76 117.156 132.417 117.518C132.074 117.881 131.879 118.359 131.87 118.858L126.87 176.748C126.869 176.856 126.847 176.962 126.805 177.06C126.763 177.159 126.701 177.248 126.623 177.322C126.546 177.396 126.454 177.454 126.354 177.492C126.254 177.53 126.147 177.547 126.04 177.543C125.824 177.5 125.633 177.375 125.506 177.194C125.38 177.014 125.327 176.791 125.36 176.573L130.36 118.678C130.535 116.653 131.98 115.128 133.725 115.128H157.345C159.09 115.128 160.535 116.653 160.71 118.678L165.71 176.573C165.743 176.791 165.69 177.014 165.564 177.194C165.437 177.375 165.246 177.5 165.03 177.543V177.518Z" fill="black"/>
</g>
<path d="M164.7 112.624H100.495C99.9349 112.624 99.4805 113.078 99.4805 113.639V116.929C99.4805 117.489 99.9349 117.944 100.495 117.944H164.7C165.261 117.944 165.715 117.489 165.715 116.929V113.639C165.715 113.078 165.261 112.624 164.7 112.624Z" fill="#263238"/>
<path opacity="0.2" d="M136.65 112.624H164.7C164.966 112.624 165.22 112.729 165.408 112.916C165.595 113.104 165.7 113.358 165.7 113.624V116.914C165.7 117.179 165.595 117.433 165.408 117.621C165.22 117.808 164.966 117.914 164.7 117.914H136.65V112.624Z" fill="white"/>
<path d="M139.161 177.519C139.054 177.523 138.946 177.506 138.845 177.468C138.745 177.431 138.652 177.373 138.574 177.299C138.496 177.224 138.434 177.135 138.392 177.036C138.349 176.938 138.327 176.831 138.326 176.724L133.326 118.834C133.317 118.334 133.122 117.856 132.779 117.494C132.436 117.131 131.969 116.91 131.471 116.874H107.851C107.354 116.911 106.889 117.133 106.546 117.495C106.204 117.858 106.01 118.335 106.001 118.834L101.001 176.749C101 176.856 100.978 176.962 100.936 177.06C100.894 177.159 100.832 177.248 100.754 177.322C100.677 177.396 100.585 177.454 100.485 177.492C100.385 177.53 100.278 177.548 100.171 177.544C99.9518 177.498 99.7591 177.368 99.634 177.182C99.5088 176.996 99.4612 176.769 99.5011 176.549L104.501 118.654C104.676 116.629 106.126 115.104 107.866 115.104H131.486C133.231 115.104 134.676 116.629 134.851 118.654L139.851 176.549C139.884 176.766 139.832 176.987 139.707 177.168C139.581 177.348 139.391 177.474 139.176 177.519H139.161Z" fill="#407BFF"/>
<g opacity="0.4">
<path d="M139.16 177.519C139.053 177.523 138.945 177.506 138.844 177.468C138.744 177.431 138.651 177.373 138.573 177.299C138.495 177.224 138.433 177.135 138.391 177.036C138.348 176.938 138.326 176.831 138.325 176.724L133.325 118.834C133.316 118.334 133.121 117.856 132.778 117.494C132.435 117.131 131.968 116.91 131.47 116.874H107.85C107.353 116.911 106.888 117.133 106.545 117.495C106.203 117.858 106.009 118.335 106 118.834L101 176.749C101 176.856 100.977 176.962 100.935 177.06C100.893 177.159 100.831 177.248 100.753 177.322C100.676 177.396 100.585 177.454 100.484 177.492C100.384 177.53 100.277 177.548 100.17 177.544C99.9508 177.498 99.7581 177.368 99.633 177.182C99.5079 176.996 99.4602 176.769 99.5001 176.549L104.5 118.654C104.675 116.629 106.125 115.104 107.865 115.104H131.485C133.23 115.104 134.675 116.629 134.85 118.654L139.85 176.549C139.883 176.766 139.831 176.987 139.706 177.168C139.58 177.348 139.39 177.474 139.175 177.519H139.16Z" fill="black"/>
</g>
<path d="M120.666 110.003H139.196V111.748C139.196 111.98 139.104 112.203 138.94 112.367C138.776 112.531 138.553 112.623 138.321 112.623H121.541C121.309 112.623 121.086 112.531 120.922 112.367C120.758 112.203 120.666 111.98 120.666 111.748V110.013V110.003Z" fill="#263238"/>
<path opacity="0.2" d="M120.666 110.003H139.196V111.748C139.196 111.98 139.104 112.203 138.94 112.367C138.776 112.531 138.553 112.623 138.321 112.623H121.541C121.309 112.623 121.086 112.531 120.922 112.367C120.758 112.203 120.666 111.98 120.666 111.748V110.013V110.003Z" fill="white"/>
<path d="M107.561 110.003H126.091V111.748C126.091 111.98 125.998 112.203 125.834 112.367C125.67 112.531 125.448 112.623 125.216 112.623H108.436C108.203 112.623 107.981 112.531 107.817 112.367C107.653 112.203 107.561 111.98 107.561 111.748V110.013V110.003Z" fill="#263238"/>
<path opacity="0.6" d="M107.561 110.003H126.091V111.748C126.091 111.98 125.998 112.203 125.834 112.367C125.67 112.531 125.448 112.623 125.216 112.623H108.436C108.203 112.623 107.981 112.531 107.817 112.367C107.653 112.203 107.561 111.98 107.561 111.748V110.013V110.003Z" fill="white"/>
<path d="M123.947 110.999H122.227V111.619H123.947V110.999Z" fill="#263238"/>
<path d="M121.19 110.999H119.47V111.619H121.19V110.999Z" fill="#263238"/>
<path d="M140.5 112.624H141.385C141.627 112.619 141.86 112.529 142.043 112.37C142.226 112.211 142.347 111.993 142.385 111.754L145.385 93.3086C145.409 93.1622 145.401 93.0124 145.362 92.8694C145.323 92.7263 145.254 92.5932 145.159 92.4791C145.064 92.365 144.946 92.2724 144.813 92.2077C144.679 92.1429 144.534 92.1074 144.385 92.1036L130 92.0786L126.11 112.579H126.995L140.5 112.624Z" fill="#263238"/>
<path opacity="0.6" d="M140.5 112.624H141.385C141.627 112.619 141.86 112.529 142.043 112.37C142.226 112.211 142.347 111.993 142.385 111.754L145.385 93.3086C145.409 93.1622 145.401 93.0124 145.362 92.8694C145.323 92.7263 145.254 92.5932 145.159 92.4791C145.064 92.365 144.946 92.2724 144.813 92.2077C144.679 92.1429 144.534 92.1074 144.385 92.1036L130 92.0786L126.11 112.579H126.995L140.5 112.624Z" fill="white"/>
<path opacity="0.2" d="M126.336 111.289L126.086 112.599H126.971L140.471 112.624H141.356C141.598 112.618 141.831 112.529 142.013 112.37C142.196 112.211 142.317 111.993 142.356 111.754L142.426 111.319L126.336 111.289Z" fill="black"/>
<path d="M126.106 112.613H127.001C127.244 112.608 127.476 112.518 127.659 112.359C127.842 112.201 127.963 111.982 128.001 111.743L131.001 93.2884C131.025 93.1422 131.017 92.9927 130.978 92.8499C130.939 92.7071 130.87 92.5743 130.775 92.4606C130.68 92.3468 130.562 92.2547 130.429 92.1905C130.295 92.1263 130.149 92.0915 130.001 92.0884L126.106 112.613Z" fill="#263238"/>
<path opacity="0.3" d="M126.106 112.613H127.001C127.244 112.608 127.476 112.518 127.659 112.359C127.842 112.201 127.963 111.982 128.001 111.743L131.001 93.2884C131.025 93.1422 131.017 92.9927 130.978 92.8499C130.939 92.7071 130.87 92.5743 130.775 92.4606C130.68 92.3468 130.562 92.2547 130.429 92.1905C130.295 92.1263 130.149 92.0915 130.001 92.0884L126.106 112.613Z" fill="white"/>
</svg>
