<svg width="40" height="40" viewBox="0 0 40 40" fill="none" xmlns="http://www.w3.org/2000/svg">
<path d="M32.9167 0H7.08334C3.17132 0 0 3.25262 0 7.26494V32.7351C0 36.7474 3.17132 40 7.08334 40H32.9167C36.8287 40 40 36.7474 40 32.7351V7.26494C40 3.25262 36.8287 0 32.9167 0Z" fill="#00005B"/>
<path d="M16.4327 24.549H10.2337L8.97239 28.575C8.95593 28.6486 8.91463 28.7139 8.85579 28.7593C8.79694 28.8047 8.72434 28.8273 8.65081 28.8231H5.51463C5.33589 28.8231 5.27344 28.7215 5.3273 28.5197L10.6942 12.733C10.7473 12.5681 10.8012 12.4064 10.855 12.1958C10.9253 11.8285 10.9612 11.455 10.962 11.0807C10.956 11.036 10.9674 10.9907 10.9939 10.9547C11.0204 10.9187 11.0597 10.8949 11.1032 10.8885C11.1188 10.8861 11.1346 10.8861 11.1501 10.8885H15.4165C15.5414 10.8885 15.6132 10.9342 15.6311 11.0262L21.7193 28.5477C21.7713 28.7313 21.7177 28.8231 21.5585 28.8231H18.0695C18.0096 28.8298 17.9493 28.8139 17.8999 28.7784C17.8505 28.7429 17.8154 28.6902 17.801 28.6302L16.4327 24.549ZM11.2032 21.1547H15.443C15.3353 20.7881 15.2099 20.3752 15.0668 19.9163C14.9237 19.4573 14.7718 18.9666 14.611 18.4441L14.1278 16.875C13.967 16.3525 13.8195 15.8479 13.6853 15.3612C13.551 14.8744 13.4292 14.4296 13.32 14.0267H13.2926C13.142 14.77 12.9539 15.5048 12.7291 16.2282C12.4788 17.0543 12.2238 17.8984 11.9642 18.7603C11.7045 19.6222 11.4498 20.4203 11.2 21.1547H11.2032Z" fill="#9999FF"/>
<path d="M31.5941 22.9828H26.3075C26.3722 23.5192 26.5458 24.0358 26.8172 24.499C27.1174 24.9577 27.5417 25.3164 28.038 25.5309C28.711 25.8296 29.4388 25.976 30.1719 25.96C30.7533 25.9487 31.3325 25.8833 31.9024 25.7647C32.4122 25.6934 32.9118 25.559 33.3901 25.3644C33.4796 25.2918 33.5243 25.3377 33.5243 25.5021V28.1167C33.5324 28.1819 33.5215 28.2482 33.4929 28.3071C33.4643 28.3659 33.4192 28.4147 33.3635 28.4473C32.8326 28.6883 32.274 28.8588 31.701 28.9549C30.9228 29.1052 30.1317 29.1744 29.3399 29.1614C28.0692 29.1614 27.0048 28.9597 26.1467 28.5562C25.3353 28.1895 24.6185 27.6336 24.0533 26.9327C23.5263 26.2723 23.134 25.51 22.8997 24.6912C22.6681 23.8821 22.5506 23.0431 22.5508 22.1999C22.5485 21.2794 22.689 20.3645 22.9668 19.4892C23.235 18.6355 23.6588 17.8417 24.2157 17.15C24.7648 16.4664 25.4514 15.9126 26.2287 15.5265C27.0155 15.1319 27.9459 14.9902 29.0191 14.9902C29.9094 14.9676 30.7936 15.1464 31.6089 15.5137C32.2942 15.8132 32.8975 16.2805 33.3659 16.8747C33.8058 17.4564 34.1419 18.1134 34.3587 18.8152C34.5702 19.4914 34.6789 20.1969 34.6811 20.907C34.6811 21.3105 34.6676 21.6774 34.6405 22.0077C34.614 22.3376 34.5913 22.5761 34.5741 22.7234C34.5669 22.7841 34.5383 22.8399 34.4938 22.8805C34.4492 22.921 34.3917 22.9435 34.3322 22.9436C34.225 22.9436 34.0416 22.9572 33.7819 22.9844C33.5228 23.0124 33.2004 23.03 32.8164 23.0396C32.4324 23.0493 32.0234 22.9828 31.5941 22.9828ZM26.3075 20.4755H29.8199C30.2492 20.4755 30.5666 20.471 30.7722 20.4619C30.9101 20.4477 31.0433 20.4026 31.1624 20.3298V20.1641C31.1567 19.949 31.1205 19.736 31.0547 19.5317C30.91 19.062 30.619 18.654 30.2262 18.3706C29.8335 18.0871 29.3608 17.9437 28.8809 17.9626C28.4294 17.9348 27.9797 18.0423 27.5867 18.272C27.1937 18.5017 26.8742 18.8437 26.6673 19.2563C26.4846 19.6403 26.3631 20.052 26.3075 20.4755Z" fill="#9999FF"/>
</svg>
