<svg width="40" height="40" viewBox="0 0 40 40" fill="none" xmlns="http://www.w3.org/2000/svg">
<path d="M36.3737 0H3.6263C1.62435 0 0 1.62435 0 3.6263V36.3737C0 38.3757 1.62435 40 3.6263 40H36.3737C38.3757 40 40 38.3757 40 36.3737V3.6263C40 1.62435 38.3757 0 36.3737 0ZM15.8105 10.1758C15.8105 11.543 14.6973 12.5846 13.3659 12.5846C12.0378 12.5846 10.9212 11.543 10.9212 10.1758C10.9212 8.81185 12.0345 7.77018 13.3659 7.77018C14.6973 7.77018 15.8105 8.81185 15.8105 10.1758ZM16.9238 14.8112H23.0697L22.2786 18.4245C23.3561 16.4128 25.5143 14.4987 27.6335 14.4987C29.8958 14.4987 31.7643 16.11 31.7643 19.2025C31.7643 19.9935 31.6569 20.8529 31.3704 21.8229L30.2214 25.9538C30.1139 26.3867 30.0423 26.7448 30.0423 27.0671C30.0423 27.7865 30.3288 28.1445 30.8691 28.1445C31.4095 28.1445 32.0898 27.7474 32.8809 25.5566L34.4629 26.1654C33.5286 29.4368 31.8392 30.8008 29.7201 30.8008C27.2396 30.8008 26.0547 29.3294 26.0547 27.3145C26.0547 26.7415 26.1263 26.1296 26.3053 25.5176L27.4902 21.276C27.6335 20.8073 27.6693 20.3776 27.6693 19.9837C27.6693 18.6198 26.8424 17.793 25.5143 17.793C23.8249 17.793 22.7116 19.0039 22.1354 21.3411L19.834 30.5664H15.8105L16.5332 27.6693C15.3516 29.6126 13.7077 30.8171 11.6797 30.8171C9.23503 30.8171 8.08594 29.4108 8.08594 27.2884C8.08594 26.7513 8.15755 26.0905 8.30078 25.4785L10.1335 17.9915H7.29492L8.15755 14.8112H14.9837L12.2884 25.5013C12.1094 26.1849 12.0378 26.7513 12.0378 27.1452C12.0378 27.8288 12.373 28.0273 12.9004 28.1478C13.2194 28.2194 15.7747 28.1706 17.1647 25.0781L18.9355 17.9915H16.0612L16.9238 14.8112Z" fill="#DC395F"/>
</svg>
