<svg width="40" height="40" viewBox="0 0 40 40" fill="none" xmlns="http://www.w3.org/2000/svg">
<path fill-rule="evenodd" clip-rule="evenodd" d="M6.16411 27.5762L4.07097 28.5331L3.95703 36.3189L11.2 33.0083C8.7195 31.9659 6.90306 30.1294 6.16411 27.5762Z" fill="#FDBD39"/>
<path fill-rule="evenodd" clip-rule="evenodd" d="M7.25926 19.3418L0 22.6565L4.07235 28.5325L6.16549 27.5755C5.42655 25.0305 5.88228 22.1556 7.25926 19.3418Z" fill="#F69833"/>
<path fill-rule="evenodd" clip-rule="evenodd" d="M19.4806 8.10377C10.2356 12.3306 4.27521 21.0489 6.16652 27.5764L39.647 12.2777C37.7557 5.74604 28.7256 3.88103 19.4806 8.10377Z" fill="#FECF33"/>
<path fill-rule="evenodd" clip-rule="evenodd" d="M26.3324 31.75C35.5774 27.5232 41.5509 18.8456 39.6465 12.2773L6.16602 27.5761C8.07035 34.1444 17.0875 35.9768 26.3324 31.75Z" fill="#EE6723"/>
<path fill-rule="evenodd" clip-rule="evenodd" d="M39.6465 12.2773L6.16602 27.5761C6.82033 29.8361 9.32038 30.9519 12.8296 30.9519C16.2509 30.9519 20.6292 29.8931 25.1931 27.8082C34.4381 23.5855 40.9421 16.7444 39.6465 12.2773Z" fill="#F69833"/>
<path fill-rule="evenodd" clip-rule="evenodd" d="M32.9819 8.90234C29.5606 8.90234 25.1855 9.96108 20.6184 12.046C11.3734 16.2728 4.86937 23.1098 6.16171 27.5769L39.6422 12.2781C38.9912 10.014 36.4911 8.90234 32.9819 8.90234Z" fill="#FDBD39"/>
<path fill-rule="evenodd" clip-rule="evenodd" d="M31.1329 36.7341C30.1466 36.7341 28.6947 35.6225 26.8132 33.4235C24.5866 30.8256 22.0377 27.0222 19.6353 22.714C17.2329 18.4057 15.2569 14.0934 14.0753 10.5792C12.7862 6.75145 12.6039 4.39372 13.5284 3.5793C13.7302 3.40013 13.9776 3.31055 14.2543 3.31055C15.0063 3.31055 16.4744 4.01094 19.1893 7.35412L19.2479 7.42741L19.2414 7.53329C19.2219 7.77354 19.2056 8.01787 19.1893 8.25405L19.16 8.72641L18.8931 8.3925C15.9698 4.70727 14.6808 4.30821 14.2641 4.30821C14.1436 4.30821 14.0492 4.33671 13.9809 4.39779C13.5805 4.75206 13.5544 6.47862 14.8012 10.1924C15.9633 13.6455 17.91 17.8886 20.2798 22.1398C22.6529 26.3951 25.1627 30.1415 27.3503 32.6946C29.7071 35.4433 30.7683 35.7406 31.1166 35.7406C31.2371 35.7406 31.3347 35.708 31.4064 35.6469C31.8295 35.2723 31.8295 33.4235 30.4363 29.4248L30.3712 29.2415L30.5112 29.1479C30.6511 29.0501 30.7879 28.9565 30.9148 28.8669L31.0841 28.7488L31.1622 28.9687C32.1518 31.7988 33.0731 35.3985 31.8621 36.4613C31.6603 36.6405 31.4161 36.7341 31.1329 36.7341Z" fill="#EE6723"/>
<path fill-rule="evenodd" clip-rule="evenodd" d="M26.5562 31.6319L26.5432 31.8518C26.3088 35.4678 25.6936 39.8208 24.0887 39.9959C24.0561 40 24.0236 40 23.9878 40C22.8973 40 21.8653 38.0454 20.9213 34.1932C20.0294 30.5487 19.336 25.6541 18.9714 20.4092C18.6068 15.1685 18.6101 10.1965 18.9877 6.40945C19.3978 2.28443 20.1759 0.130306 21.3022 0.00407208C21.3347 0 21.3705 0 21.4064 0C22.1974 0 23.3888 1.11982 24.6095 6.33615L23.812 6.52754C23.4051 4.78469 22.9591 3.36761 22.5197 2.39031C22.1127 1.49038 21.7156 0.993586 21.4031 0.993586C21.3933 0.993586 21.3836 0.993586 21.3738 0.993586C20.8855 1.04652 20.1759 2.52876 19.7787 6.52754C19.4109 10.2453 19.4044 15.144 19.7657 20.3156C20.127 25.4912 20.8074 30.3125 21.6863 33.8919C22.0802 35.4963 22.5099 36.8156 22.9331 37.7115C23.3237 38.5381 23.6981 38.9942 23.9943 38.9942C24.0041 38.9942 24.0138 38.9942 24.0236 38.9942C24.4924 38.9413 25.3713 37.402 25.7424 31.978L26.5562 31.6319Z" fill="#EE6723"/>
</svg>
