<svg width="16" height="16" viewBox="0 0 16 16" fill="none" xmlns="http://www.w3.org/2000/svg">
<path d="M14.93 16C13.2447 16 11.5167 15.578 9.746 14.734C7.97533 13.8893 6.32733 12.7043 4.802 11.179C3.28867 9.653 2.11 8.008 1.266 6.244C0.422 4.48 0 2.75533 0 1.07C0 0.77 0.1 0.516667 0.3 0.31C0.5 0.103333 0.75 0 1.05 0H3.523C3.795 0 4.03233 0.0856666 4.235 0.257C4.43767 0.428333 4.57467 0.647667 4.646 0.915L5.142 3.3C5.18867 3.58 5.18033 3.82433 5.117 4.033C5.05433 4.24167 4.94367 4.41267 4.785 4.546L2.59 6.592C3.00067 7.33733 3.45433 8.02933 3.951 8.668C4.44767 9.30733 4.97767 9.913 5.541 10.485C6.121 11.065 6.74567 11.605 7.415 12.105C8.08433 12.6043 8.819 13.0757 9.619 13.519L11.758 11.342C11.9207 11.1667 12.1037 11.051 12.307 10.995C12.5103 10.9397 12.735 10.9287 12.981 10.962L15.085 11.392C15.3563 11.4587 15.5767 11.5953 15.746 11.802C15.9153 12.0093 16 12.247 16 12.515V14.95C16 15.25 15.8967 15.5 15.69 15.7C15.4833 15.9 15.23 16 14.93 16Z" fill="white"/>
</svg>
