<svg width="43" height="43" viewBox="0 0 43 43" fill="none" xmlns="http://www.w3.org/2000/svg">
<path fill-rule="evenodd" clip-rule="evenodd" d="M29.3181 15.6365C29.3181 17.7101 28.4944 19.6986 27.0282 21.1648C25.562 22.631 23.5735 23.4547 21.4999 23.4547C19.4264 23.4547 17.4378 22.631 15.9717 21.1648C14.5055 19.6986 13.6818 17.7101 13.6818 15.6365C13.6818 13.563 14.5055 11.5744 15.9717 10.1083C17.4378 8.64206 19.4264 7.81836 21.4999 7.81836C23.5735 7.81836 25.562 8.64206 27.0282 10.1083C28.4944 11.5744 29.3181 13.563 29.3181 15.6365ZM25.409 15.6365C25.409 16.6733 24.9972 17.6676 24.2641 18.4007C23.531 19.1338 22.5367 19.5456 21.4999 19.5456C20.4632 19.5456 19.4689 19.1338 18.7358 18.4007C18.0027 17.6676 17.5909 16.6733 17.5909 15.6365C17.5909 14.5998 18.0027 13.6055 18.7358 12.8724C19.4689 12.1393 20.4632 11.7275 21.4999 11.7275C22.5367 11.7275 23.531 12.1393 24.2641 12.8724C24.9972 13.6055 25.409 14.5998 25.409 15.6365Z" fill="#2B459B"/>
<path fill-rule="evenodd" clip-rule="evenodd" d="M21.5 0C9.62614 0 0 9.62614 0 21.5C0 33.3739 9.62614 43 21.5 43C33.3739 43 43 33.3739 43 21.5C43 9.62614 33.3739 0 21.5 0ZM3.90909 21.5C3.90909 25.585 5.30268 29.3455 7.63836 32.3321C9.27868 30.178 11.3948 28.4323 13.8214 27.2313C16.2481 26.0304 18.9195 25.4067 21.627 25.4091C24.2996 25.4066 26.9374 26.0141 29.3395 27.1853C31.7417 28.3566 33.8448 30.0608 35.4887 32.1679C37.1822 29.9468 38.3225 27.3543 38.8151 24.605C39.3078 21.8557 39.1387 19.0285 38.3218 16.3576C37.5049 13.6866 36.0637 11.2485 34.1175 9.24507C32.1713 7.24164 29.776 5.73045 27.1298 4.83654C24.4836 3.94263 21.6626 3.69169 18.9002 4.10449C16.1377 4.5173 13.5133 5.58197 11.244 7.21042C8.97478 8.83888 7.1259 10.9843 5.8504 13.4692C4.5749 15.954 3.90944 18.7069 3.90909 21.5ZM21.5 39.0909C17.4618 39.097 13.5455 37.7078 10.4138 35.1584C11.6744 33.3538 13.3522 31.8804 15.3045 30.8636C17.2568 29.8468 19.4258 29.3166 21.627 29.3182C23.8008 29.3164 25.9436 29.8333 27.8775 30.826C29.8114 31.8186 31.4806 33.2583 32.7465 35.0255C29.5904 37.6576 25.6096 39.0967 21.5 39.0909Z" fill="#2B459B"/>
</svg>
