<svg width="36" height="36" viewBox="0 0 36 36" fill="none" xmlns="http://www.w3.org/2000/svg">
<path d="M18.056 28.46C18.4987 28.46 18.872 28.308 19.176 28.004C19.4787 27.6973 19.63 27.324 19.63 26.884C19.63 26.4413 19.4773 26.068 19.172 25.764C18.8667 25.46 18.4933 25.308 18.052 25.308C17.6093 25.308 17.236 25.4607 16.932 25.766C16.628 26.0713 16.476 26.4447 16.476 26.886C16.476 27.3287 16.6293 27.702 16.936 28.006C17.24 28.31 17.6133 28.462 18.056 28.462M17.024 21.838H18.954C19.0047 20.9687 19.168 20.262 19.444 19.718C19.72 19.1753 20.2873 18.482 21.146 17.638C22.0393 16.746 22.7033 15.9467 23.138 15.24C23.574 14.5333 23.792 13.716 23.792 12.788C23.792 11.212 23.2387 9.956 22.132 9.02C21.024 8.084 19.7133 7.616 18.2 7.616C16.7613 7.616 15.54 8.00667 14.536 8.788C13.532 9.57067 12.7967 10.4693 12.33 11.484L14.17 12.246C14.49 11.518 14.948 10.8747 15.544 10.316C16.14 9.756 17 9.476 18.124 9.476C19.4213 9.476 20.368 9.832 20.964 10.544C21.5627 11.256 21.862 12.0387 21.862 12.892C21.862 13.5853 21.6747 14.204 21.3 14.748C20.9267 15.2933 20.44 15.8413 19.84 16.392C18.68 17.4613 17.92 18.368 17.56 19.112C17.2027 19.8547 17.024 20.7633 17.024 21.838ZM18.006 36C15.518 36 13.178 35.528 10.986 34.584C8.79533 33.6387 6.88933 32.356 5.268 30.736C3.64667 29.1173 2.36333 27.2133 1.418 25.024C0.472667 22.8347 0 20.4953 0 18.006C0 15.518 0.472 13.178 1.416 10.986C2.36133 8.79533 3.644 6.88933 5.264 5.268C6.88267 3.64667 8.78667 2.36333 10.976 1.418C13.1653 0.472667 15.5047 0 17.994 0C20.482 0 22.822 0.472 25.014 1.416C27.2047 2.36133 29.1107 3.644 30.732 5.264C32.3533 6.88267 33.6367 8.78667 34.582 10.976C35.5273 13.1653 36 15.5047 36 17.994C36 20.482 35.528 22.822 34.584 25.014C33.6387 27.2047 32.356 29.1107 30.736 30.732C29.1173 32.3533 27.2133 33.6367 25.024 34.582C22.8347 35.5273 20.4953 36 18.006 36Z" fill="#2B459B"/>
</svg>
