<svg width="16" height="15" viewBox="0 0 16 15" fill="none" xmlns="http://www.w3.org/2000/svg">
<path d="M9.54732 14.7203L15.9782 7.63078L9.60425 0.398547C9.54677 0.313415 9.47358 0.242918 9.38966 0.191829C9.30573 0.140741 9.21301 0.110253 9.11779 0.102429C9.02257 0.0946053 8.92707 0.109629 8.83774 0.146483C8.74842 0.183337 8.66736 0.24116 8.60006 0.316039C8.53275 0.390918 8.48077 0.481103 8.44764 0.580491C8.41451 0.679878 8.40099 0.786146 8.40801 0.892101C8.41502 0.998056 8.44241 1.10122 8.48831 1.19462C8.53421 1.28802 8.59755 1.36946 8.67405 1.43344L13.4428 6.8612L0.697992 6.71912C0.521299 6.71715 0.351533 6.79336 0.226039 6.93098C0.100546 7.06861 0.0296046 7.25638 0.0288231 7.45298C0.0280416 7.64958 0.0974839 7.83892 0.221872 7.97933C0.34626 8.11974 0.515405 8.19973 0.692099 8.2017L13.4369 8.34378L8.62543 13.6647C8.50031 13.8029 8.42992 13.9911 8.42977 14.1878C8.42961 14.3845 8.49969 14.5737 8.62459 14.7137C8.74949 14.8537 8.91898 14.9331 9.09578 14.9343C9.27257 14.9356 9.44219 14.8587 9.56731 14.7205L9.54732 14.7203Z" fill="#2B459B"/>
</svg>
