<svg width="22" height="24" viewBox="0 0 22 24" fill="none" xmlns="http://www.w3.org/2000/svg">
<path d="M21.5392 22.9606C21.2723 23.2355 20.8312 23.2358 20.564 22.9613L14.5289 16.7636C13.4715 15.6777 11.7487 15.6664 10.3266 16.1907C9.4537 16.5125 8.57637 16.6734 7.69456 16.6734C5.5442 16.6734 3.72419 15.9089 2.23451 14.38C0.744837 12.8502 0 10.9816 0 8.77418C0 6.56678 0.743941 4.69724 2.23183 3.16558C3.7206 1.63299 5.53973 0.866699 7.68919 0.866699C9.83955 0.866699 11.6605 1.63161 13.1519 3.16144C14.6434 4.69127 15.3891 6.5608 15.3891 8.77004C15.3891 9.72802 15.224 10.6552 14.8936 11.5516C14.371 12.9658 14.3928 14.6751 15.4447 15.7551L21.5385 22.0122C21.7954 22.276 21.7958 22.6964 21.5392 22.9606ZM7.69456 15.2929C9.47608 15.2929 10.9805 14.6632 12.2079 13.4036C13.4344 12.1441 14.0476 10.5991 14.0476 8.76866C14.0476 6.93912 13.4344 5.39458 12.2079 4.13505C10.9814 2.87552 9.47743 2.24575 7.6959 2.24575C5.91438 2.24575 4.40994 2.87552 3.18257 4.13505C1.95609 5.39458 1.34286 6.93912 1.34286 8.76866C1.34286 10.5982 1.95609 12.1427 3.18257 13.4023C4.40904 14.6618 5.91304 15.2929 7.69456 15.2929Z" fill="#8196DB"/>
</svg>
