<svg width="14" height="15" viewBox="0 0 14 15" fill="none" xmlns="http://www.w3.org/2000/svg">
<path d="M13.7195 14.6532C13.545 14.8407 13.2482 14.8409 13.0734 14.6537L9.23293 10.5394C8.57501 9.83455 7.47137 9.82664 6.57145 10.1727V10.1727C6.01599 10.3863 5.45769 10.4931 4.89654 10.4931C3.52813 10.4931 2.36994 9.98566 1.42196 8.97071C0.473987 7.95514 0 6.71468 0 5.24931C0 3.78395 0.473417 2.54287 1.42025 1.52609C2.36766 0.508697 3.52528 0 4.89312 0C6.26153 0 7.42029 0.507782 8.36941 1.52334C9.31852 2.53891 9.79308 3.77998 9.79308 5.24657C9.79308 5.88252 9.68797 6.49802 9.47775 7.09307V7.09307C9.14341 8.03691 9.15695 9.16432 9.84026 9.89623L13.7191 14.0509C13.8773 14.2204 13.8775 14.4835 13.7195 14.6532V14.6532ZM4.89654 9.57675C6.03023 9.57675 6.98761 9.15868 7.76866 8.32255C8.54915 7.48642 8.93939 6.46079 8.93939 5.24565C8.93939 4.03113 8.54915 3.0058 7.76866 2.16967C6.98818 1.33354 6.03109 0.915472 4.89739 0.915472C3.7637 0.915472 2.80632 1.33354 2.02527 2.16967C1.24479 3.0058 0.854544 4.03113 0.854544 5.24565C0.854544 6.46018 1.24479 7.48551 2.02527 8.32164C2.80575 9.15777 3.76284 9.57675 4.89654 9.57675Z" fill="#8196DB"/>
</svg>
