<svg width="36" height="36" viewBox="0 0 36 36" fill="none" xmlns="http://www.w3.org/2000/svg">
<path d="M14.1599 36L13.4145 30.216C12.757 30.0227 12.0467 29.72 11.2835 29.308C10.5189 28.8947 9.86822 28.452 9.3315 27.98L3.84008 30.25L0 23.75L4.74605 20.274C4.68566 19.9113 4.63555 19.538 4.59574 19.154C4.55731 18.7713 4.53809 18.3993 4.53809 18.038C4.53809 17.702 4.55731 17.3487 4.59574 16.978C4.63418 16.6073 4.68428 16.19 4.74605 15.726L0 12.25L3.84008 5.826L9.29238 8.06C9.90734 7.56267 10.5731 7.114 11.2896 6.714C12.0034 6.314 12.6987 6.00467 13.3754 5.786L14.1579 0H21.8401L22.5854 5.824C23.3747 6.092 24.0721 6.40067 24.6774 6.75C25.2841 7.09933 25.908 7.53533 26.5491 8.058L32.1599 5.826L36 12.25L31.0954 15.842C31.208 16.2553 31.2711 16.634 31.2848 16.978C31.2986 17.3247 31.3054 17.6653 31.3054 18C31.3054 18.3107 31.2917 18.638 31.2642 18.982C31.2382 19.3273 31.1778 19.7447 31.083 20.234L35.9094 23.75L32.0693 30.25L26.5491 27.942C25.908 28.4647 25.2629 28.9133 24.6136 29.288C23.9629 29.6627 23.2869 29.9587 22.5854 30.176L21.8401 36H14.1599ZM17.9444 23C19.3802 23 20.5971 22.5153 21.5951 21.546C22.593 20.5767 23.092 19.3947 23.092 18C23.092 16.6053 22.593 15.4233 21.5951 14.454C20.5971 13.4847 19.3802 13 17.9444 13C16.5003 13 15.2814 13.4847 14.2876 14.454C13.2938 15.4233 12.7968 16.6053 12.7968 18C12.7968 19.3947 13.2938 20.5767 14.2876 21.546C15.2814 22.5153 16.5003 23 17.9444 23Z" fill="#2B459B"/>
</svg>
