<svg width="43" height="43" viewBox="0 0 43 43" fill="none" xmlns="http://www.w3.org/2000/svg">
<path d="M28.0819 34.1791C27.0557 34.1791 25.6142 33.7794 23.4556 32.4809C20.8306 30.8959 18.8003 29.4327 16.1895 26.629C13.6724 23.9204 12.4474 22.1668 10.7331 18.8078C8.79629 15.0153 9.12645 13.0273 9.49551 12.1776C9.93501 11.1621 10.5838 10.5547 11.4223 9.9519C11.8986 9.61591 12.4026 9.32789 12.928 9.09149C12.9805 9.06715 13.0294 9.04395 13.0731 9.023C13.3333 8.89677 13.7276 8.70601 14.227 8.90979C14.5603 9.04451 14.8579 9.32018 15.3237 9.81548C16.2789 10.8298 17.5843 13.089 18.0659 14.1984C18.3892 14.9462 18.6031 15.4398 18.6037 15.9934C18.6037 16.6415 18.3009 17.1414 17.9334 17.6808C17.8645 17.7821 17.7962 17.8789 17.7299 17.9729C17.3298 18.539 17.242 18.7025 17.2999 18.9946C17.4171 19.5816 18.2914 21.329 19.7282 22.8727C21.165 24.4163 22.7411 25.2982 23.2884 25.4239C23.5712 25.489 23.7263 25.3905 24.2689 24.9444C24.3467 24.8805 24.4266 24.8142 24.5102 24.748C25.0706 24.2991 25.5133 23.9816 26.101 23.9816H26.1042C26.6157 23.9816 27.0536 24.2205 27.7791 24.6144C28.7254 25.1284 30.8867 26.5158 31.8346 27.5455C32.2956 28.0459 32.5527 28.3651 32.6784 28.7234C32.8676 29.2629 32.6894 29.6857 32.5732 29.9687C32.5538 30.0157 32.5322 30.0672 32.5096 30.1244C32.2883 30.6891 32.0192 31.2306 31.7058 31.7422C31.1469 32.6422 30.5807 33.339 29.6355 33.8128C29.1501 34.06 28.6189 34.1853 28.0819 34.1791Z" fill="#2B459B"/>
<circle cx="21.5" cy="21.5" r="19.5" stroke="#2B459B" stroke-width="4"/>
</svg>
