<svg width="29" height="29" viewBox="0 0 29 29" fill="none" xmlns="http://www.w3.org/2000/svg">
<path d="M14.5048 29C12.5006 29 10.6156 28.6198 8.84983 27.8593C7.08513 27.0978 5.54974 26.0646 4.24367 24.7596C2.93759 23.4556 1.9038 21.9219 1.14228 20.1582C0.380759 18.3946 0 16.5101 0 14.5048C0 12.5006 0.380222 10.6156 1.14067 8.84983C1.90219 7.08513 2.93544 5.54974 4.24044 4.24367C5.54437 2.93759 7.07815 1.9038 8.84178 1.14228C10.6054 0.380759 12.4899 0 14.4952 0C16.4994 0 18.3844 0.380222 20.1502 1.14067C21.9149 1.90219 23.4503 2.93544 24.7563 4.24044C26.0624 5.54437 27.0962 7.07815 27.8577 8.84178C28.6192 10.6054 29 12.4899 29 14.4952C29 16.4994 28.6198 18.3844 27.8593 20.1502C27.0978 21.9149 26.0646 23.4503 24.7596 24.7563C23.4556 26.0624 21.9219 27.0962 20.1582 27.8577C18.3946 28.6192 16.5101 29 14.5048 29ZM14.5 27.3889C18.0981 27.3889 21.1458 26.1403 23.6431 23.6431C26.1403 21.1458 27.3889 18.0981 27.3889 14.5C27.3889 10.9019 26.1403 7.85417 23.6431 5.35694C21.1458 2.85972 18.0981 1.61111 14.5 1.61111C10.9019 1.61111 7.85417 2.85972 5.35694 5.35694C2.85972 7.85417 1.61111 10.9019 1.61111 14.5C1.61111 18.0981 2.85972 21.1458 5.35694 23.6431C7.85417 26.1403 10.9019 27.3889 14.5 27.3889ZM9.04639 19.9536V16.3931L17.6384 7.84128C17.7974 7.70272 17.9617 7.60069 18.1314 7.53517C18.3001 7.46857 18.4692 7.43528 18.6389 7.43528C18.8226 7.43528 19.0036 7.47019 19.1819 7.54C19.3602 7.60874 19.5224 7.71239 19.6684 7.85094L21.1587 9.37183C21.2908 9.5308 21.3913 9.6962 21.46 9.86806C21.5287 10.0399 21.5637 10.2118 21.5647 10.3836C21.5647 10.5544 21.5314 10.7268 21.4648 10.9008C21.3993 11.0759 21.2973 11.2423 21.1587 11.4002L12.6069 19.9536H9.04639ZM10.4722 18.5278H12.0028L17.5885 12.9324L16.8635 12.1349L16.0982 11.3793L10.4722 16.9972V18.5278ZM16.8635 12.1349L16.0982 11.3793L17.5885 12.9324L16.8635 12.1349Z" fill="white"/>
</svg>
