<svg width="28" height="28" viewBox="0 0 28 28" fill="none" xmlns="http://www.w3.org/2000/svg">
<g filter="url(#filter0_d_59_8460)">
<path d="M20.0257 19.9998C19.1541 19.9998 17.9297 19.6846 16.0963 18.6605C13.8668 17.4105 12.1424 16.2565 9.92495 14.0453C7.78701 11.9091 6.74662 10.5261 5.29052 7.87691C3.64554 4.88581 3.92596 3.31793 4.23941 2.64783C4.61271 1.84693 5.16371 1.36791 5.87591 0.892454C6.28044 0.627466 6.70852 0.400313 7.15474 0.213874C7.1994 0.194677 7.24092 0.176374 7.27798 0.159856C7.49901 0.0603008 7.8339 -0.0901474 8.25809 0.0705688C8.54119 0.17682 8.79392 0.394233 9.18953 0.784863C10.0009 1.58487 11.1096 3.36659 11.5186 4.2416C11.7932 4.83134 11.9749 5.22063 11.9754 5.65724C11.9754 6.16841 11.7182 6.56261 11.4061 6.98806C11.3476 7.06797 11.2895 7.14431 11.2333 7.21842C10.8935 7.66486 10.8189 7.79388 10.868 8.02424C10.9676 8.48719 11.7101 9.86533 12.9305 11.0828C14.1508 12.3002 15.4895 12.9957 15.9543 13.0948C16.1945 13.1462 16.3263 13.0685 16.7871 12.7167C16.8532 12.6663 16.921 12.614 16.992 12.5618C17.468 12.2078 17.844 11.9573 18.3432 11.9573H18.3459C18.7803 11.9573 19.1523 12.1457 19.7685 12.4564C20.5722 12.8618 22.4079 13.956 23.2129 14.7681C23.6045 15.1627 23.8229 15.4145 23.9296 15.6971C24.0903 16.1225 23.939 16.456 23.8403 16.6793C23.8238 16.7163 23.8055 16.7569 23.7863 16.802C23.5983 17.2474 23.3698 17.6745 23.1035 18.0779C22.6289 18.7878 22.148 19.3373 21.3451 19.711C20.9329 19.9059 20.4817 20.0047 20.0257 19.9998Z" fill="#121415"/>
</g>
<defs>
<filter id="filter0_d_59_8460" x="0" y="0" width="28" height="28" filterUnits="userSpaceOnUse" color-interpolation-filters="sRGB">
<feFlood flood-opacity="0" result="BackgroundImageFix"/>
<feColorMatrix in="SourceAlpha" type="matrix" values="0 0 0 0 0 0 0 0 0 0 0 0 0 0 0 0 0 0 127 0" result="hardAlpha"/>
<feOffset dy="4"/>
<feGaussianBlur stdDeviation="2"/>
<feComposite in2="hardAlpha" operator="out"/>
<feColorMatrix type="matrix" values="0 0 0 0 0 0 0 0 0 0 0 0 0 0 0 0 0 0 0.25 0"/>
<feBlend mode="normal" in2="BackgroundImageFix" result="effect1_dropShadow_59_8460"/>
<feBlend mode="normal" in="SourceGraphic" in2="effect1_dropShadow_59_8460" result="shape"/>
</filter>
</defs>
</svg>
