<svg width="251" height="185" viewBox="0 0 251 185" fill="none" xmlns="http://www.w3.org/2000/svg">
<path d="M225.737 172.346H209.119V172.472H225.737V172.346Z" fill="#EBEBEB"/>
<path d="M166.19 173.711H161.829V173.836H166.19V173.711Z" fill="#EBEBEB"/>
<path d="M208.618 167.689H198.989V167.815H208.618V167.689Z" fill="#EBEBEB"/>
<path d="M47.9923 168.533H26.3218V168.658H47.9923V168.533Z" fill="#EBEBEB"/>
<path d="M55.6392 168.533H52.4631V168.658H55.6392V168.533Z" fill="#EBEBEB"/>
<path d="M112.969 170.65H65.9651V170.775H112.969V170.65Z" fill="#EBEBEB"/>
<path d="M118.915 141.895H22.0369C21.277 141.895 20.5483 141.593 20.011 141.056C19.4737 140.518 19.1719 139.79 19.1719 139.03V2.8399C19.1785 2.08441 19.4833 1.36212 20.0198 0.830247C20.5564 0.298371 21.2813 -2.8964e-05 22.0369 2.10863e-09H118.915C119.674 2.10863e-09 120.403 0.301846 120.94 0.839136C121.478 1.37643 121.78 2.10515 121.78 2.86499V139.03C121.78 139.79 121.478 140.518 120.94 141.056C120.403 141.593 119.674 141.895 118.915 141.895ZM22.0369 0.10035C21.3107 0.101677 20.6147 0.390732 20.1012 0.904211C19.5877 1.41769 19.2986 2.11373 19.2973 2.8399V139.03C19.2986 139.756 19.5877 140.452 20.1012 140.965C20.6147 141.479 21.3107 141.768 22.0369 141.769H118.915C119.641 141.768 120.337 141.479 120.85 140.965C121.364 140.452 121.653 139.756 121.654 139.03V2.8399C121.653 2.11373 121.364 1.41769 120.85 0.904211C120.337 0.390732 119.641 0.101677 118.915 0.10035H22.0369Z" fill="#EBEBEB"/>
<path d="M227.448 141.895H130.56C129.801 141.893 129.073 141.591 128.536 141.054C127.999 140.517 127.697 139.789 127.695 139.03V2.8399C127.703 2.08483 128.008 1.36329 128.545 0.831696C129.081 0.300101 129.805 0.0012786 130.56 0H227.448C228.202 0.00261135 228.924 0.302178 229.459 0.833771C229.993 1.36536 230.296 2.08615 230.303 2.8399V139.03C230.303 139.788 230.003 140.515 229.467 141.052C228.932 141.589 228.206 141.892 227.448 141.895ZM130.56 0.10035C129.834 0.101677 129.138 0.390732 128.625 0.904211C128.111 1.41769 127.822 2.11373 127.821 2.8399V139.03C127.822 139.756 128.111 140.452 128.625 140.965C129.138 141.479 129.834 141.768 130.56 141.769H227.448C228.174 141.768 228.87 141.479 229.384 140.965C229.897 140.452 230.186 139.756 230.188 139.03V2.8399C230.186 2.11373 229.897 1.41769 229.384 0.904211C228.87 0.390732 228.174 0.101677 227.448 0.10035H130.56Z" fill="#EBEBEB"/>
<path d="M250.875 164.272H0V164.398H250.875V164.272Z" fill="#EBEBEB"/>
<path d="M189.576 80.36H218.823C219.754 80.358 220.671 80.1243 221.489 79.68C222.308 79.2356 223.003 78.5946 223.512 77.8147C224.022 77.0348 224.329 76.1404 224.406 75.2122C224.484 74.284 224.329 73.3511 223.956 72.4976C222.014 68.037 217.885 65.6186 214.152 68.9853C208.537 74.0028 208.803 64.2538 202.085 65.6236C196.209 66.8228 197.017 72.608 193.419 73.7971C189.822 74.9863 184.855 79.0304 189.576 80.36Z" fill="#FAFAFA"/>
<path d="M143.24 27.7969H164.574C165.253 27.7966 165.921 27.6277 166.518 27.3054C167.115 26.9832 167.623 26.5177 167.996 25.9507C168.369 25.3837 168.596 24.7329 168.655 24.0568C168.715 23.3807 168.605 22.7004 168.337 22.077C166.917 18.8206 163.902 17.0595 161.182 19.498C157.083 23.1808 157.274 16.046 152.371 17.0495C148.081 17.9225 148.674 22.1472 146.044 23.0102C143.415 23.8733 139.798 26.8235 143.24 27.7969Z" fill="#FAFAFA"/>
<path d="M185.487 164.333H181.974V52.0161C181.977 48.993 183.179 46.0945 185.316 43.9564C187.453 41.8183 190.351 40.6153 193.374 40.6113H196.48V44.1236H193.374C191.282 44.1262 189.277 44.9588 187.798 46.4385C186.319 47.9182 185.488 49.9241 185.487 52.0161V164.333Z" fill="#F0F0F0"/>
<path d="M209.796 22.5786H196.48V60.1998H209.796V22.5786Z" fill="#EBEBEB"/>
<path d="M196.48 60.21H209.796V60.2802C209.796 60.9682 209.523 61.628 209.037 62.1145C208.55 62.601 207.89 62.8742 207.202 62.8742H199.074C198.386 62.8742 197.726 62.601 197.24 62.1145C196.753 61.628 196.48 60.9682 196.48 60.2802V60.21Z" fill="#E6E6E6"/>
<path d="M203.138 34.4854C205.419 34.4854 207.268 32.6366 207.268 30.356C207.268 28.0754 205.419 26.2266 203.138 26.2266C200.858 26.2266 199.009 28.0754 199.009 30.356C199.009 32.6366 200.858 34.4854 203.138 34.4854Z" fill="#F0F0F0"/>
<path d="M203.138 33.4819C205.419 33.4819 207.268 31.6331 207.268 29.3525C207.268 27.0719 205.419 25.2231 203.138 25.2231C200.858 25.2231 199.009 27.0719 199.009 29.3525C199.009 31.6331 200.858 33.4819 203.138 33.4819Z" fill="#FAFAFA"/>
<path d="M203.138 45.7744C205.419 45.7744 207.268 43.9256 207.268 41.645C207.268 39.3644 205.419 37.5156 203.138 37.5156C200.858 37.5156 199.009 39.3644 199.009 41.645C199.009 43.9256 200.858 45.7744 203.138 45.7744Z" fill="#F0F0F0"/>
<path d="M203.138 44.771C205.419 44.771 207.268 42.9222 207.268 40.6416C207.268 38.361 205.419 36.5122 203.138 36.5122C200.858 36.5122 199.009 38.361 199.009 40.6416C199.009 42.9222 200.858 44.771 203.138 44.771Z" fill="#FAFAFA"/>
<path d="M203.138 57.064C205.419 57.064 207.268 55.2152 207.268 52.9346C207.268 50.654 205.419 48.8052 203.138 48.8052C200.858 48.8052 199.009 50.654 199.009 52.9346C199.009 55.2152 200.858 57.064 203.138 57.064Z" fill="#F0F0F0"/>
<path d="M203.138 56.0605C205.419 56.0605 207.268 54.2118 207.268 51.9312C207.268 49.6505 205.419 47.8018 203.138 47.8018C200.858 47.8018 199.009 49.6505 199.009 51.9312C199.009 54.2118 200.858 56.0605 203.138 56.0605Z" fill="#FAFAFA"/>
<path d="M219.22 131.483H196.044V141.599H219.22V131.483Z" fill="#EBEBEB"/>
<path d="M197.654 130.083H194.428V142.999H197.654V130.083Z" fill="#F5F5F5"/>
<path d="M220.83 130.083H217.604V142.999H220.83V130.083Z" fill="#F5F5F5"/>
<path d="M193.856 134.93H196.044V138.156H193.856C193.579 138.156 193.314 138.046 193.118 137.851C192.922 137.655 192.812 137.39 192.812 137.113V135.974C192.812 135.697 192.922 135.432 193.118 135.236C193.314 135.04 193.579 134.93 193.856 134.93Z" fill="#F5F5F5"/>
<path d="M221.397 138.157H219.209V134.93H221.397C221.674 134.93 221.939 135.04 222.135 135.236C222.33 135.432 222.44 135.697 222.44 135.974V137.113C222.44 137.39 222.33 137.655 222.135 137.851C221.939 138.047 221.674 138.157 221.397 138.157Z" fill="#F5F5F5"/>
<path d="M213.856 160.058H201.402V125.086C201.402 124.268 201.563 123.459 201.876 122.703C202.189 121.948 202.648 121.261 203.226 120.683C203.804 120.105 204.491 119.646 205.246 119.333C206.002 119.02 206.811 118.859 207.629 118.859C208.447 118.859 209.257 119.019 210.013 119.332C210.768 119.645 211.455 120.103 212.033 120.682C212.612 121.26 213.07 121.947 213.383 122.702C213.696 123.458 213.856 124.268 213.856 125.086V160.058Z" fill="#F5F5F5"/>
<path d="M202.24 157.956H213.023C213.429 157.956 213.832 158.037 214.207 158.194C214.582 158.35 214.922 158.58 215.209 158.868C215.495 159.157 215.721 159.499 215.875 159.876C216.028 160.252 216.106 160.655 216.103 161.061V164.358H199.154V161.061C199.152 160.654 199.23 160.251 199.383 159.874C199.537 159.498 199.764 159.155 200.051 158.866C200.338 158.578 200.679 158.349 201.055 158.192C201.43 158.036 201.833 157.956 202.24 157.956Z" fill="#EBEBEB"/>
<path d="M207.629 141.85C210.572 141.85 212.957 139.464 212.957 136.521C212.957 133.579 210.572 131.193 207.629 131.193C204.686 131.193 202.3 133.579 202.3 136.521C202.3 139.464 204.686 141.85 207.629 141.85Z" fill="#FAFAFA"/>
<path d="M208.898 136.521C208.899 136.772 208.826 137.018 208.687 137.227C208.548 137.437 208.35 137.6 208.118 137.697C207.886 137.794 207.631 137.82 207.384 137.771C207.138 137.723 206.911 137.602 206.733 137.425C206.555 137.248 206.434 137.022 206.384 136.775C206.335 136.529 206.36 136.273 206.456 136.041C206.551 135.809 206.714 135.61 206.923 135.471C207.132 135.331 207.378 135.256 207.629 135.256C207.965 135.256 208.287 135.389 208.525 135.626C208.763 135.863 208.897 136.185 208.898 136.521Z" fill="#EBEBEB"/>
<path d="M199.154 126.857C199.154 126.429 199.325 126.018 199.628 125.715C199.93 125.412 200.341 125.242 200.77 125.242H214.493C214.92 125.243 215.33 125.414 215.632 125.717C215.934 126.02 216.103 126.43 216.103 126.857C216.103 127.285 215.934 127.695 215.632 127.998C215.33 128.301 214.92 128.472 214.493 128.473H200.77C200.341 128.473 199.93 128.303 199.628 128C199.325 127.697 199.154 127.286 199.154 126.857Z" fill="#F0F0F0"/>
<path d="M204.919 144.75C205.347 144.75 205.757 144.92 206.06 145.221C206.363 145.523 206.534 145.933 206.535 146.361V154.705C206.535 154.917 206.493 155.127 206.412 155.323C206.331 155.519 206.212 155.697 206.062 155.847C205.912 155.997 205.733 156.116 205.537 156.197C205.341 156.279 205.131 156.32 204.919 156.32C204.492 156.319 204.082 156.148 203.78 155.845C203.478 155.543 203.309 155.132 203.309 154.705V146.361C203.309 145.933 203.478 145.524 203.78 145.222C204.082 144.92 204.492 144.75 204.919 144.75Z" fill="#EBEBEB"/>
<path d="M210.339 144.75C210.766 144.75 211.176 144.92 211.479 145.221C211.782 145.523 211.953 145.933 211.954 146.361V154.705C211.954 154.917 211.912 155.127 211.831 155.323C211.75 155.519 211.631 155.697 211.481 155.847C211.331 155.997 211.153 156.116 210.957 156.197C210.761 156.279 210.551 156.32 210.339 156.32C209.911 156.319 209.501 156.148 209.199 155.845C208.898 155.543 208.728 155.132 208.728 154.705V146.361C208.728 145.933 208.898 145.524 209.2 145.222C209.502 144.92 209.911 144.75 210.339 144.75Z" fill="#EBEBEB"/>
<path d="M36.1511 164.408H34.9168C34.8309 164.408 34.746 164.391 34.667 164.358C34.588 164.324 34.5166 164.275 34.4571 164.213C34.3976 164.151 34.3512 164.078 34.3207 163.998C34.2901 163.917 34.2762 163.832 34.2795 163.746L35.6242 133.425H38.7853L36.7783 163.816C36.767 163.976 36.6962 164.125 36.5801 164.235C36.4639 164.344 36.3108 164.406 36.1511 164.408Z" fill="#F0F0F0"/>
<path d="M41.334 164.408H40.0997C40.0141 164.408 39.9294 164.391 39.8506 164.357C39.7719 164.324 39.7008 164.275 39.6417 164.213C39.5826 164.151 39.5367 164.077 39.5067 163.997C39.4768 163.917 39.4634 163.832 39.4675 163.746L40.7971 133.425H43.9682L41.9612 163.816C41.951 163.976 41.8807 164.126 41.7643 164.236C41.6479 164.346 41.4941 164.407 41.334 164.408Z" fill="#F0F0F0"/>
<path d="M55.7345 164.408H56.9688C57.0547 164.408 57.1396 164.391 57.2186 164.358C57.2976 164.324 57.369 164.275 57.4285 164.213C57.488 164.151 57.5344 164.078 57.5649 163.998C57.5954 163.917 57.6094 163.832 57.606 163.746L56.2714 133.425H53.1003L55.1073 163.816C55.1175 163.976 55.1879 164.126 55.3043 164.236C55.4207 164.346 55.5745 164.407 55.7345 164.408Z" fill="#F0F0F0"/>
<path d="M60.8421 164.408H62.0764C62.1622 164.408 62.2472 164.391 62.3262 164.358C62.4052 164.324 62.4766 164.275 62.5361 164.213C62.5956 164.151 62.642 164.078 62.6725 163.998C62.703 163.917 62.717 163.832 62.7136 163.746L61.384 133.425H58.2029L60.2099 163.816C60.2201 163.977 60.2912 164.128 60.4087 164.238C60.5261 164.348 60.6811 164.409 60.8421 164.408Z" fill="#F0F0F0"/>
<path d="M44.1037 115.588H41.4143V129.798H44.1037V115.588Z" fill="#F0F0F0"/>
<path d="M55.9955 115.588H53.3062V129.798H55.9955V115.588Z" fill="#F0F0F0"/>
<path d="M65.1022 132.829C65.1022 135.969 57.8369 135.673 48.8756 135.673C39.9144 135.673 32.644 135.969 32.644 132.829C32.644 129.688 39.9094 127.139 48.8756 127.139C57.8419 127.139 65.1022 129.683 65.1022 132.829Z" fill="#F5F5F5"/>
<path d="M56.5921 117.134H41.1432C39.9665 117.133 38.8331 116.69 37.9692 115.891C37.1052 115.092 36.5742 113.997 36.482 112.824L35.9802 106.662C35.9333 106.021 36.0191 105.377 36.232 104.771C36.445 104.165 36.7807 103.609 37.218 103.138C37.6554 102.667 38.1852 102.292 38.7742 102.035C39.3632 101.778 39.9989 101.645 40.6415 101.645H57.0437C57.6865 101.644 58.3225 101.776 58.9119 102.033C59.5013 102.29 60.0313 102.665 60.4688 103.136C60.9064 103.607 61.242 104.164 61.4547 104.77C61.6674 105.377 61.7526 106.021 61.7049 106.662L61.2032 112.824C61.1129 113.988 60.5893 115.077 59.7357 115.875C58.8821 116.673 57.7605 117.122 56.5921 117.134Z" fill="#F5F5F5"/>
<path d="M52.6136 58.7646H34.385V73.1348H52.6136V58.7646Z" fill="#F0F0F0"/>
<path d="M34.385 58.7646H33.4016V73.1348H34.385V58.7646Z" fill="#E0E0E0"/>
<path d="M50.752 60.2305H36.2415V71.6704H50.752V60.2305Z" fill="#FAFAFA"/>
<path d="M49.5629 61.1733H37.4407V70.7317H49.5629V61.1733Z" fill="#EBEBEB"/>
<path d="M76.4365 35.4434H56.3716V60.8871H76.4365V35.4434Z" fill="#EBEBEB"/>
<path d="M56.3717 35.4434H55.4133V60.8871H56.3717V35.4434Z" fill="#E0E0E0"/>
<path d="M74.3894 38.0381H58.4187V58.2937H74.3894V38.0381Z" fill="#F5F5F5"/>
<path d="M73.0752 39.7085H59.7336V56.6325H73.0752V39.7085Z" fill="#FAFAFA"/>
<path d="M63.7622 45.6591C63.7622 45.6591 66.1204 48.9957 67.3347 48.9405C68.4435 48.8953 70.3452 45.6591 70.3452 45.6591C70.3452 45.6591 67.9869 42.3224 66.7727 42.3776C65.6488 42.4429 63.7622 45.6591 63.7622 45.6591Z" fill="#EBEBEB"/>
<path d="M69.9342 53.0649C70.6316 51.7202 66.9889 48.8954 65.4736 48.9606C64.0838 49.0208 61.1887 51.7854 61.7305 53.0649C62.5233 54.9565 68.9909 54.8862 69.9342 53.0649Z" fill="#F0F0F0"/>
<path d="M39.9643 51.1838C44.9661 51.1838 49.0209 45.5296 49.0209 38.5548C49.0209 31.58 44.9661 25.9258 39.9643 25.9258C34.9625 25.9258 30.9077 31.58 30.9077 38.5548C30.9077 45.5296 34.9625 51.1838 39.9643 51.1838Z" fill="#E0E0E0"/>
<path d="M41.0431 51.1838C46.045 51.1838 50.0997 45.5296 50.0997 38.5548C50.0997 31.58 46.045 25.9258 41.0431 25.9258C36.0413 25.9258 31.9866 31.58 31.9866 38.5548C31.9866 45.5296 36.0413 51.1838 41.0431 51.1838Z" fill="#EBEBEB"/>
<path d="M41.0431 49.3119C45.305 49.3119 48.76 44.4956 48.76 38.5544C48.76 32.6132 45.305 27.7969 41.0431 27.7969C36.7811 27.7969 33.3262 32.6132 33.3262 38.5544C33.3262 44.4956 36.7811 49.3119 41.0431 49.3119Z" fill="#E6E6E6"/>
<path d="M41.0432 48.168C44.8507 48.168 47.9372 43.8638 47.9372 38.5544C47.9372 33.245 44.8507 28.9409 41.0432 28.9409C37.2357 28.9409 34.1492 33.245 34.1492 38.5544C34.1492 43.8638 37.2357 48.168 41.0432 48.168Z" fill="#FAFAFA"/>
<path d="M43.2058 43.7776C43.9241 43.0914 44.4859 42.2584 44.8531 41.3354C45.2202 40.4123 45.384 39.421 45.3332 38.4289C45.3332 38.4289 42.4883 38.0928 42.5736 42.8594C42.5736 42.8594 39.3674 39.5328 40.3157 37.4254C41.821 34.1289 41.821 34.1289 40.7472 32.0718C40.7472 32.0718 37.9525 33.2007 39.242 37.004C39.2675 37.9956 39.4176 38.98 39.6886 39.9342C39.6886 39.9342 36.8737 37.2348 35.9656 39.0009C35.9656 39.0009 37.4708 41.8559 39.6886 40.6718C39.6735 40.6718 42.1471 45.042 43.2058 43.7776Z" fill="#EBEBEB"/>
<path d="M123.019 185C176.747 185 220.303 182.457 220.303 179.32C220.303 176.184 176.747 173.641 123.019 173.641C69.2902 173.641 25.7346 176.184 25.7346 179.32C25.7346 182.457 69.2902 185 123.019 185Z" fill="#F5F5F5"/>
<path d="M161.453 70.5508C160.103 69.1459 159.145 66.5368 158.678 64.856L156.546 69.9437C156.889 70.3396 157.137 70.808 157.273 71.3138C157.408 71.8197 157.427 72.3496 157.328 72.8639C157.328 72.909 157.253 73.762 155.823 74.6351C155.823 74.6351 156.079 79.783 159.145 79.0555C162.211 78.3279 163.876 72.2166 163.876 72.2166L164.097 70.4856C164.097 70.4856 162.702 71.6597 161.453 70.5508Z" fill="#FFC3BD"/>
<path opacity="0.1" d="M157.083 68.6992L156.581 69.9436C156.982 70.4246 157.255 70.9995 157.374 71.6144C158.779 69.9586 158.934 67.2793 158.934 67.2793L157.083 68.6992Z" fill="black"/>
<path d="M134.825 93.4606C134.825 93.4606 143.099 93.7968 146.772 92.7933C150.445 91.7898 153.565 85.3624 153.565 85.3624L149.376 83.0493L145.211 89.2459L134.835 90.9067L131.855 88.8094C131.855 88.8094 125.834 87.5249 125.834 88.3076C125.834 89.0904 128.94 89.7226 128.94 89.7226C128.94 89.7226 129.125 93.4255 130.4 93.5409C131.674 93.6563 134.825 93.4606 134.825 93.4606Z" fill="#FFC3BD"/>
<path d="M155.076 75.7638C155.076 75.7638 151.493 76.2655 149.15 80.6057C146.807 84.9458 148.809 85.1214 150.791 86.3457C152.773 87.5699 153.766 87.8509 154.679 85.1716C155.592 82.4922 157.394 75.4878 155.076 75.7638Z" fill="#407BFF"/>
<path opacity="0.1" d="M155.065 83.9474L153.736 81.238L151.503 81.0674C151.395 82.9842 151.434 84.9065 151.618 86.8174C153.068 87.5751 153.906 87.4245 154.679 85.1617C154.795 84.8205 154.93 84.409 155.065 83.9474Z" fill="black"/>
<path d="M147.931 58.4735C147.931 58.4735 145.322 59.3967 147.048 62.051C148.774 64.7052 145.292 66.5115 151.137 67.2441C156.982 67.9766 151.343 57.4048 151.343 57.4048L147.931 58.4735Z" fill="#263238"/>
<path opacity="0.3" d="M147.931 58.4735C147.931 58.4735 145.322 59.3967 147.048 62.051C148.774 64.7052 145.292 66.5115 151.137 67.2441C156.982 67.9766 151.343 57.4048 151.343 57.4048L147.931 58.4735Z" fill="black"/>
<path d="M170.404 75.1314C169.531 69.4516 166.225 69.552 163.003 70.8214C163.229 72.9588 163.234 75.6884 160.138 77.3893C157.354 78.8945 156.27 76.3858 156.21 74.2684C153.289 75.9292 150.851 78.0566 151.649 82.2964C152.105 84.7048 154.233 87.349 156.41 90.7057C159.014 94.7197 161.694 99.2756 161.694 99.2756L176.576 91.6992C176.576 91.6992 171.352 81.2829 170.404 75.1314Z" fill="#407BFF"/>
<path opacity="0.2" d="M170.404 75.1314C170.298 74.3992 170.119 73.6796 169.867 72.9839L167.614 72.6025L166.44 74.469C166.44 74.469 168.924 78.8443 172.225 81.6089C171.419 79.5107 170.809 77.3422 170.404 75.1314Z" fill="black"/>
<path d="M174.383 73.3257C174.383 73.3257 179.491 76.8379 181.051 78.1676C183.374 80.1746 189.631 86.9331 189.631 86.9331L193.469 89.0304V91.4589L191.653 92.7133C191.521 92.8049 191.371 92.8692 191.213 92.9024C191.055 92.9357 190.893 92.9371 190.734 92.9068C190.576 92.8764 190.425 92.8148 190.291 92.7256C190.157 92.6364 190.042 92.5213 189.952 92.3871L187.624 88.91C187.624 88.91 181.884 83.6667 179.772 82.1715C177.986 80.9071 172.195 77.8013 172.195 77.8013L174.383 73.3257Z" fill="#FFC3BD"/>
<path d="M164.955 70.2951C164.955 70.2951 168.247 68.8149 171.051 70.2951C173.856 71.7752 175.096 72.588 174.82 74.3743C174.544 76.1605 173.515 79.8534 171.669 79.2412C169.822 78.6291 163.932 72.7837 164.955 70.2951Z" fill="#407BFF"/>
<path d="M159.456 60.6216C159.838 64.47 160.083 66.0856 158.478 68.3485C156.059 71.7554 151.253 71.3841 149.732 67.7314C148.358 64.4399 147.966 58.6999 151.448 56.5925C152.213 56.1162 153.086 55.8439 153.986 55.8017C154.885 55.7595 155.781 55.9488 156.586 56.3516C157.392 56.7543 158.08 57.357 158.586 58.102C159.092 58.847 159.399 59.7093 159.476 60.6065L159.456 60.6216Z" fill="#FFC3BD"/>
<path d="M151.373 63.5615C151.212 64.3131 150.948 65.039 150.59 65.719C150.765 65.8075 150.957 65.8565 151.153 65.8626C151.349 65.8686 151.544 65.8316 151.724 65.7542L151.373 63.5615Z" fill="#ED893E"/>
<path d="M153.942 60.9927C153.965 60.9796 153.984 60.9605 153.997 60.9375C154.016 60.9026 154.02 60.8619 154.01 60.8237C154 60.7855 153.975 60.7526 153.942 60.7317C153.696 60.5832 153.418 60.4961 153.132 60.4778C152.845 60.4594 152.559 60.5104 152.296 60.6264C152.26 60.6465 152.234 60.6796 152.222 60.7188C152.209 60.758 152.213 60.8003 152.231 60.8371C152.249 60.8721 152.28 60.8986 152.318 60.9108C152.355 60.923 152.396 60.92 152.432 60.9023C152.651 60.81 152.889 60.771 153.126 60.7885C153.363 60.8059 153.593 60.8793 153.796 61.0027C153.819 61.014 153.845 61.019 153.87 61.0172C153.896 61.0155 153.921 61.007 153.942 60.9927Z" fill="#263238"/>
<path d="M148.196 61.966L148.262 61.9158C148.411 61.7332 148.6 61.5882 148.816 61.4923C149.031 61.3964 149.266 61.3525 149.501 61.3639C149.541 61.3696 149.583 61.3592 149.616 61.3347C149.648 61.3103 149.67 61.2739 149.677 61.2334C149.678 61.1927 149.665 61.1527 149.639 61.1213C149.613 61.0898 149.576 61.069 149.536 61.0628C149.251 61.047 148.966 61.0988 148.704 61.2139C148.443 61.329 148.212 61.5041 148.031 61.7251C148.003 61.7541 147.987 61.7928 147.987 61.833C147.987 61.8733 148.003 61.9119 148.031 61.9409C148.053 61.9603 148.08 61.9733 148.109 61.9786C148.139 61.9839 148.169 61.9812 148.196 61.971V61.966Z" fill="#263238"/>
<path d="M153.48 62.7185C153.531 63.0246 153.405 63.3006 153.199 63.3357C152.994 63.3708 152.793 63.15 152.748 62.8339C152.703 62.5178 152.818 62.2519 153.019 62.2168C153.219 62.1817 153.425 62.3874 153.48 62.7185Z" fill="#263238"/>
<path d="M149.973 63.2653C150.023 63.5714 149.898 63.8473 149.697 63.8824C149.496 63.9176 149.296 63.6918 149.24 63.3807C149.185 63.0696 149.316 62.7936 149.516 62.7635C149.717 62.7334 149.928 62.9492 149.973 63.2653Z" fill="#263238"/>
<path d="M149.607 62.7637L148.829 62.6733C148.829 62.6733 149.306 63.1901 149.607 62.7637Z" fill="#263238"/>
<path d="M153.114 62.2163L152.336 62.126C152.336 62.126 152.813 62.6227 153.114 62.2163Z" fill="#263238"/>
<path d="M154.227 67.1789C154.418 67.0861 154.6 66.9752 154.769 66.8478C154.781 66.8393 154.792 66.8285 154.799 66.8161C154.807 66.8036 154.812 66.7898 154.815 66.7753C154.817 66.7608 154.816 66.746 154.813 66.7317C154.809 66.7175 154.803 66.7041 154.794 66.6923C154.773 66.6729 154.745 66.6621 154.717 66.6621C154.688 66.6621 154.66 66.6729 154.639 66.6923C154.264 66.9792 153.828 67.1741 153.364 67.2613C152.9 67.3484 152.423 67.3254 151.97 67.194C151.956 67.1883 151.942 67.1853 151.927 67.1852C151.912 67.1851 151.898 67.188 151.884 67.1936C151.871 67.1992 151.858 67.2074 151.848 67.2179C151.838 67.2283 151.83 67.2406 151.824 67.2542C151.818 67.2679 151.814 67.2828 151.814 67.298C151.814 67.3131 151.817 67.3281 151.823 67.3419C151.83 67.3557 151.839 67.368 151.85 67.378C151.861 67.388 151.875 67.3954 151.889 67.3997C152.668 67.6328 153.506 67.5537 154.227 67.1789Z" fill="#263238"/>
<path d="M151.157 58.5139C149.652 58.6946 145.638 59.8385 146.275 56.0955C146.912 52.3524 154.082 50.4809 157.414 52.8994C160.745 55.3178 163.304 55.1372 165.944 53.1753C168.583 51.2135 169.867 51.9862 173.249 53.8125C173.249 53.8125 171.423 56.9635 172.291 58.8802C172.291 58.8802 170.284 56.8732 166.536 59.0157C166.536 59.0157 170.871 57.8667 172.516 60.8621C172.516 60.8621 172.06 64.1686 173.655 66.1355C175.251 68.1024 173.61 70.4305 167.494 68.0572C161.378 65.6839 160.725 67.8615 159.315 66.8129C157.906 65.7642 156.847 62.9243 156.626 60.8621C156.486 59.3769 155.818 57.962 151.157 58.5139Z" fill="#263238"/>
<path d="M159.983 63.2651C159.935 63.6327 159.815 63.9871 159.63 64.3083C159.445 64.6294 159.198 64.9109 158.904 65.1367C158.116 65.7287 157.359 65.1367 157.278 64.1783C157.203 63.3404 157.524 62.0158 158.462 61.785C158.669 61.7424 158.883 61.7519 159.085 61.8124C159.287 61.873 159.471 61.9828 159.621 62.1321C159.77 62.2813 159.88 62.4652 159.94 62.6674C160.001 62.8695 160.01 63.0835 159.968 63.2902L159.983 63.2651Z" fill="#FFC3BD"/>
<path d="M180.128 169.591C180.259 172.797 180.354 175.341 180.354 175.341L176.791 175.747C176.791 175.747 176.45 173.58 175.938 170.253L180.128 169.591Z" fill="#FFC3BD"/>
<path d="M175.226 174.975C174.859 175.042 174.48 174.97 174.162 174.774C174.124 174.72 174.104 174.656 174.104 174.591C174.104 174.525 174.124 174.461 174.162 174.408C174.187 174.356 174.222 174.311 174.265 174.273C174.308 174.236 174.359 174.209 174.413 174.192C175 173.991 176.285 174.618 176.34 174.648C176.356 174.656 176.369 174.668 176.378 174.684C176.387 174.699 176.391 174.716 176.39 174.734C176.388 174.751 176.381 174.767 176.369 174.78C176.357 174.792 176.342 174.801 176.325 174.804C175.964 174.894 175.597 174.951 175.226 174.975ZM174.619 174.322C174.564 174.322 174.509 174.332 174.458 174.352C174.424 174.359 174.391 174.374 174.363 174.396C174.335 174.418 174.313 174.446 174.298 174.478C174.242 174.588 174.268 174.638 174.298 174.664C174.478 174.884 175.376 174.834 176.034 174.709C175.587 174.492 175.104 174.361 174.609 174.322H174.619Z" fill="#407BFF"/>
<path d="M176.295 174.804H176.26C175.823 174.644 174.92 173.926 174.97 173.52C174.97 173.424 175.035 173.304 175.266 173.264C175.353 173.246 175.443 173.247 175.53 173.267C175.616 173.287 175.697 173.325 175.768 173.379C176.118 173.746 176.341 174.216 176.405 174.719C176.408 174.731 176.408 174.744 176.405 174.757C176.402 174.769 176.395 174.78 176.386 174.789C176.376 174.798 176.365 174.804 176.352 174.806C176.34 174.809 176.327 174.808 176.315 174.804H176.295ZM175.331 173.419H175.286C175.136 173.419 175.126 173.505 175.126 173.525C175.126 173.766 175.718 174.338 176.174 174.568C176.107 174.168 175.918 173.798 175.632 173.51C175.546 173.445 175.439 173.413 175.331 173.419Z" fill="#407BFF"/>
<path d="M176.641 174.282L180.524 174.036C180.596 174.031 180.667 174.051 180.725 174.092C180.784 174.133 180.826 174.193 180.845 174.262L181.754 177.378C181.776 177.444 181.784 177.513 181.778 177.582C181.773 177.651 181.752 177.718 181.719 177.778C181.686 177.839 181.641 177.893 181.587 177.935C181.532 177.977 181.469 178.008 181.402 178.025C181.366 178.03 181.329 178.03 181.292 178.025C179.892 178.091 178.638 178.096 176.897 178.206C174.84 178.341 175.391 178.552 172.958 178.743C171.503 178.853 171.132 177.238 171.744 177.092C174.549 176.555 174.789 175.682 175.813 174.583C176.045 174.39 176.338 174.283 176.641 174.282Z" fill="#263238"/>
<path d="M177.97 93.9174L177.293 91.4839C177.272 91.4154 177.236 91.3522 177.188 91.2986C177.141 91.245 177.082 91.2022 177.016 91.1732C176.951 91.1442 176.88 91.1296 176.808 91.1304C176.736 91.1312 176.665 91.1474 176.6 91.1778L161.417 98.8446C161.356 98.8776 161.303 98.9231 161.26 98.978C161.217 99.0329 161.186 99.0961 161.169 99.1636C161.152 99.2311 161.149 99.3013 161.161 99.3699C161.173 99.4385 161.199 99.504 161.237 99.5621L162.772 101.795C162.772 101.795 166.54 127.444 168.086 135.974C169.681 144.669 175.391 170.69 175.391 170.69C175.409 170.783 175.463 170.865 175.541 170.918C175.619 170.971 175.715 170.992 175.808 170.976L180.228 170.264C180.312 170.25 180.388 170.207 180.444 170.143C180.5 170.079 180.532 169.997 180.534 169.912C180.584 167.695 180.534 153.676 179.139 143.756C178.637 140.214 177.443 137.374 177.037 135.422C176.59 133.27 177.283 131.825 177.539 126.641C178.091 116.908 178.703 101.504 177.97 93.9174Z" fill="#263238"/>
<path opacity="0.5" d="M177.574 126.662C177.75 123.395 177.93 119.502 178.076 115.478L173.671 108.052L171.709 103.667L169.852 106.175C169.852 106.175 173.134 119.978 177.444 128.649C177.489 128.067 177.539 127.404 177.574 126.662Z" fill="black"/>
<path d="M210.985 157.318C212.832 159.943 214.031 161.669 214.031 161.669L211.236 163.936L207.543 159.782L210.985 157.318Z" fill="#FFC3BD"/>
<path d="M209.309 164.112C209.037 164.367 208.679 164.512 208.306 164.518C208.243 164.497 208.188 164.457 208.149 164.403C208.111 164.349 208.09 164.284 208.09 164.217C208.08 164.104 208.114 163.99 208.186 163.901C208.572 163.4 209.992 163.249 210.057 163.239C210.075 163.237 210.093 163.24 210.108 163.249C210.124 163.258 210.136 163.272 210.142 163.289C210.152 163.303 210.157 163.32 210.157 163.337C210.157 163.354 210.152 163.37 210.142 163.384C209.885 163.65 209.607 163.893 209.309 164.112ZM208.441 163.891C208.397 163.923 208.356 163.96 208.321 164.002C208.298 164.028 208.281 164.06 208.27 164.093C208.26 164.127 208.257 164.162 208.261 164.197C208.261 164.318 208.321 164.348 208.356 164.358C208.627 164.443 209.36 163.916 209.861 163.455C209.364 163.508 208.882 163.656 208.441 163.891Z" fill="#407BFF"/>
<path d="M210.118 163.39H210.088C209.631 163.49 208.482 163.39 208.306 163.008C208.256 162.923 208.241 162.787 208.417 162.632C208.479 162.575 208.551 162.531 208.631 162.502C208.71 162.474 208.794 162.462 208.878 162.466C209.373 162.587 209.817 162.861 210.148 163.249C210.155 163.262 210.159 163.277 210.159 163.292C210.159 163.307 210.155 163.321 210.148 163.334C210.144 163.356 210.133 163.375 210.118 163.39ZM208.557 162.747L208.517 162.772C208.402 162.873 208.427 162.928 208.437 162.948C208.562 163.154 209.375 163.309 209.887 163.254C209.61 162.956 209.25 162.748 208.853 162.657C208.747 162.651 208.642 162.683 208.557 162.747Z" fill="#407BFF"/>
<path d="M210.123 162.767L213.259 160.454C213.314 160.409 213.383 160.385 213.454 160.385C213.526 160.385 213.595 160.409 213.65 160.454L216.094 162.586C216.148 162.629 216.193 162.682 216.225 162.743C216.258 162.804 216.278 162.871 216.283 162.94C216.289 163.008 216.28 163.078 216.258 163.143C216.236 163.208 216.2 163.268 216.154 163.319C216.13 163.347 216.103 163.372 216.074 163.394C214.93 164.207 213.876 164.9 212.471 165.928C210.815 167.152 211.382 167.042 209.46 168.507C208.296 169.39 207.097 168.211 207.544 167.78C209.616 165.808 209.345 164.945 209.621 163.48C209.699 163.19 209.876 162.938 210.123 162.767Z" fill="#263238"/>
<path d="M166.852 100.109C166.852 100.109 178.477 126.907 183.971 134.895C188.854 141.99 207.388 160.143 207.388 160.143C207.525 160.291 207.714 160.38 207.914 160.392C208.115 160.404 208.313 160.338 208.467 160.208L211.041 158.021C211.182 157.899 211.275 157.732 211.305 157.548C211.334 157.365 211.297 157.176 211.201 157.017C209.621 154.443 202.968 143.741 197.127 136.777C194.799 134.002 192.561 131.965 191.458 130.434C190.008 128.427 190.349 126.792 189.2 121.177C187.062 110.736 182.898 95.3823 176.576 92.9287L166.852 100.109Z" fill="#263238"/>
<path opacity="0.3" d="M144.408 175.828H97.0483C96.2886 175.842 95.5348 175.694 94.8369 175.394C94.139 175.093 93.5131 174.648 93.0009 174.087C92.4887 173.525 92.1019 172.862 91.8663 172.139C91.6306 171.417 91.5516 170.653 91.6344 169.898L102.041 50.983C102.204 49.3755 102.95 47.8836 104.14 46.7897C105.329 45.6958 106.878 45.0759 108.493 45.0473H155.853C156.613 45.0334 157.368 45.1817 158.066 45.4823C158.764 45.783 159.39 46.229 159.903 46.7907C160.415 47.3524 160.802 48.0168 161.037 48.7397C161.272 49.4626 161.351 50.2274 161.267 50.983L150.861 169.898C150.697 171.504 149.949 172.995 148.76 174.088C147.571 175.181 146.023 175.8 144.408 175.828Z" fill="#407BFF"/>
<path d="M155.853 45.0273H108.493C106.878 45.0558 105.329 45.6758 104.14 46.7696C102.95 47.8635 102.204 49.3555 102.041 50.963L91.6344 169.878C91.5516 170.633 91.6306 171.397 91.8663 172.119C92.1019 172.842 92.4887 173.505 93.0009 174.066C93.5131 174.628 94.139 175.073 94.8369 175.373C95.5348 175.674 96.2886 175.822 97.0483 175.808H144.408C146.023 175.78 147.571 175.161 148.76 174.068C149.949 172.975 150.697 171.484 150.861 169.878L161.267 50.963C161.351 50.2073 161.272 49.4426 161.037 48.7197C160.802 47.9968 160.415 47.3323 159.903 46.7706C159.39 46.209 158.764 45.7629 158.066 45.4623C157.368 45.1617 156.613 45.0134 155.853 45.0273ZM148.227 169.898C148.135 170.791 147.719 171.619 147.058 172.226C146.397 172.834 145.537 173.178 144.639 173.194H97.2791C96.8569 173.202 96.4379 173.119 96.05 172.952C95.6621 172.785 95.3142 172.537 95.0295 172.226C94.7447 171.914 94.5296 171.545 94.3984 171.144C94.2672 170.742 94.2229 170.317 94.2686 169.898L104.675 50.983C104.766 50.0892 105.181 49.2596 105.842 48.6512C106.503 48.0428 107.364 47.6978 108.262 47.6815H155.622C156.045 47.674 156.465 47.7566 156.853 47.9239C157.241 48.0911 157.589 48.3392 157.874 48.6516C158.159 48.964 158.374 49.3335 158.505 49.7355C158.636 50.1375 158.679 50.5628 158.633 50.983L148.227 169.898Z" fill="#407BFF"/>
<path opacity="0.6" d="M155.853 45.0273H108.493C106.878 45.0558 105.329 45.6758 104.14 46.7696C102.95 47.8635 102.204 49.3555 102.041 50.963L91.6344 169.878C91.5516 170.633 91.6306 171.397 91.8663 172.119C92.1019 172.842 92.4887 173.505 93.0009 174.066C93.5131 174.628 94.139 175.073 94.8369 175.373C95.5348 175.674 96.2886 175.822 97.0483 175.808H144.408C146.023 175.78 147.571 175.161 148.76 174.068C149.949 172.975 150.697 171.484 150.861 169.878L161.267 50.963C161.351 50.2073 161.272 49.4426 161.037 48.7197C160.802 47.9968 160.415 47.3323 159.903 46.7706C159.39 46.209 158.764 45.7629 158.066 45.4623C157.368 45.1617 156.613 45.0134 155.853 45.0273ZM148.227 169.898C148.135 170.791 147.719 171.619 147.058 172.226C146.397 172.834 145.537 173.178 144.639 173.194H97.2791C96.8569 173.202 96.4379 173.119 96.05 172.952C95.6621 172.785 95.3142 172.537 95.0295 172.226C94.7447 171.914 94.5296 171.545 94.3984 171.144C94.2672 170.742 94.2229 170.317 94.2686 169.898L104.675 50.983C104.766 50.0892 105.181 49.2596 105.842 48.6512C106.503 48.0428 107.364 47.6978 108.262 47.6815H155.622C156.045 47.674 156.465 47.7566 156.853 47.9239C157.241 48.0911 157.589 48.3392 157.874 48.6516C158.159 48.964 158.374 49.3335 158.505 49.7355C158.636 50.1375 158.679 50.5628 158.633 50.983L148.227 169.898Z" fill="#121415"/>
<path d="M127.841 168.483H114.795C114.596 168.487 114.406 168.563 114.26 168.698C114.114 168.833 114.022 169.017 114.003 169.215C113.993 169.308 114.002 169.402 114.032 169.491C114.061 169.579 114.109 169.661 114.172 169.73C114.235 169.799 114.312 169.853 114.398 169.89C114.484 169.927 114.576 169.945 114.67 169.943H127.715C127.914 169.94 128.105 169.865 128.253 169.73C128.4 169.596 128.492 169.413 128.513 169.215C128.523 169.122 128.513 169.027 128.484 168.938C128.454 168.848 128.406 168.766 128.343 168.697C128.279 168.628 128.201 168.573 128.115 168.536C128.028 168.499 127.935 168.481 127.841 168.483Z" fill="#121415"/>
<path opacity="0.1" d="M127.519 100.35H113.711C113.268 100.358 112.827 100.272 112.42 100.097C112.012 99.9218 111.647 99.6617 111.348 99.3341C111.049 99.0064 110.823 98.6188 110.685 98.197C110.548 97.7752 110.502 97.329 110.55 96.888L111.759 83.0748C111.855 82.1375 112.291 81.2676 112.984 80.6297C113.677 79.9918 114.581 79.63 115.523 79.6128H129.336C129.779 79.6052 130.219 79.692 130.626 79.8675C131.033 80.043 131.399 80.3031 131.697 80.6305C131.996 80.9579 132.222 81.3452 132.36 81.7667C132.498 82.1881 132.545 82.634 132.497 83.0748L131.288 96.888C131.192 97.8262 130.756 98.6967 130.061 99.3348C129.367 99.9728 128.462 100.334 127.519 100.35Z" fill="black"/>
<path d="M126.014 98.8447H112.206C111.763 98.8531 111.322 98.7668 110.915 98.5916C110.507 98.4164 110.142 98.1563 109.843 97.8287C109.543 97.5011 109.318 97.1134 109.18 96.6916C109.043 96.2698 108.997 95.8236 109.045 95.3826L110.254 81.5695C110.35 80.6321 110.786 79.7622 111.479 79.1243C112.172 78.4864 113.075 78.1246 114.017 78.1074H127.831C128.274 78.0998 128.714 78.1867 129.121 78.3621C129.528 78.5376 129.893 78.7977 130.192 79.1251C130.491 79.4526 130.717 79.8399 130.855 80.2613C130.993 80.6827 131.039 81.1287 130.992 81.5695L129.782 95.3826C129.687 96.3208 129.25 97.1914 128.556 97.8294C127.862 98.4674 126.957 98.8287 126.014 98.8447Z" fill="#407BFF"/>
<path d="M122.337 87.2141C122.573 84.5347 120.33 82.3672 117.269 82.3672C114.208 82.3672 111.589 84.5347 111.358 87.2141C111.173 89.3265 112.553 91.1227 114.635 91.78C114.346 92.342 113.886 92.7972 113.32 93.0795C113.421 93.1413 113.526 93.1934 113.636 93.2351C114.198 93.4171 114.806 93.3981 115.355 93.1811C115.904 92.9641 116.361 92.5628 116.647 92.0459C119.577 91.9456 122.111 89.8132 122.337 87.2141Z" fill="#121415"/>
<path d="M128.694 89.5321C128.889 87.3244 127.018 85.5181 124.514 85.5181C124.074 85.519 123.636 85.5746 123.21 85.6836C123.314 86.1781 123.346 86.6852 123.305 87.1889C123.197 88.1454 122.868 89.0638 122.346 89.8725C121.824 90.6811 121.122 91.3579 120.294 91.8501C120.675 92.3413 121.159 92.7428 121.713 93.0264C122.266 93.3099 122.874 93.4684 123.496 93.4909C123.572 93.6926 123.687 93.8772 123.835 94.0341C123.983 94.1911 124.16 94.3172 124.357 94.4054C124.554 94.4935 124.766 94.5419 124.982 94.5477C125.197 94.5535 125.412 94.5166 125.613 94.4392C125.702 94.4059 125.789 94.3673 125.874 94.3238C125.495 94.108 125.208 93.7621 125.066 93.3504C127.008 92.8988 128.533 91.3634 128.694 89.5321Z" fill="#121415"/>
<path opacity="0.1" d="M121.187 143.099H110.917C110.587 143.105 110.259 143.041 109.956 142.911C109.653 142.781 109.381 142.587 109.158 142.344C108.936 142.1 108.767 141.812 108.665 141.499C108.562 141.185 108.528 140.853 108.563 140.525L109.462 130.254C109.533 129.556 109.857 128.907 110.374 128.432C110.891 127.957 111.564 127.688 112.266 127.675H122.537C122.868 127.669 123.195 127.733 123.499 127.864C123.803 127.994 124.075 128.188 124.298 128.432C124.52 128.676 124.688 128.965 124.791 129.279C124.893 129.593 124.927 129.926 124.89 130.254L123.992 140.525C123.921 141.223 123.596 141.871 123.079 142.345C122.562 142.82 121.889 143.088 121.187 143.099Z" fill="black"/>
<path opacity="0.1" d="M136.26 123.109H123.43C123.018 123.117 122.609 123.036 122.23 122.873C121.851 122.71 121.512 122.468 121.234 122.163C120.956 121.858 120.746 121.497 120.619 121.105C120.492 120.713 120.449 120.298 120.495 119.888L121.614 107.048C121.704 106.174 122.111 105.364 122.758 104.77C123.405 104.176 124.248 103.841 125.126 103.827H137.971C138.383 103.82 138.792 103.901 139.171 104.065C139.549 104.228 139.888 104.47 140.166 104.775C140.443 105.08 140.653 105.44 140.781 105.832C140.908 106.224 140.951 106.639 140.906 107.048L139.787 119.888C139.698 120.764 139.288 121.577 138.638 122.171C137.987 122.765 137.141 123.099 136.26 123.109Z" fill="black"/>
<path d="M134.755 121.604H121.925C121.513 121.611 121.103 121.531 120.725 121.368C120.346 121.205 120.006 120.962 119.728 120.658C119.451 120.353 119.241 119.992 119.114 119.6C118.986 119.208 118.944 118.793 118.99 118.383L120.109 105.543C120.198 104.669 120.605 103.859 121.253 103.265C121.9 102.671 122.743 102.336 123.621 102.322H136.466C136.878 102.315 137.287 102.396 137.665 102.559C138.044 102.723 138.383 102.965 138.66 103.27C138.938 103.574 139.148 103.935 139.275 104.327C139.403 104.719 139.446 105.133 139.401 105.543L138.282 118.383C138.192 119.259 137.783 120.072 137.133 120.666C136.482 121.26 135.636 121.594 134.755 121.604Z" fill="#407BFF"/>
<path d="M119.683 141.594H109.412C109.082 141.6 108.754 141.536 108.451 141.406C108.148 141.275 107.876 141.082 107.653 140.838C107.431 140.595 107.263 140.307 107.16 139.993C107.057 139.68 107.023 139.348 107.059 139.02L107.957 128.749C108.028 128.05 108.352 127.402 108.869 126.927C109.386 126.452 110.059 126.182 110.761 126.17H121.032C121.363 126.164 121.691 126.228 121.994 126.358C122.298 126.489 122.57 126.683 122.793 126.927C123.015 127.171 123.183 127.46 123.286 127.774C123.388 128.088 123.422 128.42 123.385 128.749L122.487 139.02C122.416 139.718 122.091 140.365 121.574 140.84C121.057 141.314 120.384 141.583 119.683 141.594Z" fill="#407BFF"/>
<path d="M135.598 106.667H123.681C123.305 106.666 122.941 106.805 122.662 107.059C122.384 107.313 122.21 107.662 122.176 108.037L121.509 115.904C121.49 116.078 121.509 116.254 121.564 116.42C121.618 116.587 121.708 116.739 121.826 116.868C121.944 116.997 122.088 117.1 122.249 117.169C122.41 117.238 122.583 117.272 122.758 117.269H134.67C135.046 117.271 135.409 117.132 135.687 116.879C135.966 116.626 136.14 116.279 136.175 115.904L136.862 108.047C136.883 107.87 136.866 107.692 136.812 107.522C136.757 107.353 136.667 107.198 136.547 107.067C136.427 106.936 136.28 106.832 136.116 106.763C135.952 106.694 135.776 106.662 135.598 106.667ZM126.471 111.956L122.482 115.623L123.125 108.288L126.471 111.956ZM123.852 107.615H135.257L129.492 112.919C129.439 112.972 129.377 113.013 129.309 113.042C129.24 113.07 129.167 113.085 129.093 113.085C129.019 113.085 128.945 113.07 128.877 113.042C128.808 113.013 128.746 112.972 128.694 112.919L123.852 107.615ZM127.083 112.633L127.961 113.596C128.093 113.738 128.253 113.851 128.431 113.927C128.609 114.003 128.801 114.041 128.995 114.038C129.407 114.035 129.803 113.877 130.104 113.596L131.153 112.633L134.514 116.316H123.079L127.083 112.633ZM131.88 111.961L135.894 108.293L135.252 115.628L131.88 111.961Z" fill="#121415"/>
<path d="M110.51 131.118L113.521 132.342L116.832 130.074L114.344 133.019L116.17 135.598L119.065 128.413L110.51 131.118Z" fill="#121415"/>
<path d="M113.315 133.024L114.67 134.68H113.225L113.315 133.024Z" fill="#121415"/>
<path d="M112.116 135.187L111.8 134.986C111.892 134.837 111.994 134.695 112.106 134.56L112.392 134.805C112.291 134.926 112.199 135.053 112.116 135.187Z" fill="#121415"/>
<path d="M111.965 137.66C111.653 137.487 111.421 137.199 111.318 136.857L111.679 136.757C111.764 137.008 111.944 137.215 112.181 137.334L111.965 137.66ZM111.649 136.365L111.273 136.335C111.31 136.008 111.407 135.69 111.559 135.397L111.9 135.568C111.768 135.816 111.683 136.086 111.649 136.365Z" fill="#121415"/>
<path d="M119.552 138.985L119.18 138.919C119.198 138.829 119.206 138.736 119.205 138.644C119.217 138.483 119.169 138.324 119.07 138.197L119.361 137.956C119.512 138.153 119.59 138.396 119.582 138.644C119.581 138.758 119.571 138.872 119.552 138.985ZM114.218 138.117H113.827V137.74C114.126 137.755 114.426 137.755 114.725 137.74V138.117H114.218ZM115.221 138.077V137.7C115.528 137.7 115.834 137.65 116.13 137.62L116.165 137.996L115.221 138.077ZM113.36 138.077H113.204C112.94 138.042 112.68 137.983 112.427 137.901L112.547 137.545C112.777 137.621 113.014 137.675 113.255 137.705H113.4L113.36 138.077ZM118.779 138.001C118.51 137.915 118.228 137.874 117.946 137.881V137.479C118.275 137.471 118.603 137.52 118.914 137.625L118.779 138.001ZM116.596 137.956L116.561 137.58C116.882 137.55 117.193 137.525 117.479 137.51V137.886C117.213 137.886 116.907 137.911 116.591 137.941L116.596 137.956Z" fill="#121415"/>
<path d="M119.241 139.938L118.895 139.788C118.965 139.627 119.025 139.471 119.07 139.336L119.426 139.451C119.376 139.602 119.316 139.762 119.241 139.938Z" fill="#121415"/>
<path opacity="0.1" d="M133.164 76.8028H121.624C121.253 76.8093 120.884 76.7366 120.543 76.5897C120.202 76.4427 119.896 76.2247 119.646 75.9503C119.396 75.676 119.207 75.3514 119.092 74.9983C118.977 74.6453 118.939 74.2717 118.98 73.9027L119.983 62.3624C120.063 61.5773 120.427 60.8486 121.008 60.3142C121.589 59.7798 122.345 59.4767 123.134 59.4623H134.674C135.046 59.4558 135.414 59.5285 135.755 59.6754C136.096 59.8224 136.402 60.0404 136.652 60.3148C136.902 60.5891 137.091 60.9137 137.206 61.2668C137.321 61.6198 137.359 61.9933 137.319 62.3624L136.315 73.9027C136.235 74.6878 135.871 75.4165 135.29 75.9509C134.709 76.4853 133.953 76.7884 133.164 76.8028Z" fill="black"/>
<path d="M131.659 75.2979H120.119C119.747 75.3044 119.379 75.2318 119.038 75.0848C118.697 74.9378 118.391 74.7198 118.141 74.4455C117.891 74.1711 117.702 73.8465 117.587 73.4935C117.472 73.1404 117.434 72.7669 117.474 72.3978L118.478 60.8575C118.558 60.0724 118.922 59.3437 119.503 58.8093C120.084 58.2749 120.84 57.9718 121.629 57.9574H133.169C133.54 57.9509 133.909 58.0236 134.25 58.1706C134.591 58.3175 134.897 58.5355 135.147 58.8099C135.397 59.0843 135.586 59.4088 135.701 59.7619C135.816 60.1149 135.854 60.4885 135.813 60.8575L134.81 72.3978C134.73 73.1829 134.366 73.9116 133.785 74.446C133.204 74.9804 132.448 75.2835 131.659 75.2979Z" fill="#407BFF"/>
<path d="M132.276 68.9753C132.2 66.9447 131.407 65.0067 130.038 63.5056C128.668 62.0045 126.81 61.0377 124.795 60.7768C124.206 60.4867 123.534 60.4092 122.894 60.5573C122.254 60.7054 121.685 61.0701 121.283 61.5896C120.279 62.8088 121.173 63.5966 122.286 64.4696C123.4 65.3427 124.399 66.01 125.387 64.7908C125.758 64.3445 125.987 63.7976 126.044 63.2203C126.971 63.5986 127.802 64.1786 128.476 64.918C129.15 65.6575 129.651 66.5378 129.943 67.4952C129.367 67.4979 128.804 67.6726 128.327 67.9969C127.028 68.88 127.6 69.9086 128.378 71.1279C129.155 72.3471 129.848 73.2904 131.142 72.4023C131.695 72.0471 132.109 71.5131 132.315 70.8894C132.522 70.2657 132.508 69.5901 132.276 68.9753Z" fill="#121415"/>
<path d="M127.445 43.0303H135.322C135.713 43.0303 135.764 42.4282 135.377 42.4282H127.51C127.123 42.4282 127.068 43.0303 127.455 43.0303H127.445Z" fill="#407BFF"/>
<path d="M138.207 43.0303H140.49C140.881 43.0303 140.931 42.4282 140.545 42.4282H138.282C137.896 42.4282 137.84 43.0303 138.232 43.0303H138.207Z" fill="#407BFF"/>
<g opacity="0.3">
<path d="M127.445 43.0303H135.322C135.713 43.0303 135.764 42.4282 135.377 42.4282H127.51C127.123 42.4282 127.068 43.0303 127.455 43.0303H127.445Z" fill="#121415"/>
</g>
<g opacity="0.3">
<path d="M138.207 43.0303H140.49C140.881 43.0303 140.931 42.4282 140.545 42.4282H138.282C137.896 42.4282 137.84 43.0303 138.232 43.0303H138.207Z" fill="#121415"/>
</g>
<path d="M153.385 103.897L152.692 111.765C152.686 111.845 152.711 111.924 152.763 111.985C152.814 112.046 152.888 112.084 152.968 112.091C153.048 112.098 153.127 112.072 153.188 112.021C153.25 111.969 153.288 111.895 153.294 111.815C153.522 109.196 153.751 106.573 153.982 103.948C153.981 103.873 153.952 103.801 153.901 103.747C153.85 103.692 153.78 103.658 153.706 103.652C153.631 103.646 153.557 103.667 153.498 103.713C153.439 103.758 153.398 103.824 153.385 103.897Z" fill="#407BFF"/>
<path d="M152.442 114.645L152.246 116.908C152.247 116.982 152.276 117.054 152.327 117.109C152.378 117.163 152.447 117.197 152.522 117.203C152.596 117.21 152.67 117.188 152.73 117.142C152.789 117.097 152.83 117.031 152.843 116.958L153.039 114.7C153.039 114.625 153.011 114.552 152.96 114.497C152.91 114.441 152.84 114.407 152.766 114.4C152.691 114.393 152.616 114.414 152.556 114.459C152.496 114.505 152.455 114.571 152.442 114.645Z" fill="#407BFF"/>
<g opacity="0.3">
<path d="M153.385 103.897L152.692 111.765C152.686 111.845 152.711 111.924 152.763 111.985C152.814 112.046 152.888 112.084 152.968 112.091C153.048 112.098 153.127 112.072 153.188 112.021C153.25 111.969 153.288 111.895 153.294 111.815C153.522 109.196 153.751 106.573 153.982 103.948C153.981 103.873 153.952 103.801 153.901 103.747C153.85 103.692 153.78 103.658 153.706 103.652C153.631 103.646 153.557 103.667 153.498 103.713C153.439 103.758 153.398 103.824 153.385 103.897Z" fill="#121415"/>
</g>
<g opacity="0.3">
<path d="M152.442 114.645L152.246 116.908C152.247 116.982 152.276 117.054 152.327 117.109C152.378 117.163 152.447 117.197 152.522 117.203C152.596 117.21 152.67 117.188 152.73 117.142C152.789 117.097 152.83 117.031 152.843 116.958L153.039 114.7C153.039 114.625 153.011 114.552 152.96 114.497C152.91 114.441 152.84 114.407 152.766 114.4C152.691 114.393 152.616 114.414 152.556 114.459C152.496 114.505 152.455 114.571 152.442 114.645Z" fill="#121415"/>
</g>
<path d="M83.717 68.8851C83.717 68.8851 80.8069 68.4888 81.1581 70.004C81.414 71.1079 82.3924 68.9353 83.717 68.8851Z" fill="#263238"/>
<path d="M81.1882 72.3269C81.1882 72.3269 83.5866 72.3018 83.9579 67.9316C83.9579 67.9316 86.2459 67.1338 87.5454 68.5588C88.8449 69.9837 85.8595 72.7434 87.5053 74.1784C87.5053 74.1784 85.8595 75.0765 81.1882 72.3269Z" fill="#FF8B7B"/>
<path d="M90.064 56.8881C90.064 56.8881 93.1547 56.2258 93.9575 58.4987C94.7603 60.7717 89.3816 59.7732 89.3816 59.7732L90.064 56.8881Z" fill="#263238"/>
<path opacity="0.3" d="M90.064 56.8881C90.064 56.8881 93.1547 56.2258 93.9575 58.4987C94.7603 60.7717 89.3816 59.7732 89.3816 59.7732L90.064 56.8881Z" fill="black"/>
<path d="M92.593 62.5535C92.6431 62.2624 92.8338 62.0517 93.0245 62.0868C93.2151 62.122 93.3305 62.3778 93.2804 62.6689C93.2302 62.9599 93.0345 63.1706 92.8489 63.1405C92.6632 63.1104 92.5428 62.8445 92.593 62.5535Z" fill="#263238"/>
<path d="M92.7435 63.1001L94.0932 65.2877C93.8371 65.4458 93.5474 65.5413 93.2476 65.5666C92.9477 65.5919 92.6461 65.5462 92.3672 65.4332L92.7435 63.1001Z" fill="#FF5652"/>
<path d="M82.5226 61.1482C82.352 64.8661 82.2015 66.4416 83.8623 68.5339C86.5065 70.7717 90.9721 71.0828 92.2465 67.4853C93.3955 64.254 93.4808 58.7298 90.0188 56.8532C89.2579 56.4404 88.4041 56.2291 87.5385 56.2391C86.6729 56.2492 85.8243 56.4804 85.0732 56.9107C84.3221 57.341 83.6935 57.9563 83.2471 58.6979C82.8007 59.4396 82.5513 60.283 82.5226 61.1482Z" fill="#FF8B7B"/>
<path d="M92.1262 61.6347C92.1508 61.6483 92.1784 61.6554 92.2065 61.6554C92.2346 61.6554 92.2622 61.6483 92.2867 61.6347C92.4591 61.5042 92.6598 61.4162 92.8725 61.3779C93.0852 61.3395 93.304 61.3519 93.511 61.4139C93.5529 61.4304 93.5997 61.4296 93.6411 61.4117C93.6824 61.3939 93.715 61.3604 93.7318 61.3186C93.7485 61.2759 93.7478 61.2285 93.73 61.1863C93.7122 61.1441 93.6786 61.1106 93.6364 61.0928C93.3761 61.0083 93.0992 60.9879 92.8293 61.0334C92.5594 61.0788 92.3044 61.1887 92.086 61.3537C92.0674 61.3654 92.0514 61.3807 92.0388 61.3987C92.0261 61.4167 92.0172 61.4371 92.0126 61.4586C92.0079 61.4801 92.0076 61.5023 92.0116 61.5239C92.0156 61.5455 92.0238 61.5661 92.0359 61.5845C92.0591 61.6114 92.0911 61.6291 92.1262 61.6347Z" fill="#263238"/>
<path d="M79.5024 73.0795C79.5024 73.0795 80.536 70.2246 84.816 72.0459C89.0959 73.8673 89.4973 76.376 89.4973 76.376L79.5024 73.0795Z" fill="#263238"/>
<path opacity="0.4" d="M79.5024 73.0795C79.5024 73.0795 80.536 70.2246 84.816 72.0459C89.0959 73.8673 89.4973 76.376 89.4973 76.376L79.5024 73.0795Z" fill="black"/>
<path d="M81.4238 127.188C81.4238 127.188 80.8167 132.392 80.5257 134.113C80.2648 135.618 71.9959 175.106 71.9959 175.106L68.2378 174.483C68.2378 174.483 67.8214 154.479 70.7165 141.237C71.3136 138.528 72.5127 136.26 72.9493 134.188C73.3005 132.527 72.7686 127.389 72.7686 127.389L81.4238 127.188Z" fill="#FF8B7B"/>
<path d="M65.7294 126.34C65.7294 126.34 63.9783 131.107 63.1604 132.582C62.2723 134.188 58.9006 138.558 58.9006 138.558L40.938 163.761L37.501 161.588C37.501 161.588 42.684 147.71 50.4913 136.41C52.3528 133.716 55.0321 131.664 56.5123 128.99C57.3502 127.454 58.0627 122.156 58.0627 122.156L65.7294 126.34Z" fill="#FF8B7B"/>
<path d="M70.5457 78.0918C70.5457 78.0918 66.2457 83.5759 66.612 85.8789C66.9783 88.182 73.7168 90.9868 73.7168 90.9868L75.4277 88.5533L71.0023 85.322L75.217 80.4902L70.5457 78.0918Z" fill="#FF8B7B"/>
<path d="M77.6556 72.6033C77.1188 72.3474 74.7355 71.3941 69.5925 78.0774C69.5925 78.0774 71.4641 80.4105 75.473 81.8004C75.473 81.7853 79.9888 73.6921 77.6556 72.6033Z" fill="#263238"/>
<path opacity="0.4" d="M75.4729 81.7855C75.4729 81.7855 76.2256 80.4409 76.9782 78.775C76.8578 75.9101 76.5066 72.3527 75.5031 73.6321C74.1684 75.328 72.322 78.7449 71.7148 79.8889C72.8763 80.6876 74.1405 81.3256 75.4729 81.7855Z" fill="black"/>
<path d="M71.424 94.8306C76.3663 97.4983 81.8255 99.0693 87.4298 99.4366L81.6296 131.754C81.6296 131.754 64.9013 131.699 56.1558 123.39C56.1558 123.37 59.6429 105.759 71.424 94.8306Z" fill="#407BFF"/>
<path d="M70.7168 94.9011C70.7168 94.9011 77.4152 99.8383 88.0823 99.5021C88.0823 99.5021 94.2087 82.553 90.3703 76.818C87.997 73.2757 78.8853 71.6751 76.4317 72.6836C73.4764 73.8978 75.1874 84.5249 70.7168 94.9011Z" fill="#263238"/>
<path opacity="0.1" d="M72.3223 112.312L64.8713 128.603C67.4838 129.552 70.1685 130.289 72.8993 130.806C72.8993 130.806 73.1502 115.588 72.3223 112.312Z" fill="black"/>
<path opacity="0.4" d="M87.5603 79.5928L86.3762 80.4658C87.3246 83.7657 88.8169 86.8842 90.7916 89.693C91.2983 87.3283 91.5789 84.9208 91.6295 82.5029L88.9903 80.2802L87.5603 79.5928Z" fill="black"/>
<path d="M94.274 82.041L98.288 87.6355L108.378 88.3079L110.23 86.7675C110.353 86.6632 110.505 86.6 110.666 86.5869L116.055 86.1604C116.094 86.1582 116.133 86.1642 116.169 86.1781C116.205 86.1919 116.238 86.2133 116.266 86.2408C116.293 86.2682 116.314 86.3012 116.328 86.3375C116.342 86.3738 116.348 86.4126 116.346 86.4514L116.316 86.908C116.31 86.9732 116.282 87.0344 116.236 87.0811C116.191 87.1278 116.13 87.1571 116.065 87.1639L113.511 87.3646L113.009 89.9787C112.98 90.1259 112.91 90.2619 112.807 90.371C112.704 90.4802 112.573 90.5581 112.427 90.5958L110.42 91.0976C110.292 91.1328 110.157 91.1328 110.029 91.0976L108.614 90.7414C108.614 90.7414 100.752 92.3269 97.144 91.6897C93.5364 91.0524 89.979 85.1669 89.979 85.1669L94.274 82.041Z" fill="#FF8B7B"/>
<path d="M89.6275 86.3009C89.6275 86.3009 83.165 77.6558 87.1539 75.6488C91.1428 73.6418 95.3324 82.5228 95.3324 82.5228C95.3324 82.5228 93.6967 85.0215 89.6275 86.3009Z" fill="#263238"/>
<path d="M72.8188 174.879C72.7995 174.876 72.7819 174.866 72.7684 174.851C72.7549 174.837 72.7462 174.819 72.7435 174.799C72.7406 174.779 72.7437 174.758 72.7527 174.739C72.7616 174.72 72.7759 174.704 72.7937 174.694C72.8589 174.664 74.3391 173.886 75.0265 174.107C75.09 174.125 75.1494 174.156 75.201 174.197C75.2527 174.238 75.2957 174.29 75.3275 174.348C75.3728 174.41 75.3972 174.484 75.3972 174.561C75.3972 174.638 75.3728 174.712 75.3275 174.774C74.9655 175.014 74.5274 175.11 74.0982 175.045C73.6674 175.031 73.239 174.975 72.8188 174.879ZM73.1449 174.759C73.9126 174.884 74.9612 174.92 75.1519 174.654C75.182 174.624 75.2121 174.563 75.1519 174.438C75.1336 174.401 75.1075 174.37 75.0754 174.344C75.0433 174.319 75.006 174.301 74.9663 174.292C74.9047 174.272 74.8403 174.262 74.7756 174.262C74.2054 174.323 73.652 174.491 73.1449 174.759Z" fill="#407BFF"/>
<path d="M72.7537 174.875C72.739 174.865 72.7273 174.851 72.7202 174.835C72.7131 174.819 72.7108 174.802 72.7136 174.784C72.7136 174.729 72.8741 173.615 73.416 173.199C73.4944 173.138 73.584 173.094 73.6797 173.069C73.7754 173.044 73.8751 173.039 73.973 173.053C74.2439 173.088 74.3192 173.229 74.3292 173.344C74.3994 173.811 73.3658 174.674 72.8591 174.88H72.8189C72.7972 174.885 72.7743 174.883 72.7537 174.875ZM73.8977 173.234C73.7743 173.227 73.6528 173.267 73.5565 173.344C73.231 173.69 73.0207 174.128 72.9544 174.599C73.4562 174.313 74.1636 173.635 74.1486 173.349C74.1486 173.324 74.1486 173.254 73.9579 173.234H73.8977Z" fill="#407BFF"/>
<path d="M72.4174 174.283L67.9016 174.112C67.8183 174.109 67.7366 174.135 67.67 174.186C67.6034 174.236 67.5559 174.307 67.5354 174.388L66.577 178.046C66.5356 178.201 66.5571 178.366 66.637 178.505C66.717 178.644 66.8487 178.746 67.0035 178.788C67.0467 178.796 67.0908 178.796 67.134 178.788C68.7697 178.823 70.2248 178.788 72.2619 178.869C74.6652 178.959 74.0431 179.22 76.8679 179.37C78.5688 179.456 78.9502 177.534 78.2327 177.413C74.9462 176.877 74.6401 175.863 73.4109 174.634C73.1328 174.401 72.78 174.276 72.4174 174.283Z" fill="#263238"/>
<path d="M41.4999 164.007C41.4853 163.993 41.4748 163.975 41.4695 163.956C41.4642 163.936 41.4643 163.916 41.4698 163.896C41.4761 163.877 41.4883 163.861 41.5045 163.849C41.5207 163.837 41.5402 163.831 41.5601 163.831C41.6354 163.831 43.3062 163.831 43.823 164.333C43.9198 164.427 43.9772 164.554 43.9836 164.689C43.9936 164.765 43.9797 164.842 43.9437 164.909C43.9077 164.977 43.8515 165.031 43.7829 165.065C43.3498 165.114 42.9141 165.001 42.5586 164.749C42.184 164.534 41.8296 164.286 41.4999 164.007ZM41.8461 164.047C42.4733 164.503 43.3965 165.005 43.6976 164.86C43.7377 164.86 43.7879 164.809 43.7829 164.664C43.7833 164.623 43.7745 164.582 43.7572 164.545C43.7398 164.507 43.7143 164.474 43.6825 164.448C43.6362 164.404 43.5838 164.367 43.527 164.338C42.9882 164.145 42.4181 164.055 41.8461 164.072V164.047Z" fill="#407BFF"/>
<path d="M41.4593 163.977C41.4494 163.962 41.4441 163.944 41.4441 163.926C41.4441 163.908 41.4494 163.891 41.4593 163.876C41.4894 163.836 42.1266 162.908 42.804 162.782C42.8998 162.763 42.9985 162.764 43.0941 162.784C43.1898 162.804 43.2805 162.842 43.3609 162.898C43.5867 163.053 43.5968 163.214 43.5516 163.319C43.4011 163.771 42.0915 164.077 41.5446 164.032C41.5316 164.036 41.5175 164.036 41.5045 164.032C41.4828 164.02 41.4667 164 41.4593 163.977ZM43.2205 163.033C43.1133 162.97 42.9863 162.948 42.8642 162.973C42.4176 163.138 42.0322 163.435 41.7604 163.826C42.3625 163.826 43.2656 163.505 43.391 163.249C43.391 163.224 43.4212 163.154 43.2706 163.053H43.2205V163.033Z" fill="#407BFF"/>
<path d="M41.4093 163.294L37.4404 161.096C37.3678 161.056 37.2835 161.041 37.2014 161.055C37.1193 161.068 37.0444 161.11 36.9888 161.172L34.4801 164.007C34.4267 164.066 34.3855 164.135 34.3588 164.21C34.3322 164.285 34.3206 164.365 34.3248 164.445C34.329 164.525 34.3489 164.603 34.3833 164.675C34.4177 164.747 34.4659 164.811 34.5253 164.865L34.6306 164.94C36.0757 165.707 37.3953 166.335 39.1765 167.323C41.2788 168.487 40.6065 168.442 43.06 169.832C44.5653 170.68 45.7494 169.134 45.1623 168.703C42.473 166.741 42.6536 165.692 42.1117 164.047C41.9733 163.721 41.7246 163.455 41.4093 163.294Z" fill="#263238"/>
<path d="M88.8097 64.3447C88.8097 64.3447 90.3149 63.8429 89.763 61.6603C89.763 61.6603 90.6511 60.155 90.5106 59.3573C90.5106 59.3573 95.0264 56.7532 92.4474 53.8982C89.8684 51.0433 85.1871 52.9499 83.1148 56.5976C83.1148 56.5976 72.1014 60.1801 79.7682 66.9136C87.2292 73.4915 88.8097 64.3447 88.8097 64.3447Z" fill="#263238"/>
<path d="M84.2639 58.1278C84.2639 58.1278 82.5429 54.3496 85.1269 51.4946C87.7109 48.6397 83.4109 55.5187 84.2639 58.1278Z" fill="#263238"/>
<path d="M88.8094 64.3446C88.8523 64.3306 88.8942 64.3138 88.9349 64.2944C88.9349 61.4645 87.8461 58.0727 83.6715 55.7646C83.4709 56.0355 83.285 56.3168 83.1146 56.6076C83.1146 56.6076 82.7985 56.713 82.3118 56.9137C83.7568 58.449 87.7256 63.5317 83.2651 69.0861C87.7357 70.481 88.8094 64.3446 88.8094 64.3446Z" fill="#407BFF"/>
<path d="M88.9853 63.0198C89.4977 63.5811 89.7666 64.3227 89.7329 65.082C89.6777 66.0855 88.6943 66.2812 87.9116 65.7393C87.2041 65.2375 86.3812 64.1337 86.8228 63.2305C86.9221 63.0387 87.0678 62.8748 87.2467 62.7538C87.4255 62.6327 87.6318 62.5583 87.8468 62.5374C88.0617 62.5164 88.2785 62.5496 88.4774 62.6338C88.6762 62.7181 88.8509 62.8508 88.9853 63.0198Z" fill="#FF8B7B"/>
<path d="M92.9541 62.0914L93.7669 62.0513C93.7669 62.0513 93.2351 62.558 92.9541 62.0914Z" fill="#263238"/>
<path opacity="0.2" d="M85.5129 69.5776C85.9202 70.4008 86.547 71.0954 87.3243 71.5846C87.4998 71.1294 87.6522 70.6655 87.7808 70.1948C86.995 70.1211 86.2278 69.9123 85.5129 69.5776Z" fill="black"/>
</svg>
