<svg width="15" height="20" viewBox="0 0 15 20" fill="none" xmlns="http://www.w3.org/2000/svg">
<path fill-rule="evenodd" clip-rule="evenodd" d="M1.75 6.8795C0.69421 6.2045 0 5.05875 0 3.75913C0 1.77575 1.61684 0.151125 3.66671 0.00999999V0H10.6842V0.00287509C12.7963 0.0816251 14.4832 1.73325 14.4832 3.75913C14.4832 5.05875 13.7888 6.20438 12.7333 6.8795C13.7888 7.5545 14.4832 8.70025 14.4832 10C14.4832 12.0761 12.7116 13.7591 10.5263 13.7591C9.56249 13.7604 8.63155 13.4262 7.90947 12.8197V13.8792C7.91237 13.9162 7.91382 13.9536 7.91382 13.9914V17.5152C7.91382 18.8872 6.74263 20 5.29829 20H3.95697C1.77158 20 0 18.317 0 16.2409C0 14.9412 0.694342 13.7956 1.75 13.1205C0.69421 12.4454 0 11.2998 0 10C0 8.70037 0.694342 7.55463 1.75 6.8795ZM1.58895 3.75913C1.58895 2.51663 2.64908 1.5095 3.95697 1.5095H6.325V6.00875H3.95697C2.64908 6.00875 1.58895 5.0015 1.58895 3.75913ZM10.5263 6.00875H8.15829V1.5095H10.5263C11.8341 1.5095 12.8943 2.51663 12.8943 3.75913C12.8943 5.0015 11.8341 6.00875 10.5263 6.00875ZM3.95697 12.2496C2.64908 12.2496 1.58895 11.2424 1.58895 10C1.58895 8.75762 2.64908 7.75037 3.95697 7.75037H6.325V12.2496H3.95697ZM3.95697 18.4906C2.64908 18.4906 1.58895 17.4832 1.58895 16.2409C1.58895 14.9985 2.64908 13.9914 3.95697 13.9914H6.325V17.5152C6.32493 17.7739 6.21674 18.022 6.02421 18.2049C5.83168 18.3878 5.57057 18.4906 5.29829 18.4906H3.95697ZM10.5263 12.2496C11.8341 12.2496 12.8943 11.2424 12.8943 10C12.8943 8.7575 11.8341 7.75037 10.5263 7.75037C9.21842 7.75037 8.15829 8.75762 8.15829 10C8.15829 11.2424 9.21842 12.2496 10.5263 12.2496Z" fill="#EEEEEE"/>
</svg>
