<svg width="68" height="29" viewBox="0 0 68 29" fill="none" xmlns="http://www.w3.org/2000/svg">
<path fill-rule="evenodd" clip-rule="evenodd" d="M67.4363 12.9348L55.1248 0.995403C54.3737 0.267157 53.1553 0.267157 52.4043 0.995403C51.653 1.72457 51.653 2.9055 52.4043 3.63375L61.4318 12.3884H2.66915C1.60692 12.3884 0.745605 13.2233 0.745605 14.254C0.745605 15.2837 1.60692 16.1196 2.66915 16.1196H61.4318L52.4045 24.8742C51.6532 25.6015 51.6532 26.7834 52.4045 27.5116C52.7801 27.8753 53.2726 28.0571 53.7649 28.0571C54.2572 28.0571 54.7495 27.8753 55.125 27.5116L67.4363 15.5722C68.1876 14.8449 68.1876 13.663 67.4363 12.9348Z" fill="#254989"/>
</svg>
