<svg width="20" height="20" viewBox="0 0 20 20" fill="none" xmlns="http://www.w3.org/2000/svg">
<path d="M20 9.37629C20 14.5547 15.5225 18.7526 10 18.7526C9.00951 18.7549 8.02306 18.6171 7.06625 18.3427C6.33625 18.7392 4.66 19.5 1.84 19.9956C1.59 20.0385 1.4 19.7599 1.49875 19.5107C1.94125 18.3909 2.34125 16.8988 2.46125 15.5378C0.93 13.8903 0 11.7338 0 9.37629C0 4.1979 4.4775 0 10 0C15.5225 0 20 4.1979 20 9.37629ZM6.25 9.37629C6.25 9.02104 6.1183 8.68034 5.88388 8.42914C5.64946 8.17794 5.33152 8.03682 5 8.03682C4.66848 8.03682 4.35054 8.17794 4.11612 8.42914C3.8817 8.68034 3.75 9.02104 3.75 9.37629C3.75 9.73154 3.8817 10.0722 4.11612 10.3234C4.35054 10.5746 4.66848 10.7158 5 10.7158C5.33152 10.7158 5.64946 10.5746 5.88388 10.3234C6.1183 10.0722 6.25 9.73154 6.25 9.37629ZM11.25 9.37629C11.25 9.02104 11.1183 8.68034 10.8839 8.42914C10.6495 8.17794 10.3315 8.03682 10 8.03682C9.66848 8.03682 9.35054 8.17794 9.11612 8.42914C8.8817 8.68034 8.75 9.02104 8.75 9.37629C8.75 9.73154 8.8817 10.0722 9.11612 10.3234C9.35054 10.5746 9.66848 10.7158 10 10.7158C10.3315 10.7158 10.6495 10.5746 10.8839 10.3234C11.1183 10.0722 11.25 9.73154 11.25 9.37629ZM15 10.7158C15.3315 10.7158 15.6495 10.5746 15.8839 10.3234C16.1183 10.0722 16.25 9.73154 16.25 9.37629C16.25 9.02104 16.1183 8.68034 15.8839 8.42914C15.6495 8.17794 15.3315 8.03682 15 8.03682C14.6685 8.03682 14.3505 8.17794 14.1161 8.42914C13.8817 8.68034 13.75 9.02104 13.75 9.37629C13.75 9.73154 13.8817 10.0722 14.1161 10.3234C14.3505 10.5746 14.6685 10.7158 15 10.7158Z" fill="#121415"/>
</svg>
