<svg width="62" height="27" viewBox="0 0 62 27" fill="none" xmlns="http://www.w3.org/2000/svg">
<path d="M0.764 27L5.084 2.52H12.68C15.248 2.52 17.12 3.216 18.296 4.608C19.472 5.976 19.88 7.8 19.52 10.08L19.196 12.096C18.884 14.112 18.032 15.72 16.64 16.92C15.272 18.12 13.316 18.72 10.772 18.72H6.56L5.084 27H0.764ZM12.428 6.66H8.684L7.28 14.58H11.024C12.08 14.58 12.932 14.352 13.58 13.896C14.252 13.416 14.66 12.756 14.804 11.916L15.128 10.008C15.32 8.952 15.176 8.136 14.696 7.56C14.24 6.96 13.484 6.66 12.428 6.66ZM32.703 12.24C32.127 12.24 31.395 12.468 30.507 12.924C29.619 13.356 28.467 14.28 27.051 15.696L25.071 27H20.931L25.611 0.36H29.751L27.771 11.592C29.091 10.32 30.267 9.468 31.299 9.036C32.331 8.604 33.267 8.388 34.107 8.388C35.331 8.388 36.303 8.688 37.023 9.288C37.767 9.864 38.271 10.668 38.535 11.7C38.799 12.732 38.811 13.896 38.571 15.192L36.483 27H32.343L34.395 15.264C34.779 13.248 34.215 12.24 32.703 12.24ZM42.4945 27L46.8145 2.52H54.4105C56.9785 2.52 58.8505 3.216 60.0265 4.608C61.2025 5.976 61.6105 7.8 61.2505 10.08L60.9265 12.096C60.6145 14.112 59.7625 15.72 58.3705 16.92C57.0025 18.12 55.0465 18.72 52.5025 18.72H48.2905L46.8145 27H42.4945ZM54.1585 6.66H50.4145L49.0105 14.58H52.7545C53.8105 14.58 54.6625 14.352 55.3105 13.896C55.9825 13.416 56.3905 12.756 56.5345 11.916L56.8585 10.008C57.0505 8.952 56.9065 8.136 56.4265 7.56C55.9705 6.96 55.2145 6.66 54.1585 6.66Z" fill="#888FC2"/>
</svg>
