<svg width="294" height="260" viewBox="0 0 294 260" fill="none" xmlns="http://www.w3.org/2000/svg">
<rect x="0.388184" y="118.646" width="292.777" height="10.0845" fill="#407BFF"/>
<rect opacity="0.3" x="0.388184" y="118.646" width="78.3581" height="10.0845" fill="white"/>
<path d="M80 128.73H73.1836L76.7512 255.122H80H83.2487L86.825 128.73H80Z" fill="#407BFF"/>
<path opacity="0.3" d="M76.7484 255.121H79.998V131.442L73.292 132.617L76.7484 255.121Z" fill="white"/>
<path d="M15.3877 128.73H8.57129L12.1389 255.122H15.3877H18.6364L22.204 128.73H15.3877Z" fill="#407BFF"/>
<path opacity="0.3" d="M12.1403 255.121H15.3899V131.442L8.67529 132.617L12.1403 255.121Z" fill="white"/>
<path d="M278.164 128.73H271.348L274.915 255.122H278.164H281.413L284.989 128.73H278.164Z" fill="#407BFF"/>
<path opacity="0.3" d="M274.915 255.121H278.164V131.442L271.458 132.617L274.915 255.121Z" fill="white"/>
<path d="M213.552 128.73H206.735L210.303 255.122H213.552H216.8L220.368 128.73H213.552Z" fill="#407BFF"/>
<path opacity="0.3" d="M210.309 255.121H213.559V131.442L206.853 132.617L210.309 255.121Z" fill="white"/>
<path d="M139.36 64.6558H69.7481C68.6023 64.6122 67.5038 65.0976 66.7931 65.9616C66.0823 66.8255 65.845 67.9638 66.1547 69.0238L75.427 111.505C76.0401 113.973 78.2839 115.753 80.9249 115.864H150.588C151.732 115.907 152.828 115.423 153.539 114.561C154.249 113.699 154.488 112.564 154.182 111.505L144.901 69.0238C144.286 66.5376 142.019 64.7505 139.36 64.6558Z" fill="#263238"/>
<path d="M81.5314 113.444C79.7502 113.329 78.2481 112.127 77.8087 110.466L68.5363 67.9849C68.3756 67.4155 68.4929 66.8069 68.8552 66.3304C69.231 65.9224 69.7793 65.7002 70.346 65.7264H140.009C141.79 65.8419 143.292 67.0435 143.732 68.7047L153.004 111.186C153.165 111.755 153.048 112.364 152.685 112.84C152.312 113.251 151.762 113.474 151.195 113.444H81.5314Z" fill="white"/>
<path opacity="0.4" d="M134.084 110.042L125.294 69.7621C125.194 69.2793 125.323 68.7788 125.647 68.3966C125.97 68.0144 126.453 67.7902 126.966 67.7849H138.272C139.08 67.7909 139.774 68.3342 139.944 69.092L148.734 109.339C148.834 109.822 148.705 110.323 148.381 110.705C148.058 111.087 147.575 111.311 147.062 111.316H135.756C134.959 111.314 134.267 110.787 134.084 110.042Z" fill="#407BFF"/>
<path d="M74.3328 71.3103L73.9536 69.5647H87.9138L88.293 71.3103H74.3328Z" fill="#407BFF"/>
<path d="M80.782 75.6455L80.4028 73.8999H104.868L105.255 75.6455H80.782Z" fill="#EBEBEB"/>
<path d="M82.068 79.9699L81.6802 78.2244H109.109L109.489 79.9699H82.068Z" fill="#EBEBEB"/>
<path d="M83.3577 84.3073L82.9785 82.5618H105.056L105.444 84.3073H83.3577Z" fill="#EBEBEB"/>
<path d="M78.5793 91.3281L78.1914 89.5825H87.0264L87.4056 91.3281H78.5793Z" fill="#407BFF"/>
<path d="M85.0178 95.6545L84.6387 93.9089H95.3932L95.781 95.6545H85.0178Z" fill="#EBEBEB"/>
<path d="M98.3604 95.6545L97.9727 93.9089H108.736L109.115 95.6545H98.3604Z" fill="#EBEBEB"/>
<path d="M86.3157 99.9897L85.9365 98.2441H122.302L122.681 99.9897H86.3157Z" fill="#EBEBEB"/>
<path d="M87.5955 104.316L87.2163 102.571H114.947L115.326 104.316H87.5955Z" fill="#EBEBEB"/>
<path d="M171.879 115.61H80.2238C77.7247 115.61 76.1046 116.975 76.6303 118.646H177.376C176.859 116.975 174.378 115.61 171.879 115.61Z" fill="#263238"/>
<path opacity="0.1" d="M50.1086 53.9202L41.3102 13.6647C41.2131 13.1832 41.3436 12.6851 41.6664 12.3049C41.9892 11.9247 42.4711 11.7016 42.982 11.6958H114.162C114.967 11.7009 115.661 12.2401 115.834 12.9946L124.632 53.217C124.732 53.6998 124.603 54.2003 124.28 54.5825C123.957 54.9647 123.473 55.1889 122.96 55.1942H51.7804C50.9833 55.1918 50.2919 54.6649 50.1086 53.9202Z" fill="#407BFF"/>
<path d="M75.4115 13.0199H60.4689L60.1328 11.4729H75.0754L75.4115 13.0199Z" fill="#407BFF"/>
<path opacity="0.4" d="M72.9843 15.4823H66.9851L66.6489 13.9353H72.6481L72.9843 15.4823Z" fill="#407BFF"/>
<path opacity="0.4" d="M82.9625 15.4823H73.7224L73.3862 13.9353H82.6263L82.9625 15.4823Z" fill="#407BFF"/>
<path opacity="0.4" d="M86.9864 17.9425H67.5197L67.1836 16.3955H86.6589L86.9864 17.9425Z" fill="#407BFF"/>
<path opacity="0.4" d="M84.5141 20.4049H68.0548L67.7188 18.8579H84.178L84.5141 20.4049Z" fill="#407BFF"/>
<path opacity="0.4" d="M95.4309 46.5591H84.9521L85.2882 48.0978H95.767L95.4309 46.5591Z" fill="#407BFF"/>
<path d="M82.3648 43.1832H67.0172L66.6812 41.6362H82.0288L82.3648 43.1832Z" fill="#407BFF"/>
<path opacity="0.4" d="M88.5375 49.0127H74.2671L74.6032 50.5597H88.8736L88.5375 49.0127Z" fill="#407BFF"/>
<path opacity="0.4" d="M84.2112 46.5591H73.7324L74.0685 48.0978H84.5473L84.2112 46.5591Z" fill="#407BFF"/>
<path opacity="0.4" d="M94.1548 44.0923H73.1973L73.5333 45.6393H94.4909L94.1548 44.0923Z" fill="#407BFF"/>
<path d="M74.8836 1.5363H57.9762L57.6401 -0.00244141H74.5475L74.8836 1.5363Z" fill="#407BFF"/>
<path opacity="0.4" d="M83.2379 7.37622H64.5898L64.9259 8.92324H83.5654L83.2379 7.37622Z" fill="#407BFF"/>
<path opacity="0.4" d="M79.5057 4.92017H64.0547L64.3908 6.45891H79.8418L79.5057 4.92017Z" fill="#407BFF"/>
<path opacity="0.4" d="M80.5308 2.45337H63.52L63.8561 4.00038H80.8669L80.5308 2.45337Z" fill="#407BFF"/>
<path d="M74.6972 24.4135H62.943L62.6069 22.8665H74.3611L74.6972 24.4135Z" fill="#407BFF"/>
<path opacity="0.4" d="M93.1539 30.2427H70.1885L70.5246 31.7897H93.4813L93.1539 30.2427Z" fill="#407BFF"/>
<path opacity="0.4" d="M79.1669 27.7869H69.6533L69.9894 29.3339H79.503L79.1669 27.7869Z" fill="#407BFF"/>
<path opacity="0.4" d="M89.4897 27.7869H79.9761L80.3122 29.3339H89.8258L89.4897 27.7869Z" fill="#407BFF"/>
<path opacity="0.4" d="M90.0757 25.3201H69.1182L69.4542 26.8671H90.4032L90.0757 25.3201Z" fill="#407BFF"/>
<path opacity="0.4" d="M90.036 37.6323H71.793L72.129 39.1711H90.3721L90.036 37.6323Z" fill="#407BFF"/>
<path opacity="0.4" d="M76.5679 35.1655H71.2583L71.5945 36.7125H76.8954L76.5679 35.1655Z" fill="#407BFF"/>
<path opacity="0.4" d="M84.8641 35.1655H77.2876L77.6238 36.7125H85.2003L84.8641 35.1655Z" fill="#407BFF"/>
<path opacity="0.4" d="M91.6807 32.7097H70.7231L71.0592 34.2485H92.0168L91.6807 32.7097Z" fill="#407BFF"/>
<path opacity="0.4" d="M108.185 32.2955H100.677L100.341 30.7485H107.857L108.185 32.2955Z" fill="#407BFF"/>
<path opacity="0.4" d="M120.676 32.2955H109.111L108.775 30.7485H120.34L120.676 32.2955Z" fill="#407BFF"/>
<path opacity="0.4" d="M125.588 34.7623H101.21L100.874 33.2153H125.252L125.588 34.7623Z" fill="#407BFF"/>
<path opacity="0.4" d="M122.349 37.2182H101.744L101.408 35.6711H122.012L122.349 37.2182Z" fill="#407BFF"/>
<path opacity="0.4" d="M131.578 22.5085H108.233L108.569 24.0473H131.914L131.578 22.5085Z" fill="#407BFF"/>
<path opacity="0.4" d="M127.044 20.0417H107.698L108.034 21.5888H127.372L127.044 20.0417Z" fill="#407BFF"/>
<path d="M123.552 17.5859H102.25L102.586 19.1247H123.888L123.552 17.5859Z" fill="#407BFF"/>
<path opacity="0.4" d="M132.632 47.0627H103.885L104.221 48.6098H132.969L132.632 47.0627Z" fill="#407BFF"/>
<path opacity="0.4" d="M115.259 44.6023H103.35L103.686 46.141H115.595L115.259 44.6023Z" fill="#407BFF"/>
<path opacity="0.4" d="M128.185 44.6023H116.276L116.612 46.141H128.521L128.185 44.6023Z" fill="#407BFF"/>
<path opacity="0.4" d="M129.046 42.1399H102.815L103.151 43.6869H129.382L129.046 42.1399Z" fill="#407BFF"/>
<path opacity="0.4" d="M128.325 54.4412H105.489L105.825 55.9882H128.661L128.325 54.4412Z" fill="#407BFF"/>
<path opacity="0.4" d="M111.6 51.9854H104.955L105.291 53.5324H111.936L111.6 51.9854Z" fill="#407BFF"/>
<path opacity="0.4" d="M121.987 51.9854H112.508L112.844 53.5324H122.324L121.987 51.9854Z" fill="#407BFF"/>
<path opacity="0.4" d="M130.659 49.5183H104.419L104.756 51.0653H130.987L130.659 49.5183Z" fill="#407BFF"/>
<path opacity="0.4" d="M60.788 56.3538H42.9155L43.2516 57.9008H61.1241L60.788 56.3538Z" fill="#407BFF"/>
<path opacity="0.4" d="M55.5052 53.8933H42.3809L42.7169 55.4321H55.8326L55.5052 53.8933Z" fill="#407BFF"/>
<path opacity="0.4" d="M69.5454 53.8933H56.4297L56.7658 55.4321H69.8901L69.5454 53.8933Z" fill="#407BFF"/>
<path opacity="0.4" d="M68.0857 51.4309H41.8457L42.1818 52.9779H68.4132L68.0857 51.4309Z" fill="#407BFF"/>
<path d="M268.771 102.571H257.707L258.999 118.645H267.479L268.771 102.571Z" fill="#407BFF"/>
<path opacity="0.4" d="M268.771 102.571H257.707L258.999 118.645H267.479L268.771 102.571Z" fill="white"/>
<path d="M27.634 91.4133H43.5418L38.1128 118.647H22.2051L27.634 91.4133Z" fill="#263238"/>
<path d="M47.8943 84.1143H25.4287L31.7194 118.645H54.185L47.8943 84.1143Z" fill="#407BFF"/>
<path d="M24.1006 84.1143H25.428L31.7202 118.645H30.3928L24.1006 84.1143Z" fill="#407BFF"/>
<path opacity="0.3" d="M24.1006 84.1143H25.428L31.7202 118.645H30.3928L24.1006 84.1143Z" fill="#244887"/>
<path d="M34.9523 114.948L30.0059 87.8047H44.6727L49.6105 114.948H34.9523Z" fill="white"/>
<path opacity="0.6" d="M48.9131 114.948L43.9741 87.8047H44.6723L49.6113 114.948H48.9131Z" fill="#407BFF"/>
<path d="M159.915 40.8048C160.234 41.4689 160.131 42.1745 159.673 42.3737C159.216 42.573 158.595 42.1994 158.276 41.5436C157.956 40.8878 158.068 40.1739 158.517 39.9747C158.966 39.7754 159.596 40.1075 159.915 40.8048Z" fill="#263238"/>
<path d="M160.189 42.1172C160.189 42.1172 160.465 46.6497 159.62 49.2729C161.345 49.8291 163.209 48.4428 163.209 48.4428L160.189 42.1172Z" fill="#FF5652"/>
<path d="M159.999 35.3174C159.926 35.3757 159.835 35.4105 159.74 35.417C158.601 35.4459 157.546 35.9985 156.902 36.9029C156.824 37.042 156.674 37.1295 156.511 37.1312C156.347 37.1329 156.195 37.0485 156.115 36.9111C156.034 36.7736 156.038 36.605 156.125 36.4712C156.918 35.3127 158.247 34.5975 159.688 34.5536C159.882 34.5434 160.06 34.6537 160.131 34.8274C160.202 35.001 160.148 35.1986 159.999 35.3174Z" fill="#263238"/>
<path d="M185.313 39.7739C187.978 48.6563 190.954 55.5463 194.586 59.4811C194.586 59.4811 194.655 66.4625 182.294 69.783C168.7 73.4356 173.91 65.0347 173.91 65.0347C180.81 61.3406 180.155 55.7622 174.962 53.637L185.313 39.7739Z" fill="#FF8B7B"/>
<path d="M197.467 57.7793C197.225 54.5335 196.906 50.8311 194.828 50.7315C192.533 50.6319 179.249 56.3432 176.411 60.3693C173.573 64.3954 179.12 68.3385 179.12 68.3385L197.467 57.7793Z" fill="#263238"/>
<path d="M170.283 108.046L158.811 107.68L159.018 116.928C159.018 116.928 169.024 115.932 169.463 113.4L170.283 108.046Z" fill="#FF8B7B"/>
<path d="M152.746 112.22L151.538 116.951L159.018 116.935L158.811 107.687L152.746 112.22Z" fill="#FF8B7B"/>
<path d="M216.326 69.6175L216.085 71.9917C216.007 72.7554 215.903 73.5025 215.8 74.2579C215.602 75.7605 215.351 77.263 215.084 78.7572C214.566 81.754 213.894 84.7341 213.117 87.7309C212.328 90.7851 211.372 93.7971 210.253 96.7544C209.658 98.2735 209.037 99.7927 208.295 101.337C207.548 102.956 206.683 104.524 205.708 106.027C205.475 106.417 205.182 106.857 204.897 107.222C204.612 107.588 204.336 108.052 204.034 108.434C203.732 108.816 203.413 109.264 203.016 109.655L202.456 110.269C202.255 110.495 202.042 110.712 201.817 110.916C200.088 112.546 198.062 113.854 195.84 114.776C192.43 116.184 188.812 117.066 185.118 117.391C183.436 117.582 181.771 117.657 180.141 117.698C178.51 117.74 176.88 117.698 175.276 117.615C173.671 117.532 172.084 117.4 170.506 117.217C168.927 117.034 167.392 116.794 165.718 116.47L165.994 107.795C171.502 106.868 176.946 105.621 182.297 104.06C183.487 103.687 184.656 103.255 185.799 102.765C186.772 102.369 187.703 101.883 188.577 101.312C189.085 101.017 189.516 100.614 189.836 100.133L190.086 99.7512C190.202 99.5881 190.309 99.419 190.405 99.2448C190.528 99.0542 190.641 98.8575 190.742 98.6554C190.854 98.4395 190.975 98.2403 191.087 97.9996C192.1 95.8704 192.934 93.6662 193.58 91.4084C194.287 88.9678 194.951 86.4276 195.486 83.7961C196.021 81.1646 196.538 78.5082 197.013 75.8269L197.668 71.7925L198.264 67.866L216.326 69.6175Z" fill="#407BFF"/>
<path opacity="0.2" d="M216.326 69.6175L216.085 71.9917C216.007 72.7554 215.903 73.5025 215.8 74.2579C215.602 75.7605 215.351 77.263 215.084 78.7572C214.566 81.754 213.894 84.7341 213.117 87.7309C212.328 90.7851 211.372 93.7971 210.253 96.7544C209.658 98.2735 209.037 99.7927 208.295 101.337C207.548 102.956 206.683 104.524 205.708 106.027C205.475 106.417 205.182 106.857 204.897 107.222C204.612 107.588 204.336 108.052 204.034 108.434C203.732 108.816 203.413 109.264 203.016 109.655L202.456 110.269C202.255 110.495 202.042 110.712 201.817 110.916C200.088 112.546 198.062 113.854 195.84 114.776C192.43 116.184 188.812 117.066 185.118 117.391C183.436 117.582 181.771 117.657 180.141 117.698C178.51 117.74 176.88 117.698 175.276 117.615C173.671 117.532 172.084 117.4 170.506 117.217C168.927 117.034 167.392 116.794 165.718 116.47L165.994 107.795C171.502 106.868 176.946 105.621 182.297 104.06C183.487 103.687 184.656 103.255 185.799 102.765C186.772 102.369 187.703 101.883 188.577 101.312C189.085 101.017 189.516 100.614 189.836 100.133L190.086 99.7512C190.202 99.5881 190.309 99.419 190.405 99.2448C190.528 99.0542 190.641 98.8575 190.742 98.6554C190.854 98.4395 190.975 98.2403 191.087 97.9996C192.1 95.8704 192.934 93.6662 193.58 91.4084C194.287 88.9678 194.951 86.4276 195.486 83.7961C196.021 81.1646 196.538 78.5082 197.013 75.8269L197.668 71.7925L198.264 67.866L216.326 69.6175Z" fill="#244887"/>
<path d="M165.39 80.6512C169.667 98.3979 172.074 116.514 172.575 134.726H223.079C223.355 128.724 222.303 94.8796 217.222 70.4323C216.311 65.959 213.564 62.028 209.603 59.5283C205.642 57.0286 200.801 56.1714 196.175 57.1503L195.934 57.2084C189.628 58.5864 180.58 60.8112 175.232 62.762L175.016 62.845C167.618 65.6133 163.499 73.2318 165.39 80.6512Z" fill="#407BFF"/>
<path opacity="0.2" d="M168.677 96.1759C169.074 98.5085 169.479 100.982 169.85 103.572C173.983 99.4216 175.294 86.7041 175.294 86.7041L168.677 96.1759Z" fill="#244887"/>
<path d="M126.72 108.65L115.256 107.621L114.876 116.86C118.738 117.886 122.872 116.763 125.607 113.946L126.72 108.65Z" fill="#FF8B7B"/>
<path d="M109.811 110.344L106.135 116.694L114.918 116.86L115.298 107.621L109.811 110.344Z" fill="#FF8B7B"/>
<path d="M184.341 76.3923C183.548 77.8451 182.841 79.1318 182.047 80.46C181.253 81.7882 180.494 83.0832 179.675 84.3699C178.053 86.9599 176.371 89.5 174.594 92.0153C171.027 97.1662 167.074 102.06 162.768 106.659C160.462 109.134 157.956 111.43 155.272 113.524C154.936 113.798 154.539 114.064 154.168 114.354C153.797 114.645 153.47 114.877 152.918 115.184C152.365 115.491 151.9 115.798 151.399 116.064C150.899 116.33 150.382 116.57 149.873 116.786C147.97 117.581 145.979 118.163 143.938 118.521C140.369 119.1 136.731 119.179 133.138 118.754C131.456 118.568 129.786 118.291 128.135 117.924C127.313 117.741 126.502 117.533 125.703 117.301C124.84 117.069 124.142 116.811 123.219 116.471L124.642 107.904C130.059 107.198 135.916 106.294 139.953 104.534C140.849 104.179 141.693 103.713 142.463 103.147C142.773 102.942 143.062 102.709 143.326 102.45C143.386 102.375 143.653 102.151 143.852 101.969C144.05 101.786 144.283 101.612 144.499 101.396C146.345 99.635 148.074 97.7635 149.674 95.7924C153.147 91.4809 156.391 87.0036 159.396 82.3776C160.948 80.0283 162.458 77.6375 163.967 75.2385L166.193 71.6357L168.341 68.0911L184.341 76.3923Z" fill="#407BFF"/>
<path d="M170.482 249.665H161.045L156.292 228.621H165.738L170.482 249.665Z" fill="#FF8B7B"/>
<path d="M160.518 247.721H171.127C171.506 247.734 171.831 247.983 171.93 248.335L173.793 256.42C173.883 256.818 173.778 257.234 173.509 257.548C173.24 257.862 172.836 258.04 172.413 258.031C168.712 257.973 166.909 257.765 162.243 257.765C159.37 257.765 155.687 258.047 151.728 258.047C147.769 258.047 147.242 254.279 148.864 253.938C156.144 252.402 156.627 250.294 158.982 248.277C159.404 247.914 159.952 247.716 160.518 247.721Z" fill="#263238"/>
<g opacity="0.2">
<path d="M165.744 228.63H156.29L158.93 240.285L168.194 239.48L165.744 228.63Z" fill="#244887"/>
</g>
<path d="M182.284 29.1006C185.735 37.5015 188.133 42.2581 185.855 48.3596C182.405 57.5325 170.165 58.4622 164.213 51.2069C158.865 44.6738 154.19 32.031 160.944 25.0828C163.951 21.9508 168.43 20.5423 172.779 21.361C177.128 22.1798 180.725 25.1089 182.284 29.1006Z" fill="#FF8B7B"/>
<path d="M165.711 41.6839C164.296 43.5101 163.209 44.8965 163.209 44.8965C163.209 44.8965 160.302 37.9483 161.415 34.7606C160 32.0627 157.145 36.039 156.067 30.7843C154.989 25.5296 159.655 19.8847 161.415 18.7143C161.596 19.3266 161.678 19.9623 161.657 20.5986C166.411 16.8851 172.455 15.0484 178.563 15.4602C178.053 16.1909 177.728 17.0269 177.614 17.9007C177.614 17.9007 187.853 19.561 190.182 25.1394C189.359 24.7611 188.489 24.4823 187.595 24.3093C189.472 26.8992 190.215 30.0954 189.665 33.2083C188.922 37.7478 188.535 42.3348 188.509 46.9303C188.604 49.2878 181.884 53.7954 177.787 48.9807C173.69 44.1659 165.711 41.6839 165.711 41.6839Z" fill="#263238"/>
<path d="M169.975 39.8748C170.509 41.8315 170.358 43.9033 169.543 45.7687C168.448 48.2591 166.196 47.6614 165.083 45.4864C164.073 43.5356 163.426 39.9163 165.212 38.1813C166.998 36.4463 169.302 37.5255 169.975 39.8748Z" fill="#FF8B7B"/>
<path d="M187.714 134.69C187.714 134.69 143.86 149.998 142.575 170.245C140.194 207.542 156.04 237.07 156.04 237.07L170.566 235.576C170.566 235.576 167.978 223.572 166.054 189.786C163.63 147.325 238.511 190.782 223.088 134.69H187.714Z" fill="#407BFF"/>
<path opacity="0.5" d="M187.714 134.69C187.714 134.69 143.86 149.998 142.575 170.245C140.194 207.542 156.04 237.07 156.04 237.07L170.566 235.576C170.566 235.576 167.978 223.572 166.054 189.786C163.63 147.325 238.511 190.782 223.088 134.69H187.714Z" fill="white"/>
<path d="M152.019 231.925C151.95 231.925 154.331 238.134 154.331 238.134L172.445 236.424L171.539 230.779L152.019 231.925Z" fill="#407BFF"/>
<path d="M129.683 250.702H120.237L117.477 229.65H126.922L129.683 250.702Z" fill="#FF8B7B"/>
<path d="M120.173 247.712H130.524C130.909 247.707 131.244 247.964 131.326 248.326L133.207 256.403C133.318 256.804 133.227 257.232 132.96 257.559C132.694 257.885 132.284 258.072 131.852 258.063C128.135 258.005 122.752 257.806 118.051 257.814C112.582 257.814 111.539 258.105 105.112 258.113C101.231 258.113 100.152 254.353 101.774 253.963C109.158 252.402 111.521 252.228 117.896 248.434C118.569 247.991 119.358 247.74 120.173 247.712Z" fill="#263238"/>
<path opacity="0.2" d="M117.493 229.657L118.994 241.121L128.362 240.507L126.938 229.657H117.493Z" fill="#244887"/>
<path d="M172.577 134.69C172.577 134.69 100.724 140.825 101.5 175.557C102.302 211.684 116.328 236.049 116.328 236.049H130.353C130.353 236.049 127.697 217.304 128.171 181.742C128.309 171.091 150.684 167.572 172.525 166.326C191.398 165.247 209.064 154.895 216.396 138.102L217.906 134.69H172.577Z" fill="#407BFF"/>
<path opacity="0.5" d="M172.577 134.69C172.577 134.69 100.724 140.825 101.5 175.557C102.302 211.684 116.328 236.049 116.328 236.049H130.353C130.353 236.049 127.697 217.304 128.171 181.742C128.309 171.091 150.684 167.572 172.525 166.326C191.398 165.247 209.064 154.895 216.396 138.102L217.906 134.69H172.577Z" fill="white"/>
<path d="M113.037 232.423C112.977 232.423 115.444 238.666 115.444 238.666L132.385 237.495L131.393 231.85L113.037 232.423Z" fill="#407BFF"/>
<path d="M191.437 95.6592L182.319 129.47C179.988 138.132 178.811 147.045 178.817 155.993V171.707C178.817 175.675 181.854 178.896 185.606 178.896H232.341C236.093 178.896 239.129 175.675 239.129 171.707V155.993C239.126 147.045 240.306 138.132 242.64 129.47L250.688 99.5857C251.93 94.9951 248.67 90.4543 244.158 90.4543H197.958C194.803 90.5499 192.118 92.6932 191.437 95.6592Z" fill="#263238"/>
<path d="M133.307 162.526L134.834 170.91C135.645 175.318 139.673 178.896 143.84 178.896H195.793C199.959 178.896 202.694 175.318 201.883 170.91L200.356 162.526C199.433 157.503 194.853 153.436 190.109 153.436H140.268C135.49 153.436 132.393 157.503 133.307 162.526Z" fill="#263238"/>
<path d="M200.796 187.311H173.582L170.925 178.893H203.453L200.796 187.311Z" fill="#407BFF"/>
<rect x="182.332" y="187.314" width="9.72367" height="62.5999" fill="#407BFF"/>
<path opacity="0.7" d="M192.055 249.911H182.332V188.813L192.055 189.768V249.911Z" fill="white"/>
<path opacity="0.7" d="M189.676 249.916H187.355V189.308L189.676 189.541V249.916Z" fill="white"/>
<path d="M209.544 259.593H164.828C164.293 259.588 163.822 259.255 163.657 258.765C163.493 258.276 163.673 257.74 164.103 257.435L171.194 252.454C174.603 250.051 178.717 248.755 182.942 248.752H191.439C195.661 248.756 199.773 250.053 203.179 252.454L210.278 257.435C210.71 257.741 210.889 258.279 210.722 258.769C210.556 259.26 210.081 259.592 209.544 259.593Z" fill="#407BFF"/>
</svg>
