<svg width="22" height="22" viewBox="0 0 22 22" fill="none" xmlns="http://www.w3.org/2000/svg">
<path d="M14.0367 10.109C13.8835 10.1084 13.7319 10.1398 13.5916 10.2011C13.4512 10.2625 13.3252 10.3525 13.2217 10.4654C13.1181 10.5782 13.0393 10.7115 12.9902 10.8566V10.8566C12.9072 11.1022 13.1353 11.308 13.3946 11.308H14.7277C14.9968 11.308 15.2342 11.094 15.1446 10.8403V10.8403C15.0916 10.6904 15.0068 10.5538 14.896 10.4398C14.7852 10.3259 14.651 10.2373 14.5026 10.1802C14.3543 10.1231 14.1953 10.0988 14.0367 10.109ZM8.23972 11.33H7.95372C7.36443 11.33 6.88672 11.8077 6.88672 12.397V12.397C6.88672 12.9863 7.36443 13.464 7.95372 13.464H7.98672C9.08672 13.464 9.57072 13.101 9.57072 12.364C9.57072 11.627 9.06472 11.33 8.23972 11.33ZM9.19672 9.37201C9.19672 8.78901 8.81172 8.43701 8.15172 8.43701H7.84372C7.31518 8.43701 6.88672 8.86547 6.88672 9.39401V9.41601C6.88672 9.9324 7.30533 10.351 7.82172 10.351V10.351C8.80072 10.351 9.19672 9.99901 9.19672 9.37201Z" fill="#263238"/>
<path d="M11 0C8.82441 0 6.69767 0.645139 4.88873 1.85383C3.07979 3.06253 1.66989 4.78049 0.83733 6.79048C0.00476612 8.80047 -0.213071 11.0122 0.211367 13.146C0.635804 15.2798 1.68345 17.2398 3.22183 18.7782C4.76021 20.3165 6.72022 21.3642 8.85401 21.7886C10.9878 22.2131 13.1995 21.9952 15.2095 21.1627C17.2195 20.3301 18.9375 18.9202 20.1462 17.1113C21.3549 15.3023 22 13.1756 22 11C22 9.55546 21.7155 8.12506 21.1627 6.79048C20.6099 5.4559 19.7996 4.24327 18.7782 3.22182C17.7567 2.20038 16.5441 1.39013 15.2095 0.837325C13.8749 0.284523 12.4445 0 11 0ZM8.47 14.52V14.52C6.82972 14.52 5.5 13.1903 5.5 11.55V10.34C5.5 8.69971 6.82972 7.37 8.47 7.37V7.37C9.757 7.37 10.604 8.041 10.604 9.13C10.6192 9.49585 10.5035 9.85514 10.2777 10.1434C10.1933 10.2512 10.0956 10.3464 9.98757 10.4272C9.91467 10.4817 9.94738 10.8168 10.0301 10.8547V10.8547C10.2369 10.9495 10.4221 11.0855 10.5745 11.2544C10.7269 11.4232 10.8433 11.6214 10.9164 11.8368C10.9896 12.0522 11.018 12.2802 11 12.507C11 13.783 9.9 14.52 8.47 14.52ZM12.375 8.195C12.375 8.04312 12.4981 7.92 12.65 7.92H15.4C15.5519 7.92 15.675 8.04312 15.675 8.195V8.195C15.675 8.34688 15.5519 8.47 15.4 8.47H12.65C12.4981 8.47 12.375 8.34688 12.375 8.195V8.195ZM16.5 11.638C16.5 11.9235 16.2685 12.155 15.983 12.155H13.024C12.939 12.155 12.87 12.2239 12.87 12.309V12.309C12.8511 12.4761 12.8682 12.6454 12.9202 12.8054C12.9723 12.9654 13.058 13.1123 13.1716 13.2364C13.2852 13.3604 13.4241 13.4587 13.5789 13.5245V13.5245C13.8867 13.6554 14.2501 13.6843 14.5639 13.5685C14.6281 13.5448 14.69 13.5143 14.7487 13.4774C14.8091 13.4393 14.8648 13.3951 14.9151 13.3457C15.1253 13.139 15.3708 12.925 15.6655 12.925V12.925C16.0934 12.925 16.4107 13.3325 16.169 13.6856C16.0247 13.8965 15.8436 14.0824 15.6321 14.2334C15.4753 14.3454 15.3057 14.4354 15.1281 14.5023C14.4856 14.744 13.7438 14.7361 13.0957 14.5098V14.5098C12.7695 14.3959 12.4722 14.2118 12.2247 13.9707C11.9773 13.7295 11.7857 13.437 11.6634 13.1138C11.5411 12.7906 11.4911 12.4446 11.517 12.1V11.616C11.4936 11.2821 11.5428 10.9471 11.661 10.634C11.7793 10.3209 11.9638 10.0371 12.2021 9.80196C12.4403 9.56686 12.7265 9.38607 13.0412 9.27199C13.1239 9.242 13.2081 9.2168 13.2933 9.19646C13.7705 9.08251 14.2805 9.08754 14.7556 9.20987C14.839 9.23133 14.9212 9.25742 15.002 9.2881C15.3135 9.40636 15.5959 9.58996 15.8304 9.82656C16.065 10.0632 16.2461 10.3472 16.3615 10.6597C16.477 10.9722 16.5243 11.3058 16.5 11.638V11.638Z" fill="#263238"/>
</svg>
