<svg width="12" height="22" viewBox="0 0 12 22" fill="none" xmlns="http://www.w3.org/2000/svg">
<path d="M-nan -nanL9.15069 4.29509H10.0565C10.5568 4.29509 10.9624 3.88953 10.9624 3.38925V2.60941C10.9624 1.7672 10.339 1.06454 9.49764 1.02683C9.14047 1.01082 8.74162 1 8.32299 1C5.7109 1 3.92154 2.643 3.92154 5.66274V7.00062C3.92154 7.7966 3.27628 8.44186 2.4803 8.44186C1.68433 8.44186 1.03906 9.08713 1.03906 9.8831V10.5281C1.03906 11.324 1.68433 11.9693 2.4803 11.9693C3.27628 11.9693 3.92154 12.6146 3.92154 13.4105V19.0779C3.92154 20.0538 4.71267 20.845 5.68857 20.845C6.66447 20.845 7.4556 20.0538 7.4556 19.0779V13.4388C7.4556 12.6277 8.11315 11.9701 8.92428 11.9701C9.66527 11.9701 10.2902 11.4182 10.3817 10.6829L10.4503 10.1319C10.562 9.23479 9.86234 8.44269 8.95829 8.44269C8.12792 8.44269 7.45477 7.76954 7.45477 6.93917V6.01251C7.4556 4.99297 7.73012 4.29509 9.15069 4.29509L-nan -nanZ" fill="#263238" stroke="#263238"/>
</svg>
