<svg width="23" height="28" viewBox="0 0 23 28" fill="none" xmlns="http://www.w3.org/2000/svg">
<g filter="url(#filter0_d_0_3193)">
<path fill-rule="evenodd" clip-rule="evenodd" d="M4 10C4 8.25745 4 5.50168 4 3.75913C4 1.77731 5.6143 0.153683 7.66187 0.010336C7.66458 0.0101461 7.66671 0.00789041 7.66671 0.00517191C7.66671 0.00231554 7.66903 0 7.67188 0H14.6827C14.6836 0 14.6842 0.000655605 14.6842 0.00146434C14.6842 0.00225183 14.6848 0.00289857 14.6856 0.00292817C16.7971 0.082364 18.4832 1.7337 18.4832 3.75913C18.4832 5.50177 18.4832 8.25736 18.4832 10C18.4832 12.0761 16.7116 13.7591 14.5263 13.7591C13.9245 13.7599 13.3355 13.63 12.8022 13.3845C12.4211 13.2092 11.9095 13.4597 11.9095 13.8792C11.9124 13.9162 11.9138 13.9536 11.9138 13.9914V17.5152C11.9138 18.8872 10.7426 20 9.29829 20H7.95697C5.77158 20 4 18.317 4 16.2409C4 14.4983 4 11.7426 4 10ZM5.58895 3.75913C5.58895 2.51663 6.64908 1.5095 7.95697 1.5095H8.07538C9.31781 1.5095 10.325 2.51669 10.325 3.75912C10.325 5.00156 9.31781 6.00875 8.07537 6.00875H7.95697C6.64908 6.00875 5.58895 5.0015 5.58895 3.75913ZM14.5263 6.00875H14.4079C13.1655 6.00875 12.1583 5.00156 12.1583 3.75912C12.1583 2.51669 13.1655 1.5095 14.4079 1.5095H14.5263C15.8341 1.5095 16.8943 2.51663 16.8943 3.75913C16.8943 5.0015 15.8341 6.00875 14.5263 6.00875ZM7.95697 12.2496C6.64908 12.2496 5.58895 11.2424 5.58895 10C5.58895 8.75762 6.64908 7.75037 7.95697 7.75037H8.07537C9.31781 7.75037 10.325 8.75757 10.325 10C10.325 11.2424 9.31781 12.2496 8.07537 12.2496H7.95697ZM7.95697 18.4906C6.64908 18.4906 5.58895 17.4832 5.58895 16.2409C5.58895 14.9985 6.64908 13.9914 7.95697 13.9914C9.2648 13.9914 10.325 15.0516 10.325 16.3594V17.5152C10.3249 17.7739 10.2167 18.022 10.0242 18.2049C9.83168 18.3878 9.57057 18.4906 9.29829 18.4906H7.95697ZM14.5263 12.2496C15.8341 12.2496 16.8943 11.2424 16.8943 10C16.8943 8.7575 15.8341 7.75037 14.5263 7.75037C13.2184 7.75037 12.1583 8.75762 12.1583 10C12.1583 11.2424 13.2184 12.2496 14.5263 12.2496Z" fill="#263238"/>
</g>
<defs>
<filter id="filter0_d_0_3193" x="0" y="0" width="22.4834" height="28" filterUnits="userSpaceOnUse" color-interpolation-filters="sRGB">
<feFlood flood-opacity="0" result="BackgroundImageFix"/>
<feColorMatrix in="SourceAlpha" type="matrix" values="0 0 0 0 0 0 0 0 0 0 0 0 0 0 0 0 0 0 127 0" result="hardAlpha"/>
<feOffset dy="4"/>
<feGaussianBlur stdDeviation="2"/>
<feComposite in2="hardAlpha" operator="out"/>
<feColorMatrix type="matrix" values="0 0 0 0 0 0 0 0 0 0 0 0 0 0 0 0 0 0 0.25 0"/>
<feBlend mode="normal" in2="BackgroundImageFix" result="effect1_dropShadow_0_3193"/>
<feBlend mode="normal" in="SourceGraphic" in2="effect1_dropShadow_0_3193" result="shape"/>
</filter>
</defs>
</svg>
