<svg width="194" height="166" viewBox="0 0 194 166" fill="none" xmlns="http://www.w3.org/2000/svg">
<path d="M194 148.371H0V148.468H194V148.371Z" fill="#EBEBEB"/>
<path d="M174.561 154.614H161.711V154.711H174.561V154.614Z" fill="#EBEBEB"/>
<path d="M128.513 155.669H125.142V155.766H128.513V155.669Z" fill="#EBEBEB"/>
<path d="M161.322 151.013H142.826V151.11H161.322V151.013Z" fill="#EBEBEB"/>
<path d="M29.5423 151.665H20.3545V151.762H29.5423V151.665Z" fill="#EBEBEB"/>
<path d="M43.0249 151.665H32.9951V151.762H43.0249V151.665Z" fill="#EBEBEB"/>
<path d="M76.0901 153.302H51.0098V153.399H76.0901V153.302Z" fill="#EBEBEB"/>
<path d="M91.9557 131.066H17.0368C16.4499 131.065 15.8874 130.831 15.4727 130.416C15.0581 130.001 14.8252 129.438 14.8252 128.851V23.5359C14.8303 22.9524 15.0654 22.3944 15.4795 21.9832C15.8936 21.572 16.4532 21.3408 17.0368 21.3398H91.9557C92.5433 21.3398 93.1068 21.5733 93.5223 21.9887C93.9378 22.4042 94.1712 22.9677 94.1712 23.5553V128.851C94.1712 129.438 93.9378 130.002 93.5223 130.417C93.1068 130.833 92.5433 131.066 91.9557 131.066ZM17.0368 21.4174C16.4756 21.4185 15.9378 21.6421 15.5413 22.0393C15.1449 22.4365 14.9222 22.9747 14.9222 23.5359V128.851C14.9222 129.412 15.1449 129.95 15.5413 130.347C15.9378 130.745 16.4756 130.968 17.0368 130.969H91.9557C92.5173 130.968 93.0555 130.745 93.4526 130.348C93.8496 129.951 94.0732 129.412 94.0742 128.851V23.5359C94.0732 22.9744 93.8496 22.4361 93.4526 22.0391C93.0555 21.642 92.5173 21.4185 91.9557 21.4174H17.0368Z" fill="#EBEBEB"/>
<path d="M175.884 131.066H100.962C100.374 131.065 99.8114 130.831 99.3961 130.416C98.9809 130.001 98.7471 129.438 98.7461 128.851V23.5359C98.7522 22.952 98.9882 22.3941 99.4029 21.983C99.8176 21.5719 100.378 21.3408 100.962 21.3398H175.884C176.467 21.3419 177.026 21.5735 177.439 21.9846C177.852 22.3957 178.087 22.9531 178.092 23.5359V128.851C178.092 129.437 177.86 129.999 177.446 130.415C177.032 130.83 176.471 131.064 175.884 131.066ZM100.962 21.4174C100.4 21.4185 99.8618 21.642 99.4647 22.0391C99.0676 22.4361 98.8441 22.9744 98.8431 23.5359V128.851C98.8441 129.412 99.0676 129.951 99.4647 130.348C99.8618 130.745 100.4 130.968 100.962 130.969H175.884C176.446 130.968 176.984 130.745 177.381 130.348C177.778 129.951 178.002 129.412 178.003 128.851V23.5359C178.002 22.9744 177.778 22.4361 177.381 22.0391C176.984 21.642 176.446 21.4185 175.884 21.4174H100.962Z" fill="#EBEBEB"/>
<path d="M21.8173 148.371H32.4873L32.4873 107.608H21.8173L21.8173 148.371Z" fill="#E6E6E6"/>
<path d="M23.8427 148.371H21.8135V142.605H25.9651L23.8427 148.371Z" fill="#F0F0F0"/>
<path d="M82.6982 148.371H93.3682V107.608H82.6982V148.371Z" fill="#E6E6E6"/>
<path d="M21.8174 144.833H84.4717V107.608H21.8174L21.8174 144.833Z" fill="#F0F0F0"/>
<path d="M63.8105 109.497V137.627H82.3841V109.497H63.8105Z" fill="#E6E6E6"/>
<path d="M71.2644 111.107H74.9388C75.7272 111.107 76.5073 110.945 77.2316 110.634C77.956 110.323 78.6095 109.867 79.1525 109.295H67.043C67.5869 109.868 68.2416 110.324 68.9674 110.636C69.6931 110.947 70.4746 111.108 71.2644 111.107Z" fill="#F0F0F0"/>
<path d="M43.8555 109.497V137.627H62.429V109.497H43.8555Z" fill="#E6E6E6"/>
<path d="M51.115 111.107H54.7894C55.5792 111.108 56.3607 110.947 57.0864 110.636C57.8122 110.324 58.4669 109.868 59.0108 109.295H46.8975C47.4409 109.868 48.095 110.323 48.8201 110.635C49.5451 110.946 50.3259 111.107 51.115 111.107Z" fill="#F0F0F0"/>
<path d="M23.8965 109.494V137.624H42.4701V109.494H23.8965Z" fill="#E6E6E6"/>
<path d="M31.1599 111.107H34.8343C35.6234 111.107 36.4042 110.946 37.1292 110.635C37.8543 110.323 38.5084 109.868 39.0518 109.295H26.9385C27.4824 109.868 28.1371 110.324 28.8629 110.636C29.5886 110.947 30.3701 111.108 31.1599 111.107Z" fill="#F0F0F0"/>
<path d="M82.4417 148.371H84.4709V142.605H80.3154L82.4417 148.371Z" fill="#F0F0F0"/>
<path d="M107.751 83.7651L166.533 83.7651V28.7079L107.751 28.7079V83.7651Z" fill="#E6E6E6"/>
<path d="M105.645 83.7651L165.552 83.7651V28.7079L105.645 28.7079V83.7651Z" fill="#F0F0F0"/>
<path d="M107.751 87.6875L166.533 87.6875V83.7648H107.751V87.6875Z" fill="#E6E6E6"/>
<path d="M102.125 87.6875L162.032 87.6875V83.7648L102.125 83.7648V87.6875Z" fill="#F0F0F0"/>
<path d="M162.596 80.8047V31.6606L108.598 31.6606V80.8047H162.596Z" fill="#FAFAFA"/>
<path d="M156.942 80.8086L139.595 31.6646H131.404L148.752 80.8086H156.942Z" fill="white"/>
<path d="M161.225 64.1361C161.169 64.1351 161.116 64.1122 161.077 64.0723C161.038 64.0324 161.016 63.9787 161.016 63.9227V33.585C161.016 33.5575 161.021 33.5302 161.032 33.5048C161.042 33.4794 161.058 33.4563 161.077 33.4369C161.096 33.4174 161.12 33.402 161.145 33.3914C161.17 33.3809 161.198 33.3755 161.225 33.3755C161.281 33.3755 161.335 33.3974 161.375 33.4366C161.415 33.4758 161.438 33.5291 161.439 33.585V63.9227C161.439 63.9508 161.433 63.9785 161.422 64.0044C161.412 64.0303 161.396 64.0538 161.376 64.0736C161.356 64.0934 161.333 64.1092 161.307 64.1199C161.281 64.1306 161.253 64.1361 161.225 64.1361Z" fill="#F0F0F0"/>
<path d="M146.994 80.8086L129.646 31.6646H126.453L143.801 80.8086H146.994Z" fill="white"/>
<path d="M108.97 80.8047V31.6606H108.593V80.8047H108.97Z" fill="#E6E6E6"/>
<path d="M104.942 35.4436H163.728L164 32.813H105.214L104.942 35.4436Z" fill="#E6E6E6"/>
<path d="M104.942 37.3718H163.728L164 34.7373H105.214L104.942 37.3718Z" fill="#E6E6E6"/>
<path d="M104.942 39.6843H163.728L164 37.0498H105.214L104.942 39.6843Z" fill="#E6E6E6"/>
<path d="M104.942 42.2566H163.728L164 39.626H105.214L104.942 42.2566Z" fill="#E6E6E6"/>
<path d="M104.942 45.3416H163.728L164 42.707H105.214L104.942 45.3416Z" fill="#E6E6E6"/>
<path d="M104.942 48.8064H163.728L164 46.1758H105.214L104.942 48.8064Z" fill="#E6E6E6"/>
<path d="M155.906 146.582H166.452V118.378H155.906V146.582Z" fill="#F0F0F0"/>
<path d="M112.423 148.371H164.427V146.582H112.423V148.371Z" fill="#F0F0F0"/>
<path d="M155.906 118.378H110.397V146.582H155.906V118.378Z" fill="#F5F5F5"/>
<path d="M151.758 121.851H114.541V131.101H151.758V121.851Z" fill="#F0F0F0"/>
<path d="M151.758 133.86H114.541V143.11H151.758V133.86Z" fill="#F0F0F0"/>
<path d="M128.451 127.112H137.848C138.129 127.112 138.356 126.885 138.356 126.604V126.352C138.356 126.071 138.129 125.844 137.848 125.844H128.451C128.17 125.844 127.943 126.071 127.943 126.352V126.604C127.943 126.885 128.17 127.112 128.451 127.112Z" fill="#F5F5F5"/>
<path d="M128.451 139.121H137.848C138.129 139.121 138.356 138.894 138.356 138.613V138.361C138.356 138.08 138.129 137.852 137.848 137.852H128.451C128.17 137.852 127.943 138.08 127.943 138.361V138.613C127.943 138.894 128.17 139.121 128.451 139.121Z" fill="#F5F5F5"/>
<path d="M61.6622 103.207C63.7415 102.716 65.0293 100.633 64.5386 98.5536C64.0478 96.4743 61.9643 95.1866 59.885 95.6773C57.8057 96.1681 56.518 98.2515 57.0087 100.331C57.4995 102.41 59.5829 103.698 61.6622 103.207Z" fill="#F5F5F5"/>
<path d="M54.9074 102.878C56.9867 102.387 58.2744 100.304 57.7837 98.2245C57.2929 96.1452 55.2095 94.8575 53.1302 95.3482C51.0508 95.839 49.7631 97.9224 50.2538 100.002C50.7446 102.081 52.828 103.369 54.9074 102.878Z" fill="#F5F5F5"/>
<path d="M45.6427 103.559C47.722 103.068 49.0098 100.985 48.519 98.9057C48.0283 96.8264 45.9448 95.5386 43.8655 96.0294C41.7862 96.5201 40.4984 98.6036 40.9892 100.683C41.4799 102.762 43.5634 104.05 45.6427 103.559Z" fill="#F5F5F5"/>
<path d="M49.632 105.346C51.7113 104.856 52.999 102.772 52.5083 100.693C52.0175 98.6135 49.9341 97.3257 47.8548 97.8165C45.7755 98.3072 44.4877 100.391 44.9784 102.47C45.4692 104.549 47.5527 105.837 49.632 105.346Z" fill="#F5F5F5"/>
<path d="M69.7737 100.833C69.7737 100.833 69.3391 107.673 52.6163 107.673C35.8935 107.673 35.459 100.833 35.459 100.833H69.7737Z" fill="#E6E6E6"/>
<path d="M26.4884 74.0806H40.9414L40.9414 38.1362H26.4884L26.4884 74.0806Z" fill="#E6E6E6"/>
<path d="M23.4006 74.0806H39.5996L39.5996 38.1362H23.4006L23.4006 74.0806Z" fill="#F5F5F5"/>
<path d="M37.1318 71.7719V40.4448H25.8682V71.7719H37.1318Z" fill="white"/>
<path d="M49.299 61.5635H63.752L63.752 25.6192H49.299V61.5635Z" fill="#E6E6E6"/>
<path d="M46.2141 61.5635H62.4131L62.4131 25.6192H46.2141V61.5635Z" fill="#F5F5F5"/>
<path d="M59.9463 59.2509V27.9238H48.6826V59.2509H59.9463Z" fill="white"/>
<path d="M70.1857 83.7651H84.6387V47.8208H70.1857V83.7651Z" fill="#E6E6E6"/>
<path d="M67.1008 83.7651H83.2998V47.8208H67.1008V83.7651Z" fill="#F5F5F5"/>
<path d="M80.8281 81.4565V50.1294H69.5645V81.4565H80.8281Z" fill="white"/>
<path d="M97.0008 165.893C138.549 165.893 172.23 163.927 172.23 161.501C172.23 159.075 138.549 157.109 97.0008 157.109C55.4528 157.109 21.7715 159.075 21.7715 161.501C21.7715 163.927 55.4528 165.893 97.0008 165.893Z" fill="#F5F5F5"/>
<path d="M167.081 68.9707L168.214 71.6712L162.262 75.008L161.133 72.3075L167.081 68.9707Z" fill="#FF8B7B"/>
<path d="M163.205 51.375L164.679 53.9009L159.98 59.2941L158.502 56.7682L163.205 51.375Z" fill="#FF8B7B"/>
<path d="M164.702 54.3548L161.621 52.5545C161.571 52.5254 161.532 52.4799 161.511 52.4256C161.489 52.3713 161.487 52.3114 161.505 52.2557L162.32 49.7182C162.34 49.6567 162.374 49.6006 162.419 49.5541C162.464 49.5075 162.519 49.4717 162.58 49.4494C162.641 49.427 162.706 49.4186 162.77 49.4249C162.835 49.4311 162.897 49.4518 162.952 49.4854C163.934 50.0829 164.624 50.5641 165.87 51.2935C166.646 51.7436 168.268 52.5894 169.331 53.2063C170.394 53.8233 169.917 54.9562 169.424 54.7971C167.228 54.0871 166.153 54.2462 165.203 54.4402C165.031 54.4748 164.853 54.4443 164.702 54.3548Z" fill="#263238"/>
<path d="M167.887 71.9778L165.703 69.6498C165.663 69.6076 165.639 69.5529 165.634 69.4949C165.63 69.4369 165.646 69.3793 165.68 69.3317L167.181 67.1317C167.217 67.0777 167.265 67.0326 167.321 66.9998C167.377 66.967 167.44 66.9475 167.504 66.9426C167.569 66.9377 167.634 66.9477 167.694 66.9717C167.755 66.9958 167.809 67.0332 167.852 67.0813C168.628 67.9388 169.715 69.1998 170.704 70.259C171.868 71.4967 172.276 71.9119 173.634 73.363C174.456 74.2399 173.796 75.303 173.374 75.0198C171.434 73.6889 170.778 72.9517 168.535 72.3426C168.289 72.2842 168.065 72.1578 167.887 71.9778Z" fill="#263238"/>
<path d="M96.2247 83.8935C95.8755 86.1517 95.4992 88.4215 95.0995 90.6757L93.8967 97.5395C93.7241 98.382 93.3692 99.1766 92.8569 99.8675C92.3939 100.481 91.8406 101.022 91.2156 101.47C90.112 102.229 88.8937 102.805 87.6072 103.177C86.4243 103.531 85.2132 103.783 83.9872 103.93C83.3858 104.004 82.7844 104.05 82.1869 104.089C81.5894 104.128 80.9996 104.139 80.3594 104.12L80.2197 101.928C81.2673 101.714 82.3809 101.466 83.4246 101.152C84.4597 100.858 85.4735 100.494 86.4588 100.061C87.3531 99.6841 88.1862 99.1754 88.9303 98.5521C89.2244 98.3009 89.4771 98.005 89.6792 97.6753C89.8324 97.4173 89.9314 97.1308 89.9702 96.8333L90.1254 95.2037C90.1797 94.6217 90.2495 94.0397 90.3116 93.4693C90.4474 92.3053 90.591 91.1646 90.7462 90.02C91.0566 87.7231 91.4174 85.4455 91.8364 83.1641L96.2247 83.8935Z" fill="#FF8B7B"/>
<path d="M96.6427 84.7314C96.5845 85.3211 96.4914 85.9303 96.3828 86.5356C96.0525 88.2673 95.6185 89.9775 95.083 91.6572L90.3494 90.2914C90.3494 90.2914 89.1854 85.9031 90.3494 82.415C91.5134 78.9269 95.0286 78.6863 96.3711 81.445C96.7436 82.1938 96.7785 83.4199 96.6427 84.7314Z" fill="#263238"/>
<path opacity="0.2" d="M96.6427 84.7314C96.5845 85.3211 96.4914 85.9303 96.3828 86.5356C96.0525 88.2673 95.6185 89.9775 95.083 91.6572L90.3494 90.2914C90.3494 90.2914 89.1854 85.9031 90.3494 82.415C91.5134 78.9269 95.0286 78.6863 96.3711 81.445C96.7436 82.1938 96.7785 83.4199 96.6427 84.7314Z" fill="white"/>
<path opacity="0.2" d="M96.6431 84.7315C96.5849 85.3212 96.4918 85.9304 96.3831 86.5357L94.4121 86.1477C94.5751 85.1427 95.6731 83.8623 96.6431 84.7315Z" fill="black"/>
<path d="M81.7743 101.675L78.5771 101.803L79.9817 105.268C80.5818 105.267 81.1658 105.074 81.6483 104.718C82.1307 104.361 82.4863 103.859 82.6628 103.286L81.7743 101.675Z" fill="#FF8B7B"/>
<path d="M76.1875 103.479L78.5349 105.287L79.9821 105.268L78.5776 101.803L76.1875 103.479Z" fill="#FF8B7B"/>
<path opacity="0.2" d="M162.266 75.0082L165.331 73.2854L164.198 70.585L161.133 72.3077L162.266 75.0082Z" fill="black"/>
<path opacity="0.2" d="M158.502 56.7642L159.98 59.2901L162.529 56.3685L160.57 54.3896L158.502 56.7642Z" fill="black"/>
<path d="M95.9799 85.6859C99.2313 84.4521 105.494 82.6168 116.393 81.2317L113.261 65.8901C103.721 66.0764 95.8014 68.1134 84.7822 71.5899C84.7822 71.5899 85.7522 75.3961 86.8852 77.6892C87.851 79.6898 88.9314 81.6331 90.1211 83.5092C90.253 83.7032 90.3888 83.8972 90.5091 84.0796C91.1162 84.9132 91.9818 85.5227 92.9713 85.8132C93.9608 86.1037 95.0185 86.059 95.9799 85.6859Z" fill="#263238"/>
<path opacity="0.2" d="M95.9799 85.6859C99.2313 84.4521 105.494 82.6168 116.393 81.2317L113.261 65.8901C103.721 66.0764 95.8014 68.1134 84.7822 71.5899C84.7822 71.5899 85.7522 75.3961 86.8852 77.6892C87.851 79.6898 88.9314 81.6331 90.1211 83.5092C90.253 83.7032 90.3888 83.8972 90.5091 84.0796C91.1162 84.9132 91.9818 85.5227 92.9713 85.8132C93.9608 86.1037 95.0185 86.059 95.9799 85.6859Z" fill="white"/>
<path d="M111.098 65.2108L107.199 65.5684L108.842 83.477L112.74 83.1195L111.098 65.2108Z" fill="#263238"/>
<path d="M109.94 75.2722L108.411 75.4157C108.313 75.4248 108.215 75.4145 108.122 75.3854C108.028 75.3563 107.942 75.309 107.867 75.2463C107.792 75.1835 107.73 75.1065 107.685 75.0197C107.64 74.9329 107.612 74.8381 107.604 74.7406C107.595 74.6435 107.605 74.5456 107.634 74.4524C107.663 74.3593 107.71 74.2727 107.772 74.1978C107.834 74.1228 107.911 74.0609 107.997 74.0155C108.083 73.9702 108.178 73.9423 108.275 73.9336L109.804 73.7939C110 73.7766 110.194 73.8375 110.346 73.9632C110.497 74.089 110.592 74.2694 110.611 74.4651C110.62 74.5622 110.61 74.6602 110.581 74.7533C110.552 74.8465 110.505 74.933 110.443 75.008C110.38 75.083 110.304 75.1449 110.217 75.1902C110.131 75.2356 110.037 75.2634 109.94 75.2722Z" fill="white"/>
<path d="M110.475 81.2315L108.947 81.3712C108.85 81.3802 108.752 81.3701 108.658 81.3412C108.565 81.3124 108.479 81.2654 108.404 81.2031C108.329 81.1407 108.267 81.0642 108.222 80.9778C108.176 80.8915 108.148 80.7971 108.14 80.6999C108.122 80.5041 108.183 80.3093 108.309 80.1581C108.435 80.0069 108.615 79.9116 108.811 79.8929L110.34 79.7532C110.437 79.7441 110.535 79.7543 110.628 79.7832C110.721 79.812 110.807 79.859 110.882 79.9213C110.957 79.9837 111.019 80.0602 111.065 80.1466C111.11 80.2329 111.138 80.3273 111.147 80.4245C111.156 80.5215 111.146 80.6195 111.117 80.7126C111.088 80.8058 111.041 80.8923 110.978 80.9673C110.916 81.0423 110.84 81.1042 110.753 81.1495C110.667 81.1949 110.572 81.2227 110.475 81.2315Z" fill="white"/>
<path d="M109.645 0H108.974V66.9843H109.645V0Z" fill="#263238"/>
<path opacity="0.2" d="M90.0625 72.4238C90.0625 72.4238 93.0811 70.9688 94.7185 68.6641C93.57 68.9667 92.3918 69.2926 91.1838 69.6418L90.0625 72.4238Z" fill="black"/>
<path d="M80.6572 81.907C82.733 81.2358 86.3647 79.6954 86.8846 77.6895C86.8846 77.6895 89.0691 77.1463 91.0013 80.6228C93.1275 84.4484 90.1205 83.5056 90.1205 83.5056C88.4599 81.6975 86.9428 82.6132 85.6896 83.785L80.6572 81.907Z" fill="#FF8B7B"/>
<path opacity="0.2" d="M82.71 82.6712L85.6898 83.7809C85.9783 83.504 86.2899 83.2522 86.621 83.0281C86.0623 82.2948 84.5801 81.6857 83.6955 82.0659C83.3334 82.207 82.9996 82.412 82.71 82.6712Z" fill="black"/>
<path d="M72.3344 80.549C71.7757 79.8738 71.1704 79.773 70.5264 80.161C72.2646 81.6742 72.1404 85.5192 74.8952 86.5125C77.65 87.5058 79.7142 84.2505 80.3777 83.0205C80.5896 82.672 80.6617 82.2561 80.5794 81.8565C81.4912 80.5645 78.0846 78.8456 79.0895 77.1307C80.1876 75.2489 78.7636 74.3448 75.9855 73.6387C76.3852 75.633 72.0551 78.4887 72.3344 80.549Z" fill="#263238"/>
<path d="M80.5491 79.6174C83.2341 80.7271 84.8637 81.2393 85.7949 83.1094C87.1995 85.9186 84.7822 88.8713 81.8179 88.588C79.1523 88.3319 75.2219 86.5627 75.0395 83.5013C74.9985 82.8271 75.1306 82.1536 75.4232 81.5448C75.7158 80.936 76.1592 80.4121 76.7113 80.0229C77.2633 79.6338 77.9058 79.3922 78.5775 79.3212C79.2492 79.2503 79.9279 79.3522 80.5491 79.6174Z" fill="#FF8B7B"/>
<path d="M81.6702 81.6354C80.2772 81.8682 76.436 82.2135 75.5436 79.4277C74.6512 76.6418 79.7806 76.4362 79.928 74.147C82.1513 74.5001 81.709 75.6408 83.1368 77.4721C85.4415 80.452 84.0525 81.2357 81.6702 81.6354Z" fill="#263238"/>
<path d="M73.72 84.8906C72.8315 83.7887 72.7656 80.6226 74.3874 78.1937C76.0092 75.7648 75.4777 78.0579 77.5535 77.053C77.0801 78.5429 77.8212 81.4956 77.3556 83.6024C76.7542 86.3456 75.2332 86.7763 73.72 84.8906Z" fill="#263238"/>
<path d="M82.5969 79.6369C83.2233 80.013 83.6764 80.6207 83.8579 81.3285C84.0907 82.2675 83.241 82.7098 82.368 82.4227C81.592 82.1627 80.5211 81.3635 80.6763 80.4323C80.7145 80.2295 80.8026 80.0394 80.9327 79.8792C81.0628 79.7191 81.2307 79.5938 81.4214 79.5149C81.612 79.4359 81.8193 79.4057 82.0246 79.427C82.2298 79.4483 82.4265 79.5204 82.5969 79.6369Z" fill="#FF8B7B"/>
<path d="M83.0318 80.7037C83.0575 80.7915 83.0565 80.8849 83.029 80.9721C83.0016 81.0593 82.9488 81.1363 82.8775 81.1935C82.8062 81.2507 82.7195 81.2855 82.6284 81.2933C82.5373 81.3012 82.4459 81.2818 82.3658 81.2377C82.2858 81.1936 82.2206 81.1267 82.1786 81.0455C82.1366 80.9643 82.1196 80.8724 82.1299 80.7816C82.1401 80.6907 82.1771 80.605 82.2361 80.5352C82.2952 80.4653 82.3736 80.4146 82.4615 80.3894C82.5788 80.3558 82.7046 80.37 82.8115 80.4289C82.9184 80.4878 82.9976 80.5866 83.0318 80.7037Z" fill="#263238"/>
<path d="M86.7019 86.5238C86.6789 86.52 86.6583 86.5073 86.6445 86.4884C86.6307 86.4696 86.6249 86.446 86.6282 86.4229C86.821 85.1558 86.5031 83.8641 85.7444 82.8311C84.9857 81.7981 83.8481 81.1084 82.5814 80.9133C82.5696 80.9119 82.5583 80.9081 82.548 80.9023C82.5377 80.8964 82.5287 80.8885 82.5214 80.8791C82.5142 80.8698 82.5089 80.859 82.5059 80.8476C82.5029 80.8361 82.5021 80.8242 82.5038 80.8124C82.5076 80.7894 82.5203 80.7688 82.5392 80.755C82.558 80.7412 82.5815 80.7354 82.6047 80.7387C83.9182 80.9405 85.098 81.6553 85.8851 82.7261C86.6721 83.7969 87.0022 85.1362 86.8028 86.4501C86.7981 86.4727 86.7852 86.4928 86.7666 86.5064C86.7479 86.52 86.7249 86.5262 86.7019 86.5238Z" fill="#263238"/>
<path d="M86.523 87.882C86.4317 87.8694 86.3488 87.822 86.2917 87.7497C86.2346 87.6774 86.2076 87.5858 86.2165 87.494L86.3639 86.33C86.3756 86.2383 86.4228 86.1548 86.4953 86.0975C86.5679 86.0402 86.66 86.0136 86.7519 86.0235C86.8439 86.0352 86.9278 86.0822 86.9857 86.1546C87.0437 86.2271 87.0711 86.3192 87.0623 86.4115L86.9149 87.5755C86.9005 87.6667 86.8521 87.7491 86.7793 87.806C86.7066 87.8628 86.615 87.89 86.523 87.882Z" fill="#263238"/>
<path d="M116.4 81.2315C116.4 81.2315 134.182 89.2476 142.866 87.1524C151.894 84.968 165.141 74.5618 165.141 74.5618L163.224 69.9873C163.224 69.9873 150.932 77.5999 141.962 79.2256C132.176 80.9793 121.848 69.6109 114.336 71.1474L116.4 81.2315Z" fill="#263238"/>
<path opacity="0.2" d="M121.618 74.465C122.782 76.9986 129.195 78.6709 132.951 77.9104C129.483 76.5524 126.068 74.5465 122.863 73.0449C121.862 73.332 121.304 73.7821 121.618 74.465Z" fill="black"/>
<path d="M115.282 75.7879C115.282 75.7879 132.42 78.2245 140.266 74.7636C148.856 70.9689 162.514 58.0408 162.514 58.0408L159.122 54.3975C159.122 54.3975 147.998 63.0576 139.334 65.9909C129.918 69.1764 120.458 64.4389 113.272 65.89C114.46 71.7799 115.282 75.7879 115.282 75.7879Z" fill="#263238"/>
<path d="M163.208 58.0489L158.87 53.874L157.566 55.2398L162.059 59.7173L163.208 58.0489Z" fill="#263238"/>
<path opacity="0.2" d="M163.208 58.0489L158.87 53.874L157.566 55.2398L162.059 59.7173L163.208 58.0489Z" fill="white"/>
<path d="M165.447 74.9191L163.208 69.6694L161.438 70.4066L163.914 76.4594L165.447 74.9191Z" fill="#263238"/>
<path opacity="0.2" d="M165.447 74.9191L163.208 69.6694L161.438 70.4066L163.914 76.4594L165.447 74.9191Z" fill="white"/>
<path d="M79.889 84.0405C80.114 84.1181 80.2537 84.2966 80.2033 84.4285C80.1528 84.5605 79.9317 84.6303 79.7066 84.5566C79.4816 84.4829 79.3458 84.2966 79.3962 84.1686C79.4467 84.0405 79.6678 83.9668 79.889 84.0405Z" fill="#263238"/>
<path d="M79.0238 86.5666C79.2488 86.6442 79.3885 86.8227 79.338 86.9546C79.2876 87.0865 79.0664 87.1563 78.8414 87.0787C78.6164 87.0011 78.4806 86.8227 78.531 86.6907C78.5814 86.5588 78.8026 86.489 79.0238 86.5666Z" fill="#263238"/>
<path d="M79.4111 85.8022C80.0048 86.3028 80.527 86.8824 80.9631 87.525C81.1245 87.4092 81.2587 87.2596 81.3566 87.0868C81.4544 86.9139 81.5134 86.7219 81.5296 86.5239L79.4111 85.8022Z" fill="#FF5652"/>
<path d="M82.5348 85.5309C82.5478 85.7045 82.54 85.879 82.5115 86.0508C82.5106 86.0598 82.5078 86.0686 82.5033 86.0766C82.4988 86.0845 82.4928 86.0914 82.4855 86.0969C82.4782 86.1023 82.4698 86.1062 82.461 86.1083C82.4521 86.1104 82.4429 86.1106 82.4339 86.109C82.4161 86.1061 82.4 86.0964 82.3892 86.0819C82.3783 86.0674 82.3735 86.0493 82.3757 86.0314C82.4302 85.7423 82.415 85.4443 82.3313 85.1623C82.2476 84.8802 82.0979 84.6222 81.8946 84.4095C81.8826 84.3955 81.876 84.3776 81.876 84.3591C81.876 84.3406 81.8826 84.3227 81.8946 84.3086C81.9076 84.2961 81.925 84.2891 81.9431 84.2891C81.9612 84.2891 81.9786 84.2961 81.9916 84.3086C82.3138 84.6374 82.5067 85.0714 82.5348 85.5309Z" fill="#263238"/>
<path d="M79.3422 82.9699C79.3405 82.9969 79.3307 83.0228 79.3141 83.0443C79.2975 83.0657 79.2748 83.0817 79.2491 83.0901C79.082 83.1382 78.9289 83.2257 78.8027 83.3452C78.6764 83.4647 78.5807 83.6127 78.5235 83.7769C78.5212 83.7967 78.5147 83.8158 78.5043 83.8329C78.494 83.85 78.4801 83.8647 78.4636 83.876C78.4471 83.8872 78.4284 83.8948 78.4087 83.8983C78.3891 83.9017 78.3689 83.9009 78.3495 83.8958C78.3302 83.8908 78.3122 83.8816 78.2967 83.869C78.2812 83.8564 78.2686 83.8407 78.2597 83.8228C78.2508 83.8049 78.2459 83.7853 78.2452 83.7653C78.2445 83.7454 78.2481 83.7255 78.2558 83.7071C78.3252 83.4981 78.444 83.3089 78.602 83.1556C78.7601 83.0023 78.9527 82.8893 79.1637 82.8263C79.1987 82.8153 79.2366 82.8184 79.2693 82.8351C79.302 82.8518 79.3268 82.8807 79.3383 82.9155C79.3436 82.9331 79.345 82.9517 79.3422 82.9699Z" fill="#263238"/>
<path d="M77.7865 87.3426C77.7838 87.3755 77.7685 87.4061 77.7438 87.428C77.7311 87.4409 77.7161 87.4511 77.6994 87.4581C77.6827 87.4651 77.6649 87.4687 77.6468 87.4687C77.6287 87.4687 77.6108 87.4651 77.5942 87.4581C77.5775 87.4511 77.5624 87.4409 77.5498 87.428C77.3896 87.2768 77.2682 87.0893 77.196 86.8813C77.1237 86.6732 77.1027 86.4508 77.1346 86.2329C77.1379 86.2149 77.1447 86.1978 77.1547 86.1825C77.1647 86.1672 77.1778 86.154 77.193 86.1439C77.2082 86.1338 77.2253 86.1268 77.2433 86.1234C77.2613 86.12 77.2797 86.1203 77.2976 86.1243C77.3335 86.1318 77.3649 86.1531 77.3853 86.1835C77.4056 86.214 77.4131 86.2513 77.4062 86.2872C77.3831 86.4599 77.4016 86.6357 77.4604 86.7997C77.5191 86.9638 77.6163 87.1113 77.7438 87.2301C77.7586 87.2446 77.7701 87.2622 77.7775 87.2817C77.7849 87.3011 77.7879 87.3219 77.7865 87.3426Z" fill="#263238"/>
<path d="M86.0117 70.0613C86.2329 69.5026 86.4385 69.0215 86.6752 68.5093C86.9119 67.9972 87.1447 67.5199 87.3891 67.0272C87.8819 66.0533 88.4134 65.0872 88.9877 64.1482C89.5619 63.2093 90.1788 62.2819 90.8501 61.3779L91.3622 60.7028L91.9132 60.0471C92.0878 59.8259 92.3012 59.6125 92.4874 59.3991L92.7823 59.0809L92.856 59.0033L92.9841 58.8753C93.0735 58.7846 93.1681 58.6991 93.2673 58.6192C93.8759 58.1504 94.5687 57.8027 95.3082 57.5949C95.8939 57.426 96.4901 57.2964 97.093 57.2069C98.2043 57.0401 99.3256 56.9481 100.449 56.9314C102.618 56.8913 104.788 57.0211 106.937 57.3194L106.855 59.5155C104.81 59.7017 102.727 59.9307 100.732 60.2333C99.7591 60.3785 98.7942 60.5754 97.8418 60.8231C97.4135 60.9316 96.9934 61.0703 96.5847 61.2382C96.3134 61.337 96.0623 61.4843 95.8436 61.6728L95.7893 61.7426L95.572 62.022C95.4246 62.2082 95.2772 62.41 95.1414 62.5923L94.7223 63.1782L94.3343 63.7874C93.8066 64.6099 93.2945 65.4597 92.8134 66.3365C92.3322 67.2134 91.8666 68.1058 91.4204 69.0137C91.1954 69.4638 90.9742 69.9178 90.7608 70.3717L90.1478 71.7142L86.0117 70.0613Z" fill="#FF8B7B"/>
<path d="M84.8751 71.947C83.8158 69.359 89.5311 62.9531 89.5311 62.9531L93.7991 64.9591C93.7991 64.9591 93.4344 69.0098 91.3275 71.9431C89.1159 75.051 86.0779 74.8841 84.8751 71.947Z" fill="#263238"/>
<path opacity="0.2" d="M84.8751 71.947C83.8158 69.359 89.5311 62.9531 89.5311 62.9531L93.7991 64.9591C93.7991 64.9591 93.4344 69.0098 91.3275 71.9431C89.1159 75.051 86.0779 74.8841 84.8751 71.947Z" fill="white"/>
<path d="M165.795 54.4051C165.974 54.4927 166.117 54.6375 166.203 54.8164C166.226 54.8809 166.232 54.95 166.222 55.0177C166.212 55.0853 166.185 55.1494 166.145 55.2044C166.124 55.2392 166.094 55.2678 166.059 55.2869C166.023 55.3061 165.983 55.3151 165.943 55.3131C165.578 55.2937 165.054 54.3159 164.996 54.2073C164.988 54.1958 164.984 54.1823 164.984 54.1685C164.984 54.1547 164.988 54.1411 164.996 54.1297C165.004 54.1197 165.015 54.1122 165.028 54.1081C165.04 54.104 165.053 54.1034 165.066 54.1064C165.32 54.1779 165.564 54.2781 165.795 54.4051ZM165.861 55.1462C165.889 55.1628 165.919 55.1734 165.951 55.1773C165.97 55.1773 165.997 55.1773 166.028 55.1268C166.057 55.0903 166.077 55.047 166.085 55.0009C166.093 54.9548 166.09 54.9073 166.075 54.863C166.005 54.6651 165.687 54.475 165.202 54.2926C165.364 54.6174 165.588 54.9073 165.861 55.1462Z" fill="#407BFF"/>
<path d="M165.094 54.1141C165.094 54.1141 165.113 54.1141 165.121 54.1374C165.3 54.4323 165.478 55.282 165.261 55.5342C165.225 55.5718 165.178 55.5965 165.127 55.6042C165.075 55.612 165.023 55.6023 164.978 55.5769C164.929 55.5556 164.886 55.5247 164.85 55.486C164.814 55.4473 164.786 55.4016 164.768 55.3518C164.617 54.9405 164.982 54.1878 164.997 54.1451C165.002 54.1341 165.011 54.1247 165.021 54.1179C165.031 54.1111 165.043 54.1071 165.055 54.1063C165.062 54.1047 165.069 54.1045 165.076 54.1059C165.082 54.1072 165.089 54.11 165.094 54.1141ZM165.005 55.4372H165.036C165.117 55.4721 165.144 55.4372 165.156 55.4372C165.288 55.2897 165.21 54.6844 165.063 54.3352C164.915 54.6342 164.858 54.9703 164.9 55.3014C164.92 55.3566 164.956 55.4042 165.005 55.4372Z" fill="#407BFF"/>
<path d="M169.094 72.5173C169.282 72.6853 169.407 72.9126 169.447 73.1613C169.45 73.2242 169.437 73.2867 169.41 73.3435C169.383 73.4002 169.342 73.4496 169.292 73.4873C169.263 73.5115 169.228 73.5281 169.191 73.5356C169.154 73.543 169.115 73.5411 169.079 73.5299C168.691 73.4058 168.322 72.137 168.279 71.9779C168.276 71.9643 168.277 71.95 168.282 71.9369C168.286 71.9238 168.295 71.9124 168.307 71.9042C168.318 71.8951 168.333 71.8901 168.347 71.8901C168.362 71.8901 168.376 71.8951 168.388 71.9042C168.641 72.0868 168.878 72.292 169.094 72.5173ZM169.013 73.3321C169.043 73.3658 169.08 73.3923 169.121 73.4097C169.134 73.4168 169.148 73.4206 169.162 73.4206C169.176 73.4206 169.19 73.4168 169.203 73.4097C169.237 73.3854 169.264 73.3534 169.283 73.3162C169.302 73.2791 169.312 73.2379 169.311 73.1963C169.311 72.9557 168.993 72.5832 168.473 72.1875C168.588 72.5965 168.77 72.9834 169.013 73.3321Z" fill="#407BFF"/>
<path d="M168.392 71.9272V71.9505C168.516 72.3191 168.531 73.2619 168.252 73.4482C168.19 73.4909 168.081 73.518 167.934 73.3939C167.882 73.3475 167.84 73.2915 167.81 73.2289C167.78 73.1663 167.763 73.0984 167.759 73.0291C167.728 72.5519 168.248 71.9544 168.271 71.9272C168.281 71.9218 168.293 71.9189 168.304 71.9189C168.316 71.9189 168.327 71.9218 168.337 71.9272C168.346 71.9225 168.355 71.9199 168.364 71.9199C168.374 71.9199 168.383 71.9225 168.392 71.9272ZM168.004 73.2581L168.035 73.2891C168.128 73.3706 168.17 73.3434 168.182 73.3357C168.349 73.2231 168.388 72.5325 168.302 72.1212C168.083 72.3738 167.947 72.6884 167.914 73.0214C167.914 73.1086 167.946 73.1929 168.004 73.2581Z" fill="#407BFF"/>
<path d="M106.114 59.2942L108.64 60.8462L109.105 57.1369C109.105 57.1369 106.661 56.2794 106.06 57.5249L106.114 59.2942Z" fill="#FF8B7B"/>
<path d="M111.81 60.7297L112.027 57.6684L109.105 57.1523L108.64 60.8616L111.81 60.7297Z" fill="#FF8B7B"/>
<path d="M129.717 114.29H41.9785V119.151H129.717V114.29Z" fill="#407BFF"/>
<path opacity="0.2" d="M129.717 114.29H106.914V119.151H129.717V114.29Z" fill="black"/>
<path d="M123.385 119.151H128.894V160.395C128.894 160.688 128.778 160.968 128.572 161.174C128.365 161.381 128.085 161.497 127.792 161.497H124.498C124.206 161.497 123.926 161.381 123.719 161.174C123.513 160.968 123.396 160.688 123.396 160.395V119.151H123.385Z" fill="#407BFF"/>
<path opacity="0.2" d="M126.143 119.151H128.894V160.395C128.894 160.688 128.777 160.968 128.571 161.174C128.364 161.381 128.084 161.497 127.792 161.497H126.146V119.151H126.143Z" fill="black"/>
<path d="M42.8047 119.151H48.3026V160.395C48.3026 160.688 48.1866 160.968 47.9799 161.174C47.7733 161.381 47.493 161.497 47.2007 161.497H43.9066C43.6144 161.497 43.3341 161.381 43.1274 161.174C42.9208 160.968 42.8047 160.688 42.8047 160.395V119.151Z" fill="#407BFF"/>
<path opacity="0.2" d="M45.5518 119.151H48.3027V160.395C48.3027 160.688 48.1866 160.968 47.9799 161.174C47.7733 161.381 47.493 161.497 47.2008 161.497H45.5518V119.151Z" fill="black"/>
<path d="M62.8574 119.151H68.3554V160.395C68.3554 160.688 68.2393 160.968 68.0326 161.174C67.826 161.381 67.5457 161.497 67.2535 161.497H63.9593C63.8146 161.497 63.6713 161.469 63.5377 161.413C63.404 161.358 63.2825 161.277 63.1802 161.174C63.0778 161.072 62.9967 160.951 62.9413 160.817C62.8859 160.683 62.8574 160.54 62.8574 160.395V119.151Z" fill="#407BFF"/>
<path opacity="0.2" d="M65.6074 119.151H68.3583V160.395C68.3583 160.688 68.2423 160.968 68.0356 161.174C67.829 161.381 67.5487 161.497 67.2564 161.497H65.6113V119.151H65.6074Z" fill="black"/>
<path d="M124.548 126.205H46.9287V135.738H124.548V126.205Z" fill="#407BFF"/>
<path opacity="0.2" d="M124.549 126.205H106.914V135.738H124.549V126.205Z" fill="black"/>
<path d="M103.341 119.151H108.839V160.395C108.839 160.688 108.723 160.968 108.516 161.174C108.309 161.381 108.029 161.497 107.737 161.497H104.443C104.15 161.497 103.87 161.381 103.664 161.174C103.457 160.968 103.341 160.688 103.341 160.395V119.151Z" fill="#407BFF"/>
<path opacity="0.2" d="M106.088 119.151H108.839V160.395C108.839 160.688 108.723 160.968 108.516 161.174C108.309 161.381 108.029 161.497 107.737 161.497H106.092V119.151H106.088Z" fill="black"/>
<path d="M55.5425 110.491C55.5987 110.216 55.6273 109.937 55.6278 109.657H47.2393C47.2368 110.467 47.4694 111.26 47.9088 111.94C48.3482 112.621 48.9756 113.159 49.7148 113.49C50.4541 113.821 51.2735 113.931 52.0738 113.805C52.874 113.68 53.6207 113.325 54.2233 112.784C54.5274 112.959 54.8887 113.007 55.2278 112.916C55.3957 112.871 55.553 112.793 55.6909 112.687C55.8288 112.582 55.9445 112.45 56.0314 112.299C56.1182 112.148 56.1746 111.982 56.1972 111.81C56.2199 111.638 56.2084 111.462 56.1633 111.295C56.1183 111.127 56.0406 110.969 55.9348 110.831C55.8289 110.693 55.6969 110.578 55.5464 110.491H55.5425ZM54.8712 112.543C54.7543 112.543 54.6384 112.521 54.5298 112.478C54.9399 112.032 55.2483 111.502 55.4338 110.926C55.584 111.042 55.6939 111.202 55.7481 111.384C55.8023 111.566 55.798 111.761 55.7359 111.94C55.6738 112.12 55.557 112.275 55.4019 112.385C55.2467 112.494 55.0612 112.553 54.8712 112.551V112.543Z" fill="#407BFF"/>
<path opacity="0.3" d="M55.5425 110.491C55.5987 110.216 55.6273 109.937 55.6278 109.657H47.2393C47.2368 110.467 47.4694 111.26 47.9088 111.94C48.3482 112.621 48.9756 113.159 49.7148 113.49C50.4541 113.821 51.2735 113.931 52.0738 113.805C52.874 113.68 53.6207 113.325 54.2233 112.784C54.5274 112.959 54.8887 113.007 55.2278 112.916C55.3957 112.871 55.553 112.793 55.6909 112.687C55.8288 112.582 55.9445 112.45 56.0314 112.299C56.1182 112.148 56.1746 111.982 56.1972 111.81C56.2199 111.638 56.2084 111.462 56.1633 111.295C56.1183 111.127 56.0406 110.969 55.9348 110.831C55.8289 110.693 55.6969 110.578 55.5464 110.491H55.5425ZM54.8712 112.543C54.7543 112.543 54.6384 112.521 54.5298 112.478C54.9399 112.032 55.2483 111.502 55.4338 110.926C55.584 111.042 55.6939 111.202 55.7481 111.384C55.8023 111.566 55.798 111.761 55.7359 111.94C55.6738 112.12 55.557 112.275 55.4019 112.385C55.2467 112.494 55.0612 112.553 54.8712 112.551V112.543Z" fill="#FAFAFA"/>
<path d="M46.2383 113.417C46.2383 113.898 48.5663 114.29 51.4336 114.29C54.3009 114.29 56.625 113.902 56.625 113.417H46.2383Z" fill="#407BFF"/>
<path opacity="0.6" d="M46.2383 113.417C46.2383 113.898 48.5663 114.29 51.4336 114.29C54.3009 114.29 56.625 113.902 56.625 113.417H46.2383Z" fill="#FAFAFA"/>
<path d="M79.1528 100.395H57.8594L60.6181 113.513H81.9154L79.1528 100.395Z" fill="#263238"/>
<path d="M78.7612 100.395H57.4639L60.2225 113.513V114.289H81.5199V113.513L78.7612 100.395Z" fill="#407BFF"/>
<path opacity="0.5" d="M78.7612 100.395H57.4639L60.2225 113.513V114.289H81.5199V113.513L78.7612 100.395Z" fill="#FAFAFA"/>
<path d="M81.5195 114.286H88.7363V113.51H81.5195V114.286Z" fill="#263238"/>
<path d="M127.246 111.438H101.797V114.289H127.246V111.438Z" fill="#407BFF"/>
<path opacity="0.8" d="M119.032 111.438H101.797V114.289H119.032V111.438Z" fill="#FAFAFA"/>
<path opacity="0.5" d="M119.027 114.286H127.241V111.434H119.027V114.286Z" fill="#FAFAFA"/>
<path opacity="0.4" d="M120.183 112.299H127.664V112.124H120.183V112.299Z" fill="#407BFF"/>
<path opacity="0.4" d="M119.668 112.807H126.136V112.633H119.668V112.807Z" fill="#407BFF"/>
<path opacity="0.4" d="M120.936 113.49H127.404V113.316H120.936V113.49Z" fill="#407BFF"/>
<path opacity="0.1" d="M115.105 113.486H101.16V113.661H115.105V113.486Z" fill="#407BFF"/>
<path opacity="0.1" d="M116.851 112.772H104.796V112.947H116.851V112.772Z" fill="#407BFF"/>
<path opacity="0.1" d="M113.75 111.845H101.695V112.02H113.75V111.845Z" fill="#407BFF"/>
</svg>
