<svg width="20" height="16" viewBox="0 0 20 16" fill="none" xmlns="http://www.w3.org/2000/svg">
<path d="M18.948 2.68056C19.1385 2.45874 18.8997 2.14074 18.6196 2.2246C18.3163 2.31539 18.0996 1.851 18.3001 1.60599C18.399 1.48515 18.4909 1.35838 18.5752 1.22622C18.7682 0.923602 18.4244 0.622859 18.0947 0.764618C17.7205 0.925475 17.332 1.05828 16.9312 1.16225C16.6445 1.23663 16.348 1.13205 16.1212 0.941602C15.4193 0.352457 14.5136 0 13.5386 0C11.319 0 9.53211 1.80156 9.53211 4.01011C9.53211 4.47281 9.16683 4.90223 8.708 4.84255C6.48916 4.55398 4.47361 3.62516 2.8461 2.24549C2.06436 1.5828 0.812778 1.73249 0.812778 2.75733C0.812778 3.68908 1.13477 4.54983 1.66869 5.23061C1.89761 5.5225 1.70284 5.98073 1.35411 5.85427C1.1688 5.78707 0.990189 5.70707 0.820874 5.61632C0.803435 5.60698 0.782222 5.61955 0.782222 5.63933C0.782222 7.21134 1.687 8.56849 2.9938 9.22986C3.23198 9.3504 3.21006 9.71056 2.94311 9.71056C2.60575 9.71056 2.32534 10.0459 2.4885 10.3412C2.67526 10.6792 2.90876 10.9881 3.18031 11.2588C3.90823 11.9844 4.20594 13.5367 3.21905 13.8238C2.50178 14.0325 1.7431 14.1448 0.959444 14.1448C0.727417 14.1448 0.624396 14.4673 0.829385 14.576C2.41752 15.4182 4.22448 15.8889 6.15022 15.8889C13.5276 15.8889 17.5609 9.77778 17.5609 4.48067C17.5609 4.44101 17.5606 4.40165 17.56 4.36255C17.5564 4.11321 17.671 3.87705 17.8665 3.72223C18.2608 3.40992 18.6212 3.06111 18.948 2.68056Z" fill="#263238"/>
</svg>
