<svg width="257" height="152" viewBox="0 0 257 152" fill="none" xmlns="http://www.w3.org/2000/svg">
<path d="M58.6154 35.4026H2.70703V66.664H58.6154V35.4026Z" fill="#FAFAFA"/>
<path d="M58.6157 66.6641C58.6157 66.6641 58.6157 66.4708 58.6157 66.1021C58.6157 65.7335 58.6157 65.1823 58.6157 64.47C58.6157 63.0383 58.6157 60.9265 58.5978 58.217C58.5978 52.8051 58.5763 44.9987 58.562 35.4026L58.6336 35.4742L2.72879 35.4957L2.82185 35.4026C2.82185 46.459 2.82185 57.0322 2.82185 66.6641L2.73595 66.5782L42.942 66.6211L54.4924 66.6426H57.5741H58.3687H58.6444H58.3795H57.5956H54.5318L42.9993 66.6677L2.693 66.7536H2.60352V66.6641C2.60352 57.0322 2.60352 46.459 2.60352 35.4026V35.3096H2.70374L58.6086 35.331H58.6801V35.4026C58.6622 45.0202 58.6515 52.8409 58.6408 58.2635C58.6408 60.9623 58.6408 63.0669 58.6229 64.495C58.6229 65.2109 58.6229 65.7478 58.6229 66.1165C58.6229 66.4851 58.6157 66.6641 58.6157 66.6641Z" fill="#E0E0E0"/>
<path d="M17.4392 42.8547H9.53613V50.7578H17.4392V42.8547Z" fill="#E0E0E0"/>
<path d="M28.2997 43.9534C28.2997 44.0035 26.4528 44.0465 24.18 44.0465C21.9071 44.0465 20.0566 44.0035 20.0566 43.9534C20.0566 43.9033 21.9035 43.8604 24.18 43.8604C26.4564 43.8604 28.2997 43.914 28.2997 43.9534Z" fill="#E0E0E0"/>
<path d="M54.6182 46.8169C54.6182 46.867 46.8834 46.91 37.341 46.91C27.7986 46.91 20.0566 46.867 20.0566 46.8169C20.0566 46.7668 27.7951 46.7239 37.341 46.7239C46.8869 46.7239 54.6182 46.7561 54.6182 46.8169Z" fill="#E0E0E0"/>
<path d="M42.9918 49.9954C42.9918 50.0455 37.9056 50.0885 31.6347 50.0885C25.3638 50.0885 20.2812 50.0455 20.2812 49.9954C20.2812 49.9453 25.3638 49.9023 31.6347 49.9023C37.9056 49.9023 42.9918 49.9417 42.9918 49.9954Z" fill="#E0E0E0"/>
<path d="M50.3369 62.5228H12.146C11.1745 62.5219 10.2432 62.1353 9.55662 61.4481C8.87004 60.7608 8.48437 59.8291 8.48438 58.8577C8.48438 57.8865 8.87015 56.9552 9.55683 56.2685C10.2435 55.5818 11.1749 55.196 12.146 55.196H50.3369C50.8181 55.1956 51.2946 55.2899 51.7393 55.4737C52.1839 55.6575 52.588 55.9272 52.9284 56.2672C53.2688 56.6073 53.5388 57.0111 53.723 57.4556C53.9073 57.9001 54.0021 58.3765 54.0021 58.8577C54.0021 59.339 53.9073 59.8156 53.7231 60.2603C53.5389 60.7049 53.269 61.109 52.9286 61.4493C52.5883 61.7897 52.1842 62.0596 51.7395 62.2438C51.2949 62.428 50.8183 62.5228 50.3369 62.5228Z" fill="#E0E0E0"/>
<path d="M24.2223 59.373H23.2846L23.1056 59.8061H22.626L23.528 57.7874H23.9897L24.8845 59.8061H24.4013L24.2223 59.373ZM24.0756 59.0151L23.7534 58.2419L23.4528 59.0186L24.0756 59.0151Z" fill="white"/>
<path d="M26.8528 58.5177C26.8528 58.9687 26.4949 59.2335 25.9759 59.2335H25.5678V59.7919H25.1025V57.7732H25.9759C26.5128 57.7875 26.8528 58.0667 26.8528 58.5177ZM26.3803 58.5177C26.3803 58.2958 26.2336 58.1598 25.9473 58.1598H25.5678V58.8756H25.958C26.2336 58.8685 26.3803 58.7396 26.3803 58.5177Z" fill="white"/>
<path d="M28.9329 58.5177C28.9329 58.9687 28.5964 59.2335 28.0595 59.2335H27.6515V59.7919H27.1826V57.7732H28.0595C28.5964 57.7875 28.9329 58.0667 28.9329 58.5177ZM28.4604 58.5177C28.4604 58.2958 28.3173 58.1598 28.0309 58.1598H27.6515V58.8756H28.0309C28.3173 58.8685 28.464 58.7396 28.464 58.5177H28.4604Z" fill="white"/>
<path d="M29.2656 57.7874H29.7345V59.4231H30.7474V59.8061H29.2656V57.7874Z" fill="white"/>
<path d="M31.7707 59.0904V59.8062H31.3018V59.0904L30.5215 57.7947H31.0154L31.5559 58.6895L32.0964 57.7947H32.5545L31.7707 59.0904Z" fill="white"/>
<path d="M35.4188 57.7874V59.8061H35.0359L34.0301 58.5784V59.8061H33.5684V57.7874H33.9549L34.9571 59.0115V57.7874H35.4188Z" fill="white"/>
<path d="M35.7687 58.7967C35.7551 58.5747 35.8085 58.3538 35.922 58.1625C36.0355 57.9712 36.2038 57.8185 36.4052 57.7241C36.6066 57.6296 36.8317 57.5979 37.0513 57.6331C37.271 57.6682 37.475 57.7685 37.6369 57.921C37.7988 58.0734 37.9112 58.2711 37.9594 58.4882C38.0076 58.7053 37.9894 58.9319 37.9073 59.1386C37.8251 59.3453 37.6827 59.5225 37.4986 59.6473C37.3145 59.772 37.0971 59.8386 36.8747 59.8383C36.7327 59.8466 36.5905 59.8258 36.4569 59.7772C36.3232 59.7286 36.2008 59.6533 36.0973 59.5558C35.9938 59.4583 35.9112 59.3407 35.8547 59.2101C35.7982 59.0796 35.7689 58.9389 35.7687 58.7967ZM37.5046 58.7967C37.5018 58.6728 37.4625 58.5524 37.3916 58.4507C37.3207 58.349 37.2213 58.2705 37.106 58.225C36.9907 58.1795 36.8645 58.1691 36.7432 58.195C36.622 58.2209 36.5111 58.282 36.4244 58.3706C36.3378 58.4593 36.2792 58.5715 36.256 58.6933C36.2328 58.8151 36.2461 58.941 36.2942 59.0553C36.3423 59.1696 36.423 59.2671 36.5262 59.3357C36.6295 59.4043 36.7507 59.441 36.8747 59.441C36.9593 59.4436 37.0436 59.4286 37.1222 59.3969C37.2007 59.3653 37.2719 59.3177 37.3311 59.2571C37.3903 59.1966 37.4363 59.1244 37.4662 59.0451C37.496 58.9659 37.5091 58.8813 37.5046 58.7967Z" fill="white"/>
<path d="M41.3174 57.7874L40.6552 59.8061H40.1541L39.7103 58.4388L39.2521 59.8061H38.7546L38.0889 57.7874H38.5756L39.0302 59.2191L39.5063 57.7874H39.9394L40.4011 59.2191L40.87 57.7874H41.3174Z" fill="white"/>
<path d="M59.7966 101.974H11.4727V128.994H59.7966V101.974Z" fill="#FAFAFA"/>
<path d="M59.7972 128.997C59.7972 128.997 59.7972 128.829 59.7972 128.507C59.7972 128.185 59.7972 127.712 59.7972 127.097C59.7972 125.855 59.7972 124.033 59.7757 121.692C59.7757 117.014 59.7542 110.267 59.7399 101.974L59.8115 102.045L11.4912 102.067L11.5842 101.974C11.5842 111.53 11.5842 120.668 11.5842 128.997L11.4983 128.908L46.246 128.951L56.2322 128.976H58.8952H59.586H59.8222H58.888H56.2429L46.2746 129.001L11.4697 129.044H11.3838V128.958C11.3838 120.629 11.3838 111.491 11.3838 101.934V101.841H11.4804L59.8008 101.863H59.8723V101.934C59.8544 110.249 59.8437 117.01 59.833 121.696C59.833 124.029 59.833 125.848 59.833 127.082C59.833 127.694 59.833 128.156 59.833 128.485C59.833 128.815 59.7972 128.997 59.7972 128.997Z" fill="#E0E0E0"/>
<path d="M24.2118 108.417H17.3789V115.249H24.2118V108.417Z" fill="#E0E0E0"/>
<path d="M33.5928 109.376C32.4021 109.468 31.2074 109.499 30.0135 109.469C28.8256 109.499 27.6369 109.468 26.4521 109.376C27.6369 109.283 28.8256 109.252 30.0135 109.282C31.2074 109.252 32.4021 109.283 33.5928 109.376Z" fill="#E0E0E0"/>
<path d="M56.3434 111.831C56.3434 111.881 49.6573 111.924 41.4071 111.924C33.1568 111.924 26.4707 111.881 26.4707 111.831C26.4707 111.781 33.1568 111.738 41.4071 111.738C49.6573 111.738 56.3434 111.781 56.3434 111.831Z" fill="#E0E0E0"/>
<path d="M46.2919 114.587C46.2919 114.637 41.8965 114.68 36.4775 114.68C31.0584 114.68 26.6738 114.637 26.6738 114.587C26.6738 114.537 31.0692 114.494 36.4882 114.494C41.9073 114.494 46.2919 114.533 46.2919 114.587Z" fill="#E0E0E0"/>
<path d="M52.6416 125.415H19.6335C18.7934 125.415 17.9877 125.081 17.3936 124.487C16.7996 123.893 16.4658 123.087 16.4658 122.247C16.4658 121.831 16.5478 121.419 16.707 121.035C16.8662 120.651 17.0996 120.302 17.3938 120.008C17.688 119.714 18.0372 119.481 18.4215 119.323C18.8058 119.164 19.2177 119.082 19.6335 119.083H52.6416C53.0575 119.082 53.4693 119.164 53.8536 119.323C54.2379 119.481 54.5871 119.714 54.8813 120.008C55.1755 120.302 55.4089 120.651 55.5681 121.035C55.7273 121.419 55.8093 121.831 55.8093 122.247C55.8093 123.087 55.4756 123.893 54.8815 124.487C54.2875 125.081 53.4818 125.415 52.6416 125.415Z" fill="#E0E0E0"/>
<path d="M30.0678 122.698H29.2589L29.105 123.056H28.6934L29.4701 121.312H29.8674L30.6476 123.056H30.2217L30.0678 122.698ZM29.9425 122.39L29.6669 121.724L29.3877 122.39H29.9425Z" fill="white"/>
<path d="M32.3399 121.957C32.3399 122.343 32.05 122.587 31.5847 122.587H31.2267V123.056H30.8223V121.312H31.5775C32.0428 121.323 32.3399 121.563 32.3399 121.957ZM31.9318 121.957C31.9318 121.763 31.8066 121.653 31.5739 121.653H31.2446V122.257H31.5739C31.8066 122.257 31.9318 122.146 31.9318 121.957Z" fill="white"/>
<path d="M34.1407 121.957C34.1407 122.343 33.8507 122.587 33.3854 122.587H33.0275V123.056H32.623V121.312H33.3783C33.8507 121.323 34.1407 121.563 34.1407 121.957ZM33.7326 121.957C33.7326 121.763 33.6073 121.653 33.3747 121.653H33.049V122.257H33.3747C33.6073 122.257 33.7326 122.146 33.7326 121.957Z" fill="white"/>
<path d="M34.4307 121.323H34.8315V122.737H35.7085V123.056H34.4307V121.323Z" fill="white"/>
<path d="M36.592 122.447V123.056H36.1876V122.433L35.5146 121.312H35.9406L36.4095 122.086L36.8748 121.312H37.2685L36.592 122.447Z" fill="white"/>
<path d="M39.7454 121.323V123.056H39.4126L38.5464 121.982V123.056H38.1455V121.312H38.4855L39.3553 122.386V121.312L39.7454 121.323Z" fill="white"/>
<path d="M40.0503 122.193C40.0396 122.002 40.0864 121.812 40.1847 121.648C40.2829 121.484 40.4281 121.353 40.6016 121.273C40.775 121.192 40.9686 121.165 41.1573 121.196C41.3461 121.226 41.5214 121.313 41.6605 121.444C41.7995 121.576 41.896 121.745 41.9375 121.932C41.9789 122.119 41.9634 122.314 41.8929 122.491C41.8224 122.669 41.7002 122.822 41.5421 122.929C41.384 123.037 41.1972 123.095 41.006 123.095C40.8831 123.102 40.76 123.084 40.6443 123.042C40.5286 123 40.4227 122.935 40.3332 122.851C40.2437 122.766 40.1724 122.664 40.1238 122.551C40.0751 122.438 40.0501 122.316 40.0503 122.193ZM41.5501 122.193C41.5472 122.086 41.513 121.982 41.4515 121.895C41.39 121.807 41.3041 121.74 41.2045 121.701C41.1049 121.662 40.9959 121.653 40.8914 121.675C40.7868 121.698 40.6912 121.751 40.6165 121.828C40.5419 121.904 40.4915 122.001 40.4716 122.106C40.4517 122.211 40.4633 122.32 40.5049 122.419C40.5465 122.517 40.6162 122.601 40.7053 122.661C40.7944 122.72 40.899 122.751 41.006 122.751C41.0792 122.753 41.1521 122.74 41.22 122.713C41.2879 122.685 41.3494 122.644 41.4005 122.591C41.4517 122.539 41.4913 122.476 41.5171 122.408C41.5428 122.339 41.554 122.266 41.5501 122.193Z" fill="white"/>
<path d="M44.8423 121.323L44.2732 123.056H43.8544L43.4679 121.874L43.0741 123.056H42.641L42.0684 121.312H42.4871L42.8809 122.537L43.2925 121.312H43.6504L44.0513 122.547L44.4557 121.312L44.8423 121.323Z" fill="white"/>
<path d="M228.152 114.165H179.828V141.185H228.152V114.165Z" fill="#FAFAFA"/>
<path d="M228.152 141.188C228.152 141.188 228.152 141.02 228.152 140.698C228.152 140.376 228.152 139.903 228.152 139.288C228.152 138.046 228.152 136.224 228.134 133.883C228.134 129.205 228.113 122.458 228.095 114.165L228.167 114.236L179.846 114.258L179.939 114.165C179.939 123.721 179.939 132.859 179.939 141.188L179.853 141.099L214.601 141.142L224.587 141.167H227.25H227.941H228.177H227.272H224.627L214.658 141.192L179.853 141.235H179.768V141.149C179.768 132.82 179.768 123.682 179.768 114.125V114.032H179.864L228.185 114.054H228.256V114.125C228.238 122.44 228.228 129.201 228.217 133.887C228.217 136.22 228.217 138.038 228.217 139.273C228.217 139.885 228.217 140.347 228.217 140.676C228.217 141.006 228.152 141.188 228.152 141.188Z" fill="#E0E0E0"/>
<path d="M192.567 120.607H185.734V127.44H192.567V120.607Z" fill="#E0E0E0"/>
<path d="M201.948 121.567C199.575 121.691 197.198 121.691 194.825 121.567C197.198 121.443 199.575 121.443 201.948 121.567Z" fill="#E0E0E0"/>
<path d="M224.698 124.022C224.698 124.072 218.012 124.115 209.762 124.115C201.511 124.115 194.825 124.072 194.825 124.022C194.825 123.972 201.511 123.929 209.762 123.929C218.012 123.929 224.698 123.972 224.698 124.022Z" fill="#E0E0E0"/>
<path d="M214.647 126.778C214.647 126.828 210.252 126.871 204.833 126.871C199.414 126.871 195.019 126.828 195.019 126.778C195.019 126.728 199.414 126.685 204.833 126.685C210.252 126.685 214.647 126.724 214.647 126.778Z" fill="#E0E0E0"/>
<path d="M220.997 137.605H187.989C187.149 137.605 186.343 137.272 185.749 136.678C185.155 136.084 184.821 135.278 184.821 134.438C184.821 134.022 184.903 133.61 185.062 133.226C185.222 132.842 185.455 132.493 185.749 132.199C186.043 131.905 186.393 131.672 186.777 131.514C187.161 131.355 187.573 131.273 187.989 131.274H220.997C221.413 131.273 221.825 131.355 222.209 131.514C222.593 131.672 222.943 131.905 223.237 132.199C223.531 132.493 223.764 132.842 223.924 133.226C224.083 133.61 224.165 134.022 224.165 134.438C224.165 135.278 223.831 136.084 223.237 136.678C222.643 137.272 221.837 137.605 220.997 137.605Z" fill="#E0E0E0"/>
<path d="M198.426 134.885H197.613L197.459 135.243H197.048L197.825 133.5H198.222L199.002 135.243H198.58L198.426 134.885ZM198.297 134.577L198.021 133.908L197.746 134.577H198.297Z" fill="white"/>
<path d="M200.699 134.151C200.699 134.538 200.405 134.781 199.94 134.781H199.582V135.261H199.195V133.518H199.951C200.405 133.514 200.699 133.754 200.699 134.151ZM200.291 134.151C200.291 133.958 200.165 133.847 199.933 133.847H199.603V134.452H199.911C200.165 134.448 200.291 134.334 200.291 134.151Z" fill="white"/>
<path d="M202.499 134.151C202.499 134.538 202.206 134.781 201.741 134.781H201.383V135.261H200.985V133.518H201.741C202.206 133.514 202.499 133.754 202.499 134.151ZM202.088 134.151C202.088 133.958 201.966 133.847 201.73 133.847H201.401V134.452H201.73C201.966 134.448 202.088 134.334 202.088 134.151Z" fill="white"/>
<path d="M202.775 133.514H203.18V134.928H204.053V135.258H202.775V133.514Z" fill="white"/>
<path d="M204.947 134.638V135.258H204.564V134.635L203.888 133.514H204.317L204.783 134.288L205.248 133.514H205.638L204.947 134.638Z" fill="white"/>
<path d="M208.101 133.514V135.258H207.786L206.917 134.184V135.258H206.516V133.514H206.852L207.718 134.588V133.514H208.101Z" fill="white"/>
<path d="M208.409 134.384C208.398 134.193 208.445 134.003 208.543 133.839C208.642 133.675 208.787 133.544 208.961 133.463C209.134 133.383 209.328 133.356 209.517 133.387C209.706 133.418 209.881 133.505 210.02 133.637C210.159 133.768 210.255 133.939 210.296 134.126C210.337 134.312 210.321 134.507 210.25 134.685C210.179 134.863 210.056 135.015 209.898 135.122C209.739 135.229 209.552 135.287 209.361 135.286C209.238 135.293 209.115 135.276 209 135.233C208.884 135.191 208.779 135.126 208.689 135.041C208.6 134.957 208.529 134.855 208.481 134.742C208.433 134.629 208.408 134.507 208.409 134.384ZM209.908 134.384C209.906 134.276 209.872 134.171 209.811 134.083C209.75 133.994 209.663 133.926 209.563 133.886C209.463 133.846 209.353 133.837 209.248 133.859C209.142 133.881 209.045 133.934 208.97 134.011C208.894 134.088 208.843 134.186 208.823 134.292C208.803 134.398 208.814 134.507 208.856 134.607C208.898 134.706 208.968 134.791 209.058 134.851C209.148 134.911 209.253 134.942 209.361 134.942C209.434 134.945 209.507 134.931 209.575 134.904C209.643 134.876 209.705 134.835 209.756 134.783C209.808 134.73 209.848 134.668 209.874 134.599C209.9 134.531 209.912 134.457 209.908 134.384Z" fill="white"/>
<path d="M213.198 133.514L212.629 135.258H212.196L211.813 134.076L211.415 135.258H210.986L210.413 133.514H210.832L211.226 134.739L211.634 133.514H211.992L212.389 134.749L212.793 133.514H213.198Z" fill="white"/>
<path d="M245.558 48.1877H189.649V79.4492H245.558V48.1877Z" fill="#FAFAFA"/>
<path d="M245.558 79.4493C245.558 79.4493 245.558 79.256 245.558 78.8874C245.558 78.5187 245.558 77.9711 245.558 77.2552C245.558 75.8235 245.558 73.7117 245.558 71.0058C245.558 65.5939 245.537 57.7875 245.519 48.1879L245.59 48.2594L189.686 48.2809L189.779 48.1879C189.779 59.2443 189.779 69.8175 189.779 79.4493L189.693 79.3634L229.899 79.4064L241.453 79.4314H244.531H245.605H245.343H244.556H241.492L229.96 79.4565L189.696 79.4994H189.61V79.4099C189.61 69.7781 189.61 59.2049 189.61 48.1485V48.0554H189.707L245.612 48.0769H245.683V48.1485C245.683 57.766 245.655 65.5867 245.644 71.0094C245.644 73.7081 245.644 75.8128 245.644 77.2445C245.644 77.9603 245.644 78.4936 245.644 78.8623C245.644 79.231 245.558 79.4493 245.558 79.4493Z" fill="#E0E0E0"/>
<path d="M204.385 55.6399H196.482V63.543H204.385V55.6399Z" fill="#E0E0E0"/>
<path d="M215.241 56.7496C215.241 56.8032 213.398 56.8426 211.122 56.8426C208.845 56.8426 207.002 56.8032 207.002 56.7496C207.002 56.6959 208.845 56.6565 211.122 56.6565C213.398 56.6565 215.241 56.6994 215.241 56.7496Z" fill="#E0E0E0"/>
<path d="M241.564 59.5914C241.564 59.645 233.825 59.6844 224.283 59.6844C214.74 59.6844 207.002 59.645 207.002 59.5914C207.002 59.5377 214.737 59.4983 224.283 59.4983C233.829 59.4983 241.564 59.5412 241.564 59.5914Z" fill="#E0E0E0"/>
<path d="M229.934 62.7806C229.934 62.8307 224.852 62.8736 218.581 62.8736C212.31 62.8736 207.224 62.8307 207.224 62.7806C207.224 62.7305 212.306 62.6875 218.581 62.6875C224.855 62.6875 229.934 62.7269 229.934 62.7806Z" fill="#E0E0E0"/>
<path d="M237.283 67.9812H199.088C197.066 67.9812 195.427 69.6206 195.427 71.6428V71.6464C195.427 73.6686 197.066 75.308 199.088 75.308H237.283C239.305 75.308 240.945 73.6686 240.945 71.6464V71.6428C240.945 69.6206 239.305 67.9812 237.283 67.9812Z" fill="#E0E0E0"/>
<path d="M211.165 72.1584H210.228L210.049 72.5915H209.576L210.475 70.5728H210.936L211.838 72.5915H211.348L211.165 72.1584ZM211.019 71.8005L210.7 71.0273L210.378 71.8005H211.019Z" fill="white"/>
<path d="M213.795 71.3064C213.795 71.7538 213.459 72.0223 212.918 72.0223H212.514V72.5878H212.045V70.5691H212.918C213.459 70.5727 213.795 70.8519 213.795 71.3064ZM213.323 71.3064C213.323 71.0845 213.18 70.9485 212.893 70.9485H212.514V71.6644H212.893C213.18 71.6536 213.323 71.514 213.323 71.3064Z" fill="white"/>
<path d="M215.879 71.3064C215.879 71.7538 215.542 72.0223 215.002 72.0223H214.586V72.5878H214.121V70.5691H214.994C215.542 70.5727 215.879 70.8519 215.879 71.3064ZM215.406 71.3064C215.406 71.0845 215.259 70.9485 214.977 70.9485H214.586V71.6644H214.969C215.259 71.6536 215.406 71.514 215.406 71.3064Z" fill="white"/>
<path d="M216.211 70.5728H216.676V72.23H217.689V72.5879H216.211V70.5728Z" fill="white"/>
<path d="M218.714 71.872V72.5879H218.248V71.872L217.45 70.5728H217.948L218.485 71.4676L219.025 70.5728H219.483L218.714 71.872Z" fill="white"/>
<path d="M222.361 70.5727V72.5878H221.978L220.972 71.3601V72.5878H220.511V70.5691H220.897L221.903 71.7932V70.5691L222.361 70.5727Z" fill="white"/>
<path d="M222.715 71.5819C222.702 71.3608 222.757 71.1411 222.871 70.9514C222.985 70.7616 223.153 70.6104 223.354 70.5174C223.555 70.4243 223.779 70.3938 223.998 70.4296C224.216 70.4655 224.419 70.5661 224.58 70.7184C224.741 70.8707 224.852 71.0678 224.899 71.2841C224.947 71.5004 224.928 71.7259 224.846 71.9315C224.764 72.1371 224.622 72.3133 224.438 72.4373C224.255 72.5613 224.038 72.6274 223.817 72.627C223.675 72.6354 223.533 72.6145 223.399 72.5656C223.265 72.5168 223.143 72.4411 223.04 72.3431C222.936 72.2452 222.854 72.1271 222.798 71.9962C222.742 71.8652 222.714 71.7242 222.715 71.5819ZM224.451 71.5819C224.448 71.4571 224.409 71.3356 224.339 71.2329C224.268 71.1301 224.168 71.0506 224.052 71.0043C223.936 70.958 223.809 70.947 223.687 70.9726C223.565 70.9982 223.453 71.0594 223.365 71.1484C223.278 71.2374 223.219 71.3503 223.195 71.4729C223.171 71.5955 223.185 71.7223 223.233 71.8375C223.281 71.9526 223.362 72.0509 223.466 72.1201C223.57 72.1892 223.692 72.2261 223.817 72.2262C223.902 72.2282 223.986 72.2128 224.064 72.181C224.143 72.1492 224.214 72.1017 224.273 72.0413C224.333 71.9809 224.379 71.909 224.41 71.8299C224.44 71.7509 224.454 71.6665 224.451 71.5819Z" fill="white"/>
<path d="M228.259 70.5727L227.6 72.5878H227.113L226.666 71.2205L226.194 72.5878H225.682L225.02 70.5691H225.503L225.957 72.0008L226.433 70.5691H226.866L227.328 72.0008L227.797 70.5691L228.259 70.5727Z" fill="white"/>
<path d="M206.634 0.0930176H40.9922V151.558H206.634V0.0930176Z" fill="white"/>
<path d="M206.634 0.0930176H40.9922V10.1687H206.634V0.0930176Z" fill="#E0E0E0"/>
<path d="M184.335 141.833C184.335 141.886 156.617 141.926 122.414 141.926C88.2102 141.926 60.4922 141.886 60.4922 141.833C60.4922 141.779 88.2066 141.74 122.414 141.74C156.621 141.74 184.335 141.783 184.335 141.833Z" fill="#263238"/>
<path d="M112.171 111.448H109.719V124.362H112.171V111.448Z" fill="#E0E0E0"/>
<path d="M112.174 124.359C112.168 124.27 112.168 124.182 112.174 124.094C112.174 123.908 112.174 123.661 112.174 123.349C112.174 122.691 112.174 121.767 112.145 120.618C112.145 118.299 112.12 115.088 112.106 111.448L112.199 111.538H109.715C109.897 111.352 109.765 111.488 109.808 111.448V115.385C109.808 116.638 109.808 117.83 109.808 118.936C109.808 121.137 109.786 123.002 109.779 124.369L109.726 124.319L111.515 124.348H111.995H112.17C112.119 124.353 112.067 124.353 112.016 124.348H111.544L109.715 124.373H109.668V124.319C109.668 122.952 109.65 121.098 109.64 118.886C109.64 117.78 109.64 116.588 109.64 115.335V113.41C109.64 113.084 109.64 112.751 109.64 112.418V111.416L109.736 111.319H112.278V111.412C112.278 115.078 112.249 118.31 112.238 120.647C112.238 121.785 112.217 122.705 112.213 123.36C112.213 123.661 112.213 123.901 112.213 124.076C112.207 124.171 112.194 124.266 112.174 124.359Z" fill="#263238"/>
<path d="M116.623 109.49H105.169C104.353 109.49 103.571 109.167 102.994 108.59C102.416 108.014 102.092 107.232 102.091 106.416H119.701C119.7 107.232 119.375 108.014 118.798 108.59C118.221 109.167 117.438 109.49 116.623 109.49Z" fill="#263238"/>
<path d="M126.735 107.017H106.748V102.743H126.735C127.304 102.743 127.851 102.969 128.253 103.372C128.656 103.775 128.882 104.321 128.882 104.891C128.877 105.457 128.648 105.997 128.246 106.395C127.844 106.794 127.301 107.017 126.735 107.017Z" fill="#407BFF"/>
<path d="M91.2136 72.0402C90.6642 72.1144 90.1655 72.4003 89.8238 72.8369C89.4821 73.2735 89.3245 73.8263 89.3846 74.3774L92.2695 100.599C92.4683 102.364 93.3103 103.995 94.6347 105.178C95.9592 106.362 97.6732 107.017 99.4495 107.017H107.073C107.643 107.017 108.189 106.791 108.592 106.388C108.995 105.985 109.221 105.439 109.221 104.869C109.221 104.3 108.995 103.754 108.592 103.351C108.189 102.948 107.643 102.722 107.073 102.722H100.598C99.7088 102.722 98.8494 102.399 98.1798 101.813C97.5103 101.227 97.0763 100.418 96.9583 99.5362L93.6081 73.8692C93.5716 73.592 93.4806 73.3247 93.3406 73.0826C93.2006 72.8406 93.0142 72.6286 92.7921 72.4587C92.57 72.2888 92.3166 72.1644 92.0463 72.0925C91.7761 72.0207 91.4943 72.0029 91.2172 72.0402H91.2136Z" fill="#407BFF"/>
<path d="M115.503 102.951L93.7729 103.255L91.6504 72.0188L109.837 71.9043C110.712 71.909 111.55 72.2612 112.166 72.8833C112.782 73.5054 113.126 74.3467 113.123 75.2223L115.503 102.951Z" fill="#407BFF"/>
<g opacity="0.3">
<path d="M91.2136 72.0402C90.6642 72.1144 90.1655 72.4003 89.8238 72.8369C89.4821 73.2735 89.3245 73.8263 89.3846 74.3774L92.2695 100.599C92.4683 102.364 93.3103 103.995 94.6347 105.178C95.9592 106.362 97.6732 107.017 99.4495 107.017H107.073C107.643 107.017 108.189 106.791 108.592 106.388C108.995 105.985 109.221 105.439 109.221 104.869C109.221 104.3 108.995 103.754 108.592 103.351C108.189 102.948 107.643 102.722 107.073 102.722H100.133C98.2934 102.722 97.0013 101.419 96.7579 99.5935L93.6081 73.8692C93.5716 73.592 93.4806 73.3247 93.3406 73.0826C93.2006 72.8406 93.0142 72.6286 92.7921 72.4587C92.57 72.2888 92.3166 72.1644 92.0463 72.0925C91.7761 72.0207 91.4943 72.0029 91.2172 72.0402H91.2136Z" fill="black"/>
</g>
<path d="M113.319 109.49H108.569V111.96H113.319V109.49Z" fill="#263238"/>
<path d="M111.834 123.635H109.99C109.206 123.635 108.569 124.272 108.569 125.056V133.529C108.569 134.313 109.206 134.95 109.99 134.95H111.834C112.618 134.95 113.255 134.313 113.255 133.529V125.056C113.255 124.272 112.618 123.635 111.834 123.635Z" fill="#E0E0E0"/>
<path d="M111.837 134.95C111.837 134.95 111.941 134.95 112.131 134.899C112.366 134.841 112.582 134.723 112.759 134.558C112.936 134.392 113.068 134.185 113.143 133.955C113.203 133.721 113.224 133.479 113.204 133.239C113.204 132.705 113.204 132.1 113.204 131.449C113.204 130.103 113.204 128.514 113.183 126.749C113.183 126.309 113.183 125.855 113.183 125.393C113.199 125.167 113.182 124.941 113.133 124.72C113.075 124.503 112.961 124.304 112.803 124.144C112.645 123.977 112.447 123.854 112.227 123.786C111.993 123.732 111.751 123.714 111.511 123.732H110.001C109.764 123.732 109.532 123.796 109.328 123.916C109.124 124.036 108.956 124.209 108.841 124.416C108.73 124.619 108.673 124.847 108.673 125.078V125.794C108.673 126.753 108.673 127.684 108.673 128.568C108.673 130.332 108.673 131.922 108.655 133.264C108.622 133.572 108.675 133.883 108.809 134.162C108.932 134.387 109.115 134.573 109.337 134.699C109.56 134.825 109.813 134.887 110.069 134.878H110.692L111.554 134.896C111.655 134.892 111.756 134.898 111.855 134.914C111.755 134.921 111.654 134.921 111.554 134.914L110.692 134.932H110.069C109.793 134.945 109.519 134.881 109.278 134.746C109.037 134.611 108.838 134.411 108.705 134.169C108.629 134.027 108.576 133.874 108.548 133.715C108.525 133.549 108.517 133.381 108.523 133.214C108.523 131.871 108.523 130.282 108.501 128.518C108.501 127.634 108.501 126.703 108.501 125.744V125.028C108.498 124.828 108.535 124.629 108.61 124.443C108.685 124.257 108.795 124.088 108.936 123.946C109.076 123.803 109.244 123.69 109.429 123.613C109.613 123.536 109.811 123.496 110.012 123.496H111.504C111.76 123.477 112.017 123.498 112.267 123.557C112.514 123.633 112.74 123.769 112.922 123.954C113.093 124.138 113.216 124.362 113.279 124.605C113.33 124.841 113.348 125.081 113.333 125.321C113.333 125.783 113.333 126.238 113.333 126.678C113.333 128.442 113.333 130.032 113.315 131.377C113.315 132.043 113.315 132.648 113.315 133.167C113.33 133.418 113.304 133.669 113.237 133.912C113.166 134.115 113.052 134.3 112.904 134.456C112.699 134.668 112.434 134.811 112.145 134.867C112.047 134.911 111.943 134.939 111.837 134.95Z" fill="#263238"/>
<path d="M124.586 134.248H96.7039C96.3311 134.235 95.9598 134.3 95.6138 134.439C95.2679 134.578 94.9551 134.789 94.6959 135.057C93.6615 136.131 93.7259 137.92 93.7295 137.985L95.0001 137.931C95.0001 137.573 95.0681 136.499 95.6158 135.934C95.7563 135.794 95.9242 135.685 96.1091 135.614C96.2939 135.542 96.4916 135.51 96.6895 135.519H104.006V138.758H105.276V135.519H124.572C124.965 135.52 125.341 135.676 125.619 135.954C125.897 136.231 126.053 136.608 126.054 137.001V137.956H127.325V137.015C127.327 136.285 127.041 135.584 126.528 135.065C126.014 134.547 125.316 134.253 124.586 134.248Z" fill="#E0E0E0"/>
<path d="M124.586 134.248C124.705 134.24 124.825 134.24 124.944 134.248C125.284 134.285 125.615 134.386 125.918 134.545C126.411 134.814 126.814 135.223 127.077 135.719C127.243 136.036 127.345 136.383 127.378 136.739C127.403 137.122 127.378 137.516 127.396 137.942V137.989H126.032V137.938C125.996 137.319 126.175 136.56 125.656 136.031C125.412 135.763 125.076 135.598 124.715 135.569C124.357 135.569 123.942 135.569 123.541 135.569H118.24H105.305L105.39 135.479C105.39 136.5 105.39 137.602 105.39 138.719V138.812H103.937V135.479L104.03 135.572H96.5818C96.327 135.58 96.0793 135.658 95.866 135.798C95.6603 135.948 95.4975 136.149 95.3935 136.381C95.1825 136.854 95.0787 137.367 95.0893 137.885V137.978H95.0034L93.7327 138.031H93.6397V137.938C93.6279 137.337 93.7212 136.739 93.9153 136.17C94.0975 135.6 94.4361 135.093 94.8924 134.706C95.3576 134.342 95.9267 134.135 96.5174 134.116C97.0901 134.116 97.6413 134.116 98.1961 134.116H104.517L115.065 134.137L122.059 134.162L123.938 134.18H124.425H124.59C124.59 134.18 124.536 134.18 124.425 134.18H123.938H122.059L115.065 134.209L104.517 134.23H98.1961C97.6449 134.23 97.0829 134.23 96.5281 134.23C95.9741 134.247 95.4404 134.443 95.0069 134.789C94.5753 135.153 94.2552 135.632 94.0835 136.17C93.8991 136.718 93.8119 137.293 93.8258 137.87L93.7291 137.784L94.9962 137.731L94.9103 137.824C94.8973 137.276 95.0073 136.731 95.2324 136.231C95.3505 135.97 95.5343 135.745 95.7657 135.576C96.0063 135.417 96.2864 135.328 96.5747 135.318H104.116V135.411C104.116 136.525 104.116 137.627 104.116 138.651L104.027 138.561H105.294L105.204 138.651C105.204 137.534 105.204 136.432 105.204 135.411V135.322H105.294H118.229H123.53C123.935 135.322 124.321 135.322 124.715 135.322C125.094 135.355 125.447 135.527 125.707 135.804C125.967 136.082 126.116 136.445 126.125 136.825C126.125 137.165 126.125 137.495 126.125 137.813L126.075 137.763H127.346L127.299 137.806C127.299 137.384 127.317 136.979 127.299 136.61C127.272 136.263 127.176 135.925 127.016 135.615C126.767 135.126 126.378 134.721 125.9 134.452C125.604 134.288 125.28 134.18 124.944 134.134C124.704 134.255 124.586 134.255 124.586 134.248Z" fill="#263238"/>
<path d="M107.102 140.268C107.103 140.761 106.958 141.242 106.685 141.651C106.412 142.061 106.023 142.38 105.569 142.569C105.115 142.758 104.614 142.808 104.131 142.712C103.649 142.617 103.205 142.38 102.857 142.032C102.509 141.685 102.271 141.241 102.175 140.759C102.079 140.276 102.128 139.776 102.316 139.321C102.504 138.866 102.823 138.477 103.232 138.204C103.641 137.93 104.122 137.784 104.615 137.784C105.274 137.784 105.906 138.046 106.372 138.512C106.839 138.978 107.101 139.609 107.102 140.268Z" fill="#263238"/>
<path d="M96.8512 139.664C96.8512 140.156 96.7053 140.637 96.4319 141.046C96.1586 141.455 95.7701 141.774 95.3155 141.962C94.861 142.15 94.3608 142.199 93.8783 142.103C93.3957 142.007 92.9525 141.771 92.6046 141.423C92.2567 141.075 92.0198 140.631 91.9238 140.149C91.8278 139.666 91.877 139.166 92.0653 138.712C92.2536 138.257 92.5725 137.869 92.9815 137.595C93.3906 137.322 93.8716 137.176 94.3636 137.176C95.0233 137.176 95.6561 137.438 96.1226 137.905C96.5891 138.371 96.8512 139.004 96.8512 139.664Z" fill="#263238"/>
<path d="M128.903 139.753C128.904 140.245 128.758 140.727 128.485 141.136C128.213 141.546 127.824 141.865 127.37 142.054C126.915 142.243 126.415 142.292 125.932 142.197C125.449 142.101 125.006 141.865 124.658 141.517C124.309 141.169 124.072 140.726 123.976 140.243C123.88 139.761 123.929 139.26 124.117 138.806C124.305 138.351 124.624 137.962 125.033 137.689C125.442 137.415 125.923 137.269 126.415 137.269C127.074 137.269 127.707 137.531 128.173 137.996C128.639 138.462 128.902 139.094 128.903 139.753Z" fill="#263238"/>
<path d="M127.271 102.743C127.271 102.793 121.143 102.858 113.587 102.886C106.031 102.915 99.9033 102.886 99.9033 102.843C99.9033 102.801 106.027 102.729 113.587 102.7C121.146 102.672 127.271 102.69 127.271 102.743Z" fill="#263238"/>
<path d="M96.7862 99.189C96.7361 99.189 95.9808 93.5337 95.1039 86.5434C94.227 79.553 93.5541 73.8763 93.6042 73.8691C93.6543 73.862 94.4095 79.5244 95.2865 86.5183C96.1634 93.5123 96.8291 99.1818 96.7862 99.189Z" fill="#263238"/>
<path d="M93.375 71.9794C93.4373 71.9555 93.5022 71.9387 93.5683 71.9293C93.7552 71.8969 93.9442 71.8778 94.1338 71.8721C94.8361 71.8475 95.5368 71.9556 96.199 72.1906C96.6619 72.3578 97.0754 72.6384 97.4017 73.0067C97.7606 73.4315 98.0693 73.8963 98.3216 74.3919C98.8585 75.4263 99.4562 76.5394 100.111 77.717C101.425 80.0471 102.66 82.1374 103.497 83.6837C103.923 84.4532 104.249 85.0832 104.471 85.5235C104.571 85.7275 104.65 85.8814 104.718 86.0317C104.751 86.0897 104.775 86.1525 104.789 86.2178C104.749 86.1648 104.713 86.1085 104.682 86.0496L104.406 85.5557L103.383 83.7481C102.516 82.2198 101.264 80.1438 99.9466 77.8065C99.288 76.6397 98.6938 75.505 98.1569 74.4742C97.9163 73.986 97.6183 73.5282 97.2693 73.1105C96.964 72.7534 96.5738 72.479 96.1346 72.3123C95.4893 72.0749 94.8071 71.9537 94.1195 71.9544C93.647 71.9401 93.3786 71.9973 93.375 71.9794Z" fill="#263238"/>
<path d="M89.5318 73.3394C89.5783 73.3645 87.9318 76.2351 85.8594 79.7464C83.787 83.2576 82.069 86.0888 82.0224 86.0638C81.9759 86.0387 83.6224 83.1682 85.6984 79.6533C87.7744 76.1384 89.4888 73.3037 89.5318 73.3394Z" fill="#263238"/>
<path d="M108.945 86.0603H79.1543V94.8439H108.945V86.0603Z" fill="#FAFAFA"/>
<path d="M87.1903 88.7876L85.7335 92.1593H84.9639L83.5107 88.7876H84.3519L85.3756 91.2L86.4135 88.7912L87.1903 88.7876Z" fill="#263238"/>
<path d="M89.5745 91.4364H88.0103L87.7132 92.1522H86.915L88.4148 88.7805H89.1843L90.6912 92.1522H89.8715L89.5745 91.4364ZM89.3132 90.8422L88.7799 89.5501L88.2609 90.8422H89.3132Z" fill="#263238"/>
<path d="M90.7803 90.4843C90.8007 90.1197 90.9283 89.7692 91.1471 89.4769C91.366 89.1846 91.6662 88.9634 92.0103 88.841C92.3544 88.7187 92.7269 88.7007 93.0811 88.7893C93.4354 88.8778 93.7556 89.069 94.0016 89.3389L93.5005 89.8006C93.3984 89.6757 93.2694 89.5755 93.1231 89.5073C92.9769 89.4392 92.8171 89.4048 92.6558 89.4069C92.371 89.4069 92.0979 89.52 91.8965 89.7214C91.6952 89.9228 91.582 90.1959 91.582 90.4807C91.582 90.7655 91.6952 91.0386 91.8965 91.24C92.0979 91.4413 92.371 91.5545 92.6558 91.5545C92.8174 91.5561 92.9773 91.5212 93.1236 91.4524C93.2699 91.3836 93.3987 91.2827 93.5005 91.1572L94.0016 91.6189C93.7566 91.8903 93.4366 92.083 93.0822 92.1727C92.7277 92.2624 92.3546 92.2451 92.0099 92.123C91.6653 92.0008 91.3646 91.7793 91.1457 91.4864C90.9269 91.1934 90.7997 90.8422 90.7803 90.4771V90.4843Z" fill="#263238"/>
<path d="M96.6682 91.4364H95.104L94.807 92.1522H94.0088L95.5085 88.7805H96.2781L97.7849 92.1522H96.9653L96.6682 91.4364ZM96.4248 90.8458L95.8879 89.5536L95.3546 90.8422L96.4248 90.8458Z" fill="#263238"/>
<path d="M101.225 88.7876V92.1593H100.584L98.9053 90.1262V92.1736H98.1357V88.8019H98.78L100.455 90.8493V88.8019L101.225 88.7876Z" fill="#263238"/>
<path d="M102.717 89.4105H101.644V88.7734H104.579V89.4105H103.505V92.1451H102.724L102.717 89.4105Z" fill="#263238"/>
<path d="M107.982 94.0636C107.982 94.0636 107.982 94.0206 107.982 93.9347C107.982 93.8488 107.982 93.7271 107.982 93.5768C107.982 93.2511 107.982 92.7786 107.982 92.1701C107.982 90.9388 107.982 89.1528 107.954 86.8978L108.007 86.9515L79.9101 86.9909C79.9495 86.9479 79.8135 87.084 79.9996 86.8978V94.0564L79.9065 93.9669L99.9505 94.0063L105.86 94.0314H107.456H107.871H108.015C107.971 94.0348 107.926 94.0348 107.882 94.0314H107.478H105.903L100.015 94.0564L79.9137 94.0994H79.8242V94.0636C79.8242 92.9075 79.8242 91.7263 79.8242 90.5308V86.8764C80.0103 86.6902 79.8779 86.8227 79.9209 86.7833L108.018 86.8191H108.076V86.8764C108.076 89.1456 108.05 90.9424 108.043 92.1809C108.043 92.7858 108.043 93.2546 108.043 93.5768V93.9347C108.028 93.9798 108.008 94.023 107.982 94.0636Z" fill="#263238"/>
<path d="M110.896 42.479H113.162L110.917 44.3116H109.296L110.896 42.479Z" fill="#263238"/>
<path d="M85.4577 59.7597V64.4736H82.5728V60.2322C82.5728 59.0439 82.0538 58.5428 81.2199 58.5428C80.2928 58.5428 79.577 59.1226 79.577 60.4899V64.4736H76.6885V53.1953H79.577V56.9929C80.2589 56.3907 81.1445 56.0708 82.0538 56.0981C83.9831 56.0981 85.4577 57.1969 85.4577 59.7597Z" fill="#263238"/>
<path d="M86.9502 53.786C86.9502 52.9198 87.6661 52.2505 88.7112 52.2505C89.7564 52.2505 90.4758 52.8733 90.4758 53.7395C90.4758 54.6057 89.7778 55.3215 88.7112 55.3215C87.6446 55.3215 86.9502 54.6522 86.9502 53.786ZM87.2688 56.2342H90.1572V64.4666H87.2688V56.2342Z" fill="#263238"/>
<path d="M97.5446 56.0981V58.6967C97.3276 58.6667 97.1088 58.6511 96.8896 58.6502C95.7192 58.6502 94.9139 59.2443 94.9139 60.6868V64.4737H92.0254V56.2413H94.7779V57.2292C95.372 56.4811 96.3277 56.0981 97.5446 56.0981Z" fill="#263238"/>
<path d="M98.4111 53.786C98.4111 52.9198 99.1091 52.2505 100.176 52.2505C101.242 52.2505 101.937 52.8733 101.937 53.7395C101.937 54.6057 101.239 55.3215 100.176 55.3215C99.1127 55.3215 98.4111 54.6522 98.4111 53.786ZM98.7297 56.2342H101.618V64.4666H98.7297V56.2342Z" fill="#263238"/>
<path d="M112.26 59.7596V64.4735H109.357V60.2321C109.357 59.0438 108.842 58.5427 108.004 58.5427C107.077 58.5427 106.361 59.1225 106.361 60.4898V64.4735H103.477V56.2412H106.225V57.136C106.568 56.7947 106.977 56.5272 107.427 56.3499C107.877 56.1726 108.359 56.0893 108.842 56.1052C110.789 56.098 112.26 57.1969 112.26 59.7596Z" fill="#263238"/>
<path d="M123.052 56.2341V62.9667C123.052 66.0843 121.291 67.5589 118.22 67.5589C116.637 67.5589 115.134 67.201 114.128 66.4851L115.177 64.4629C115.991 65.0406 116.964 65.3497 117.962 65.3469C119.512 65.3469 120.163 64.6311 120.163 63.3533V63.0812C119.853 63.4141 119.473 63.6741 119.05 63.8424C118.627 64.0108 118.173 64.0833 117.718 64.0548C115.528 64.0548 113.674 62.5014 113.674 60.0711C113.674 57.6407 115.528 56.1052 117.718 56.1052C118.857 56.1052 119.737 56.4632 120.303 57.2434V56.2412L123.052 56.2341ZM120.188 60.0639C120.188 59.0617 119.426 58.3924 118.398 58.3924C117.371 58.3924 116.587 59.0617 116.587 60.0639C116.587 61.0661 117.364 61.7498 118.398 61.7498C118.63 61.7666 118.862 61.7353 119.08 61.6578C119.299 61.5803 119.499 61.4583 119.668 61.2995C119.837 61.1407 119.971 60.9485 120.062 60.7352C120.152 60.522 120.198 60.2921 120.195 60.0603L120.188 60.0639Z" fill="#263238"/>
<path d="M124.39 62.8916C124.39 62.4321 124.572 61.9915 124.897 61.6666C125.222 61.3417 125.663 61.1592 126.122 61.1592C126.581 61.1592 127.022 61.3417 127.347 61.6666C127.672 61.9915 127.854 62.4321 127.854 62.8916C127.854 63.351 127.672 63.7916 127.347 64.1165C127.022 64.4414 126.581 64.6239 126.122 64.6239C125.663 64.6239 125.222 64.4414 124.897 64.1165C124.572 63.7916 124.39 63.351 124.39 62.8916Z" fill="#407BFF"/>
<path d="M116.05 44.9595V47.0032C115.88 46.98 115.709 46.968 115.538 46.9675C114.618 46.9675 113.988 47.4328 113.988 48.5638V51.5346H111.719V45.0669H113.866V45.8436C114.346 45.2601 115.083 44.9595 116.05 44.9595Z" fill="#263238"/>
<path d="M123.499 48.8752H118.796C118.989 49.5302 119.547 49.9132 120.385 49.9132C120.658 49.9227 120.93 49.8779 121.186 49.7814C121.441 49.685 121.675 49.5387 121.874 49.3513L123.069 50.5933C122.446 51.2841 121.541 51.6456 120.313 51.6456C118.008 51.6456 116.516 50.2139 116.516 48.2918C116.516 46.3697 118.033 44.9595 120.073 44.9595C121.981 44.9595 123.535 46.18 123.535 48.3133C123.535 48.4815 123.51 48.6962 123.499 48.8752ZM118.76 47.6833H121.409C121.352 47.3729 121.189 47.0921 120.947 46.8899C120.705 46.6877 120.4 46.577 120.084 46.577C119.769 46.577 119.463 46.6877 119.221 46.8899C118.979 47.0921 118.816 47.3729 118.76 47.6833Z" fill="#263238"/>
<path d="M101.947 45.0667L99.6421 51.5344H97.448L96.2311 48.016L94.964 51.5344H92.7699L90.4648 45.0667H92.6124L93.9368 48.9824L95.3112 45.0667H97.244L98.5791 49.0039L99.9535 45.0667H101.947Z" fill="#263238"/>
<path d="M109.035 48.8752H104.346C104.539 49.5302 105.097 49.9132 105.935 49.9132C106.209 49.9227 106.481 49.878 106.737 49.7816C106.994 49.6851 107.228 49.5389 107.428 49.3513L108.619 50.5933C108 51.2841 107.091 51.6456 105.863 51.6456C103.558 51.6456 102.069 50.2139 102.069 48.2918C102.069 46.3697 103.583 44.9595 105.624 44.9595C107.535 44.9595 109.085 46.18 109.085 48.3133C109.07 48.4815 109.045 48.6962 109.035 48.8752ZM104.296 47.6833H106.948C106.894 47.3708 106.731 47.0874 106.489 46.8831C106.246 46.6789 105.939 46.5668 105.622 46.5668C105.305 46.5668 104.998 46.6789 104.755 46.8831C104.512 47.0874 104.35 47.3708 104.296 47.6833Z" fill="#263238"/>
<path d="M92.1444 33.0941L91.7865 25.4881C91.7725 25.1877 91.649 24.9027 91.4393 24.6871C91.2296 24.4715 90.9482 24.3401 90.6483 24.3177C90.3328 24.2931 90.02 24.391 89.7748 24.5909C89.5295 24.7908 89.3706 25.0775 89.3311 25.3915L88.3683 33.0153C88.3532 33.1504 88.3667 33.2871 88.408 33.4165C88.4494 33.5459 88.5175 33.6652 88.608 33.7665C88.6985 33.8679 88.8094 33.949 88.9334 34.0046C89.0574 34.0601 89.1917 34.089 89.3275 34.0891H91.1816C91.3105 34.0882 91.438 34.0616 91.5565 34.0109C91.675 33.9602 91.7822 33.8863 91.8719 33.7937C91.9615 33.701 92.0318 33.5914 92.0786 33.4713C92.1254 33.3512 92.1478 33.223 92.1444 33.0941Z" fill="#E0E0E0"/>
<path d="M88.6977 20.0117C88.8188 19.6656 89.0398 19.3631 89.3327 19.1426C89.6257 18.922 89.9774 18.7933 90.3436 18.7727C90.7097 18.7521 91.0737 18.8405 91.3895 19.0267C91.7054 19.213 91.959 19.4887 92.1181 19.8191C92.2773 20.1494 92.3349 20.5195 92.2837 20.8826C92.2326 21.2457 92.0749 21.5855 91.8306 21.859C91.5863 22.1325 91.2664 22.3274 90.9114 22.419C90.5563 22.5107 90.1821 22.495 89.8359 22.374C89.6061 22.2937 89.3943 22.1688 89.2127 22.0066C89.0311 21.8444 88.8832 21.648 88.7775 21.4286C88.6718 21.2093 88.6104 20.9712 88.5967 20.7281C88.583 20.485 88.6173 20.2416 88.6977 20.0117Z" fill="#E0E0E0"/>
<path d="M72.2354 42.7045L67.8043 38.9427C67.6285 38.7956 67.4052 38.7174 67.1761 38.7227C66.9469 38.7279 66.7275 38.8163 66.5587 38.9713C66.3815 39.1348 66.2741 39.3603 66.2587 39.6009C66.2434 39.8415 66.3213 40.0788 66.4763 40.2635L70.2274 44.7662C70.2946 44.8462 70.378 44.9111 70.4721 44.9566C70.5661 45.0021 70.6688 45.0272 70.7732 45.0303C70.8777 45.0333 70.9816 45.0142 71.0781 44.9743C71.1747 44.9343 71.2617 44.8744 71.3334 44.7984L72.2963 43.764C72.3639 43.6915 72.4162 43.606 72.4499 43.5127C72.4836 43.4194 72.4981 43.3203 72.4924 43.2213C72.4867 43.1222 72.461 43.0254 72.4168 42.9366C72.3727 42.8478 72.3109 42.7688 72.2354 42.7045Z" fill="#F5F5F5"/>
<path d="M63.1448 37.8259C63.0095 37.5756 62.9519 37.2906 62.9793 37.0074C63.0067 36.7242 63.1179 36.4555 63.2987 36.2358C63.4795 36.016 63.7216 35.8551 63.9943 35.7736C64.2669 35.6921 64.5576 35.6937 64.8294 35.7782C65.1011 35.8626 65.3415 36.0262 65.5199 36.2479C65.6982 36.4696 65.8065 36.7394 65.8308 37.0229C65.8552 37.3064 65.7945 37.5908 65.6565 37.8396C65.5185 38.0885 65.3095 38.2906 65.0561 38.4201C64.7231 38.5904 64.3366 38.6236 63.9794 38.5125C63.6222 38.4015 63.3226 38.155 63.1448 37.8259Z" fill="#F5F5F5"/>
<path d="M68.4774 25.0156L75.278 36.5552C75.5469 37.0115 75.9734 37.3537 76.4771 37.5172C76.9809 37.6807 77.527 37.6543 78.0126 37.4429C78.5233 37.2206 78.9291 36.8107 79.1463 36.2978C79.3634 35.7849 79.3753 35.2083 79.1795 34.6869L74.4154 22.0305C74.33 21.8051 74.1978 21.6005 74.0275 21.43C73.8571 21.2595 73.6525 21.1271 73.4272 21.0415C73.2019 20.9559 72.961 20.9191 72.7205 20.9335C72.4799 20.9479 72.2451 21.0131 72.0316 21.125L69.1431 22.6426C68.9397 22.7507 68.7603 22.899 68.6159 23.0785C68.4714 23.258 68.3648 23.4649 68.3026 23.6867C68.2404 23.9085 68.2238 24.1406 68.2538 24.3691C68.2839 24.5975 68.3599 24.8174 68.4774 25.0156Z" fill="#E0E0E0"/>
<path d="M84.5918 42.5434C84.688 43.182 84.5927 43.8347 84.3179 44.419C84.0431 45.0034 83.6012 45.4931 83.0481 45.8263C82.4949 46.1594 81.8554 46.321 81.2104 46.2906C80.5653 46.2603 79.9438 46.0393 79.4244 45.6556C78.905 45.2719 78.5111 44.7428 78.2924 44.1353C78.0738 43.5277 78.0403 42.8689 78.1961 42.2422C78.3519 41.6156 78.6901 41.0492 79.1678 40.6148C79.6456 40.1804 80.2414 39.8974 80.88 39.8017C81.7358 39.6734 82.6074 39.8902 83.3034 40.4043C83.9994 40.9184 84.4628 41.6878 84.5918 42.5434Z" fill="#E0E0E0"/>
<path d="M206.631 151.558C206.631 150.885 206.599 91.1787 206.552 0.0930608L206.631 0.171805L40.9925 0.186123L41.0855 0.0930608C41.0855 55.2713 41.0855 107.157 41.0855 151.558L41.0068 151.475L206.645 151.558L40.9925 151.64H40.9102V151.558C40.9102 107.174 40.9102 55.2749 40.9102 0.0930608V0H41.0175H206.642H206.713V0.0787433C206.663 91.1787 206.631 150.885 206.631 151.558Z" fill="#263238"/>
<path d="M45.5955 6.43192C46.3526 6.43192 46.9663 5.81816 46.9663 5.06105C46.9663 4.30394 46.3526 3.69019 45.5955 3.69019C44.8384 3.69019 44.2246 4.30394 44.2246 5.06105C44.2246 5.81816 44.8384 6.43192 45.5955 6.43192Z" fill="white"/>
<path d="M50.3054 6.43192C51.0625 6.43192 51.6763 5.81816 51.6763 5.06105C51.6763 4.30394 51.0625 3.69019 50.3054 3.69019C49.5483 3.69019 48.9346 4.30394 48.9346 5.06105C48.9346 5.81816 49.5483 6.43192 50.3054 6.43192Z" fill="white"/>
<path d="M55.0164 6.43192C55.7735 6.43192 56.3872 5.81816 56.3872 5.06105C56.3872 4.30394 55.7735 3.69019 55.0164 3.69019C54.2593 3.69019 53.6455 4.30394 53.6455 5.06105C53.6455 5.81816 54.2593 6.43192 55.0164 6.43192Z" fill="white"/>
<path d="M143.201 33.5739C142.041 33.2823 140.919 32.8558 139.858 32.3032C140.448 32.4152 141.022 32.5953 141.569 32.8401C142.14 33.0199 142.688 33.2662 143.201 33.5739Z" fill="#455A64"/>
<path d="M138.624 40.7825C138.266 40.7432 137.3 41.2228 136.495 42.1785L136.455 42.2214C135.886 42.8621 135.532 40.8935 135.496 40.1669C135.486 40.0541 135.451 39.9449 135.394 39.8474C135.336 39.7499 135.257 39.6666 135.163 39.6038C135.069 39.5409 134.962 39.4999 134.85 39.484C134.737 39.4681 134.623 39.4777 134.515 39.5119L132.01 40.4711L131.294 40.4461C131.12 40.4926 130.969 40.6033 130.873 40.7559C130.777 40.9086 130.742 41.0919 130.775 41.2693L131.663 45.1672L131.616 46.2123L136.412 47.2073L136.67 44.6016C136.763 44.3045 136.885 43.9538 137.028 43.5565C137.172 43.1975 137.377 42.8658 137.633 42.5758C137.914 42.2458 138.228 41.9459 138.571 41.6809L138.653 41.6344C138.709 41.6076 138.759 41.5698 138.8 41.5234C138.862 41.4734 138.908 41.4069 138.934 41.3316C138.959 41.2563 138.963 41.1753 138.945 41.0978C138.927 41.0204 138.887 40.9497 138.83 40.894C138.773 40.8382 138.702 40.7995 138.624 40.7825Z" fill="#FFBE9D"/>
<path d="M137.571 29.7941C137.571 29.7941 134.708 29.4361 130.413 26.0143C126.117 22.5926 123.78 17.7247 123.301 17.782C122.821 17.8393 120.616 17.0661 117.427 26.179C114.238 35.2918 115.995 37.1602 116.804 37.0708C117.613 36.9813 122.889 34.9554 126.304 35.0234C129.718 35.0914 134.242 36.4551 134.242 36.4551L137.571 29.7941Z" fill="#407BFF"/>
<path d="M143.978 33.9889L143.191 35.8966L142.833 36.7521C142.601 37.3171 142.16 37.7713 141.603 38.0211C141.045 38.2708 140.413 38.2971 139.837 38.0943L133.627 36.566L136.376 28.2441L142.683 30.8785C143.266 31.1202 143.73 31.5831 143.973 32.1661C144.216 32.7491 144.218 33.4045 143.978 33.9889Z" fill="#263238"/>
<path d="M141.53 36.7951L139.45 40.4818L138.502 40.1775L132.013 45.0275L130.398 41.5198C130.398 41.5198 134.175 40.088 134.919 38.7816C135.664 37.4752 134.88 37.1566 134.88 37.1566L136.705 35.2417L141.53 36.7951Z" fill="#263238"/>
<path d="M117.756 26.3186C116.067 31.2473 115.573 35.5424 116.657 35.9147C117.742 36.2869 119.986 32.5895 121.668 27.6608C123.351 22.7322 123.852 18.437 122.767 18.0648C121.683 17.6925 119.446 21.4043 117.756 26.3186Z" fill="#263238"/>
<path d="M144.74 36.5696L143.062 36.2117L143.892 34.1965L145.184 34.8408L144.74 36.5696Z" fill="#455A64"/>
<path d="M142.812 34.7441C142.79 34.8014 141.949 34.5616 140.929 34.2108C140.299 34.032 139.691 33.786 139.114 33.4771C139.758 33.5897 140.389 33.7684 140.997 34.0104C141.626 34.1909 142.234 34.4368 142.812 34.7441Z" fill="#455A64"/>
<path d="M142.285 36.0042C142.285 36.0329 142.085 36.0042 141.766 35.9398L141.208 35.8109C141 35.7573 140.782 35.6713 140.549 35.5926C139.976 35.4258 139.428 35.1852 138.917 34.8767C138.938 34.8195 139.697 35.0736 140.621 35.3993C140.85 35.4816 141.065 35.5711 141.269 35.6356C141.473 35.7 141.652 35.7501 141.802 35.8038C142.11 35.8968 142.285 35.9756 142.285 36.0042Z" fill="#455A64"/>
<path d="M122.009 24.8545C122.009 24.8545 119.428 23.5732 118.405 27.0021C117.381 30.4311 119.997 30.7102 119.997 30.7102C120.942 28.8636 121.619 26.892 122.009 24.8545Z" fill="#FAFAFA"/>
<path d="M124.231 20.6885C124.237 20.9027 124.225 21.117 124.195 21.3292C124.156 21.7372 124.102 22.3314 124.013 23.0651C123.945 23.423 123.866 23.8239 123.787 24.2499C123.744 24.461 123.701 24.683 123.658 24.9085C123.633 25.023 123.612 25.1375 123.59 25.2664C123.569 25.3952 123.526 25.499 123.494 25.6243L123.079 27.0954C123.043 27.2242 123.003 27.3531 122.968 27.482C122.932 27.6108 122.875 27.7361 122.832 27.8685L122.538 28.6488C122.441 28.9101 122.341 29.1714 122.245 29.4291C122.195 29.5579 122.155 29.6868 122.098 29.8085L121.926 30.1664L121.271 31.5516C121.221 31.659 121.171 31.7699 121.114 31.8737C121.056 31.9775 120.999 32.0813 120.938 32.1816L120.602 32.765C120.383 33.1229 120.183 33.4808 119.997 33.8065C119.582 34.415 119.234 34.8982 118.995 35.2383C118.879 35.4168 118.748 35.5856 118.604 35.7429C118.695 35.55 118.803 35.3655 118.927 35.1917L119.872 33.7278L120.451 32.6791L120.777 32.0956L120.945 31.7914C121.003 31.6876 121.049 31.5767 121.099 31.4657C121.303 31.0254 121.518 30.5637 121.736 30.0877L121.905 29.7297C121.962 29.6081 122.001 29.4756 122.051 29.3503C122.148 29.0962 122.245 28.8349 122.341 28.5736L122.635 27.8005C122.678 27.6717 122.735 27.5464 122.771 27.4175C122.807 27.2887 122.846 27.1598 122.882 27.0345L123.308 25.5742C123.34 25.4597 123.379 25.3451 123.404 25.2163C123.429 25.0874 123.454 24.9872 123.476 24.8583C123.526 24.6364 123.569 24.4181 123.615 24.2069C123.705 23.7846 123.791 23.3944 123.866 23.0329C123.97 22.3171 124.056 21.73 124.113 21.3113C124.137 21.101 124.176 20.8928 124.231 20.6885Z" fill="#263238"/>
<path d="M133.72 38.7208C133.589 38.7701 133.482 38.8668 133.42 38.9915C133.358 39.1161 133.344 39.2597 133.383 39.3937C133.53 39.9341 133.773 40.7788 133.963 41.2978C134.016 41.4669 134.1 41.6247 134.21 41.7631C134.264 41.8302 134.336 41.8808 134.418 41.9092C134.5 41.9377 134.587 41.9429 134.672 41.9242C134.757 41.8879 134.831 41.8291 134.886 41.7541C134.941 41.6791 134.974 41.5907 134.983 41.4983C134.997 41.3097 134.975 41.1202 134.919 40.9399C134.797 40.4388 134.561 39.6836 134.382 39.0679C134.364 38.9997 134.332 38.9358 134.289 38.8803C134.245 38.8249 134.19 38.7789 134.128 38.7454C134.066 38.7118 133.998 38.6913 133.928 38.6853C133.857 38.6792 133.787 38.6876 133.72 38.71V38.7208Z" fill="#FFBE9D"/>
<path d="M132.918 39.6587C132.787 39.7074 132.679 39.8037 132.616 39.9285C132.553 40.0532 132.54 40.1972 132.578 40.3316C132.728 40.872 132.972 41.7167 133.162 42.2322C133.212 42.4025 133.295 42.5617 133.405 42.701C133.459 42.7681 133.531 42.8187 133.613 42.8471C133.694 42.8756 133.782 42.8808 133.867 42.8621C133.953 42.8271 134.028 42.7687 134.083 42.6935C134.138 42.6182 134.171 42.5291 134.178 42.4362C134.195 42.2479 134.174 42.0581 134.117 41.8778C133.992 41.3767 133.759 40.6179 133.58 40.0023C133.562 39.934 133.531 39.8702 133.487 39.8147C133.443 39.7592 133.389 39.7132 133.327 39.6797C133.265 39.6461 133.196 39.6257 133.126 39.6196C133.056 39.6135 132.985 39.6219 132.918 39.6443V39.6587Z" fill="#FFBE9D"/>
<path d="M132.167 40.2063C132.05 40.2449 131.953 40.3274 131.896 40.4363C131.84 40.5452 131.827 40.672 131.862 40.7897C131.998 41.255 132.22 41.9923 132.392 42.4397C132.441 42.5859 132.516 42.7218 132.614 42.8406C132.665 42.8999 132.73 42.9445 132.804 42.9697C132.878 42.9949 132.957 42.9998 133.033 42.9838C133.108 42.9556 133.174 42.9074 133.224 42.8443C133.274 42.7812 133.306 42.7057 133.316 42.6259C133.327 42.4626 133.307 42.2988 133.258 42.1427C133.144 41.706 132.94 41.0689 132.764 40.5177C132.724 40.399 132.639 40.3009 132.527 40.2446C132.415 40.1883 132.286 40.1784 132.167 40.217V40.2063Z" fill="#FFBE9D"/>
<path d="M131.218 40.3494C131.101 40.3881 131.004 40.4704 130.947 40.5792C130.889 40.6879 130.876 40.8146 130.91 40.9328C131.05 41.4017 131.268 42.1426 131.447 42.59C131.493 42.7396 131.568 42.8784 131.669 42.9981C131.717 43.0667 131.786 43.1182 131.866 43.1449C131.945 43.1716 132.031 43.1723 132.111 43.1467C132.191 43.1211 132.261 43.0707 132.31 43.0027C132.359 42.9348 132.385 42.8529 132.385 42.769C132.397 42.6055 132.376 42.4413 132.324 42.2858C132.209 41.8455 132.005 41.187 131.83 40.6501C131.811 40.5906 131.78 40.5356 131.739 40.4882C131.698 40.4409 131.648 40.4021 131.592 40.3741C131.536 40.3461 131.475 40.3295 131.413 40.3253C131.351 40.3211 131.288 40.3293 131.229 40.3494H131.218Z" fill="#FFBE9D"/>
<path d="M134.157 41.7811C133.959 41.4891 133.815 41.1643 133.731 40.8219C133.588 40.4998 133.507 40.1538 133.491 39.8018C133.691 40.0925 133.835 40.4177 133.917 40.761C134.062 41.0824 134.144 41.4288 134.157 41.7811Z" fill="#EB996E"/>
<path d="M133.298 42.5221C133.088 42.1817 132.936 41.8093 132.847 41.4197C132.695 41.0504 132.606 40.6585 132.582 40.26C132.791 40.6004 132.944 40.9728 133.033 41.3624C133.186 41.7312 133.276 42.1233 133.298 42.5221Z" fill="#EB996E"/>
<path d="M132.453 42.5793C132.23 42.2982 132.072 41.9721 131.988 41.6236C131.841 41.2965 131.771 40.9402 131.784 40.582C131.959 40.8889 132.091 41.2191 132.174 41.5628C132.318 41.8855 132.412 42.2283 132.453 42.5793Z" fill="#EB996E"/>
<path d="M162.297 29.5613C160.933 27.2563 158.471 25.7601 155.886 25.0479C154.813 24.7508 154.061 24.8331 152.941 24.9584C151.824 25.0527 150.777 25.5382 149.984 26.3292C149.012 27.2584 148.291 28.4182 147.887 29.7009C147.491 31.0187 147.218 32.3703 147.071 33.7384C146.926 35.1148 147.163 36.5045 147.758 37.7543L151.115 38.8782C153.012 39.2361 154.934 39.5941 156.842 39.4402C158.75 39.2863 160.718 38.5668 161.96 37.0886C163.7 35.0412 163.661 31.8664 162.297 29.5613Z" fill="#263238"/>
<path d="M164.119 39.6586C164.145 39.2625 164.081 38.8655 163.93 38.4982C163.779 38.1309 163.546 37.803 163.249 37.5397C162.944 37.2847 162.565 37.1334 162.168 37.1077C161.771 37.082 161.376 37.1831 161.041 37.3965L160.4 37.9585C159.95 38.0895 159.552 38.3574 159.262 38.725C158.971 39.0925 158.802 39.5415 158.779 40.0094C158.772 40.4784 158.899 40.9397 159.145 41.3391C159.391 41.7385 159.745 42.0595 160.167 42.2644C160.594 42.4579 161.064 42.5385 161.531 42.4983C161.998 42.4582 162.446 42.2988 162.834 42.0353C163.216 41.7641 163.53 41.4087 163.753 40.9966C163.976 40.5846 164.101 40.1268 164.119 39.6586Z" fill="#263238"/>
<path d="M163.074 41.892C163.238 41.709 163.34 41.4782 163.363 41.2334C163.342 40.6353 163.151 40.0556 162.812 39.5619C162.495 39.0496 162.084 38.6025 161.599 38.2447C161.241 37.9655 160.962 37.8438 160.976 37.8152C161.226 37.8791 161.46 37.9909 161.667 38.1445C162.191 38.4857 162.632 38.9393 162.959 39.4724C163.139 39.7649 163.282 40.0787 163.385 40.4066C163.482 40.6757 163.516 40.9634 163.485 41.2477C163.46 41.4423 163.377 41.6246 163.245 41.7703C163.152 41.8705 163.081 41.8991 163.074 41.892Z" fill="#455A64"/>
<path d="M161.255 42.658C161.434 41.9035 161.499 41.1266 161.449 40.3529C161.341 39.5867 161.115 38.8417 160.779 38.1445C160.942 38.3112 161.071 38.5082 161.159 38.7244C161.657 39.7446 161.783 40.9066 161.517 42.0102C161.47 42.2403 161.382 42.46 161.255 42.658Z" fill="#455A64"/>
<path d="M149.977 46.0762C150.185 44.87 150.647 42.2822 150.647 42.2893C150.647 42.2965 147.88 41.5484 147.654 37.826C147.54 35.9755 147.923 32.9939 148.313 30.5636C148.671 28.3767 150.983 25.6779 153.682 26.0823L154.902 26.1253L159.223 28.6559C159.543 28.7202 159.828 28.9037 160.018 29.1694C160.209 29.4351 160.292 29.7632 160.25 30.0876L157.884 45.7255L151.187 58.8292L149.673 49.5231L149.977 46.0762Z" fill="#FFBE9D"/>
<path d="M149.558 33.2337C149.546 33.3558 149.582 33.4778 149.658 33.574C149.734 33.6702 149.844 33.733 149.966 33.7491C150.025 33.7598 150.086 33.7586 150.145 33.7454C150.204 33.7322 150.259 33.7073 150.308 33.6723C150.358 33.6373 150.399 33.5928 150.431 33.5414C150.462 33.49 150.483 33.4329 150.492 33.3733C150.504 33.2508 150.469 33.1283 150.393 33.0316C150.317 32.9348 150.206 32.8713 150.084 32.8543C150.025 32.8436 149.963 32.845 149.904 32.8584C149.845 32.8718 149.79 32.8969 149.741 32.9324C149.691 32.9678 149.65 33.0127 149.619 33.0645C149.587 33.1162 149.567 33.1738 149.558 33.2337Z" fill="#263238"/>
<path d="M149 32.0491C149.054 32.1171 149.437 31.888 149.942 31.9381C150.446 31.9882 150.794 32.2781 150.854 32.2209C150.915 32.1636 150.836 32.0777 150.686 31.9453C150.484 31.7738 150.234 31.6688 149.97 31.6446C149.707 31.6178 149.443 31.6754 149.215 31.8093C149.04 31.9131 148.975 32.0204 149 32.0491Z" fill="#263238"/>
<path d="M151.592 36.3333C151.333 36.2234 151.061 36.1464 150.783 36.1043C150.654 36.0792 150.536 36.0434 150.521 35.9504C150.526 35.8212 150.57 35.6965 150.647 35.5924C150.797 35.2918 150.955 34.9732 151.123 34.6439C151.789 33.2945 152.286 32.1778 152.229 32.1384C151.732 32.902 151.296 33.7039 150.926 34.5365L150.464 35.4886C150.367 35.6366 150.325 35.814 150.346 35.9897C150.361 36.0375 150.386 36.0812 150.42 36.1178C150.454 36.1543 150.496 36.1827 150.543 36.2009C150.612 36.2262 150.684 36.243 150.758 36.251C151.031 36.3144 151.311 36.3421 151.592 36.3333Z" fill="#263238"/>
<path d="M150.646 42.2894C152.371 42.4803 154.116 42.1891 155.686 41.4482C155.686 41.4482 154.132 43.8607 150.492 43.1627L150.646 42.2894Z" fill="#EB996E"/>
<path d="M149.397 30.2629C149.476 30.3882 149.837 30.3023 150.256 30.3381C150.675 30.3739 151.022 30.4884 151.115 30.3775C151.158 30.3238 151.115 30.2021 150.968 30.0768C150.772 29.927 150.536 29.8386 150.289 29.8227C150.043 29.8068 149.797 29.864 149.583 29.9873C149.443 30.0911 149.365 30.2057 149.397 30.2629Z" fill="#263238"/>
<path d="M155.346 33.6025C155.331 33.7247 155.268 33.8362 155.172 33.9131C155.076 33.99 154.953 34.0262 154.83 34.0141C154.77 34.0104 154.712 33.9949 154.658 33.9684C154.604 33.9419 154.555 33.905 154.516 33.8597C154.476 33.8144 154.446 33.7617 154.427 33.7046C154.408 33.6476 154.4 33.5873 154.405 33.5273C154.419 33.4046 154.481 33.2926 154.578 33.2155C154.674 33.1385 154.797 33.1026 154.92 33.1157C154.98 33.1193 155.039 33.1348 155.093 33.1613C155.147 33.1878 155.195 33.2248 155.235 33.2701C155.274 33.3154 155.304 33.3681 155.324 33.4251C155.343 33.4822 155.35 33.5425 155.346 33.6025Z" fill="#263238"/>
<path d="M155.7 32.4714C155.632 32.5251 155.313 32.2137 154.808 32.1457C154.304 32.0777 153.903 32.2817 153.856 32.2137C153.81 32.1457 153.906 32.0812 154.082 31.9846C154.321 31.8626 154.593 31.8176 154.859 31.8557C155.12 31.891 155.364 32.0074 155.557 32.1886C155.693 32.3282 155.732 32.4463 155.7 32.4714Z" fill="#263238"/>
<path d="M155.625 30.7461C155.521 30.8463 155.189 30.6817 154.773 30.6208C154.358 30.56 153.99 30.5922 153.925 30.4633C153.896 30.3989 153.968 30.2915 154.136 30.2056C154.359 30.0992 154.61 30.0666 154.852 30.1126C155.097 30.1483 155.325 30.2596 155.504 30.4311C155.636 30.5707 155.672 30.7103 155.625 30.7461Z" fill="#263238"/>
<path d="M159.466 35.213L158.75 35.7678C156.427 32.7504 152.107 25.4237 152.343 25.8567C153.649 25.5845 155.003 25.6424 156.28 26.025C158.249 26.68 161.932 28.2763 161.51 30.653C161.087 33.0296 159.466 35.213 159.466 35.213Z" fill="#263238"/>
<path d="M160.984 37.5505C160.995 37.3562 161.016 37.1626 161.048 36.9706C161.104 36.4463 161.114 35.9181 161.077 35.3922C160.931 33.6534 160.363 31.9765 159.423 30.5064C158.468 29.0478 157.296 27.7431 155.948 26.6372C155.432 26.2077 155.006 25.8748 154.706 25.6458C154.547 25.5354 154.395 25.4159 154.251 25.2878C154.251 25.2878 154.301 25.2878 154.383 25.3594C154.466 25.431 154.591 25.4919 154.741 25.5992C155.053 25.8104 155.493 26.129 156.019 26.5513C157.406 27.6384 158.605 28.9469 159.566 30.4241C160.522 31.9151 161.082 33.6248 161.195 35.3922C161.223 35.9257 161.195 36.4607 161.112 36.9885C161.087 37.1746 161.044 37.3142 161.027 37.4145C161.019 37.4618 161.005 37.5077 160.984 37.5505Z" fill="#455A64"/>
<path d="M155.836 25.3701C155.884 25.3886 155.93 25.4127 155.972 25.4417C156.061 25.4918 156.187 25.567 156.348 25.6708C156.666 25.8784 157.124 26.1898 157.665 26.6121C158.295 27.1082 158.896 27.64 159.465 28.2049C160.188 28.8753 160.826 29.6313 161.366 30.4563C161.64 30.8929 161.853 31.3649 161.999 31.8594C162.132 32.325 162.2 32.8069 162.2 33.2911C162.196 34.0976 162.075 34.8993 161.842 35.6713C161.645 36.3299 161.445 36.8453 161.302 37.1996C161.23 37.375 161.169 37.511 161.13 37.6041C161.11 37.6514 161.086 37.6969 161.058 37.7401C161.108 37.5396 161.174 37.3433 161.255 37.1531C161.377 36.7952 161.559 36.2726 161.738 35.6176C161.956 34.8551 162.066 34.0661 162.067 33.2732C162.06 32.8081 161.991 32.346 161.863 31.8987C161.719 31.4196 161.511 30.9621 161.244 30.5386C160.71 29.7271 160.086 28.979 159.383 28.3087C158.814 27.7467 158.217 27.2139 157.593 26.7123C157.067 26.2828 156.62 25.9571 156.312 25.7352C156.145 25.6252 155.986 25.5032 155.836 25.3701Z" fill="#455A64"/>
<path d="M159.519 35.2811C159.416 35.171 159.324 35.0511 159.244 34.9232L158.528 33.8995C157.944 33.0333 157.146 31.8271 156.276 30.4884C155.407 29.1498 154.623 27.9364 154.064 27.0487L153.409 25.9964C153.325 25.8701 153.251 25.7373 153.188 25.5991C153.292 25.7085 153.384 25.8285 153.463 25.957L154.179 26.9807C154.762 27.8469 155.561 29.0531 156.434 30.3918C157.307 31.7304 158.088 32.9474 158.646 33.8315L159.301 34.8874C159.387 35.0108 159.46 35.1427 159.519 35.2811Z" fill="#455A64"/>
<path d="M158.782 36.1795C158.811 35.9074 159.19 35.2918 159.462 35.2775C160.178 35.2345 161.488 35.4171 161.32 37.2497C161.094 39.7552 158.632 39.0071 158.632 38.9355C158.632 38.8639 158.689 37.1208 158.782 36.1795Z" fill="#FFBE9D"/>
<path d="M159.322 37.9941C159.322 37.9941 159.362 38.0299 159.433 38.0693C159.483 38.0964 159.537 38.1136 159.593 38.1197C159.649 38.1259 159.705 38.1209 159.759 38.1051C159.93 38.0182 160.075 37.887 160.178 37.7252C160.281 37.5635 160.339 37.377 160.346 37.1852C160.37 36.9704 160.347 36.7529 160.278 36.5481C160.261 36.4687 160.226 36.3946 160.174 36.3322C160.122 36.2699 160.056 36.2211 159.981 36.1901C159.932 36.1735 159.879 36.174 159.83 36.1916C159.781 36.2091 159.74 36.2427 159.713 36.2868C159.673 36.3548 159.684 36.4049 159.673 36.4085C159.662 36.4121 159.623 36.3619 159.652 36.2617C159.67 36.2011 159.709 36.1491 159.763 36.115C159.799 36.0917 159.839 36.0759 159.882 36.0685C159.924 36.0611 159.968 36.0623 160.01 36.072C160.111 36.1008 160.204 36.1555 160.278 36.2308C160.352 36.3062 160.405 36.3994 160.432 36.5015C160.521 36.7289 160.551 36.9753 160.518 37.2174C160.457 37.7221 160.16 38.1695 159.802 38.2411C159.733 38.255 159.662 38.2532 159.594 38.2358C159.526 38.2185 159.462 38.186 159.408 38.1408C159.322 38.0549 159.315 37.9977 159.322 37.9941Z" fill="#EB996E"/>
<path d="M164.659 128.811C164.609 129.205 163.639 140.211 163.639 140.211H158.596L157.712 128.858L164.659 128.811Z" fill="#FFBE9D"/>
<path d="M158.582 138.572C158.582 138.572 162.126 141.078 163.836 138.912L164.287 139.964L166.299 147.481C166.368 147.716 166.349 147.969 166.245 148.191C166.14 148.413 165.959 148.59 165.733 148.687C165.561 148.756 165.372 148.774 165.189 148.739C165.007 148.704 164.838 148.618 164.703 148.49C163.246 147.101 157.902 141.979 157.966 141.285L157.984 139.442C157.987 139.255 158.046 139.072 158.152 138.918C158.258 138.764 158.408 138.645 158.582 138.576V138.572Z" fill="#407BFF"/>
<path d="M165.551 148.734L157.963 140.641V141.042C157.954 141.207 157.981 141.373 158.043 141.527C158.105 141.681 158.199 141.819 158.321 141.933C158.936 142.76 160.636 144.614 164.67 148.487C164.786 148.598 164.927 148.678 165.081 148.721C165.235 148.764 165.398 148.769 165.554 148.734H165.551Z" fill="#263238"/>
<path d="M159.076 139.438C159.193 139.524 159.275 139.65 159.305 139.792C159.335 139.934 159.312 140.082 159.241 140.208C159.159 140.328 159.035 140.413 158.893 140.445C158.752 140.477 158.603 140.454 158.478 140.38C158.354 140.288 158.268 140.155 158.237 140.004C158.206 139.853 158.232 139.696 158.31 139.564C158.407 139.447 158.546 139.373 158.696 139.356C158.847 139.339 158.999 139.382 159.119 139.474" fill="white"/>
<path d="M163.37 144.589C163.597 144.29 163.879 144.037 164.201 143.844C164.543 143.708 164.907 143.636 165.274 143.63C165.274 143.608 165.164 143.533 164.942 143.504C164.649 143.471 164.352 143.524 164.09 143.658C163.824 143.786 163.602 143.991 163.453 144.245C163.36 144.438 163.345 144.582 163.37 144.589Z" fill="#263238"/>
<path d="M164.051 145.86C164.322 145.704 164.603 145.565 164.892 145.444C165.198 145.386 165.508 145.345 165.819 145.323C165.848 145.273 165.389 145.076 164.831 145.248C164.273 145.419 164.001 145.834 164.051 145.86Z" fill="#263238"/>
<path d="M162.104 142.96C162.503 142.691 162.922 142.452 163.356 142.244C163.817 142.097 164.288 141.985 164.767 141.911C164.767 141.858 164.072 141.729 163.278 142.051C162.791 142.205 162.374 142.527 162.104 142.96Z" fill="#263238"/>
<path d="M161.932 140.673C161.96 140.73 162.483 140.508 163.166 140.483C163.85 140.458 164.391 140.616 164.412 140.558C164.027 140.351 163.593 140.252 163.156 140.272C162.719 140.292 162.296 140.431 161.932 140.673Z" fill="#263238"/>
<path d="M163.557 140.462C163.564 140.34 163.546 140.218 163.503 140.104C163.409 139.787 163.253 139.491 163.045 139.234C162.91 139.031 162.711 138.879 162.48 138.801C162.401 138.782 162.319 138.788 162.244 138.818C162.169 138.847 162.105 138.899 162.061 138.966C161.984 139.103 161.96 139.263 161.993 139.417C162.073 139.729 162.26 140.003 162.522 140.191C162.784 140.38 163.103 140.47 163.424 140.448C163.74 140.421 164.04 140.301 164.287 140.103C164.534 139.906 164.717 139.64 164.813 139.338C164.837 139.262 164.844 139.181 164.833 139.102C164.823 139.023 164.795 138.947 164.752 138.88C164.706 138.813 164.638 138.765 164.56 138.742C164.482 138.719 164.398 138.724 164.323 138.755C164.102 138.848 163.91 138.997 163.765 139.188C163.55 139.438 163.381 139.724 163.263 140.032C163.211 140.145 163.183 140.267 163.181 140.39C163.357 139.993 163.591 139.624 163.875 139.295C164.009 139.138 164.178 139.015 164.369 138.937C164.411 138.921 164.456 138.919 164.499 138.932C164.542 138.944 164.579 138.97 164.606 139.005C164.631 139.051 164.647 139.102 164.65 139.155C164.654 139.207 164.646 139.26 164.627 139.309C164.532 139.564 164.367 139.787 164.15 139.951C163.933 140.115 163.674 140.214 163.403 140.236C163.132 140.252 162.864 140.176 162.643 140.02C162.421 139.864 162.259 139.637 162.182 139.377C162.157 139.271 162.169 139.16 162.218 139.062C162.241 139.024 162.276 138.994 162.317 138.977C162.358 138.959 162.404 138.956 162.447 138.966C162.641 139.033 162.809 139.158 162.931 139.324C163.205 139.663 163.417 140.049 163.557 140.462Z" fill="#263238"/>
<path d="M136.966 125.229L137.836 139.281L143.942 139.238L144.973 124.638L136.966 125.229Z" fill="#FFBE9D"/>
<path d="M137.726 137.584V137.992C137.726 137.992 130.832 140.73 130.746 142.026H144.419L144.226 137.477C143.214 137.96 142.109 138.22 140.987 138.239C139.866 138.257 138.753 138.034 137.726 137.584Z" fill="#407BFF"/>
<path d="M142.843 138.926C142.975 138.966 143.087 139.054 143.158 139.171C143.229 139.289 143.255 139.428 143.23 139.564C143.195 139.696 143.111 139.811 142.994 139.883C142.878 139.956 142.738 139.981 142.603 139.954C142.464 139.911 142.345 139.819 142.269 139.694C142.194 139.569 142.168 139.42 142.195 139.277C142.246 139.142 142.347 139.032 142.477 138.97C142.607 138.908 142.756 138.899 142.893 138.944" fill="white"/>
<path d="M144.432 142.026L144.386 140.934L131.3 141.35C131.3 141.35 130.691 141.614 130.759 142.04L144.432 142.026Z" fill="#263238"/>
<path d="M137.671 138.032C137.671 138.096 138.008 138.125 138.337 138.339C138.666 138.554 138.842 138.837 138.903 138.808C138.963 138.78 138.863 138.397 138.462 138.146C138.061 137.896 137.657 137.967 137.671 138.032Z" fill="#263238"/>
<path d="M136.24 138.626C136.24 138.69 136.512 138.801 136.741 139.084C136.97 139.367 137.035 139.664 137.099 139.664C137.164 139.664 137.21 139.281 136.92 138.948C136.63 138.615 136.24 138.561 136.24 138.626Z" fill="#263238"/>
<path d="M135.427 140.34C135.488 140.34 135.581 140.022 135.427 139.657C135.273 139.291 134.941 139.145 134.912 139.202C134.883 139.259 135.08 139.453 135.216 139.753C135.352 140.054 135.359 140.337 135.427 140.34Z" fill="#263238"/>
<path d="M144.973 81.7401C144.79 82.2663 137.549 106.795 137.549 106.795L136.304 135.905L145.316 136.424L148.538 107.361L156.77 89.1814L153.151 74.3918H145.792L144.973 81.7401Z" fill="#263238"/>
<path d="M151.388 74.399C151.517 74.757 156.137 91.4006 156.137 91.4006L156.778 116.219V136.754H164.993L168.819 91.4686C168.819 91.4686 169.495 83.2363 168.339 80.4695C167.183 77.7027 162.501 72.842 162.501 72.842L151.388 74.399Z" fill="#263238"/>
<path d="M152.05 76.1028C152.127 76.291 152.189 76.4849 152.236 76.6826C152.354 77.0871 152.512 77.624 152.698 78.2718C153.113 79.6427 153.664 81.4932 154.276 83.5083C154.888 85.5235 155.379 87.4455 155.665 88.8021C155.815 89.4893 155.912 90.0477 155.969 90.4342C156.01 90.6334 156.032 90.8359 156.037 91.0391C155.976 90.8459 155.93 90.6486 155.898 90.4485C155.819 90.0656 155.701 89.5108 155.54 88.8343C155.221 87.4706 154.706 85.6129 154.108 83.562C153.51 81.5111 152.945 79.6606 152.583 78.3076C152.401 77.6311 152.261 77.0835 152.175 76.7005C152.116 76.5053 152.074 76.3053 152.05 76.1028Z" fill="#455A64"/>
<path d="M154.884 76.1028C154.68 76.1681 154.501 76.2928 154.368 76.4607C154.305 76.5514 154.265 76.6565 154.252 76.7666C154.24 76.8766 154.255 76.9881 154.297 77.0907C154.346 77.2146 154.43 77.3221 154.537 77.4012C154.645 77.4802 154.772 77.5276 154.905 77.5381C155.039 77.54 155.17 77.5045 155.285 77.4356C155.399 77.3666 155.492 77.267 155.553 77.148C155.605 77.0506 155.633 76.9417 155.633 76.8312C155.633 76.7206 155.605 76.6118 155.553 76.5144C155.439 76.3309 155.271 76.1862 155.073 76.0992C155.073 76.0992 155.145 76.0813 155.263 76.1207C155.43 76.1823 155.571 76.2983 155.664 76.45C155.74 76.5629 155.785 76.6937 155.794 76.8294C155.803 76.9651 155.777 77.1008 155.718 77.2231C155.648 77.3783 155.534 77.509 155.39 77.5982C155.245 77.6874 155.077 77.731 154.908 77.7233C154.738 77.7155 154.574 77.6568 154.439 77.5548C154.303 77.4529 154.201 77.3123 154.146 77.1515C154.099 77.0239 154.086 76.8863 154.108 76.752C154.13 76.6178 154.186 76.4915 154.272 76.3856C154.379 76.2432 154.532 76.1411 154.705 76.0956C154.812 76.0778 154.884 76.0921 154.884 76.1028Z" fill="#455A64"/>
<path d="M162.176 88.0576C162.18 88.0992 162.18 88.1413 162.176 88.1829C162.176 88.276 162.176 88.3941 162.176 88.5408C162.176 88.8773 162.176 89.3497 162.176 89.9511C162.176 91.1788 162.176 92.9505 162.136 95.141C162.072 99.5221 161.875 105.567 161.617 112.246C161.359 118.925 161.145 124.974 161.045 129.352C160.994 131.542 160.962 133.314 160.944 134.538C160.944 135.139 160.944 135.612 160.923 135.948C160.923 136.099 160.923 136.218 160.923 136.306C160.939 136.309 160.953 136.318 160.963 136.33C160.973 136.343 160.978 136.359 160.976 136.375C160.975 136.391 160.968 136.406 160.956 136.417C160.944 136.428 160.928 136.434 160.912 136.434C160.896 136.434 160.88 136.428 160.868 136.417C160.857 136.406 160.849 136.391 160.848 136.375C160.847 136.359 160.851 136.343 160.861 136.33C160.871 136.318 160.885 136.309 160.901 136.306C160.901 136.213 160.901 136.092 160.901 135.948C160.901 135.612 160.901 135.139 160.901 134.538C160.901 133.31 160.901 131.539 160.941 129.348C161.009 124.967 161.202 118.918 161.46 112.239C161.717 105.56 161.932 99.5149 162.032 95.1374C162.083 92.9469 162.118 91.1752 162.133 89.9511C162.133 89.3497 162.151 88.8773 162.154 88.5408C162.154 88.3869 162.154 88.2688 162.154 88.1829C162.156 88.1404 162.163 88.0982 162.176 88.0576Z" fill="#455A64"/>
<path d="M149.501 85.0688C149.491 85.1117 149.478 85.1537 149.461 85.1941L149.322 85.5521C149.189 85.8849 149.003 86.3574 148.767 86.9623C148.277 88.1936 147.571 89.9581 146.698 92.1343C145.825 94.3106 144.83 96.9378 143.878 99.8942C142.79 103.082 142.029 106.371 141.605 109.712C141.415 111.502 141.333 113.249 141.225 114.934C141.118 116.62 141.046 118.252 140.961 119.806C140.799 122.909 140.656 125.704 140.535 128.06C140.413 130.415 140.284 132.308 140.177 133.618C140.123 134.266 140.084 134.771 140.055 135.129C140.037 135.293 140.026 135.422 140.016 135.519C140.013 135.565 140.007 135.61 139.998 135.655C139.993 135.61 139.993 135.564 139.998 135.519C139.998 135.422 139.998 135.29 140.016 135.125C140.037 134.767 140.066 134.263 140.105 133.615C140.18 132.301 140.28 130.393 140.391 128.052C140.502 125.712 140.635 122.902 140.778 119.799C140.86 118.245 140.943 116.613 141.032 114.924C141.122 113.234 141.218 111.484 141.408 109.694C141.84 106.343 142.614 103.045 143.717 99.8513C144.679 96.8912 145.707 94.2819 146.58 92.0986C147.453 89.9152 148.198 88.1613 148.702 86.948C148.953 86.3467 149.15 85.8742 149.29 85.5485L149.447 85.1905C149.46 85.1482 149.478 85.1074 149.501 85.0688Z" fill="#455A64"/>
<path d="M161.892 45.0991C161.892 45.0991 166.778 46.0118 167.852 46.9067C168.926 47.8015 178.711 60.5652 178.915 63.1423C179.119 65.7194 177.928 66.6643 177.251 67.2764C176.575 67.8884 164.877 75.8094 164.877 75.8094L161.28 69.8427L171.388 63.8045L166.51 55.4611L161.892 45.0991Z" fill="#407BFF"/>
<path d="M174.653 61.5352C173.969 61.6381 173.31 61.8663 172.709 62.2081C172.141 62.6009 171.649 63.0932 171.256 63.6613C171.301 63.4548 171.393 63.2614 171.524 63.0957C171.81 62.6749 172.18 62.3183 172.612 62.049C173.043 61.7796 173.526 61.6034 174.03 61.5316C174.235 61.4847 174.448 61.4859 174.653 61.5352Z" fill="#407BFF"/>
<path d="M150.052 45.7182L151.348 57.4726L157.959 44.2292L162.222 48.5602C162.222 48.5602 164.838 64.0406 164.878 64.1515C164.917 64.2625 163.088 73.0067 163.088 73.0067L150.972 75.3511L147.275 74.4098L146.691 60.6403L146.434 50.0957L150.052 45.7182Z" fill="white"/>
<path d="M148.481 46.2195L145.335 46.9354C144.914 47.0325 144.524 47.2303 144.197 47.5116C141.512 49.8095 135.707 54.6702 135.707 54.6702L136.78 46.0441L131.189 45.5251C131.189 45.5251 129.514 56.399 129.686 59.2589C129.89 62.5804 132.868 63.3965 137.203 61.6104C139.882 60.5354 142.475 59.2575 144.959 57.7878L148.481 46.2195Z" fill="#407BFF"/>
<path d="M166.026 55.5075L165.45 65.8159L166.029 67.8203C166.029 67.8203 171.456 78.0642 172.35 84.8469L165.636 85.9207C165.636 85.9207 163.803 77.1694 162.515 72.8313C161.226 68.4932 157.414 66.6678 156.126 62.208C155.35 59.6601 155.074 56.9862 155.313 54.3335C155.313 54.0615 157.958 44.2256 157.958 44.2256L158.431 42.1711L160.807 44.4297L166.91 46.4591L166.026 55.5075Z" fill="#407BFF"/>
<g opacity="0.3">
<path d="M169.227 74.6782C168.117 75.5358 166.956 76.3259 165.751 77.0441C165.68 77.0799 165.587 77.1193 165.483 77.1587C165.241 77.2476 164.975 77.2467 164.734 77.156C164.493 77.0653 164.292 76.891 164.169 76.6647C164.026 76.4034 163.879 76.1278 163.783 75.9202C163.536 75.3869 163.267 74.7462 163.027 74.1914L163.783 74.0089L164.878 75.8236L168.035 73.676L168.636 73.2644L169.227 74.6782Z" fill="black"/>
</g>
<path d="M150.109 44.5586L148.641 46.0941L145.123 47.329C145.123 47.329 144.264 57.7089 144.729 59.9209C145.18 62.047 146.039 64.6312 146.111 67.6843C146.183 70.7375 142.696 86.8729 142.696 86.8729L146.913 88.4728C146.913 88.4728 149.06 69.7925 148.641 65.7193C148.223 61.6461 149.311 53.4352 149.311 53.4352L150.109 44.5586Z" fill="#407BFF"/>
<path d="M158.091 64.3556C158.035 64.3046 157.983 64.2483 157.937 64.1874C157.801 64.0142 157.681 63.8284 157.579 63.6326C157.227 62.8994 157.04 62.0979 157.032 61.2846C157.018 60.0867 157.102 58.8897 157.282 57.7053C157.478 56.2544 157.776 54.8192 158.173 53.4102C158.849 50.9877 159.81 48.6543 161.037 46.4592L161.094 46.563L159.602 46.5165H159.494L159.559 46.4306L160.539 45.1134L160.804 44.7555C160.833 44.7142 160.866 44.6769 160.904 44.6445C160.885 44.6905 160.86 44.7338 160.829 44.7734L160.586 45.1313L159.648 46.4807L159.605 46.3948L161.098 46.4127H161.212L161.155 46.5129C159.963 48.7124 159.019 51.0378 158.342 53.446C157.948 54.8457 157.647 56.2697 157.44 57.7089C157.257 58.8814 157.161 60.0658 157.153 61.2524C157.152 62.0503 157.316 62.8398 157.633 63.5718C157.771 63.8412 157.924 64.1029 158.091 64.3556Z" fill="#263238"/>
<path d="M162.222 54.8384C161.663 55.0262 161.081 55.137 160.493 55.1677C159.911 55.2561 159.319 55.2633 158.735 55.1891C159.31 55.0798 159.891 55.0104 160.475 54.9815C161.053 54.8906 161.637 54.8428 162.222 54.8384Z" fill="#263238"/>
<path d="M166.503 52.4473C166.493 52.6233 166.468 52.7982 166.428 52.9698C166.381 53.3063 166.32 53.7931 166.263 54.4016C166.149 55.6114 166.034 57.2829 165.905 59.1298L165.619 63.8652C165.576 64.4701 165.54 64.9604 165.508 65.2969C165.502 65.4731 165.478 65.6482 165.436 65.8195C165.422 65.6444 165.422 65.4684 165.436 65.2933C165.436 64.9175 165.465 64.4343 165.486 63.8616C165.533 62.6482 165.608 60.9731 165.719 59.1226C165.83 57.2721 165.97 55.6006 166.12 54.3908C166.191 53.7895 166.274 53.317 166.342 52.9591C166.379 52.7837 166.433 52.6123 166.503 52.4473Z" fill="#263238"/>
<path d="M174.316 64.148C174.299 64.2017 173.64 63.9905 172.795 63.9296C171.951 63.8688 171.271 63.9762 171.26 63.9296C171.754 63.746 172.286 63.6858 172.81 63.7542C173.336 63.7624 173.853 63.8975 174.316 64.148Z" fill="#263238"/>
<path d="M135.742 54.4697C135.635 54.9341 135.469 55.3827 135.248 55.8048C135.084 56.252 134.861 56.6757 134.586 57.0647C134.691 56.5997 134.857 56.1508 135.08 55.7296C135.246 55.2833 135.469 54.8599 135.742 54.4697Z" fill="#263238"/>
<path d="M144.519 51.03C144.569 51.03 144.651 53.0559 144.698 55.5578C144.744 58.0597 144.744 60.0892 144.698 60.0892C144.651 60.0892 144.565 58.0633 144.515 55.5614C144.465 53.0595 144.469 51.0336 144.519 51.03Z" fill="#263238"/>
<path d="M148.692 59.5416C148.659 59.3693 148.644 59.1943 148.645 59.019C148.645 58.6611 148.616 58.1671 148.595 57.5873C148.559 56.3811 148.52 54.7239 148.491 52.8769C148.463 51.03 148.448 49.3692 148.445 48.163C148.445 47.5868 148.445 47.1071 148.445 46.7313C148.438 46.5566 148.447 46.3816 148.473 46.2087C148.506 46.381 148.521 46.556 148.52 46.7313C148.52 47.0892 148.548 47.5832 148.57 48.163C148.606 49.3692 148.641 51.0265 148.67 52.8734C148.699 54.7203 148.717 56.3775 148.72 57.5837C148.72 58.16 148.72 58.6575 148.72 59.0154C148.725 59.1913 148.716 59.3673 148.692 59.5416Z" fill="#263238"/>
<path d="M175.189 68.7582C175.129 68.8137 175.065 68.864 174.996 68.9085L174.423 69.3201L172.276 70.827L164.931 75.8988L164.852 75.9561L164.802 75.8738L163.192 73.2036L161.209 69.9035L161.162 69.8248L161.237 69.7783L168.489 65.4831L170.615 64.2447L171.188 63.919C171.253 63.8786 171.321 63.8438 171.392 63.8152C171.333 63.8657 171.27 63.9101 171.202 63.9476L170.647 64.3055L168.55 65.5869L161.327 69.9358L161.359 69.8105C161.985 70.8521 162.658 71.9581 163.349 73.107L164.956 75.7771L164.824 75.7485C167.766 73.7513 170.347 71.9974 172.204 70.7375L174.388 69.2772L174.978 68.8906C175.045 68.8412 175.116 68.7969 175.189 68.7582Z" fill="#263238"/>
<g opacity="0.3">
<path d="M157.601 63.5898C157.491 62.0504 157.638 60.5034 158.034 59.0119C158.959 54.8276 160.48 50.7979 162.551 47.0463C162.31 46.9136 162.034 46.8589 161.761 46.8897C161.488 46.9205 161.231 47.0352 161.026 47.2181C160.625 47.5943 160.314 48.057 160.117 48.5711C158.537 51.9455 157.539 55.5625 157.164 59.2696C157.072 59.9816 157.054 60.7014 157.11 61.4171C157.182 62.1688 157.182 62.9562 157.647 63.5468" fill="black"/>
</g>
<g opacity="0.3">
<path d="M144.509 51.7815C143.395 53.7143 143.542 56.0408 144.605 58.0023C144.605 55.8547 144.605 53.9756 144.476 51.8101" fill="black"/>
</g>
<path d="M153.163 37.4431C153.153 37.3795 153.13 37.3188 153.095 37.265C153.06 37.2112 153.013 37.1658 152.959 37.1317C152.884 37.1017 152.803 37.0894 152.722 37.0959C152.257 37.1042 151.794 37.1703 151.344 37.2928L151.319 37.3644C151.341 37.565 151.383 37.7628 151.445 37.955C151.505 38.1486 151.619 38.3211 151.774 38.4525C151.925 38.5638 152.107 38.6239 152.295 38.6239C152.482 38.6239 152.665 38.5638 152.815 38.4525C152.963 38.334 153.073 38.1764 153.135 37.9979C153.196 37.8193 153.206 37.627 153.163 37.4431Z" fill="#EB996E"/>
<path d="M151.781 38.5382C151.975 38.5555 152.17 38.5434 152.361 38.5025C152.558 38.4422 152.729 38.3158 152.844 38.1445C152.912 38.0441 152.959 37.9305 152.981 37.8109C153.004 37.6914 153.001 37.5685 152.973 37.4502C152.951 37.3385 152.887 37.2396 152.794 37.1745C152.689 37.1401 152.576 37.1401 152.471 37.1745L151.827 37.2962C151.629 37.3491 151.424 37.372 151.219 37.3642C151.401 37.2696 151.596 37.2032 151.799 37.1674L152.436 37.0063C152.578 36.9549 152.734 36.9549 152.876 37.0063C152.946 37.0487 153.007 37.1053 153.055 37.1725C153.102 37.2396 153.135 37.3159 153.152 37.3965C153.187 37.5404 153.19 37.6904 153.161 37.8357C153.132 37.981 153.071 38.1182 152.983 38.2376C152.836 38.4243 152.626 38.5514 152.393 38.5955C152.293 38.632 152.186 38.6458 152.08 38.6359C151.974 38.626 151.872 38.5927 151.781 38.5382Z" fill="#263238"/>
<path d="M159.591 38.8963C159.54 38.7634 159.446 38.6514 159.324 38.5781C159.203 38.5048 159.06 38.4744 158.918 38.4918C158.838 38.5009 158.761 38.5275 158.693 38.5695C158.624 38.6115 158.565 38.6681 158.521 38.7352C158.45 38.852 158.419 38.9882 158.431 39.124C158.444 39.2598 158.499 39.3882 158.589 39.4905C158.684 39.5882 158.808 39.652 158.942 39.672C159.077 39.6921 159.214 39.6673 159.334 39.6014C159.45 39.5301 159.538 39.4217 159.585 39.2937C159.632 39.1657 159.634 39.0257 159.591 38.8963Z" fill="#FAFAFA"/>
<path d="M161.438 70.2112L157.297 66.5425L153.8 66.8431C153.8 66.8431 153.921 67.4158 154.405 67.5053C154.888 67.5948 156.635 67.627 156.635 67.627L157.454 68.4395L155.367 68.2319L152.715 69.796C152.715 69.796 152.654 70.2793 153.349 70.154C154.038 69.9862 154.713 69.7648 155.367 69.4918L156.91 69.5813L155.228 69.8247L153.048 71.3602C153.193 71.5109 153.376 71.6189 153.578 71.6725C153.78 71.7262 153.993 71.7234 154.193 71.6644C154.888 71.4533 155.729 71.1204 155.729 71.1204L157.63 70.9378L155.729 71.421L154.315 73.1713C154.449 73.2646 154.608 73.3146 154.772 73.3146C154.935 73.3146 155.094 73.2646 155.228 73.1713C155.508 72.9749 155.776 72.7634 156.033 72.5378L158.141 72.4447C158.141 72.4447 160.472 74.1341 161.28 74.3167C162.089 74.4992 163.786 74.0053 163.786 74.0053L161.438 70.2112Z" fill="#FFBE9D"/>
<path d="M243.519 87.4741H179.346V123.356H243.519V87.4741Z" fill="#FAFAFA"/>
<path d="M243.519 123.356C243.519 123.356 243.519 123.135 243.519 122.712C243.519 122.29 243.519 121.66 243.519 120.84C243.519 119.194 243.519 116.774 243.519 113.664C243.519 107.454 243.498 98.4912 243.48 87.4741L243.552 87.5457L179.382 87.5672L179.475 87.4741C179.475 100.163 179.475 112.3 179.475 123.356L179.389 123.271L225.562 123.314L238.805 123.335H242.342H243.254H243.566H243.265H242.36H238.845L225.601 123.36L179.389 123.403H179.3V123.314C179.3 112.257 179.3 100.12 179.3 87.4312V87.3381H179.396L243.566 87.3596H243.637V87.4312C243.637 98.4661 243.609 107.443 243.598 113.667C243.598 116.767 243.598 119.183 243.598 120.826C243.598 121.642 243.598 122.258 243.598 122.687C243.598 123.117 243.519 123.356 243.519 123.356Z" fill="#263238"/>
<path d="M196.262 96.0249H187.188V105.098H196.262V96.0249Z" fill="#455A64"/>
<path d="M208.721 97.285C208.721 97.3386 206.602 97.3816 203.993 97.3816C201.383 97.3816 199.261 97.3386 199.261 97.285C199.261 97.2313 201.38 97.1919 203.993 97.1919C206.605 97.1919 208.721 97.2492 208.721 97.285Z" fill="#407BFF"/>
<path d="M238.927 100.564C238.927 100.614 230.043 100.657 219.09 100.657C208.138 100.657 199.254 100.614 199.254 100.564C199.254 100.513 208.134 100.47 219.09 100.47C230.046 100.47 238.927 100.506 238.927 100.564Z" fill="#263238"/>
<path d="M225.586 104.221C225.586 104.272 219.749 104.315 212.554 104.315C205.36 104.315 199.519 104.272 199.519 104.221C199.519 104.171 205.353 104.128 212.554 104.128C219.756 104.128 225.586 104.171 225.586 104.221Z" fill="#263238"/>
<path d="M234.02 110.192H190.184C187.861 110.192 185.979 112.075 185.979 114.397C185.979 116.72 187.861 118.603 190.184 118.603H234.02C236.342 118.603 238.225 116.72 238.225 114.397C238.225 112.075 236.342 110.192 234.02 110.192Z" fill="#407BFF"/>
<path d="M204.043 114.984H202.969L202.765 115.482H202.214L203.248 113.166H203.778L204.812 115.482H204.25L204.043 114.984ZM203.875 114.58L203.517 113.692L203.159 114.58H203.875Z" fill="white"/>
<path d="M207.071 114.007C207.071 114.523 206.685 114.845 206.066 114.845H205.6V115.482H205.063V113.166H206.066C206.674 113.166 207.071 113.485 207.071 114.007ZM206.531 114.007C206.531 113.753 206.363 113.603 206.037 113.603H205.6V114.408H206.037C206.356 114.408 206.52 114.258 206.52 114.007H206.531Z" fill="white"/>
<path d="M209.451 114.007C209.451 114.523 209.064 114.845 208.445 114.845H207.98V115.482H207.429V113.166H208.431C209.064 113.166 209.451 113.485 209.451 114.007ZM208.907 114.007C208.907 113.753 208.742 113.603 208.417 113.603H207.98V114.408H208.417C208.742 114.408 208.907 114.258 208.907 114.007Z" fill="white"/>
<path d="M209.834 113.166H210.367V115.045H211.531V115.482H209.834V113.166Z" fill="white"/>
<path d="M212.705 114.662V115.482H212.168V114.655L211.273 113.166H211.843L212.462 114.193L213.081 113.166H213.607L212.705 114.662Z" fill="white"/>
<path d="M216.892 113.166V115.482H216.452L215.303 114.075V115.482H214.773V113.166H215.217L216.377 114.573V113.166H216.892Z" fill="white"/>
<path d="M217.297 114.322C217.283 114.068 217.345 113.816 217.475 113.598C217.606 113.38 217.799 113.206 218.03 113.099C218.26 112.991 218.518 112.956 218.769 112.996C219.02 113.037 219.253 113.152 219.438 113.326C219.623 113.501 219.751 113.727 219.806 113.975C219.861 114.223 219.84 114.483 219.747 114.719C219.653 114.955 219.491 115.158 219.28 115.301C219.07 115.444 218.822 115.521 218.568 115.521C218.404 115.531 218.241 115.507 218.087 115.451C217.933 115.396 217.792 115.309 217.673 115.196C217.554 115.084 217.459 114.949 217.395 114.798C217.33 114.648 217.297 114.486 217.297 114.322ZM219.291 114.322C219.285 114.182 219.238 114.047 219.156 113.933C219.074 113.819 218.961 113.731 218.829 113.682C218.698 113.632 218.555 113.622 218.418 113.652C218.281 113.683 218.157 113.754 218.059 113.855C217.962 113.956 217.897 114.083 217.871 114.221C217.846 114.359 217.862 114.502 217.917 114.631C217.971 114.76 218.063 114.87 218.18 114.948C218.297 115.025 218.434 115.067 218.575 115.067C218.671 115.067 218.767 115.047 218.855 115.01C218.944 114.972 219.024 114.917 219.091 114.847C219.158 114.777 219.21 114.695 219.245 114.605C219.279 114.515 219.294 114.419 219.291 114.322Z" fill="white"/>
<path d="M223.664 113.166L222.905 115.482H222.329L221.821 113.914L221.295 115.482H220.722L219.956 113.166H220.511L221.037 114.795L221.581 113.166H222.079L222.608 114.805L223.145 113.166H223.664Z" fill="white"/>
<path d="M59.3005 62.5408H11.7998V89.0991H59.3005V62.5408Z" fill="#FAFAFA"/>
<path d="M59.3004 89.1027C59.3004 89.1027 59.3004 88.938 59.3004 88.623C59.3004 88.3081 59.3004 87.8428 59.3004 87.2343C59.3004 86.0137 59.3004 84.2241 59.2825 81.9226C59.2825 77.3232 59.2575 70.6944 59.2432 62.5408L59.3148 62.6124L11.8177 62.6339L11.9107 62.5408C11.9107 71.9328 11.9107 80.9168 11.9107 89.1027L11.8248 89.0168L45.9783 89.0561L55.7963 89.0812H58.4164H59.0928H59.3255H59.1036H58.4342H55.8357L46.0392 89.1027L11.8248 89.1456H11.7139V89.0597C11.7139 80.8739 11.7139 71.8791 11.7139 62.4978V62.4048H11.8105L59.3076 62.4298H59.3792V62.4978C59.3792 70.6693 59.3505 77.3161 59.3398 81.9226C59.3398 84.2169 59.3398 86.003 59.3219 87.22C59.3219 87.8213 59.3219 88.2937 59.3219 88.5944C59.3219 88.8951 59.3004 89.1027 59.3004 89.1027Z" fill="#263238"/>
<path d="M24.3202 68.8726H17.6055V75.5873H24.3202V68.8726Z" fill="#455A64"/>
<path d="M33.544 69.8173C32.3796 69.9095 31.2112 69.9406 30.0435 69.9104C28.8758 69.9406 27.7074 69.9095 26.543 69.8173C27.7073 69.723 28.8758 69.692 30.0435 69.7243C31.2112 69.692 32.3797 69.723 33.544 69.8173Z" fill="#407BFF"/>
<path d="M55.9038 72.2298C55.9038 72.2835 49.3323 72.3228 41.2288 72.3228C33.1253 72.3228 26.5537 72.2835 26.5537 72.2298C26.5537 72.1761 33.1253 72.1367 41.2288 72.1367C49.3323 72.1367 55.9038 72.1797 55.9038 72.2298Z" fill="#263238"/>
<path d="M46.0248 74.9393C46.0248 74.9894 41.7081 75.0323 36.3786 75.0323C31.049 75.0323 26.7324 74.9894 26.7324 74.9393C26.7324 74.8891 31.049 74.8462 36.3965 74.8462C41.7439 74.8462 46.0248 74.8856 46.0248 74.9393Z" fill="#263238"/>
<path d="M52.2666 79.3562H19.8239C18.1041 79.3562 16.71 80.7496 16.71 82.4684C16.71 84.1872 18.1041 85.5806 19.8239 85.5806H52.2666C53.9864 85.5806 55.3805 84.1872 55.3805 82.4684C55.3805 80.7496 53.9864 79.3562 52.2666 79.3562Z" fill="#407BFF"/>
<path d="M30.0821 82.9068H29.284L29.13 83.2647H28.7256L29.488 81.5466H29.896L30.6656 83.2647H30.2468L30.0821 82.9068ZM29.9569 82.6061L29.6848 81.9475L29.4128 82.6061H29.9569Z" fill="white"/>
<path d="M32.3161 82.1802C32.3161 82.5631 32.0298 82.7994 31.5716 82.7994H31.2137V83.2754H30.8271V81.5574H31.5716C32.0441 81.5574 32.3161 81.7936 32.3161 82.1802ZM31.9153 82.1802C31.9153 81.9905 31.79 81.8795 31.5573 81.8795H31.2316V82.4773H31.5573C31.79 82.4773 31.9153 82.3663 31.9153 82.1802Z" fill="white"/>
<path d="M34.0837 82.1802C34.0837 82.5631 33.7974 82.7994 33.3392 82.7994H32.9813V83.2754H32.584V81.5574H33.3249C33.7974 81.5574 34.0837 81.7936 34.0837 82.1802ZM33.6828 82.1802C33.6828 81.9905 33.5611 81.8795 33.3249 81.8795H33.0028V82.4773H33.3249C33.5611 82.4773 33.6828 82.3663 33.6828 82.1802Z" fill="white"/>
<path d="M34.3672 81.5574H34.7645V82.9676H35.6235V83.2933H34.3672V81.5574Z" fill="white"/>
<path d="M36.4931 82.667V83.2754H36.0958V82.6598L35.4336 81.5574H35.8524L36.3141 82.3198L36.7722 81.5574H37.1624L36.4931 82.667Z" fill="white"/>
<path d="M39.5928 81.5574V83.2754H39.2671L38.4116 82.2303V83.2754H38.0215V81.5574H38.3472L39.2026 82.6097V81.5681L39.5928 81.5574Z" fill="white"/>
<path d="M39.8929 82.4166C39.8829 82.2293 39.9293 82.0433 40.0261 81.8827C40.1228 81.722 40.2655 81.594 40.4358 81.5153C40.606 81.4366 40.7959 81.4107 40.981 81.4411C41.1661 81.4714 41.3378 81.5565 41.474 81.6854C41.6102 81.8144 41.7047 81.9812 41.7451 82.1643C41.7855 82.3475 41.7701 82.5385 41.7009 82.7128C41.6316 82.8871 41.5117 83.0366 41.3565 83.1421C41.2014 83.2475 41.0183 83.304 40.8307 83.3043C40.71 83.3111 40.5892 83.2932 40.4756 83.2516C40.3621 83.2101 40.2582 83.1458 40.1704 83.0627C40.0826 82.9796 40.0127 82.8794 39.965 82.7683C39.9173 82.6572 39.8927 82.5375 39.8929 82.4166ZM41.3676 82.4166C41.3655 82.3109 41.3322 82.2082 41.272 82.1213C41.2117 82.0344 41.1271 81.9673 41.0288 81.9283C40.9306 81.8893 40.823 81.8802 40.7195 81.9021C40.6161 81.924 40.5215 81.976 40.4474 82.0515C40.3734 82.127 40.3234 82.2226 40.3035 82.3265C40.2836 82.4303 40.2949 82.5377 40.3358 82.6352C40.3767 82.7327 40.4455 82.8159 40.5336 82.8744C40.6216 82.933 40.725 82.9642 40.8307 82.9642C40.9026 82.9658 40.9739 82.9525 41.0405 82.9254C41.107 82.8983 41.1673 82.8578 41.2176 82.8065C41.2679 82.7552 41.3072 82.6942 41.333 82.6271C41.3588 82.56 41.3706 82.4884 41.3676 82.4166Z" fill="white"/>
<path d="M44.6073 81.5574L44.0453 83.2754H43.6194L43.24 82.1122L42.8499 83.2754H42.4239L41.8584 81.5574H42.27L42.6566 82.7636L43.061 81.5574H43.419L43.8127 82.7743L44.2136 81.5574H44.6073Z" fill="white"/>
<path d="M232.169 16.1426H180.055V45.2815H232.169V16.1426Z" fill="#FAFAFA"/>
<path d="M232.169 45.2815C232.169 45.2815 232.169 45.1025 232.169 44.7553C232.169 44.4081 232.169 43.8999 232.169 43.2341C232.169 41.8955 232.169 39.9305 232.151 37.4071C232.151 32.3638 232.13 25.0872 232.115 16.1425L232.187 16.2141L180.076 16.2356L180.169 16.1425C180.169 26.4473 180.169 36.3011 180.169 45.2815L180.083 45.1956L217.558 45.2349L228.328 45.26H231.192H231.933H231.217H228.353L217.616 45.2851L180.055 45.3853H179.969V45.2994C179.969 36.319 179.969 26.4652 179.969 16.1604V16.0352H180.065L232.176 16.0566H232.248V16.1282C232.23 25.0764 232.219 32.3817 232.208 37.4357C232.208 39.9412 232.208 41.9134 232.19 43.2484C232.19 43.907 232.19 44.4117 232.19 44.7589C232.19 45.1061 232.169 45.2815 232.169 45.2815Z" fill="#263238"/>
<path d="M193.788 23.0864H186.422V30.4526H193.788V23.0864Z" fill="#455A64"/>
<path d="M203.911 24.1242C203.911 24.1743 202.189 24.2173 200.07 24.2173C197.951 24.2173 196.229 24.1743 196.229 24.1242C198.788 23.9954 201.352 23.9954 203.911 24.1242Z" fill="#407BFF"/>
<path d="M228.443 26.773C228.443 26.8267 221.231 26.8696 212.336 26.8696C203.442 26.8696 196.229 26.8267 196.229 26.773C196.229 26.7193 203.438 26.6799 212.336 26.6799C221.234 26.6799 228.443 26.7193 228.443 26.773Z" fill="#263238"/>
<path d="M217.604 29.7437C217.604 29.7938 212.865 29.8368 207.02 29.8368C201.175 29.8368 196.437 29.7938 196.437 29.7437C196.437 29.6936 201.175 29.6506 207.02 29.6506C212.865 29.6506 217.604 29.69 217.604 29.7437Z" fill="#263238"/>
<path d="M224.452 41.4194H188.856C187.95 41.4194 187.082 41.0596 186.442 40.4192C185.801 39.7789 185.441 38.9103 185.441 38.0047C185.441 37.0991 185.801 36.2306 186.442 35.5902C187.082 34.9498 187.95 34.5901 188.856 34.5901H224.452C225.358 34.5901 226.226 34.9498 226.867 35.5902C227.507 36.2306 227.867 37.0991 227.867 38.0047C227.867 38.9103 227.507 39.7789 226.867 40.4192C226.226 41.0596 225.358 41.4194 224.452 41.4194Z" fill="#407BFF"/>
<path d="M200.109 38.4843H199.236L199.071 38.8852H198.624L199.462 37.0061H199.891L200.732 38.8852H200.27L200.109 38.4843ZM199.973 38.1515L199.676 37.4356L199.376 38.1515H199.973Z" fill="white"/>
<path d="M202.561 37.6897C202.561 38.1085 202.246 38.3662 201.745 38.3662H201.365V38.8852H200.929V37.0061H201.745C202.246 37.0061 202.561 37.2674 202.561 37.6897ZM202.121 37.6897C202.121 37.4821 201.985 37.3605 201.72 37.3605H201.362V38.0119H201.72C201.985 38.0119 202.121 37.8938 202.121 37.6897Z" fill="white"/>
<path d="M204.501 37.6897C204.501 38.1085 204.189 38.3662 203.685 38.3662H203.305V38.8852H202.872V37.0061H203.685C204.207 37.0061 204.501 37.2674 204.501 37.6897ZM204.06 37.6897C204.06 37.4821 203.928 37.3605 203.659 37.3605H203.302V38.0119H203.659C203.928 38.0119 204.06 37.8938 204.06 37.6897Z" fill="white"/>
<path d="M204.812 37.0061H205.249V38.5309H206.191V38.8888H204.812V37.0061Z" fill="white"/>
<path d="M207.146 38.2266V38.8924H206.713V38.2266L205.997 37.0168H206.459L206.96 37.8508L207.465 37.0168H207.891L207.146 38.2266Z" fill="white"/>
<path d="M210.547 37.0061V38.8852H210.189L209.251 37.7434V38.8852H208.821V37.0061H209.179L210.113 38.1479V37.0061H210.547Z" fill="white"/>
<path d="M210.876 37.9474C210.864 37.7412 210.914 37.5361 211.019 37.3587C211.125 37.1813 211.282 37.0397 211.469 36.9524C211.656 36.8651 211.865 36.836 212.069 36.8689C212.273 36.9018 212.462 36.9952 212.613 37.137C212.763 37.2789 212.867 37.4625 212.911 37.6642C212.956 37.8659 212.939 38.0763 212.862 38.2682C212.786 38.46 212.654 38.6245 212.483 38.7403C212.312 38.856 212.11 38.9177 211.903 38.9174C211.771 38.9252 211.639 38.9059 211.514 38.8607C211.39 38.8154 211.276 38.7452 211.18 38.6543C211.084 38.5635 211.007 38.4539 210.955 38.3323C210.902 38.2107 210.876 38.0797 210.876 37.9474ZM212.494 37.9474C212.492 37.8311 212.455 37.718 212.389 37.6223C212.323 37.5266 212.23 37.4525 212.122 37.4095C212.014 37.3664 211.895 37.3563 211.781 37.3802C211.668 37.4042 211.563 37.4613 211.482 37.5443C211.4 37.6273 211.345 37.7325 211.323 37.8468C211.301 37.9611 211.314 38.0793 211.359 38.1865C211.404 38.2938 211.479 38.3854 211.576 38.4499C211.673 38.5143 211.787 38.5487 211.903 38.5487C211.982 38.5507 212.061 38.5365 212.134 38.5069C212.207 38.4772 212.274 38.4328 212.329 38.3764C212.384 38.32 212.428 38.2528 212.456 38.179C212.484 38.1052 212.497 38.0264 212.494 37.9474Z" fill="white"/>
<path d="M216.044 37.0061L215.429 38.8852H214.946L214.534 37.611L214.104 38.8852H213.639L213.023 37.0061H213.474L213.897 38.3269L214.341 37.0061H214.745L215.175 38.3376L215.611 37.0061H216.044Z" fill="white"/>
</svg>
