<svg width="40" height="40" viewBox="0 0 40 40" fill="none" xmlns="http://www.w3.org/2000/svg">
<path d="M0 4.44444C0 1.99 1.99 0 4.44444 0H35.5556C38.01 0 40 1.99 40 4.44444V35.5556C40 38.01 38.01 40 35.5556 40H4.44444C1.99 40 0 38.01 0 35.5556V4.44444Z" fill="#E040FB"/>
<path d="M3.33203 3.3335V36.6668H36.6654V3.3335H3.33203ZM16.6831 14.6379H14.4587V19.5646H16.6509C17.2587 19.5646 17.7287 19.3657 18.062 18.9679C18.3954 18.5702 18.5609 17.9913 18.5609 17.2313C18.5609 16.4424 18.3909 15.8157 18.0509 15.349C17.7109 14.8824 17.2543 14.6457 16.6831 14.6379ZM20.4043 20.8768C19.4865 21.7746 18.2131 22.2224 16.5854 22.2224H14.4587V27.7779H11.1098V11.9791H16.6509C18.2131 11.9791 19.4598 12.4646 20.3887 13.4335C21.3176 14.4024 21.7831 15.6613 21.7831 17.2091C21.7831 18.7568 21.3231 19.979 20.4043 20.8768ZM30.2209 19.0002L29.2209 18.8891C28.332 18.8891 27.7765 19.2224 27.5543 20.0002V27.7779H24.4431V16.0002H27.332L27.4431 17.2224C27.8876 16.2224 28.5543 15.7779 29.4431 15.7779C29.7765 15.7779 30.1098 15.7779 30.332 15.8891L30.2209 19.0002Z" fill="#020F16"/>
</svg>
