<svg width="11" height="9" viewBox="0 0 11 9" fill="none" xmlns="http://www.w3.org/2000/svg">
<path d="M10.1545 0.00185649L0.53413 0.0302871C0.436729 0.0308802 0.341335 0.0580258 0.258216 0.108802C0.175095 0.159578 0.107397 0.232062 0.0624078 0.318451C0.0174178 0.40484 -0.00315913 0.501865 0.00289125 0.599079C0.00894162 0.696293 0.04139 0.790016 0.0967447 0.87016L4.92745 7.80397C5.12765 8.09146 5.6076 8.09004 5.80664 7.80137L10.5963 0.839131C10.6517 0.758827 10.6841 0.664865 10.6899 0.567454C10.6957 0.470043 10.6747 0.372909 10.6291 0.286604C10.5836 0.2003 10.5152 0.128125 10.4316 0.0779236C10.3479 0.0277223 10.2521 0.00141456 10.1545 0.00185649Z" fill="white"/>
</svg>
