<svg width="228" height="116" viewBox="0 0 228 116" fill="none" xmlns="http://www.w3.org/2000/svg">
<path d="M80.9735 72.2656C80.9735 68.8785 83.719 66.133 87.1061 66.133H96.8329V61.9449H89.085C82.7879 61.9449 80.1165 59.3737 80.1165 53.8663C80.1165 48.3259 82.7879 45.689 89.085 45.689H96.3592C99.7166 45.689 102.439 48.4114 102.439 51.7689V51.8561H87.4696V55.9439H95.1847C101.482 55.9439 104.153 58.3834 104.153 63.9896C104.153 69.5283 101.482 72.2656 95.1847 72.2656H80.9735Z" fill="white"/>
<path d="M110.945 64.4833V67.1877H119.287C122.092 67.1877 124.365 69.4611 124.365 72.2658H113.485C106.956 72.2658 104.451 70.2539 104.451 63.8253V60.1652C104.451 53.7019 106.956 51.8892 113.485 51.8892H115.629C122.158 51.8892 124.663 53.901 124.663 60.3297V64.4849H110.945V64.4833ZM110.945 56.834V60.0319H118.167V56.834H110.945Z" fill="white"/>
<path d="M137.422 72.2658H132.377C132.377 75.5246 129.735 78.1681 126.474 78.1681H125.519V52.0537H137.422C143.984 52.0537 146.456 54.0655 146.456 60.5271V63.9898C146.456 70.4514 143.984 72.2658 137.422 72.2658ZM139.631 57.1647H132.377V67.1877H139.631V57.1647Z" fill="white"/>
<path d="M161.294 65.4078V57.1647H154.173V65.4078C154.173 69.1963 151.101 72.2658 147.315 72.2658V52.0537H161.162C165.976 52.0537 168.152 54.23 168.152 59.045V72.2675C164.365 72.2658 161.294 69.1946 161.294 65.4078Z" fill="white"/>
<path d="M178.045 51.8892H181.276C187.838 51.8892 190.31 53.901 190.31 60.3297V63.9898C190.31 70.453 187.838 72.4632 181.276 72.4632H178.045C171.516 72.4632 169.01 70.4513 169.01 63.9898V60.3297C169.01 53.8993 171.516 51.8892 178.045 51.8892ZM183.386 57.1647H175.869V67.1877H183.386V57.1647Z" fill="white"/>
<path d="M227.602 52.0533L220.644 71.54C218.831 76.651 216.522 78.1677 210.588 78.1677H205.707C205.707 76.7563 206.28 75.4781 207.204 74.5536C208.13 73.6275 209.407 73.0567 210.818 73.0567H212.534L206.272 57.1643H200.631V67.1889H201.29C204.095 67.1889 206.367 69.4607 206.367 72.2654H202.444C195.849 72.2654 193.771 70.4855 193.771 64.353V57.1643H190.707V52.0533H193.771V46.3813H194.959C198.091 46.3813 200.629 48.9212 200.629 52.0517H203.835C208.433 52.0517 212.508 55.0077 213.934 59.3785L216.257 66.4931L219.07 57.819C220.185 54.381 223.388 52.0517 227.003 52.0517H227.602V52.0533Z" fill="white"/>
<path d="M20.1151 48.8193H8.58855L0 60.5729L10.0575 72.3264H20.1151C15.2311 70.4889 11.9789 65.7908 11.9789 60.5729C11.9789 55.3549 15.2311 50.6568 20.1151 48.8193Z" fill="#002087"/>
<path d="M43.6204 37H56.7573C61.1445 42.9105 65.5334 48.821 69.9206 54.7315C65.5235 60.5745 61.1265 66.4159 56.7294 72.2589H43.6204C44.0958 71.976 53.6368 66.0754 53.6565 54.6657C53.6762 43.2099 44.0777 37.2714 43.6204 37Z" fill="#002087"/>
<path d="M47.9797 43.2788L32.0593 68.069C30.3814 70.6812 27.5011 72.2604 24.4085 72.2604H20.8372L36.9253 47.439C38.6064 44.8449 41.477 43.2805 44.5548 43.2805H47.9797V43.2788Z" fill="#0034DB"/>
</svg>
