<svg width="346" height="258" viewBox="0 0 346 258" fill="none" xmlns="http://www.w3.org/2000/svg">
<path d="M311.333 237.695H288.414V237.868H311.333V237.695Z" fill="#EBEBEB"/>
<path d="M229.205 239.577H223.191V239.75H229.205V239.577Z" fill="#EBEBEB"/>
<path d="M287.719 231.273H274.439V231.446H287.719V231.273Z" fill="#EBEBEB"/>
<path d="M66.1902 232.436H36.3027V232.609H66.1902V232.436Z" fill="#EBEBEB"/>
<path d="M76.7358 232.436H72.3555V232.609H76.7358V232.436Z" fill="#EBEBEB"/>
<path d="M155.803 235.356H90.9766V235.529H155.803V235.356Z" fill="#EBEBEB"/>
<path d="M164.006 195.698H30.3878C29.341 195.696 28.3377 195.279 27.5982 194.538C26.8587 193.797 26.4434 192.793 26.4434 191.746V3.91672C26.4525 2.87597 26.8718 1.88084 27.6104 1.14749C28.3489 0.414133 29.347 0.00178286 30.3878 0H164.006C165.054 0 166.059 0.416299 166.8 1.15732C167.541 1.89833 167.957 2.90336 167.957 3.95132V191.746C167.957 192.794 167.541 193.799 166.8 194.54C166.059 195.281 165.054 195.698 164.006 195.698ZM30.3878 0.138401C29.3869 0.140234 28.4276 0.539113 27.7206 1.24749C27.0135 1.95586 26.6164 2.91585 26.6164 3.91672V191.746C26.6164 192.747 27.0135 193.707 27.7206 194.416C28.4276 195.124 29.3869 195.523 30.3878 195.525H164.006C165.008 195.523 165.968 195.124 166.676 194.416C167.384 193.708 167.783 192.748 167.784 191.746V3.91672C167.783 2.91521 167.384 1.95524 166.676 1.24706C165.968 0.538888 165.008 0.14023 164.006 0.138401H30.3878Z" fill="#EBEBEB"/>
<path d="M313.69 195.698H180.065C179.017 195.696 178.013 195.279 177.273 194.538C176.532 193.798 176.115 192.794 176.113 191.746V3.91672C176.124 2.87534 176.545 1.88022 177.285 1.14705C178.024 0.413891 179.023 0.00176342 180.065 0H313.69C314.729 0.00360151 315.726 0.416756 316.463 1.14992C317.2 1.88308 317.618 2.87716 317.627 3.91672V191.746C317.627 192.792 317.213 193.795 316.475 194.535C315.737 195.276 314.735 195.694 313.69 195.698ZM180.065 0.138401C179.063 0.14023 178.103 0.538888 177.395 1.24706C176.687 1.95524 176.288 2.91521 176.286 3.91672V191.746C176.288 192.748 176.687 193.708 177.395 194.416C178.103 195.124 179.063 195.523 180.065 195.525H313.69C314.691 195.523 315.651 195.124 316.359 194.416C317.068 193.708 317.466 192.748 317.468 191.746V3.91672C317.466 2.91521 317.068 1.95524 316.359 1.24706C315.651 0.538888 314.691 0.14023 313.69 0.138401H180.065Z" fill="#EBEBEB"/>
<path d="M346 226.561H0V226.734H346V226.561Z" fill="#EBEBEB"/>
<path d="M84.6724 180.148C85.3644 181.006 86.0564 182.017 85.8349 183.089C85.6794 183.676 85.3077 184.183 84.7944 184.508C84.2811 184.832 83.6641 184.951 83.0669 184.84C82.4769 184.709 81.93 184.429 81.4773 184.029C81.0246 183.628 80.6811 183.119 80.4789 182.55C80.209 181.858 80.1052 181.096 79.8353 180.397C79.0603 178.37 77.0673 177.131 75.1851 176.038C75.0674 178.114 76.2577 180.107 77.6693 181.671C79.081 183.235 80.7557 184.57 81.9736 186.286C83.1915 188.003 83.8904 190.3 83.0531 192.231C82.9959 192.395 82.8955 192.541 82.7625 192.653C82.5539 192.776 82.3059 192.813 82.0705 192.757C79.8699 192.459 78.3683 190.39 77.3995 188.39C76.4307 186.39 75.6349 184.162 73.8495 182.854C74.6384 185.504 76.7559 187.539 77.8839 190.058C78.5882 191.691 78.8638 193.477 78.6845 195.246C78.5053 197.015 77.8772 198.709 76.8597 200.168C76.7871 200.299 76.6881 200.413 76.569 200.504C76.4498 200.594 76.3132 200.659 76.1677 200.694C75.7387 200.735 75.4273 200.299 75.2473 199.912C73.4481 195.981 74.7699 190.681 71.6559 187.691L70.2165 190.833C69.9682 191.493 69.5812 192.092 69.0816 192.591C68.8279 192.835 68.5043 192.994 68.1558 193.047C67.8073 193.099 67.4512 193.041 67.1371 192.881C66.2098 192.286 66.4451 190.888 66.8534 189.857C67.8845 187.209 69.1561 184.661 70.6525 182.245C69.6075 181.754 68.5765 182.826 67.7876 183.698C66.9987 184.57 65.5663 185.331 64.8604 184.39C64.6507 184.079 64.5531 183.706 64.5836 183.332C64.5836 181.512 65.8361 179.927 67.1579 178.674C68.4796 177.422 69.9951 176.294 70.8808 174.695C69.8875 174.999 68.8305 175.027 67.8222 174.778C66.8465 174.439 66.0576 173.325 66.4382 172.37C67.6142 171.034 68.9166 169.815 70.3272 168.73C71.9119 168.225 73.462 169.692 74.6661 170.564C78.4166 173.295 81.7823 176.519 84.6724 180.148Z" fill="#EBEBEB"/>
<path d="M75.9248 195.608C75.9248 195.082 75.9248 194.563 75.9248 194.044C75.7518 179.138 73.1153 173.574 72.4648 173.415L72.3887 172.723C72.5041 172.711 72.6207 172.726 72.7297 172.765C72.8388 172.805 72.9375 172.868 73.0184 172.952C74.4024 174.135 76.4784 180.73 76.6514 194.03C76.6514 194.549 76.6514 195.068 76.6514 195.594L75.9248 195.608Z" fill="#E0E0E0"/>
<path d="M75.9199 203.303C75.9199 202.86 75.9199 196.514 75.9199 194.127V193.193C75.9199 178.924 78.0928 171.837 79.546 170.557C79.6282 170.473 79.7277 170.408 79.8376 170.366C79.9476 170.324 80.0653 170.307 80.1826 170.315L80.0927 171.007C79.4007 171.18 76.6327 177.159 76.6327 193.199V194.134C76.6327 196.521 76.6327 202.867 76.6327 203.296L75.9199 203.303Z" fill="#E0E0E0"/>
<path d="M85.6966 226.353H67.0057L65.1719 203.87H87.5235L85.6966 226.353Z" fill="#F0F0F0"/>
<path d="M88.9767 205.033H63.5387L63.082 202.043H89.4334L88.9767 205.033Z" fill="#FAFAFA"/>
<path d="M51.325 167.679C50.031 167.644 48.557 167.72 47.7058 168.668C47.2652 169.232 47.0514 169.94 47.1065 170.653C47.1616 171.366 47.4815 172.033 48.0034 172.523C48.5492 172.989 49.2043 173.309 49.9075 173.453C50.6106 173.597 51.3388 173.56 52.0239 173.346C52.882 173.104 53.6709 172.654 54.529 172.419C56.9994 171.727 59.6013 172.723 61.9749 173.72C60.065 175.332 57.3592 175.602 54.868 175.381C52.3768 175.159 49.9133 174.522 47.4152 174.599C44.9171 174.675 42.2114 175.643 41.0073 177.844C40.893 178.015 40.8262 178.213 40.8135 178.418C40.8491 178.705 40.9926 178.967 41.2149 179.152C43.0694 181.027 46.1004 180.979 48.6885 180.467C51.2766 179.955 53.9615 179.124 56.4942 179.865C53.4287 181.006 49.9825 180.446 46.8062 181.179C44.7562 181.677 42.867 182.69 41.3172 184.121C39.7673 185.552 38.6079 187.355 37.9486 189.359C37.8769 189.52 37.8398 189.695 37.8398 189.871C37.8398 190.047 37.8769 190.222 37.9486 190.383C38.2116 190.826 38.8482 190.812 39.3326 190.701C44.3358 189.608 48.4255 184.57 53.484 185.387L51.5326 188.999C51.0808 189.705 50.788 190.501 50.6745 191.331C50.6166 191.751 50.6932 192.178 50.8934 192.551C51.0936 192.924 51.4071 193.224 51.7886 193.407C53.0135 193.864 54.1622 192.625 54.8542 191.518C56.6386 188.646 58.1558 185.616 59.3868 182.467C60.6047 183.103 60.3418 184.875 60.0788 186.217C59.8158 187.56 60.0788 189.483 61.4628 189.504C61.9081 189.481 62.3323 189.308 62.6669 189.013C64.383 187.691 65.0058 185.401 65.248 183.249C65.4902 181.096 65.4764 178.854 66.3622 176.875C66.782 178.037 67.5119 179.061 68.4728 179.837C69.49 180.529 71.1024 180.474 71.7321 179.415C72.1625 177.347 72.3942 175.243 72.4241 173.132C71.7736 171.27 69.2755 170.841 67.5801 170.329C62.3076 168.71 56.8387 167.818 51.325 167.679Z" fill="#F5F5F5"/>
<path d="M84.0643 191.684C84.6387 192.84 85.3861 194.085 86.6317 194.41C87.3372 194.537 88.0647 194.394 88.6697 194.009C89.2746 193.625 89.713 193.027 89.8979 192.334C90.054 191.635 90.0291 190.906 89.8257 190.219C89.6223 189.531 89.2471 188.906 88.7353 188.404C88.1264 187.76 87.3513 187.269 86.7424 186.625C84.9639 184.771 84.6664 181.996 84.4034 179.436C86.7216 180.37 88.2371 182.633 89.2059 184.972C90.1747 187.311 90.7698 189.746 92.0085 191.892C93.2472 194.037 95.3578 195.974 97.8559 196.044C98.0601 196.066 98.2663 196.03 98.451 195.94C98.6877 195.776 98.8534 195.529 98.9147 195.248C99.7035 192.729 98.2227 190.072 96.5688 188.023C94.9149 185.975 92.9081 183.996 92.3753 181.415C94.8249 183.588 95.946 186.895 98.0912 189.366C99.4911 190.944 101.271 192.138 103.262 192.836C105.253 193.534 107.389 193.711 109.468 193.352C109.644 193.341 109.817 193.294 109.974 193.213C110.131 193.132 110.27 193.019 110.381 192.881C110.644 192.445 110.333 191.892 110.001 191.497C106.686 187.587 100.313 186.342 98.6725 181.491H102.776C103.611 181.556 104.451 181.443 105.24 181.159C105.629 181.007 105.962 180.737 106.191 180.387C106.421 180.038 106.535 179.625 106.52 179.207C106.354 177.913 104.721 177.477 103.42 177.387C100.045 177.158 96.6561 177.236 93.2956 177.623C93.2956 176.239 94.9772 175.657 96.292 175.277C97.6068 174.896 99.1707 173.713 98.541 172.509C98.3124 172.127 97.9611 171.834 97.5445 171.678C95.5723 170.779 93.2541 171.312 91.2404 172.107C89.2267 172.903 87.2545 173.955 85.0954 174.107C85.9177 173.187 86.4792 172.065 86.7216 170.855C86.8462 169.637 86.0296 168.232 84.8186 168.177C82.7918 168.768 80.8266 169.554 78.9505 170.523C77.6149 171.976 78.4038 174.377 78.7429 176.107C79.8006 181.517 81.5909 186.758 84.0643 191.684Z" fill="#F0F0F0"/>
<path opacity="0.2" d="M186.695 22.4001C186.695 22.6423 186.695 22.8775 186.695 23.0921V41.001H162.087L160.779 39.7623L162.087 22.3793C162.087 19.1161 163.383 15.9866 165.691 13.6792C167.998 11.3718 171.128 10.0755 174.391 10.0755C177.654 10.0755 180.784 11.3718 183.091 13.6792C185.398 15.9866 186.695 19.1161 186.695 22.3793V22.4001Z" fill="black"/>
<path d="M185.387 21.1613C185.387 21.3966 185.387 21.6388 185.387 21.8533V39.7623H160.779V21.1613C160.779 19.5456 161.098 17.9456 161.716 16.4529C162.334 14.9601 163.24 13.6038 164.383 12.4613C165.525 11.3188 166.882 10.4125 168.375 9.79414C169.867 9.17582 171.467 8.85757 173.083 8.85757C174.699 8.85757 176.299 9.17582 177.792 9.79414C179.284 10.4125 180.641 11.3188 181.783 12.4613C182.926 13.6038 183.832 14.9601 184.45 16.4529C185.069 17.9456 185.387 19.5456 185.387 21.1613Z" fill="#F0F0F0"/>
<path d="M182.026 22.8305C182.789 18.13 179.597 13.701 174.897 12.938C170.197 12.175 165.768 15.367 165.005 20.0674C164.242 24.7679 167.434 29.1969 172.134 29.9599C176.834 30.7228 181.263 27.5309 182.026 22.8305Z" fill="#E0E0E0"/>
<path d="M172.509 29.9082C177.271 29.9082 181.131 26.0479 181.131 21.2859C181.131 16.5239 177.271 12.6636 172.509 12.6636C167.747 12.6636 163.887 16.5239 163.887 21.2859C163.887 26.0479 167.747 29.9082 172.509 29.9082Z" fill="white"/>
<path d="M173.081 21.8603C173.081 21.9971 173.041 22.1309 172.965 22.2447C172.889 22.3585 172.781 22.4472 172.654 22.4996C172.528 22.552 172.388 22.5657 172.254 22.539C172.12 22.5123 171.997 22.4464 171.9 22.3496C171.803 22.2528 171.737 22.1295 171.711 21.9953C171.684 21.861 171.698 21.7219 171.75 21.5955C171.802 21.469 171.891 21.3609 172.005 21.2849C172.119 21.2089 172.252 21.1683 172.389 21.1683C172.573 21.1683 172.749 21.2412 172.879 21.371C173.008 21.5007 173.081 21.6767 173.081 21.8603Z" fill="#E0E0E0"/>
<path d="M172.3 22.1232L169.324 19.3206L169.615 19.0092L172.314 21.5488L177.151 17.2792L177.428 17.5906L172.3 22.1232Z" fill="#E0E0E0"/>
<path d="M91.9201 102.963C88.301 103.655 81.5401 104.091 73.769 104.091C65.9978 104.091 59.237 103.641 55.6178 102.963C55.4543 103.339 55.2192 103.68 54.9258 103.966C53.7425 105.143 51.4105 104.72 50.6562 103.966C49.9019 103.212 49.4798 100.88 50.6562 99.7034C50.9122 99.4474 51.3482 99.4197 51.5073 99.1152C52.7529 96.5963 50.5316 91.78 50.5316 86.5762C50.5316 81.3723 52.7529 76.5698 51.5004 74.044C51.0022 73.0337 49.7773 72.5286 49.7773 71.3245C49.7773 70.1204 51.0022 69.6222 51.5004 68.6118C52.746 66.086 50.5316 61.2697 50.5316 56.0728C50.5316 50.8759 52.7529 46.0596 51.5073 43.5338C51.3551 43.2362 50.9122 43.2016 50.6562 42.9525C49.4798 41.7761 49.9019 39.444 50.6562 38.6898C51.4105 37.9355 53.7425 37.5134 54.9258 38.6898C55.2165 38.9873 55.2441 39.4994 55.6178 39.6932C58.8425 41.4647 65.9978 38.5583 73.769 38.5583C81.5401 38.5583 88.6954 41.4647 91.9201 39.6932C92.2661 39.4994 92.2869 39.0012 92.6121 38.6898C93.7885 37.5134 96.1275 37.9355 96.8749 38.6898C97.6222 39.444 98.0582 41.7761 96.8749 42.9525C96.6257 43.2016 96.1829 43.2362 96.0306 43.5338C94.785 46.0596 97.0063 50.8759 97.0063 56.0728C97.0063 61.2697 94.785 66.086 96.0306 68.6118C96.5358 69.6222 97.7606 70.1204 97.7606 71.3245C97.7606 72.5286 96.5358 73.0337 96.0306 74.044C94.785 76.5698 97.0063 81.3862 97.0063 86.5762C97.0063 91.7662 94.785 96.5963 96.0306 99.1152C96.1829 99.4197 96.6257 99.4474 96.8749 99.7034C98.0582 100.88 97.6292 103.212 96.8749 103.966C96.1206 104.72 93.7885 105.143 92.6121 103.966C92.3143 103.683 92.0786 103.342 91.9201 102.963Z" fill="#E0E0E0"/>
<path d="M93.2962 101.586C89.677 102.278 82.9162 102.72 75.145 102.72C67.3739 102.72 60.613 102.264 56.987 101.586C56.8285 101.965 56.5929 102.306 56.295 102.589C55.1186 103.765 52.7865 103.343 52.0322 102.589C51.278 101.835 50.8558 99.5027 52.0322 98.3263C52.2814 98.0771 52.7242 98.0426 52.8765 97.745C54.1221 95.2192 51.9008 90.4029 51.9008 85.206C51.9008 80.009 54.1221 75.1927 52.8765 72.6669C52.3782 71.6566 51.1465 71.1514 51.1465 69.9543C51.1465 68.7571 52.3782 68.245 52.8765 67.2347C54.1498 64.7089 51.9008 59.8926 51.9008 54.668C51.9008 49.4434 54.1221 44.6548 52.8765 42.129C52.7312 41.8314 52.2814 41.8037 52.0322 41.5477C50.8558 40.3713 51.278 38.0392 52.0322 37.285C52.7865 36.5307 55.1186 36.1086 56.295 37.285C56.5925 37.5825 56.6133 38.1015 56.987 38.2884C60.2186 40.0599 67.367 37.1535 75.145 37.1535C82.9231 37.1535 90.0646 40.0599 93.2962 38.2884C93.6422 38.1015 93.663 37.5964 93.9882 37.285C95.1646 36.1086 97.4966 36.5307 98.2509 37.285C99.0052 38.0392 99.4273 40.3713 98.2509 41.5477C98.0018 41.8037 97.5589 41.8314 97.4067 42.129C96.1611 44.6548 98.3824 49.4711 98.3824 54.668C98.3824 59.8649 96.1611 64.6812 97.4067 67.207C97.9049 68.2173 99.1367 68.7225 99.1367 69.9266C99.1367 71.1307 97.9049 71.6289 97.4067 72.6392C96.1611 75.165 98.3824 79.9813 98.3824 85.1783C98.3824 90.3752 96.1611 95.1915 97.4067 97.7173C97.5589 98.0149 98.0018 98.0495 98.2509 98.2986C99.4273 99.475 99.0052 101.807 98.2509 102.561C97.4966 103.316 95.1646 103.738 93.9882 102.561C93.6934 102.287 93.4579 101.955 93.2962 101.586Z" fill="#FAFAFA"/>
<path d="M56.9727 97.0253H93.3027V42.8763L56.9727 42.8763L56.9727 97.0253Z" fill="#EBEBEB"/>
<path d="M215.676 42.641C215.676 42.641 233.834 24.912 258.462 24.912C283.09 24.912 298.944 42.641 298.944 42.641V183.809H215.676V42.641Z" fill="#F5F5F5"/>
<path d="M296.869 43.3192C286.309 33.0799 272.177 27.3539 257.467 27.3539C242.757 27.3539 228.625 33.0799 218.064 43.3192V181.996H296.869V43.3192ZM294.406 179.519H220.514V44.371C230.541 35.0187 243.742 29.8178 257.453 29.8178C271.164 29.8178 284.365 35.0187 294.392 44.371L294.406 179.519Z" fill="#E0E0E0"/>
<path d="M301.159 186.286H213.738V41.52L214.368 40.8834C225.795 29.4608 241.291 23.044 257.448 23.044C273.606 23.044 289.102 29.4608 300.529 40.8834L301.159 41.52V186.286ZM218.049 181.996H296.868V43.3192C286.307 33.08 272.175 27.3539 257.466 27.3539C242.756 27.3539 228.624 33.08 218.063 43.3192L218.049 181.996Z" fill="#EBEBEB"/>
<path d="M269.148 29.5208V40.7865H245.751V29.5208C244.298 29.8322 242.859 30.2127 241.447 30.6141V40.7865H222.306C221.164 41.7138 220.043 42.6826 218.971 43.7137V45.0977H241.447V87.5034H218.971V91.8077H241.447V134.428H218.971V138.739H241.447V181.055H245.751V138.739H269.148V181.055H273.459V138.739H295.928V134.428H273.459V91.8077H295.928V87.5034H273.459V45.0977H295.928V43.7137C294.855 42.6826 293.741 41.7138 292.599 40.7865H273.459V30.6141C272.04 30.192 270.573 29.8322 269.148 29.5208ZM269.148 134.428H245.751V91.8077H269.148V134.428ZM269.148 87.5034H245.751V45.0977H269.148V87.5034Z" fill="#E6E6E6"/>
<path d="M308.175 186.646H205.891V195.462H308.175V186.646Z" fill="#F0F0F0"/>
<path d="M172.998 257.431C247.099 257.431 307.17 253.924 307.17 249.597C307.17 245.271 247.099 241.764 172.998 241.764C98.897 241.764 38.8262 245.271 38.8262 249.597C38.8262 253.924 98.897 257.431 172.998 257.431Z" fill="#F5F5F5"/>
<path d="M240.812 216.139C240.812 216.139 243.58 216.776 244.868 220.222C246.155 223.668 250.071 225.807 252.597 225.682C253.615 225.634 254.569 226.111 255.691 226.761L256.666 227.322C256.625 226.983 256.59 226.63 256.569 226.263C256.299 226.056 256.03 225.827 255.767 225.571C255.71 225.51 255.65 225.452 255.587 225.398C252.542 222.471 252.459 219.392 248.909 216.624C245.359 213.856 240.812 216.139 240.812 216.139Z" fill="#407BFF"/>
<path d="M270.362 213.081C269.461 213.52 268.676 214.168 268.075 214.971C267.473 215.773 267.071 216.708 266.902 217.696C266.12 221.288 262.536 223.959 259.982 224.187C258.972 224.284 258.093 224.879 257.076 225.696C256.792 225.91 256.502 226.146 256.19 226.388C256.19 226.042 256.19 225.696 256.135 225.322C256.377 225.073 256.605 224.817 256.827 224.54C256.875 224.471 256.931 224.409 256.979 224.346C259.581 221.018 259.235 217.959 262.356 214.714C265.477 211.468 270.362 213.081 270.362 213.081Z" fill="#407BFF"/>
<path d="M257.129 225.696C257.212 227.622 257.012 229.551 256.534 231.419C254.825 238.062 254.652 235.605 254.652 235.605C254.652 235.605 256.299 229.377 256.243 226.395C256.243 226.049 256.243 225.703 256.188 225.329C256.088 224.007 255.82 222.702 255.392 221.447C253.586 216.229 249.981 214.617 248.555 208.991C247.13 203.365 252.07 199.4 252.07 199.4C252.07 199.4 251.378 202.915 254.728 206.14C258.077 209.365 258.527 214.97 257.101 217.821C256.271 219.482 256.797 221.565 257.039 224.333C257.081 224.782 257.108 225.232 257.129 225.696Z" fill="#407BFF"/>
<path d="M260.189 254.047H249.117C248.546 254.047 247.995 253.841 247.565 253.465C247.134 253.09 246.855 252.571 246.778 252.006L243.83 230.132H265.455L262.5 252.006C262.424 252.567 262.148 253.081 261.724 253.456C261.3 253.831 260.755 254.041 260.189 254.047Z" fill="#407BFF"/>
<path d="M267.261 230.055V234.076H264.929L262.507 251.999C262.433 252.564 262.155 253.084 261.726 253.459C261.297 253.835 260.745 254.042 260.175 254.04H249.117C248.547 254.039 247.997 253.831 247.569 253.456C247.14 253.081 246.862 252.563 246.785 251.999L244.363 234.076H241.678V230.055H267.261Z" fill="#407BFF"/>
<path opacity="0.5" d="M267.261 230.055V234.076H264.929L262.507 251.999C262.433 252.564 262.155 253.084 261.726 253.459C261.297 253.835 260.745 254.042 260.175 254.04H249.117C248.547 254.039 247.997 253.831 247.569 253.456C247.14 253.081 246.862 252.563 246.785 251.999L244.363 234.076H241.678V230.055H267.261Z" fill="black"/>
<path d="M135.942 184.688C135.876 185.352 135.568 185.969 135.077 186.42C134.585 186.872 133.945 187.127 133.278 187.138C132.964 187.143 132.653 187.082 132.364 186.958C132.076 186.834 131.818 186.65 131.606 186.418C131.395 186.187 131.235 185.912 131.138 185.614C131.041 185.315 131.008 185 131.043 184.688C131.119 184.028 131.43 183.417 131.919 182.967C132.408 182.518 133.043 182.259 133.707 182.238C134.021 182.232 134.332 182.294 134.62 182.418C134.909 182.542 135.167 182.726 135.379 182.957C135.59 183.189 135.75 183.463 135.847 183.762C135.944 184.06 135.977 184.376 135.942 184.688Z" fill="#407BFF"/>
<path d="M137.547 183.02C137.478 183.017 137.41 183 137.349 182.968C137.287 182.937 137.232 182.894 137.188 182.84C137.145 182.787 137.113 182.724 137.095 182.658C137.076 182.591 137.073 182.521 137.083 182.453C137.208 181.069 135.776 179.941 133.824 179.941C131.873 179.941 130.198 181.615 130.129 182.453C130.119 182.6 130.056 182.739 129.952 182.843C129.847 182.948 129.709 183.01 129.561 183.02C129.492 183.017 129.425 183 129.363 182.968C129.301 182.937 129.246 182.894 129.203 182.84C129.159 182.787 129.127 182.724 129.109 182.658C129.091 182.591 129.087 182.521 129.098 182.453C129.243 180.806 131.499 178.799 133.942 178.799C136.385 178.799 138.308 180.404 138.128 182.453C138.118 182.602 138.053 182.743 137.946 182.848C137.839 182.952 137.697 183.014 137.547 183.02Z" fill="#407BFF"/>
<path d="M138.91 179.809C138.841 179.806 138.773 179.789 138.711 179.758C138.649 179.727 138.595 179.683 138.551 179.629C138.507 179.576 138.475 179.514 138.457 179.447C138.439 179.38 138.435 179.31 138.446 179.242C138.564 177.858 136.592 176.73 134.045 176.73C131.374 176.73 129.27 178.488 129.201 179.242C129.191 179.389 129.128 179.528 129.024 179.632C128.92 179.737 128.781 179.8 128.634 179.809C128.565 179.806 128.497 179.789 128.435 179.758C128.373 179.727 128.319 179.683 128.275 179.629C128.231 179.576 128.199 179.514 128.181 179.447C128.163 179.38 128.159 179.31 128.17 179.242C128.315 177.595 131.097 175.588 134.142 175.588C137.36 175.588 139.678 177.159 139.47 179.242C139.461 179.388 139.399 179.526 139.296 179.63C139.193 179.734 139.056 179.798 138.91 179.809Z" fill="#407BFF"/>
<path d="M140.246 176.875C140.176 176.872 140.108 176.855 140.045 176.823C139.983 176.792 139.928 176.747 139.884 176.693C139.84 176.639 139.809 176.575 139.791 176.508C139.773 176.44 139.77 176.37 139.782 176.301C139.886 175.09 137.706 173.796 134.246 173.796C130.786 173.796 128.323 175.657 128.267 176.301C128.261 176.449 128.2 176.589 128.097 176.695C127.993 176.801 127.855 176.865 127.707 176.875C127.637 176.872 127.568 176.854 127.506 176.823C127.443 176.792 127.388 176.747 127.343 176.693C127.299 176.639 127.266 176.576 127.248 176.508C127.23 176.441 127.226 176.37 127.236 176.301C127.382 174.661 130.696 172.654 134.35 172.654C138.281 172.654 141.007 174.19 140.82 176.301C140.812 176.45 140.749 176.592 140.643 176.698C140.537 176.804 140.396 176.867 140.246 176.875Z" fill="#407BFF"/>
<path d="M259.224 150.136H75.5254L85.7116 33.6797H269.41L259.224 150.136Z" fill="#407BFF"/>
<path d="M256.732 159.25H75.6707C74.4799 159.271 73.2983 159.038 72.2046 158.567C71.1109 158.095 70.1301 157.396 69.3275 156.516C68.5248 155.637 67.9188 154.596 67.5497 153.464C67.1806 152.331 67.0569 151.133 67.1868 149.949L77.3107 34.2263C77.5702 31.7067 78.7421 29.369 80.6055 27.6534C82.4689 25.9379 84.8954 24.9628 87.4277 24.912H268.448C269.639 24.8911 270.82 25.1241 271.914 25.5954C273.008 26.0667 273.989 26.7656 274.791 27.6455C275.594 28.5253 276.2 29.5661 276.569 30.6984C276.938 31.8307 277.062 33.0286 276.932 34.2125L266.808 149.949C266.546 152.46 265.379 154.788 263.525 156.5C261.67 158.212 259.255 159.19 256.732 159.25Z" fill="#263238"/>
<path d="M256.726 150.136H83.207L93.4002 33.6797H266.912L256.726 150.136Z" fill="#407BFF"/>
<path d="M256.69 150.178H83.1914L93.3776 33.7281H266.876L256.69 150.178Z" fill="white"/>
<path d="M265.591 48.4885H92.0859L93.38 33.7281H266.878L265.591 48.4885Z" fill="#407BFF"/>
<path d="M170.901 87.6153C173.099 85.5116 173.318 82.1747 171.392 80.1621C169.465 78.1495 166.122 78.2234 163.924 80.3271C161.727 82.4308 161.507 85.7677 163.434 87.7802C165.36 89.7928 168.704 89.719 170.901 87.6153Z" fill="#407BFF"/>
<path d="M102.086 109.458C104.276 107.359 104.493 104.031 102.571 102.025C100.649 100.019 97.3145 100.095 95.1242 102.194C92.9338 104.293 92.7166 107.621 94.639 109.627C96.5614 111.633 99.8955 111.557 102.086 109.458Z" fill="#263238"/>
<path d="M154.934 116.844C154.787 118.272 154.122 119.597 153.066 120.569C152.009 121.54 150.633 122.091 149.197 122.117C148.522 122.129 147.852 121.997 147.232 121.73C146.612 121.463 146.056 121.066 145.601 120.568C145.146 120.069 144.802 119.479 144.593 118.837C144.384 118.195 144.314 117.515 144.388 116.844C144.535 115.416 145.199 114.091 146.256 113.12C147.313 112.148 148.689 111.597 150.125 111.571C150.8 111.559 151.47 111.691 152.09 111.959C152.71 112.226 153.266 112.622 153.721 113.121C154.176 113.62 154.519 114.21 154.729 114.852C154.938 115.494 155.008 116.173 154.934 116.844Z" fill="#407BFF"/>
<path d="M98.7832 75.2758L99.2745 74.3554C99.6854 74.6287 100.165 74.7799 100.659 74.7914C101.178 74.7914 101.392 74.6461 101.413 74.4316C101.475 73.7396 98.9147 74.2378 99.06 72.5978C99.1292 71.8089 99.8281 71.1584 101.136 71.1584C101.684 71.1492 102.226 71.2827 102.707 71.5459L102.243 72.4801C101.881 72.2638 101.468 72.1446 101.046 72.1341C100.52 72.1341 100.313 72.314 100.292 72.5355C100.236 73.2275 102.79 72.7016 102.651 74.3347C102.582 75.1097 101.876 75.7671 100.575 75.7671C99.9429 75.7816 99.32 75.6108 98.7832 75.2758Z" fill="#263238"/>
<path d="M119.883 75.6772L120.069 73.3313L118.768 75.2412H118.208L117.239 73.3935L117.038 75.6772H115.883L116.256 71.276H117.288L118.616 73.8364L120.408 71.276H121.44L121.066 75.7048L119.883 75.6772Z" fill="#263238"/>
<path d="M134.511 72.2448H133.127L133.217 71.2484H137.182L137.099 72.2448H135.715L135.411 75.7048H134.158L134.511 72.2448Z" fill="#263238"/>
<path d="M157.141 71.276L155.321 75.7048H153.979L153.37 73.0129L152.242 75.6771H150.899L149.848 71.2484H151.142L151.785 74.0786L152.969 71.2484H154.117L154.761 74.0994L155.944 71.2484L157.141 71.276Z" fill="#263238"/>
<path d="M167.597 72.2448H166.213L166.303 71.2484H170.268L170.233 72.2448H168.849L168.545 75.7048H167.292L167.597 72.2448Z" fill="#263238"/>
<path d="M184.445 72.2171L184.362 73.1929H186.32L186.23 74.1617H184.279L184.147 75.6771H182.895L183.282 71.2484H186.742L186.652 72.2171H184.445Z" fill="#263238"/>
<path d="M199.156 75.2758L199.654 74.3554C200.075 74.635 200.568 74.7865 201.073 74.7914C201.592 74.7914 201.807 74.6461 201.827 74.4316C201.89 73.7396 199.329 74.2378 199.468 72.5978C199.537 71.8089 200.243 71.1584 201.544 71.1584C202.092 71.1492 202.633 71.2827 203.114 71.5459L202.651 72.4801C202.288 72.2647 201.876 72.1456 201.454 72.1341C200.928 72.1341 200.72 72.314 200.699 72.5355C200.644 73.2275 203.198 72.7016 203.052 74.3347C202.99 75.1097 202.284 75.7671 200.976 75.7671C200.335 75.7842 199.702 75.6134 199.156 75.2758Z" fill="#263238"/>
<path d="M134.374 82.1543L133.986 86.5831H132.734L133.038 83.1231H132.215L132.298 82.1543H134.374Z" fill="#263238"/>
<path d="M152.136 85.5866L152.046 86.583H148.586L148.655 85.7942L150.447 84.2441C150.835 83.9188 150.904 83.7182 150.918 83.5521C150.932 83.386 150.766 83.0954 150.385 83.0954C150.223 83.0947 150.064 83.1334 149.92 83.2081C149.777 83.2829 149.654 83.3914 149.562 83.5244L148.676 83.0054C148.894 82.7049 149.183 82.4634 149.518 82.3027C149.853 82.142 150.222 82.0672 150.593 82.085C151.61 82.085 152.267 82.611 152.191 83.4344C152.154 83.7144 152.057 83.983 151.907 84.2218C151.756 84.4607 151.556 84.6642 151.319 84.8184L150.413 85.5866H152.136Z" fill="#263238"/>
<path d="M168.703 85.1922C168.634 85.9465 168.011 86.6661 166.627 86.6661C166.037 86.6788 165.455 86.5279 164.945 86.2302L165.485 85.2891C165.837 85.5316 166.255 85.6597 166.682 85.6558C167.104 85.6558 167.374 85.4897 167.423 85.1922C167.471 84.8946 167.264 84.7631 166.786 84.7631H166.26L166.329 83.9743L167.194 83.1231H165.457L165.547 82.1543H168.744L168.675 82.9363L167.672 83.9258C167.823 83.9405 167.97 83.985 168.104 84.0568C168.237 84.1285 168.356 84.2261 168.452 84.3439C168.547 84.4616 168.619 84.5972 168.662 84.7429C168.705 84.8885 168.719 85.0412 168.703 85.1922Z" fill="#263238"/>
<path d="M185.961 85.7319H185.269L185.193 86.5831H183.975L184.044 85.7319H181.705L181.781 84.9154L184.009 82.1474H185.303L183.276 84.7354H184.176L184.238 83.9812H185.456L185.387 84.7354H186.079L185.961 85.7319Z" fill="#263238"/>
<path d="M201.856 85.1576C201.787 85.9465 201.13 86.6661 199.78 86.6661C199.192 86.6797 198.612 86.5287 198.105 86.2302L198.638 85.2891C198.99 85.5316 199.408 85.6597 199.835 85.6558C200.258 85.6558 200.527 85.4828 200.583 85.1922C200.638 84.9015 200.438 84.7424 199.759 84.7424H198.604L199.047 82.1543H201.87L201.787 83.1231H199.988L199.877 83.7667H200.175C201.469 83.7667 201.925 84.3756 201.856 85.1576Z" fill="#263238"/>
<path d="M100.83 96.0635C100.771 96.5077 100.544 96.9123 100.195 97.1931C99.8455 97.474 99.4016 97.6097 98.955 97.572C97.7164 97.572 96.969 96.8247 97.0936 95.3922C97.0988 95.0633 97.1699 94.7388 97.3026 94.4378C97.4353 94.1367 97.627 93.8654 97.8663 93.6396C98.1055 93.4139 98.3876 93.2383 98.6959 93.1234C99.0041 93.0084 99.3322 92.9563 99.6609 92.9702C100.107 92.953 100.549 93.0635 100.934 93.2886L100.401 94.1882C100.168 94.0279 99.8885 93.9477 99.6055 93.9598C99.31 93.944 99.0197 94.042 98.7944 94.2339C98.5691 94.4257 98.426 94.6967 98.3945 94.9909C98.6895 94.765 99.0544 94.6498 99.4256 94.6656C99.6142 94.6463 99.8048 94.6691 99.9836 94.7324C100.162 94.7957 100.325 94.8979 100.459 95.0317C100.594 95.1655 100.697 95.3274 100.761 95.5058C100.825 95.6843 100.849 95.8748 100.83 96.0635ZM99.6124 96.1188C99.6216 96.0433 99.6133 95.9668 99.5882 95.895C99.5632 95.8232 99.522 95.7581 99.4679 95.7046C99.4138 95.6512 99.3482 95.6108 99.2761 95.5867C99.204 95.5625 99.1273 95.5552 99.0519 95.5652C98.8907 95.5537 98.7314 95.606 98.6085 95.7109C98.4855 95.8158 98.4086 95.9648 98.3945 96.1258C98.3599 96.451 98.5814 96.6794 98.962 96.6794C99.0442 96.6899 99.1276 96.6836 99.2073 96.6608C99.287 96.638 99.3611 96.5992 99.4253 96.5467C99.4894 96.4942 99.5421 96.4292 99.5803 96.3556C99.6184 96.2821 99.6411 96.2015 99.647 96.1188H99.6124Z" fill="#263238"/>
<path d="M117.731 93.0602L117.662 93.8422L115.787 97.4821H114.403L116.195 94.0221H115.032L114.97 94.7141H113.904L114.05 93.0394L117.731 93.0602Z" fill="#263238"/>
<path d="M135.062 96.1881C134.993 97.0392 134.163 97.5721 132.986 97.5721C131.81 97.5721 131.111 97.0323 131.187 96.1881C131.204 95.971 131.276 95.762 131.397 95.5813C131.519 95.4006 131.685 95.2544 131.879 95.157C131.74 95.0569 131.63 94.9213 131.56 94.7644C131.491 94.6074 131.465 94.4347 131.485 94.2643C131.554 93.4823 132.315 92.9772 133.36 92.9772C134.405 92.9772 135.083 93.4823 135.014 94.2643C134.996 94.4455 134.937 94.6202 134.841 94.775C134.745 94.9298 134.615 95.0604 134.46 95.157C134.655 95.2451 134.818 95.3918 134.926 95.5765C135.034 95.7612 135.081 95.975 135.062 96.1881ZM133.81 96.1535C133.81 95.8075 133.589 95.5998 133.194 95.5998C133.029 95.5823 132.864 95.6307 132.734 95.7343C132.605 95.838 132.521 95.9886 132.502 96.1535C132.502 96.4925 132.717 96.7001 133.118 96.7001C133.283 96.7158 133.447 96.6668 133.576 96.5635C133.705 96.4602 133.789 96.3106 133.81 96.1465V96.1535ZM132.779 94.3197C132.779 94.6103 132.945 94.7833 133.263 94.7833C133.332 94.791 133.401 94.785 133.466 94.7658C133.532 94.7466 133.594 94.7145 133.647 94.6714C133.701 94.6283 133.745 94.575 133.778 94.5146C133.81 94.4542 133.831 94.388 133.838 94.3197C133.838 94.029 133.658 93.856 133.346 93.856C133.211 93.8424 133.075 93.8826 132.969 93.9681C132.863 94.0536 132.795 94.1773 132.779 94.3127V94.3197Z" fill="#263238"/>
<path d="M151.55 95.15C151.544 95.4796 151.473 95.8047 151.34 96.1062C151.207 96.4077 151.015 96.6794 150.774 96.9052C150.534 97.1311 150.252 97.3065 149.943 97.421C149.633 97.5355 149.305 97.5869 148.975 97.572C148.532 97.5883 148.092 97.4779 147.709 97.2537L148.242 96.3541C148.475 96.5144 148.755 96.5946 149.038 96.5825C149.33 96.595 149.617 96.4964 149.841 96.3065C150.064 96.1166 150.207 95.8494 150.242 95.5583C149.947 95.7787 149.585 95.8911 149.218 95.8766C149.032 95.8924 148.845 95.8675 148.67 95.8035C148.495 95.7395 148.336 95.6381 148.204 95.5063C148.072 95.3745 147.971 95.2155 147.907 95.0404C147.843 94.8653 147.818 94.6784 147.834 94.4926C147.892 94.051 148.118 93.6486 148.464 93.368C148.81 93.0875 149.251 92.9501 149.695 92.9841C150.934 92.9702 151.681 93.7176 151.55 95.15ZM150.256 94.4165C150.256 94.0913 150.069 93.8629 149.688 93.8629C149.528 93.8515 149.369 93.904 149.247 94.009C149.125 94.1141 149.05 94.263 149.038 94.4234C149.029 94.4989 149.037 94.5755 149.062 94.6473C149.087 94.7191 149.128 94.7842 149.182 94.8377C149.236 94.8911 149.302 94.9314 149.374 94.9556C149.446 94.9798 149.523 94.9871 149.598 94.977C149.76 94.9905 149.922 94.939 150.046 94.834C150.171 94.7289 150.248 94.5788 150.262 94.4165H150.256Z" fill="#263238"/>
<path d="M166.501 93.0602L166.113 97.4821H164.861L165.165 94.0221H164.342L164.425 93.0602H166.501Z" fill="#263238"/>
<path d="M166.974 95.2677C167.099 93.8076 167.999 92.9702 169.134 92.9702C170.268 92.9702 171.002 93.8076 170.877 95.2677C170.753 96.7278 169.853 97.572 168.725 97.572C167.597 97.572 166.85 96.7347 166.974 95.2677ZM169.618 95.2677C169.701 94.3404 169.438 93.9944 169.044 93.9944C168.649 93.9944 168.317 94.3404 168.234 95.2677C168.151 96.195 168.414 96.5479 168.815 96.5479C169.217 96.5479 169.542 96.188 169.618 95.2677Z" fill="#263238"/>
<path d="M183.04 93.0602L182.652 97.4821H181.4L181.704 94.0221H180.881L180.971 93.0602H183.04Z" fill="#263238"/>
<path d="M185.606 93.0602L185.219 97.4821H183.966L184.271 94.0221H183.447L183.53 93.0602H185.606Z" fill="#263238"/>
<path d="M199.585 93.0602L199.197 97.4821H197.945L198.249 94.0221H197.426L197.509 93.0602H199.585Z" fill="#263238"/>
<path d="M203.372 96.4925L203.282 97.4821H199.822L199.891 96.7001L201.684 95.15C202.071 94.8248 202.14 94.6172 202.154 94.458C202.154 94.1743 202.002 94.0013 201.621 94.0013C201.46 94.0006 201.3 94.0393 201.157 94.114C201.013 94.1888 200.89 94.2974 200.798 94.4303L199.912 93.9113C200.13 93.6108 200.42 93.3693 200.754 93.2086C201.089 93.0479 201.458 92.9731 201.829 92.991C202.846 92.991 203.504 93.5169 203.428 94.3335C203.391 94.6135 203.294 94.8823 203.144 95.1212C202.993 95.3602 202.792 95.5636 202.556 95.7175L201.649 96.4925H203.372Z" fill="#263238"/>
<path d="M98.2645 103.959L97.877 108.388H96.6245L96.929 104.928H96.1055L96.1885 103.959H98.2645Z" fill="white"/>
<path d="M102.054 107.004C101.992 107.751 101.362 108.478 99.9784 108.478C99.3873 108.493 98.8041 108.339 98.2969 108.035L98.8366 107.094C99.1865 107.335 99.6019 107.463 100.027 107.461C100.456 107.461 100.719 107.302 100.774 107.004C100.83 106.706 100.615 106.568 100.131 106.568H99.6463L99.7155 105.779L100.58 104.928H98.8159L98.8989 103.959H102.103L102.034 104.741L101.03 105.731C101.182 105.745 101.329 105.79 101.463 105.862C101.597 105.935 101.715 106.033 101.811 106.152C101.906 106.27 101.977 106.407 102.019 106.553C102.06 106.7 102.073 106.853 102.054 107.004Z" fill="white"/>
<path d="M115.079 103.959L114.691 108.388H113.439L113.736 104.928H112.92L113.003 103.959H115.079Z" fill="#263238"/>
<path d="M119.606 107.537H118.914L118.838 108.388H117.641L117.71 107.537H115.371L115.44 106.72L117.669 103.952H118.969L116.949 106.568H117.842L117.911 105.814H119.094L119.025 106.568H119.717L119.606 107.537Z" fill="#263238"/>
<path d="M132.464 103.959L132.076 108.388H130.824L131.128 104.928H130.305L130.388 103.959H132.464Z" fill="#263238"/>
<path d="M136.323 106.962C136.254 107.751 135.596 108.478 134.247 108.478C133.658 108.494 133.077 108.34 132.572 108.035L133.105 107.094C133.455 107.335 133.87 107.463 134.295 107.461C134.724 107.461 134.987 107.295 135.05 106.997C135.112 106.7 134.939 106.568 134.247 106.568H133.043L133.493 103.98H136.323L136.233 104.949H134.455L134.337 105.592H134.634C135.956 105.572 136.413 106.181 136.323 106.962Z" fill="#263238"/>
<path d="M149.003 103.959L148.615 108.388H147.397L147.695 104.928H146.844L146.934 103.959H149.003Z" fill="#263238"/>
<path d="M153.195 106.963C153.136 107.406 152.909 107.81 152.562 108.092C152.214 108.374 151.772 108.512 151.326 108.478C150.087 108.478 149.34 107.731 149.465 106.291C149.47 105.962 149.541 105.638 149.674 105.337C149.806 105.036 149.998 104.764 150.237 104.539C150.477 104.313 150.759 104.137 151.067 104.022C151.375 103.907 151.703 103.855 152.032 103.869C152.479 103.854 152.92 103.967 153.305 104.195L152.772 105.094C152.54 104.931 152.26 104.851 151.977 104.866C151.681 104.85 151.391 104.948 151.166 105.14C150.94 105.332 150.797 105.603 150.766 105.897C151.06 105.669 151.425 105.551 151.797 105.565C151.985 105.548 152.174 105.572 152.351 105.636C152.528 105.701 152.689 105.803 152.823 105.936C152.956 106.07 153.059 106.231 153.123 106.408C153.187 106.585 153.212 106.775 153.195 106.963ZM151.977 107.018C151.986 106.942 151.977 106.866 151.952 106.794C151.927 106.722 151.886 106.657 151.832 106.604C151.778 106.55 151.712 106.51 151.64 106.486C151.568 106.462 151.491 106.454 151.416 106.464C151.25 106.447 151.084 106.496 150.954 106.601C150.824 106.706 150.742 106.859 150.724 107.025C150.715 107.102 150.723 107.18 150.749 107.253C150.775 107.326 150.817 107.393 150.873 107.447C150.928 107.501 150.996 107.542 151.069 107.566C151.143 107.59 151.222 107.596 151.298 107.585C151.381 107.595 151.464 107.588 151.543 107.564C151.622 107.54 151.696 107.501 151.76 107.447C151.823 107.394 151.875 107.329 151.912 107.255C151.95 107.181 151.972 107.1 151.977 107.018Z" fill="#263238"/>
<path d="M165.548 103.959L165.16 108.388H163.908L164.212 104.928H163.389L163.472 103.959H165.548Z" fill="#263238"/>
<path d="M169.811 103.959L169.742 104.741L167.867 108.388H166.483L168.275 104.928H167.112L167.05 105.62H165.984L166.13 103.945L169.811 103.959Z" fill="#263238"/>
<path d="M182.088 103.959L181.707 108.388H180.455L180.752 104.928H179.922L180.012 103.959H182.088Z" fill="#263238"/>
<path d="M186.299 107.08C186.23 107.931 185.399 108.464 184.223 108.464C183.046 108.464 182.347 107.917 182.424 107.08C182.442 106.864 182.515 106.655 182.636 106.475C182.757 106.295 182.922 106.148 183.116 106.049C182.977 105.95 182.867 105.816 182.798 105.66C182.728 105.504 182.702 105.333 182.721 105.163C182.79 104.374 183.552 103.869 184.597 103.869C185.641 103.869 186.32 104.374 186.25 105.163C186.232 105.343 186.172 105.517 186.076 105.67C185.98 105.824 185.85 105.953 185.697 106.049C185.891 106.138 186.053 106.285 186.161 106.469C186.269 106.654 186.317 106.867 186.299 107.08ZM185.046 107.046C185.046 106.706 184.825 106.499 184.43 106.499C184.266 106.481 184.102 106.529 183.973 106.631C183.843 106.733 183.759 106.882 183.738 107.046C183.738 107.385 183.953 107.599 184.354 107.599C184.519 107.613 184.682 107.563 184.811 107.46C184.94 107.357 185.024 107.209 185.046 107.046ZM184.015 105.219C184.015 105.509 184.181 105.682 184.5 105.682C184.568 105.69 184.637 105.684 184.703 105.665C184.769 105.646 184.83 105.613 184.884 105.57C184.937 105.527 184.981 105.474 185.014 105.414C185.047 105.353 185.067 105.287 185.074 105.219C185.074 104.921 184.894 104.748 184.583 104.748C184.514 104.741 184.446 104.748 184.38 104.768C184.315 104.788 184.254 104.821 184.201 104.865C184.148 104.909 184.105 104.963 184.073 105.023C184.041 105.084 184.021 105.15 184.015 105.219Z" fill="#263238"/>
<path d="M198.604 103.959L198.217 108.388H196.964L197.269 104.928H196.445L196.528 103.959H198.604Z" fill="#263238"/>
<path d="M202.792 106.049C202.787 106.379 202.717 106.705 202.584 107.007C202.451 107.31 202.259 107.582 202.019 107.809C201.779 108.035 201.496 108.211 201.186 108.326C200.877 108.441 200.547 108.493 200.218 108.478C199.773 108.492 199.334 108.379 198.951 108.153L199.484 107.253C199.716 107.417 199.996 107.497 200.28 107.481C200.573 107.496 200.861 107.398 201.084 107.207C201.308 107.017 201.451 106.749 201.484 106.457C201.19 106.68 200.828 106.795 200.46 106.783C200.274 106.797 200.088 106.771 199.913 106.707C199.739 106.643 199.58 106.541 199.449 106.41C199.317 106.278 199.216 106.119 199.151 105.945C199.087 105.77 199.061 105.584 199.076 105.399C199.133 104.956 199.358 104.552 199.704 104.27C200.051 103.988 200.492 103.849 200.937 103.883C202.169 103.869 202.916 104.617 202.792 106.049ZM201.498 105.322C201.532 104.99 201.311 104.762 200.93 104.762C200.77 104.75 200.611 104.803 200.489 104.908C200.368 105.013 200.292 105.162 200.28 105.322C200.27 105.398 200.277 105.476 200.301 105.549C200.326 105.621 200.367 105.687 200.421 105.742C200.475 105.796 200.542 105.837 200.614 105.861C200.687 105.886 200.764 105.893 200.84 105.883C201.002 105.894 201.161 105.842 201.284 105.737C201.407 105.632 201.484 105.483 201.498 105.322Z" fill="#263238"/>
<path d="M98.5196 118.332L98.4366 119.322H94.9766L95.0458 118.54L96.8796 116.948C97.2671 116.616 97.3363 116.415 97.3501 116.256C97.364 116.097 97.1979 115.799 96.8173 115.799C96.6555 115.799 96.496 115.837 96.3525 115.912C96.209 115.987 96.0859 116.095 95.9938 116.228L95.108 115.709C95.3264 115.409 95.6159 115.168 95.9504 115.007C96.285 114.847 96.6542 114.772 97.0249 114.789C98.0421 114.789 98.6995 115.315 98.6234 116.131C98.5864 116.411 98.4894 116.68 98.3389 116.919C98.1884 117.158 97.988 117.361 97.7515 117.515L96.8104 118.332H98.5196Z" fill="#263238"/>
<path d="M98.9901 117.073C99.1147 115.612 100.014 114.775 101.149 114.775C102.284 114.775 103.018 115.612 102.893 117.073C102.768 118.533 101.869 119.377 100.741 119.377C99.6129 119.377 98.8655 118.533 98.9901 117.073ZM101.634 117.073C101.717 116.145 101.454 115.799 101.059 115.799C100.665 115.799 100.367 116.145 100.25 117.073C100.132 118 100.429 118.353 100.831 118.353C101.232 118.353 101.55 118.007 101.634 117.073Z" fill="#263238"/>
<path d="M115.351 118.332L115.261 119.322H111.801L111.87 118.54L113.662 116.99C114.043 116.657 114.112 116.457 114.126 116.298C114.14 116.138 113.981 115.841 113.6 115.841C113.437 115.839 113.276 115.877 113.131 115.952C112.987 116.027 112.862 116.136 112.77 116.27L111.884 115.751C112.103 115.451 112.392 115.21 112.727 115.05C113.061 114.889 113.43 114.814 113.801 114.83C114.818 114.83 115.475 115.356 115.406 116.173C115.367 116.453 115.269 116.722 115.117 116.961C114.966 117.199 114.764 117.403 114.527 117.557L113.628 118.332H115.351Z" fill="#263238"/>
<path d="M117.916 114.872L117.529 119.301H116.255L116.553 115.841H115.736L115.819 114.872H117.916Z" fill="#263238"/>
<path d="M132.734 118.332L132.644 119.322H129.184L129.253 118.54L131.045 116.99C131.433 116.657 131.502 116.457 131.516 116.298C131.529 116.138 131.363 115.841 130.983 115.841C130.821 115.84 130.662 115.879 130.518 115.954C130.375 116.028 130.251 116.137 130.159 116.27L129.274 115.751C129.492 115.451 129.781 115.21 130.116 115.049C130.45 114.888 130.82 114.813 131.19 114.831C132.208 114.831 132.865 115.356 132.789 116.173C132.752 116.453 132.655 116.721 132.504 116.96C132.354 117.199 132.154 117.403 131.917 117.557L131.024 118.332H132.734Z" fill="#263238"/>
<path d="M136.525 118.332L136.435 119.322H132.975L133.044 118.54L134.836 116.99C135.217 116.657 135.286 116.457 135.307 116.298C135.327 116.138 135.154 115.841 134.774 115.841C134.611 115.841 134.451 115.88 134.306 115.954C134.162 116.029 134.037 116.137 133.943 116.27L133.065 115.751C133.281 115.451 133.57 115.21 133.903 115.049C134.237 114.888 134.605 114.813 134.974 114.831C135.999 114.831 136.649 115.356 136.58 116.173C136.543 116.454 136.445 116.723 136.293 116.962C136.141 117.201 135.939 117.404 135.701 117.557L134.801 118.332H136.525Z" fill="#263238"/>
<path d="M149.274 118.332L149.19 119.322H145.73L145.8 118.54L147.606 116.948C147.986 116.616 148.056 116.415 148.069 116.256C148.083 116.097 147.924 115.799 147.544 115.799C147.381 115.797 147.22 115.836 147.075 115.91C146.93 115.985 146.806 116.094 146.713 116.228L145.827 115.709C146.046 115.41 146.336 115.169 146.67 115.008C147.005 114.848 147.374 114.772 147.744 114.789C148.761 114.789 149.419 115.315 149.35 116.131C149.311 116.412 149.212 116.68 149.061 116.919C148.909 117.158 148.708 117.361 148.471 117.515L147.571 118.291L149.274 118.332Z" fill="#263238"/>
<path d="M153.086 117.903C153.023 118.657 152.394 119.377 151.01 119.377C150.42 119.39 149.837 119.239 149.328 118.941L149.868 118C150.218 118.241 150.633 118.369 151.058 118.367C151.487 118.367 151.75 118.201 151.805 117.903C151.861 117.605 151.646 117.474 151.162 117.474H150.636L150.705 116.685L151.57 115.827H149.826L149.909 114.858H153.113L153.044 115.647L152.041 116.63C152.194 116.643 152.343 116.686 152.479 116.758C152.615 116.829 152.735 116.927 152.832 117.046C152.93 117.164 153.002 117.301 153.046 117.449C153.089 117.596 153.103 117.75 153.086 117.903Z" fill="#263238"/>
<path d="M165.818 118.332L165.728 119.322H162.268L162.337 118.54L164.143 116.948C164.53 116.616 164.6 116.415 164.613 116.256C164.627 116.097 164.461 115.799 164.081 115.799C163.919 115.799 163.759 115.837 163.616 115.912C163.472 115.987 163.349 116.095 163.257 116.228L162.371 115.709C162.589 115.409 162.879 115.167 163.213 115.007C163.548 114.846 163.917 114.771 164.288 114.789C165.305 114.789 165.963 115.315 165.887 116.131C165.85 116.411 165.753 116.68 165.602 116.919C165.452 117.158 165.251 117.361 165.015 117.515L164.108 118.332H165.818Z" fill="#263238"/>
<path d="M170.315 118.443H169.623L169.547 119.287H168.364L168.44 118.443H166.08L166.149 117.626L168.378 114.858H169.672L167.644 117.446H168.544L168.606 116.699H169.789L169.727 117.446H170.384L170.315 118.443Z" fill="#263238"/>
<path d="M182.356 118.332L182.273 119.322H178.812L178.882 118.54L180.674 116.99C181.055 116.657 181.124 116.457 181.138 116.298C181.151 116.138 180.992 115.841 180.612 115.841C180.449 115.839 180.288 115.877 180.143 115.952C179.998 116.027 179.874 116.136 179.781 116.27L178.896 115.751C179.114 115.451 179.404 115.21 179.738 115.05C180.073 114.889 180.442 114.814 180.812 114.83C181.83 114.83 182.487 115.356 182.418 116.173C182.379 116.453 182.281 116.722 182.129 116.961C181.977 117.199 181.776 117.403 181.539 117.557L180.639 118.332H182.356Z" fill="#263238"/>
<path d="M186.245 117.868C186.176 118.657 185.518 119.377 184.169 119.377C183.581 119.391 183.001 119.24 182.494 118.941L183.027 118C183.377 118.241 183.792 118.369 184.217 118.367C184.646 118.367 184.909 118.194 184.971 117.896C185.034 117.598 184.826 117.446 184.148 117.446H182.944L183.38 114.872H186.203L186.113 115.841H184.335L184.217 116.491H184.515C185.857 116.477 186.314 117.079 186.245 117.868Z" fill="#263238"/>
<path d="M198.902 118.332L198.812 119.322H195.352L195.421 118.54L197.22 116.948C197.607 116.616 197.67 116.415 197.691 116.256C197.711 116.097 197.538 115.799 197.158 115.799C196.996 115.799 196.836 115.837 196.693 115.912C196.549 115.987 196.426 116.095 196.334 116.228L195.448 115.709C195.666 115.409 195.956 115.167 196.29 115.007C196.625 114.846 196.994 114.771 197.365 114.789C198.383 114.789 199.04 115.315 198.964 116.131C198.927 116.411 198.83 116.68 198.679 116.919C198.529 117.158 198.328 117.361 198.092 117.515L197.22 118.332H198.902Z" fill="#263238"/>
<path d="M203.089 117.868C203.03 118.311 202.804 118.715 202.456 118.996C202.108 119.276 201.666 119.413 201.221 119.377C199.982 119.377 199.235 118.63 199.359 117.197C199.364 116.868 199.436 116.544 199.568 116.243C199.701 115.942 199.893 115.67 200.132 115.445C200.371 115.219 200.653 115.043 200.961 114.928C201.27 114.813 201.598 114.761 201.927 114.775C202.373 114.758 202.814 114.868 203.2 115.094L202.667 115.993C202.433 115.833 202.154 115.753 201.871 115.765C201.576 115.749 201.285 115.847 201.06 116.039C200.835 116.231 200.692 116.502 200.66 116.796C200.956 116.571 201.32 116.456 201.691 116.471C201.879 116.452 202.069 116.476 202.247 116.54C202.425 116.604 202.586 116.706 202.72 116.84C202.854 116.973 202.956 117.135 203.02 117.313C203.084 117.491 203.107 117.68 203.089 117.868ZM201.871 117.924C201.881 117.848 201.874 117.77 201.849 117.698C201.825 117.625 201.784 117.559 201.73 117.505C201.675 117.45 201.609 117.409 201.537 117.385C201.464 117.36 201.387 117.353 201.311 117.363C201.228 117.353 201.143 117.359 201.063 117.382C200.982 117.406 200.907 117.445 200.842 117.498C200.778 117.551 200.724 117.617 200.686 117.691C200.647 117.766 200.625 117.847 200.619 117.931C200.619 118.256 200.805 118.484 201.186 118.484C201.268 118.495 201.352 118.489 201.431 118.466C201.511 118.443 201.585 118.404 201.649 118.352C201.714 118.299 201.766 118.234 201.804 118.161C201.843 118.087 201.865 118.006 201.871 117.924Z" fill="#263238"/>
<path d="M97.5723 129.196L97.4893 130.193H94.0293L94.1123 129.404L95.9046 127.861C96.2852 127.529 96.3544 127.328 96.3682 127.169C96.3821 127.01 96.216 126.719 95.8423 126.719C95.6792 126.716 95.5178 126.754 95.3729 126.829C95.2279 126.903 95.1038 127.013 95.0119 127.148L94.1123 126.636C94.3295 126.334 94.6185 126.091 94.9532 125.929C95.2879 125.768 95.6578 125.692 96.0292 125.709C97.0464 125.709 97.7038 126.235 97.6277 127.058C97.5921 127.338 97.4956 127.608 97.3449 127.847C97.1943 128.086 96.9932 128.289 96.7558 128.442L95.8492 129.21L97.5723 129.196Z" fill="#263238"/>
<path d="M101.826 125.764L101.757 126.546L99.8744 130.193H98.4904L100.283 126.733H99.1202L99.0579 127.425H97.9922L98.1375 125.75L101.826 125.764Z" fill="#263238"/>
<path d="M114.396 129.196L114.306 130.193H110.846L110.915 129.404L112.707 127.861C113.088 127.529 113.157 127.328 113.178 127.169C113.199 127.01 113.026 126.719 112.645 126.719C112.482 126.717 112.321 126.755 112.176 126.83C112.032 126.905 111.907 127.014 111.815 127.148L110.936 126.629C111.151 126.327 111.439 126.084 111.772 125.922C112.106 125.76 112.475 125.684 112.846 125.702C113.87 125.702 114.52 126.228 114.451 127.051C114.412 127.331 114.314 127.6 114.162 127.839C114.011 128.078 113.809 128.281 113.572 128.435L112.673 129.203L114.396 129.196Z" fill="#263238"/>
<path d="M118.609 128.892C118.533 129.736 117.71 130.276 116.533 130.276C115.357 130.276 114.658 129.729 114.727 128.892C114.745 128.675 114.818 128.467 114.939 128.286C115.06 128.106 115.226 127.959 115.419 127.861C115.279 127.761 115.169 127.626 115.099 127.469C115.03 127.312 115.004 127.139 115.025 126.968C115.087 126.179 115.855 125.674 116.9 125.674C117.945 125.674 118.616 126.179 118.554 126.968C118.536 127.149 118.476 127.324 118.38 127.478C118.285 127.633 118.155 127.764 118.001 127.861C118.196 127.949 118.36 128.095 118.469 128.28C118.578 128.464 118.627 128.678 118.609 128.892ZM117.357 128.85C117.357 128.511 117.136 128.304 116.741 128.304C116.577 128.286 116.413 128.334 116.283 128.436C116.154 128.538 116.07 128.687 116.049 128.85C116.049 129.19 116.264 129.404 116.665 129.404C116.829 129.418 116.993 129.368 117.121 129.265C117.25 129.162 117.335 129.014 117.357 128.85ZM116.326 127.024C116.326 127.314 116.492 127.487 116.81 127.487C116.879 127.495 116.948 127.489 117.013 127.47C117.079 127.451 117.141 127.418 117.194 127.375C117.248 127.332 117.292 127.279 117.325 127.219C117.357 127.158 117.378 127.092 117.385 127.024C117.385 126.726 117.198 126.553 116.893 126.553C116.825 126.546 116.756 126.553 116.691 126.573C116.625 126.593 116.564 126.626 116.512 126.67C116.459 126.714 116.415 126.768 116.383 126.828C116.351 126.889 116.332 126.955 116.326 127.024Z" fill="#263238"/>
<path d="M131.777 129.196L131.694 130.193H128.234L128.297 129.404L130.096 127.861C130.476 127.529 130.546 127.328 130.559 127.169C130.573 127.01 130.407 126.719 130.034 126.719C129.87 126.716 129.709 126.754 129.564 126.829C129.419 126.903 129.295 127.013 129.203 127.148L128.317 126.629C128.535 126.327 128.824 126.084 129.158 125.923C129.493 125.761 129.863 125.685 130.234 125.702C131.251 125.702 131.909 126.228 131.833 127.051C131.797 127.332 131.701 127.601 131.55 127.84C131.399 128.079 131.198 128.282 130.961 128.435L130.096 129.196H131.777Z" fill="#263238"/>
<path d="M135.944 127.861C135.939 128.19 135.868 128.516 135.734 128.817C135.601 129.119 135.409 129.39 135.169 129.616C134.929 129.842 134.646 130.017 134.337 130.132C134.028 130.246 133.699 130.298 133.37 130.283C132.925 130.297 132.486 130.184 132.104 129.958L132.636 129.058C132.868 129.222 133.149 129.302 133.432 129.286C133.725 129.301 134.013 129.203 134.237 129.012C134.46 128.822 134.603 128.554 134.636 128.262C134.341 128.483 133.98 128.598 133.612 128.587C133.426 128.603 133.239 128.578 133.064 128.514C132.889 128.45 132.73 128.349 132.598 128.217C132.467 128.085 132.365 127.926 132.301 127.751C132.237 127.576 132.212 127.389 132.228 127.203C132.285 126.761 132.51 126.356 132.857 126.074C133.203 125.793 133.644 125.654 134.09 125.688C135.321 125.674 136.069 126.422 135.944 127.861ZM134.65 127.127C134.659 127.051 134.651 126.973 134.625 126.901C134.6 126.828 134.558 126.762 134.503 126.708C134.449 126.654 134.382 126.613 134.309 126.589C134.236 126.564 134.159 126.557 134.083 126.567C133.922 126.555 133.764 126.608 133.642 126.713C133.52 126.818 133.445 126.967 133.432 127.127C133.421 127.203 133.427 127.28 133.451 127.353C133.474 127.426 133.515 127.492 133.568 127.547C133.622 127.601 133.688 127.642 133.76 127.667C133.833 127.691 133.91 127.698 133.986 127.688C134.148 127.699 134.308 127.647 134.432 127.543C134.556 127.438 134.634 127.289 134.65 127.127Z" fill="#263238"/>
<path d="M148.345 128.809C148.276 129.556 147.619 130.283 146.269 130.283C145.68 130.294 145.098 130.144 144.588 129.847L145.128 128.899C145.479 129.141 145.898 129.27 146.325 129.266C146.747 129.266 147.017 129.106 147.065 128.809C147.114 128.511 146.906 128.38 146.429 128.38H145.903L145.972 127.584L146.837 126.733H145.093L145.176 125.764H148.373L148.304 126.546L147.301 127.536C147.454 127.549 147.602 127.592 147.738 127.663C147.874 127.735 147.995 127.833 148.092 127.952C148.189 128.07 148.262 128.207 148.306 128.355C148.349 128.502 148.363 128.656 148.345 128.809Z" fill="#263238"/>
<path d="M148.822 127.979C148.954 126.518 149.846 125.674 150.981 125.674C152.116 125.674 152.85 126.518 152.725 127.979C152.6 129.439 151.701 130.283 150.573 130.283C149.445 130.283 148.698 129.439 148.822 127.979ZM151.466 127.979C151.549 127.051 151.286 126.698 150.891 126.698C150.497 126.698 150.165 127.051 150.082 127.979C149.999 128.906 150.261 129.259 150.663 129.259C151.064 129.259 151.383 128.906 151.466 127.979Z" fill="#263238"/>
<path d="M102.556 55.0002L100.217 57.3807L102.113 60.0103L102.556 55.0002Z" fill="#263238"/>
<path d="M205.253 55.0002L207.17 57.3807L204.811 60.0103L205.253 55.0002Z" fill="#263238"/>
<path d="M174.55 60.0103H132.566L133.002 55.0002H174.986L174.55 60.0103Z" fill="#263238"/>
<path d="M256.691 150.178H209.047L217.946 48.4885H265.59L256.691 150.178Z" fill="#407BFF"/>
<path d="M256.691 150.178H209.047L217.946 48.4885H265.59L256.691 150.178Z" fill="black"/>
<path d="M226.284 89.268H221.647C221.38 89.2731 221.115 89.2217 220.869 89.1171C220.623 89.0125 220.402 88.8571 220.22 88.6611C220.039 88.465 219.9 88.2328 219.815 87.9797C219.729 87.7265 219.698 87.4581 219.723 87.192L221.204 70.3072C221.267 69.7424 221.533 69.2197 221.954 68.8374C222.374 68.4552 222.92 68.2396 223.488 68.2312H228.131C228.398 68.2272 228.663 68.2794 228.908 68.3844C229.154 68.4893 229.374 68.6448 229.556 68.8405C229.737 69.0363 229.875 69.2681 229.961 69.5208C230.047 69.7735 230.079 70.0414 230.055 70.3072L228.581 87.192C228.517 87.7586 228.248 88.2823 227.825 88.6646C227.402 89.0469 226.854 89.2615 226.284 89.268Z" fill="white"/>
<path d="M226.281 80.362C226.212 81.1163 225.589 81.836 224.205 81.836C223.615 81.8486 223.033 81.6977 222.523 81.4L223.063 80.4589C223.415 80.7014 223.833 80.8295 224.26 80.8256C224.682 80.8256 224.952 80.6596 225.001 80.362C225.049 80.0644 224.842 79.933 224.364 79.933H223.838L223.907 79.1441L224.772 78.286H223.022L223.112 77.3172H226.309L226.239 78.1061L225.236 79.0887C225.389 79.1016 225.538 79.1451 225.674 79.2165C225.81 79.288 225.93 79.3859 226.027 79.5047C226.125 79.6234 226.198 79.7604 226.241 79.9076C226.285 80.0549 226.298 80.2094 226.281 80.362Z" fill="#263238"/>
<path d="M255.035 89.268H232.358C232.091 89.2732 231.826 89.2217 231.58 89.1171C231.334 89.0125 231.113 88.8571 230.931 88.6611C230.749 88.465 230.611 88.2328 230.526 87.9797C230.44 87.7265 230.409 87.4581 230.434 87.192L231.908 70.3072C231.974 69.7424 232.242 69.2205 232.663 68.8386C233.085 68.4567 233.63 68.2409 234.199 68.2312H256.883C257.149 68.2271 257.414 68.2793 257.659 68.3843C257.904 68.4893 258.124 68.6449 258.305 68.8408C258.486 69.0367 258.623 69.2686 258.709 69.5213C258.794 69.774 258.825 70.0418 258.799 70.3072L257.325 87.192C257.26 87.7569 256.992 88.2788 256.571 88.6607C256.149 89.0426 255.604 89.2584 255.035 89.268Z" fill="#407BFF"/>
<path d="M252.788 114.934H230.111C229.844 114.938 229.58 114.886 229.334 114.781C229.089 114.676 228.868 114.521 228.687 114.325C228.505 114.129 228.367 113.897 228.281 113.645C228.195 113.392 228.163 113.124 228.188 112.858L229.668 95.9735C229.734 95.4087 230.002 94.8868 230.423 94.5049C230.845 94.123 231.39 93.9072 231.959 93.8975H254.657C254.923 93.8935 255.188 93.9457 255.434 94.0507C255.679 94.1556 255.9 94.3111 256.081 94.5069C256.262 94.7026 256.401 94.9344 256.487 95.1871C256.573 95.4398 256.605 95.7077 256.58 95.9735L255.099 112.858C255.034 113.427 254.762 113.951 254.337 114.334C253.911 114.716 253.36 114.93 252.788 114.934Z" fill="#263238"/>
<path d="M250.547 140.608H227.863C227.596 140.612 227.332 140.559 227.087 140.454C226.842 140.349 226.621 140.194 226.44 139.998C226.26 139.802 226.122 139.57 226.037 139.317C225.952 139.065 225.921 138.797 225.946 138.532L227.42 121.647C227.485 121.082 227.754 120.56 228.175 120.178C228.596 119.796 229.142 119.58 229.711 119.571H252.387C252.655 119.566 252.92 119.617 253.166 119.722C253.412 119.826 253.633 119.982 253.814 120.178C253.996 120.374 254.134 120.606 254.22 120.859C254.305 121.112 254.337 121.381 254.311 121.647L252.83 138.532C252.768 139.096 252.502 139.619 252.081 140.001C251.661 140.384 251.115 140.599 250.547 140.608Z" fill="#407BFF"/>
<path d="M224.051 114.934H219.408C219.141 114.938 218.877 114.886 218.632 114.781C218.387 114.676 218.166 114.521 217.985 114.325C217.805 114.129 217.667 113.897 217.582 113.644C217.497 113.392 217.466 113.124 217.491 112.858L218.965 95.9736C219.03 95.4087 219.299 94.8868 219.72 94.5049C220.141 94.123 220.687 93.9072 221.255 93.8976H225.899C226.165 93.8934 226.43 93.9456 226.675 94.0506C226.92 94.1557 227.14 94.3112 227.321 94.5071C227.502 94.7031 227.64 94.9349 227.725 95.1876C227.81 95.4403 227.841 95.7081 227.816 95.9736L226.342 112.858C226.276 113.423 226.008 113.945 225.587 114.327C225.165 114.709 224.62 114.925 224.051 114.934Z" fill="white"/>
<path d="M221.687 101.593L221.3 106.021H220.054L220.359 102.561H219.535L219.618 101.593H221.687Z" fill="#263238"/>
<path d="M225.494 104.637C225.432 105.392 224.802 106.111 223.418 106.111C222.828 106.125 222.246 105.974 221.736 105.675L222.269 104.734C222.623 104.972 223.04 105.1 223.466 105.101C223.888 105.101 224.158 104.935 224.207 104.637C224.255 104.34 224.055 104.208 223.57 104.208H223.044L223.113 103.419L223.978 102.561H222.235L222.318 101.593H225.522L225.452 102.381L224.449 103.364C224.602 103.376 224.752 103.419 224.888 103.49C225.025 103.561 225.145 103.659 225.243 103.778C225.34 103.897 225.413 104.034 225.456 104.182C225.499 104.33 225.512 104.485 225.494 104.637Z" fill="#263238"/>
<path d="M221.799 140.608H217.163C216.896 140.613 216.63 140.561 216.384 140.457C216.138 140.352 215.917 140.197 215.736 140.001C215.554 139.805 215.416 139.572 215.33 139.319C215.245 139.066 215.214 138.798 215.239 138.532L216.713 121.647C216.778 121.082 217.047 120.56 217.468 120.178C217.889 119.796 218.435 119.58 219.004 119.571H223.647C223.914 119.567 224.179 119.619 224.424 119.724C224.669 119.829 224.89 119.984 225.071 120.18C225.253 120.376 225.391 120.608 225.477 120.86C225.563 121.113 225.595 121.381 225.571 121.647L224.09 138.532C224.024 139.096 223.756 139.618 223.335 140C222.913 140.382 222.368 140.598 221.799 140.608Z" fill="white"/>
<path d="M255.66 60.3632H227.025L227.496 55.0002H256.124L255.66 60.3632Z" fill="white"/>
<path d="M156.393 41.3678C156.467 40.5885 156.837 39.8671 157.426 39.3522C158.016 38.8372 158.78 38.568 159.563 38.5998C159.984 38.574 160.406 38.652 160.791 38.827C161.176 39.0019 161.512 39.2684 161.77 39.6032L160.732 40.4751C160.599 40.2805 160.421 40.1217 160.212 40.0131C160.003 39.9044 159.77 39.8491 159.535 39.8523C159.119 39.8429 158.717 39.9972 158.414 40.282C158.111 40.5668 157.932 40.9592 157.916 41.3747C157.881 41.5674 157.89 41.7656 157.943 41.9542C157.996 42.1429 158.091 42.317 158.221 42.4636C158.35 42.6102 158.512 42.7254 158.693 42.8005C158.874 42.8756 159.069 42.9086 159.265 42.8971C159.517 42.8937 159.765 42.8356 159.992 42.7268C160.219 42.6181 160.419 42.4613 160.58 42.2674L161.459 43.1393C161.157 43.4679 160.789 43.7276 160.378 43.9008C159.967 44.0739 159.524 44.1564 159.078 44.1427C158.71 44.1753 158.338 44.1251 157.992 43.9959C157.645 43.8666 157.331 43.6615 157.074 43.3955C156.817 43.1296 156.622 42.8095 156.504 42.4587C156.386 42.1078 156.348 41.7351 156.393 41.3678Z" fill="white"/>
<path d="M165.608 42.994H163.359L162.847 44.032H161.311L164.127 38.7036H165.615L167.504 44.032H165.94L165.608 42.994ZM165.269 41.8799L164.729 40.1776L163.899 41.8799H165.269Z" fill="white"/>
<path d="M168.401 38.7036H169.91L169.55 42.8556H172.089L171.986 44.0528H167.938L168.401 38.7036Z" fill="white"/>
<path d="M176.957 42.8626L176.853 44.032H172.576L173.04 38.7036H177.192L177.088 39.8662H174.403L174.327 40.7658H176.694L176.597 41.8868H174.23L174.14 42.8626H176.957Z" fill="white"/>
<path d="M183.229 38.7036L182.765 44.032H181.52L179.444 41.1879L179.195 44.032H177.721L178.184 38.7036H179.43L181.506 41.5408L181.755 38.7036H183.229Z" fill="white"/>
<path d="M184.294 38.7036H186.841C188.605 38.7036 189.726 39.7278 189.609 41.3678C189.491 43.0079 188.162 44.032 186.398 44.032H183.879L184.294 38.7036ZM186.37 42.8556C186.575 42.8707 186.78 42.8445 186.975 42.7788C187.169 42.7131 187.348 42.6091 187.502 42.4731C187.655 42.337 187.78 42.1715 187.868 41.9864C187.957 41.8014 188.007 41.6004 188.017 41.3955C188.049 41.2029 188.036 41.0054 187.979 40.8186C187.922 40.6318 187.823 40.4607 187.689 40.3186C187.555 40.1766 187.39 40.0675 187.207 39.9998C187.024 39.9321 186.827 39.9077 186.633 39.9285H185.685L185.429 42.8556H186.37Z" fill="white"/>
<path d="M193.7 42.994H191.451L190.939 44.032H189.402L192.219 38.7036H193.707L195.596 44.032H194.032L193.7 42.994ZM193.361 41.8799L192.821 40.1776L191.99 41.8799H193.361Z" fill="white"/>
<path d="M198.471 42.6134H197.655L197.53 43.9974H196.021L196.485 38.669H198.921C200.374 38.669 201.225 39.4163 201.115 40.6412C201.091 41.0042 200.968 41.3535 200.757 41.6504C200.547 41.9473 200.259 42.18 199.924 42.3227L200.928 43.9974H199.295L198.471 42.6134ZM198.727 39.8869H197.911L197.772 41.4508H198.603C199.232 41.4508 199.565 41.1602 199.606 40.6758C199.648 40.1914 199.35 39.8869 198.727 39.8869Z" fill="white"/>
<path d="M101.725 43.1047H101.033C100.892 43.1075 100.752 43.0801 100.622 43.0246C100.492 42.969 100.376 42.8864 100.28 42.7824C100.185 42.6784 100.112 42.5552 100.068 42.4211C100.024 42.2869 100.008 42.1449 100.023 42.0044L100.085 41.3124C100.116 41.0144 100.254 40.7378 100.475 40.535C100.696 40.3322 100.983 40.2174 101.282 40.2122H101.974C102.116 40.2094 102.256 40.2368 102.386 40.2923C102.516 40.3479 102.632 40.4304 102.728 40.5345C102.823 40.6385 102.896 40.7617 102.94 40.8958C102.984 41.0299 103 41.172 102.985 41.3124L102.922 42.0044C102.892 42.3025 102.753 42.5791 102.533 42.7819C102.312 42.9846 102.025 43.0995 101.725 43.1047Z" fill="white"/>
<path d="M106.084 43.1047H105.392C105.251 43.1076 105.112 43.0803 104.982 43.0247C104.852 42.969 104.736 42.8864 104.641 42.7822C104.546 42.678 104.475 42.5547 104.431 42.4206C104.388 42.2864 104.373 42.1446 104.389 42.0045L104.451 41.3125C104.482 41.0144 104.62 40.7378 104.841 40.535C105.062 40.3323 105.349 40.2174 105.648 40.2122H106.34C106.481 40.2093 106.621 40.2366 106.751 40.2922C106.881 40.3479 106.997 40.4306 107.092 40.5347C107.187 40.6389 107.258 40.7622 107.302 40.8963C107.345 41.0305 107.36 41.1723 107.344 41.3125L107.289 42.0045C107.257 42.3031 107.116 42.5798 106.895 42.7824C106.673 42.9851 106.385 43.0997 106.084 43.1047Z" fill="white"/>
<path d="M110.424 43.1047H109.732C109.591 43.1076 109.451 43.0803 109.322 43.0247C109.192 42.969 109.076 42.8864 108.981 42.7822C108.886 42.678 108.814 42.5547 108.771 42.4206C108.727 42.2864 108.713 42.1446 108.729 42.0045L108.791 41.3125C108.82 41.015 108.957 40.7385 109.177 40.5356C109.396 40.3327 109.683 40.2176 109.981 40.2122H110.673C110.814 40.2093 110.954 40.2366 111.084 40.2922C111.213 40.3479 111.33 40.4306 111.425 40.5347C111.52 40.6389 111.591 40.7622 111.635 40.8963C111.678 41.0305 111.693 41.1723 111.677 41.3125L111.615 42.0045C111.586 42.302 111.449 42.5785 111.229 42.7814C111.01 42.9842 110.723 43.0993 110.424 43.1047Z" fill="white"/>
<path d="M220.003 131.999L219.913 132.989H216.453L216.522 132.207L218.315 130.657C218.695 130.324 218.764 130.124 218.785 129.965C218.785 129.674 218.633 129.508 218.252 129.508C218.09 129.507 217.929 129.546 217.785 129.621C217.64 129.695 217.516 129.804 217.422 129.937L216.543 129.418C216.758 129.116 217.046 128.872 217.38 128.71C217.713 128.548 218.082 128.473 218.453 128.491C219.47 128.491 220.128 129.017 220.058 129.84C220.02 130.12 219.921 130.389 219.77 130.628C219.618 130.866 219.417 131.07 219.18 131.224L218.28 131.999H220.003Z" fill="#263238"/>
<path d="M223.812 131.605C223.743 132.359 223.086 133.079 221.736 133.079C221.146 133.091 220.564 132.94 220.055 132.643L220.594 131.701C220.948 131.941 221.365 132.069 221.792 132.068C222.214 132.068 222.484 131.902 222.532 131.605C222.58 131.307 222.373 131.176 221.895 131.176H221.369L221.439 130.38L222.304 129.529H220.553L220.643 128.56H223.84L223.771 129.349L222.767 130.331C222.92 130.344 223.069 130.388 223.205 130.459C223.341 130.531 223.461 130.629 223.559 130.747C223.656 130.866 223.729 131.003 223.772 131.15C223.816 131.297 223.829 131.452 223.812 131.605Z" fill="#263238"/>
<path d="M253.944 76.7913H235.246L235.308 76.0993H254.006L253.944 76.7913Z" fill="white"/>
<path d="M244.315 79.9122H234.973L235.028 79.2202H244.377L244.315 79.9122Z" fill="white"/>
<path d="M249.45 128.103H230.752L230.814 127.411H249.512L249.45 128.103Z" fill="white"/>
<path d="M239.835 131.231H230.486L230.542 130.539H239.891L239.835 131.231Z" fill="white"/>
<path d="M251.715 102.278H233.018L233.073 101.586H251.771L251.715 102.278Z" fill="white"/>
<path d="M242.089 105.399H232.74L232.803 104.707H242.151L242.089 105.399Z" fill="white"/>
<path d="M254.124 71.7743C254.532 70.7916 254.269 70.0789 255.238 70.0789C256.207 70.0789 255.715 70.7709 256.061 71.7743C256.241 72.2656 255.591 72.1756 255.058 72.1756C254.525 72.1756 253.909 72.2794 254.124 71.7743Z" fill="white"/>
<path d="M255.208 70.3972C255.167 70.3973 255.127 70.389 255.09 70.3727C255.053 70.3564 255.019 70.3325 254.992 70.3025C254.965 70.2725 254.944 70.2371 254.931 70.1986C254.918 70.1601 254.913 70.1193 254.917 70.0788C254.927 69.9931 254.968 69.9138 255.031 69.8554C255.095 69.7969 255.177 69.7633 255.263 69.7605C255.304 69.7592 255.345 69.7668 255.383 69.7827C255.42 69.7986 255.454 69.8226 255.482 69.8528C255.51 69.883 255.53 69.9189 255.543 69.9579C255.555 69.9969 255.559 70.0382 255.554 70.0788C255.547 70.1657 255.507 70.2468 255.443 70.3058C255.379 70.3648 255.295 70.3974 255.208 70.3972ZM255.249 69.9266C255.208 69.928 255.169 69.9441 255.138 69.972C255.108 69.9999 255.088 70.0378 255.083 70.0788C255.081 70.0981 255.084 70.1176 255.09 70.1361C255.096 70.1545 255.106 70.1714 255.119 70.1858C255.132 70.2001 255.148 70.2116 255.165 70.2194C255.183 70.2272 255.202 70.2312 255.222 70.2311C255.263 70.2297 255.303 70.2136 255.333 70.1857C255.363 70.1578 255.383 70.1199 255.388 70.0788C255.39 70.0595 255.388 70.04 255.382 70.0216C255.376 70.0032 255.366 69.9863 255.353 69.9719C255.34 69.9575 255.324 69.9461 255.306 69.9383C255.288 69.9305 255.269 69.9265 255.249 69.9266Z" fill="white"/>
<path d="M251.888 97.5721C252.297 96.5894 252.034 95.8836 253.002 95.8836C253.971 95.8836 253.48 96.5756 253.826 97.5721C254.006 98.0634 253.355 97.9803 252.822 97.9803C252.29 97.9803 251.653 98.0634 251.888 97.5721Z" fill="white"/>
<path d="M252.956 96.1881C252.915 96.1883 252.875 96.1799 252.838 96.1636C252.801 96.1473 252.767 96.1234 252.74 96.0934C252.713 96.0634 252.692 96.028 252.679 95.9895C252.666 95.951 252.662 95.9102 252.665 95.8697C252.674 95.7834 252.714 95.7033 252.778 95.6446C252.841 95.5859 252.925 95.5527 253.011 95.5514C253.052 95.5501 253.093 95.5577 253.131 95.5736C253.169 95.5896 253.202 95.6134 253.23 95.6437C253.258 95.6739 253.278 95.7098 253.291 95.7488C253.303 95.7879 253.307 95.8291 253.302 95.8697C253.294 95.956 253.254 96.0362 253.19 96.0949C253.126 96.1536 253.043 96.1868 252.956 96.1881ZM252.998 95.7175C252.956 95.7189 252.917 95.735 252.886 95.7629C252.856 95.7908 252.836 95.8287 252.831 95.8697C252.83 95.889 252.832 95.9086 252.838 95.927C252.844 95.9454 252.854 95.9623 252.867 95.9767C252.88 95.991 252.896 96.0025 252.914 96.0103C252.931 96.0181 252.95 96.0221 252.97 96.022C253.011 96.0206 253.051 96.0045 253.081 95.9766C253.112 95.9487 253.131 95.9108 253.136 95.8697C253.139 95.8499 253.138 95.8297 253.132 95.8104C253.126 95.7911 253.117 95.7733 253.104 95.7582C253.09 95.743 253.074 95.7309 253.056 95.7227C253.037 95.7145 253.018 95.7104 252.998 95.7106V95.7175Z" fill="white"/>
<path d="M249.612 123.335C250.02 122.353 249.757 121.64 250.726 121.64C251.695 121.64 251.204 122.332 251.55 123.335C251.73 123.82 251.079 123.737 250.546 123.737C250.014 123.737 249.398 123.868 249.612 123.335Z" fill="white"/>
<path d="M250.698 121.958C250.658 121.958 250.617 121.95 250.58 121.934C250.543 121.917 250.51 121.893 250.482 121.863C250.455 121.833 250.434 121.798 250.421 121.76C250.408 121.721 250.404 121.68 250.408 121.64C250.417 121.554 250.458 121.475 250.521 121.416C250.585 121.358 250.667 121.324 250.754 121.321C250.795 121.32 250.835 121.328 250.873 121.344C250.911 121.36 250.945 121.383 250.972 121.414C251 121.444 251.021 121.48 251.033 121.519C251.045 121.558 251.049 121.599 251.044 121.64C251.036 121.726 250.996 121.806 250.932 121.865C250.868 121.924 250.785 121.957 250.698 121.958ZM250.74 121.488C250.698 121.489 250.659 121.505 250.629 121.533C250.598 121.561 250.579 121.599 250.574 121.64C250.572 121.659 250.574 121.679 250.58 121.697C250.586 121.715 250.596 121.732 250.609 121.747C250.622 121.761 250.638 121.773 250.656 121.78C250.673 121.788 250.693 121.792 250.712 121.792C250.754 121.792 250.794 121.777 250.825 121.748C250.856 121.72 250.875 121.681 250.878 121.64C250.88 121.62 250.878 121.601 250.872 121.583C250.866 121.564 250.856 121.547 250.843 121.533C250.83 121.518 250.814 121.507 250.796 121.499C250.778 121.491 250.759 121.487 250.74 121.488Z" fill="white"/>
<path opacity="0.2" d="M108.533 24.9882L72.6523 159.188H84.7277L120.214 24.9882H108.533Z" fill="white"/>
<path opacity="0.2" d="M127.159 24.9882L91.2793 159.188H115.222L150.708 24.9882H127.159Z" fill="white"/>
<path opacity="0.4" d="M85.6454 90.6939C86.2959 87.9377 84.5889 85.176 81.8327 84.5254C79.0765 83.8749 76.3147 85.5819 75.6642 88.3381C75.0137 91.0944 76.7207 93.8561 79.4769 94.5066C82.2332 95.1572 84.9949 93.4501 85.6454 90.6939Z" fill="white"/>
<path opacity="0.4" d="M269.486 89.524C269.486 90.0321 269.335 90.5288 269.053 90.9511C268.771 91.3734 268.369 91.7025 267.9 91.8966C267.43 92.0907 266.914 92.1411 266.415 92.0415C265.917 91.9419 265.46 91.6967 265.101 91.337C264.742 90.9772 264.498 90.5191 264.4 90.0207C264.302 89.5222 264.354 89.0058 264.549 88.5368C264.744 88.0678 265.074 87.6673 265.498 87.386C265.921 87.1048 266.418 86.9554 266.926 86.9567C267.263 86.9567 267.596 87.0232 267.907 87.1523C268.218 87.2814 268.501 87.4706 268.739 87.7091C268.977 87.9476 269.165 88.2307 269.293 88.5421C269.422 88.8535 269.487 89.1872 269.486 89.524Z" fill="white"/>
<path d="M233.69 44.0804C233.665 44.3253 233.551 44.5525 233.37 44.7195C233.189 44.8864 232.953 44.9815 232.707 44.9869C232.592 44.9886 232.477 44.9657 232.37 44.9196C232.264 44.8734 232.169 44.8053 232.091 44.7195C232.013 44.6338 231.954 44.5324 231.919 44.4223C231.883 44.3121 231.871 44.1955 231.884 44.0804C231.909 43.8362 232.023 43.6098 232.204 43.444C232.385 43.2782 232.621 43.1846 232.867 43.1808C232.982 43.1781 233.097 43.2002 233.203 43.2455C233.309 43.2908 233.405 43.3584 233.483 43.4436C233.561 43.5288 233.619 43.6297 233.655 43.7395C233.691 43.8494 233.703 43.9656 233.69 44.0804Z" fill="white"/>
<path d="M234.684 41.3955L234.248 42.1359C233.748 41.9199 233.208 41.8138 232.663 41.8245C232.17 41.8233 231.683 41.932 231.238 42.1428L230.885 41.4024C231.48 41.1261 232.128 40.983 232.784 40.983C233.44 40.983 234.089 41.1261 234.684 41.4024V41.3955Z" fill="white"/>
<path d="M235.909 39.3057L235.466 40.053C234.638 39.6639 233.73 39.4743 232.815 39.4994C231.93 39.5 231.056 39.7036 230.262 40.0945L229.916 39.361C230.84 38.9016 231.859 38.6646 232.892 38.669C233.934 38.6369 234.968 38.8552 235.909 39.3057Z" fill="white"/>
<path d="M237.142 37.1812L236.699 37.9493C235.54 37.3824 234.258 37.1159 232.969 37.1743C231.686 37.1627 230.418 37.4518 229.267 38.0185L228.928 37.3265C230.207 36.6912 231.617 36.3619 233.045 36.3646C234.457 36.2961 235.864 36.5765 237.142 37.1812Z" fill="white"/>
<path d="M249.368 45.1323C248.799 45.1414 248.234 45.0294 247.711 44.8037C247.188 44.578 246.719 44.2437 246.334 43.823C245.95 43.4023 245.66 42.9048 245.483 42.3634C245.306 41.822 245.245 41.2491 245.306 40.6827C245.431 39.4775 245.993 38.3596 246.885 37.54C247.777 36.7203 248.939 36.2555 250.15 36.2332V36.4269C248.993 36.4481 247.883 36.893 247.031 37.6772C246.179 38.4615 245.644 39.5308 245.528 40.6827C245.469 41.2244 245.526 41.7723 245.695 42.2903C245.864 42.8082 246.141 43.2842 246.508 43.6868C246.875 44.0893 247.324 44.4091 247.824 44.6249C248.325 44.8407 248.865 44.9476 249.41 44.9385L249.368 45.1323Z" fill="white"/>
<path d="M249.527 45.3053H249.354C248.761 45.3191 248.172 45.2056 247.626 44.9725C247.081 44.7394 246.591 44.3922 246.191 43.9542C245.792 43.5162 245.49 42.9976 245.307 42.4333C245.125 41.869 245.065 41.2721 245.132 40.6828C245.264 39.4316 245.847 38.2714 246.774 37.4202C247.7 36.569 248.905 36.0854 250.163 36.0602H250.336L250.288 36.6H250.115C249.004 36.6212 247.94 37.0483 247.123 37.8004C246.306 38.5526 245.792 39.5779 245.679 40.6828C245.622 41.2024 245.676 41.7281 245.838 42.2251C246 42.7221 246.266 43.179 246.618 43.5652C246.97 43.9515 247.401 44.2583 247.881 44.4652C248.361 44.6722 248.879 44.7746 249.402 44.7656H249.575L249.527 45.3053Z" fill="white"/>
<path d="M249.369 45.1323V44.9385C250.527 44.9173 251.637 44.4725 252.488 43.6883C253.34 42.904 253.875 41.8347 253.992 40.6827C254.051 40.1411 253.994 39.5931 253.825 39.0752C253.656 38.5573 253.378 38.0812 253.011 37.6787C252.644 37.2762 252.195 36.9564 251.695 36.7406C251.195 36.5248 250.654 36.4178 250.11 36.4269V36.2332C250.679 36.2228 251.245 36.334 251.768 36.5594C252.291 36.7848 252.76 37.1192 253.144 37.5403C253.528 37.9614 253.817 38.4596 253.993 39.0014C254.169 39.5433 254.228 40.1165 254.165 40.6827C254.042 41.8804 253.488 42.9926 252.606 43.8115C251.723 44.6303 250.573 45.0999 249.369 45.1323Z" fill="white"/>
<path d="M249.355 45.3053H249.182L249.23 44.7655H249.403C250.514 44.7442 251.578 44.3172 252.395 43.5651C253.212 42.8129 253.726 41.7876 253.839 40.6827C253.896 40.1631 253.842 39.6373 253.68 39.1403C253.518 38.6433 253.252 38.1865 252.9 37.8003C252.547 37.414 252.117 37.1072 251.637 36.9003C251.157 36.6933 250.638 36.5909 250.116 36.5999H249.943L249.991 36.0602H250.164C250.757 36.0474 251.345 36.1617 251.89 36.3952C252.434 36.6287 252.922 36.976 253.322 37.4139C253.721 37.8518 254.022 38.3701 254.204 38.9339C254.386 39.4977 254.446 40.094 254.379 40.6827C254.25 41.9339 253.669 43.0948 252.743 43.9464C251.817 44.7981 250.612 45.2814 249.355 45.3053Z" fill="white"/>
<path d="M252.033 40.6827H251.84C251.964 39.2434 251.404 37.3127 250.082 36.4131L250.2 36.247C251.577 37.1881 252.165 39.188 252.033 40.6827Z" fill="white"/>
<path d="M252.193 40.828H251.653V40.655C251.771 39.271 251.231 37.3957 249.958 36.503L249.826 36.4131L250.158 35.9563L250.29 36.0463C251.715 37.0151 252.366 39.0842 252.193 40.6273V40.828Z" fill="white"/>
<path d="M249.439 44.98L249.342 44.814C250.043 44.3251 250.629 43.6903 251.062 42.9534C251.494 42.2164 251.762 41.3946 251.847 40.5443H252.048C251.957 41.4277 251.677 42.2812 251.227 43.0467C250.777 43.8121 250.167 44.4715 249.439 44.98Z" fill="white"/>
<path d="M249.36 45.2223L249.111 44.7655L249.264 44.6756C249.942 44.1995 250.509 43.5816 250.925 42.8646C251.34 42.1477 251.595 41.3489 251.672 40.5236V40.3506H252.211V40.5236C252.117 41.437 251.827 42.3193 251.36 43.1099C250.893 43.9006 250.26 44.581 249.506 45.1046L249.36 45.2223Z" fill="white"/>
<path d="M247.68 40.6827H247.486C247.576 39.799 247.855 38.945 248.305 38.1793C248.756 37.4137 249.366 36.7545 250.095 36.247L250.185 36.4131C249.486 36.9033 248.9 37.5384 248.468 38.2751C248.035 39.0118 247.767 39.833 247.68 40.6827Z" fill="white"/>
<path d="M247.839 40.828H247.299V40.655C247.392 39.742 247.681 38.86 248.147 38.0693C248.613 37.2786 249.244 36.5979 249.998 36.074L250.15 35.984L250.406 36.4407L250.254 36.5307C249.575 37.0068 249.007 37.6246 248.59 38.3414C248.173 39.0583 247.917 39.8571 247.839 40.6827V40.828Z" fill="white"/>
<path d="M249.329 44.98C247.945 44.0389 247.371 42.039 247.495 40.5443H247.696C247.571 41.9837 248.132 43.9144 249.453 44.814L249.329 44.98Z" fill="white"/>
<path d="M249.364 45.2223L249.225 45.1323C247.8 44.1635 247.191 42.0944 247.322 40.5513V40.3783H247.862V40.5513C247.737 41.9353 248.277 43.8106 249.55 44.7033L249.689 44.7932L249.364 45.2223Z" fill="white"/>
<path d="M249.471 45.0354H249.277L250.039 36.33H250.239L249.471 45.0354Z" fill="white"/>
<path d="M249.632 45.2084H249.092L249.888 36.157H250.427L249.632 45.2084Z" fill="white"/>
<path d="M253.637 38.4614H246.268L246.288 38.2677H253.651L253.637 38.4614Z" fill="white"/>
<path d="M253.798 38.6344H246.082L246.13 38.0946H253.839L253.798 38.6344Z" fill="white"/>
<path d="M254.097 40.8557H245.398L245.412 40.6619H254.111L254.097 40.8557Z" fill="white"/>
<path d="M254.253 41.0287H245.201L245.25 40.4889H254.301L254.253 41.0287Z" fill="white"/>
<path d="M253.12 43.2431H245.951L245.965 43.0493H253.141L253.12 43.2431Z" fill="white"/>
<path d="M253.28 43.4161H245.758L245.806 42.8764H253.328L253.28 43.4161Z" fill="white"/>
<path d="M171.297 246.2L176.217 242.117L163.803 230.332L158.502 234.858L171.297 246.2Z" fill="#CB7A63"/>
<path d="M180.216 240.539C179.653 240.37 179.05 240.399 178.506 240.622C178.174 240.719 177.814 240.83 177.524 240.948C177.233 241.065 177.06 241.121 176.88 241.197L176.327 241.439C176.297 241.45 176.271 241.47 176.252 241.496C176.234 241.521 176.224 241.552 176.223 241.584C176.215 241.607 176.215 241.631 176.223 241.653C176.248 241.69 176.284 241.717 176.327 241.729C177.027 241.915 177.742 242.036 178.465 242.089C178.817 242.137 179.175 242.111 179.517 242.013H179.565C179.76 241.95 179.948 241.867 180.126 241.764C180.238 241.672 180.327 241.554 180.383 241.42C180.44 241.286 180.463 241.141 180.451 240.996C180.454 240.906 180.434 240.817 180.393 240.737C180.352 240.657 180.291 240.589 180.216 240.539ZM180.146 240.989C180.162 241.087 180.15 241.187 180.112 241.279C180.074 241.37 180.012 241.45 179.932 241.508C179.767 241.63 179.574 241.708 179.371 241.736C179.093 241.787 178.809 241.801 178.527 241.778C178.088 241.756 177.651 241.703 177.219 241.619L176.894 241.55C177.48 241.27 178.095 241.056 178.728 240.913C179.065 240.831 179.407 240.773 179.752 240.74C179.856 240.737 179.959 240.763 180.049 240.816C180.079 240.835 180.103 240.86 180.12 240.89C180.137 240.92 180.146 240.954 180.146 240.989Z" fill="#407BFF"/>
<path d="M177.954 237.944C177.796 237.97 177.644 238.028 177.51 238.115C177.375 238.202 177.26 238.316 177.172 238.449C177.116 238.532 177.07 238.62 177.033 238.712C176.763 239.512 176.711 240.37 176.881 241.197V241.231C176.885 241.26 176.897 241.286 176.915 241.309C176.934 241.331 176.958 241.347 176.985 241.356C177 241.363 177.017 241.366 177.033 241.366C177.05 241.366 177.067 241.363 177.082 241.356C177.106 241.353 177.129 241.34 177.144 241.321C177.277 241.203 177.402 241.076 177.518 240.941C177.737 240.681 177.934 240.403 178.106 240.11C178.535 239.418 178.84 238.629 178.653 238.221C178.584 238.048 178.404 237.868 177.954 237.944ZM178.369 238.353C178.487 238.622 178.251 239.238 177.905 239.847C177.695 240.219 177.444 240.567 177.158 240.885C177.062 240.26 177.095 239.622 177.255 239.01C177.295 238.877 177.356 238.751 177.435 238.636C177.547 238.466 177.716 238.341 177.912 238.283H178.009C178.3 238.214 178.355 238.325 178.369 238.353Z" fill="#407BFF"/>
<path d="M175.58 241.819L169.393 244.968C169.275 245.024 169.181 245.12 169.128 245.239C169.074 245.359 169.066 245.493 169.103 245.619L170.93 251.411C170.973 251.548 171.044 251.675 171.138 251.785C171.232 251.895 171.347 251.984 171.476 252.049C171.605 252.113 171.745 252.151 171.889 252.16C172.033 252.17 172.178 252.15 172.314 252.103L172.424 252.061C183.019 248.331 186.264 245.695 187.379 245.093C190.534 243.369 188.763 241.134 187.579 241.411C182.292 242.677 180.521 242.352 178.23 241.764C177.355 241.572 176.446 241.591 175.58 241.819Z" fill="#263238"/>
<path opacity="0.2" d="M163.803 230.339L170.093 235.91L164.792 240.435L158.502 234.865L163.803 230.339Z" fill="black"/>
<path d="M161.852 240.394L169.754 233.1L168.017 230.042L158.869 237.896L161.852 240.394Z" fill="#407BFF"/>
<path d="M166.771 231.128L165.713 232.041L164.135 233.425L163.187 234.235L160.419 236.602L159.886 237.058C159.886 237.058 148.62 230.713 142.351 225.294C138.053 221.578 137.666 220.201 137.209 220.547C131.154 225.156 113.231 241.086 103.066 249.376C102.741 249.418 102.408 249.445 102.076 249.473C96.651 249.867 92.3882 249.279 89.0666 248.013C89.032 243.605 92.7965 233.315 93.1079 232.318C93.1079 232.318 108.097 217.413 132.393 204.804C132.628 204.687 132.877 204.583 133.126 204.479C133.375 204.375 133.756 204.209 134.074 204.098C135.263 203.624 136.52 203.339 137.797 203.254C138.874 203.211 139.948 203.381 140.96 203.752C141.538 203.956 142.1 204.204 142.641 204.493C143.117 204.741 143.579 205.013 144.025 205.309C144.773 205.787 145.499 206.32 146.191 206.846C147.741 208.043 159.478 223.156 165.789 230.132C166.155 230.436 166.467 230.803 166.771 231.128Z" fill="#407BFF"/>
<path d="M166.771 231.128L165.713 232.041L164.135 233.425L163.187 234.235L160.419 236.602L159.886 237.058C159.886 237.058 148.62 230.713 142.351 225.294C138.053 221.578 137.666 220.201 137.209 220.547C131.154 225.156 113.231 241.086 103.066 249.376C102.741 249.418 102.408 249.445 102.076 249.473C96.651 249.867 92.3882 249.279 89.0666 248.013C89.032 243.605 92.7965 233.315 93.1079 232.318C93.1079 232.318 108.097 217.413 132.393 204.804C132.628 204.687 132.877 204.583 133.126 204.479C133.375 204.375 133.756 204.209 134.074 204.098C135.263 203.624 136.52 203.339 137.797 203.254C138.874 203.211 139.948 203.381 140.96 203.752C141.538 203.956 142.1 204.204 142.641 204.493C143.117 204.741 143.579 205.013 144.025 205.309C144.773 205.787 145.499 206.32 146.191 206.846C147.741 208.043 159.478 223.156 165.789 230.132C166.155 230.436 166.467 230.803 166.771 231.128Z" fill="black"/>
<path d="M174.134 249.3L179.469 244.096L169.145 231.128L162.695 234.934L174.134 249.3Z" fill="#CB7A63"/>
<path d="M184.917 242.498C184.322 242.29 183.111 242.954 182.149 243.542L181.533 243.951L181.436 244.02L181.021 244.318C180.99 244.335 180.966 244.362 180.952 244.394C180.938 244.427 180.936 244.463 180.945 244.497C180.954 244.532 180.973 244.562 181.001 244.585C181.028 244.607 181.062 244.62 181.097 244.622C181.734 244.646 182.373 244.625 183.007 244.56L183.422 244.511C183.882 244.478 184.326 244.325 184.709 244.068C184.844 243.979 184.971 243.88 185.09 243.771C185.19 243.651 185.258 243.507 185.289 243.354C185.319 243.2 185.31 243.041 185.263 242.892C185.239 242.804 185.195 242.723 185.135 242.655C185.075 242.587 185.001 242.533 184.917 242.498ZM184.917 242.989C184.953 243.089 184.961 243.197 184.942 243.301C184.922 243.406 184.876 243.503 184.806 243.584C184.52 243.867 184.152 244.051 183.754 244.11C183.286 244.219 182.809 244.284 182.329 244.304C182.107 244.304 181.872 244.304 181.637 244.304L181.865 244.124L182.031 244.006C182.773 243.485 183.59 243.079 184.453 242.802C184.559 242.771 184.672 242.771 184.778 242.802C184.824 242.808 184.867 242.83 184.898 242.865C184.93 242.899 184.949 242.943 184.951 242.989H184.917Z" fill="#407BFF"/>
<path d="M181.955 240.297C181.799 240.359 181.656 240.452 181.537 240.571C181.418 240.69 181.325 240.832 181.263 240.989C180.827 242.055 181.471 243.688 181.581 243.944C181.593 243.972 181.612 243.996 181.637 244.014C181.661 244.033 181.69 244.044 181.72 244.048C181.754 244.058 181.79 244.058 181.824 244.048C181.836 244.046 181.847 244.042 181.857 244.034C181.867 244.027 181.874 244.017 181.879 244.006C181.99 243.859 182.088 243.701 182.17 243.536C182.682 242.574 183.159 240.968 182.744 240.415C182.633 240.262 182.405 240.124 181.955 240.297ZM181.782 243.556C181.595 243.01 181.263 241.854 181.568 241.134C181.645 240.929 181.795 240.759 181.99 240.657L182.08 240.608C182.377 240.491 182.453 240.608 182.481 240.608C182.779 241.037 182.322 242.671 181.782 243.584V243.556Z" fill="#407BFF"/>
<path opacity="0.2" d="M168.605 230.332L173.463 236.553L166.889 240.214L161.955 234.159L168.605 230.332Z" fill="black"/>
<path d="M172.681 233.114L171.332 233.875L169.013 235.183L166.937 236.346L164.799 237.55L164.003 238.048L163.491 237.674L163.055 237.356C162.543 236.975 161.837 236.443 160.979 235.792C156.682 232.394 149.035 225.724 146.759 219.655C145.285 221.412 143.569 223.654 141.506 226.042C125.466 244.664 108.332 257.791 84.804 252.137C74.5832 249.681 74.9707 235.529 74.9707 235.529C74.9707 230.18 78.9358 224.679 78.9358 224.679L110.235 227.108C114.567 221.848 123.245 213.614 132.123 208.424C132.331 208.292 132.545 208.167 132.76 208.057C132.974 207.946 133.292 207.752 133.555 207.607C136.232 206.092 139.093 204.929 142.067 204.147C142.676 204.002 143.278 203.87 143.866 203.787C144.476 203.694 145.091 203.634 145.707 203.607C149.914 203.413 153.568 204.991 156.045 209.178L172.217 232.484L172.681 233.114Z" fill="#407BFF"/>
<path opacity="0.5" d="M172.681 233.114L171.332 233.875L169.013 235.183L166.937 236.346L164.799 237.55L164.003 238.048L163.491 237.674L163.055 237.356C162.543 236.975 161.837 236.443 160.979 235.792C156.682 232.394 149.035 225.724 146.759 219.655C145.285 221.412 143.569 223.654 141.506 226.042C125.466 244.664 108.332 257.791 84.804 252.137C74.5832 249.681 74.9707 235.529 74.9707 235.529C74.9707 230.18 78.9358 224.679 78.9358 224.679L110.235 227.108C114.567 221.848 123.245 213.614 132.123 208.424C132.331 208.292 132.545 208.167 132.76 208.057C132.974 207.946 133.292 207.752 133.555 207.607C136.232 206.092 139.093 204.929 142.067 204.147C142.676 204.002 143.278 203.87 143.866 203.787C144.476 203.694 145.091 203.634 145.707 203.607C149.914 203.413 153.568 204.991 156.045 209.178L172.217 232.484L172.681 233.114Z" fill="black"/>
<path d="M162.676 239.501L173.014 234.332L172.129 230.657L160.344 236.034L162.676 239.501Z" fill="#407BFF"/>
<path d="M179.052 243.536L171.925 245.695C171.79 245.733 171.672 245.818 171.594 245.934C171.515 246.051 171.481 246.192 171.496 246.331L172.361 252.795C172.413 253.096 172.582 253.366 172.83 253.545C173.078 253.725 173.386 253.801 173.689 253.756H173.814C185.716 251.77 189.647 249.604 190.927 249.148C194.588 247.909 193.121 245.217 191.827 245.293C185.993 245.653 184.18 244.982 181.869 243.909C180.975 243.555 180.008 243.427 179.052 243.536Z" fill="#263238"/>
<path d="M143.284 209.745H121.14C120.994 209.748 120.85 209.72 120.716 209.662C120.582 209.605 120.462 209.52 120.364 209.412C120.266 209.305 120.192 209.178 120.146 209.04C120.101 208.901 120.086 208.755 120.102 208.61L121.333 194.452C121.364 194.145 121.506 193.859 121.733 193.65C121.96 193.441 122.257 193.322 122.565 193.317H144.709C144.855 193.314 144.999 193.343 145.133 193.4C145.267 193.457 145.387 193.543 145.485 193.65C145.583 193.757 145.657 193.884 145.703 194.023C145.748 194.161 145.763 194.307 145.747 194.452L144.509 208.617C144.475 208.922 144.333 209.204 144.108 209.411C143.882 209.618 143.59 209.737 143.284 209.745Z" fill="#263238"/>
<path opacity="0.9" d="M143.288 208.631H122.051L123.303 194.376H144.534L143.288 208.631Z" fill="white"/>
<path opacity="0.4" d="M122.365 200.901C122.365 201.026 122.328 201.148 122.258 201.252C122.189 201.356 122.09 201.436 121.975 201.484C121.859 201.531 121.732 201.543 121.61 201.518C121.487 201.494 121.375 201.433 121.287 201.344C121.2 201.255 121.14 201.143 121.117 201.02C121.093 200.897 121.107 200.771 121.155 200.656C121.204 200.541 121.286 200.443 121.39 200.374C121.495 200.306 121.617 200.27 121.742 200.272C121.824 200.272 121.906 200.288 121.982 200.32C122.058 200.352 122.127 200.398 122.185 200.457C122.243 200.515 122.289 200.585 122.32 200.661C122.35 200.737 122.366 200.819 122.365 200.901Z" fill="black"/>
<path opacity="0.4" d="M144.902 200.583C144.902 200.645 144.884 200.705 144.85 200.756C144.815 200.807 144.767 200.847 144.71 200.871C144.653 200.894 144.59 200.901 144.53 200.889C144.47 200.877 144.414 200.847 144.371 200.803C144.327 200.76 144.297 200.704 144.285 200.644C144.273 200.583 144.279 200.521 144.303 200.464C144.327 200.407 144.366 200.358 144.418 200.324C144.469 200.29 144.529 200.272 144.591 200.272C144.673 200.272 144.752 200.305 144.811 200.363C144.869 200.421 144.902 200.501 144.902 200.583Z" fill="black"/>
<path d="M91.0248 168.848C91.8137 173.18 90.665 178.986 87.6133 181.83C91.0733 188.404 96.2425 194.77 101.093 200.376C107.958 189.359 102.069 182.197 102.069 182.197C97.2598 180.986 97.4051 179.034 98.2839 175.699L91.0248 168.848Z" fill="#CB7A63"/>
<path d="M87.8398 179.955C88.3435 178.842 89.2062 177.931 90.2895 177.367C91.3414 176.751 101.362 177.906 103.818 179.083C105.273 179.755 106.432 180.937 107.077 182.404L87.8398 179.955Z" fill="#407BFF"/>
<path d="M116.069 165.25L120.526 167.326C120.889 168.491 121.016 169.716 120.899 170.931C120.643 172.453 119.958 172.959 117.439 171.907C115.197 169.069 116.069 165.25 116.069 165.25Z" fill="#CB7A63"/>
<path d="M119.023 162.433L119.521 163.499L120.407 164.004C120.636 164.145 120.815 164.355 120.918 164.603C121.021 164.852 121.043 165.126 120.982 165.388L120.518 167.298L116.068 165.222L116.913 163.54C117.688 162.357 118.297 162.018 118.947 162.329L119.023 162.433Z" fill="#CB7A63"/>
<path d="M114.296 190.245C116.849 184.646 117.922 182.024 120.704 171.664L117.008 171.249C113.306 181.152 109.057 185.352 109.057 185.352C109.057 185.352 88.2143 181.844 85.6262 183.069C81.4327 185.048 83.6748 189.373 86.3182 190.466C88.9617 191.559 103.888 194.016 110.794 193.165C111.579 193.019 112.314 192.674 112.927 192.163C113.54 191.651 114.011 190.991 114.296 190.245Z" fill="#CB7A63"/>
<path d="M130.352 166.952L130.337 166.967L130.33 166.959L130.352 166.952Z" fill="black"/>
<path d="M114.608 190.342C118.801 203.898 104.844 205.849 108.38 227.654L78.9629 224.644C80.5891 213.406 84.2844 216.34 81.6894 194.48C81.4679 192.632 81.378 187.387 83.883 182.944C84.8484 181.204 86.3864 179.852 88.2357 179.117C90.547 178.225 99.9997 180.342 104.29 181.193C109.065 181.117 113.95 188.632 114.608 190.342Z" fill="#407BFF"/>
<path d="M108.443 164.274C108.166 164.772 108.221 165.284 108.533 165.457C108.844 165.63 109.315 165.388 109.584 164.904C109.854 164.419 109.806 163.893 109.494 163.72C109.183 163.547 108.706 163.796 108.443 164.274Z" fill="#263238"/>
<path d="M109.336 163.672L110.671 163.976C110.671 163.976 109.585 164.551 109.336 163.672Z" fill="#263238"/>
<path d="M108.526 165.291C108.782 166.607 109.22 167.881 109.827 169.076C109.515 169.221 109.175 169.296 108.83 169.296C108.486 169.296 108.146 169.221 107.834 169.076L108.526 165.291Z" fill="#A02724"/>
<path d="M110.546 160.814C110.598 160.794 110.644 160.762 110.681 160.719C110.717 160.677 110.742 160.626 110.753 160.572C110.77 160.487 110.752 160.4 110.704 160.329C110.656 160.257 110.582 160.208 110.497 160.191C109.996 160.085 109.477 160.101 108.984 160.237C108.49 160.373 108.036 160.625 107.66 160.973C107.623 160.999 107.592 161.033 107.569 161.072C107.546 161.111 107.531 161.154 107.526 161.199C107.52 161.244 107.524 161.289 107.537 161.332C107.551 161.376 107.573 161.416 107.602 161.45C107.631 161.484 107.668 161.512 107.709 161.532C107.749 161.551 107.794 161.562 107.839 161.563C107.884 161.565 107.929 161.556 107.971 161.539C108.013 161.522 108.051 161.497 108.082 161.464L108.124 161.423C108.426 161.154 108.787 160.96 109.177 160.857C109.568 160.753 109.978 160.743 110.373 160.828C110.431 160.841 110.491 160.836 110.546 160.814Z" fill="#263238"/>
<path d="M90.7341 159.444C89.9383 166.149 89.4539 168.973 92.1873 172.986C96.2978 179.02 104.726 178.522 107.501 172.204C110.006 166.495 110.892 156.489 104.879 152.669C103.557 151.818 102.039 151.32 100.47 151.221C98.9008 151.123 97.3327 151.428 95.9148 152.107C94.4969 152.786 93.2764 153.817 92.3696 155.101C91.4627 156.385 90.8997 157.88 90.7341 159.444Z" fill="#CB7A63"/>
<path d="M107.667 171.803C107.169 171.345 106.803 170.762 106.608 170.114C106.601 170.079 106.608 170.042 106.628 170.011C106.647 169.981 106.677 169.958 106.712 169.948C106.746 169.941 106.782 169.948 106.813 169.965C106.844 169.983 106.867 170.012 106.878 170.045C107.053 170.602 107.362 171.108 107.777 171.519L107.667 171.803Z" fill="#263238"/>
<path d="M112.603 157.257C112.617 157.951 112.37 158.624 111.911 159.144C111.453 159.665 110.815 159.994 110.125 160.067C109.226 162.502 106.734 166.218 104.548 164.814C105.821 164.772 108.146 161.886 106.181 159.631C104.742 157.984 102.79 153.659 106.181 152.6C108.804 151.783 112.596 154.6 112.603 157.257Z" fill="#263238"/>
<path d="M106.727 154.524C105.779 150.6 100.126 147.541 96.0911 147.666C92.0568 147.79 88.3477 149.998 85.3928 152.745C83.8566 154.171 82.4241 155.831 81.8775 157.859C81.3308 159.887 81.8775 162.322 83.649 163.464C77.2134 169.81 82.002 172.384 82.957 171.948C83.0954 173.54 82.0089 174.481 80.5488 175.526C79.2479 176.453 78.9226 177.553 78.4728 179.083C78.023 180.612 78.4728 182.543 79.8568 183.235C79.7577 182.998 79.7095 182.743 79.7152 182.486C79.721 182.229 79.7805 181.977 79.8901 181.744C79.9997 181.512 80.1569 181.305 80.3514 181.138C80.5459 180.97 80.7735 180.845 81.0194 180.771C80.6758 181.569 80.581 182.451 80.7476 183.304C80.9141 184.156 81.3341 184.938 81.9526 185.548C82.5711 186.157 83.3593 186.566 84.214 186.72C85.0686 186.874 85.9498 186.766 86.7422 186.411C86.1056 186.252 85.2129 185.629 85.1091 184.979C86.9364 185.761 88.8739 186.256 90.8527 186.446C92.8387 186.522 94.9563 185.878 96.1811 184.314C96.2572 183.179 97.7935 182.044 98.9491 182.086C99.5194 182.123 100.055 182.371 100.453 182.782C100.851 183.192 101.082 183.736 101.101 184.307C102.361 184.03 102.88 182.64 102.949 181.359C102.976 180.676 102.769 180.005 102.361 179.456C102.129 179.184 101.844 178.961 101.525 178.8C101.205 178.64 100.856 178.545 100.499 178.522C99.8853 178.343 99.3661 177.931 99.0529 177.373C98.9338 177.06 98.8999 176.721 98.9546 176.39C99.0093 176.06 99.1507 175.749 99.3643 175.491C104.367 168.35 102.008 163.907 102.34 163.035C102.672 162.163 104.278 163.284 104.278 163.284C105.731 161.451 107.26 156.807 106.727 154.524Z" fill="#263238"/>
<path d="M99.2999 164.336C99.1758 165.891 99.6736 167.431 100.684 168.62C102.033 170.191 103.853 169.256 104.428 167.388C104.954 165.706 104.877 162.862 103.044 161.976C101.21 161.091 99.466 162.44 99.2999 164.336Z" fill="#CB7A63"/>
<path d="M78.9638 222.374L77.9466 224.948C77.822 225.142 78.0504 225.371 78.3826 225.405L108.678 228.519C108.941 228.519 109.177 228.436 109.211 228.27L108.81 225.384C108.851 225.211 108.63 225.031 108.339 225.004L79.4759 222.236C79.3858 222.213 79.2916 222.215 79.202 222.239C79.1124 222.263 79.0304 222.31 78.9638 222.374Z" fill="#407BFF"/>
<path d="M105.494 228.443H104.691C104.532 228.443 104.407 228.36 104.421 228.263L104.843 224.803C104.843 224.706 104.995 224.623 105.155 224.623H105.957C106.116 224.623 106.241 224.706 106.227 224.81L105.805 228.27C105.791 228.36 105.653 228.443 105.494 228.443Z" fill="#263238"/>
<path d="M94.6624 227.211H93.8597C93.7075 227.211 93.5829 227.121 93.5968 227.024L94.0189 223.564C94.0189 223.468 94.1711 223.391 94.3303 223.391H95.133C95.2852 223.391 95.4167 223.475 95.396 223.585L94.9808 227.011C94.9669 227.142 94.8008 227.211 94.6624 227.211Z" fill="#407BFF"/>
<path d="M94.6624 227.211H93.8597C93.7075 227.211 93.5829 227.121 93.5968 227.024L94.0189 223.564C94.0189 223.468 94.1711 223.391 94.3303 223.391H95.133C95.2852 223.391 95.4167 223.475 95.396 223.585L94.9808 227.011C94.9669 227.142 94.8008 227.211 94.6624 227.211Z" fill="#263238"/>
<path opacity="0.2" d="M101.89 189.366C101.89 189.366 99.8901 192.39 103.385 201.497L104.859 205.213C105.343 206.444 109.827 204.638 111.35 202.645C111.35 202.645 103.945 196.819 101.89 189.366Z" fill="black"/>
<path d="M136.531 207.6L141.984 204.327L141.942 209.316C141.942 209.316 137.79 212.728 135.949 210.008C135.949 210.022 135.334 208.112 136.531 207.6Z" fill="#CB7A63"/>
<path d="M145.839 205.925L145.61 207.738C145.577 208.012 145.458 208.268 145.268 208.469C145.079 208.67 144.83 208.804 144.558 208.853L141.922 209.316L141.963 204.327L144.614 204.493C144.782 204.498 144.947 204.537 145.1 204.606C145.253 204.676 145.39 204.775 145.505 204.897C145.619 205.02 145.708 205.165 145.767 205.322C145.825 205.479 145.852 205.647 145.846 205.815C145.846 205.852 145.844 205.889 145.839 205.925Z" fill="#CB7A63"/>
<path d="M111.446 210.811C113.287 214.105 116.09 217.039 119.674 218.208C123.896 219.592 133.611 214.105 138.026 210.638C138.026 208.936 137.659 208.479 136.019 208.029C136.019 208.029 131.321 210.638 122.975 211.489C120.276 211.766 118.872 208.866 117.079 204.68C116.187 202.604 112.727 190.065 111.543 188.113C109.675 184.979 103.066 186.217 104.72 193.393C105.433 196.431 109.945 208.119 111.446 210.811Z" fill="#CB7A63"/>
<path d="M112.352 185.802C116.338 190.508 117.597 198.106 117.597 198.106L106.262 203.185C106.262 203.185 99.9371 191.421 101.792 187.823C103.245 185.055 105.494 183.38 108.151 183.553C108.967 183.625 109.759 183.862 110.481 184.248C111.203 184.635 111.839 185.163 112.352 185.802Z" fill="#407BFF"/>
<path d="M82.7281 226.118L81.9253 226.035C81.7731 226 81.6554 225.931 81.6762 225.827L82.3682 222.443C82.3682 222.34 82.5343 222.277 82.6935 222.291L83.4962 222.374C83.6484 222.374 83.766 222.485 83.7453 222.582L83.0533 225.973C83.0272 226.033 82.9793 226.082 82.919 226.109C82.8588 226.136 82.7906 226.139 82.7281 226.118Z" fill="#263238"/>
<path d="M79.5102 221.867L79.4434 222.556L108.31 225.356L108.376 224.667L79.5102 221.867Z" fill="#263238"/>
</svg>
