<svg width="106" height="79" viewBox="0 0 106 79" fill="none" xmlns="http://www.w3.org/2000/svg">
<path d="M106 69.4088H0V69.4618H106V69.4088Z" fill="#EBEBEB"/>
<path d="M95.3789 72.8199H88.3574V72.8729H95.3789V72.8199Z" fill="#EBEBEB"/>
<path d="M85.6875 72.8199H70.6758V72.8729H85.6875V72.8199Z" fill="#EBEBEB"/>
<path d="M62.3984 70.8525H58.3301V70.9055H62.3984V70.8525Z" fill="#EBEBEB"/>
<path d="M18.3906 71.2087H11.1211V71.2617H18.3906V71.2087Z" fill="#EBEBEB"/>
<path d="M33.4965 71.2087H20.2783V71.2617H33.4965V71.2087Z" fill="#EBEBEB"/>
<path d="M47.7295 72.1033H39.9258V72.1563H47.7295V72.1033Z" fill="#EBEBEB"/>
<path d="M50.2441 59.9536H9.30899C8.9883 59.953 8.68095 59.8252 8.45439 59.5983C8.22783 59.3713 8.10059 59.0638 8.10059 58.7431V1.19992C8.10338 0.881073 8.23185 0.576208 8.45811 0.351538C8.68437 0.126869 8.99013 0.00054238 9.30899 -3.8147e-06H50.2441C50.5651 -3.8147e-06 50.873 0.127533 51.1 0.354549C51.3271 0.581566 51.4546 0.889466 51.4546 1.21052V58.7431C51.4546 59.0641 51.3271 59.372 51.1 59.599C50.873 59.8261 50.5651 59.9536 50.2441 59.9536ZM9.30899 0.0423963C9.00236 0.0429579 8.70848 0.165158 8.49187 0.382174C8.27525 0.599191 8.15359 0.89329 8.15359 1.19992V58.7431C8.15359 59.0497 8.27525 59.3438 8.49187 59.5608C8.70848 59.7778 9.00236 59.9 9.30899 59.9006H50.2441C50.5509 59.9 50.845 59.7779 51.0619 59.5609C51.2789 59.344 51.401 59.0499 51.4016 58.7431V1.19992C51.401 0.893095 51.2789 0.599001 51.0619 0.382045C50.845 0.165089 50.5509 0.0429568 50.2441 0.0423963H9.30899Z" fill="#EBEBEB"/>
<path d="M96.1018 59.9536H55.1646C54.8437 59.953 54.5362 59.8253 54.3093 59.5984C54.0824 59.3715 53.9547 59.064 53.9541 58.7431V1.19992C53.9574 0.88088 54.0864 0.576016 54.313 0.351406C54.5396 0.126795 54.8456 0.000536423 55.1646 -3.8147e-06H96.1018C96.4203 0.00109954 96.7255 0.127673 96.9513 0.352282C97.1771 0.576892 97.3053 0.88144 97.3081 1.19992V58.7431C97.3081 59.0634 97.1811 59.3707 96.955 59.5975C96.7289 59.8244 96.4221 59.9525 96.1018 59.9536ZM55.1646 0.0423963C54.8578 0.0429568 54.5637 0.165089 54.3467 0.382045C54.1298 0.599001 54.0077 0.893095 54.0071 1.19992V58.7431C54.0077 59.0499 54.1298 59.344 54.3467 59.5609C54.5637 59.7779 54.8578 59.9 55.1646 59.9006H96.1018C96.4086 59.9 96.7027 59.7779 96.9197 59.5609C97.1366 59.344 97.2588 59.0499 97.2593 58.7431V1.19992C97.2588 0.893095 97.1366 0.599001 96.9197 0.382045C96.7027 0.165089 96.4086 0.0429568 96.1018 0.0423963H55.1646Z" fill="#EBEBEB"/>
<path d="M33.6536 7.39244H13.1553V63.9328H33.6536V7.39244Z" fill="#F5F5F5"/>
<path d="M33.6526 63.935H33.8604L33.8604 7.39455H33.6526L33.6526 63.935Z" fill="#EBEBEB"/>
<path d="M31.6752 9.55059H15.1328V61.7768H31.6752V9.55059Z" fill="white"/>
<path d="M42.4398 40.8609L90.7949 40.8609V4.93323L42.4398 4.93323L42.4398 40.8609Z" fill="#E6E6E6"/>
<path d="M41.6918 40.8609L90.0469 40.8609V4.93323L41.6918 4.93323L41.6918 40.8609Z" fill="#F5F5F5"/>
<path d="M88.7031 39.3536V6.44268L43.0341 6.44268V39.3536H88.7031Z" fill="white"/>
<path d="M43.5977 39.3514V6.44055H43.0316V39.3514H43.5977Z" fill="#E6E6E6"/>
<path d="M42.2451 32.3215L89.4893 32.3215V30.2948L42.2451 30.2948V32.3215Z" fill="#F5F5F5"/>
<g opacity="0.4">
<path d="M44.7548 3.34536H40.1904V14.893H44.7548V3.34536Z" fill="#E6E6E6"/>
<path d="M44.7554 13.9644H47.0195V3.34536H44.7554V13.9644Z" fill="#F5F5F5"/>
<path d="M51.5839 3.34536H47.0195V14.893H51.5839V3.34536Z" fill="#E6E6E6"/>
<path d="M51.5835 13.9644H53.8477V3.34536H51.5835V13.9644Z" fill="#F5F5F5"/>
<path d="M58.412 3.34536H53.8477V14.893H58.412V3.34536Z" fill="#E6E6E6"/>
<path d="M58.4126 13.9644H60.6768V3.34536H58.4126V13.9644Z" fill="#F5F5F5"/>
<path d="M65.2411 3.34536H60.6768V14.893H65.2411V3.34536Z" fill="#E6E6E6"/>
<path d="M65.2397 13.9644H67.5039V3.34536H65.2397V13.9644Z" fill="#F5F5F5"/>
<path d="M72.0683 3.34536H67.5039V14.893H72.0683V3.34536Z" fill="#E6E6E6"/>
<path d="M72.0688 13.9644H74.333V3.34536H72.0688V13.9644Z" fill="#F5F5F5"/>
<path d="M78.8974 3.34536H74.333V14.893H78.8974V3.34536Z" fill="#E6E6E6"/>
<path d="M78.898 13.9644H81.1621V3.34536H78.898V13.9644Z" fill="#F5F5F5"/>
<path d="M85.7265 3.34536H81.1621V14.893H85.7265V3.34536Z" fill="#E6E6E6"/>
<path d="M85.7261 13.9644H87.9902V3.34536H85.7261V13.9644Z" fill="#F5F5F5"/>
<path d="M92.5546 3.34536H87.9902V14.893H92.5546V3.34536Z" fill="#E6E6E6"/>
</g>
<path d="M43.1864 69.4088H48.8447V48.336H43.1864V69.4088Z" fill="#E6E6E6"/>
<path d="M44.1298 69.4088H43.1885V67.5114H45.1177L44.1298 69.4088Z" fill="#F0F0F0"/>
<path d="M83.9013 69.4088H89.5596V48.336H83.9013V69.4088Z" fill="#E6E6E6"/>
<path d="M43.1878 68.6795H84.7207V48.336H43.1878V68.6795Z" fill="#F0F0F0"/>
<path d="M43.9209 54.8168L83.9932 54.8168V49.237L43.9209 49.237V54.8168Z" fill="#E6E6E6"/>
<path d="M54.0597 50.9712H73.8584C74.7764 50.9712 75.6562 50.2822 76.2879 49.0632H51.626C52.2577 50.2822 53.1354 50.9712 54.0597 50.9712Z" fill="#F0F0F0"/>
<path d="M83.7809 69.4088H84.7222V67.5114H82.793L83.7809 69.4088Z" fill="#F0F0F0"/>
<path d="M43.9209 61.2977L83.9932 61.2977V55.7178L43.9209 55.7178V61.2977Z" fill="#E6E6E6"/>
<path d="M54.0597 57.452H73.8584C74.7764 57.452 75.6562 56.7651 76.2879 55.544H51.626C52.2577 56.7651 53.1354 57.452 54.0597 57.452Z" fill="#F0F0F0"/>
<path d="M43.9209 67.7785H83.9932V62.1987L43.9209 62.1987V67.7785Z" fill="#E6E6E6"/>
<path d="M54.0597 63.9328H73.8584C74.7764 63.9328 75.6562 63.246 76.2879 62.0248H51.626C52.2577 63.246 53.1354 63.9328 54.0597 63.9328Z" fill="#F0F0F0"/>
<path d="M53.0002 78.9827C75.7017 78.9827 94.1049 77.9083 94.1049 76.5829C94.1049 75.2575 75.7017 74.183 53.0002 74.183C30.2987 74.183 11.8955 75.2575 11.8955 76.5829C11.8955 77.9083 30.2987 78.9827 53.0002 78.9827Z" fill="#F5F5F5"/>
<path d="M78.4153 75.3724H78.1884C78.1411 75.3688 78.0967 75.3481 78.0635 75.3142C78.0303 75.2802 78.0107 75.2353 78.0082 75.1879L76.6133 65.4741H77.6733L78.5976 75.1243C78.6027 75.1527 78.602 75.1818 78.5955 75.2098C78.589 75.2379 78.5769 75.2643 78.5598 75.2876C78.5427 75.3108 78.5211 75.3303 78.4963 75.3448C78.4714 75.3594 78.4439 75.3688 78.4153 75.3724Z" fill="#407BFF"/>
<path opacity="0.3" d="M78.4153 75.3724H78.1884C78.1411 75.3688 78.0967 75.3481 78.0635 75.3142C78.0303 75.2802 78.0107 75.2353 78.0082 75.1879L76.6133 65.4741H77.6733L78.5976 75.1243C78.6027 75.1527 78.602 75.1818 78.5955 75.2098C78.589 75.2379 78.5769 75.2643 78.5598 75.2876C78.5427 75.3108 78.5211 75.3303 78.4963 75.3448C78.4714 75.3594 78.4439 75.3688 78.4153 75.3724Z" fill="black"/>
<path d="M81.3245 75.3724H81.0976C81.0503 75.3688 81.0059 75.3481 80.9727 75.3142C80.9395 75.2802 80.9199 75.2353 80.9174 75.1879L79.5225 65.4741H80.5825L81.5089 75.1243C81.514 75.1528 81.5132 75.1821 81.5066 75.2103C81.5 75.2385 81.4876 75.265 81.4704 75.2882C81.4531 75.3115 81.4312 75.3309 81.4061 75.3454C81.381 75.3599 81.3532 75.369 81.3245 75.3724Z" fill="#407BFF"/>
<path opacity="0.3" d="M81.3245 75.3724H81.0976C81.0503 75.3688 81.0059 75.3481 80.9727 75.3142C80.9395 75.2802 80.9199 75.2353 80.9174 75.1879L79.5225 65.4741H80.5825L81.5089 75.1243C81.514 75.1528 81.5132 75.1821 81.5066 75.2103C81.5 75.2385 81.4876 75.265 81.4704 75.2882C81.4531 75.3115 81.4312 75.3309 81.4061 75.3454C81.381 75.3599 81.3532 75.369 81.3245 75.3724Z" fill="black"/>
<path d="M65.1183 75.3724H65.3452C65.3925 75.3688 65.4369 75.3481 65.4701 75.3142C65.5033 75.2802 65.5229 75.2353 65.5254 75.1879L66.9203 65.4741H65.8603L64.936 75.1243C64.9309 75.1527 64.9316 75.1818 64.9381 75.2098C64.9446 75.2379 64.9567 75.2643 64.9738 75.2876C64.9909 75.3108 65.0125 75.3303 65.0373 75.3448C65.0622 75.3594 65.0897 75.3688 65.1183 75.3724Z" fill="#407BFF"/>
<path opacity="0.3" d="M65.1183 75.3724H65.3452C65.3925 75.3688 65.4369 75.3481 65.4701 75.3142C65.5033 75.2802 65.5229 75.2353 65.5254 75.1879L66.9203 65.4741H65.8603L64.936 75.1243C64.9309 75.1527 64.9316 75.1818 64.9381 75.2098C64.9446 75.2379 64.9567 75.2643 64.9738 75.2876C64.9909 75.3108 65.0125 75.3303 65.0373 75.3448C65.0622 75.3594 65.0897 75.3688 65.1183 75.3724Z" fill="black"/>
<path d="M62.2101 75.3724H62.437C62.4843 75.3688 62.5287 75.3481 62.5619 75.3142C62.595 75.2802 62.6147 75.2353 62.6171 75.1879L64.0121 65.4741H62.9521L62.0278 75.1243C62.0227 75.1527 62.0234 75.1818 62.0299 75.2098C62.0364 75.2379 62.0485 75.2643 62.0656 75.2876C62.0827 75.3108 62.1043 75.3303 62.1291 75.3448C62.154 75.3594 62.1815 75.3688 62.2101 75.3724Z" fill="#407BFF"/>
<path opacity="0.3" d="M62.2101 75.3724H62.437C62.4843 75.3688 62.5287 75.3481 62.5619 75.3142C62.595 75.2802 62.6147 75.2353 62.6171 75.1879L64.0121 65.4741H62.9521L62.0278 75.1243C62.0227 75.1527 62.0234 75.1818 62.0299 75.2098C62.0364 75.2379 62.0485 75.2643 62.0656 75.2876C62.0827 75.3108 62.1043 75.3303 62.1291 75.3448C62.154 75.3594 62.1815 75.3688 62.2101 75.3724Z" fill="black"/>
<path d="M58.4409 53.9561H65.581C66.853 49.5571 71.4068 46.0867 76.075 46.0867H78.3943C83.2703 46.0867 86.4334 49.8878 85.437 54.5794C85.2507 55.4425 84.9446 56.2752 84.5275 57.0534L83.4018 63.8777C83.2576 64.7596 82.5538 65.4741 81.833 65.4741H60.3404C59.6196 65.4741 58.9158 64.7596 58.7716 63.8777L57.3978 55.544C57.2516 54.6706 57.7201 53.9561 58.4409 53.9561Z" fill="#407BFF"/>
<path opacity="0.5" d="M58.4409 53.9561H65.581C66.853 49.5571 71.4068 46.0867 76.075 46.0867H78.3943C83.2703 46.0867 86.4334 49.8878 85.437 54.5794C85.2507 55.4425 84.9446 56.2752 84.5275 57.0534L83.4018 63.8777C83.2576 64.7596 82.5538 65.4741 81.833 65.4741H60.3404C59.6196 65.4741 58.9158 64.7596 58.7716 63.8777L57.3978 55.544C57.2516 54.6706 57.7201 53.9561 58.4409 53.9561Z" fill="white"/>
<path d="M56.6535 72.8602L58.4216 73.67C58.4517 73.6827 58.4757 73.7066 58.4883 73.7367C58.501 73.7669 58.5014 73.8007 58.4894 73.8311L57.9319 75.2706C57.8986 75.3441 57.8375 75.4015 57.762 75.4301C57.6865 75.4587 57.6028 75.4562 57.5291 75.4232C56.9185 75.1307 56.6408 74.959 55.8628 74.6028C55.0404 74.1964 54.2458 73.7361 53.4841 73.2248C52.9075 72.8008 53.3315 72.2284 53.6177 72.3556C54.9109 72.9259 55.7377 72.9768 56.3376 72.8326C56.443 72.8051 56.5545 72.8149 56.6535 72.8602Z" fill="#263238"/>
<path d="M69.1923 51.1832C69.1923 51.1832 57.8863 51.3231 57.7103 55.7793C57.4602 62.186 56.5146 72.822 56.5146 72.822L58.4226 73.67C58.4226 73.67 61.7638 62.9979 61.8825 57.9947C65.0625 57.2061 73.2393 57.9947 74.1997 55.3956C74.6704 54.0438 74.795 52.5955 74.5622 51.1832H69.1923Z" fill="#407BFF"/>
<path opacity="0.2" d="M69.1923 51.1832C69.1923 51.1832 57.8863 51.3231 57.7103 55.7793C57.4602 62.186 56.5146 72.822 56.5146 72.822L58.4226 73.67C58.4226 73.67 61.7638 62.9979 61.8825 57.9947C65.0625 57.2061 73.2393 57.9947 74.1997 55.3956C74.6704 54.0438 74.795 52.5955 74.5622 51.1832H69.1923Z" fill="black"/>
<path d="M71.5997 39.4574C71.5001 39.8687 71.4004 40.2397 71.2881 40.6256C71.1757 41.0114 71.0591 41.3866 70.9361 41.764C70.6881 42.5187 70.4146 43.2692 70.1009 44.0112C69.7866 44.7697 69.4219 45.5063 69.0091 46.216C68.7923 46.5912 68.553 46.953 68.2925 47.2993C68.0055 47.6828 67.6746 48.0314 67.3067 48.3381L67.2749 48.3657L67.2071 48.4166C66.993 48.5563 66.7489 48.6435 66.4947 48.671C66.3349 48.6905 66.1733 48.6905 66.0135 48.671C65.7913 48.6437 65.5729 48.5911 65.3627 48.5141C65.0367 48.3966 64.7199 48.2548 64.415 48.0901C63.8709 47.7875 63.345 47.4534 62.8399 47.0894C62.348 46.7354 61.8731 46.3686 61.411 45.987C60.9488 45.6054 60.5057 45.2154 60.0669 44.7956C59.9543 44.6863 59.8852 44.5399 59.8723 44.3835C59.8594 44.2271 59.9036 44.0714 59.9968 43.9451C60.0899 43.8188 60.2257 43.7306 60.3789 43.6968C60.5321 43.6629 60.6924 43.6858 60.8301 43.761H60.8407C61.341 44.0388 61.8456 44.3334 62.3523 44.609C62.8589 44.8846 63.3593 45.1624 63.8617 45.421C64.3641 45.6796 64.8687 45.9256 65.3457 46.1248C65.5646 46.2182 65.7908 46.2933 66.022 46.3496C66.0907 46.3701 66.1623 46.3794 66.234 46.3771C66.2488 46.3771 66.234 46.3771 66.1895 46.3771C66.0815 46.3895 65.9781 46.4281 65.8884 46.4895L65.7867 46.5658C65.9955 46.3626 66.1797 46.1356 66.3357 45.8895C66.5218 45.6101 66.6924 45.3206 66.8467 45.0224C67.1717 44.3825 67.4626 43.7258 67.718 43.0551C67.9787 42.3724 68.2225 41.6728 68.4494 40.9648C68.6762 40.2567 68.8882 39.5295 69.0854 38.8448V38.8193C69.1754 38.4906 69.3911 38.2104 69.686 38.0395C69.9809 37.8685 70.3312 37.8204 70.6612 37.9057C70.9912 37.9909 71.2744 38.2025 71.4496 38.4949C71.6249 38.7873 71.678 39.1368 71.5976 39.468L71.5997 39.4574Z" fill="#263238"/>
<path d="M67.0157 73.776H69.1357C69.1534 73.7752 69.1711 73.7778 69.1878 73.7839C69.2045 73.79 69.2198 73.7993 69.2328 73.8113C69.2458 73.8234 69.2563 73.8379 69.2637 73.854C69.271 73.8702 69.2751 73.8876 69.2756 73.9053L69.3795 75.5822C69.3795 75.6705 69.3449 75.7553 69.283 75.8184C69.2212 75.8814 69.1371 75.9177 69.0488 75.9193C68.311 75.9066 67.957 75.8621 67.0242 75.8621C66.4518 75.8621 65.2943 75.9214 64.5014 75.9214C63.7085 75.9214 63.7318 75.1392 64.0668 75.0734C65.5741 74.7554 66.1571 74.3166 66.6892 73.8968C66.782 73.8221 66.8966 73.7797 67.0157 73.776Z" fill="#263238"/>
<path d="M72.2392 51.1832C72.2392 51.1832 61.9847 52.0481 62.237 56.5022C62.5126 61.3782 67.0155 73.7802 67.0155 73.7802H69.0888C69.0888 73.7802 67.3144 62.4234 66.689 57.4562C69.5807 57.4562 76.2841 57.999 77.2466 55.3935C77.7173 54.0416 77.8412 52.5932 77.607 51.181L72.2392 51.1832Z" fill="#407BFF"/>
<path d="M60.9886 43.9688C60.8286 43.7083 60.6347 43.4701 60.4119 43.2607C59.9879 43.655 59.7568 44.802 59.7568 44.802L60.3356 44.8528C60.3356 44.8528 61.0013 44.6366 60.9886 43.9688Z" fill="#407BFF"/>
<path d="M58.8606 42.9385L58.2012 42.6523C58.1156 42.6153 58.0194 42.6105 57.9305 42.639C57.8417 42.6674 57.7661 42.7272 57.7179 42.807L57.4041 43.3243C57.3608 43.3972 57.3425 43.4822 57.3521 43.5664C57.3617 43.6507 57.3986 43.7294 57.4571 43.7907L58.3624 44.7341L59.8718 44.6726C59.9571 44.6697 60.0401 44.644 60.112 44.5982C60.184 44.5523 60.2423 44.488 60.281 44.4119L60.4548 44.0706C60.5096 43.9678 60.5245 43.8485 60.4967 43.7354C60.4689 43.6224 60.4004 43.5235 60.3043 43.4579C59.8146 43.1356 58.8606 42.9385 58.8606 42.9385Z" fill="#FFC3BD"/>
<path d="M69.0958 39.0228C68.7947 40.9308 68.4025 45.05 69.2018 51.2616L77.6076 51.1832C77.5567 46.8774 78.2308 42.8367 78.8902 38.8872C78.9163 38.7321 78.9111 38.5733 78.8747 38.4203C78.8383 38.2673 78.7716 38.1231 78.6785 37.9964C78.5854 37.8696 78.4677 37.7629 78.3326 37.6825C78.1974 37.6021 78.0475 37.5496 77.8916 37.5282C75.4809 37.2463 73.0456 37.2463 70.6349 37.5282C70.2524 37.5805 69.8967 37.7537 69.6197 38.0227C69.3428 38.2916 69.1592 38.6421 69.0958 39.0228Z" fill="#263238"/>
<path d="M78.9663 38.3508C79.2143 38.9635 79.4115 39.5507 79.615 40.157C79.8185 40.7634 79.9924 41.3718 80.1599 41.9887C80.3273 42.6056 80.4736 43.2353 80.5839 43.8776C80.7121 44.5336 80.7978 45.1971 80.8404 45.8641C80.8531 46.0358 80.8552 46.2139 80.8573 46.392V46.6633C80.8543 46.9419 80.7814 47.2152 80.6453 47.4583C80.5548 47.6162 80.4354 47.7557 80.2934 47.8696C80.2272 47.9226 80.1562 47.9695 80.0814 48.0095C80.0137 48.0469 79.9427 48.0781 79.8694 48.1028C79.67 48.1769 79.4589 48.2143 79.2461 48.213C78.9947 48.2073 78.7452 48.1681 78.5041 48.0964C78.1514 47.9904 77.8082 47.8549 77.4781 47.6915C77.1707 47.5389 76.8823 47.3799 76.6004 47.2145C75.5043 46.56 74.4641 45.8162 73.4903 44.9906C73.3679 44.8901 73.2866 44.7482 73.2618 44.5917C73.2371 44.4352 73.2707 44.2751 73.3562 44.1418C73.4417 44.0084 73.5732 43.9111 73.7257 43.8683C73.8782 43.8254 74.0412 43.8401 74.1836 43.9094H74.1984C75.2945 44.431 76.4096 44.9694 77.495 45.4168C77.7664 45.527 78.0356 45.6288 78.3006 45.7199C78.5355 45.8062 78.7774 45.8722 79.0235 45.9171C79.1211 45.934 79.208 45.9319 79.1974 45.9171C79.1399 45.9117 79.082 45.9219 79.0299 45.9468C78.9965 45.9596 78.9639 45.9744 78.9324 45.9913C78.8919 46.013 78.8535 46.0385 78.8179 46.0676C78.734 46.133 78.6623 46.2127 78.6059 46.3029C78.5423 46.4085 78.5045 46.5276 78.4957 46.6506L78.4851 46.4577C78.4723 46.3262 78.4617 46.1969 78.4427 46.0612C78.266 44.9119 78.0009 43.7778 77.6498 42.6692C77.3106 41.5308 76.9205 40.369 76.5241 39.2645V39.2539C76.4145 38.9356 76.433 38.5871 76.5757 38.2821C76.7183 37.9771 76.9739 37.7395 77.2885 37.6195C77.6031 37.4995 77.952 37.5065 78.2615 37.639C78.571 37.7715 78.8169 38.0191 78.9472 38.3296L78.9663 38.3508Z" fill="#263238"/>
<path d="M75.6065 33.2649L74.591 34.1129L73.2045 35.2641C73.2473 35.4476 73.277 35.6339 73.2936 35.8216C73.3593 36.4916 73.213 37.1064 72.401 37.418C72.2466 37.4686 72.1059 37.5539 71.9898 37.6675C71.8736 37.7811 71.7851 37.9199 71.7311 38.0731C71.6209 38.4271 71.7502 38.8236 72.8653 38.8236C74.5041 38.8236 75.3584 38.0943 75.6807 37.736C75.7239 37.6862 75.749 37.6232 75.7517 37.5573C75.7544 37.4915 75.7346 37.4266 75.6955 37.3735C75.0489 36.4492 75.3415 34.414 75.6065 33.2649Z" fill="#FFC3BD"/>
<path d="M72.8252 38.4589C72.8965 38.5413 72.9454 38.6406 72.9673 38.7472C73.0513 38.6332 73.1555 38.5355 73.2747 38.4589C73.4157 38.5252 73.541 38.6207 73.6422 38.7392C73.7435 38.8576 73.8184 38.9962 73.8619 39.1458C73.553 39.0825 73.2556 38.9724 72.98 38.8193C72.7982 38.9201 72.5975 38.9822 72.3906 39.0016C72.4033 38.6349 72.8252 38.4589 72.8252 38.4589Z" fill="#407BFF"/>
<path d="M73.2744 38.4589C73.5688 38.8133 73.7627 39.2401 73.8362 39.6949C73.8362 39.6949 76.5498 39.0165 76.4226 37.2463C76.1841 37.1336 75.9306 37.0558 75.67 37.0152C75.67 37.0152 75.087 38.0752 73.2744 38.4589Z" fill="#407BFF"/>
<path d="M72.8244 38.4589C72.5275 38.8161 72.3223 39.2404 72.2266 39.6949C72.2266 39.6949 70.8359 38.4229 72.1905 37.2611C72.4244 37.1868 72.6652 37.1363 72.9092 37.1106C72.9092 37.1106 72.0082 37.842 72.8244 38.4589Z" fill="#407BFF"/>
<path opacity="0.2" d="M73.2041 35.2577C73.2467 35.442 73.2764 35.629 73.2931 35.8174C73.8104 35.7135 74.4994 35.1644 74.5651 34.6366C74.5906 34.4618 74.597 34.2848 74.5842 34.1087L73.2041 35.2577Z" fill="black"/>
<path d="M71.7201 29.6143C70.4481 30.5195 71.1561 32.6416 72.2458 31.8297C73.3355 31.0177 72.7589 28.8765 71.7201 29.6143Z" fill="#263238"/>
<path d="M76.026 31.5053C75.672 33.1292 75.549 34.096 74.5887 34.838C74.2793 35.0823 73.9091 35.2374 73.5179 35.2865C73.1268 35.3356 72.7297 35.2769 72.3696 35.1167C72.0094 34.9565 71.6999 34.7008 71.4745 34.3775C71.2491 34.0541 71.1164 33.6752 71.0907 33.2819C70.9635 31.7682 71.5634 29.3641 73.2721 28.9041C73.64 28.7944 74.0302 28.7835 74.4036 28.8723C74.777 28.9612 75.1205 29.1467 75.3995 29.4103C75.6785 29.6738 75.8833 30.0062 75.9933 30.3739C76.1033 30.7416 76.1145 31.1318 76.026 31.5053Z" fill="#FFC3BD"/>
<path d="M75.2729 30.299C74.3719 30.051 72.0484 30.6425 71.2237 29.7627C70.3397 28.8193 71.6286 28.3592 72.0102 28.6878C71.529 28.1366 71.7071 27.5473 72.3897 27.6003C72.8879 27.6384 73.0448 28.1896 73.0448 28.1896C73.0448 28.1896 72.9621 27.225 73.8186 27.2929C74.5945 27.3522 74.5966 28.3995 74.5966 28.3995C74.5966 28.3995 76.4495 27.8759 77.0685 29.644C78.2345 29.6185 78.2091 32.0735 75.8623 32.9469C74.9104 32.4763 74.8659 30.8015 75.2729 30.299Z" fill="#263238"/>
<path d="M76.8189 29.998C76.7578 30.0017 76.6977 29.9815 76.6513 29.9416C76.6049 29.9017 76.5758 29.8453 76.5703 29.7843C76.5648 29.7234 76.5832 29.6627 76.6217 29.6151C76.6602 29.5675 76.7158 29.5368 76.7765 29.5295C76.8403 29.4891 76.8888 29.4287 76.9143 29.3578C76.9485 29.2899 76.9684 29.2158 76.9728 29.1399C76.9771 29.0641 76.9659 28.9881 76.9398 28.9168C76.922 28.8884 76.9104 28.8566 76.9059 28.8235C76.9014 28.7903 76.904 28.7566 76.9136 28.7245C76.9231 28.6924 76.9394 28.6628 76.9613 28.6375C76.9833 28.6122 77.0103 28.5919 77.0407 28.5779C77.0712 28.5639 77.1042 28.5566 77.1377 28.5564C77.1711 28.5562 77.2042 28.5631 77.2348 28.5767C77.2654 28.5903 77.2927 28.6103 77.3149 28.6353C77.3372 28.6603 77.3538 28.6898 77.3638 28.7218C77.4214 28.8637 77.4467 29.0166 77.4379 29.1695C77.4291 29.3224 77.3864 29.4714 77.3129 29.6058C77.2714 29.7008 77.2088 29.7852 77.1298 29.8524C77.0508 29.9196 76.9575 29.968 76.8571 29.9938C76.8446 29.9969 76.8318 29.9984 76.8189 29.998Z" fill="#263238"/>
<path d="M76.2912 33.0126C76.0707 33.2989 75.7533 33.4949 75.3986 33.5638C74.9386 33.6465 74.7987 33.2225 75.0022 32.8134C75.1845 32.4424 75.6382 31.9548 76.0622 32.0608C76.4862 32.1668 76.5625 32.648 76.2912 33.0126Z" fill="#FFC3BD"/>
<path d="M73.2417 31.6537C73.2205 31.7873 73.1336 31.8869 73.0467 31.8763C72.9597 31.8657 72.9046 31.7491 72.9237 31.6156C72.9428 31.482 73.0318 31.3824 73.1209 31.4036C73.2099 31.4248 73.2608 31.5202 73.2417 31.6537Z" fill="#263238"/>
<path d="M71.729 31.4735C71.7078 31.6071 71.6209 31.7067 71.534 31.6855C71.447 31.6643 71.3919 31.5583 71.411 31.4248C71.4301 31.2912 71.5191 31.1916 71.6082 31.2022C71.6972 31.2128 71.7502 31.34 71.729 31.4735Z" fill="#263238"/>
<path d="M72.1907 31.5265C72.022 31.8707 71.8081 32.1908 71.5547 32.4784C71.6297 32.5384 71.7171 32.5811 71.8105 32.6035C71.904 32.6258 72.0012 32.6273 72.0953 32.6077L72.1907 31.5265Z" fill="#ED847E"/>
<path d="M72.7171 33.2946C72.8745 33.2967 73.0308 33.267 73.1765 33.2072C73.3222 33.1475 73.4544 33.059 73.5651 32.9469C73.5703 32.9389 73.5724 32.9292 73.5711 32.9197C73.5698 32.9102 73.5652 32.9014 73.558 32.8951C73.5509 32.8887 73.5417 32.885 73.5321 32.8848C73.5225 32.8846 73.5131 32.8878 73.5057 32.8939C73.3847 33.0135 73.2379 33.1038 73.0766 33.1579C72.9152 33.2119 72.7437 33.2282 72.575 33.2056C72.5648 33.2048 72.5546 33.2079 72.5464 33.2141C72.5382 33.2204 72.5326 33.2294 72.5305 33.2395C72.5299 33.2448 72.5304 33.2501 72.5319 33.2552C72.5334 33.2604 72.5359 33.2651 72.5392 33.2693C72.5426 33.2734 72.5467 33.2768 72.5514 33.2794C72.5561 33.2819 72.5613 33.2835 72.5666 33.284C72.6165 33.2904 72.6667 33.2939 72.7171 33.2946Z" fill="#263238"/>
<path d="M73.8507 30.8842C73.8633 30.8815 73.875 30.8757 73.8846 30.8672C73.8921 30.8599 73.8981 30.8512 73.9021 30.8415C73.9062 30.8319 73.9083 30.8215 73.9083 30.811C73.9083 30.8005 73.9062 30.7902 73.9021 30.7805C73.8981 30.7709 73.8921 30.7621 73.8846 30.7548C73.8042 30.6598 73.7015 30.5861 73.5858 30.5403C73.47 30.4944 73.3447 30.4778 73.221 30.492C73.2107 30.4936 73.2009 30.4973 73.192 30.5028C73.1831 30.5083 73.1754 30.5155 73.1693 30.5239C73.1632 30.5324 73.1588 30.542 73.1564 30.5521C73.154 30.5623 73.1537 30.5728 73.1553 30.5831C73.157 30.5934 73.1607 30.6033 73.1662 30.6122C73.1716 30.621 73.1788 30.6288 73.1873 30.6349C73.1958 30.641 73.2053 30.6453 73.2155 30.6477C73.2257 30.6501 73.2362 30.6505 73.2465 30.6488C73.3441 30.6394 73.4425 30.6537 73.5333 30.6906C73.6242 30.7276 73.7047 30.786 73.768 30.8608C73.778 30.8723 73.7912 30.8807 73.8059 30.8848C73.8206 30.889 73.8361 30.8887 73.8507 30.8842Z" fill="#263238"/>
<path d="M71.1878 30.7972C71.2002 30.8007 71.2131 30.8011 71.2257 30.7985C71.2382 30.796 71.2499 30.7904 71.2599 30.7824C71.3359 30.7147 71.4267 30.6657 71.5249 30.6392C71.6232 30.6127 71.7262 30.6095 71.826 30.6298C71.8462 30.635 71.8677 30.6322 71.8859 30.6219C71.9041 30.6116 71.9175 30.5947 71.9235 30.5746C71.9264 30.5646 71.9272 30.5541 71.926 30.5438C71.9248 30.5334 71.9215 30.5234 71.9164 30.5143C71.9113 30.5052 71.9044 30.4973 71.8961 30.4909C71.8879 30.4845 71.8784 30.4798 71.8684 30.4771C71.7441 30.4503 71.6153 30.453 71.4924 30.4851C71.3694 30.5171 71.2556 30.5776 71.1603 30.6616C71.1443 30.6748 71.1342 30.6938 71.1322 30.7145C71.1302 30.7352 71.1365 30.7558 71.1497 30.7718C71.1595 30.784 71.1728 30.7929 71.1878 30.7972Z" fill="#263238"/>
<path d="M73.9476 42.8113L73.0191 42.2346C72.953 42.1934 72.8794 42.1657 72.8025 42.1531C72.7256 42.1406 72.647 42.1435 72.5712 42.1616C72.4954 42.1798 72.424 42.2128 72.3612 42.2589C72.2983 42.3049 72.2452 42.3629 72.205 42.4297L72.0969 42.612C72.0323 42.7183 72.0032 42.8423 72.0139 42.9662C72.0246 43.0901 72.0744 43.2074 72.1562 43.301L72.7922 44.0366C72.7922 44.0366 73.3498 45.3362 73.9964 44.9928L74.4882 44.1448L73.9476 42.8113Z" fill="#FFC3BD"/>
<path d="M74.9043 44.4734C74.7771 44.1656 74.6119 43.875 74.4125 43.6084C73.9461 44.007 73.5645 45.279 73.5645 45.279L74.1347 45.4019C74.3422 45.3437 74.527 45.2236 74.6644 45.0577C74.8019 44.8919 74.8856 44.688 74.9043 44.4734Z" fill="#407BFF"/>
<path d="M82.0088 53.9561H71.0018C70.281 53.9561 69.8146 54.6706 69.9588 55.5525L71.3325 63.8777C71.4788 64.7596 72.1805 65.4741 72.9034 65.4741H80.6457L82.0088 53.9561Z" fill="#407BFF"/>
<path opacity="0.5" d="M82.0088 53.9561H71.0018C70.281 53.9561 69.8146 54.6706 69.9588 55.5525L71.3325 63.8777C71.4788 64.7596 72.1805 65.4741 72.9034 65.4741H80.6457L82.0088 53.9561Z" fill="white"/>
<path d="M31.2243 76.0868H31.5423C31.5986 76.0868 31.6525 76.0645 31.6922 76.0247C31.732 75.9849 31.7543 75.931 31.7543 75.8748L33.497 49.608H32.1847L31.0187 75.8451C31.0145 75.8748 31.0166 75.9051 31.025 75.9339C31.0333 75.9627 31.0477 75.9894 31.0671 76.0122C31.0866 76.0351 31.1106 76.0535 31.1377 76.0664C31.1648 76.0792 31.1943 76.0862 31.2243 76.0868Z" fill="#407BFF"/>
<path opacity="0.3" d="M31.2243 76.0868H31.5423C31.5986 76.0868 31.6525 76.0645 31.6922 76.0247C31.732 75.9849 31.7543 75.931 31.7543 75.8748L33.497 49.608H32.1847L31.0187 75.8451C31.0145 75.8748 31.0166 75.9051 31.025 75.9339C31.0333 75.9627 31.0477 75.9894 31.0671 76.0122C31.0866 76.0351 31.1106 76.0535 31.1377 76.0664C31.1648 76.0792 31.1943 76.0862 31.2243 76.0868Z" fill="white"/>
<path d="M27.6198 76.0868H27.9378C27.9941 76.0868 28.048 76.0645 28.0877 76.0247C28.1275 75.9849 28.1498 75.931 28.1498 75.8748L29.8925 49.608H28.5781L27.4142 75.8451C27.41 75.8748 27.4121 75.9051 27.4205 75.9339C27.4288 75.9627 27.4432 75.9894 27.4626 76.0122C27.4821 76.0351 27.5061 76.0535 27.5332 76.0664C27.5603 76.0792 27.5899 76.0862 27.6198 76.0868Z" fill="#407BFF"/>
<path opacity="0.3" d="M27.6198 76.0868H27.9378C27.9941 76.0868 28.048 76.0645 28.0877 76.0247C28.1275 75.9849 28.1498 75.931 28.1498 75.8748L29.8925 49.608H28.5781L27.4142 75.8451C27.41 75.8748 27.4121 75.9051 27.4205 75.9339C27.4288 75.9627 27.4432 75.9894 27.4626 76.0122C27.4821 76.0351 27.5061 76.0535 27.5332 76.0664C27.5603 76.0792 27.5899 76.0862 27.6198 76.0868Z" fill="white"/>
<path d="M72.0656 76.0868H71.7476C71.6914 76.0868 71.6375 76.0645 71.5977 76.0247C71.5579 75.9849 71.5356 75.931 71.5356 75.8748L69.793 49.608H71.1052L72.2712 75.8451C72.2755 75.8748 72.2733 75.9051 72.265 75.9339C72.2566 75.9627 72.2422 75.9894 72.2228 76.0122C72.2034 76.0351 72.1793 76.0535 72.1522 76.0664C72.1251 76.0792 72.0956 76.0862 72.0656 76.0868Z" fill="#407BFF"/>
<path opacity="0.3" d="M72.0656 76.0868H71.7476C71.6914 76.0868 71.6375 76.0645 71.5977 76.0247C71.5579 75.9849 71.5356 75.931 71.5356 75.8748L69.793 49.608H71.1052L72.2712 75.8451C72.2755 75.8748 72.2733 75.9051 72.265 75.9339C72.2566 75.9627 72.2422 75.9894 72.2228 76.0122C72.2034 76.0351 72.1793 76.0535 72.1522 76.0664C72.1251 76.0792 72.0956 76.0862 72.0656 76.0868Z" fill="white"/>
<path d="M75.6701 76.0868H75.3521C75.2959 76.0868 75.242 76.0645 75.2022 76.0247C75.1624 75.9849 75.1401 75.931 75.1401 75.8748L73.3975 49.608H74.7119L75.8757 75.8451C75.8799 75.8748 75.8778 75.9051 75.8695 75.9339C75.8611 75.9627 75.8467 75.9894 75.8273 76.0122C75.8079 76.0351 75.7838 76.0535 75.7567 76.0664C75.7296 76.0792 75.7001 76.0862 75.6701 76.0868Z" fill="#407BFF"/>
<path opacity="0.3" d="M75.6701 76.0868H75.3521C75.2959 76.0868 75.242 76.0645 75.2022 76.0247C75.1624 75.9849 75.1401 75.931 75.1401 75.8748L73.3975 49.608H74.7119L75.8757 75.8451C75.8799 75.8748 75.8778 75.9051 75.8695 75.9339C75.8611 75.9627 75.8467 75.9894 75.8273 76.0122C75.8079 76.0351 75.7838 76.0535 75.7567 76.0664C75.7296 76.0792 75.7001 76.0862 75.6701 76.0868Z" fill="white"/>
<path d="M77.1859 49.0738H26.0303V49.6144H77.1859V49.0738Z" fill="#407BFF"/>
<path d="M25.1767 40.704L24.6933 44.2592C24.5407 45.4422 24.3817 46.6294 24.2693 47.7954C24.2545 47.9417 24.2439 48.0837 24.2312 48.2194L24.2142 48.4314C24.2177 48.3962 24.2177 48.3606 24.2142 48.3254C24.2102 48.2914 24.2024 48.258 24.1909 48.2258C24.1822 48.2002 24.1716 48.1754 24.1591 48.1516C24.1506 48.1345 24.1407 48.1181 24.1294 48.1028C24.0912 48.054 24.087 48.0604 24.0976 48.071C24.1193 48.0941 24.1434 48.1147 24.1697 48.1325C24.2589 48.1936 24.3524 48.2481 24.4495 48.2957C24.9541 48.5264 25.4749 48.7199 26.0077 48.8745C27.1186 49.2116 28.2867 49.5105 29.44 49.7882L29.3086 50.7994C28.0756 50.7624 26.847 50.6355 25.6325 50.42C24.989 50.3117 24.3567 50.145 23.7436 49.9218C23.5634 49.8523 23.3884 49.7701 23.2199 49.6758C23.1159 49.6165 23.0167 49.5492 22.9231 49.4744C22.7934 49.3718 22.6798 49.2503 22.586 49.114C22.5185 49.0133 22.4644 48.9043 22.4249 48.7897C22.4033 48.7202 22.3863 48.6494 22.374 48.5777C22.3663 48.5073 22.362 48.4365 22.3613 48.3657V48.1304C22.3613 47.9735 22.3613 47.8166 22.374 47.6618C22.4249 46.4238 22.5373 45.2154 22.6687 44.007C22.8002 42.7986 22.9528 41.6008 23.1415 40.403L25.1767 40.704Z" fill="#7F3E3B"/>
<path d="M32.0978 50.88L31.3198 51.5902C31.2308 51.671 31.1197 51.7235 31.0007 51.7409C30.8818 51.7583 30.7603 51.7397 30.652 51.6877L29.7934 51.2743C29.7934 51.2743 28.5214 51.2213 28.3369 50.4433L28.6676 49.8391L30.6414 49.6271C30.8439 49.6053 31.048 49.6507 31.2222 49.7564L32.0363 50.2546C32.0875 50.287 32.1306 50.3307 32.1624 50.3823C32.1942 50.4339 32.2138 50.492 32.2197 50.5523C32.2256 50.6126 32.2177 50.6734 32.1966 50.7302C32.1755 50.787 32.1417 50.8382 32.0978 50.88Z" fill="#7F3E3B"/>
<path d="M27.4427 33.4027C27.6547 34.6238 27.8158 36.852 26.9424 37.6427C26.9424 37.6427 29.0624 38.7578 30.4679 40.704C31.9519 39.521 30.7117 37.7551 30.7117 37.7551C29.3677 37.3926 29.4397 36.3898 29.6963 35.4549L27.4427 33.4027Z" fill="#7F3E3B"/>
<path d="M31.4264 38.4971C31.4264 38.4971 31.314 37.4625 30.7501 36.9516C30.2773 36.5276 27.7821 36.7608 27.004 36.8477C26.9318 36.8564 26.8629 36.8831 26.8036 36.9253C26.7443 36.9675 26.6966 37.0239 26.6648 37.0894L26.0967 38.2766L31.4264 38.4971Z" fill="#407BFF"/>
<path opacity="0.8" d="M31.4264 38.4971C31.4264 38.4971 31.314 37.4625 30.7501 36.9516C30.2773 36.5276 27.7821 36.7608 27.004 36.8477C26.9318 36.8564 26.8629 36.8831 26.8036 36.9253C26.7443 36.9675 26.6966 37.0239 26.6648 37.0894L26.0967 38.2766L31.4264 38.4971Z" fill="white"/>
<path d="M24.5341 37.948C22.9992 38.4483 22.6685 40.5068 22.8084 42.1074L25.9057 44.0154C25.9057 44.0154 26.6583 41.6834 26.652 40.4284C26.6456 39.1013 25.5771 37.613 24.5341 37.948Z" fill="#407BFF"/>
<path d="M25.1338 43.5512C25.0948 43.552 25.0559 43.5451 25.0196 43.5309C24.9832 43.5168 24.95 43.4955 24.9218 43.4685C24.9092 43.4547 24.8978 43.4398 24.8879 43.424C24.8762 43.4085 24.8669 43.3913 24.8603 43.3731C24.8534 43.3558 24.8477 43.3381 24.8434 43.3201C24.8413 43.3018 24.8413 43.2833 24.8434 43.265C24.8424 43.2257 24.8495 43.1867 24.8641 43.1503C24.8786 43.1138 24.9004 43.0807 24.9282 43.053C24.9832 43.0011 25.056 42.9722 25.1317 42.9722C25.2073 42.9722 25.2801 43.0011 25.3352 43.053C25.3629 43.0807 25.3847 43.1138 25.3993 43.1503C25.4139 43.1867 25.4209 43.2257 25.42 43.265C25.4221 43.2833 25.4221 43.3018 25.42 43.3201C25.4167 43.3384 25.411 43.3562 25.403 43.3731C25.3971 43.3912 25.3886 43.4084 25.3776 43.424L25.3416 43.4685C25.3142 43.4954 25.2817 43.5166 25.246 43.5308C25.2103 43.545 25.1722 43.5519 25.1338 43.5512Z" fill="white"/>
<path d="M24.5382 43.3561C24.4855 43.3358 24.4399 43.3005 24.4071 43.2545C24.3744 43.2085 24.3558 43.1539 24.3538 43.0975C24.3122 43.1351 24.2605 43.1597 24.205 43.168C24.1495 43.1763 24.0929 43.168 24.0421 43.1441C23.9914 43.1204 23.9487 43.0826 23.919 43.0353C23.8893 42.9879 23.8739 42.9329 23.8746 42.877C23.831 42.9123 23.7779 42.9338 23.722 42.9387C23.6661 42.9436 23.61 42.9317 23.5609 42.9046C23.5117 42.8783 23.4712 42.8382 23.4444 42.7892C23.4177 42.7403 23.4059 42.6846 23.4104 42.629C23.3645 42.6613 23.3101 42.6795 23.254 42.6814C23.1979 42.6833 23.1424 42.6687 23.0945 42.6396C23.0295 42.6 22.9828 42.5363 22.9645 42.4625C22.9462 42.3886 22.9579 42.3105 22.997 42.2452C23.0369 42.1801 23.1009 42.1333 23.1752 42.1151C23.2494 42.0968 23.3278 42.1085 23.3934 42.1477C23.4384 42.1761 23.4749 42.2161 23.4992 42.2635C23.5234 42.3108 23.5345 42.3638 23.5312 42.417C23.5745 42.3858 23.6257 42.3675 23.679 42.3642C23.7322 42.3608 23.7853 42.3725 23.8322 42.3979C23.8792 42.4232 23.9182 42.4608 23.9451 42.5068C23.9721 42.5528 23.9858 42.6053 23.9849 42.6586C24.0264 42.6254 24.0764 42.6045 24.1292 42.5981C24.182 42.5918 24.2355 42.6002 24.2838 42.6226C24.3321 42.6448 24.3732 42.6799 24.4028 42.7241C24.4323 42.7682 24.4491 42.8197 24.4513 42.8728C24.4913 42.8378 24.54 42.8144 24.5923 42.8051C24.6446 42.7957 24.6985 42.8008 24.7481 42.8198C24.8188 42.8481 24.8754 42.9032 24.9056 42.9731C24.9357 43.043 24.9371 43.122 24.9092 43.1929C24.8882 43.2467 24.8515 43.2928 24.8039 43.3254C24.7562 43.3579 24.6998 43.3753 24.6421 43.3752C24.6066 43.3748 24.5715 43.3683 24.5382 43.3561Z" fill="white"/>
<path d="M22.8084 42.4C22.7893 42.4021 22.7702 42.4021 22.7511 42.4C22.7328 42.3967 22.715 42.391 22.6981 42.383C22.68 42.3771 22.6628 42.3686 22.6472 42.3576L22.6048 42.3216C22.5911 42.309 22.579 42.2947 22.5688 42.2792C22.5688 42.2622 22.5497 42.2452 22.5412 42.2283C22.5346 42.2109 22.529 42.1932 22.5243 42.1753C22.5232 42.1562 22.5232 42.1371 22.5243 42.118C22.5232 42.0997 22.5232 42.0813 22.5243 42.0629C22.529 42.0443 22.5346 42.0259 22.5412 42.0078C22.5482 41.9904 22.5575 41.974 22.5688 41.959C22.5795 41.9432 22.5916 41.9283 22.6048 41.9145L22.6472 41.8785C22.6633 41.8683 22.6804 41.8598 22.6981 41.853L22.7511 41.8361C22.7974 41.8277 22.8449 41.8305 22.8899 41.8441C22.9349 41.8578 22.9759 41.8819 23.0098 41.9145C23.023 41.9283 23.0351 41.9432 23.0458 41.959C23.0562 41.9745 23.0655 41.9909 23.0734 42.0078C23.0803 42.0256 23.0853 42.0441 23.0882 42.0629C23.0904 42.0812 23.0904 42.0997 23.0882 42.118C23.0903 42.1371 23.0903 42.1562 23.0882 42.1753C23.0852 42.1934 23.0803 42.2112 23.0734 42.2283C23.0734 42.2452 23.0564 42.2622 23.0458 42.2792C23.0356 42.2947 23.0235 42.309 23.0098 42.3216C22.9552 42.3726 22.8831 42.4007 22.8084 42.4Z" fill="white"/>
<path d="M34.2946 40.9436C34.1653 42.7074 33.7731 45.6754 32.8106 50.6744L24.513 50.4284C24.725 47.365 24.4006 45.0818 23.6501 39.7203C23.6182 39.4883 23.6332 39.2523 23.6944 39.0263C23.7556 38.8003 23.8616 38.5889 24.0063 38.4047C24.1509 38.2205 24.3311 38.0673 24.5361 37.9543C24.7412 37.8412 24.9669 37.7706 25.1998 37.7466C25.732 37.6915 26.3383 37.647 26.9467 37.6342C28.2042 37.5821 29.4639 37.6197 30.7161 37.7466C31.1189 37.7954 31.5365 37.8611 31.9351 37.9289C32.6329 38.0478 33.2614 38.4225 33.6977 38.98C34.1341 39.5375 34.3469 40.2376 34.2946 40.9436Z" fill="#407BFF"/>
<path d="M31.7355 31.164C31.7546 31.3272 31.8584 31.4502 31.9644 31.4353C32.0704 31.4205 32.1425 31.2806 32.1234 31.1173C32.1044 30.9541 32.0005 30.8311 31.8945 30.8439C31.7885 30.8566 31.7164 30.9944 31.7355 31.164Z" fill="#263238"/>
<path d="M31.8486 30.8545L32.2281 30.6934C32.2281 30.6934 32.0628 31.0241 31.8486 30.8545Z" fill="#263238"/>
<path d="M31.7988 31.412C31.9892 31.7679 32.2275 32.096 32.5069 32.3872C32.4308 32.4572 32.3403 32.5096 32.2418 32.5407C32.1433 32.5718 32.0391 32.581 31.9366 32.5674L31.7988 31.412Z" fill="#630F0F"/>
<path d="M31.7547 29.7245C31.7631 29.7096 31.7675 29.6928 31.7675 29.6757C31.7675 29.6587 31.7631 29.6419 31.7547 29.627C31.7433 29.6041 31.7234 29.5866 31.6992 29.5783C31.675 29.5699 31.6485 29.5714 31.6254 29.5825C31.4848 29.6449 31.3613 29.7404 31.2653 29.8607C31.1694 29.981 31.1038 30.1226 31.0742 30.2736C31.0724 30.2861 31.0731 30.2989 31.0763 30.3112C31.0795 30.3234 31.0852 30.3349 31.0929 30.345C31.1006 30.3551 31.1102 30.3635 31.1212 30.3698C31.1322 30.3761 31.1443 30.3801 31.1569 30.3817C31.1694 30.3835 31.1822 30.3828 31.1945 30.3796C31.2067 30.3764 31.2182 30.3707 31.2283 30.363C31.2383 30.3553 31.2468 30.3457 31.2531 30.3347C31.2594 30.3237 31.2634 30.3116 31.265 30.299C31.2908 30.18 31.3444 30.0688 31.4214 29.9745C31.4984 29.8802 31.5966 29.8054 31.7081 29.7563C31.7269 29.7517 31.7435 29.7404 31.7547 29.7245Z" fill="#263238"/>
<path d="M26.0878 31.1216C26.4524 33.1165 26.5648 33.9688 27.7032 34.8804C29.4162 36.2499 31.7885 35.3658 32.028 33.301C32.24 31.4417 31.604 28.4907 29.5476 27.9268C29.0931 27.8004 28.6138 27.7922 28.1553 27.903C27.6967 28.0139 27.2741 28.2401 26.9275 28.5601C26.5809 28.8802 26.3218 29.2835 26.1749 29.7318C26.0279 30.1801 25.9979 30.6585 26.0878 31.1216Z" fill="#7F3E3B"/>
<path d="M30.484 31.6813C30.8189 32.7773 31.6203 35.4273 29.848 36.0188C28.4636 36.481 24.124 36.8498 23.6258 34.308C23.1106 31.6813 25.4532 29.8093 25.4532 29.8093C25.4532 29.8093 23.5961 28.2872 24.7854 26.6293C26.3182 24.4924 29.99 25.7008 31.0776 27.2102C32.1397 28.6794 30.484 31.6813 30.484 31.6813Z" fill="#263238"/>
<path d="M27.1347 36.3834C26.3351 36.3826 25.5433 36.2271 24.8027 35.9255C23.819 35.5015 23.2445 34.8464 23.1406 34.0302C22.793 31.2594 25.3709 29.7372 25.3984 29.7224L25.5002 29.8984C25.4748 29.9132 23.0134 31.3696 23.3442 34.0048C23.4629 34.9397 24.2473 35.4634 24.8854 35.7368C26.1447 36.2796 27.7707 36.2753 28.165 35.987L28.2859 36.1524C28.0866 36.3029 27.6541 36.3834 27.1347 36.3834Z" fill="#263238"/>
<path d="M24.6572 29.4129C24.6339 29.7669 24.3413 30.2609 25.5688 30.4368C26.7963 30.6128 28.505 30.6022 28.8569 30.3075C29.2088 30.0128 29.5523 29.3048 28.8187 29.3684C28.0852 29.432 24.6975 28.8066 24.6572 29.4129Z" fill="#407BFF"/>
<path d="M29.8134 31.9929C30.0138 32.3632 30.3519 32.6397 30.7547 32.7625C31.289 32.9193 31.5645 32.4423 31.4225 31.9335C31.2932 31.4756 30.8586 30.8417 30.3201 30.9075C29.7816 30.9732 29.5739 31.5371 29.8134 31.9929Z" fill="#7F3E3B"/>
<path d="M42.7468 73.8947L44.7142 73.8566L43.7623 68.9466L41.7949 68.9827L42.7468 73.8947Z" fill="#7F3E3B"/>
<path d="M44.2228 71.7556C44.7422 73.7166 46.6565 75.7836 46.6565 75.7836L43.926 75.0883L42.7324 73.3923L42.9444 72.9428L44.2228 71.7556Z" fill="#7F3E3B"/>
<path d="M42.2825 72.6672C42.2769 72.8969 42.2904 73.1267 42.3227 73.3541C42.4393 74.164 42.7955 76.3221 42.7955 76.3221H42.9821C42.8977 75.6651 42.8475 75.0042 42.8315 74.342C42.857 73.8099 43.2004 74.7512 43.6159 75.2854C44.0315 75.8197 44.7798 76.3051 45.9903 76.3454C47.4065 76.3899 47.9725 76.3306 47.5189 75.9766C47.0652 75.6225 46.0985 75.3936 46.0985 75.3936C45.3187 75.0596 44.6549 74.5028 44.1905 73.7929C43.7323 73.1551 43.1302 72.6344 42.433 72.2729C42.3143 72.2793 42.2909 72.504 42.2825 72.6672Z" fill="#263238"/>
<path d="M49.7151 67.2231L52.2251 67.3015L49.4161 63.1251L47.6777 64.6112L49.7151 67.2231Z" fill="#7F3E3B"/>
<path d="M50.3115 65.4508C52.1368 66.2988 55.0582 66.1334 55.0582 66.1334L52.6838 68.0414L50.6465 67.8888L50.4345 67.4372L50.3115 65.4508Z" fill="#7F3E3B"/>
<path d="M49.9249 67.6153C50.0894 67.7751 50.2666 67.9211 50.4549 68.052C51.1206 68.5163 52.9205 69.7056 52.9205 69.7056L53.035 69.5593C52.4989 69.1742 51.983 68.7616 51.4895 68.3233C51.1121 67.9375 52.0174 68.3127 52.6661 68.3509C53.3148 68.3891 54.1331 68.1389 54.9069 67.2061C55.8164 66.1228 56.1196 65.6373 55.5811 65.7518C55.0426 65.8663 54.2752 66.4683 54.2752 66.4683C53.5544 66.8542 52.7287 66.9984 51.9199 66.8796C51.1685 66.8032 50.4101 66.9207 49.7172 67.2209C49.6599 67.3269 49.802 67.4923 49.9249 67.6153Z" fill="#263238"/>
<path d="M29.9123 50.5302C29.9123 50.5302 43.3446 48.548 44.7311 51.9866C47.1521 57.9778 50.5674 64.8423 50.5674 64.8423L48.9181 66.2076C48.9181 66.2076 43.0605 60.7846 40.9787 54.7596C38.4898 55.5652 30.5716 58.1516 27.6714 58.1516C24.5741 58.1516 23.3085 55.5122 24.4278 51.1259C24.4769 50.938 24.5866 50.7715 24.7399 50.6523C24.8932 50.533 25.0816 50.4678 25.2758 50.4666C27.2411 50.4857 29.9123 50.5302 29.9123 50.5302Z" fill="#263238"/>
<path d="M31.199 52.2792C31.199 52.2792 42.223 51.9485 42.3184 55.8535C42.4711 62.3132 44.2921 71.5691 44.2921 71.5691L42.2803 71.7556C42.2803 71.7556 38.9921 64.3929 38.1229 58.088C34.1967 58.3424 30.5757 58.1664 27.6756 58.1664C24.4256 58.1664 24.1564 54.5985 27.3194 50.4327C29.255 50.4284 31.199 52.2792 31.199 52.2792Z" fill="#263238"/>
<path d="M24.3983 49.9366L24.1673 50.668C24.1355 50.7252 24.2012 50.7846 24.2987 50.7888L32.8381 51.0411C32.9123 51.0411 32.9759 51.0093 32.9822 50.9627L33.0797 50.2228C33.0797 50.1698 33.0225 50.1253 32.9398 50.1231L24.5383 49.873C24.5114 49.87 24.4842 49.8744 24.4596 49.8856C24.435 49.8968 24.4138 49.9144 24.3983 49.9366Z" fill="white"/>
<path d="M25.4985 50.9097H25.2738C25.2293 50.9097 25.1953 50.8842 25.1996 50.8567L25.3331 49.8942C25.3331 49.8666 25.3777 49.8454 25.4222 49.8454H25.6469C25.6914 49.8454 25.7253 49.8709 25.7211 49.8984L25.5875 50.8588C25.5833 50.8906 25.543 50.9118 25.4985 50.9097Z" fill="#263238"/>
<path d="M32.2006 51.1111H31.9759C31.9314 51.1111 31.8975 51.0856 31.9017 51.0581L32.0374 50.0956C32.0374 50.068 32.0798 50.0468 32.1243 50.0468H32.349C32.3957 50.0468 32.4275 50.0723 32.4254 50.0998L32.2897 51.0623C32.2854 51.092 32.2473 51.1111 32.2006 51.1111Z" fill="#263238"/>
<path d="M28.8511 51.0093H28.6263C28.5797 51.0093 28.5479 50.9839 28.5521 50.9563L28.6857 49.9938C28.6857 49.9663 28.7302 49.9451 28.7747 49.9451H28.9995C29.044 49.9451 29.0779 49.9705 29.0737 49.9981L28.9401 50.9606C28.9359 50.9902 28.8956 51.0114 28.8511 51.0093Z" fill="#263238"/>
<path d="M39.0779 41.6813H44.4394C44.4793 41.6815 44.5186 41.6908 44.5542 41.7086C44.5898 41.7265 44.6209 41.7523 44.6449 41.7841C44.6689 41.8159 44.6852 41.8529 44.6926 41.892C44.7 41.9312 44.6982 41.9715 44.6875 42.0099L42.6819 48.8893C42.6667 48.9427 42.6344 48.9896 42.59 49.0229C42.5456 49.0562 42.4915 49.074 42.436 49.0738H37.0724C37.0324 49.0742 36.9929 49.0651 36.9571 49.0474C36.9213 49.0297 36.8901 49.0038 36.8662 48.9718C36.8422 48.9398 36.8261 48.9026 36.8192 48.8632C36.8123 48.8238 36.8148 48.7834 36.8265 48.7452L38.8299 41.8658C38.8456 41.8122 38.8783 41.7653 38.923 41.732C38.9678 41.6987 39.0222 41.6809 39.0779 41.6813Z" fill="#407BFF"/>
<path d="M39.1757 41.9336L44.3888 42.0566L42.3303 48.5459L37.1172 48.4208L39.1757 41.9336Z" fill="#E0E0E0"/>
<path d="M39.0124 41.87L44.2255 41.8912L42.2941 48.4187L37.0811 48.3975L39.0124 41.87Z" fill="white"/>
<path d="M34.309 42.0057C34.309 42.2177 34.3408 42.4678 34.3578 42.7032C34.3747 42.9385 34.4065 43.1844 34.4383 43.424C34.4977 43.9031 34.5768 44.3751 34.6758 44.8401C34.7709 45.2934 34.897 45.7397 35.0531 46.1757C35.1316 46.3877 35.2185 46.5997 35.3118 46.7863C35.3584 46.8838 35.4093 46.975 35.4602 47.0682L35.5386 47.1976C35.6359 47.2861 35.7508 47.3533 35.8757 47.3947C36.0742 47.4717 36.2783 47.5334 36.4862 47.5792C36.9544 47.6779 37.428 47.7487 37.9045 47.7912C38.884 47.8866 39.9079 47.9332 40.9086 47.9544L41.0103 48.9699C39.9684 49.1766 38.9111 49.2964 37.8494 49.3282C37.298 49.3452 36.7461 49.3225 36.1979 49.2603C35.8976 49.2235 35.6006 49.1633 35.3096 49.0801C34.9377 48.9816 34.5918 48.8029 34.2963 48.5565C34.1973 48.4708 34.1078 48.3749 34.0292 48.2703L33.8935 48.0795C33.8066 47.9523 33.7218 47.8251 33.6497 47.6958C33.4986 47.4436 33.3647 47.1816 33.249 46.9114C33.0226 46.3932 32.8397 45.8571 32.702 45.3086C32.5648 44.7755 32.4593 44.2346 32.3862 43.689C32.3501 43.4197 32.3226 43.1484 32.2992 42.8749C32.2759 42.6014 32.2611 42.3406 32.2568 42.0269L34.309 42.0057Z" fill="#7F3E3B"/>
<path d="M33.6115 38.8787C34.9471 40.1358 34.6248 43.4112 34.6248 43.4112L32.0681 43.8586C32.0681 43.8586 30.4887 41.5096 31.0442 40.5259C31.6208 39.4998 32.8907 38.1982 33.6115 38.8787Z" fill="#407BFF"/>
<path d="M34.6246 43.6996C34.5854 43.7002 34.5465 43.6931 34.5101 43.6785C34.4737 43.664 34.4405 43.6423 34.4126 43.6148C34.399 43.6013 34.3869 43.5864 34.3766 43.5702C34.3668 43.5547 34.3583 43.5384 34.3511 43.5215C34.3468 43.5012 34.344 43.4807 34.3426 43.46C34.3415 43.4416 34.3415 43.4232 34.3426 43.4049C34.3413 43.3658 34.348 43.3268 34.3622 43.2904C34.3764 43.2539 34.3979 43.2208 34.4253 43.1929C34.4392 43.1797 34.4541 43.1677 34.4698 43.1568C34.4849 43.1463 34.5013 43.1377 34.5186 43.1314C34.5363 43.1238 34.5548 43.1181 34.5737 43.1144C34.6154 43.1063 34.6583 43.1075 34.6995 43.1179C34.7406 43.1283 34.779 43.1477 34.8118 43.1746C34.8446 43.2015 34.8711 43.2354 34.8893 43.2737C34.9075 43.3121 34.917 43.354 34.9172 43.3964C34.9194 43.4147 34.9194 43.4332 34.9172 43.4515C34.9138 43.4705 34.9081 43.489 34.9002 43.5066C34.8939 43.5239 34.8853 43.5403 34.8748 43.5554C34.8645 43.5715 34.8524 43.5865 34.8387 43.5999C34.812 43.6306 34.7791 43.6553 34.7423 43.6725C34.7054 43.6896 34.6653 43.6989 34.6246 43.6996Z" fill="white"/>
<path d="M32.3028 43.8522C32.2963 43.776 32.3204 43.7004 32.3697 43.6419C32.419 43.5835 32.4895 43.547 32.5657 43.5406C32.6188 43.5356 32.6722 43.5457 32.7198 43.5697C32.7674 43.5937 32.8073 43.6306 32.8349 43.6762C32.852 43.6258 32.8826 43.5809 32.9233 43.5465C32.964 43.5122 33.0134 43.4896 33.066 43.4812C33.1189 43.4741 33.1727 43.4816 33.2217 43.5029C33.2707 43.5242 33.3128 43.5585 33.3437 43.602C33.3558 43.5504 33.382 43.5033 33.4195 43.4658C33.4569 43.4283 33.5041 43.4021 33.5557 43.39C33.608 43.3791 33.6624 43.383 33.7126 43.4014C33.7628 43.4197 33.8069 43.4518 33.8398 43.4939C33.8523 43.4425 33.8787 43.3956 33.9161 43.3582C33.9535 43.3208 34.0004 43.2944 34.0518 43.2819C34.0888 43.2721 34.1275 43.2699 34.1654 43.2753C34.2033 43.2807 34.2398 43.2937 34.2726 43.3135C34.3054 43.3332 34.3339 43.3594 34.3565 43.3904C34.379 43.4214 34.395 43.4566 34.4037 43.4939C34.4132 43.531 34.4152 43.5695 34.4097 43.6073C34.4041 43.6452 34.3911 43.6815 34.3714 43.7143C34.3517 43.747 34.3256 43.7755 34.2948 43.7981C34.2639 43.8207 34.2289 43.8369 34.1917 43.8458C34.1376 43.8598 34.0806 43.8577 34.0276 43.8401C33.9745 43.8224 33.9277 43.7898 33.8928 43.7462C33.8809 43.801 33.8533 43.8513 33.8134 43.8908C33.7735 43.9303 33.723 43.9574 33.6681 43.9688C33.6131 43.9791 33.5563 43.9733 33.5044 43.9523C33.4525 43.9312 33.4078 43.8958 33.3755 43.8501C33.3615 43.9047 33.3317 43.9539 33.2898 43.9916C33.248 44.0293 33.1959 44.0538 33.1402 44.0621C33.0847 44.0701 33.028 44.0617 32.9772 44.038C32.9263 44.0142 32.8835 43.9762 32.854 43.9285C32.8358 43.9815 32.8028 44.0281 32.7588 44.0627C32.7148 44.0973 32.6617 44.1184 32.606 44.1236H32.5826C32.5106 44.1211 32.4421 44.0919 32.3904 44.0418C32.3387 43.9916 32.3075 43.9241 32.3028 43.8522Z" fill="white"/>
<path d="M32.0688 44.1469C32.0497 44.149 32.0305 44.149 32.0115 44.1469L31.9585 44.1299C31.941 44.1227 31.9239 44.1142 31.9076 44.1045L31.8652 44.0684C31.851 44.0556 31.8388 44.0405 31.8292 44.0239C31.8188 44.0084 31.8096 43.9921 31.8016 43.9752C31.7947 43.9574 31.7898 43.9389 31.7868 43.92C31.7846 43.9017 31.7846 43.8832 31.7868 43.8649C31.7847 43.8459 31.7847 43.8267 31.7868 43.8077C31.7898 43.7895 31.7947 43.7717 31.8016 43.7547C31.8016 43.7377 31.8186 43.7208 31.8292 43.7038C31.8394 43.6882 31.8515 43.674 31.8652 43.6614L31.9076 43.6254C31.9235 43.6148 31.9406 43.6063 31.9585 43.5999C31.9754 43.592 31.9932 43.5863 32.0115 43.583C32.0578 43.5735 32.1056 43.5758 32.1508 43.5895C32.1959 43.6031 32.237 43.6279 32.2702 43.6614C32.2839 43.674 32.296 43.6882 32.3062 43.7038C32.3168 43.7208 32.3253 43.7377 32.3338 43.7547C32.3404 43.772 32.346 43.7897 32.3507 43.8077C32.3518 43.8268 32.3518 43.8459 32.3507 43.8649C32.3519 43.8833 32.3519 43.9017 32.3507 43.92C32.346 43.9387 32.3404 43.9571 32.3338 43.9752C32.3259 43.9921 32.3166 44.0084 32.3062 44.0239C32.296 44.0402 32.2839 44.0551 32.2702 44.0684C32.2156 44.1195 32.1435 44.1476 32.0688 44.1469Z" fill="white"/>
<path d="M43.2888 46.8986L42.4027 46.8393C42.182 46.8238 41.9625 46.8827 41.7794 47.0068L40.1533 48.0986L40.1406 48.7876C40.6621 49.3939 41.8154 48.8512 41.8154 48.8512L42.886 48.8151C42.9713 48.8129 43.054 48.7851 43.1232 48.7351C43.1925 48.6852 43.245 48.6155 43.274 48.5353L43.6619 47.4753C43.6862 47.4128 43.6952 47.3454 43.6884 47.2788C43.6815 47.2121 43.659 47.148 43.6226 47.0917C43.5862 47.0354 43.5369 46.9886 43.4789 46.955C43.4209 46.9215 43.3558 46.9021 43.2888 46.8986Z" fill="#7F3E3B"/>
<path d="M24.9279 77.0429H25.1674C25.2171 77.0381 25.2635 77.0158 25.2984 76.9802C25.3333 76.9445 25.3545 76.8976 25.3582 76.8479L26.8422 66.5786H25.7207L24.7434 76.78C24.7376 76.8095 24.7379 76.8398 24.7441 76.8691C24.7503 76.8984 24.7624 76.9262 24.7796 76.9508C24.7969 76.9753 24.8189 76.9961 24.8443 77.012C24.8698 77.0278 24.8982 77.0383 24.9279 77.0429Z" fill="#407BFF"/>
<path opacity="0.3" d="M24.9279 77.0429H25.1674C25.2171 77.0381 25.2635 77.0158 25.2984 76.9802C25.3333 76.9445 25.3545 76.8976 25.3582 76.8479L26.8422 66.5786H25.7207L24.7434 76.78C24.7376 76.8095 24.7379 76.8398 24.7441 76.8691C24.7503 76.8984 24.7624 76.9262 24.7796 76.9508C24.7969 76.9753 24.8189 76.9961 24.8443 77.012C24.8698 77.0278 24.8982 77.0383 24.9279 77.0429Z" fill="black"/>
<path d="M21.8546 77.0429H22.0942C22.1439 77.0381 22.1902 77.0158 22.2251 76.9802C22.26 76.9445 22.2812 76.8976 22.285 76.8479L23.769 66.5786H22.6475L21.6702 76.78C21.6644 76.8095 21.6646 76.8398 21.6709 76.8691C21.6771 76.8984 21.6892 76.9262 21.7064 76.9508C21.7236 76.9753 21.7456 76.9961 21.7711 77.012C21.7966 77.0278 21.825 77.0383 21.8546 77.0429Z" fill="#407BFF"/>
<path opacity="0.3" d="M21.8546 77.0429H22.0942C22.1439 77.0381 22.1902 77.0158 22.2251 76.9802C22.26 76.9445 22.2812 76.8976 22.285 76.8479L23.769 66.5786H22.6475L21.6702 76.78C21.6644 76.8095 21.6646 76.8398 21.6709 76.8691C21.6771 76.8984 21.6892 76.9262 21.7064 76.9508C21.7236 76.9753 21.7456 76.9961 21.7711 77.012C21.7966 77.0278 21.825 77.0383 21.8546 77.0429Z" fill="black"/>
<path d="M38.9837 77.0429H38.742C38.6927 77.0376 38.6469 77.0152 38.6124 76.9795C38.5779 76.9439 38.557 76.8973 38.5533 76.8479L37.0693 66.5786H38.1887L39.166 76.78C39.1718 76.8093 39.1717 76.8395 39.1656 76.8687C39.1595 76.8979 39.1476 76.9256 39.1306 76.9501C39.1136 76.9746 39.0918 76.9955 39.0666 77.0114C39.0413 77.0274 39.0131 77.0381 38.9837 77.0429Z" fill="#407BFF"/>
<path opacity="0.3" d="M38.9837 77.0429H38.742C38.6927 77.0376 38.6469 77.0152 38.6124 76.9795C38.5779 76.9439 38.557 76.8973 38.5533 76.8479L37.0693 66.5786H38.1887L39.166 76.78C39.1718 76.8093 39.1717 76.8395 39.1656 76.8687C39.1595 76.8979 39.1476 76.9256 39.1306 76.9501C39.1136 76.9746 39.0918 76.9955 39.0666 77.0114C39.0413 77.0274 39.0131 77.0381 38.9837 77.0429Z" fill="black"/>
<path d="M42.0589 77.0429H41.8172C41.7679 77.0376 41.722 77.0152 41.6876 76.9795C41.6531 76.9439 41.6322 76.8973 41.6285 76.8479L40.1445 66.5786H41.2639L42.2412 76.78C42.247 76.8093 42.2469 76.8395 42.2408 76.8687C42.2347 76.8979 42.2228 76.9256 42.2058 76.9501C42.1888 76.9746 42.167 76.9955 42.1418 77.0114C42.1165 77.0274 42.0883 77.0381 42.0589 77.0429Z" fill="#407BFF"/>
<path opacity="0.3" d="M42.0589 77.0429H41.8172C41.7679 77.0376 41.722 77.0152 41.6876 76.9795C41.6531 76.9439 41.6322 76.8973 41.6285 76.8479L40.1445 66.5786H41.2639L42.2412 76.78C42.247 76.8093 42.2469 76.8395 42.2408 76.8687C42.2347 76.8979 42.2228 76.9256 42.2058 76.9501C42.1888 76.9746 42.167 76.9955 42.1418 77.0114C42.1165 77.0274 42.0883 77.0381 42.0589 77.0429Z" fill="black"/>
<path d="M46.0415 54.4056H38.4943C37.1545 49.7543 32.3463 46.0867 27.4025 46.0867H24.9517C19.7874 46.0867 16.4548 50.1147 17.5063 55.0628C17.7054 55.9746 18.0285 56.8548 18.4667 57.6788L19.6581 64.8868C19.8107 65.8175 20.5549 66.5722 21.3159 66.5722H44.0339C44.7949 66.5722 45.5391 65.8175 45.6917 64.8868L47.1439 56.0846C47.2987 55.1603 46.8047 54.4056 46.0415 54.4056Z" fill="#407BFF"/>
<path opacity="0.5" d="M46.0415 54.4056H38.4943C37.1545 49.7543 32.3463 46.0867 27.4025 46.0867H24.9517C19.7874 46.0867 16.4548 50.1147 17.5063 55.0628C17.7054 55.9746 18.0285 56.8548 18.4667 57.6788L19.6581 64.8868C19.8107 65.8175 20.5549 66.5722 21.3159 66.5722H44.0339C44.7949 66.5722 45.5391 65.8175 45.6917 64.8868L47.1439 56.0846C47.2987 55.1603 46.8047 54.4056 46.0415 54.4056Z" fill="white"/>
<path d="M45.0592 20.5958H43.3271V20.8078H45.0592V20.5958Z" fill="#407BFF"/>
<path d="M36.9561 23.0932H36.7441V22.048C36.7447 21.6621 36.8984 21.2922 37.1715 21.0195C37.4445 20.7468 37.8147 20.5937 38.2006 20.5937H42.0653V20.8057H38.2006C37.8709 20.8057 37.5547 20.9365 37.3214 21.1694C37.0881 21.4023 36.9567 21.7183 36.9561 22.048V23.0932Z" fill="#407BFF"/>
<path d="M38.2008 21.3378H57.5288C57.7177 21.3378 57.8989 21.4128 58.0325 21.5464C58.1661 21.68 58.2411 21.8612 58.2411 22.0501V29.6291C58.2411 29.8186 58.1659 30.0003 58.0319 30.1343C57.8979 30.2683 57.7162 30.3436 57.5267 30.3436H38.2008C38.0113 30.3436 37.8296 30.2683 37.6956 30.1343C37.5616 30.0003 37.4863 29.8186 37.4863 29.6291V22.048C37.4866 21.9545 37.5053 21.8619 37.5414 21.7756C37.5774 21.6892 37.6301 21.6109 37.6965 21.5449C37.7628 21.479 37.8415 21.4267 37.928 21.3912C38.0145 21.3557 38.1072 21.3375 38.2008 21.3378Z" fill="#407BFF"/>
<path d="M56.6145 26.3198H39.1139C38.9868 26.3198 38.8649 26.2693 38.7751 26.1795C38.6852 26.0896 38.6348 25.9678 38.6348 25.8407C38.6348 25.7136 38.6852 25.5917 38.7751 25.5019C38.8649 25.412 38.9868 25.3616 39.1139 25.3616H56.6145C56.7416 25.3616 56.8634 25.412 56.9533 25.5019C57.0431 25.5917 57.0936 25.7136 57.0936 25.8407C57.0936 25.9678 57.0431 26.0896 56.9533 26.1795C56.8634 26.2693 56.7416 26.3198 56.6145 26.3198Z" fill="white"/>
<path d="M52.8685 28.3105H39.1139C38.9868 28.3105 38.865 28.26 38.7751 28.1702C38.6853 28.0803 38.6348 27.9584 38.6348 27.8314C38.6342 27.7681 38.6462 27.7053 38.67 27.6467C38.6939 27.5881 38.7291 27.5348 38.7736 27.4898C38.8182 27.4449 38.8712 27.4092 38.9296 27.3849C38.988 27.3605 39.0506 27.348 39.1139 27.348H52.8685C52.9955 27.348 53.1174 27.3985 53.2073 27.4883C53.2971 27.5782 53.3476 27.7001 53.3476 27.8271C53.3481 27.8904 53.3362 27.9532 53.3123 28.0118C53.2885 28.0704 53.2533 28.1237 53.2088 28.1687C53.1642 28.2136 53.1112 28.2493 53.0528 28.2736C52.9944 28.298 52.9317 28.3105 52.8685 28.3105Z" fill="white"/>
<path d="M45.016 24.3291H39.1139C38.9868 24.3291 38.8649 24.2786 38.7751 24.1888C38.6852 24.0989 38.6348 23.9771 38.6348 23.85C38.6348 23.7229 38.6852 23.6011 38.7751 23.5112C38.8649 23.4214 38.9868 23.3709 39.1139 23.3709H45.016C45.143 23.3709 45.2649 23.4214 45.3548 23.5112C45.4446 23.6011 45.4951 23.7229 45.4951 23.85C45.4951 23.9771 45.4446 24.0989 45.3548 24.1888C45.2649 24.2786 45.143 24.3291 45.016 24.3291Z" fill="white"/>
<path d="M52.8392 24.3291H46.9371C46.8101 24.3291 46.6882 24.2786 46.5983 24.1888C46.5085 24.0989 46.458 23.9771 46.458 23.85C46.458 23.7229 46.5085 23.6011 46.5983 23.5112C46.6882 23.4214 46.8101 23.3709 46.9371 23.3709H52.8392C52.9663 23.3709 53.0881 23.4214 53.178 23.5112C53.2678 23.6011 53.3183 23.7229 53.3183 23.85C53.3183 23.9771 53.2678 24.0989 53.178 24.1888C53.0881 24.2786 52.9663 24.3291 52.8392 24.3291Z" fill="white"/>
<path d="M38.6348 29.769V32.065C38.6348 32.1634 38.6622 32.2599 38.7139 32.3436C38.7657 32.4274 38.8397 32.495 38.9277 32.539C39.0158 32.5831 39.1143 32.6017 39.2124 32.5929C39.3104 32.584 39.404 32.548 39.4828 32.489L43.002 29.7669L38.6348 29.769Z" fill="#407BFF"/>
<path d="M68.437 9.964H49.109C49.0151 9.964 48.9222 9.98248 48.8356 10.0184C48.7489 10.0543 48.6701 10.1069 48.6038 10.1733C48.5374 10.2396 48.4848 10.3184 48.4489 10.405C48.413 10.4917 48.3945 10.5846 48.3945 10.6784V18.2574C48.3945 18.4469 48.4698 18.6286 48.6038 18.7626C48.7378 18.8966 48.9195 18.9719 49.109 18.9719H64.373L67.1417 21.1131C67.2204 21.1721 67.3141 21.2081 67.4121 21.2169C67.5101 21.2258 67.6087 21.2071 67.6967 21.1631C67.7847 21.1191 67.8588 21.0514 67.9105 20.9677C67.9623 20.884 67.9897 20.7875 67.9897 20.6891V18.9676H68.4243C68.6138 18.9676 68.7955 18.8924 68.9295 18.7584C69.0635 18.6244 69.1387 18.4427 69.1387 18.2532V10.6784C69.1388 10.4911 69.0652 10.3113 68.934 10.1777C68.8028 10.0441 68.6243 9.96734 68.437 9.964Z" fill="white"/>
<path d="M67.4698 21.3314C67.3288 21.3305 67.1918 21.2836 67.0798 21.1979L64.3407 19.0779H49.1085C48.8911 19.0773 48.6827 18.9907 48.529 18.837C48.3753 18.6832 48.2886 18.4749 48.2881 18.2574V10.6784C48.2886 10.461 48.3753 10.2527 48.529 10.0989C48.6827 9.94518 48.8911 9.85856 49.1085 9.858H68.4366C68.654 9.85856 68.8623 9.94518 69.0161 10.0989C69.1698 10.2527 69.2564 10.461 69.257 10.6784V18.2574C69.2564 18.4749 69.1698 18.6832 69.0161 18.837C68.8623 18.9907 68.654 19.0773 68.4366 19.0779H68.108V20.6933C68.108 20.862 68.041 21.0238 67.9217 21.143C67.8024 21.2623 67.6406 21.3293 67.472 21.3293L67.4698 21.3314ZM49.1085 10.07C48.9473 10.0706 48.7929 10.1348 48.6789 10.2488C48.5649 10.3628 48.5006 10.5172 48.5001 10.6784V18.2574C48.5006 18.4186 48.5649 18.5731 48.6789 18.6871C48.7929 18.801 48.9473 18.8653 49.1085 18.8659H64.4149L67.2048 21.0283C67.2675 21.0778 67.3428 21.1086 67.4222 21.1172C67.5016 21.1257 67.5818 21.1117 67.6536 21.0767C67.7253 21.0417 67.7858 20.9872 67.8279 20.9193C67.87 20.8515 67.8922 20.7732 67.8917 20.6933V18.868H68.4323C68.5935 18.8674 68.748 18.8032 68.8619 18.6892C68.9759 18.5752 69.0402 18.4208 69.0408 18.2596V10.6784C69.0402 10.5172 68.9759 10.3628 68.8619 10.2488C68.748 10.1348 68.5935 10.0706 68.4323 10.07H49.1085Z" fill="#407BFF"/>
<path d="M58.36 14.9481H67.5226C67.5855 14.9481 67.6478 14.9357 67.706 14.9116C67.7641 14.8876 67.8169 14.8523 67.8614 14.8078C67.9059 14.7633 67.9412 14.7105 67.9653 14.6524C67.9894 14.5942 68.0017 14.5319 68.0017 14.469C68.0006 14.3425 67.9497 14.2215 67.8601 14.1322C67.7704 14.0429 67.6492 13.9926 67.5226 13.992H58.36C58.2327 13.9926 58.1109 14.0435 58.0211 14.1337C57.9313 14.2239 57.8809 14.346 57.8809 14.4732C57.882 14.5996 57.933 14.7204 58.0227 14.8093C58.1124 14.8982 58.2336 14.9481 58.36 14.9481Z" fill="#407BFF"/>
<path d="M51.9625 14.9481H56.4993C56.5622 14.9481 56.6245 14.9357 56.6827 14.9116C56.7408 14.8876 56.7936 14.8523 56.8381 14.8078C56.8826 14.7633 56.9179 14.7105 56.942 14.6524C56.966 14.5942 56.9784 14.5319 56.9784 14.469C56.9773 14.3425 56.9264 14.2215 56.8367 14.1322C56.7471 14.0429 56.6259 13.9926 56.4993 13.992H51.9625C51.8353 13.9926 51.7134 14.0435 51.6236 14.1337C51.5338 14.2239 51.4834 14.346 51.4834 14.4732C51.4845 14.5996 51.5355 14.7204 51.6252 14.8093C51.715 14.8982 51.8362 14.9481 51.9625 14.9481Z" fill="#407BFF"/>
<path d="M53.7652 16.9388H67.5219C67.7865 16.9388 68.001 16.7243 68.001 16.4597C68.001 16.1951 67.7865 15.9806 67.5219 15.9806L53.7652 15.9806C53.5006 15.9806 53.2861 16.1951 53.2861 16.4597C53.2861 16.7243 53.5006 16.9388 53.7652 16.9388Z" fill="#407BFF"/>
<path d="M50.0328 12.9574H67.5228C67.6499 12.9574 67.7718 12.907 67.8616 12.8171C67.9515 12.7273 68.002 12.6054 68.002 12.4783C68.002 12.3511 67.9515 12.229 67.8617 12.1388C67.772 12.0486 67.6501 11.9976 67.5228 11.9971H50.0328C49.9056 11.9976 49.7837 12.0486 49.6939 12.1388C49.6041 12.229 49.5537 12.3511 49.5537 12.4783C49.5537 12.6054 49.6042 12.7273 49.694 12.8171C49.7839 12.907 49.9058 12.9574 50.0328 12.9574Z" fill="#407BFF"/>
</svg>
