<svg width="113" height="86" viewBox="0 0 113 86" fill="none" xmlns="http://www.w3.org/2000/svg">
<path d="M112.926 75.8006H0V75.857H112.926V75.8006Z" fill="#EBEBEB"/>
<path d="M19.3279 77.9507H11.8477V78.0071H19.3279V77.9507Z" fill="#EBEBEB"/>
<path d="M49.2109 77.3386H38.6523V77.3951H49.2109V77.3386Z" fill="#EBEBEB"/>
<path d="M29.8097 79.6965H25.4756V79.7529H29.8097V79.6965Z" fill="#EBEBEB"/>
<path d="M77.363 78.7163H70.54V78.7727H77.363V78.7163Z" fill="#EBEBEB"/>
<path d="M83.7365 78.7163H79.373V78.7727H83.7365V78.7163Z" fill="#EBEBEB"/>
<path d="M101.614 79.6694H88.3877V79.7259H101.614V79.6694Z" fill="#EBEBEB"/>
<path d="M53.5269 65.7276H9.91724C9.5756 65.727 9.24816 65.5908 9.0068 65.3491C8.76544 65.1073 8.62988 64.7796 8.62988 64.438V3.13511C8.63286 2.79543 8.76973 2.47065 9.01077 2.2313C9.25181 1.99195 9.57755 1.85737 9.91724 1.85679H53.5269C53.8689 1.85679 54.1969 1.99266 54.4388 2.23451C54.6806 2.47636 54.8165 2.80437 54.8165 3.1464V64.438C54.8165 64.78 54.6806 65.108 54.4388 65.3499C54.1969 65.5917 53.8689 65.7276 53.5269 65.7276ZM9.91724 1.90196C9.59058 1.90256 9.2775 2.03274 9.04673 2.26394C8.81596 2.49513 8.68635 2.80845 8.68635 3.13511V64.438C8.68635 64.7646 8.81596 65.0779 9.04673 65.3091C9.2775 65.5403 9.59058 65.6705 9.91724 65.6711H53.5269C53.8538 65.6705 54.1671 65.5404 54.3982 65.3093C54.6293 65.0781 54.7594 64.7648 54.76 64.438V3.13511C54.7594 2.80824 54.6293 2.49493 54.3982 2.2638C54.1671 2.03267 53.8538 1.90256 53.5269 1.90196H9.91724Z" fill="#EBEBEB"/>
<path d="M102.38 65.7276H58.7681C58.4263 65.727 58.0986 65.5909 57.8569 65.3492C57.6152 65.1075 57.4791 64.7798 57.4785 64.438V3.13511C57.4821 2.79523 57.6195 2.47044 57.8609 2.23116C58.1023 1.99187 58.4282 1.85736 58.7681 1.85679H102.38C102.719 1.85796 103.044 1.99281 103.285 2.23209C103.526 2.47138 103.662 2.79582 103.665 3.13511V64.438C103.665 64.7792 103.53 65.1065 103.289 65.3483C103.048 65.59 102.721 65.7264 102.38 65.7276ZM58.7681 1.90196C58.4413 1.90256 58.1279 2.03267 57.8968 2.2638C57.6657 2.49493 57.5356 2.80824 57.535 3.13511V64.438C57.5356 64.7648 57.6657 65.0781 57.8968 65.3093C58.1279 65.5404 58.4413 65.6705 58.7681 65.6711H102.38C102.707 65.6705 103.02 65.5404 103.251 65.3093C103.482 65.0781 103.613 64.7648 103.613 64.438V3.13511C103.613 2.80824 103.482 2.49493 103.251 2.2638C103.02 2.03267 102.707 1.90256 102.38 1.90196H58.7681Z" fill="#EBEBEB"/>
<path d="M96.1364 7.43307H78.8994V72.2479H96.1364V7.43307Z" fill="#E6E6E6"/>
<path d="M97.1882 7.43307H79.9512V72.2479H97.1882V7.43307Z" fill="#F5F5F5"/>
<path d="M95.2979 70.5246V9.1563H81.8416V70.5246H95.2979Z" fill="white"/>
<path d="M95.2979 70.5246V9.1563H94.5029V70.5246H95.2979Z" fill="#E6E6E6"/>
<path d="M96.4075 60.1829H80.7334V62.4956H96.4075V60.1829Z" fill="#F5F5F5"/>
<path d="M96.4075 12.194H80.7334V14.5067H96.4075V12.194Z" fill="#F5F5F5"/>
<path d="M31.6188 7.43307H14.3818V72.2479H31.6188V7.43307Z" fill="#E6E6E6"/>
<path d="M32.6716 7.43307H15.4346V72.2479H32.6716V7.43307Z" fill="#F5F5F5"/>
<path d="M30.7813 70.5246L30.7812 9.1563H17.325L17.325 70.5246H30.7813Z" fill="white"/>
<path d="M30.7813 70.5246L30.7812 9.1563H29.9863L29.9863 70.5246H30.7813Z" fill="#E6E6E6"/>
<path d="M31.8899 60.1829H16.2158V62.4956H31.8899V60.1829Z" fill="#F5F5F5"/>
<path d="M31.8899 12.194H16.2158V14.5067H31.8899V12.194Z" fill="#F5F5F5"/>
<path d="M39.6639 45.157L74.0791 45.157V12.4086L39.6639 12.4086L39.6639 45.157Z" fill="#F5F5F5"/>
<path d="M39.6643 12.4108H38.8467V45.1593H39.6643V12.4108Z" fill="#F0F0F0"/>
<path d="M72.7266 43.8042V13.7659L41.0215 13.7659V43.8042H72.7266Z" fill="#FAFAFA"/>
<path d="M41.0186 28.6721C51.4732 27.4661 61.9301 29.8759 72.3848 28.6721V28.0691C61.9301 29.2729 51.4732 26.8653 41.0186 28.0691V28.6721Z" fill="#F0F0F0"/>
<path d="M72.7236 43.8042V13.7659H72.3849V43.8042H72.7236Z" fill="#F0F0F0"/>
<path d="M31.111 69.1221C31.0011 69.1197 30.894 69.0866 30.8018 69.0267C30.7096 68.9668 30.6359 68.8824 30.589 68.783C30.5421 68.6836 30.5239 68.573 30.5363 68.4638C30.5487 68.3545 30.5913 68.2509 30.6593 68.1645C30.9935 67.7422 30.1805 66.7642 29.32 65.7276C27.4861 63.5233 24.7149 60.1897 28.5001 56.366C30.8874 53.9539 30.8354 52.9557 30.7022 52.6372C30.4651 52.0726 29.3471 51.9461 28.9857 51.9597C28.8354 51.9504 28.6943 51.8841 28.5911 51.7744C28.488 51.6646 28.4305 51.5197 28.4305 51.3691C28.4305 51.2185 28.488 51.0735 28.5911 50.9638C28.6943 50.854 28.8354 50.7878 28.9857 50.7785C29.2116 50.7785 31.2126 50.7943 31.7998 52.181C32.308 53.3803 31.5062 55.0245 29.3493 57.2017C26.3184 60.262 28.403 62.7667 30.2392 64.9778C31.4159 66.3938 32.5271 67.7286 31.5943 68.903C31.5366 68.9749 31.4628 69.0322 31.3788 69.0703C31.2948 69.1084 31.2031 69.1261 31.111 69.1221Z" fill="#E0E0E0"/>
<path d="M22.5645 63.7988H35.1647L32.3754 75.8005H25.356L22.5645 63.7988Z" fill="#F5F5F5"/>
<path d="M22.4335 64.3363H35.307C35.4494 64.3357 35.5857 64.2789 35.6864 64.1782C35.7871 64.0775 35.8439 63.9412 35.8445 63.7988C35.8439 63.6566 35.787 63.5205 35.6863 63.4202C35.5855 63.3198 35.4492 63.2635 35.307 63.2635H22.4335C22.2933 63.2665 22.1598 63.3241 22.0614 63.4241C21.9631 63.5241 21.9078 63.6586 21.9072 63.7988C21.9072 63.9394 21.9623 64.0744 22.0607 64.1749C22.159 64.2754 22.2929 64.3334 22.4335 64.3363Z" fill="#EBEBEB"/>
<path d="M33.2927 51.1601L21.3881 55.0922C21.3881 55.0922 17.0744 52.1787 20.2069 50.8688C18.7186 48.328 18.5288 43.3705 23.3237 41.9341C28.1185 40.4977 27.7797 47.4991 27.7797 47.4991C27.7797 47.4991 33.6925 41.2453 33.426 48.6735C34.5553 48.3641 39.3275 49.4956 33.2927 51.1601Z" fill="#E0E0E0"/>
<path d="M23.3575 56.5422H37.794C37.794 56.5422 41.6018 53.8545 37.6133 53.9901C38.406 50.5616 36.1746 46.8057 31.1359 46.6612C26.0971 46.5166 27.8701 52.1065 27.8701 52.1065C27.8701 52.1065 19.4074 50.0896 21.9686 54.2543C17.7745 54.4598 19.9427 55.5349 23.3575 56.5422Z" fill="#E6E6E6"/>
<path d="M34.8854 57.3191L23.5432 57.7279C23.2471 57.7314 22.9551 57.6597 22.6943 57.5195C22.4336 57.3792 22.2128 57.1751 22.0525 56.9262C21.6234 56.3186 21.5105 55.571 23.3241 55.3452C22.7436 53.5519 24.0265 50.4284 28.7152 50.1867C33.4038 49.9451 31.0527 54.2792 31.0527 54.2792C31.0527 54.2792 38.1467 51.1828 35.7256 55.7879C36.8142 55.7427 40.7417 57.1091 34.8854 57.3191Z" fill="#E0E0E0"/>
<path d="M56.4622 86C80.6469 86 100.253 84.8554 100.253 83.4434C100.253 82.0314 80.6469 80.8867 56.4622 80.8867C32.2775 80.8867 12.6719 82.0314 12.6719 83.4434C12.6719 84.8554 32.2775 86 56.4622 86Z" fill="#F5F5F5"/>
<path d="M35.89 20.878C34.0539 20.6205 32.4729 25.6005 34.0539 26.8043C35.6348 28.0081 39.1671 28.6563 42.3223 27.256C44.6192 26.2419 44.2014 23.927 42.6046 21.3477C41.3173 19.2767 38.4919 17.0837 35.89 20.878Z" fill="#263238"/>
<path d="M43.8378 31.8159C43.9417 33.0649 44.0185 34.3184 44.0862 35.5696C44.154 36.8208 44.2104 38.0766 44.2601 39.33L44.224 39.1358C44.2087 39.081 44.1818 39.0301 44.1449 38.9867C44.1918 39.033 44.2424 39.0753 44.2963 39.1132C44.4551 39.2249 44.6211 39.326 44.7931 39.4159C45.1613 39.6101 45.5655 39.7998 45.9766 39.9737C46.3876 40.1476 46.8077 40.3238 47.2301 40.4954L48.5016 41.0036L48.2554 41.9793C47.7811 41.9205 47.3227 41.8347 46.8574 41.7534C46.3922 41.6721 45.9337 41.5524 45.4729 41.4282C45.0006 41.3029 44.5355 41.1521 44.0794 40.9765C43.8291 40.8788 43.5861 40.7633 43.3522 40.6309C43.207 40.5513 43.0701 40.4575 42.9434 40.3509C42.8611 40.278 42.7855 40.1979 42.7176 40.1115C42.606 39.979 42.5223 39.8253 42.4714 39.6598L42.4488 39.5875L42.4352 39.4655C42.311 38.2166 42.1868 36.9654 42.0897 35.7141C41.9926 34.4629 41.8864 33.2095 41.8164 31.956L43.8378 31.8159Z" fill="#B65B52"/>
<path d="M43.6943 30.1356C44.1324 31.091 44.3718 33.6454 44.4283 37.3019C43.6203 37.4899 42.8672 37.8634 42.2285 38.3928L41.2393 32.6494L41.7881 31.694C41.9342 31.2856 42.1889 30.9247 42.5248 30.6501C42.8606 30.3755 43.2649 30.1977 43.6943 30.1356Z" fill="#407BFF"/>
<path opacity="0.1" d="M43.6943 30.1356C44.1324 31.091 44.3718 33.6454 44.4283 37.3019C43.6203 37.4899 42.8672 37.8634 42.2285 38.3928L41.2393 32.6494L41.7881 31.694C41.9342 31.2856 42.1889 30.9247 42.5248 30.6501C42.8606 30.3755 43.2649 30.1977 43.6943 30.1356Z" fill="white"/>
<path d="M48.1287 40.8749L50.0101 40.7755L48.865 42.2887C48.865 42.2887 47.6793 42.1171 47.415 41.3853L48.1287 40.8749Z" fill="#B55B52"/>
<path d="M50.8753 42.1735L50.5523 42.5552C50.4704 42.6529 50.359 42.7216 50.2349 42.7509C50.1108 42.7802 49.9805 42.7686 49.8635 42.7178L48.8652 42.2887L50.0103 40.7755L50.7624 41.304C50.8302 41.3511 50.8874 41.4119 50.9303 41.4825C50.9732 41.5531 51.0009 41.6318 51.0115 41.7137C51.0222 41.7956 51.0156 41.8789 50.9921 41.958C50.9686 42.0372 50.9288 42.1106 50.8753 42.1735Z" fill="#B55B52"/>
<path d="M43.6065 30.7386C43.6381 32.0938 43.4484 34.9056 42.4953 40.7552H34.9158C35.0422 37.67 35.1936 35.7367 33.7188 29.4039C34.7316 29.1976 35.7582 29.0662 36.7903 29.0109C37.9362 28.9295 39.0864 28.9295 40.2323 29.0109C40.9754 29.0786 41.7658 29.1983 42.3711 29.3022C42.7118 29.3609 43.0215 29.5364 43.2469 29.7985C43.4723 30.0606 43.5995 30.393 43.6065 30.7386Z" fill="#263238"/>
<path d="M37.8834 32.8752C37.8762 32.8756 37.869 32.8745 37.8624 32.8717C37.8557 32.869 37.8498 32.8648 37.845 32.8594C37.2601 32.1976 36.2098 30.4631 36.1963 29.3564C36.1963 29.3427 36.2018 29.3294 36.2115 29.3197C36.2212 29.31 36.2345 29.3045 36.2482 29.3045C36.2552 29.3042 36.2622 29.3053 36.2688 29.3078C36.2754 29.3102 36.2814 29.314 36.2864 29.3189C36.2915 29.3237 36.2955 29.3296 36.2983 29.336C36.301 29.3425 36.3024 29.3494 36.3024 29.3564C36.3024 30.3231 37.2262 31.9718 37.8834 32.7442C38.2389 32.2521 38.6804 31.8282 39.1866 31.493C39.1923 31.4892 39.1988 31.4867 39.2056 31.4854C39.2123 31.4842 39.2193 31.4843 39.226 31.4858C39.2327 31.4872 39.2391 31.49 39.2447 31.494C39.2504 31.4979 39.2552 31.503 39.2588 31.5088C39.2661 31.5203 39.2687 31.5342 39.2662 31.5476C39.2637 31.561 39.2562 31.5729 39.2453 31.5811C38.7329 31.922 38.2887 32.3555 37.9353 32.8594C37.9316 32.8669 37.9257 32.8732 37.9186 32.8776C37.9114 32.882 37.9031 32.8843 37.8947 32.8842L37.8834 32.8752Z" fill="white"/>
<path d="M41.0091 32.8752C41.0008 32.875 40.9926 32.8726 40.9855 32.8682C40.9783 32.8639 40.9725 32.8577 40.9685 32.8503C40.6164 32.3461 40.1729 31.9125 39.6608 31.572C39.6491 31.5645 39.6409 31.5527 39.6379 31.5392C39.635 31.5256 39.6375 31.5114 39.645 31.4998C39.6525 31.4881 39.6643 31.4798 39.6779 31.4769C39.6914 31.4739 39.7056 31.4765 39.7173 31.4839C40.2235 31.8191 40.6649 32.243 41.0204 32.7352C41.6054 31.9808 41.436 30.2508 41.0453 29.3248C41.0423 29.3184 41.0406 29.3116 41.0404 29.3045C41.0401 29.2975 41.0413 29.2905 41.0439 29.284C41.0464 29.2775 41.0502 29.2715 41.0551 29.2665C41.06 29.2615 41.0659 29.2575 41.0724 29.2548C41.0856 29.2495 41.1003 29.2497 41.1134 29.2552C41.1265 29.2607 41.1369 29.2711 41.1424 29.2841C41.5534 30.2689 41.7206 32.105 41.0543 32.8594C41.0485 32.8653 41.0414 32.8698 41.0336 32.8725C41.0257 32.8753 41.0174 32.8762 41.0091 32.8752Z" fill="white"/>
<path d="M37.1321 25.1353C37.3579 26.242 37.5657 28.2724 36.791 29.0109C37.4195 30.0273 38.3542 30.818 39.4606 31.2694C40.9422 30.3412 40.233 29.0109 40.233 29.0109C38.9976 28.715 39.0315 27.8003 39.246 26.9398L37.1321 25.1353Z" fill="#B55B52"/>
<path opacity="0.2" d="M37.9948 25.8716L39.2438 26.9376C39.1922 27.1384 39.1567 27.3431 39.1376 27.5496C38.6679 27.4819 38.0197 26.9624 37.9677 26.4678C37.9401 26.2691 37.9493 26.067 37.9948 25.8716Z" fill="black"/>
<path d="M35.9642 23.1026C36.3978 24.9094 36.5446 25.6751 37.6287 26.4475C39.2616 27.6084 41.3778 26.6733 41.4907 24.7852C41.5924 23.08 40.8651 20.4218 38.9544 20.013C38.5336 19.9208 38.0962 19.9378 37.6838 20.0623C37.2713 20.1868 36.8976 20.4146 36.598 20.7242C36.2984 21.0337 36.0829 21.4147 35.9719 21.831C35.861 22.2473 35.8583 22.685 35.9642 23.1026Z" fill="#B55B52"/>
<path d="M36.0137 21.149C37.1429 21.7791 40.9711 21.5533 40.402 20.4037C39.8328 19.2541 37.4049 19.5387 36.0137 21.149Z" fill="#263238"/>
<path d="M36.8604 21.0925C37.8474 22.4951 37.5651 24.4284 35.363 24.4351C33.161 24.4419 34.7058 20.6024 36.8604 21.0925Z" fill="#263238"/>
<path d="M38.4912 24.4419L40.5239 24.7152C40.5239 24.7152 40.2641 25.3001 39.3133 25.1669C38.5274 25.0336 38.4912 24.4419 38.4912 24.4419Z" fill="white"/>
<path d="M42.4959 40.7551C42.4959 40.7551 41.8567 54.8099 41.7347 60.5013C41.606 66.4232 41.5495 80.2498 41.5495 80.2498H40.0567C40.0567 80.2498 37.6717 68.7585 38.3786 60.5013C37.3103 54.1617 36.5898 40.7551 36.5898 40.7551H42.4959Z" fill="#B55B52"/>
<path d="M40.5145 40.7551C40.5145 40.7551 37.3526 55.3926 35.8393 60.8785C34.7101 64.9958 26.8414 76.7062 26.785 77.1398L25.5947 76.4848C25.5947 76.4848 30.1931 63.6746 32.2415 60.0361C32.2415 53.6061 34.9156 40.7642 34.9156 40.7642L40.5145 40.7551Z" fill="#B55B52"/>
<path d="M39.0831 23.0868C39.1102 23.2359 39.2096 23.342 39.309 23.3127C39.4084 23.2833 39.4626 23.1613 39.4377 23.0145C39.4129 22.8677 39.3113 22.7593 39.2119 22.7774C39.1125 22.7955 39.0583 22.9377 39.0831 23.0868Z" fill="#263238"/>
<path d="M40.7589 22.7887C40.786 22.9355 40.8854 23.0439 40.9848 23.0145C41.0842 22.9852 41.1384 22.8632 41.1135 22.7141C41.0887 22.5651 40.987 22.4612 40.8877 22.477C40.7883 22.4928 40.7341 22.6351 40.7589 22.7887Z" fill="#263238"/>
<path d="M40.8467 22.5041L41.1832 22.3392C41.1832 22.3392 41.0499 22.6486 40.8467 22.5041Z" fill="#263238"/>
<path d="M40.2168 23.0552C40.4097 23.3693 40.6445 23.6558 40.9147 23.9067C40.8482 23.9739 40.768 24.0258 40.6794 24.059C40.5909 24.0921 40.4963 24.1057 40.402 24.0986L40.2168 23.0552Z" fill="#A02724"/>
<path d="M35.7112 24.1302C35.8497 24.4609 36.1136 24.7232 36.4452 24.8597C36.8856 25.0359 37.1589 24.6542 37.0798 24.2115C37.0076 23.814 36.6936 23.2404 36.2306 23.2517C36.1294 23.2562 36.031 23.286 35.9442 23.3381C35.8573 23.3903 35.7849 23.4633 35.7333 23.5505C35.6818 23.6377 35.6528 23.7363 35.6489 23.8375C35.645 23.9388 35.6664 24.0393 35.7112 24.1302Z" fill="#B55B52"/>
<path d="M38.3103 22.3754C38.3333 22.3689 38.3533 22.3545 38.3668 22.3347C38.4224 22.2383 38.5001 22.1565 38.5936 22.096C38.6871 22.0355 38.7935 21.9981 38.9043 21.9869C38.9275 21.9857 38.9493 21.9757 38.9653 21.9589C38.9813 21.9421 38.9901 21.9198 38.9901 21.8966C38.9898 21.8848 38.9872 21.8732 38.9824 21.8625C38.9775 21.8517 38.9706 21.8421 38.9619 21.8341C38.9533 21.8261 38.9432 21.8199 38.9321 21.8159C38.921 21.8119 38.9093 21.8101 38.8975 21.8107C38.7582 21.8227 38.6238 21.8681 38.5058 21.9433C38.3878 22.0184 38.2898 22.1209 38.22 22.2421C38.2137 22.2519 38.2094 22.2628 38.2074 22.2742C38.2054 22.2857 38.2056 22.2974 38.2082 22.3087C38.2107 22.3201 38.2154 22.3308 38.2221 22.3403C38.2288 22.3498 38.2373 22.3579 38.2471 22.3641C38.2663 22.3749 38.2886 22.3789 38.3103 22.3754Z" fill="#263238"/>
<path d="M41.1039 21.9033C41.115 21.9024 41.1258 21.899 41.1355 21.8936C41.1452 21.8881 41.1537 21.8807 41.1603 21.8717C41.1676 21.8627 41.1731 21.8523 41.1763 21.8412C41.1796 21.83 41.1807 21.8183 41.1794 21.8068C41.1781 21.7953 41.1746 21.7841 41.169 21.7739C41.1634 21.7637 41.1559 21.7548 41.1468 21.7475C41.0389 21.6576 40.9111 21.5947 40.774 21.564C40.6369 21.5334 40.4945 21.5359 40.3586 21.5713C40.3394 21.5812 40.3244 21.5976 40.3162 21.6176C40.3081 21.6376 40.3074 21.6598 40.3142 21.6802C40.321 21.7007 40.3349 21.718 40.3534 21.7291C40.3719 21.7402 40.3938 21.7443 40.415 21.7407C40.5226 21.7139 40.635 21.7131 40.743 21.7382C40.851 21.7633 40.9514 21.8137 41.0361 21.8853C41.0556 21.8997 41.0798 21.9062 41.1039 21.9033Z" fill="#263238"/>
<path d="M39.1709 22.8022L39.5074 22.6351C39.5074 22.6351 39.3742 22.9468 39.1709 22.8022Z" fill="#263238"/>
<path d="M42.6043 41.7647L42.2655 60.5104C42.2655 60.5104 39.9099 60.9327 37.1342 59.4986C35.487 58.6416 33.6286 58.2747 31.7793 58.4416C31.1717 47.0858 33.157 43.5151 34.6792 41.7737L42.6043 41.7647Z" fill="#263238"/>
<path opacity="0.2" d="M41.1609 53.5135L36.9578 50.4035L35.5869 47.8717L41.1609 53.5135Z" fill="black"/>
<path d="M42.9265 39.5988L42.6465 42.2277C40.6364 42.4694 37.7139 42.3813 34.6084 42.2277L34.8546 39.5988C37.7771 39.6982 40.5573 39.7343 42.9265 39.5988Z" fill="white"/>
<path d="M36.5869 28.8663C36.5869 28.8663 36.6457 43.5467 35.9455 47.0971C34.7892 46.0107 33.1924 43.4835 33.1924 43.4835C33.1924 43.4835 34.0958 40.6174 34.3465 39.9331C34.2065 38.9009 33.0501 30.3366 33.2172 29.4445C34.3804 29.0403 36.5869 28.8663 36.5869 28.8663Z" fill="#407BFF"/>
<path opacity="0.2" d="M36.5869 28.8663C36.5869 28.8663 36.6457 43.5467 35.9455 47.0971C34.7892 46.0107 33.1924 43.4835 33.1924 43.4835C33.1924 43.4835 34.0958 40.6174 34.3465 39.9331C34.2065 38.9009 33.0501 30.3366 33.2172 29.4445C34.3804 29.0403 36.5869 28.8663 36.5869 28.8663Z" fill="white"/>
<path d="M34.0824 31.6827C33.5043 32.4664 32.9216 33.2885 32.366 34.1038C31.8104 34.9192 31.2683 35.748 30.785 36.5882C30.6653 36.7982 30.5592 37.0083 30.444 37.2183C30.3852 37.3222 30.3333 37.4284 30.2859 37.5323L30.1481 37.8191C30.1481 37.7852 30.1481 37.7423 30.1481 37.7423C30.1481 37.7423 30.1481 37.7762 30.1481 37.8281C30.2177 37.9822 30.3106 38.1247 30.4236 38.2505C30.7243 38.5909 31.0554 38.9031 31.4129 39.1832C31.7833 39.4836 32.1875 39.784 32.576 40.0595L32.1401 40.9629C31.6331 40.7925 31.1394 40.585 30.663 40.3419C30.1604 40.089 29.6896 39.7774 29.2605 39.4136C29.0016 39.1935 28.7804 38.9326 28.6055 38.6412C28.4896 38.4483 28.4086 38.2366 28.3661 38.0156C28.3145 37.7405 28.3339 37.4567 28.4226 37.1912L28.4407 37.1415V37.1144L28.461 37.0648L28.4994 36.9699L28.5762 36.7802C28.6259 36.6492 28.6778 36.525 28.7343 36.403C28.8449 36.1568 28.9601 35.9129 29.0798 35.6803C29.5562 34.7483 30.084 33.8435 30.6608 32.9701C30.9408 32.5364 31.2322 32.1096 31.5303 31.6895C31.8284 31.2694 32.1288 30.8561 32.4563 30.4383L34.0824 31.6827Z" fill="#B65B52"/>
<path d="M32.3484 39.9647L34.3608 39.8134L33.2496 41.3514C33.2496 41.3514 32.0594 41.2046 31.7793 40.4819L32.3484 39.9647Z" fill="#B55B52"/>
<path d="M35.2326 41.2159L34.939 41.5773C34.8575 41.6785 34.7463 41.7515 34.6211 41.7859C34.4958 41.8204 34.3629 41.8145 34.2411 41.7692L33.2451 41.3514L34.3563 39.8134L35.0948 40.308C35.1665 40.3562 35.2273 40.4187 35.2735 40.4917C35.3197 40.5646 35.3502 40.6463 35.3632 40.7317C35.3762 40.817 35.3712 40.9042 35.3488 40.9875C35.3263 41.0709 35.2867 41.1486 35.2326 41.2159Z" fill="#B55B52"/>
<path d="M40.8379 28.8663C40.8379 28.8663 41.6871 34.7024 41.8407 39.373C41.9333 42.1758 41.4228 45.742 41.4816 47.0971C42.2225 46.3574 42.7956 45.467 43.1619 44.4862C43.1619 44.4862 43.5052 43.2621 43.0806 39.9331C43.1958 39.0929 43.7039 33.3247 43.8033 30.7296C43.8168 30.3878 43.7118 30.0518 43.506 29.7785C43.3002 29.5052 43.0063 29.3115 42.6741 29.23C41.73 29.0064 40.8379 28.8663 40.8379 28.8663Z" fill="#407BFF"/>
<g opacity="0.2">
<path d="M40.8379 28.8663C40.8379 28.8663 41.6871 34.7024 41.8407 39.373C41.9333 42.1758 41.4228 45.742 41.4816 47.0971C42.2225 46.3574 42.7956 45.467 43.1619 44.4862C43.1619 44.4862 43.5052 43.2621 43.0806 39.9331C43.1958 39.0929 43.7039 33.3247 43.8033 30.7296C43.8168 30.3878 43.7118 30.0518 43.506 29.7785C43.3002 29.5052 43.0063 29.3115 42.6741 29.23C41.73 29.0064 40.8379 28.8663 40.8379 28.8663Z" fill="white"/>
</g>
<path d="M39.5781 32.6109C39.4968 32.6109 39.411 32.5025 39.3771 32.3444C39.341 32.1773 39.3771 32.035 39.4675 32.017C39.5578 31.9989 39.6572 32.1141 39.6933 32.2812C39.72 32.3746 39.7104 32.4747 39.6662 32.5613C39.65 32.5861 39.625 32.6038 39.5962 32.6109H39.5781ZM39.4291 32.3331C39.4607 32.4777 39.5397 32.559 39.5872 32.559C39.5947 32.5572 39.6018 32.5539 39.6081 32.5492C39.6143 32.5446 39.6195 32.5387 39.6233 32.5319C39.6572 32.4567 39.6636 32.3719 39.6414 32.2925C39.612 32.1502 39.5307 32.0666 39.4788 32.0666C39.4268 32.0666 39.3975 32.1886 39.4291 32.3309V32.3331Z" fill="white"/>
<path d="M39.8164 34.1964C39.7283 34.1964 39.6515 34.0767 39.6335 33.9141C39.6154 33.7515 39.6673 33.6115 39.7577 33.6002C39.7729 33.5992 39.7881 33.6013 39.8025 33.6063C39.8168 33.6114 39.83 33.6193 39.8412 33.6295C39.9082 33.6975 39.9483 33.7873 39.9542 33.8825C39.9699 33.9767 39.9498 34.0734 39.8977 34.1535C39.8888 34.1653 39.8776 34.1751 39.8648 34.1825C39.852 34.1899 39.8378 34.1946 39.8232 34.1964H39.8164ZM39.769 33.6521C39.717 33.6521 39.6741 33.7605 39.6899 33.9051C39.7057 34.0496 39.769 34.1309 39.8209 34.1309C39.8285 34.1301 39.8359 34.1277 39.8425 34.1238C39.8491 34.1199 39.8549 34.1146 39.8593 34.1084C39.9008 34.0409 39.9168 33.9608 39.9045 33.8825C39.9023 33.798 39.8685 33.7173 39.8096 33.6566C39.7969 33.6508 39.7826 33.6493 39.769 33.6521Z" fill="white"/>
<path d="M39.8898 35.7729C39.7995 35.7729 39.7318 35.6419 39.7295 35.477C39.7295 35.3099 39.795 35.1834 39.8853 35.1812C39.9003 35.1813 39.9151 35.1845 39.9287 35.1908C39.9423 35.197 39.9545 35.206 39.9644 35.2173C40.0253 35.2897 40.0567 35.3825 40.0525 35.477C40.0579 35.5692 40.0307 35.6604 39.9757 35.7345C39.9647 35.7463 39.9514 35.7559 39.9367 35.7625C39.9219 35.7691 39.906 35.7726 39.8898 35.7729ZM39.7792 35.477C39.7792 35.6193 39.8379 35.7187 39.8898 35.7209C39.9058 35.7188 39.9203 35.7108 39.9305 35.6984C39.9803 35.6342 40.0038 35.5534 39.996 35.4725C40.002 35.3911 39.977 35.3104 39.926 35.2466C39.9209 35.2407 39.9147 35.2359 39.9077 35.2324C39.9007 35.2289 39.8931 35.2268 39.8853 35.2263C39.8356 35.2263 39.7814 35.3257 39.7814 35.468L39.7792 35.477Z" fill="white"/>
<path d="M39.8041 37.3267H39.7906C39.7025 37.3154 39.646 37.1845 39.6618 37.0218C39.6776 36.857 39.7589 36.7373 39.847 36.7463C39.8771 36.7506 39.9045 36.7659 39.9238 36.7892C39.9743 36.8675 39.9951 36.9612 39.9825 37.0535C39.9781 37.1461 39.9395 37.2338 39.8741 37.2996C39.8545 37.3162 39.8298 37.3258 39.8041 37.3267ZM39.7138 37.0264C39.7002 37.1664 39.7477 37.268 39.7973 37.2748C39.8055 37.2753 39.8138 37.2742 39.8215 37.2715C39.8293 37.2688 39.8364 37.2645 39.8425 37.259C39.8959 37.2017 39.9271 37.1272 39.9306 37.0489C39.9409 36.9705 39.9242 36.8908 39.8832 36.8231C39.8731 36.8102 39.8586 36.8013 39.8425 36.7982C39.7928 36.7982 39.7318 36.8886 39.7183 37.0241L39.7138 37.0264Z" fill="white"/>
<path d="M39.6656 38.8535C39.5753 38.8422 39.5211 38.7112 39.5369 38.5486C39.5505 38.3905 39.6272 38.2753 39.7131 38.2753C39.7281 38.277 39.7426 38.2816 39.7558 38.289C39.769 38.2963 39.7806 38.3063 39.7899 38.3182C39.8409 38.3953 39.8611 38.4889 39.8463 38.5802C39.8437 38.6721 39.8057 38.7595 39.7402 38.8241C39.7196 38.8425 39.6932 38.8529 39.6656 38.8535ZM39.7018 38.3295C39.6521 38.3295 39.5911 38.4176 39.5776 38.5554C39.564 38.6954 39.6092 38.797 39.6611 38.8038C39.6779 38.8038 39.6941 38.7973 39.7063 38.7857C39.7592 38.7292 39.7897 38.6553 39.7921 38.5779C39.8053 38.4997 39.7893 38.4193 39.747 38.3521C39.7423 38.3453 39.7363 38.3396 39.7293 38.3354C39.7223 38.3311 39.7144 38.3283 39.7063 38.3272L39.7018 38.3295Z" fill="white"/>
<path opacity="0.2" d="M34.0536 32.6832C33.9727 33.2254 33.8279 33.7561 33.6222 34.2642C33.577 33.878 33.5319 33.4918 33.4912 33.1214L34.0536 32.6832Z" fill="black"/>
<path d="M33.1995 29.4445C32.3593 30.0746 30.6722 32.6719 28.8857 35.861C29.4699 36.3443 30.027 36.8592 30.5548 37.4035L34.1684 32.8233L34.1413 31.7211C34.2069 31.2918 34.1538 30.8528 33.9878 30.4515C33.8218 30.0502 33.5492 29.702 33.1995 29.4445Z" fill="#407BFF"/>
<path opacity="0.2" d="M33.1995 29.4445C32.3593 30.0746 30.6722 32.6719 28.8857 35.861C29.4699 36.3443 30.027 36.8592 30.5548 37.4035L34.1684 32.8233L34.1413 31.7211C34.2069 31.2918 34.1538 30.8528 33.9878 30.4515C33.8218 30.0502 33.5492 29.702 33.1995 29.4445Z" fill="white"/>
<path d="M41.5558 78.8902C41.82 81.1035 43.2316 82.8155 43.2316 82.8155L40.9347 82.226L39.8867 80.5795L40.1126 80.1459L41.5558 78.8902Z" fill="#B55B52"/>
<path d="M39.7951 80.0217C39.7052 80.2129 39.6619 80.4226 39.6687 80.6338C39.6822 81.3994 39.768 83.4343 39.768 83.4343H39.9487C39.9466 82.8082 39.9783 82.1824 40.0436 81.5597C40.1317 81.0538 40.4953 81.6523 40.6895 82.2238C40.8837 82.7952 41.6945 83.4072 42.8622 83.4343C44.2309 83.4682 44.7865 83.4072 44.389 83.0752C43.9915 82.7432 43.0835 82.5309 43.0835 82.5309C42.7121 82.5208 42.3498 82.4136 42.0328 82.2198C41.7157 82.026 41.4551 81.7525 41.2767 81.4265C40.8702 80.6925 40.3733 79.963 40.0368 79.7913C39.9815 79.8085 39.9308 79.8382 39.8889 79.8781C39.847 79.9181 39.8149 79.9672 39.7951 80.0217Z" fill="#263238"/>
<path d="M27.0358 76.661C26.4057 78.2126 26.3334 80.5637 26.3334 80.5637L24.8428 78.3707L25.1319 76.442L25.5836 76.2658L27.0358 76.661Z" fill="#B55B52"/>
<path d="M25.4304 75.9608C25.2376 76.045 25.068 76.1744 24.9358 76.338C24.4412 76.9252 23.1719 78.5175 23.1719 78.5175L23.3074 78.6349C23.7174 78.1604 24.1524 77.7081 24.6105 77.2798C25.008 76.9569 24.8861 77.6434 24.6602 78.2058C24.4344 78.7682 24.6422 79.7574 25.5049 80.5456C26.5145 81.4694 26.973 81.7878 26.8916 81.2774C26.8103 80.767 26.266 80.0013 26.266 80.0013C25.9946 79.75 25.7935 79.4321 25.6826 79.0792C25.5717 78.7262 25.5548 78.3504 25.6337 77.989C25.8076 77.1669 25.916 76.2929 25.7714 75.9405C25.7169 75.917 25.6577 75.9066 25.5985 75.9101C25.5393 75.9137 25.4817 75.931 25.4304 75.9608Z" fill="#263238"/>
<path d="M50.3653 42.2006H85.4151C86.3916 42.2156 87.3274 42.5942 88.0396 43.2625C88.7517 43.9308 89.189 44.8407 89.2659 45.8142L90.6436 67.3469C90.678 67.8112 90.6157 68.2775 90.4606 68.7165C90.3055 69.1555 90.061 69.5575 89.7426 69.8971C89.4242 70.2367 89.0388 70.5066 88.6108 70.6896C88.1827 70.8727 87.7214 70.9649 87.2558 70.9605H52.1947C51.2203 70.9423 50.2875 70.5623 49.5779 69.8943C48.8682 69.2264 48.4324 68.3184 48.3552 67.3469L46.9775 45.8188C46.9421 45.3541 47.0037 44.8871 47.1583 44.4474C47.313 44.0078 47.5573 43.6051 47.8759 43.2649C48.1944 42.9247 48.5802 42.6544 49.0087 42.4712C49.4373 42.288 49.8992 42.1958 50.3653 42.2006Z" fill="#407BFF"/>
<path opacity="0.3" d="M50.3653 42.2006H85.4151C86.3916 42.2156 87.3274 42.5942 88.0396 43.2625C88.7517 43.9308 89.189 44.8407 89.2659 45.8142L90.6436 67.3469C90.678 67.8112 90.6157 68.2775 90.4606 68.7165C90.3055 69.1555 90.061 69.5575 89.7426 69.8971C89.4242 70.2367 89.0388 70.5066 88.6108 70.6896C88.1827 70.8727 87.7214 70.9649 87.2558 70.9605H52.1947C51.2203 70.9423 50.2875 70.5623 49.5779 69.8943C48.8682 69.2264 48.4324 68.3184 48.3552 67.3469L46.9775 45.8188C46.9421 45.3541 47.0037 44.8871 47.1583 44.4474C47.313 44.0078 47.5573 43.6051 47.8759 43.2649C48.1944 42.9247 48.5802 42.6544 49.0087 42.4712C49.4373 42.288 49.8992 42.1958 50.3653 42.2006Z" fill="white"/>
<path d="M52.1973 70.9673H87.254C88.1144 70.9751 88.9449 70.6516 89.5735 70.0639L68.6099 53.5316L49.7559 70.0639C50.4375 70.6439 51.3024 70.9639 52.1973 70.9673Z" fill="#407BFF"/>
<path opacity="0.5" d="M52.1973 70.9673H87.254C88.1144 70.9751 88.9449 70.6516 89.5735 70.0639L68.6099 53.5316L49.7559 70.0639C50.4375 70.6439 51.3024 70.9639 52.1973 70.9673Z" fill="white"/>
<path d="M68.9439 58.7714L87.2763 42.6975C86.7103 42.3709 86.0687 42.198 85.4153 42.1961H50.3654C49.7282 42.1918 49.1024 42.3654 48.5586 42.6975L68.9439 58.7714Z" fill="#407BFF"/>
<path d="M81.5559 42.2842L80.334 23.1546C80.2956 22.6306 80.062 22.14 79.6793 21.78C79.2967 21.4199 78.7929 21.2165 78.2675 21.21H50.9395C51.4649 21.217 51.9687 21.4205 52.3516 21.7804C52.7345 22.1403 52.9688 22.6306 53.0083 23.1546L54.2211 42.1261" fill="white"/>
<path d="M81.5559 42.562C81.4834 42.5621 81.4136 42.5346 81.3608 42.4851C81.3079 42.4356 81.2759 42.3678 81.2713 42.2955L80.0494 23.1659C80.0166 22.714 79.8152 22.2909 79.4852 21.9805C79.1551 21.6701 78.7205 21.4951 78.2675 21.49H52.4572C52.6985 21.6939 52.8965 21.944 53.0396 22.2256C53.1828 22.5072 53.2681 22.8146 53.2906 23.1297L54.5034 42.1013C54.5083 42.1401 54.5052 42.1796 54.4942 42.2172C54.4833 42.2548 54.4648 42.2898 54.4398 42.32C54.4149 42.3502 54.384 42.3749 54.3491 42.3927C54.3142 42.4105 54.276 42.421 54.2369 42.4234C54.1978 42.4259 54.1586 42.4203 54.1218 42.4071C54.0849 42.3938 54.0511 42.3732 54.0226 42.3464C53.994 42.3196 53.9712 42.2872 53.9556 42.2513C53.9401 42.2153 53.932 42.1766 53.932 42.1374L52.7214 23.1659C52.6886 22.7136 52.4868 22.2902 52.1563 21.9798C51.8258 21.6693 51.3906 21.4945 50.9372 21.49C50.8658 21.4837 50.7994 21.4508 50.751 21.398C50.7026 21.3451 50.6758 21.276 50.6758 21.2043C50.6758 21.1327 50.7026 21.0636 50.751 21.0107C50.7994 20.9578 50.8658 20.925 50.9372 20.9186H78.2652C78.8648 20.9237 79.4405 21.1538 79.8785 21.5633C80.3164 21.9728 80.5846 22.5319 80.6299 23.1297L81.854 42.2593C81.8583 42.3351 81.8325 42.4094 81.7821 42.4662C81.7317 42.5229 81.6609 42.5573 81.5852 42.562H81.5559Z" fill="#407BFF"/>
<path d="M50.937 21.2032C50.6865 21.2006 50.4382 21.2501 50.2079 21.3486C49.9776 21.447 49.7703 21.5923 49.5991 21.7752C49.4279 21.958 49.2966 22.1745 49.2136 22.4108C49.1305 22.6471 49.0975 22.8981 49.1166 23.1478H53.0058C52.9663 22.6238 52.732 22.1335 52.3491 21.7736C51.9662 21.4137 51.4624 21.2102 50.937 21.2032Z" fill="#407BFF"/>
<path d="M53.0061 23.4346H49.1169C49.0441 23.4347 48.974 23.4069 48.9211 23.3569C48.8682 23.307 48.8364 23.2386 48.8324 23.1659C48.8101 22.8771 48.8482 22.5869 48.9442 22.3136C49.0402 22.0404 49.192 21.7901 49.39 21.5787C49.588 21.3674 49.8278 21.1995 50.0942 21.0859C50.3606 20.9722 50.6477 20.9153 50.9373 20.9186C51.5367 20.9242 52.1122 21.1545 52.55 21.5639C52.9878 21.9733 53.2562 22.5321 53.302 23.1297C53.3042 23.1688 53.2986 23.208 53.2854 23.2448C53.2722 23.2817 53.2517 23.3155 53.2252 23.3443C53.1969 23.3737 53.1629 23.397 53.1251 23.4125C53.0874 23.4281 53.0469 23.4356 53.0061 23.4346ZM49.406 22.861H52.6741C52.5779 22.4719 52.3551 22.1258 52.0407 21.8772C51.7262 21.6286 51.3381 21.4916 50.9373 21.4878C50.5557 21.4805 50.1855 21.6182 49.9014 21.873C49.6172 22.1278 49.4402 22.4808 49.406 22.861Z" fill="#407BFF"/>
<path d="M78.2675 21.2032H50.9395C51.4649 21.2102 51.9687 21.4137 52.3516 21.7736C52.7345 22.1335 52.9688 22.6238 53.0083 23.1478L54.5599 47.4291L68.9443 58.7713L81.8947 47.5781L80.334 23.1433C80.2945 22.6201 80.0604 22.1306 79.6779 21.7715C79.2953 21.4124 78.7921 21.2096 78.2675 21.2032Z" fill="white"/>
<path opacity="0.3" d="M54.5566 47.4291L68.9411 58.7759L81.8937 47.5827L67.9158 56.8132L54.5566 47.4291Z" fill="#407BFF"/>
<path opacity="0.3" d="M78.9308 36.5702H56.122L56.0068 34.7927H78.8178L78.9308 36.5702Z" fill="#407BFF"/>
<path opacity="0.3" d="M74.2333 42.0787H56.4723L56.3594 40.3012H74.1203L74.2333 42.0787Z" fill="#407BFF"/>
<path opacity="0.3" d="M79.6357 47.5872H66.2291L66.1162 45.8075H79.5228L79.6357 47.5872Z" fill="#407BFF"/>
<path opacity="0.3" d="M56.8248 47.5872H64.0024L63.8872 45.8075H56.7119L56.8248 47.5872Z" fill="#407BFF"/>
<g opacity="0.5">
<path d="M55.7973 28.313L55.7002 26.8043H56.4794C56.5913 26.8006 56.7032 26.8135 56.8114 26.8427C56.8887 26.8666 56.9566 26.914 57.0056 26.9782C57.057 27.0503 57.0861 27.1359 57.0892 27.2244C57.0982 27.2956 57.0863 27.3678 57.055 27.4324C57.0238 27.4969 56.9744 27.551 56.913 27.588C56.8633 27.6172 56.8091 27.6378 56.7527 27.649C56.7965 27.6611 56.8383 27.6793 56.8769 27.7032C56.9365 27.7525 56.9876 27.8113 57.0282 27.8771L57.2834 28.313H56.7549L56.4771 27.8613C56.4533 27.8178 56.4219 27.7788 56.3845 27.7461C56.3501 27.7221 56.309 27.7095 56.2671 27.71H56.2377L56.2784 28.3221L55.7973 28.313ZM56.2084 27.4096H56.4049C56.4461 27.4067 56.4869 27.3999 56.5268 27.3893C56.5568 27.3836 56.5835 27.3666 56.6013 27.3419C56.6183 27.3158 56.6262 27.2848 56.6239 27.2538C56.6238 27.2321 56.6188 27.2108 56.6095 27.1912C56.6001 27.1717 56.5865 27.1545 56.5697 27.1409C56.5164 27.1102 56.4548 27.0968 56.3936 27.1025H56.188L56.2084 27.4096Z" fill="#407BFF"/>
<path d="M57.333 26.8043H58.5842L58.6046 27.1273H57.8186L57.8321 27.3667H58.5594L58.5774 27.6738H57.8525L57.8705 27.972H58.6768L58.6994 28.313H57.4256L57.333 26.8043Z" fill="#407BFF"/>
<path d="M59.9193 27.6965L60.3372 27.8207C60.3209 27.9234 60.2823 28.0213 60.2242 28.1075C60.1728 28.1839 60.1007 28.2442 60.0165 28.2814C59.9119 28.3239 59.7995 28.3439 59.6867 28.3401C59.5476 28.3446 59.4092 28.32 59.2802 28.2679C59.1631 28.2126 59.0638 28.1258 58.9933 28.0172C58.9076 27.8815 58.8585 27.7258 58.8511 27.5655C58.8366 27.4634 58.8436 27.3595 58.8716 27.2604C58.8996 27.1612 58.948 27.069 59.0137 26.9895C59.0859 26.9187 59.1724 26.8641 59.2675 26.8294C59.3625 26.7947 59.4639 26.7808 59.5648 26.7885C59.7234 26.7815 59.8806 26.8216 60.0165 26.9037C60.1386 26.9923 60.2308 27.116 60.2807 27.2583L59.8764 27.3487C59.8635 27.3134 59.846 27.28 59.8245 27.2493C59.7967 27.2148 59.7621 27.1864 59.7228 27.1657C59.6826 27.1465 59.6387 27.1365 59.5941 27.1364C59.5484 27.1356 59.5033 27.1472 59.4636 27.1698C59.4238 27.1925 59.3909 27.2254 59.3683 27.2651C59.3245 27.3571 59.3088 27.46 59.3231 27.561C59.3196 27.6837 59.3543 27.8044 59.4225 27.9065C59.4506 27.9381 59.4855 27.9629 59.5247 27.9789C59.5638 27.995 59.6061 28.0019 59.6483 27.9991C59.6849 28.0021 59.7217 27.997 59.7561 27.9841C59.7904 27.9712 59.8215 27.9509 59.8471 27.9246C59.8912 27.8564 59.9162 27.7776 59.9193 27.6965Z" fill="#407BFF"/>
<path d="M60.488 27.5609C60.4742 27.4584 60.4822 27.3542 60.5114 27.2549C60.5405 27.1557 60.5903 27.0637 60.6574 26.985C60.7309 26.9131 60.8189 26.8576 60.9154 26.8222C61.012 26.7867 61.1149 26.7722 61.2175 26.7795C61.434 26.7678 61.6466 26.8398 61.8115 26.9805C61.9621 27.1311 62.048 27.3345 62.0509 27.5474C62.0665 27.6947 62.0455 27.8437 61.9899 27.981C61.9391 28.0923 61.8546 28.1847 61.7483 28.2453C61.6214 28.313 61.4787 28.3457 61.335 28.3401C61.1884 28.3446 61.0427 28.3169 60.9081 28.2588C60.7895 28.2019 60.6893 28.1126 60.619 28.0013C60.5381 27.8683 60.493 27.7166 60.488 27.5609ZM60.9533 27.5609C60.952 27.6788 60.9893 27.7938 61.0594 27.8884C61.088 27.9199 61.1229 27.9451 61.1618 27.9622C61.2007 27.9793 61.2428 27.988 61.2853 27.9878C61.3279 27.9906 61.3706 27.9832 61.4099 27.9663C61.4491 27.9494 61.4838 27.9235 61.5111 27.8907C61.5694 27.7839 61.5901 27.6606 61.5699 27.5406C61.572 27.4275 61.5345 27.3172 61.4637 27.2289C61.4333 27.1962 61.3961 27.1703 61.3548 27.1532C61.3135 27.136 61.269 27.128 61.2243 27.1296C61.1814 27.1267 61.1385 27.1342 61.0992 27.1515C61.0599 27.1688 61.0253 27.1954 60.9985 27.2289C60.9452 27.3318 60.9293 27.4499 60.9533 27.5632V27.5609Z" fill="#407BFF"/>
<path d="M62.25 26.8043H62.8621L63.1579 27.7235L63.3341 26.8043H63.9484L64.0433 28.313H63.6616L63.5893 27.1634L63.3634 28.313H63.0134L62.6452 27.1634L62.7198 28.313H62.3381L62.25 26.8043Z" fill="#407BFF"/>
<path d="M64.2393 26.8043H64.8536L65.1472 27.7235L65.3233 26.8043H65.949L66.0461 28.313H65.6621L65.5899 27.1634L65.364 28.313H65.0184L64.6503 27.1634L64.7248 28.313H64.3432L64.2393 26.8043Z" fill="#407BFF"/>
<path d="M66.2334 26.8043H67.4846L67.5049 27.1273H66.7212L66.737 27.3667H67.462L67.4824 27.6738H66.7574L66.7754 27.972H67.5817L67.6021 28.313H66.3305L66.2334 26.8043Z" fill="#407BFF"/>
<path d="M67.7559 26.8043H68.2076L68.8287 27.64L68.7767 26.8043H69.2149L69.312 28.313H68.8716L68.255 27.4864L68.3069 28.313H67.8688L67.7559 26.8043Z" fill="#407BFF"/>
<path d="M69.5195 26.8043H70.2129C70.327 26.7998 70.4408 26.819 70.5472 26.8608C70.6341 26.8944 70.7116 26.9487 70.773 27.0189C70.8329 27.0911 70.8789 27.1738 70.9085 27.2628C70.9394 27.3572 70.9584 27.4551 70.965 27.5542C70.977 27.68 70.9663 27.807 70.9334 27.9291C70.9062 28.0149 70.8581 28.0925 70.7933 28.1549C70.738 28.2118 70.6687 28.2531 70.5923 28.2746C70.5026 28.3001 70.41 28.3138 70.3168 28.3153H69.6234L69.5195 26.8043ZM70.0141 27.1521L70.0661 27.9765H70.179C70.25 27.9817 70.3212 27.9701 70.3868 27.9426C70.429 27.9171 70.4604 27.8769 70.4749 27.8297C70.4984 27.7445 70.5046 27.6554 70.493 27.5677C70.4978 27.4505 70.4627 27.335 70.3936 27.2402C70.3581 27.208 70.3162 27.1835 70.2707 27.1684C70.2252 27.1532 70.1771 27.1477 70.1293 27.1521H70.0141Z" fill="#407BFF"/>
<path d="M72.0716 28.0556H71.5431L71.4844 28.304H71.0078L71.4798 26.7953H71.988L72.652 28.304H72.1642L72.0716 28.0556ZM71.9541 27.7303L71.7531 27.186L71.6221 27.7303H71.9541Z" fill="#407BFF"/>
<path d="M72.4531 26.8043H73.8692L73.8941 27.177H73.4175L73.492 28.3062H73.0245L72.9523 27.177H72.4757L72.4531 26.8043Z" fill="#407BFF"/>
<path d="M74.1006 26.8043H74.5681L74.6652 28.313H74.1977L74.1006 26.8043Z" fill="#407BFF"/>
<path d="M74.8933 27.5609C74.8795 27.4584 74.8874 27.3542 74.9166 27.2549C74.9458 27.1557 74.9956 27.0637 75.0627 26.985C75.136 26.9129 75.224 26.8572 75.3206 26.8218C75.4171 26.7863 75.5202 26.7719 75.6228 26.7795C75.8386 26.7677 76.0506 26.8397 76.2145 26.9805C76.3659 27.1307 76.4527 27.3341 76.4562 27.5474C76.4717 27.6947 76.4508 27.8437 76.3952 27.981C76.3444 28.0923 76.2598 28.1847 76.1536 28.2453C76.0266 28.313 75.884 28.3457 75.7402 28.3401C75.5937 28.3449 75.4479 28.3172 75.3134 28.2588C75.1947 28.2019 75.0945 28.1126 75.0243 28.0013C74.9434 27.8683 74.8983 27.7166 74.8933 27.5609ZM75.3586 27.5609C75.3573 27.6788 75.3945 27.7938 75.4647 27.8884C75.4945 27.9214 75.5312 27.9474 75.5722 27.9645C75.6132 27.9817 75.6575 27.9897 75.7018 27.9878C75.7445 27.9906 75.7872 27.9832 75.8264 27.9663C75.8657 27.9494 75.9004 27.9235 75.9277 27.8907C75.986 27.7839 76.0067 27.6606 75.9864 27.5406C75.9877 27.4276 75.9502 27.3177 75.8803 27.2289C75.8498 27.1962 75.8127 27.1703 75.7714 27.1532C75.7301 27.136 75.6856 27.128 75.6409 27.1296C75.598 27.1267 75.5551 27.1342 75.5158 27.1515C75.4764 27.1688 75.4419 27.1954 75.415 27.2289C75.3568 27.33 75.3368 27.4486 75.3586 27.5632V27.5609Z" fill="#407BFF"/>
<path d="M76.6611 26.8043H77.097L77.7181 27.64L77.6662 26.8043H78.1043L78.2014 28.313H77.7633L77.1445 27.4864L77.1964 28.313H76.7582L76.6611 26.8043Z" fill="#407BFF"/>
<path d="M62.6318 29.0922H63.0994L63.1716 30.2215H63.8989L63.9237 30.5941H62.729L62.6318 29.0922Z" fill="#407BFF"/>
<path d="M64.0391 29.0922H65.288L65.3083 29.4129H64.5269L64.5427 29.6523H65.2722L65.2925 29.9617H64.5653L64.5856 30.2598H65.3896L65.4122 30.6009H64.143L64.0391 29.0922Z" fill="#407BFF"/>
<path d="M65.4541 29.0922H66.8724L66.8973 29.4649H66.4207L66.493 30.5941H66.0278L65.9555 29.4649H65.4789L65.4541 29.0922Z" fill="#407BFF"/>
<path d="M66.9795 29.0922H68.3956L68.4204 29.4649H67.9439L68.0184 30.5941H67.5509L67.4786 29.4649H67.0021L66.9795 29.0922Z" fill="#407BFF"/>
<path d="M68.6055 29.0922H69.8567L69.877 29.4129H69.0956L69.1091 29.6523H69.8364L69.8544 29.9617H69.1294L69.1475 30.2598H69.9538L69.9764 30.6009H68.7026L68.6055 29.0922Z" fill="#407BFF"/>
<path d="M70.2407 30.6009L70.1436 29.0922H70.9182C71.0301 29.0879 71.1419 29.1001 71.2502 29.1283C71.328 29.1524 71.3961 29.2007 71.4445 29.2661C71.4971 29.3369 71.527 29.4219 71.5303 29.51C71.5382 29.5876 71.5241 29.6659 71.4896 29.7359C71.4586 29.797 71.4108 29.8479 71.3519 29.8827C71.3024 29.9122 71.2481 29.9328 71.1915 29.9437C71.2365 29.9554 71.2792 29.9744 71.318 30.0001C71.3472 30.0234 71.3737 30.0499 71.397 30.0792C71.4238 30.1079 71.4479 30.1389 71.4693 30.1718L71.7223 30.6099H71.196L70.916 30.1582C70.894 30.1134 70.8633 30.0735 70.8256 30.0408C70.7903 30.0189 70.7497 30.0072 70.7082 30.0069H70.6675L70.7059 30.619L70.2407 30.6009ZM70.6517 29.6975H70.8482C70.8894 29.6943 70.9302 29.6875 70.9702 29.6772C70.9992 29.6707 71.0249 29.6538 71.0424 29.6297C71.0604 29.6041 71.0685 29.5728 71.065 29.5417C71.065 29.5205 71.0603 29.4997 71.0513 29.4806C71.0424 29.4614 71.0293 29.4445 71.0131 29.431C70.9602 29.399 70.8985 29.3847 70.8369 29.3903H70.6314L70.6517 29.6975Z" fill="#407BFF"/>
</g>
<path d="M72.6361 9.04564H72.4102L72.3086 7.57761H72.5344L72.6361 9.04564Z" fill="#407BFF"/>
<path d="M72.4568 6.44835H72.2309L72.0051 3.33612C71.9472 2.52567 71.6501 1.75064 71.1514 1.10922L71.3275 0.980488C71.8545 1.65934 72.1689 2.47896 72.2309 3.33612L72.4568 6.44835Z" fill="#407BFF"/>
<path d="M45.123 0.000286654H67.882C68.7843 0.0155475 69.6489 0.365196 70.3082 0.981488C70.9674 1.59778 71.3745 2.43684 71.4505 3.33611L72.2522 14.9155C72.2881 15.3433 72.2342 15.7738 72.094 16.1796C71.9538 16.5853 71.7303 16.9572 71.4379 17.2715C71.1455 17.5858 70.7907 17.8355 70.3961 18.0046C70.0016 18.1738 69.576 18.2586 69.1468 18.2536H67.4642L67.7578 22.4748L63.2385 18.2536H46.3877C45.4852 18.2378 44.6206 17.8876 43.9614 17.271C43.3022 16.6543 42.8952 15.815 42.8193 14.9155L42.0085 3.33611C41.9732 2.90783 42.0278 2.4769 42.1688 2.07098C42.3099 1.66505 42.5343 1.2931 42.8275 0.978992C43.1208 0.664883 43.4765 0.415556 43.8718 0.247011C44.2671 0.0784662 44.6933 -0.00557317 45.123 0.000286654Z" fill="#407BFF"/>
<path d="M51.119 8.52165H51.1619C50.9378 8.51845 50.7216 8.43876 50.5491 8.29581C50.3766 8.15286 50.2581 7.95522 50.2133 7.73569C50.2023 7.60555 50.2186 7.47454 50.2612 7.35107C50.3037 7.2276 50.3716 7.11439 50.4605 7.01869C50.5494 6.923 50.6573 6.84694 50.7773 6.79539C50.8973 6.74385 51.0268 6.71795 51.1574 6.71936H51.4939L55.164 6.3738C55.0159 5.74103 54.9058 5.09998 54.8342 4.45407C54.7281 3.39031 55.3401 2.07811 56.3542 2.54788C56.763 2.7376 56.6162 4.05883 56.8443 4.58054C57.0724 5.10226 59.0012 6.64483 59.5884 7.74246C59.7458 7.80511 59.8824 7.91075 59.9827 8.04733C60.0829 8.18391 60.1427 8.34593 60.1553 8.51488L60.3969 11.9998C60.4156 12.2456 60.3837 12.4926 60.3033 12.7257C60.2229 12.9587 60.0957 13.1728 59.9294 13.3549C59.7593 13.5339 59.5543 13.6762 59.3271 13.7729C59.0998 13.8697 58.8552 13.9188 58.6082 13.9172H52.5644C52.3541 13.9181 52.1488 13.8533 51.9771 13.7318C51.8054 13.6104 51.676 13.4383 51.6068 13.2397C51.5621 13.1129 51.5487 12.9773 51.5676 12.8442C51.5865 12.7112 51.6372 12.5846 51.7155 12.4753C51.7937 12.3661 51.8972 12.2773 52.017 12.2165C52.1369 12.1557 52.2697 12.1248 52.4041 12.1262H51.6317C51.4194 12.1231 51.2158 12.0411 51.0605 11.8963C50.9053 11.7515 50.8094 11.5541 50.7915 11.3425C50.7639 11.2199 50.7644 11.0925 50.793 10.9701C50.8216 10.8476 50.8775 10.7332 50.9566 10.6354C51.0357 10.5377 51.1359 10.4591 51.2496 10.4055C51.3634 10.3519 51.4878 10.3248 51.6136 10.3262H51.2025C50.9647 10.3224 50.7362 10.2323 50.5597 10.0728C50.3832 9.91335 50.2705 9.69521 50.2427 9.45894C50.2307 9.33808 50.2447 9.21606 50.2837 9.10104C50.3226 8.98601 50.3857 8.88062 50.4686 8.79191C50.5516 8.7032 50.6525 8.6332 50.7646 8.58659C50.8768 8.53999 50.9976 8.51785 51.119 8.52165Z" fill="white"/>
<path d="M61.9623 13.924H63.0916C63.1785 13.925 63.2646 13.9078 63.3445 13.8734C63.4243 13.839 63.496 13.7882 63.555 13.7243C63.6139 13.6605 63.6588 13.5849 63.6868 13.5026C63.7147 13.4203 63.7251 13.333 63.7172 13.2465L63.3671 8.19418C63.3531 8.01177 63.2714 7.84118 63.1381 7.71585C63.0048 7.59051 62.8296 7.51946 62.6466 7.51662H61.5287C61.4417 7.51566 61.3554 7.53293 61.2755 7.56731C61.1956 7.60169 61.1237 7.65242 61.0646 7.71624C61.0054 7.78007 60.9603 7.85556 60.9321 7.93788C60.9039 8.02019 60.8932 8.1075 60.9008 8.19418L61.2509 13.2465C61.2652 13.4272 61.3458 13.5962 61.4771 13.7213C61.6083 13.8463 61.7811 13.9185 61.9623 13.924Z" fill="white"/>
</svg>
