<svg width="72" height="73" viewBox="0 0 72 73" fill="none" xmlns="http://www.w3.org/2000/svg">
<path d="M60.9879 62.5127H67.1797V60.5421H60.9879V62.5127Z" fill="#EBEBEB"/>
<path d="M57.2445 19.4188H51.0527V21.3893H57.2445V19.4188Z" fill="#EBEBEB"/>
<path d="M64.4409 64.9958C65.4693 64.9799 68.1056 64.9359 69.0988 64.9236H70.6326L70.5516 65.0028V63.0322L70.6397 63.1203C69.6113 63.1203 66.9891 63.108 65.9959 63.0939L64.4479 63.0745L64.4902 63.0322L64.4479 65.0028L64.4409 64.9958ZM64.4409 64.9958L64.4004 63.0252V62.9847H64.4427C65.2157 62.9741 66.7672 62.9565 67.5385 62.9495L70.6344 62.9371H70.7225V63.0252V64.9958V65.0768H70.6432H69.0812C68.095 65.0662 65.4711 65.0204 64.4515 65.0028L64.4409 64.9958Z" fill="#EBEBEB"/>
<path d="M36.4429 41.0494C35.4127 41.067 32.8116 41.111 31.8131 41.1216H30.2529H30.1719V41.0406V39.07V38.9908H30.2617L33.3558 39.0031C34.1271 39.0031 35.6821 39.026 36.4517 39.0365H36.4957V39.077L36.4534 41.0476L36.4429 41.0494ZM36.4429 41.0494L36.4024 39.0788L36.4429 39.1211C35.6715 39.1316 34.1201 39.1492 33.347 39.1545L30.2529 39.1669L30.3392 39.0788V41.0494L30.2599 40.9701H31.7938C32.7747 40.9807 35.4356 41.0247 36.4499 41.0423L36.4429 41.0494Z" fill="#EBEBEB"/>
<path d="M32.9888 43.5342C31.9568 43.5518 29.3558 43.5958 28.3591 43.6064L26.797 43.6152H26.7178V43.5342L26.709 41.5636V41.4755H26.797L29.8929 41.4879C30.6642 41.4879 32.2175 41.5107 32.9888 41.5213H33.0311V41.5618L32.9888 43.5324V43.5342ZM32.9888 43.5342L32.9465 41.5636L32.9888 41.6058C32.2175 41.6164 30.666 41.6323 29.8929 41.6393L26.797 41.6516L26.8851 41.5636V43.5342L26.8041 43.4549H28.3379C29.3206 43.4655 31.9815 43.5095 32.9958 43.5271L32.9888 43.5342Z" fill="#EBEBEB"/>
<path d="M29.5502 39.0788H23.3584V41.0494H29.5502V39.0788Z" fill="#EBEBEB"/>
<path d="M1.30434 64.9975H7.49609V63.0269H1.30434V64.9975Z" fill="#EBEBEB"/>
<path d="M4.75844 4.14542L10.9502 4.14542V2.17483L4.75844 2.17483V4.14542Z" fill="#EBEBEB"/>
<path d="M1.30496 6.62848C2.3334 6.61087 4.96965 6.56685 5.96286 6.55628H7.49671L7.4157 6.63553V4.66494L7.50375 4.753C6.47532 4.753 3.85316 4.74067 2.85994 4.72658L1.312 4.70721L1.34722 4.65086L1.30496 6.62144V6.62848ZM1.30496 6.62848L1.2627 4.65086V4.61035H1.30496C2.07805 4.59979 3.62775 4.58218 4.40084 4.57513L7.49671 4.56281H7.58476V4.65086V6.62144V6.70245H7.50552H5.94349C4.95732 6.69012 2.33164 6.64609 1.31377 6.62848H1.30496Z" fill="#EBEBEB"/>
<path d="M60.9886 4.14366C62.017 4.12605 64.6532 4.08378 65.6465 4.07145H67.1803L67.0993 4.1507V2.18012L67.1873 2.26817L64.0915 2.25584C63.3201 2.25584 61.7669 2.23295 60.9956 2.22238L61.0379 2.18012L60.9956 4.1507L60.9886 4.14366ZM60.9886 4.14366L60.9463 2.17307V2.13257H60.9886C61.7616 2.122 63.3131 2.10439 64.0844 2.09735L67.1803 2.08502H67.2684V2.17307L67.2596 4.14366V4.22466H67.1803H65.6183C64.6321 4.21234 62.0082 4.16831 60.9886 4.1507V4.14366Z" fill="#EBEBEB"/>
<path d="M61.7326 21.5179H31.7178V1.45282H61.7326V21.5179ZM31.8939 21.3418H61.5565V1.62892H31.8939V21.3418Z" fill="#EBEBEB"/>
<path d="M33.1835 2.39145C33.1835 2.4517 33.1657 2.51061 33.1322 2.56071C33.0987 2.61081 33.0511 2.64986 32.9955 2.67291C32.9398 2.69597 32.8785 2.70201 32.8194 2.69025C32.7603 2.6785 32.7061 2.64948 32.6635 2.60687C32.6208 2.56427 32.5918 2.50998 32.5801 2.45088C32.5683 2.39179 32.5744 2.33053 32.5974 2.27486C32.6205 2.21919 32.6595 2.17161 32.7096 2.13814C32.7597 2.10466 32.8186 2.08679 32.8789 2.08679C32.9595 2.08725 33.0368 2.1195 33.0938 2.17653C33.1508 2.23357 33.1831 2.31079 33.1835 2.39145Z" fill="#A6A6A6"/>
<path d="M34.4257 2.39145C34.4257 2.4517 34.4079 2.51061 34.3744 2.56071C34.3409 2.61081 34.2933 2.64986 34.2376 2.67291C34.182 2.69597 34.1207 2.70201 34.0616 2.69025C34.0025 2.6785 33.9482 2.64948 33.9056 2.60687C33.863 2.56427 33.834 2.50998 33.8223 2.45088C33.8105 2.39179 33.8165 2.33053 33.8396 2.27486C33.8627 2.21919 33.9017 2.17161 33.9518 2.13814C34.0019 2.10466 34.0608 2.08679 34.1211 2.08679C34.2017 2.08725 34.2789 2.1195 34.336 2.17653C34.393 2.23357 34.4253 2.31079 34.4257 2.39145Z" fill="#EBEBEB"/>
<path d="M35.6699 2.39145C35.6699 2.4517 35.652 2.51061 35.6185 2.56071C35.585 2.61081 35.5375 2.64986 35.4818 2.67291C35.4261 2.69597 35.3649 2.70201 35.3058 2.69025C35.2467 2.6785 35.1924 2.64948 35.1498 2.60687C35.1072 2.56427 35.0782 2.50998 35.0664 2.45088C35.0546 2.39179 35.0607 2.33053 35.0837 2.27486C35.1068 2.21919 35.1458 2.17161 35.1959 2.13814C35.246 2.10466 35.3049 2.08679 35.3652 2.08679C35.446 2.08679 35.5235 2.11889 35.5806 2.17602C35.6378 2.23316 35.6699 2.31065 35.6699 2.39145Z" fill="#407BFF"/>
<path d="M61.6454 3.21735H31.8066V3.39345H61.6454V3.21735Z" fill="#EBEBEB"/>
<path d="M13.4027 7.43854H1.5V21.8772H13.4027V7.43854Z" fill="#EBEBEB"/>
<path d="M12.0451 8.75577H2.86133V20.5581H12.0451V8.75577Z" fill="white"/>
<path d="M3.21882 8.75577H2.86133V20.5581H3.21882V8.75577Z" fill="#C7C7C7"/>
<path d="M13.7628 7.43854H13.4053V21.8772H13.7628V7.43854Z" fill="#C7C7C7"/>
<path d="M7.65719 17.936H9.82324V11.4854H7.65719L7.65719 17.936Z" fill="#EBEBEB"/>
<path d="M10.8567 13.632H4.90625V10.2861H10.8567V13.632ZM5.08235 13.4559H10.6806V10.4622H5.08235V13.4559Z" fill="#EBEBEB"/>
<path d="M20.4467 43.0217H8.54395V57.4603H20.4467V43.0217Z" fill="#EBEBEB"/>
<path d="M19.089 44.339H9.90527V56.1413H19.089V44.339Z" fill="white"/>
<path d="M10.2628 44.339H9.90527V56.1413H10.2628V44.339Z" fill="#C7C7C7"/>
<path d="M20.8067 43.0217H20.4492V57.4603H20.8067V43.0217Z" fill="#C7C7C7"/>
<path d="M15.1475 47.0686H12.9814V53.5192H15.1475V47.0686Z" fill="#EBEBEB"/>
<path d="M17.9007 49.2153H11.9502V45.8781H17.9007V49.2153ZM12.1263 49.0391H17.7246V46.0542H12.1263V49.0391Z" fill="#EBEBEB"/>
<path d="M16.9252 25.2953H5.02246V39.7339H16.9252V25.2953Z" fill="#EBEBEB"/>
<path d="M15.5675 26.6125H6.38379V38.4149H15.5675V26.6125Z" fill="white"/>
<path d="M6.74128 26.6125H6.38379V38.4149H6.74128V26.6125Z" fill="#C7C7C7"/>
<path d="M17.2852 25.2953H16.9277V39.7339H17.2852V25.2953Z" fill="#C7C7C7"/>
<path d="M11.9393 29.6644H10.085V34.354H11.9393V29.6644Z" fill="#EBEBEB"/>
<path d="M13.983 35.835H8.82324V32.4257H13.983V35.835ZM8.99934 35.6589H13.8069V32.6018H8.99934V35.6589Z" fill="#DBDBDB"/>
<path d="M0 72.5981C23.0447 72.4889 48.893 72.4889 71.9377 72.5981C48.893 72.7055 23.0447 72.7055 0 72.5981Z" fill="#263238"/>
<path d="M62.7105 55.9353C65.4612 58.6279 65.9226 62.7945 65.3433 66.4451C65.3274 66.5278 65.2006 66.5049 65.2006 66.4274C65.2006 65.5962 65.2253 64.7721 65.2235 63.9514C65.2077 63.9145 65.1953 63.8792 65.1795 63.8423C64.4627 63.314 63.8024 62.7293 63.3938 61.921C62.9342 61.0176 62.7528 59.998 62.4023 59.0558C62.3689 58.9642 62.4657 58.9906 62.5291 59.0382C64.2021 60.2709 64.7357 61.6005 65.2147 63.3756C65.2052 62.4469 65.1079 61.5212 64.9241 60.6108C64.5631 58.9272 63.8464 57.2648 62.6348 56.0075C62.5925 55.9599 62.663 55.8965 62.7105 55.9353Z" fill="#263238"/>
<path d="M62.1931 56.2488C61.7194 56.2646 61.4236 57.0219 61.0555 57.242C61.017 57.275 60.9718 57.2994 60.923 57.3133C60.8742 57.3273 60.8229 57.3305 60.7727 57.3229C60.7226 57.3152 60.6746 57.2967 60.6323 57.2688C60.5899 57.2408 60.554 57.2041 60.5272 57.161C60.1609 56.6503 60.6628 56.0198 61.1347 55.6694C60.7966 55.8068 60.5184 56.0515 60.1539 56.1202C60.1073 56.1356 60.0581 56.1408 60.0094 56.1354C59.9607 56.13 59.9137 56.1141 59.8717 56.0888C59.8298 56.0636 59.7937 56.0295 59.7661 55.9891C59.7385 55.9486 59.72 55.9026 59.7118 55.8543C59.5516 55.1587 60.4162 54.8505 61.022 54.8347C60.7315 54.6339 59.9003 54.0862 60.3423 53.815C60.7843 53.5438 61.7652 54.3293 62.0839 54.5881C62.5524 54.9667 63.1088 55.5338 63.13 56.1273C63.1634 56.8211 62.5594 56.3949 62.1931 56.2488Z" fill="#407BFF"/>
<path opacity="0.1" d="M62.1931 56.2488C61.7194 56.2646 61.4236 57.0219 61.0555 57.242C61.017 57.275 60.9718 57.2994 60.923 57.3133C60.8742 57.3273 60.8229 57.3305 60.7727 57.3229C60.7226 57.3152 60.6746 57.2967 60.6323 57.2688C60.5899 57.2408 60.554 57.2041 60.5272 57.161C60.1609 56.6503 60.6628 56.0198 61.1347 55.6694C60.7966 55.8068 60.5184 56.0515 60.1539 56.1202C60.1073 56.1356 60.0581 56.1408 60.0094 56.1354C59.9607 56.13 59.9137 56.1141 59.8717 56.0888C59.8298 56.0636 59.7937 56.0295 59.7661 55.9891C59.7385 55.9486 59.72 55.9026 59.7118 55.8543C59.5516 55.1587 60.4162 54.8505 61.022 54.8347C60.7315 54.6339 59.9003 54.0862 60.3423 53.815C60.7843 53.5438 61.7652 54.3293 62.0839 54.5881C62.5524 54.9667 63.1088 55.5338 63.13 56.1273C63.1634 56.8211 62.5594 56.3949 62.1931 56.2488Z" fill="black"/>
<path d="M62.3303 56.365C61.7245 56.0903 60.5693 56.4865 60.4636 56.2576C60.2629 55.7909 61.1927 55.4721 61.6963 55.4105C61.2332 55.2855 60.3492 55.0847 60.3756 54.6409C60.409 54.0968 61.7333 54.5635 62.4043 55.0777C63.2478 55.7257 63.2425 56.3491 63.1087 56.4742C62.9114 56.6467 62.4307 56.4108 62.3303 56.365Z" fill="#407BFF"/>
<path d="M68.9743 55.6694C66.1232 58.2546 65.5033 62.4018 65.9435 66.07C65.9559 66.1527 66.0844 66.1351 66.0879 66.0577C66.1196 65.2282 66.1249 64.4041 66.1602 63.5834L66.2059 63.476C66.9438 62.9812 67.6253 62.4194 68.0656 61.6252C68.5587 60.7447 68.7788 59.7268 69.1645 58.8075C69.2014 58.7177 69.1046 58.7406 69.0394 58.7846C67.3207 59.954 66.736 61.2606 66.1883 63.0111C66.2343 62.0838 66.367 61.1629 66.5846 60.2604C67.0107 58.5909 67.7891 56.9514 69.05 55.7469C69.0551 55.7419 69.0591 55.736 69.0619 55.7294C69.0647 55.7229 69.0662 55.7159 69.0663 55.7088C69.0664 55.7016 69.0651 55.6946 69.0624 55.688C69.0598 55.6814 69.0558 55.6754 69.0509 55.6703C69.0459 55.6652 69.04 55.6611 69.0334 55.6583C69.0269 55.6555 69.0199 55.654 69.0127 55.654C69.0056 55.6539 68.9986 55.6552 68.992 55.6579C68.9854 55.6605 68.9793 55.6644 68.9743 55.6694Z" fill="#263238"/>
<path d="M69.4811 56.0022C69.953 56.0357 70.2207 56.8035 70.5817 57.0377C70.619 57.0717 70.6631 57.0973 70.7111 57.1128C70.7591 57.1282 70.8098 57.1332 70.8599 57.1274C70.91 57.1215 70.9583 57.105 71.0014 57.0789C71.0446 57.0528 71.0816 57.0177 71.11 56.9761C71.4939 56.4795 71.0167 55.8314 70.5588 55.4616C70.8917 55.613 71.1611 55.8684 71.5221 55.9511C71.5681 55.9664 71.6167 55.972 71.665 55.9677C71.7132 55.9633 71.7601 55.949 71.8025 55.9257C71.845 55.9024 71.8822 55.8706 71.9119 55.8322C71.9415 55.7939 71.9629 55.7498 71.9747 55.7028C72.1614 55.0125 71.302 54.6709 70.7032 54.6339C71.0008 54.4437 71.8532 53.9295 71.4217 53.6407C70.9903 53.3519 69.9795 54.0986 69.6519 54.3451C69.1694 54.7061 68.5953 55.252 68.5477 55.8455C68.4896 56.5358 69.1113 56.1325 69.4811 56.0022Z" fill="#407BFF"/>
<path opacity="0.1" d="M69.4811 56.0022C69.953 56.0357 70.2207 56.8035 70.5817 57.0377C70.619 57.0717 70.6631 57.0973 70.7111 57.1128C70.7591 57.1282 70.8098 57.1332 70.8599 57.1274C70.91 57.1215 70.9583 57.105 71.0014 57.0789C71.0446 57.0528 71.0816 57.0177 71.11 56.9761C71.4939 56.4795 71.0167 55.8314 70.5588 55.4616C70.8917 55.613 71.1611 55.8684 71.5221 55.9511C71.5681 55.9664 71.6167 55.972 71.665 55.9677C71.7132 55.9633 71.7601 55.949 71.8025 55.9257C71.845 55.9024 71.8822 55.8706 71.9119 55.8322C71.9415 55.7939 71.9629 55.7498 71.9747 55.7028C72.1614 55.0125 71.302 54.6709 70.7032 54.6339C71.0008 54.4437 71.8532 53.9295 71.4217 53.6407C70.9903 53.3519 69.9795 54.0986 69.6519 54.3451C69.1694 54.7061 68.5953 55.252 68.5477 55.8455C68.4896 56.5358 69.1113 56.1325 69.4811 56.0022Z" fill="black"/>
<path d="M69.34 56.1131C69.9546 55.8613 71.101 56.3016 71.2084 56.0761C71.4268 55.6183 70.504 55.2626 70.0127 55.1815C70.4776 55.0741 71.3704 54.9086 71.3598 54.463C71.3475 53.9189 70.0056 54.3363 69.3171 54.8241C68.4489 55.4387 68.4366 56.0568 68.5651 56.1924C68.75 56.372 69.2378 56.1554 69.34 56.1131Z" fill="#407BFF"/>
<path d="M66.0605 62.5004C65.8689 63.8834 65.5746 65.2502 65.18 66.5895C65.1724 66.6134 65.1561 66.6337 65.1344 66.6465C65.1127 66.6592 65.087 66.6635 65.0624 66.6584C65.0377 66.6534 65.0158 66.6395 65.0007 66.6193C64.9857 66.5991 64.9787 66.574 64.981 66.549C65.1677 65.2898 65.5093 64.0518 65.696 62.7927C65.8968 61.517 65.967 60.2242 65.9056 58.9343C65.7858 56.8105 65.2012 54.5511 63.8223 52.8887C63.7923 52.85 63.8557 52.7936 63.8874 52.8306C66.6628 56.0656 66.2208 60.0314 66.219 60.3871C66.6117 59.0488 67.0168 57.5132 68.5084 56.1501C68.5735 56.0902 68.6228 56.1184 68.6123 56.2188C68.3463 58.7018 67.656 59.9997 66.2155 61.3258C66.1744 61.7214 66.1228 62.1129 66.0605 62.5004Z" fill="#263238"/>
<path d="M63.8031 53.255C63.3029 53.0331 62.6144 53.6688 62.1213 53.7111C62.065 53.7244 62.0066 53.7256 61.9498 53.7147C61.893 53.7037 61.8392 53.6809 61.7919 53.6476C61.7447 53.6143 61.705 53.5713 61.6756 53.5216C61.6461 53.4718 61.6276 53.4164 61.6212 53.3589C61.4979 52.6545 62.3361 52.2459 63.0018 52.1262C62.5827 52.1015 62.1688 52.2125 61.7568 52.1015C61.7008 52.0938 61.6472 52.0742 61.5995 52.0441C61.5519 52.0139 61.5112 51.9738 61.4803 51.9266C61.4494 51.8793 61.429 51.826 61.4205 51.7702C61.412 51.7144 61.4156 51.6575 61.431 51.6032C61.6159 50.8019 62.676 50.9199 63.3047 51.2052C63.1057 50.853 62.5175 49.8633 63.1127 49.8052C63.708 49.747 64.3314 51.0537 64.5304 51.4834C64.8262 52.1121 65.1185 52.982 64.8421 53.6072C64.5216 54.3433 64.1077 53.5949 63.8031 53.255Z" fill="#407BFF"/>
<path opacity="0.1" d="M63.8031 53.255C63.3029 53.0331 62.6144 53.6688 62.1213 53.7111C62.065 53.7244 62.0066 53.7256 61.9498 53.7147C61.893 53.7037 61.8392 53.6809 61.7919 53.6476C61.7447 53.6143 61.705 53.5713 61.6756 53.5216C61.6461 53.4718 61.6276 53.4164 61.6212 53.3589C61.4979 52.6545 62.3361 52.2459 63.0018 52.1262C62.5827 52.1015 62.1688 52.2125 61.7568 52.1015C61.7008 52.0938 61.6472 52.0742 61.5995 52.0441C61.5519 52.0139 61.5112 51.9738 61.4803 51.9266C61.4494 51.8793 61.429 51.826 61.4205 51.7702C61.412 51.7144 61.4156 51.6575 61.431 51.6032C61.6159 50.8019 62.676 50.9199 63.3047 51.2052C63.1057 50.853 62.5175 49.8633 63.1127 49.8052C63.708 49.747 64.3314 51.0537 64.5304 51.4834C64.8262 52.1121 65.1185 52.982 64.8421 53.6072C64.5216 54.3433 64.1077 53.5949 63.8031 53.255Z" fill="black"/>
<path d="M63.8846 53.4505C63.395 52.8605 61.9897 52.6862 62.002 52.3939C62.0302 51.8092 63.1537 51.9448 63.7049 52.1333C63.2893 51.7705 62.4722 51.1189 62.7241 50.6716C63.0322 50.1239 64.1699 51.2756 64.6066 52.1456C65.1578 53.2427 64.8373 53.8872 64.6295 53.9471C64.3442 54.0334 63.9673 53.5491 63.8846 53.4505Z" fill="#407BFF"/>
<path d="M67.8848 63.247L69.1087 72.5981H61.6631C61.8163 71.7686 63.2022 63.2365 63.2022 63.2365L67.8848 63.247Z" fill="#407BFF"/>
<path d="M66.752 50.2754H34.6504V4.72308H70.2371V46.7868L66.752 50.2754Z" fill="white"/>
<path d="M66.7521 50.2754C66.7363 50.2754 34.6469 50.2895 34.6311 50.2948C34.6153 50.3001 34.6153 4.73191 34.6064 4.7231V4.67908H34.6505C34.6681 4.67908 70.2442 4.70373 70.2618 4.69845C70.2795 4.69317 70.2301 46.7869 70.239 46.7869C70.2478 46.7869 66.7521 50.2737 66.7521 50.2754ZM66.7521 50.2754L70.2337 46.7869L70.2125 4.7231C70.3675 4.77593 34.617 4.7548 34.6505 4.76713L34.6945 4.7231L34.6698 50.2754C34.5501 50.2297 66.7785 50.2878 66.7521 50.2754Z" fill="#263238"/>
<path d="M70.2371 4.72308H34.6504V5.99278H70.2371V4.72308Z" fill="#407BFF"/>
<path d="M35.584 5.35532C35.584 5.39781 35.5714 5.43935 35.5478 5.47468C35.5242 5.51001 35.4906 5.53755 35.4514 5.55381C35.4121 5.57007 35.3689 5.57432 35.3272 5.56603C35.2856 5.55774 35.2473 5.53728 35.2172 5.50724C35.1872 5.47719 35.1667 5.43891 35.1584 5.39723C35.1501 5.35556 35.1544 5.31236 35.1706 5.2731C35.1869 5.23384 35.2144 5.20029 35.2498 5.17668C35.2851 5.15307 35.3266 5.14047 35.3691 5.14047C35.4261 5.14047 35.4808 5.16311 35.5211 5.2034C35.5613 5.24369 35.584 5.29834 35.584 5.35532Z" fill="#C7C7C7"/>
<path d="M36.459 5.35532C36.459 5.39782 36.4464 5.43935 36.4228 5.47469C36.3992 5.51002 36.3656 5.53755 36.3264 5.55382C36.2871 5.57008 36.2439 5.57433 36.2022 5.56604C36.1606 5.55775 36.1223 5.53729 36.0922 5.50724C36.0622 5.4772 36.0417 5.43891 36.0334 5.39724C36.0251 5.35556 36.0294 5.31236 36.0456 5.27311C36.0619 5.23385 36.0894 5.2003 36.1248 5.17669C36.1601 5.15308 36.2016 5.14048 36.2441 5.14048C36.2724 5.14025 36.3005 5.14564 36.3266 5.15636C36.3528 5.16707 36.3766 5.18289 36.3966 5.20288C36.4166 5.22288 36.4324 5.24666 36.4431 5.27283C36.4538 5.299 36.4592 5.32705 36.459 5.35532Z" fill="white"/>
<path d="M37.3359 5.35532C37.3359 5.39781 37.3233 5.43935 37.2997 5.47468C37.2761 5.51001 37.2426 5.53755 37.2033 5.55381C37.1641 5.57007 37.1209 5.57432 37.0792 5.56603C37.0375 5.55774 36.9992 5.53728 36.9692 5.50724C36.9391 5.47719 36.9187 5.43891 36.9104 5.39723C36.9021 5.35556 36.9063 5.31236 36.9226 5.2731C36.9389 5.23384 36.9664 5.20029 37.0017 5.17668C37.0371 5.15307 37.0786 5.14047 37.1211 5.14047C37.1493 5.14047 37.1772 5.14603 37.2033 5.15683C37.2294 5.16762 37.2531 5.18345 37.273 5.2034C37.293 5.22335 37.3088 5.24703 37.3196 5.2731C37.3304 5.29917 37.3359 5.3271 37.3359 5.35532Z" fill="#455A64"/>
<path d="M48.6255 9.7825H48.0497L47.9334 10.0907C47.9197 10.1238 47.8937 10.1502 47.8608 10.1643C47.8279 10.1785 47.7908 10.1792 47.7573 10.1664C47.7405 10.1602 47.7251 10.1506 47.712 10.1383C47.6989 10.126 47.6885 10.1112 47.6813 10.0948C47.674 10.0783 47.6702 10.0606 47.6699 10.0427C47.6697 10.0247 47.6731 10.0069 47.6798 9.9903L48.2082 8.59381C48.2188 8.56911 48.2366 8.54809 48.2591 8.53338C48.2817 8.51866 48.308 8.51089 48.3349 8.51104C48.3617 8.51053 48.388 8.51818 48.4103 8.53296C48.4327 8.54774 48.45 8.56896 48.46 8.59381L48.9883 9.9903C48.9948 10.0071 48.9979 10.0249 48.9974 10.0429C48.9969 10.0609 48.9929 10.0785 48.9855 10.0949C48.9781 10.1113 48.9676 10.1261 48.9544 10.1383C48.9413 10.1506 48.9259 10.1601 48.909 10.1664C48.8945 10.1694 48.8795 10.1694 48.865 10.1664C48.8387 10.1669 48.8128 10.1593 48.791 10.1444C48.7693 10.1296 48.7526 10.1083 48.7435 10.0836L48.6255 9.7825ZM48.5287 9.52187L48.3367 9.01293L48.1448 9.52187H48.5287Z" fill="#263238"/>
<path d="M50.4093 9.97798C50.4199 10.0109 50.4172 10.0467 50.4018 10.0777C50.3863 10.1086 50.3593 10.1323 50.3265 10.1435C50.309 10.1455 50.2912 10.1455 50.2737 10.1435C50.2407 10.1436 50.2084 10.1345 50.1804 10.1171C50.1491 10.0957 50.1231 10.0674 50.1046 10.0343C50.0685 9.94684 50.0522 9.8524 50.0571 9.75785C50.057 9.72244 50.0473 9.68773 50.0289 9.65747C50.0108 9.62855 49.9861 9.60439 49.9567 9.58703C49.9156 9.56203 49.8711 9.54306 49.8246 9.53068H49.5446V10.0449C49.5446 10.0622 49.5412 10.0792 49.5345 10.0952C49.5279 10.1111 49.5181 10.1255 49.5058 10.1377C49.4936 10.1498 49.479 10.1594 49.463 10.1658C49.4469 10.1722 49.4298 10.1754 49.4126 10.1752C49.3954 10.1754 49.3783 10.1722 49.3624 10.1658C49.3465 10.1593 49.332 10.1497 49.3199 10.1376C49.3077 10.1254 49.2981 10.111 49.2917 10.095C49.2852 10.0791 49.282 10.0621 49.2822 10.0449V8.64488C49.282 8.62771 49.2852 8.61065 49.2917 8.59474C49.2981 8.57882 49.3077 8.56436 49.3199 8.55221C49.332 8.54006 49.3465 8.53047 49.3624 8.52401C49.3783 8.51754 49.3954 8.51433 49.4126 8.51457H49.837C49.9037 8.51457 49.9698 8.52774 50.0315 8.55334C50.0931 8.57894 50.1491 8.61646 50.1962 8.66374C50.2433 8.71102 50.2806 8.76714 50.306 8.82888C50.3314 8.89061 50.3444 8.95675 50.3441 9.0235C50.3428 9.09715 50.3252 9.16958 50.2926 9.23564C50.2601 9.3017 50.2133 9.35975 50.1557 9.40565C50.1876 9.43059 50.2155 9.46029 50.2385 9.4937C50.2902 9.56879 50.3178 9.65786 50.3177 9.74904C50.3114 9.79579 50.3114 9.84318 50.3177 9.88993C50.3392 9.89557 50.3589 9.90662 50.375 9.92204C50.391 9.93745 50.4028 9.95671 50.4093 9.97798ZM50.0765 9.0235C50.0769 8.9913 50.071 8.95931 50.059 8.92942C50.047 8.89953 50.0292 8.87232 50.0065 8.84938C49.9839 8.82644 49.957 8.80822 49.9273 8.79579C49.8975 8.78336 49.8657 8.77696 49.8334 8.77696H49.5411V9.26652H49.8334C49.8979 9.26652 49.9597 9.24092 50.0053 9.19535C50.0509 9.14977 50.0765 9.08796 50.0765 9.0235Z" fill="#263238"/>
<path d="M51.763 8.77696H51.3862V10.0431C51.3862 10.0777 51.3724 10.1108 51.348 10.1353C51.3236 10.1597 51.2904 10.1735 51.2559 10.1735C51.2213 10.1735 51.1881 10.1597 51.1637 10.1353C51.1393 10.1108 51.1255 10.0777 51.1255 10.0431V8.77696H50.7504C50.7157 8.7765 50.6826 8.76238 50.6582 8.73766C50.6338 8.71294 50.6201 8.67961 50.6201 8.64488C50.6199 8.62771 50.6231 8.61065 50.6296 8.59474C50.636 8.57882 50.6456 8.56436 50.6578 8.55221C50.6699 8.54006 50.6844 8.53047 50.7003 8.52401C50.7162 8.51754 50.7333 8.51433 50.7504 8.51457H51.763C51.7976 8.51457 51.8307 8.5283 51.8552 8.55274C51.8796 8.57718 51.8933 8.61032 51.8933 8.64488C51.8929 8.67947 51.8791 8.71255 51.8548 8.73717C51.8305 8.76179 51.7976 8.77605 51.763 8.77696Z" fill="#263238"/>
<path d="M52.3018 8.64488C52.3015 8.62771 52.3047 8.61065 52.3112 8.59474C52.3177 8.57882 52.3273 8.56436 52.3394 8.55221C52.3516 8.54006 52.366 8.53047 52.3819 8.52401C52.3979 8.51754 52.4149 8.51433 52.4321 8.51457C52.4668 8.51457 52.5001 8.52824 52.5249 8.55263C52.5496 8.57702 52.5637 8.61016 52.5642 8.64488V10.0431C52.5637 10.0779 52.5496 10.111 52.5249 10.1354C52.5001 10.1598 52.4668 10.1735 52.4321 10.1735C52.4149 10.1737 52.3979 10.1705 52.3819 10.164C52.366 10.1575 52.3516 10.148 52.3394 10.1358C52.3273 10.1237 52.3177 10.1092 52.3112 10.0933C52.3047 10.0774 52.3015 10.0603 52.3018 10.0431V8.64488Z" fill="#263238"/>
<path d="M52.9355 9.32113C52.9392 9.09302 53.0326 8.87553 53.1954 8.7157C53.3582 8.55587 53.5774 8.46654 53.8055 8.46703C54.0026 8.46276 54.1955 8.52477 54.3532 8.64314C54.3785 8.66642 54.3941 8.69834 54.397 8.73259C54.3999 8.76684 54.3898 8.80094 54.3688 8.82814C54.3478 8.85535 54.3174 8.87368 54.2835 8.87953C54.2496 8.88539 54.2148 8.87832 54.1859 8.85974C54.0787 8.77207 53.9439 8.72526 53.8055 8.72767C53.6458 8.73035 53.4929 8.79325 53.3776 8.90377C53.2665 9.01305 53.2032 9.16182 53.2015 9.31761C53.202 9.39455 53.2178 9.47061 53.2481 9.54136C53.2783 9.61211 53.3223 9.67613 53.3776 9.72969C53.4929 9.84021 53.6458 9.9031 53.8055 9.90579C53.9435 9.90764 54.078 9.86159 54.1859 9.77547C54.2152 9.75541 54.2509 9.747 54.2861 9.75189C54.3213 9.75677 54.3533 9.7746 54.3761 9.80189C54.3968 9.83036 54.406 9.86564 54.4017 9.90061C54.3975 9.93559 54.3801 9.96765 54.3532 9.99032C54.1955 10.1087 54.0026 10.1707 53.8055 10.1664C53.5786 10.1679 53.3602 10.08 53.1974 9.92191C53.0347 9.76377 52.9406 9.548 52.9355 9.32113Z" fill="#263238"/>
<path d="M54.8369 10.0432V8.6449C54.8369 8.61034 54.8507 8.57719 54.8751 8.55276C54.8995 8.52832 54.9327 8.51459 54.9672 8.51459C55.002 8.51458 55.0353 8.52826 55.06 8.55265C55.0847 8.57704 55.0989 8.61018 55.0993 8.6449V9.91108H55.7421C55.7767 9.91198 55.8096 9.92624 55.8338 9.95087C55.8581 9.97549 55.872 10.0086 55.8724 10.0432C55.8719 10.0776 55.8581 10.1105 55.8337 10.1348C55.8094 10.1591 55.7765 10.173 55.7421 10.1735H54.9672C54.9501 10.1737 54.933 10.1705 54.9171 10.164C54.9012 10.1576 54.8867 10.148 54.8746 10.1358C54.8624 10.1237 54.8528 10.1092 54.8464 10.0933C54.8399 10.0774 54.8367 10.0603 54.8369 10.0432Z" fill="#263238"/>
<path d="M56.1719 10.0431V8.64488C56.1717 8.62771 56.1749 8.61065 56.1813 8.59474C56.1878 8.57882 56.1974 8.56436 56.2095 8.55221C56.2217 8.54006 56.2361 8.53047 56.2521 8.52401C56.268 8.51754 56.285 8.51433 56.3022 8.51457H57.0788C57.1134 8.51457 57.1465 8.5283 57.171 8.55274C57.1954 8.57718 57.2091 8.61032 57.2091 8.64488C57.2091 8.67961 57.1955 8.71294 57.1711 8.73766C57.1467 8.76238 57.1135 8.7765 57.0788 8.77696H56.436V9.21193H56.9872C57.0217 9.21239 57.0545 9.22627 57.0789 9.25061C57.1032 9.27495 57.1171 9.30783 57.1176 9.34225C57.1178 9.35951 57.1146 9.37664 57.1081 9.39266C57.1017 9.40867 57.0921 9.42325 57.08 9.43554C57.0679 9.44782 57.0534 9.45758 57.0375 9.46424C57.0216 9.4709 57.0045 9.47433 56.9872 9.47433H56.436V9.91106H57.0788C57.1134 9.91197 57.1463 9.92623 57.1706 9.95085C57.1949 9.97547 57.2087 10.0085 57.2091 10.0431C57.2087 10.0776 57.1948 10.1104 57.1705 10.1348C57.1461 10.1591 57.1132 10.173 57.0788 10.1735H56.3092C56.2916 10.1744 56.2738 10.1717 56.2572 10.1656C56.2406 10.1595 56.2254 10.1501 56.2125 10.1379C56.1997 10.1257 56.1894 10.111 56.1824 10.0947C56.1755 10.0784 56.1719 10.0609 56.1719 10.0431Z" fill="#263238"/>
<path d="M58.6865 9.34575C61.7155 9.22777 64.7656 9.22777 67.7928 9.34575C64.7656 9.46374 61.7155 9.46374 58.6865 9.34575Z" fill="#263238"/>
<path d="M37.0908 9.34575C40.118 9.22777 43.1681 9.22777 46.1971 9.34575C43.1681 9.46374 40.118 9.46374 37.0908 9.34575Z" fill="#263238"/>
<path d="M67.7977 11.1015H37.0908V12.9946H67.7977V11.1015Z" fill="#407BFF"/>
<path d="M62.9854 14.8789C64.5368 14.8208 66.245 14.8208 67.7965 14.8789C66.245 14.937 64.5368 14.937 62.9854 14.8789Z" fill="#263238"/>
<path d="M57.21 14.8789C58.6023 14.819 59.9959 14.819 61.3906 14.8789C59.9971 14.9388 58.6035 14.9388 57.21 14.8789Z" fill="#263238"/>
<path d="M49.8096 14.8789C51.7661 14.8208 53.918 14.8208 55.8728 14.8789C53.918 14.937 51.7661 14.937 49.8096 14.8789Z" fill="#263238"/>
<path d="M64.9082 16.2543C65.87 16.1953 66.8345 16.1953 67.7963 16.2543C66.8345 16.3141 65.87 16.3141 64.9082 16.2543Z" fill="#263238"/>
<path d="M59.0195 16.2542C60.6925 16.1979 62.5416 16.1961 64.2057 16.2542C62.5345 16.3123 60.6925 16.3123 59.0195 16.2542Z" fill="#263238"/>
<path d="M49.8096 16.2542C52.5497 16.1979 55.5646 16.1961 58.3047 16.2542C55.5646 16.3123 52.5497 16.3123 49.8096 16.2542Z" fill="#263238"/>
<path d="M58.8027 17.6314C61.7049 17.5733 64.8959 17.5733 67.7963 17.6314C64.8959 17.6895 61.7049 17.6895 58.8027 17.6314Z" fill="#263238"/>
<path d="M49.8096 17.6314C52.275 17.5733 54.9817 17.5733 57.4436 17.6314C54.9782 17.6895 52.2715 17.6895 49.8096 17.6314Z" fill="#263238"/>
<path d="M61.8447 19.0067C63.7642 18.9504 65.8775 18.9486 67.797 19.0067C65.8775 19.0648 63.7642 19.0648 61.8447 19.0067Z" fill="#263238"/>
<path d="M55.1875 19.0067C57.0066 18.9504 59.0107 18.9486 60.8228 19.0067C59.0036 19.0648 56.9996 19.0648 55.1875 19.0067Z" fill="#263238"/>
<path d="M49.8096 19.0067C51.2677 18.9504 52.872 18.9486 54.3301 19.0067C52.872 19.0648 51.2677 19.0648 49.8096 19.0067Z" fill="#263238"/>
<path d="M49.8096 20.3839C53.7208 20.3257 58.023 20.3257 61.9342 20.3839C58.023 20.442 53.7208 20.4402 49.8096 20.3839Z" fill="#263238"/>
<path d="M64.0508 23.1416C65.2999 23.0817 66.5485 23.0817 67.7965 23.1416C66.5473 23.2015 65.2988 23.2015 64.0508 23.1416Z" fill="#263238"/>
<path d="M56.7305 23.1416C58.694 23.0835 60.8565 23.0835 62.8201 23.1416C60.8565 23.1997 58.694 23.198 56.7305 23.1416Z" fill="#263238"/>
<path d="M49.8096 23.1416C51.6903 23.0835 53.7578 23.0835 55.6368 23.1416C53.7578 23.1997 51.6903 23.198 49.8096 23.1416Z" fill="#263238"/>
<path d="M59.7744 24.5117C62.3631 24.4536 65.2089 24.4536 67.7959 24.5117C65.2089 24.5698 62.3631 24.5698 59.7744 24.5117Z" fill="#263238"/>
<path d="M53.625 24.5117C55.2962 24.4536 57.133 24.4536 58.8024 24.5117C57.133 24.5698 55.2962 24.5698 53.625 24.5117Z" fill="#263238"/>
<path d="M49.8096 24.5117C50.873 24.4527 51.9389 24.4527 53.0023 24.5117C51.9389 24.5716 50.873 24.5716 49.8096 24.5117Z" fill="#263238"/>
<path d="M63.583 25.8888C64.9918 25.8289 66.3965 25.8289 67.7971 25.8888C66.3883 25.9487 64.9836 25.9487 63.583 25.8888Z" fill="#263238"/>
<path d="M57.4434 25.8888C59.0829 25.8307 60.8879 25.8307 62.5274 25.8888C60.8879 25.9469 59.0829 25.9452 57.4434 25.8888Z" fill="#263238"/>
<path d="M49.8096 25.8888C52.0108 25.8307 54.4323 25.8307 56.6335 25.8888C54.4323 25.9469 52.0108 25.9452 49.8096 25.8888Z" fill="#263238"/>
<path d="M61.1035 27.2642C63.2625 27.2061 65.6381 27.2061 67.7954 27.2642C65.6364 27.3223 63.2608 27.3223 61.1035 27.2642Z" fill="#263238"/>
<path d="M55.4219 27.2642C56.9522 27.2061 58.6357 27.2061 60.1661 27.2642C58.6357 27.3223 56.9522 27.3223 55.4219 27.2642Z" fill="#263238"/>
<path d="M48.1992 27.2642C50.3406 27.2061 52.6951 27.2061 54.8365 27.2642C52.6951 27.3223 50.3406 27.3223 48.1992 27.2642Z" fill="#263238"/>
<path d="M43.4365 27.2641C44.6986 27.2043 45.9612 27.2043 47.2245 27.2641C45.9612 27.324 44.6986 27.324 43.4365 27.2641Z" fill="#263238"/>
<path d="M37.1211 27.2642C38.9191 27.2061 40.8967 27.2061 42.6947 27.2642C40.8967 27.3223 38.9191 27.3223 37.1211 27.2642Z" fill="#263238"/>
<path d="M52.3467 28.6413C55.0604 28.5832 58.0453 28.5832 60.7591 28.6413C58.0453 28.6994 55.0604 28.6976 52.3467 28.6413Z" fill="#263238"/>
<path d="M46.3457 28.6413C48.1279 28.5832 50.0879 28.5832 51.87 28.6413C50.0879 28.6994 48.1279 28.6976 46.3457 28.6413Z" fill="#263238"/>
<path d="M41.7002 28.6413C43.0914 28.5814 44.4838 28.5814 45.8773 28.6413C44.485 28.7 43.0926 28.7 41.7002 28.6413Z" fill="#263238"/>
<path d="M37.1211 28.6413C38.4383 28.5814 39.7562 28.5814 41.0746 28.6413C39.7573 28.7 38.4395 28.7 37.1211 28.6413Z" fill="#263238"/>
<path d="M63.583 31.3938C64.9918 31.3339 66.3965 31.3339 67.7971 31.3938C66.3883 31.4513 64.9836 31.4513 63.583 31.3938Z" fill="#263238"/>
<path d="M58.3047 31.3938C59.8139 31.3357 61.4745 31.3357 62.9855 31.3938C61.4763 31.4519 59.8156 31.4501 58.3047 31.3938Z" fill="#263238"/>
<path d="M52.7236 31.3938C54.2452 31.3357 55.9199 31.3357 57.4432 31.3938C55.9199 31.4519 54.2452 31.4501 52.7236 31.3938Z" fill="#263238"/>
<path d="M49.332 31.3937C50.1768 31.3321 51.0249 31.3321 51.8697 31.3937C51.0248 31.4536 50.1768 31.4536 49.332 31.3937Z" fill="#263238"/>
<path d="M43.6729 31.3938C45.2243 31.3357 46.9325 31.3357 48.484 31.3938C46.9325 31.4519 45.2243 31.4501 43.6729 31.3938Z" fill="#263238"/>
<path d="M37.1211 31.3938C39.0107 31.3357 41.0887 31.3357 42.9782 31.3938C41.0887 31.4519 39.0107 31.4501 37.1211 31.3938Z" fill="#263238"/>
<path d="M61.1035 32.7691C63.2625 32.711 65.6381 32.711 67.7954 32.7691C65.6364 32.8272 63.2608 32.8272 61.1035 32.7691Z" fill="#263238"/>
<path d="M56.2217 32.7691C57.6188 32.7092 59.0141 32.7092 60.4076 32.7691C59.0129 32.829 57.6176 32.829 56.2217 32.7691Z" fill="#263238"/>
<path d="M51.0303 32.7691C52.4954 32.7092 53.9594 32.7092 55.4223 32.7691C53.9594 32.829 52.4954 32.829 51.0303 32.7691Z" fill="#263238"/>
<path d="M41.8955 32.7691C44.5582 32.711 47.4885 32.711 50.1512 32.7691C47.4885 32.8272 44.5582 32.8272 41.8955 32.7691Z" fill="#263238"/>
<path d="M37.1211 32.7691C38.4383 32.7092 39.7562 32.7092 41.0746 32.7691C39.7573 32.829 38.4395 32.829 37.1211 32.7691Z" fill="#263238"/>
<path d="M47.4277 34.1445C49.8174 34.0881 52.4466 34.0863 54.8364 34.1445C52.4466 34.2026 49.8174 34.2026 47.4277 34.1445Z" fill="#263238"/>
<path d="M43.4365 34.1445C44.5323 34.0864 45.6304 34.0864 46.7261 34.1445C45.6304 34.2043 44.5322 34.2043 43.4365 34.1445Z" fill="#263238"/>
<path d="M37.1211 34.1445C38.8821 34.0881 40.8192 34.0863 42.5679 34.1445C40.8069 34.2026 38.8698 34.2026 37.1211 34.1445Z" fill="#263238"/>
<path d="M46.4619 35.5216C48.0574 35.4635 49.8079 35.4635 51.4069 35.5216C49.8114 35.5797 48.0609 35.5797 46.4619 35.5216Z" fill="#263238"/>
<path d="M41.3975 35.5216C42.8521 35.4617 44.3061 35.4617 45.7595 35.5216C44.3073 35.5815 42.8532 35.5815 41.3975 35.5216Z" fill="#263238"/>
<path d="M37.1211 35.5216C38.3421 35.4617 39.5625 35.4617 40.7823 35.5216C39.5613 35.5815 38.3409 35.5815 37.1211 35.5216Z" fill="#263238"/>
<path d="M48.4824 38.2741C50.5305 38.216 52.7864 38.216 54.8362 38.2741C52.7864 38.3322 50.5305 38.3322 48.4824 38.2741Z" fill="#263238"/>
<path d="M43.0947 38.2741C44.5969 38.216 46.2487 38.216 47.7491 38.2741C46.2487 38.3322 44.5969 38.3322 43.0947 38.2741Z" fill="#263238"/>
<path d="M37.1211 38.2741C38.8029 38.216 40.6431 38.216 42.3337 38.2741C40.6519 38.3322 38.8029 38.3322 37.1211 38.2741Z" fill="#263238"/>
<path d="M51.1318 39.6494C52.3681 39.5907 53.6008 39.5907 54.83 39.6494C53.5961 39.7093 52.3634 39.7093 51.1318 39.6494Z" fill="#263238"/>
<path d="M45.876 39.6494C47.3006 39.5931 48.8697 39.5913 50.2979 39.6494C48.8715 39.7075 47.3042 39.7075 45.876 39.6494Z" fill="#263238"/>
<path d="M40.7832 39.6494C42.2143 39.5907 43.6472 39.5907 45.0819 39.6494C43.6484 39.7093 42.2155 39.7093 40.7832 39.6494Z" fill="#263238"/>
<path d="M37.1211 39.6494C38.0964 39.5904 39.0744 39.5904 40.0497 39.6494C39.0744 39.7093 38.0964 39.7093 37.1211 39.6494Z" fill="#263238"/>
<path d="M47.748 41.0266C50.0374 40.9684 52.5504 40.9684 54.8362 41.0266C52.5468 41.0847 50.0339 41.0847 47.748 41.0266Z" fill="#263238"/>
<path d="M42.9307 41.0265C44.2749 40.9667 45.618 40.9667 46.9599 41.0265C45.618 41.0864 44.2749 41.0864 42.9307 41.0265Z" fill="#263238"/>
<path d="M37.1211 41.0266C38.7553 40.9684 40.5533 40.9684 42.1876 41.0266C40.5533 41.0847 38.7553 41.0847 37.1211 41.0266Z" fill="#263238"/>
<path d="M37.1211 42.4019C40.2187 42.3456 43.6263 42.3438 46.7257 42.4019C43.6281 42.46 40.2187 42.46 37.1211 42.4019Z" fill="#263238"/>
<path d="M58.585 45.1544C61.5576 45.098 64.826 45.0963 67.7969 45.1544C64.826 45.2125 61.5576 45.2125 58.585 45.1544Z" fill="#263238"/>
<path d="M53.002 45.1544C54.5869 45.098 56.3285 45.0963 57.9117 45.1544C56.3268 45.2125 54.5851 45.2125 53.002 45.1544Z" fill="#263238"/>
<path d="M49.8096 45.1544C50.6544 45.0941 51.5024 45.0941 52.3472 45.1544C51.5054 45.2152 50.6602 45.2152 49.8184 45.1544H49.8096Z" fill="#263238"/>
<path d="M43.0947 45.1544C45.0318 45.098 47.168 45.0963 49.1069 45.1544C47.1697 45.2125 45.0336 45.2125 43.0947 45.1544Z" fill="#263238"/>
<path d="M37.1211 45.1544C38.8029 45.098 40.6431 45.0963 42.3337 45.1544C40.6519 45.2125 38.8029 45.2125 37.1211 45.1544Z" fill="#263238"/>
<path d="M61.2783 46.5315C63.381 46.4734 65.6932 46.4734 67.7941 46.5315C65.6914 46.5896 63.3792 46.5879 61.2783 46.5315Z" fill="#263238"/>
<path d="M55.9717 46.5315C57.3999 46.4734 58.9654 46.4734 60.4007 46.5315C58.9725 46.5896 57.4069 46.5879 55.9717 46.5315Z" fill="#263238"/>
<path d="M51.291 46.5315C52.6282 46.4716 53.9654 46.4716 55.3026 46.5315C53.9642 46.5914 52.627 46.5914 51.291 46.5315Z" fill="#263238"/>
<path d="M45.0811 46.5315C46.8614 46.4734 48.8215 46.4734 50.6001 46.5315C48.8215 46.5896 46.8614 46.5879 45.0811 46.5315Z" fill="#263238"/>
<path d="M40.6562 46.5315C41.9113 46.4716 43.1669 46.4716 44.4231 46.5315C43.1681 46.5914 41.9124 46.5914 40.6562 46.5315Z" fill="#263238"/>
<path d="M37.1211 46.5315C38.0488 46.4716 38.9793 46.4716 39.907 46.5315C38.9793 46.5905 38.0488 46.5905 37.1211 46.5315Z" fill="#263238"/>
<path d="M52.7236 47.9069C54.3579 47.8488 56.1594 47.8488 57.7936 47.9069C56.1594 47.965 54.3579 47.965 52.7236 47.9069Z" fill="#263238"/>
<path d="M48.0869 47.9069C49.3478 47.8482 50.6087 47.8482 51.8696 47.9069C50.6087 47.9668 49.3478 47.9668 48.0869 47.9069Z" fill="#263238"/>
<path d="M42.9307 47.9069C44.3817 47.8488 45.979 47.8488 47.4283 47.9069C45.979 47.965 44.3817 47.965 42.9307 47.9069Z" fill="#263238"/>
<path d="M37.1211 47.9069C38.706 47.8488 40.4547 47.8488 42.0414 47.9069C40.4565 47.965 38.7078 47.965 37.1211 47.9069Z" fill="#263238"/>
<path d="M37.0907 25.8871H48.2979V14.6799L37.0907 14.6799V25.8871Z" fill="#EBEBEB"/>
<path d="M37.641 25.3394H47.751V15.2294L37.641 15.2294V25.3394Z" fill="#407BFF"/>
<path opacity="0.1" d="M39.2676 17.642C39.2274 17.8428 39.2528 18.0513 39.3403 18.2366C39.4277 18.4219 39.5724 18.5742 39.753 18.6709C39.9336 18.7676 40.1406 18.8036 40.3432 18.7736C40.5459 18.7436 40.7335 18.6492 40.8784 18.5043C41.0233 18.3595 41.1177 18.1718 41.1477 17.9691C41.1777 17.7665 41.1417 17.5595 41.045 17.3789C40.9483 17.1983 40.796 17.0536 40.6107 16.9662C40.4254 16.8788 40.2169 16.8533 40.016 16.8935C39.8314 16.9305 39.6618 17.0213 39.5286 17.1545C39.3954 17.2877 39.3046 17.4573 39.2676 17.642Z" fill="black"/>
<path opacity="0.1" d="M40.4424 22.7155H47.7489L44.0965 18.6193L40.4424 22.7155Z" fill="black"/>
<path d="M37.6396 22.7154H43.6729L40.6563 20.0475L37.6396 22.7154Z" fill="#407BFF"/>
<g opacity="0.2">
<path d="M37.6396 22.7154H43.6729L40.6563 20.0475L37.6396 22.7154Z" fill="black"/>
</g>
<path d="M47.7497 22.7155H37.6396V25.3394H47.7497V22.7155Z" fill="#407BFF"/>
<path opacity="0.2" d="M47.7497 22.7155H37.6396V25.3394H47.7497V22.7155Z" fill="black"/>
<path d="M55.9701 42.4512H67.8975V34.0459H55.9701V42.4512Z" fill="#EBEBEB"/>
<path d="M56.3831 42.0391H67.4863V34.4579H56.3831V42.0391Z" fill="#455A64"/>
<path d="M57.6036 36.2665C57.5737 36.417 57.5929 36.573 57.6585 36.7117C57.7241 36.8503 57.8325 36.9642 57.9678 37.0365C58.1031 37.1088 58.258 37.1357 58.4097 37.1132C58.5615 37.0907 58.7019 37.02 58.8104 36.9115C58.9188 36.8031 58.9895 36.6626 59.0121 36.5109C59.0346 36.3592 59.0077 36.2042 58.9354 36.069C58.8631 35.9337 58.7492 35.8252 58.6105 35.7597C58.4719 35.6941 58.3158 35.6748 58.1653 35.7047C58.0267 35.7325 57.8995 35.8007 57.7995 35.9007C57.6996 36.0006 57.6314 36.1279 57.6036 36.2665Z" fill="#37474F"/>
<path d="M58.4844 40.0721H67.4867L62.9855 36.9991L58.4844 40.0721Z" fill="#37474F"/>
<path d="M56.3818 40.0721H62.5278L59.4548 38.0716L56.3818 40.0721Z" fill="#263238"/>
<path d="M67.4851 40.0721H56.3818V42.0391H67.4851V40.0721Z" fill="#263238"/>
<path d="M34.6504 29.1995C35.5899 29.1995 36.3515 28.4379 36.3515 27.4984C36.3515 26.5589 35.5899 25.7972 34.6504 25.7972C33.7108 25.7972 32.9492 26.5589 32.9492 27.4984C32.9492 28.4379 33.7108 29.1995 34.6504 29.1995Z" fill="#455A64"/>
<path d="M34.9125 28.0038C34.9313 28.0224 34.9441 28.0461 34.9494 28.0721C34.9547 28.098 34.9522 28.1249 34.9422 28.1494C34.9322 28.1739 34.9152 28.1949 34.8933 28.2097C34.8714 28.2245 34.8456 28.2325 34.8191 28.2327C34.7832 28.2321 34.7487 28.2183 34.7223 28.194L34.1288 27.5917C34.1261 27.5908 34.1237 27.5891 34.1218 27.587C34.12 27.5848 34.1187 27.5822 34.1183 27.5794C34.1168 27.5736 34.1168 27.5675 34.1183 27.5617C34.1174 27.5589 34.1174 27.5558 34.1183 27.5529C34.1183 27.5529 34.1183 27.5424 34.1183 27.5406C34.1183 27.5389 34.1183 27.5318 34.1183 27.53V27.516C34.1183 27.516 34.1183 27.516 34.1183 27.5019C34.1183 27.4878 34.1183 27.5019 34.1183 27.4913V27.4772C34.1183 27.4772 34.1183 27.4666 34.1183 27.4614C34.1211 27.4546 34.1246 27.4481 34.1288 27.442C34.1319 27.4365 34.1361 27.4317 34.1411 27.4279L34.7364 26.8045C34.7619 26.78 34.796 26.7663 34.8315 26.7663C34.8669 26.7663 34.901 26.78 34.9266 26.8045C34.9391 26.817 34.9491 26.8318 34.9559 26.8481C34.9627 26.8644 34.9662 26.8819 34.9662 26.8996C34.9662 26.9173 34.9627 26.9348 34.9559 26.9511C34.9491 26.9674 34.9391 26.9823 34.9266 26.9947L34.4264 27.4983L34.9125 28.0038Z" fill="white"/>
<path d="M70.2373 29.1995C71.1768 29.1995 71.9384 28.4379 71.9384 27.4984C71.9384 26.5589 71.1768 25.7972 70.2373 25.7972C69.2978 25.7972 68.5361 26.5589 68.5361 27.4984C68.5361 28.4379 69.2978 29.1995 70.2373 29.1995Z" fill="#455A64"/>
<path d="M69.97 26.9947C69.9512 26.9761 69.9383 26.9524 69.933 26.9264C69.9277 26.9005 69.9302 26.8736 69.9402 26.8491C69.9502 26.8246 69.9672 26.8036 69.9891 26.7888C70.011 26.774 70.0368 26.766 70.0633 26.7658C70.0994 26.7657 70.1341 26.7796 70.1601 26.8046L70.7536 27.4068C70.7536 27.4068 70.7624 27.4068 70.7642 27.4191C70.7656 27.4249 70.7656 27.431 70.7642 27.4368C70.7653 27.4396 70.7653 27.4427 70.7642 27.4456C70.7642 27.4456 70.7642 27.4561 70.7642 27.4579C70.7642 27.4597 70.7642 27.4667 70.7642 27.4685V27.4825C70.7642 27.4825 70.7642 27.4825 70.7642 27.4949C70.7642 27.5072 70.7642 27.4949 70.7642 27.5054V27.5213C70.7642 27.5213 70.7642 27.5213 70.7642 27.5301C70.7642 27.5389 70.7642 27.5407 70.7642 27.5459C70.7642 27.5459 70.7642 27.56 70.7536 27.5636C70.7511 27.5694 70.7468 27.5744 70.7413 27.5776L70.1478 28.1799C70.1222 28.2044 70.0882 28.2181 70.0527 28.2181C70.0173 28.2181 69.9832 28.2044 69.9576 28.1799C69.9451 28.1675 69.9351 28.1527 69.9283 28.1363C69.9215 28.12 69.918 28.1025 69.918 28.0848C69.918 28.0671 69.9215 28.0496 69.9283 28.0333C69.9351 28.017 69.9451 28.0022 69.9576 27.9897L70.4578 27.4843L69.97 26.9947Z" fill="white"/>
<path d="M66.751 50.2754L70.2396 46.7868H66.751V50.2754Z" fill="#EBEBEB"/>
<path d="M19.9712 43.0411C21.5368 51.8656 25.1609 62.5321 26.8392 64.3178C28.97 66.5772 42.8046 70.5342 43.539 70.6575C45.3599 70.9339 50.2731 59.6018 48.3395 59.2214C45.3951 58.6455 34.836 56.5799 34.2232 55.886C33.5874 55.1587 29.3222 49.1941 24.9655 42.4688C21.9665 37.8144 18.9991 37.5626 19.9712 43.0411Z" fill="#D3766A"/>
<path d="M42.554 70.4056C42.7494 70.4849 45.5336 71.5838 47.2224 71.9131C48.4833 72.1579 52.1304 72.7672 52.5372 71.4059C52.8172 70.4778 50.7145 69.8685 49.237 69.4036C48.4587 69.1588 47.4637 68.4562 47.6415 67.9543C47.9532 67.0738 49.9591 67.7483 51.2957 68.3717C53.8791 69.578 57.3818 71.8514 58.7694 70.4708C59.2977 69.9425 58.5581 69.15 57.5191 68.3963C59.171 69.2346 60.9091 69.8897 61.5149 69.3314C61.8671 69.0144 61.8442 68.627 61.5959 68.1973C62.0925 68.3118 62.5169 68.2414 62.7863 67.9015C63.246 67.3239 62.9272 66.5613 62.3003 65.8076C62.3953 65.7875 62.4841 65.7451 62.5595 65.6839C62.6348 65.6226 62.6945 65.5443 62.7335 65.4554C63.6616 63.7173 57.8537 59.4944 55.9518 59.2214C50.3553 58.4131 44.6055 59.1756 44.6055 59.1756C42.6086 61.0951 42.5487 70.4039 42.554 70.4056Z" fill="#D3766A"/>
<path d="M50.1544 64.6383C51.4757 64.7244 52.7635 65.0912 53.9318 65.7143C55.404 66.5067 56.4219 67.4964 57.6845 68.472C57.7162 68.4967 57.6845 68.5495 57.6458 68.5248C57.0435 68.0599 54.5693 66.3377 53.9353 65.952C52.7878 65.2392 51.493 64.7972 50.1491 64.6594C50.1368 64.6594 50.1403 64.6365 50.1544 64.6383Z" fill="#263238"/>
<path d="M50.9654 62.2204C52.4412 62.4846 53.9591 62.7487 55.3486 63.3105C56.8789 63.9251 58.1328 65.0363 59.3637 66.1034C60.1034 66.7445 60.8277 67.4019 61.5368 68.0758C61.5668 68.104 61.5368 68.1568 61.4981 68.1286C60.2478 67.025 58.9646 65.9585 57.6485 64.9288C56.4339 63.9672 55.0413 63.255 53.5506 62.8332C52.6983 62.5937 51.8301 62.4194 50.9619 62.2468C50.9593 62.2455 50.9571 62.2434 50.9557 62.2408C50.9544 62.2382 50.9538 62.2353 50.9542 62.2324C50.9546 62.2294 50.9559 62.2267 50.9579 62.2246C50.9599 62.2224 50.9625 62.221 50.9654 62.2204Z" fill="#263238"/>
<path d="M52.3203 60.0491C53.745 60.2111 54.9883 60.3467 56.2949 60.9842C58.0243 61.8295 59.7571 63.358 60.3664 63.9022C61.0391 64.5009 61.6907 65.1226 62.3335 65.7548C62.3599 65.7794 62.3159 65.8252 62.2877 65.8006C60.8227 64.4213 59.2703 63.1378 57.6404 61.958C56.8723 61.3853 56.0205 60.9345 55.1151 60.6214C54.2099 60.3256 53.2572 60.197 52.3203 60.0596V60.0491Z" fill="#263238"/>
<path d="M46.0727 57.4392L40.7896 71.6472C40.7896 71.6472 28.6386 67.507 26.4972 64.9553C24.3557 62.4036 20.8337 49.6485 19.9145 43.5025C18.9952 37.3565 22.0647 37.6612 24.6991 41.6394C27.3336 45.6175 33.9093 55.2679 34.2932 55.4898C34.6771 55.7117 46.0727 57.4392 46.0727 57.4392Z" fill="#407BFF"/>
<path d="M39.7201 64.9922C40.3171 63.4073 40.9264 61.8224 41.4635 60.2164C41.7699 59.3024 42.0798 58.3884 42.3775 57.4727C42.388 57.4375 42.3299 57.4128 42.3158 57.4463C41.6537 59.0136 40.9933 60.5879 40.4034 62.1869C39.8134 63.7859 39.2147 65.3568 38.6423 66.9593C38.3195 67.868 38.026 68.7855 37.7618 69.7118C37.7614 69.7156 37.7623 69.7195 37.7643 69.7228C37.7663 69.7261 37.7693 69.7287 37.7729 69.7301C37.7766 69.7315 37.7805 69.7317 37.7842 69.7306C37.788 69.7295 37.7912 69.7272 37.7935 69.7241C38.5138 68.1779 39.1196 66.5895 39.7201 64.9922Z" fill="#263238"/>
<path opacity="0.1" d="M34.669 69.3508L34.1319 69.1324C33.1228 68.7133 32.0944 68.2677 31.1276 67.8134C31.0025 67.757 30.8793 67.6989 30.7595 67.6373C30.564 67.5457 30.3703 67.4506 30.1836 67.3573C30.0886 67.3115 29.997 67.2622 29.9036 67.2164L29.805 67.1671L29.5145 67.0157C29.1323 66.8149 28.7696 66.6159 28.4332 66.4169C28.3557 66.3729 28.2747 66.3253 28.199 66.2778C27.6725 65.9716 27.1796 65.611 26.7285 65.2018C26.6863 65.1595 26.6458 65.119 26.6088 65.0785C26.5718 65.038 26.5331 64.9975 26.4996 64.9588C24.367 62.4141 20.8344 49.652 19.9151 43.506C19.9063 43.4338 19.8958 43.3634 19.8852 43.2929C19.8843 43.2777 19.8843 43.2624 19.8852 43.2471C19.8253 42.7805 19.7813 42.2046 19.7531 41.583C19.7337 38.547 21.1919 38.1243 22.8965 39.5437C26.8465 49.2399 32.8234 65.23 34.669 69.3508Z" fill="black"/>
<path d="M28.9248 72.5506H0C1.22215 67.1002 6.29037 46.6635 15.2575 38.4801L15.4565 38.304C16.7579 37.1487 19.6953 37.4076 21.6201 38.3603C21.7537 38.44 21.8728 38.5418 21.9723 38.6615C22.7401 39.5103 24.1348 41.8736 24.9096 44.2967C25.0458 44.7162 25.1604 45.1423 25.253 45.5735C25.2724 45.6562 25.2918 45.7496 25.3112 45.8676C25.3305 45.9521 25.3464 46.0437 25.3657 46.1511C25.3904 46.2973 25.4168 46.4575 25.4468 46.6336C26.2234 51.3285 28.2045 66.6529 28.9248 72.5506Z" fill="#407BFF"/>
<path d="M19.8672 45.6386L21.2337 43.5571L22.6549 45.2248L22.2956 46.8044L20.6861 47.0668L19.8672 45.6386Z" fill="#263238"/>
<path d="M20.6866 47.0668L20.5264 65.2617L22.8826 70.9199L25.0187 64.7968L22.2962 46.8044L20.6866 47.0668Z" fill="#263238"/>
<path d="M12.0086 43.3599C7.55671 53.0596 4.53656 69.1447 7.29432 71.5908C10.3655 74.3133 16.1523 62.8949 15.9022 62.3243C15.712 61.8928 15.8511 51.5152 16.0607 43.9287C16.2702 36.3422 13.1092 40.9614 12.0086 43.3599Z" fill="#D3766A"/>
<path d="M15.9707 62.3102C15.9161 61.2272 16.2454 47.4895 16.2067 43.1979C16.1679 38.9063 14.4949 38.1807 11.9256 43.057C9.35629 47.9333 5.57185 60.2129 5.89764 67.0879C6.2111 73.7093 9.29289 73.2409 12.3395 69.025C13.8393 66.9558 15.0602 64.6982 15.9707 62.3102Z" fill="#407BFF"/>
<path d="M15.9375 64.0836C15.772 58.9484 15.8483 53.8127 16.1665 48.6764C16.3332 53.8115 16.2568 58.9473 15.9375 64.0836Z" fill="#263238"/>
<path d="M16.1758 51.6578C16.2597 50.9864 16.4107 50.325 16.6266 49.6837C16.5873 50.3623 16.435 51.0295 16.1758 51.6578Z" fill="#263238"/>
<path d="M8.07088 71.7282C10.5803 73.4698 15.8387 72.5171 27.7943 70.58C29.4479 70.3105 29.9075 57.8425 28.1236 58.038C25.8801 58.2845 17.2282 59.725 16.6101 59.9117C11.3816 61.4737 6.36797 70.5465 8.07088 71.7282Z" fill="#D3766A"/>
<path d="M30.3672 57.3054C33.8434 56.6397 34.8384 57.0025 37.4729 54.884C39.204 53.4928 40.8347 54.0035 39.9137 56.1167C38.4098 59.5806 34.1023 61.3804 32.4329 61.5759L30.3672 57.3054Z" fill="#D3766A"/>
<path d="M22.7334 60.2762C22.7334 60.2762 25.0615 58.7547 28.6962 57.6787C31.2092 56.9356 36.8586 55.9265 42.5819 61.2607C43.9396 62.5251 44.9769 65.2916 42.0095 64.0307C39.8963 63.1344 38.8397 61.9298 37.5136 61.6322C37.5136 61.6322 38.4171 65.3075 37.0963 66.6177C35.9409 67.764 34.7051 68.8263 33.3981 69.7963C33.1656 69.5983 32.9462 69.3854 32.7413 69.1588C32.7413 69.1588 31.535 70.5377 27.5639 70.6205L22.7334 60.2762Z" fill="#D3766A"/>
<path d="M31.2139 57.353C32.4625 57.9253 35.0882 59.1827 36.8809 60.9595C38.8691 62.9336 42.164 67.2693 40.697 68.7239C39.6175 69.7893 38.2122 68.2431 38.2122 68.2431C38.2122 68.2431 39.1984 70.3246 38.0132 71.0731C36.9337 71.7564 35.9176 70.4955 35.9176 70.4955C35.9176 70.4955 36.298 71.8603 35.1322 72.3181C33.7234 72.8676 33.1599 69.9179 31.258 69.2451C30.8212 69.1043 31.2139 57.353 31.2139 57.353Z" fill="#D3766A"/>
<path d="M34.4396 62.7135C35.5244 63.4443 37.5654 65.7389 38.2223 68.1885C38.2381 68.2431 38.2029 68.2836 38.18 68.2361C37.1543 66.2562 35.8918 64.4082 34.4202 62.7329C34.4097 62.7205 34.4273 62.7047 34.4396 62.7135Z" fill="#263238"/>
<path d="M32.505 64.7792C33.3767 65.5065 35.3755 67.9649 35.9549 70.469C35.9672 70.5254 35.932 70.5641 35.9091 70.5148C34.987 68.486 33.8385 66.5678 32.4857 64.7968C32.4751 64.7845 32.4927 64.7704 32.505 64.7792Z" fill="#263238"/>
<path d="M37.5131 61.6093C38.6701 61.8876 39.4502 62.4088 40.4381 63.0287C40.9278 63.3425 41.4346 63.6288 41.9561 63.8863C42.4334 64.1135 43.1378 64.4587 43.6132 64.0395C43.8774 63.8071 43.8527 63.4073 43.7753 63.0974C43.6134 62.6412 43.3797 62.2138 43.0832 61.8312C43.0709 61.8154 43.0955 61.796 43.1078 61.8101C43.3937 62.1576 43.6433 62.5335 43.8527 62.9319C43.9888 63.204 44.0403 63.5107 44.0007 63.8124C43.8651 64.4516 43.1202 64.5714 42.5919 64.4252C42.2726 64.3267 41.964 64.1963 41.6708 64.036C41.3856 63.8916 41.1091 63.7331 40.8361 63.5676C40.2744 63.2295 39.7337 62.8632 39.1772 62.511C38.6358 62.1858 38.0741 61.8958 37.4955 61.6428C37.4761 61.6375 37.4902 61.604 37.5131 61.6093Z" fill="#263238"/>
<path d="M40.1062 65.503C39.7786 64.8672 38.0423 62.238 37.4911 61.6375C37.488 61.6345 37.4863 61.6304 37.4863 61.6261C37.4863 61.6218 37.488 61.6177 37.4911 61.6146C37.4941 61.6116 37.4982 61.6099 37.5025 61.6099C37.5068 61.6099 37.5109 61.6116 37.514 61.6146C38.4473 62.4124 39.99 64.5784 40.358 65.2793C40.7261 65.9802 41.1487 66.8642 41.1892 67.6497C41.2509 68.8419 40.4707 69.1078 40.1819 69.18C39.8378 69.26 39.4767 69.2196 39.1588 69.0655C38.7852 68.8619 38.4573 68.5838 38.1955 68.2484C38.1814 68.2326 38.1955 68.2097 38.2166 68.2237C38.6533 68.6728 39.3648 69.1043 40.0076 68.9845C40.1499 68.9632 40.2866 68.9137 40.4097 68.8391C40.5327 68.7644 40.6397 68.666 40.7243 68.5495C40.8865 68.2536 40.9372 67.9093 40.8669 67.5792C40.7666 66.8431 40.4443 66.1563 40.1062 65.503Z" fill="#263238"/>
<path d="M26.0759 57.8231L20.4723 72.3639C20.4723 72.3639 9.88332 73.7727 7.47248 71.8039C5.88756 70.5078 10.6177 61.0387 16.5083 59.6916L26.0759 57.8231Z" fill="#407BFF"/>
<path d="M10.5136 63.9973C11.1652 63.0005 13.1234 60.5087 16.5169 59.681C16.5469 59.681 16.5645 59.7197 16.5345 59.7303C14.0691 60.5914 11.2603 63.1238 10.5471 64.029C10.5312 64.0519 10.496 64.0202 10.5136 63.9973Z" fill="#263238"/>
<path d="M17.1256 71.5696C17.6539 69.9372 18.2721 68.3364 18.8867 66.7356C19.5013 65.1349 20.1194 63.5323 20.7868 61.9457C21.1619 61.0493 21.5299 60.1512 21.935 59.2689C21.9369 59.2631 21.941 59.2582 21.9464 59.2554C21.9519 59.2526 21.9582 59.2521 21.964 59.2539C21.9699 59.2558 21.9747 59.2599 21.9775 59.2654C21.9804 59.2708 21.9809 59.2772 21.979 59.283C21.4507 60.9119 20.8396 62.518 20.2303 64.1205C19.621 65.7231 18.9976 67.3256 18.3478 68.9193C17.985 69.8192 17.6046 70.7138 17.1996 71.5961C17.1855 71.6348 17.108 71.6119 17.1256 71.5696Z" fill="#263238"/>
<path d="M26.0387 57.6752C25.3729 57.7245 24.711 57.8181 24.0576 57.9552C23.399 58.075 22.7439 58.2053 22.0888 58.3409C20.7874 58.6121 17.9997 59.0365 15.7368 59.9064C15.7121 59.9152 15.8864 59.9892 15.9129 59.9769C16.9695 59.5084 25.2815 58.1014 25.9348 57.9041C25.9239 57.9551 25.9175 58.007 25.9155 58.0591C25.9155 58.0943 25.9612 58.1243 25.9859 58.0891C26.044 58.0045 26.0757 57.9129 26.1285 57.8284C26.1389 57.813 26.1446 57.795 26.1452 57.7765C26.1458 57.758 26.1411 57.7396 26.1317 57.7236C26.1223 57.7076 26.1086 57.6946 26.0922 57.686C26.0757 57.6775 26.0572 57.6737 26.0387 57.6752Z" fill="#263238"/>
<path d="M9.54053 72.6368C7.47838 72.3005 6.56264 71.5432 6.07308 69.4793C5.44792 66.7321 5.82478 63.881 6.23333 61.1321C6.98529 56.7295 8.18983 52.4326 9.54934 48.1903C9.06858 50.1275 8.37297 52.7584 7.9292 54.6656C6.99057 58.8921 4.89496 67.0791 6.82328 70.9744C7.39032 72.0487 8.43813 72.3551 9.54053 72.6368Z" fill="#263238"/>
<path d="M8.95706 48.583C8.87957 49.2646 8.76158 49.9197 8.83379 50.6047C8.57668 49.9602 8.70171 49.21 8.95706 48.583Z" fill="#263238"/>
<path d="M21.2856 43.536C19.5668 43.6857 17.0891 40.7289 16.2667 38.5065C16.2103 38.3533 16.6453 36.8987 17.0891 35.106C17.355 34.0177 17.6262 32.799 17.7935 31.6702C17.8269 31.4378 24.6245 34.4333 24.6245 34.4333C24.6245 34.4333 23.5802 36.6979 23.3037 38.6703C23.2826 38.8261 23.2761 38.9835 23.2843 39.1405C23.2843 39.1616 23.2843 39.188 23.2843 39.2179C23.2896 40.1196 22.9462 43.3933 21.2856 43.536Z" fill="#D3766A"/>
<path d="M18.2227 31.7706C18.2702 33.7288 18.7791 38.517 22.5477 39.1581C22.7889 39.2019 23.0334 39.2249 23.2785 39.2267C23.282 39.2004 23.282 39.1738 23.2785 39.1475C23.2724 38.9905 23.2782 38.8333 23.2962 38.6773C23.5762 36.7032 24.6222 34.4385 24.6222 34.4385C24.6222 34.4385 19.7178 32.2707 18.2227 31.7706Z" fill="#263238"/>
<path d="M18.8681 22.7894C17.5332 25.0787 17.1616 32.5314 18.5458 34.5372C20.5534 37.4429 24.6741 38.6439 27.3509 36.0393C29.9502 33.5158 30.2619 23.802 28.6382 21.8948C26.2485 19.0772 20.8386 19.3924 18.8681 22.7894Z" fill="#D3766A"/>
<path d="M24.8747 29.0023C24.8747 28.9829 24.8342 29.0252 24.8342 29.0463C24.8342 29.5482 24.7356 30.1223 24.2742 30.2684C24.2601 30.2684 24.2601 30.2984 24.2742 30.2966C24.836 30.2438 24.9505 29.4813 24.8747 29.0023Z" fill="#263238"/>
<path d="M24.4521 28.4581C23.6473 28.3612 23.5117 29.9761 24.2566 30.0676C25.0015 30.1592 25.1265 28.5408 24.4521 28.4581Z" fill="#263238"/>
<path d="M27.6765 29.2541C27.6765 29.2347 27.7135 29.2805 27.7117 29.3016C27.6536 29.8 27.6712 30.3811 28.1097 30.5854C28.1238 30.5854 28.1203 30.6171 28.1097 30.6136C27.5567 30.4886 27.5409 29.7172 27.6765 29.2541Z" fill="#263238"/>
<path d="M28.1679 28.7769C28.978 28.7769 28.904 30.404 28.1538 30.397C27.4037 30.3899 27.4882 28.7628 28.1679 28.7769Z" fill="#263238"/>
<path d="M23.9205 27.3892C24.1412 27.3648 24.3604 27.329 24.5774 27.2818C24.8292 27.2377 25.0335 27.2289 25.2272 27.044C25.2761 26.9864 25.3046 26.9142 25.3081 26.8386C25.3116 26.7631 25.29 26.6886 25.2466 26.6267C25.044 26.3713 24.7183 26.3484 24.4171 26.3889C24.1084 26.4193 23.8221 26.5637 23.6141 26.794C23.3922 27.0282 23.6211 27.4085 23.9205 27.3892Z" fill="#263238"/>
<path d="M29.069 27.9404C28.8517 27.8932 28.6372 27.8345 28.4262 27.7643C28.1814 27.6921 27.9789 27.6604 27.8081 27.4561C27.7673 27.3928 27.7479 27.3182 27.7527 27.2431C27.7574 27.168 27.7861 27.0963 27.8345 27.0387C28.0634 26.808 28.3857 26.8204 28.6851 26.8943C28.9884 26.9594 29.2569 27.1344 29.4388 27.3856C29.4767 27.4452 29.4964 27.5145 29.4957 27.5852C29.4949 27.6558 29.4736 27.7246 29.4345 27.7834C29.3953 27.8421 29.3399 27.8882 29.275 27.9161C29.2101 27.944 29.1386 27.9524 29.069 27.9404Z" fill="#263238"/>
<path d="M23.4445 33.4207C23.5449 33.5545 23.64 33.7324 23.8179 33.7729C24.0032 33.797 24.1916 33.782 24.3708 33.7288C24.3744 33.728 24.3781 33.7284 24.3815 33.7298C24.3848 33.7312 24.3877 33.7336 24.3896 33.7367C24.3915 33.7398 24.3925 33.7434 24.3923 33.7471C24.3921 33.7507 24.3907 33.7542 24.3884 33.757C24.3029 33.8442 24.1954 33.9067 24.0773 33.9377C23.9591 33.9687 23.8348 33.9671 23.7175 33.9331C23.6194 33.8924 23.5358 33.8231 23.4777 33.7342C23.4196 33.6453 23.3896 33.541 23.3917 33.4348C23.3899 33.4048 23.4287 33.4013 23.4445 33.4207Z" fill="#263238"/>
<path d="M24.1896 32.0119C24.2864 32.2273 24.4265 32.4205 24.6014 32.5793C24.7762 32.7381 24.982 32.8591 25.2058 32.9346C25.4004 33.003 25.6038 33.0433 25.8098 33.0544C25.8491 33.057 25.8885 33.057 25.9278 33.0544H26.0387C26.066 33.0532 26.0922 33.043 26.1131 33.0255C26.1341 33.008 26.1488 32.9842 26.1549 32.9575C26.1574 32.9406 26.1574 32.9234 26.1549 32.9065V32.8624C26.2219 32.482 26.2729 31.8939 26.2729 31.8939C26.4015 31.9854 27.0654 32.4134 27.0848 32.2109C27.2344 30.5432 27.4017 28.6888 27.1992 26.9947C27.1971 26.9839 27.1913 26.9741 27.1828 26.9671C27.1743 26.9601 27.1636 26.9563 27.1526 26.9563C27.1415 26.9563 27.1308 26.9601 27.1223 26.9671C27.1138 26.9741 27.108 26.9839 27.1059 26.9947C26.8981 28.5937 26.9738 30.2174 26.7907 31.8252C26.5758 31.7054 26.2289 31.4888 26.0281 31.4642C25.9718 31.4642 25.9507 32.6 25.9066 32.7691C25.9078 32.7749 25.9078 32.7809 25.9066 32.7867C25.2515 32.7709 24.7972 32.5049 24.2372 31.9802C24.2108 31.9467 24.1703 31.9678 24.1896 32.0119Z" fill="#263238"/>
<path d="M25.6119 32.8272C25.3613 33.069 25.0526 33.2418 24.7155 33.3291C24.5307 33.3702 24.3377 33.3536 24.1626 33.2815C23.7804 33.116 23.8262 32.7532 23.9459 32.4503C24.0107 32.2914 24.0941 32.1406 24.1943 32.0013C24.5672 32.4201 25.0636 32.7093 25.6119 32.8272Z" fill="#263238"/>
<path d="M24.7155 33.3273C24.5307 33.3685 24.3377 33.3519 24.1626 33.2798C23.7804 33.1142 23.8262 32.7515 23.9459 32.4486C24.3633 32.556 24.7419 32.9082 24.7155 33.3273Z" fill="#FF98B9"/>
<path d="M17.5525 28.2926C18.5492 28.7416 19.6974 27.3434 20.0637 26.7358C20.43 26.1283 20.636 23.1609 21.2964 22.2663C21.9568 21.3717 23.1156 20.9967 23.9379 21.3858C24.7603 21.775 25.6902 23.0641 26.3294 23.1028C26.9687 23.1416 27.3314 21.7979 27.7717 21.8701C28.7385 22.018 29.6243 25.1738 29.6366 26.2603C29.6366 26.2603 30.5541 21.0829 25.5599 19.9858C21.0728 18.9997 19.0247 21.3946 18.4224 22.6996C17.2549 25.1844 17.5525 28.2926 17.5525 28.2926Z" fill="#263238"/>
<path d="M23.4233 31.4888C23.0203 31.4166 22.6456 31.2326 22.342 30.9579C22.0384 30.6833 21.8179 30.3289 21.7057 29.9351C21.5936 29.5413 21.5942 29.1239 21.7075 28.7305C21.8209 28.337 22.0424 27.9833 22.3468 27.7095C22.6513 27.4358 23.0265 27.253 23.4297 27.1819C23.833 27.1109 24.2481 27.1544 24.6278 27.3077C25.0075 27.4609 25.3365 27.7176 25.5775 28.0487C25.8185 28.3797 25.9617 28.7717 25.9909 29.1801C26.0316 29.7584 25.8412 30.3292 25.4615 30.7673C25.0819 31.2054 24.5439 31.475 23.9657 31.517C23.7845 31.5308 23.6022 31.5213 23.4233 31.4888ZM24.1453 27.4702C23.9901 27.4433 23.8323 27.435 23.6751 27.4455C23.1947 27.4803 22.7457 27.6969 22.4194 28.0512C22.0931 28.4055 21.9141 28.8709 21.9189 29.3525C21.9237 29.8341 22.1119 30.2958 22.4452 30.6436C22.7785 30.9913 23.2318 31.1989 23.7128 31.2241C24.1938 31.2494 24.6663 31.0903 25.0341 30.7793C25.4019 30.4683 25.6374 30.0289 25.6925 29.5504C25.7477 29.0719 25.6183 28.5903 25.3309 28.2039C25.0434 27.8174 24.6195 27.555 24.1453 27.4702Z" fill="#EBEBEB"/>
<path d="M28.4337 31.7706C27.6113 31.6227 27.0143 30.6435 27.0847 29.5041C27.1089 28.9595 27.3029 28.4361 27.6395 28.0073C27.7726 27.814 27.9535 27.6584 28.1645 27.5556C28.3755 27.4528 28.6095 27.4063 28.8438 27.4207C29.0781 27.4351 29.3047 27.5097 29.5016 27.6375C29.6985 27.7653 29.859 27.9418 29.9675 28.1499C30.2491 28.6167 30.3778 29.1597 30.3356 29.7031C30.2616 30.9077 29.4727 31.841 28.5746 31.7864C28.5274 31.7837 28.4803 31.7784 28.4337 31.7706ZM28.9356 27.7202C28.899 27.7128 28.8619 27.7081 28.8246 27.7061C28.638 27.7035 28.4535 27.7456 28.2865 27.8289C28.1195 27.9122 27.9749 28.0344 27.8649 28.1851C27.5675 28.5667 27.3964 29.0314 27.3753 29.5147C27.3119 30.559 27.8561 31.443 28.5939 31.4888C29.3318 31.5346 29.9799 30.721 30.0433 29.6785C30.0827 29.1965 29.97 28.7142 29.721 28.2996C29.6379 28.1534 29.5251 28.0263 29.3898 27.9265C29.2545 27.8267 29.0998 27.7565 28.9356 27.7202Z" fill="#EBEBEB"/>
<path d="M25.9027 29.4284L25.7266 29.1924C26.0788 28.9353 26.8624 28.6078 27.3608 29.2118L27.1354 29.3967C26.6916 28.8561 25.9308 29.4055 25.9027 29.4284Z" fill="#EBEBEB"/>
<path d="M16.668 29.5217L16.418 29.3721C16.4866 29.2541 17.1224 28.2256 17.7775 28.1587C18.3921 28.0988 21.7556 28.5796 21.9212 28.606L21.8754 28.8948C20.7606 28.7187 18.2811 28.4035 17.8057 28.451C17.3724 28.4933 16.8371 29.2382 16.668 29.5217Z" fill="#EBEBEB"/>
<path d="M19.027 28.953C19.027 28.953 17.8999 26.2868 16.7236 26.6407C15.5472 26.9947 16.0491 30.6171 17.1867 31.3409C17.3262 31.4437 17.485 31.5172 17.6536 31.5571C17.8222 31.597 17.9971 31.6023 18.1679 31.5729C18.3386 31.5434 18.5016 31.4798 18.6472 31.3858C18.7927 31.2917 18.9177 31.1692 19.0147 31.0257L19.027 28.953Z" fill="#D3766A"/>
<path d="M16.8936 27.6833C16.8742 27.6833 16.8654 27.7026 16.8812 27.715C17.6719 28.2433 17.9572 29.152 18.0981 30.0518C17.9079 29.6767 17.5962 29.4267 17.0996 29.6415C17.0749 29.6521 17.089 29.6926 17.1137 29.6926C17.2764 29.6766 17.4401 29.7114 17.5823 29.7921C17.7245 29.8728 17.8382 29.9955 17.9079 30.1434C18.0222 30.3915 18.109 30.6513 18.1668 30.9183C18.1914 31.0045 18.3429 30.994 18.3306 30.8989C18.3297 30.8913 18.3297 30.8836 18.3306 30.876C18.5841 29.7771 18.0558 28.0478 16.8936 27.6833Z" fill="#263238"/>
<path d="M23.2891 39.0066L21.1354 42.6748L16.569 37.1311L15.2324 38.8428C15.2324 38.8428 19.2299 46.8326 19.2933 46.4945L21.2199 43.4303L23.3173 45.9045L23.6871 40.2552L23.2891 39.0066Z" fill="#407BFF"/>
<path d="M23.6637 43.1221C23.6919 42.187 23.7482 41.2466 23.7306 40.3045C23.7306 40.271 23.6778 40.2517 23.6672 40.2886C23.3837 41.1692 23.2957 44.7423 23.2076 45.5928L23.197 45.5823C23.1108 45.4766 21.2423 43.3951 21.2194 43.4233C20.8197 43.9005 19.4073 46.1317 19.307 46.3378C18.6747 45.0681 15.961 40.0439 15.1826 38.827C15.1597 38.7918 15.1052 38.8129 15.121 38.8534C15.6599 40.1812 19.1555 46.8009 19.2154 46.7903C19.2524 46.8238 21.0046 44.0784 21.2335 43.5501C21.5399 43.9921 23.4049 46.3166 23.4242 46.1793C23.5601 45.1654 23.64 44.1448 23.6637 43.1221Z" fill="#263238"/>
<path d="M49.1915 71.4711H21.2617V72.5981H49.1915V71.4711Z" fill="#455A64"/>
<path d="M36.7164 71.4711H21.2617V72.5981H36.7164V71.4711Z" fill="#A6A6A6"/>
<path d="M36.248 72.5963H60.7262L64.1867 55.9706H39.7067L36.248 72.5963Z" fill="#A6A6A6"/>
<path d="M37.3574 72.5963H61.8374L65.296 55.9706H40.8161L37.3574 72.5963Z" fill="#C7C7C7"/>
<path d="M49.6943 64.6559C49.6668 64.862 49.6842 65.0717 49.7455 65.2704C49.8067 65.4692 49.9102 65.6523 50.0489 65.8073C50.1876 65.9622 50.3582 66.0853 50.549 66.168C50.7398 66.2508 50.9463 66.2912 51.1542 66.2866C51.6005 66.2768 52.0285 66.1066 52.3596 65.8072C52.6907 65.5077 52.903 65.099 52.9575 64.6559C52.985 64.4497 52.9675 64.2399 52.9063 64.0411C52.8451 63.8423 52.7416 63.659 52.6029 63.5039C52.4642 63.3489 52.2936 63.2256 52.1029 63.1427C51.9121 63.0597 51.7056 63.0191 51.4976 63.0234C51.051 63.0333 50.6228 63.2037 50.2916 63.5035C49.9605 63.8033 49.7484 64.2124 49.6943 64.6559Z" fill="#EBEBEB"/>
<path d="M2.24485 17.7687C2.37563 19.0263 2.85342 20.2228 3.62486 21.2246C4.39631 22.2263 5.43103 22.9939 6.61349 23.4417C7.79595 23.8894 9.07959 23.9997 10.3211 23.7601C11.5626 23.5205 12.713 22.9405 13.6439 22.0849L17.0568 22.5868L15.3486 19.6354C15.7397 18.675 15.9067 17.6381 15.8369 16.6035C15.7672 15.5689 15.4625 14.5638 14.946 13.6646C14.4296 12.7654 13.7149 11.9957 12.8564 11.4142C11.9979 10.8326 11.0181 10.4544 9.99145 10.3083C8.96483 10.1622 7.91842 10.252 6.93173 10.571C5.94505 10.8899 5.04405 11.4296 4.29723 12.149C3.5504 12.8684 2.9774 13.7486 2.62177 14.7227C2.26613 15.6968 2.13723 16.7391 2.24485 17.7704V17.7687Z" fill="white"/>
<path d="M4.28704 12.1352C5.02974 11.4011 5.93159 10.8479 6.92262 10.5187C7.91365 10.1895 8.96721 10.093 10.0016 10.2368C11.0432 10.3732 12.0397 10.7467 12.9143 11.3286C14.2382 12.2134 15.2158 13.5284 15.6818 15.051C16.1477 16.5737 16.0734 18.2105 15.4713 19.6847V19.5667L17.1689 22.5234L17.2939 22.7418L17.0474 22.7048L13.6381 22.1765L13.7173 22.1519C12.7696 23.0105 11.6011 23.5874 10.3432 23.8178C10.0317 23.8761 9.71607 23.9091 9.39929 23.9164C9.08347 23.9334 8.76682 23.9276 8.45186 23.8988C7.1886 23.7751 5.98363 23.3066 4.96855 22.5446C4.71617 22.3565 4.47563 22.153 4.2483 21.9353C4.02894 21.7125 3.82256 21.4773 3.63018 21.2309C2.60994 19.8962 2.11426 18.2339 2.23692 16.5584C2.35959 14.8829 3.09209 13.3105 4.29585 12.1387L4.28704 12.1352ZM3.64251 21.2044C3.83721 21.4521 4.04718 21.6874 4.27119 21.9088C4.49323 22.1257 4.72849 22.3286 4.9756 22.5164C5.47798 22.8896 6.03285 23.1863 6.62215 23.3969C7.20754 23.6146 7.82039 23.7497 8.44305 23.7984C8.75381 23.8196 9.06564 23.8196 9.37639 23.7984C9.68767 23.7856 9.99743 23.7479 10.3027 23.6857C11.527 23.4393 12.6583 22.8563 13.5694 22.0022L13.6028 21.9705H13.6504L17.0668 22.4495L16.9435 22.6256L15.2265 19.6812L15.1948 19.6248L15.2195 19.5649C15.5982 18.622 15.7619 17.6065 15.6985 16.5923C15.6306 15.5841 15.3363 14.6041 14.8373 13.7254C14.3274 12.843 13.6308 12.0827 12.7963 11.4977C11.9545 10.9162 10.9906 10.5354 9.97866 10.3847C8.64159 10.1777 7.27317 10.3777 6.05121 10.9585C4.82925 11.5394 3.81023 12.4744 3.12656 13.6419C2.44289 14.8095 2.12617 16.1557 2.21755 17.5056C2.30894 18.8555 2.8042 20.1467 3.63898 21.2115L3.64251 21.2044Z" fill="#263238"/>
<path d="M8.18598 20.9121L5.27148 17.9624L6.25061 16.9956L7.95352 18.7179L11.4897 13.1742L12.6502 13.9138L8.18598 20.9121Z" fill="#407BFF"/>
</svg>
