<svg width="24" height="28" viewBox="0 0 24 28" fill="none" xmlns="http://www.w3.org/2000/svg">
<path d="M5.14282 18.8571C5.14282 18.4024 5.32343 17.9664 5.64493 17.6449C5.96642 17.3234 6.40245 17.1428 6.85711 17.1428C7.31176 17.1428 7.7478 17.3234 8.06929 17.6449C8.39078 17.9664 8.57139 18.4024 8.57139 18.8571V20.5714C8.57139 21.026 8.39078 21.4621 8.06929 21.7835C7.7478 22.105 7.31176 22.2856 6.85711 22.2856C6.40245 22.2856 5.96642 22.105 5.64493 21.7835C5.32343 21.4621 5.14282 21.026 5.14282 20.5714V18.8571ZM15.4285 11.9999C15.4285 11.5453 15.6091 11.1092 15.9306 10.7877C16.2521 10.4663 16.6882 10.2856 17.1428 10.2856C17.5975 10.2856 18.0335 10.4663 18.355 10.7877C18.6765 11.1092 18.8571 11.5453 18.8571 11.9999V20.5714C18.8571 21.026 18.6765 21.4621 18.355 21.7835C18.0335 22.105 17.5975 22.2856 17.1428 22.2856C16.6882 22.2856 16.2521 22.105 15.9306 21.7835C15.6091 21.4621 15.4285 21.026 15.4285 20.5714V11.9999ZM10.2857 15.4285C10.2857 14.9738 10.4663 14.5378 10.7878 14.2163C11.1093 13.8948 11.5453 13.7142 12 13.7142C12.4546 13.7142 12.8907 13.8948 13.2121 14.2163C13.5336 14.5378 13.7143 14.9738 13.7143 15.4285V20.5714C13.7143 21.026 13.5336 21.4621 13.2121 21.7835C12.8907 22.105 12.4546 22.2856 12 22.2856C11.5453 22.2856 11.1093 22.105 10.7878 21.7835C10.4663 21.4621 10.2857 21.026 10.2857 20.5714V15.4285Z" fill="white"/>
<path d="M5.14286 2.57129H3.42857C2.51926 2.57129 1.64719 2.93251 1.00421 3.57549C0.361224 4.21848 0 5.09055 0 5.99986V23.9999C0 24.9092 0.361224 25.7812 1.00421 26.4242C1.64719 27.0672 2.51926 27.4284 3.42857 27.4284H20.5714C21.4807 27.4284 22.3528 27.0672 22.9958 26.4242C23.6388 25.7812 24 24.9092 24 23.9999V5.99986C24 5.09055 23.6388 4.21848 22.9958 3.57549C22.3528 2.93251 21.4807 2.57129 20.5714 2.57129H18.8571V4.28557H20.5714C21.0261 4.28557 21.4621 4.46619 21.7836 4.78768C22.1051 5.10917 22.2857 5.5452 22.2857 5.99986V23.9999C22.2857 24.4545 22.1051 24.8906 21.7836 25.212C21.4621 25.5335 21.0261 25.7141 20.5714 25.7141H3.42857C2.97391 25.7141 2.53788 25.5335 2.21639 25.212C1.8949 24.8906 1.71429 24.4545 1.71429 23.9999V5.99986C1.71429 5.5452 1.8949 5.10917 2.21639 4.78768C2.53788 4.46619 2.97391 4.28557 3.42857 4.28557H5.14286V2.57129Z" fill="white"/>
<path d="M14.5715 1.71429C14.7988 1.71429 15.0168 1.80459 15.1776 1.96534C15.3383 2.12608 15.4286 2.3441 15.4286 2.57143V4.28571C15.4286 4.51304 15.3383 4.73106 15.1776 4.89181C15.0168 5.05255 14.7988 5.14286 14.5715 5.14286H9.42861C9.20128 5.14286 8.98326 5.05255 8.82251 4.89181C8.66177 4.73106 8.57146 4.51304 8.57146 4.28571V2.57143C8.57146 2.3441 8.66177 2.12608 8.82251 1.96534C8.98326 1.80459 9.20128 1.71429 9.42861 1.71429H14.5715ZM9.42861 0C8.74662 0 8.09257 0.270918 7.61033 0.753154C7.12809 1.23539 6.85718 1.88944 6.85718 2.57143V4.28571C6.85718 4.9677 7.12809 5.62175 7.61033 6.10399C8.09257 6.58623 8.74662 6.85714 9.42861 6.85714H14.5715C15.2534 6.85714 15.9075 6.58623 16.3897 6.10399C16.872 5.62175 17.1429 4.9677 17.1429 4.28571V2.57143C17.1429 1.88944 16.872 1.23539 16.3897 0.753154C15.9075 0.270918 15.2534 0 14.5715 0L9.42861 0Z" fill="white"/>
</svg>
