<svg width="31" height="27" viewBox="0 0 31 27" fill="none" xmlns="http://www.w3.org/2000/svg">
<path d="M9.53953 11.1398C6.07816 11.1398 3.30907 13.9247 3.30907 17.4059C3.30907 18.6313 3.6552 19.787 4.2644 20.7478L0 25.0645L1.92452 27L6.24431 22.7251C7.19964 23.3239 8.33497 23.672 9.53953 23.672C13.0009 23.672 15.77 20.8871 15.77 17.4059C15.77 13.9247 13.0009 11.1398 9.53953 11.1398ZM9.53953 20.8871C8.62152 20.8871 7.7411 20.5203 7.09197 19.8674C6.44284 19.2146 6.07816 18.3291 6.07816 17.4059C6.07816 16.4826 6.44284 15.5972 7.09197 14.9443C7.7411 14.2915 8.62152 13.9247 9.53953 13.9247C10.4575 13.9247 11.338 14.2915 11.9871 14.9443C12.6362 15.5972 13.0009 16.4826 13.0009 17.4059C13.0009 18.3291 12.6362 19.2146 11.9871 19.8674C11.338 20.5203 10.4575 20.8871 9.53953 20.8871ZM31 2.78494V22.2795C31 23.8252 29.7678 25.0645 28.2309 25.0645H14.3162C15.4377 24.3682 16.393 23.4074 17.113 22.2795H28.2309V8.35482H17.1545V2.78494H3.30907V10.8891C1.60607 12.5322 0.539973 14.8437 0.539973 17.4059V2.78494C0.539973 1.25322 1.78607 0 3.30907 0H28.2309C28.9653 0 29.6696 0.293412 30.189 0.81569C30.7083 1.33797 31 2.04633 31 2.78494Z" fill="white"/>
</svg>
