<svg width="27" height="25" viewBox="0 0 27 25" fill="none" xmlns="http://www.w3.org/2000/svg">
<path d="M15.9545 20.3938C14.6084 19.7407 13.4511 18.7438 12.5955 17.5H2.45455V2.5H24.5455V5.33C25.5399 6.04032 26.3762 6.95604 27 8.0175V2.5C26.9981 1.83757 26.7388 1.20283 26.2789 0.734419C25.819 0.266006 25.1958 0.00197841 24.5455 0H2.45455C1.80416 0.00197841 1.18096 0.266006 0.721066 0.734419C0.261169 1.20283 0.00194244 1.83757 0 2.5V17.5C0.00194244 18.1624 0.261169 18.7972 0.721066 19.2656C1.18096 19.734 1.80416 19.998 2.45455 20H11.0455V22.5H8.59091V25H18.4091V22.5H15.9545V20.3938Z" fill="white"/>
<path d="M19.5 5C18.0166 5 16.5666 5.43987 15.3332 6.26398C14.0999 7.08809 13.1386 8.25943 12.5709 9.62987C12.0032 11.0003 11.8547 12.5083 12.1441 13.9632C12.4335 15.418 13.1478 16.7544 14.1967 17.8033C15.2456 18.8522 16.582 19.5665 18.0368 19.8559C19.4917 20.1453 20.9997 19.9968 22.3701 19.4291C23.7406 18.8614 24.9119 17.9001 25.736 16.6668C26.5601 15.4334 27 13.9834 27 12.5C27.0003 11.515 26.8066 10.5396 26.4298 9.62948C26.053 8.71939 25.5005 7.89247 24.804 7.19597C24.1075 6.49946 23.2806 5.94703 22.3705 5.57023C21.4604 5.19344 20.485 4.99967 19.5 5ZM19.5 17.5C18.5111 17.5 17.5444 17.2068 16.7222 16.6573C15.8999 16.1079 15.259 15.327 14.8806 14.4134C14.5022 13.4998 14.4031 12.4945 14.5961 11.5245C14.789 10.5546 15.2652 9.66373 15.9645 8.96447C16.6637 8.2652 17.5546 7.789 18.5246 7.59607C19.4945 7.40315 20.4998 7.50216 21.4134 7.8806C22.327 8.25904 23.1079 8.8999 23.6573 9.72215C24.2068 10.5444 24.5 11.5111 24.5 12.5C24.4983 13.8256 23.971 15.0964 23.0337 16.0337C22.0964 16.971 20.8256 17.4983 19.5 17.5Z" fill="white"/>
</svg>
