<svg width="21" height="30" viewBox="0 0 21 30" fill="none" xmlns="http://www.w3.org/2000/svg">
<path d="M12 13.905V0L21 16.5L15 25.5H6L0 16.5L9 0V13.905C8.42807 14.2352 7.98109 14.7449 7.72836 15.355C7.47564 15.9652 7.4313 16.6416 7.60222 17.2795C7.77315 17.9174 8.14978 18.4811 8.67372 18.8831C9.19765 19.2852 9.8396 19.5031 10.5 19.5031C11.1604 19.5031 11.8024 19.2852 12.3263 18.8831C12.8502 18.4811 13.2269 17.9174 13.3978 17.2795C13.5687 16.6416 13.5244 15.9652 13.2716 15.355C13.0189 14.7449 12.5719 14.2352 12 13.905ZM4.5 27H16.5V30H4.5V27Z" fill="white"/>
</svg>
