<svg width="47" height="25" viewBox="0 0 47 25" fill="none" xmlns="http://www.w3.org/2000/svg">
<path d="M31.7273 4L29.7273 6L27.7273 8L29.7273 10L31.7273 12L32.4273 11.3L33.1273 10.6L31.8273 9.3L30.5273 8L31.8273 6.7L33.1273 5.4L32.4273 4.7L31.7273 4ZM37.7273 4L37.0273 4.7L36.3273 5.4L37.6273 6.7L38.9273 8L37.6273 9.3L36.3273 10.6L37.0273 11.3L37.7273 12L39.7273 10L41.7273 8L39.7273 6L37.7273 4ZM43.7043 19.09L43.3163 17.558C43.2915 17.4603 43.2471 17.3687 43.1859 17.2886C43.1248 17.2085 43.048 17.1416 42.9603 17.092C42.8721 17.0416 42.7748 17.0093 42.674 16.9969C42.5733 16.9845 42.471 16.9924 42.3733 17.02L37.8213 18.304L34.7273 17L38.6423 15.997C38.9096 15.7586 39.1032 15.4487 39.2003 15.104L38.8933 14L30.7273 15H25.7273V21H30.7273L35.1823 21.964C35.4245 21.986 35.6684 21.9803 35.9093 21.947L43.1693 19.993C43.3597 19.942 43.5227 19.8185 43.6233 19.649C43.673 19.5656 43.7057 19.4732 43.7196 19.3771C43.7335 19.281 43.7283 19.1841 43.7043 19.09ZM28.7273 20H26.7273V16H28.7273V20ZM35.6493 20.982C35.6042 20.9937 35.5579 20.9998 35.5113 21C35.4726 21.0001 35.4341 20.9961 35.3963 20.988L30.7273 19.963V16.02L38.0563 15.112L32.7273 17L37.4483 19.232L37.7653 19.359L38.0933 19.266L42.4093 18.049L42.6733 19.091L35.6493 20.982Z" fill="white"/>
<path d="M4.54541 5.68226C4.54541 5.38088 4.66513 5.09184 4.87824 4.87873C5.09135 4.66562 5.38039 4.5459 5.68177 4.5459H17.0454C17.3468 4.5459 17.6358 4.66562 17.8489 4.87873C18.0621 5.09184 18.1818 5.38088 18.1818 5.68226C18.1818 5.98364 18.0621 6.27268 17.8489 6.48579C17.6358 6.6989 17.3468 6.81863 17.0454 6.81863H5.68177C5.38039 6.81863 5.09135 6.6989 4.87824 6.48579C4.66513 6.27268 4.54541 5.98364 4.54541 5.68226ZM4.54541 10.2277C4.54541 9.92633 4.66513 9.6373 4.87824 9.42419C5.09135 9.21108 5.38039 9.09135 5.68177 9.09135H17.0454C17.3468 9.09135 17.6358 9.21108 17.8489 9.42419C18.0621 9.6373 18.1818 9.92633 18.1818 10.2277C18.1818 10.5291 18.0621 10.8181 17.8489 11.0312C17.6358 11.2444 17.3468 11.3641 17.0454 11.3641H5.68177C5.38039 11.3641 5.09135 11.2444 4.87824 11.0312C4.66513 10.8181 4.54541 10.5291 4.54541 10.2277ZM5.68177 13.6368C5.38039 13.6368 5.09135 13.7565 4.87824 13.9696C4.66513 14.1828 4.54541 14.4718 4.54541 14.7732C4.54541 15.0746 4.66513 15.3636 4.87824 15.5767C5.09135 15.7898 5.38039 15.9095 5.68177 15.9095H17.0454C17.3468 15.9095 17.6358 15.7898 17.8489 15.5767C18.0621 15.3636 18.1818 15.0746 18.1818 14.7732C18.1818 14.4718 18.0621 14.1828 17.8489 13.9696C17.6358 13.7565 17.3468 13.6368 17.0454 13.6368H5.68177ZM4.54541 19.3186C4.54541 19.0172 4.66513 18.7282 4.87824 18.5151C5.09135 18.302 5.38039 18.1823 5.68177 18.1823H10.2272C10.5286 18.1823 10.8176 18.302 11.0308 18.5151C11.2439 18.7282 11.3636 19.0172 11.3636 19.3186C11.3636 19.62 11.2439 19.909 11.0308 20.1222C10.8176 20.3353 10.5286 20.455 10.2272 20.455H5.68177C5.38039 20.455 5.09135 20.3353 4.87824 20.1222C4.66513 19.909 4.54541 19.62 4.54541 19.3186Z" fill="white"/>
<path fill-rule="evenodd" clip-rule="evenodd" d="M0 3.40909C0 2.50494 0.359171 1.63783 0.9985 0.9985C1.63783 0.359171 2.50494 0 3.40909 0H19.3182C20.2223 0 21.0894 0.359171 21.7288 0.9985C22.3681 1.63783 22.7273 2.50494 22.7273 3.40909V21.5909C22.7273 22.4951 22.3681 23.3622 21.7288 24.0015C21.0894 24.6408 20.2223 25 19.3182 25H3.40909C2.50494 25 1.63783 24.6408 0.9985 24.0015C0.359171 23.3622 0 22.4951 0 21.5909V3.40909ZM3.40909 2.27273H19.3182C19.6196 2.27273 19.9086 2.39245 20.1217 2.60556C20.3348 2.81867 20.4545 3.10771 20.4545 3.40909V21.5909C20.4545 21.8923 20.3348 22.1813 20.1217 22.3944C19.9086 22.6075 19.6196 22.7273 19.3182 22.7273H3.40909C3.10771 22.7273 2.81867 22.6075 2.60556 22.3944C2.39245 22.1813 2.27273 21.8923 2.27273 21.5909V3.40909C2.27273 3.10771 2.39245 2.81867 2.60556 2.60556C2.81867 2.39245 3.10771 2.27273 3.40909 2.27273Z" fill="white"/>
</svg>
