<svg width="30" height="29" viewBox="0 0 30 29" fill="none" xmlns="http://www.w3.org/2000/svg">
<path d="M15 0C12.32 0 10.145 2.1687 10.0375 4.84678C7.79664 5.81263 5.88708 7.42226 4.54676 9.4751C3.20644 11.528 2.49462 13.9333 2.5 16.3913C2.5 16.6057 2.49 16.8452 2.5 17.1012C1.01875 17.9787 0 19.5876 0 21.4348C0 24.2049 2.25375 26.4783 5 26.4783C5.71875 26.4783 6.4125 26.3244 7.03125 26.0445C9.1975 27.8803 12.0225 29 15 29C17.9775 29 20.8025 27.8803 22.9688 26.0445C23.6081 26.3316 24.3002 26.4794 25 26.4783C27.7463 26.4783 30 24.2049 30 21.4348C30 19.5687 28.9687 17.9333 27.4625 17.0596C27.4812 16.8578 27.5 16.6561 27.5 16.3913C27.5057 13.9332 26.794 11.5277 25.4537 9.47483C24.1133 7.42192 22.2036 5.81235 19.9625 4.84678C19.8537 2.1687 17.6787 0 15 0ZM15 2.52174C16.395 2.52174 17.5 3.63635 17.5 5.04348C17.5 6.45061 16.395 7.56522 15 7.56522C13.605 7.56522 12.5 6.45061 12.5 5.04348C12.5 3.63635 13.605 2.52174 15 2.52174ZM10.5875 7.36852C11.425 8.97487 13.0875 10.087 15 10.087C16.9125 10.087 18.575 8.97487 19.4125 7.36852C21.0906 8.19048 22.505 9.47302 23.4933 11.069C24.4816 12.6649 25.0038 14.5096 25 16.3913C22.2537 16.3913 20 18.6647 20 21.4348C20 22.5633 20.3875 23.5858 21.0162 24.4293C19.2814 25.747 17.1716 26.4655 15 26.4783C12.8283 26.4657 10.7185 25.7472 8.98375 24.4293C9.63794 23.5701 9.99491 22.5182 10 21.4348C10 18.6647 7.74625 16.3913 5 16.3913C5 12.4574 7.2375 9.00765 10.5875 7.36852ZM5 18.913C6.395 18.913 7.5 20.0277 7.5 21.4348C7.5 22.8419 6.395 23.9565 5 23.9565C3.605 23.9565 2.5 22.8419 2.5 21.4348C2.5 20.0277 3.605 18.913 5 18.913ZM25 18.913C26.395 18.913 27.5 20.0277 27.5 21.4348C27.5 22.8419 26.395 23.9565 25 23.9565C23.605 23.9565 22.5 22.8419 22.5 21.4348C22.5 20.0277 23.605 18.913 25 18.913Z" fill="white"/>
</svg>
