<svg width="21" height="25" viewBox="0 0 21 25" fill="none" xmlns="http://www.w3.org/2000/svg">
<path d="M17 5H21V9H17V5ZM17 11H21V15H17V11ZM11 5H15V9H11V5ZM11 11H15V15H11V11Z" fill="white"/>
<path d="M17.6471 25H2.35294C1.72909 24.9995 1.13098 24.8112 0.689849 24.4765C0.248722 24.1417 0.000622914 23.6877 0 23.2143V1.78571C0.000622914 1.31226 0.248722 0.85833 0.689849 0.523546C1.13098 0.188762 1.72909 0.000472747 2.35294 0H17.6471V1.78571H2.35294V23.2143H17.6471V16.0714H20V23.2143C19.9994 23.6877 19.7513 24.1417 19.3102 24.4765C18.869 24.8112 18.2709 24.9995 17.6471 25Z" fill="white"/>
</svg>
