<svg width="24" height="29" viewBox="0 0 24 29" fill="none" xmlns="http://www.w3.org/2000/svg">
<path d="M24 13.1818C24 20.4977 18.88 27.3391 12 29C5.12 27.3391 0 20.4977 0 13.1818V5.27273L12 0L24 5.27273V13.1818ZM12 26.3636C17 25.0455 21.3333 19.1664 21.3333 13.4718V6.98636L12 2.87364L2.66667 6.98636V13.4718C2.66667 19.1664 7 25.0455 12 26.3636ZM15.7333 13.1818V11.2045C15.7333 9.35909 13.8667 7.90909 12 7.90909C10.1333 7.90909 8.26667 9.35909 8.26667 11.2045V13.1818C7.46667 13.1818 6.66667 13.9727 6.66667 14.7636V19.3773C6.66667 20.3 7.46667 21.0909 8.26667 21.0909H15.6C16.5333 21.0909 17.3333 20.3 17.3333 19.5091V14.8955C17.3333 13.9727 16.5333 13.1818 15.7333 13.1818ZM14 13.1818H10V11.2045C10 10.15 10.9333 9.49091 12 9.49091C13.0667 9.49091 14 10.15 14 11.2045V13.1818Z" fill="white"/>
</svg>
