<svg width="32" height="29" viewBox="0 0 32 29" fill="none" xmlns="http://www.w3.org/2000/svg">
<path d="M1 24.7611V16.1215L8.55847 12.8828L16.1169 16.1239V24.7611L8.55847 27.9974L1 24.7611Z" stroke="white" stroke-linecap="round" stroke-linejoin="round"/>
<path d="M1 16.1056L8.55847 19.3443L16.1169 16.1056M8.55847 4.30371L16.1146 7.54476L23.673 4.3061" stroke="white" stroke-linecap="round" stroke-linejoin="round"/>
<path d="M16.1147 16.1055L23.6732 19.3441L31.2317 16.1055" stroke="white" stroke-linecap="round" stroke-linejoin="round"/>
<path d="M8.55786 19.3484V28M23.6772 19.3484V28M16.1139 7.54415V16.1933M8.56263 12.8783V4.23866L16.1187 1L23.6772 4.23866V12.8783L16.1187 16.1169L8.56263 12.8783ZM16.1139 24.7613V16.1217L23.6724 12.8831L31.2309 16.1241V24.7613L23.6724 27.9976L16.1139 24.7613Z" stroke="white" stroke-linecap="round" stroke-linejoin="round"/>
</svg>
