<svg width="33" height="33" viewBox="0 0 33 33" fill="none" xmlns="http://www.w3.org/2000/svg">
<path d="M10.75 0L7.16667 3.58333L3.58333 7.16667L7.16667 10.75L10.75 14.3333L12.0042 13.0792L13.2583 11.825L10.9292 9.49583L8.6 7.16667L10.9292 4.8375L13.2583 2.50833L12.0042 1.25417L10.75 0ZM21.5 0L20.2458 1.25417L18.9917 2.50833L21.3208 4.8375L23.65 7.16667L21.3208 9.49583L18.9917 11.825L20.2458 13.0792L21.5 14.3333L25.0833 10.75L28.6667 7.16667L25.0833 3.58333L21.5 0ZM32.2088 27.0362L31.5136 24.2914C31.4691 24.1164 31.3897 23.9522 31.2801 23.8087C31.1704 23.6653 31.0329 23.5454 30.8758 23.4565C30.7179 23.3662 30.5435 23.3083 30.3629 23.2861C30.1823 23.264 29.9992 23.278 29.8241 23.3275L21.6684 25.628L16.125 23.2917L23.1394 21.4946C23.6182 21.0674 23.9651 20.5123 24.1391 19.8947L23.5891 17.9167L8.95833 19.7083H0V30.4583H8.95833L16.9402 32.1855C17.3741 32.225 17.8111 32.2147 18.2427 32.155L31.2502 28.6541C31.5915 28.5628 31.8834 28.3416 32.0637 28.0378C32.1527 27.8883 32.2113 27.7228 32.2362 27.5506C32.2611 27.3784 32.2518 27.2048 32.2088 27.0362ZM5.375 28.6667H1.79167V21.5H5.375V28.6667ZM17.7769 30.4261C17.6962 30.4471 17.6131 30.458 17.5297 30.4583C17.4604 30.4586 17.3913 30.4514 17.3236 30.4368L8.95833 28.6004V21.5358L22.0895 19.909L12.5417 23.2917L21.0001 27.2907L21.5681 27.5182L22.1557 27.3516L29.8886 25.1711L30.3616 27.038L17.7769 30.4261Z" fill="white"/>
</svg>
