<svg width="258" height="238" viewBox="0 0 258 238" fill="none" xmlns="http://www.w3.org/2000/svg">
<path d="M239.61 121.169C248.366 111.776 256.587 99.1172 252.113 87.2388C247.627 75.3304 232.914 70.7724 220.009 68.4904C207.104 66.2144 192.463 63.6982 185.317 53.0688C178.104 42.3434 181.545 27.3003 174.459 16.5028C166.929 5.03273 150.895 2.75674 136.884 1.61574C115.518 -0.131793 93.5202 -1.81927 73.0483 4.34213C52.5764 10.5035 33.7559 26.5016 31.4258 47.0876C29.0597 68.0159 43.6765 89.2325 37.2449 109.35C30.5731 130.224 3.41726 141.743 0.708889 163.434C-0.708353 174.79 5.20683 185.665 10.9359 195.676C18.2623 208.485 25.5887 222.105 32.9151 234.914H214.821C212.208 231.353 214.797 226.225 218.442 223.642C222.093 221.066 226.663 219.865 230.17 217.109C239.46 209.812 237.364 195.484 232.128 185.083C226.891 174.681 219.186 164.515 219.823 152.966C220.514 140.349 230.855 130.555 239.61 121.169Z" fill="#F3EDFF"/>
<path d="M15.6199 129.96C35.2451 111.061 33.7438 101.009 29.7203 75.8286C27.7565 63.5418 12.1308 75.5824 6.55796 94.2047C0.708833 113.752 5.17675 140.019 15.6199 129.96Z" fill="#F3EDFF"/>
<path d="M79.5689 225.443C76.9747 230.061 41.1773 239.934 40.9131 226.332C40.6909 214.88 66.7177 218.291 76.2661 222.309C73.4196 219.522 70.6932 216.652 68.0749 213.793C65.5707 211.055 63.1626 208.238 60.8505 205.35C55.2356 208.929 20.7474 209.794 23.5098 196.96C25.7198 186.691 46.552 193.651 56.4487 199.579C52.9716 194.84 49.7288 189.934 46.7202 184.884C42.5765 188.457 5.83632 187.22 9.59562 174.212C12.7424 163.349 36.0308 173.918 44.246 180.608C41.1713 175.131 38.3548 169.504 35.7966 163.757C30.56 166.52 -4.81101 160.49 0.551691 148.234C4.98958 138.097 25.8699 150.816 33.5806 158.587C32.2415 155.344 30.9864 152.059 29.7973 148.756C24.2785 146.504 5.99246 115.721 18.7897 111.866C30.8843 108.221 34.1872 140.175 31.6469 147.435C32.9741 151.176 34.4094 154.869 35.9467 158.527C36.3971 148.318 44.8645 122.513 55.0915 128.212C66.6096 134.632 43.5974 161.169 37.6522 162.502C40.1684 168.165 42.9489 173.702 45.9755 179.101C45.369 168.447 50.4074 143.033 61.0487 147.255C73.1433 152.053 54.467 180.65 48.4737 183.424C52.1249 189.556 56.1184 195.483 60.4602 201.164C58.3944 192.204 61.325 162.778 72.9451 166.472C85.7544 170.543 67.5704 202.269 62.3819 203.656C64.754 206.647 67.2161 209.571 69.7864 212.418C72.0924 214.964 74.5005 217.522 77.0107 220.009C73.3055 209.884 70.6932 184.451 82.0311 185.322C94.9965 186.313 85.6643 219.132 80.764 223.588C85.4421 227.881 90.4445 231.833 95.7832 234.98C97.0142 235.706 95.6871 237.484 94.468 236.763C89.1654 233.622 84.211 229.701 79.5689 225.443Z" fill="#C8C1E8"/>
<path d="M134.255 236.427C135.516 228.164 137.252 219.972 139.444 211.901C141.63 203.848 144.284 195.927 147.359 188.169C150.445 180.398 153.958 172.795 157.886 165.415C161.801 158.046 166.131 150.9 170.851 144.018C175.559 137.154 180.652 130.56 186.105 124.273C186.795 123.474 187.492 122.681 188.194 121.894C189.113 120.868 187.462 119.504 186.549 120.525C180.934 126.825 175.673 133.443 170.815 140.337C165.969 147.219 161.501 154.371 157.447 161.745C153.4 169.108 149.761 176.692 146.56 184.457C143.335 192.276 140.555 200.275 138.219 208.4C135.901 216.471 134.033 224.675 132.646 232.962C132.472 234.001 132.303 235.046 132.147 236.085C131.931 237.454 134.045 237.79 134.255 236.427Z" fill="#DAD4F8"/>
<path d="M168.244 148.155C166.677 131.82 171.001 107.619 171.385 91.5311C171.811 73.7796 174.292 54.7008 189.299 44.4138C193.214 41.7295 198.205 39.7297 203.741 40.4684C211.518 41.5073 218.31 47.8669 220.946 54.4186C223.583 60.9703 222.886 67.6362 221.631 73.8877C215.494 104.412 196.355 131.034 168.244 148.155Z" fill="#DAD4F8"/>
<path d="M144.656 192.432C133.883 181.142 123.055 160.55 113.939 148.311C103.88 134.805 94.6261 119.108 100.175 102.713C101.622 98.4374 104.301 94.0415 109.003 91.3812C115.608 87.6399 124.568 88.4506 130.435 91.8136C136.303 95.1765 139.672 100.563 142.356 105.962C155.489 132.325 156.312 163.324 144.656 192.432Z" fill="#DAD4F8"/>
<path d="M136.434 216.194C144.913 200.635 163.211 180.001 173.228 165.384C184.284 149.254 197.903 132.643 217.048 128.656C222.039 127.617 227.551 127.593 231.887 130.283C237.971 134.066 240.006 142.372 238.337 149.338C236.667 156.304 232.055 162.171 227.209 167.45C203.542 193.23 171 210.706 136.434 216.194Z" fill="#DAD4F8"/>
<path d="M130.116 237.25C140.343 234.439 150.257 229.137 159.367 223.342C159.764 223.612 160.346 223.984 161.085 224.393C162.592 225.251 164.76 226.32 167.366 227.299C169.973 228.272 173.029 229.167 176.302 229.797C179.587 230.44 183.094 230.812 186.601 230.95C190.12 231.052 193.639 230.908 196.954 230.482C198.618 230.272 200.215 229.996 201.741 229.677C203.26 229.359 204.695 228.957 206.034 228.566C207.367 228.164 208.581 227.732 209.686 227.305C210.766 226.873 211.715 226.452 212.49 226.068C214.057 225.305 214.958 224.711 214.958 224.711C214.958 224.711 214.099 224.05 212.586 223.198C211.829 222.759 210.905 222.279 209.848 221.78C208.797 221.282 207.596 220.783 206.299 220.285C204.995 219.811 203.584 219.312 202.083 218.904C200.582 218.483 199.002 218.099 197.357 217.787C194.078 217.138 190.571 216.772 187.058 216.652C183.545 216.562 180.014 216.7 176.705 217.138C173.39 217.553 170.291 218.249 167.619 219.054C166.309 219.45 165.108 219.877 164.033 220.297C164.712 219.835 165.397 219.378 166.069 218.916C172.591 214.466 178.812 209.638 184.776 204.521C185.088 204.707 185.448 204.918 185.863 205.158C187.376 206.023 189.544 207.091 192.15 208.058C194.756 209.031 197.807 209.926 201.086 210.563C204.359 211.205 207.872 211.583 211.385 211.716C214.904 211.824 218.423 211.686 221.732 211.247C223.39 211.037 224.993 210.767 226.524 210.436C228.044 210.118 229.485 209.716 230.818 209.325C232.157 208.923 233.37 208.491 234.463 208.07C235.544 207.632 236.493 207.212 237.28 206.827C238.847 206.065 239.748 205.47 239.748 205.47C239.748 205.47 238.883 204.809 237.382 203.957C236.613 203.518 235.694 203.038 234.643 202.539C233.586 202.041 232.391 201.537 231.082 201.044C229.779 200.57 228.374 200.077 226.873 199.663C225.371 199.243 223.786 198.87 222.146 198.552C218.868 197.909 215.361 197.537 211.847 197.423C208.328 197.327 204.803 197.465 201.494 197.897C198.179 198.324 195.075 199.014 192.408 199.819C191.015 200.239 189.742 200.696 188.607 201.134C194.318 196.006 199.765 190.607 204.959 184.95C205.332 185.04 205.758 185.148 206.251 185.256C207.962 185.611 210.352 185.977 213.127 186.115C215.907 186.259 219.084 186.187 222.405 185.797C225.72 185.418 229.179 184.716 232.572 183.773C235.959 182.812 239.273 181.611 242.3 180.194C243.819 179.497 245.261 178.753 246.612 177.978C247.969 177.215 249.218 176.399 250.371 175.624C251.512 174.825 252.557 174.057 253.464 173.318C254.365 172.573 255.151 171.889 255.77 171.288C257.031 170.093 257.71 169.246 257.71 169.246C257.71 169.246 256.695 168.88 254.989 168.514C254.136 168.334 253.116 168.153 251.951 167.997C250.798 167.841 249.506 167.721 248.113 167.637C246.726 167.589 245.225 167.541 243.675 167.601C242.12 167.655 240.499 167.775 238.835 167.961C235.52 168.346 232.061 169.054 228.68 170.003C225.293 170.97 221.99 172.177 218.958 173.594C215.985 174.969 213.295 176.537 211.031 178.074C215.216 173.168 219.228 168.111 223.071 162.917C224.446 162.058 226.104 160.899 227.875 159.428C230.013 157.638 232.295 155.428 234.469 152.894C236.661 150.366 238.721 147.507 240.571 144.511C242.408 141.514 244.03 138.379 245.297 135.281C245.933 133.737 246.486 132.212 246.96 130.729C247.435 129.251 247.801 127.798 248.125 126.441C248.431 125.084 248.666 123.804 248.828 122.651C248.99 121.492 249.098 120.466 249.146 119.595C249.272 117.859 249.182 116.778 249.182 116.778C249.182 116.778 248.191 117.199 246.696 118.087C245.939 118.532 245.069 119.09 244.114 119.763C243.159 120.43 242.12 121.216 241.051 122.111C239.988 123.012 238.865 123.991 237.76 125.09C236.655 126.183 235.544 127.372 234.457 128.633C232.271 131.161 230.218 134.031 228.368 137.022C226.554 140.025 224.933 143.165 223.666 146.258C222.387 149.351 221.456 152.384 220.837 155.098C220.213 157.812 219.912 160.208 219.798 161.944C219.756 162.532 219.744 163.037 219.738 163.463C213.517 171.751 206.827 179.701 199.675 187.184C200.269 185.665 200.924 183.701 201.482 181.431C202.143 178.723 202.665 175.588 202.918 172.261C203.17 168.928 203.128 165.403 202.846 161.902C202.539 158.395 201.987 154.918 201.158 151.681C200.75 150.053 200.293 148.492 199.795 147.021C199.296 145.55 198.738 144.162 198.191 142.883C197.621 141.61 197.056 140.445 196.504 139.418C195.945 138.391 195.417 137.496 194.943 136.764C194.012 135.305 193.309 134.482 193.309 134.482C193.309 134.482 192.751 135.407 192.078 137.01C191.73 137.815 191.363 138.788 190.985 139.893C190.619 141.004 190.258 142.247 189.916 143.592C189.604 144.949 189.274 146.408 189.039 147.946C188.799 149.477 188.607 151.098 188.487 152.762C188.235 156.101 188.277 159.626 188.577 163.127C188.895 166.634 189.46 170.111 190.277 173.354C191.081 176.591 192.138 179.593 193.255 182.152C194.366 184.704 195.549 186.812 196.486 188.271C196.816 188.787 197.117 189.232 197.375 189.574C190.102 196.973 182.374 203.897 174.146 210.184C174.278 209.884 174.429 209.554 174.591 209.175C175.263 207.572 176.062 205.296 176.723 202.588C177.389 199.879 177.912 196.75 178.164 193.418C178.416 190.085 178.38 186.559 178.092 183.046C177.786 179.539 177.227 176.062 176.404 172.813C176.002 171.204 175.546 169.637 175.041 168.165C174.549 166.694 173.978 165.307 173.438 164.028C172.873 162.749 172.309 161.584 171.75 160.563C171.198 159.536 170.669 158.641 170.189 157.902C169.252 156.449 168.549 155.62 168.549 155.62C168.549 155.62 167.997 156.545 167.324 158.149C166.982 158.947 166.616 159.92 166.237 161.031C165.871 162.142 165.505 163.385 165.175 164.736C164.85 166.088 164.526 167.547 164.298 169.084C164.052 170.622 163.859 172.243 163.739 173.906C163.493 177.233 163.535 180.758 163.829 184.265C164.142 187.773 164.706 191.256 165.523 194.498C166.334 197.735 167.384 200.738 168.501 203.284C169.618 205.836 170.795 207.938 171.732 209.404C172.195 210.13 172.603 210.701 172.891 211.091C169.726 213.481 166.496 215.781 163.181 217.967C159.121 220.651 154.881 223.342 150.504 225.822C150.684 225.45 150.894 224.993 151.116 224.453C151.801 222.843 152.599 220.573 153.248 217.871C153.921 215.169 154.449 212.028 154.689 208.707C154.948 205.368 154.911 201.843 154.617 198.336C154.317 194.829 153.764 191.358 152.948 188.115C152.545 186.487 152.077 184.926 151.573 183.455C151.08 181.983 150.51 180.596 149.969 179.317C149.411 178.05 148.84 176.879 148.282 175.852C147.723 174.825 147.195 173.93 146.726 173.204C145.79 171.738 145.087 170.916 145.087 170.916C145.087 170.916 144.534 171.841 143.85 173.444C143.514 174.249 143.141 175.222 142.769 176.327C142.397 177.437 142.042 178.681 141.694 180.032C141.382 181.383 141.051 182.854 140.829 184.38C140.583 185.917 140.391 187.532 140.271 189.196C140.018 192.535 140.066 196.054 140.361 199.561C140.685 203.062 141.232 206.545 142.06 209.794C142.865 213.031 143.928 216.027 145.033 218.58C146.15 221.138 147.333 223.234 148.276 224.705C148.744 225.45 149.158 226.026 149.453 226.422C143.027 229.996 136.307 233.082 129.389 234.98C127.948 235.376 128.638 237.658 130.116 237.25Z" fill="#C8C1E8"/>
<path d="M85.3913 26.5493C88.2378 26.5493 90.5499 28.8553 90.5499 31.7078C90.5499 32.6566 91.3185 33.4253 92.2674 33.4253C93.2162 33.4253 93.9849 32.6566 93.9849 31.7078C93.9849 26.9636 90.1355 23.1143 85.3913 23.1143C84.4425 23.1143 83.6738 23.8829 83.6738 24.8318C83.6738 25.7806 84.4425 26.5493 85.3913 26.5493Z" fill="#2B459B"/>
<path d="M85.3913 19.6734C92.0392 19.6734 97.4259 25.0602 97.4259 31.702C97.4259 32.6508 98.1946 33.4195 99.1434 33.4195C100.092 33.4195 100.861 32.6508 100.861 31.702C100.861 23.1565 93.9368 16.2324 85.3913 16.2324C84.4425 16.2324 83.6738 17.0011 83.6738 17.9499C83.6738 18.9048 84.4425 19.6734 85.3913 19.6734Z" fill="#2B459B"/>
<path d="M100.429 40.1454C100.237 39.5869 99.7685 39.1605 99.192 39.0284L88.8809 36.6743C88.3104 36.5482 87.7159 36.7164 87.3016 37.1187C87.0613 37.3409 87.0433 37.3589 85.9264 39.4908C82.2211 37.7853 79.2485 34.8007 77.555 31.0834C79.7349 29.9845 79.7529 29.9845 79.9811 29.7262C80.3895 29.3119 80.5576 28.7114 80.4255 28.1469L78.0715 17.9559C77.9393 17.3794 77.513 16.911 76.9545 16.7188C76.5521 16.5747 76.1378 16.4726 75.7174 16.4066C75.285 16.3045 74.8406 16.2504 74.3962 16.2324C70.0304 16.2324 66.4873 19.7695 66.4873 24.1414C66.5053 38.7522 78.3477 50.5945 92.9585 50.6126C97.3243 50.6126 100.867 47.0755 100.867 42.7036C100.867 42.2652 100.831 41.8269 100.765 41.3945C100.687 40.9741 100.573 40.5537 100.429 40.1454Z" fill="#454975"/>
<path d="M184.657 31.371H163.536C159.158 31.371 155.579 27.7918 155.579 23.414C155.579 19.0362 159.158 15.457 163.536 15.457H184.657C189.034 15.457 192.614 19.0362 192.614 23.414C192.614 27.7918 189.034 31.371 184.657 31.371Z" fill="#2B459B"/>
<path d="M186.638 33.8152C186.638 34.7881 185.852 35.5747 184.879 35.5747C183.906 35.5747 183.119 34.7881 183.119 33.8152C183.119 32.8424 183.906 32.0557 184.879 32.0557C185.852 32.0557 186.638 32.8424 186.638 33.8152Z" fill="#2B459B"/>
<path d="M169.483 23.1976C169.483 24.4707 168.45 25.5036 167.177 25.5036C165.904 25.5036 164.871 24.4707 164.871 23.1976C164.871 21.9245 165.904 20.8916 167.177 20.8916C168.45 20.8916 169.483 21.9245 169.483 23.1976Z" fill="white"/>
<path d="M176.407 23.1976C176.407 24.4707 175.374 25.5036 174.101 25.5036C172.828 25.5036 171.795 24.4707 171.795 23.1976C171.795 21.9245 172.828 20.8916 174.101 20.8916C175.374 20.8916 176.407 21.9245 176.407 23.1976Z" fill="white"/>
<path d="M183.332 23.1976C183.332 24.4707 182.299 25.5036 181.026 25.5036C179.753 25.5036 178.72 24.4707 178.72 23.1976C178.72 21.9245 179.753 20.8916 181.026 20.8916C182.299 20.8916 183.332 21.9245 183.332 23.1976Z" fill="white"/>
<path d="M153.876 49.8612H174.996C179.374 49.8612 182.953 46.2821 182.953 41.9042C182.953 37.5264 179.374 33.9473 174.996 33.9473H153.876C149.498 33.9473 145.919 37.5264 145.919 41.9042C145.919 46.2821 149.498 49.8612 153.876 49.8612Z" fill="#2B459B"/>
<path d="M151.887 52.3054C151.887 53.2783 152.673 54.065 153.646 54.065C154.619 54.065 155.406 53.2783 155.406 52.3054C155.406 51.3326 154.619 50.5459 153.646 50.5459C152.673 50.5459 151.887 51.3326 151.887 52.3054Z" fill="#2B459B"/>
<path d="M159.815 41.7601C159.815 43.0332 158.782 44.0661 157.509 44.0661C156.236 44.0661 155.203 43.0332 155.203 41.7601C155.203 40.487 156.236 39.4541 157.509 39.4541C158.782 39.4541 159.815 40.487 159.815 41.7601Z" fill="white"/>
<path d="M166.739 41.7601C166.739 43.0332 165.706 44.0661 164.433 44.0661C163.16 44.0661 162.127 43.0332 162.127 41.7601C162.127 40.487 163.16 39.4541 164.433 39.4541C165.706 39.4541 166.739 40.487 166.739 41.7601Z" fill="white"/>
<path d="M173.664 41.7601C173.664 43.0332 172.631 44.0661 171.358 44.0661C170.085 44.0661 169.052 43.0332 169.052 41.7601C169.052 40.487 170.085 39.4541 171.358 39.4541C172.631 39.4541 173.664 40.487 173.664 41.7601Z" fill="white"/>
<path d="M122.777 97.3514C122.044 99.237 120.819 100.75 119.378 101.729C117.534 102.996 115.336 103.399 113.348 102.63C109.805 101.261 108.28 96.6608 109.949 92.373C111.607 88.0852 115.829 85.7192 119.378 87.0944C119.396 87.1004 119.42 87.1064 119.438 87.1184C122.933 88.5236 124.428 93.0876 122.777 97.3514Z" fill="#A6AFE2"/>
<path d="M35.8687 90.95C39.5799 96.607 50.3834 113.037 56.4427 121.943C51.8487 130.543 42.2283 135.299 42.2283 135.299C42.2283 135.299 37.2559 121.991 34.6376 114.785C32.0193 107.579 29.9895 101.97 30.0676 98.2884C30.0796 97.778 30.494 97.6098 30.7762 97.5498L30.3799 96.8352C29.8995 95.9644 30.2418 94.8654 31.1365 94.4211C31.707 94.1388 32.3496 94.2169 32.848 94.5412L32.1154 93.3521C31.5089 92.3732 31.7491 91.0881 32.6739 90.3975C33.7068 89.6288 35.1661 89.8751 35.8687 90.95Z" fill="#FFB8B8"/>
<path d="M39.3154 113.8C39.4295 109.327 43.435 105.795 44.9664 104.811L45.5008 105.639C43.5371 106.9 40.3904 110.233 40.3003 113.824L39.3154 113.8Z" fill="#F18B8B"/>
<path d="M32.9049 94.5332L32.4795 94.7812L38.263 104.701L38.6884 104.453L32.9049 94.5332Z" fill="#F18B8B"/>
<path d="M30.8199 97.6043L30.376 97.8174L34.9727 107.394L35.4166 107.181L30.8199 97.6043Z" fill="#F18B8B"/>
<path d="M137.079 105.592L137.103 105.97L137.325 117.513L137.89 146.824L102.795 137.39L119.7 126.268L119.532 121.854L118.961 106.523C118.757 101.545 122.612 97.3288 127.591 97.0766C132.569 96.8424 136.785 100.668 137.079 105.592Z" fill="#FFB8B8"/>
<path d="M137.079 105.592L137.103 105.97L137.325 117.513C135.511 118.485 133.626 119.326 131.734 120.083C128.689 121.302 125.987 122.161 122.696 122.167C121.639 122.167 120.54 122.155 119.531 121.854L118.961 106.523C118.757 101.545 122.612 97.3288 127.59 97.0766C132.569 96.8424 136.785 100.668 137.079 105.592Z" fill="#F18B8B"/>
<path d="M144.555 99.5863C141.954 105.88 139.997 108.33 137.859 107.657C131.703 118.197 123.236 122.166 115.681 120.118C109.55 118.473 109.868 109.543 111.586 101.454C111.994 99.5863 112.469 97.7487 112.949 96.0672C113.748 93.3288 115.063 89.5635 116.9 85.3418C112.048 70.2986 126.617 67.0018 136.231 77.9614C136.742 77.583 137.294 77.3008 137.865 77.1567C140.405 76.436 143.257 78.3277 145.395 85.3298C149.797 90.158 147.167 93.2868 144.555 99.5863Z" fill="#454975"/>
<path d="M141.126 84.928C140.327 83.4507 138.85 81.6191 136.237 77.9619C136.748 77.5836 137.3 77.3014 137.871 77.1572C139.132 79.5233 140.927 83.2105 141.126 84.928Z" fill="#3B3E63"/>
<path d="M142.544 101.754C139.595 107.693 135.025 105.021 134.617 102.637C132.227 106.12 130.677 107.015 129.615 107.123C128.552 107.231 125.591 105.363 124.318 104.955C123.033 104.529 116.625 106.39 111.611 101.466L111.593 101.454C112.001 99.5863 112.476 97.7487 112.956 96.0672C113.755 93.3288 115.07 89.5635 116.907 85.3418C119.628 81.8888 127.933 75.235 137.656 92.362C136.875 95.6649 136.322 98.2051 135.62 99.8986C140.358 94.1696 145.492 95.827 142.544 101.754Z" fill="#FFB8B8"/>
<path d="M136.346 100.944C136.562 100.373 136.886 99.8448 137.307 99.3945C137.709 98.932 138.207 98.5417 138.766 98.2534C139.324 97.9652 139.961 97.767 140.633 97.8031C140.964 97.8091 141.312 97.8991 141.606 98.0913C141.901 98.2775 142.117 98.6198 142.069 98.938C141.889 98.6738 141.648 98.5657 141.408 98.5357C141.168 98.4937 140.922 98.5237 140.669 98.5717C140.171 98.6858 139.685 98.89 139.21 99.1302C138.736 99.3704 138.267 99.6647 137.799 99.971C137.331 100.277 136.88 100.632 136.346 100.944Z" fill="#F18B8B"/>
<path d="M136.94 100.283C137.163 100.013 137.499 99.8267 137.847 99.7367C138.196 99.6466 138.574 99.6406 138.94 99.7306C139.3 99.8267 139.655 100.025 139.877 100.349C140.105 100.667 140.153 101.07 140.063 101.406C139.859 100.722 139.403 100.349 138.814 100.211C138.526 100.133 138.22 100.109 137.901 100.121C137.595 100.133 137.277 100.169 136.94 100.283Z" fill="#F18B8B"/>
<path d="M119.777 94.2119C116.834 98.0673 113.339 99.6947 112.895 100.722C112.45 101.749 113.982 103.766 117.783 104.457C120.035 103.034 118.21 100.698 119.777 94.2119Z" fill="#F18B8B"/>
<path d="M125.696 97.4968C126.431 97.4527 126.983 96.6843 126.929 95.7805C126.874 94.8767 126.235 94.1798 125.5 94.2239C124.765 94.268 124.213 95.0364 124.267 95.9402C124.321 96.844 124.961 97.5409 125.696 97.4968Z" fill="#454975"/>
<path d="M117.405 94.89C117.236 95.7788 116.51 96.3853 115.783 96.2472C115.063 96.1091 114.612 95.2744 114.78 94.3856C114.948 93.4968 115.675 92.8903 116.396 93.0284C117.122 93.1725 117.573 94.0012 117.405 94.89Z" fill="#454975"/>
<path d="M127.242 87.6362C129.897 87.7143 131.152 90.849 131.554 92.5545C131.752 93.3953 131.194 93.6235 130.749 92.8368C130.197 91.8699 128.702 90.1224 127.014 89.4558C125.813 88.9754 126.215 87.6062 127.242 87.6362Z" fill="#454975"/>
<path d="M119.658 86.3331C117.418 85.4143 115.544 87.0056 114.595 88.3328C114.097 89.0354 114.469 89.732 115.226 89.2396C116.157 88.6331 117.226 87.8824 119.039 88.0566C120.318 88.1827 120.612 86.7294 119.658 86.3331Z" fill="#454975"/>
<path d="M95.5048 218.365C103.552 221.194 111.851 222.899 125.633 221.602C133.686 195.593 134.977 133.12 135.242 129.637C128.93 132.063 121.135 133.475 117.838 125.794C102.051 143.6 95.4147 170.803 95.5048 218.365Z" fill="white"/>
<path d="M137.427 122.977C128.893 127.901 123.519 142.86 122.101 165.71C120.684 188.56 118.931 209.44 119.507 216.256C120.09 223.072 122.119 234.08 134.334 235.059C146.549 236.038 164.565 236.668 164.565 236.668C164.565 236.668 150.2 148.493 149.714 143.214C149.227 137.936 147.468 129.654 137.427 122.977Z" fill="#2B459B"/>
<path d="M239.008 221.362C233.387 217.603 217.046 206.655 208.195 200.518C199.559 205.034 194.713 214.612 194.713 214.612C194.713 214.612 207.979 219.704 215.161 222.389C222.343 225.073 227.934 227.151 231.615 227.103C232.126 227.097 232.3 226.683 232.36 226.4L233.075 226.803C233.945 227.295 235.044 226.959 235.495 226.064C235.777 225.499 235.711 224.851 235.393 224.346L236.576 225.091C237.554 225.704 238.834 225.475 239.536 224.557C240.311 223.536 240.071 222.076 239.008 221.362Z" fill="#FFB8B8"/>
<path d="M212.777 204.169L232.882 209.351C234.047 209.652 234.756 210.817 234.492 211.988C234.216 213.213 232.978 213.964 231.765 213.645L219.749 210.517C219.761 210.517 210.243 208.883 212.777 204.169Z" fill="#FFB8B8"/>
<path d="M218.595 217.302C217.832 217.548 217.028 217.698 216.187 217.71L216.169 216.725C219.76 216.665 223.123 213.548 224.396 211.603L225.219 212.143C224.42 213.38 221.91 216.233 218.595 217.302Z" fill="#F18B8B"/>
<path d="M225.531 218.413L225.279 218.836L235.147 224.707L235.399 224.284L225.531 218.413Z" fill="#F18B8B"/>
<path d="M222.763 221.67L222.546 222.112L232.082 226.793L232.299 226.351L222.763 221.67Z" fill="#F18B8B"/>
<path d="M137.427 122.977C148.459 130.789 151.882 136.404 155.197 143.226C158.517 150.048 170.99 172.418 174.696 177.156C178.407 181.9 208.193 200.511 208.193 200.511L192.285 218.07C192.285 218.07 161.79 204.636 155.935 198.313C150.074 191.995 137.127 168.46 137.427 122.977Z" fill="#2B459B"/>
<path d="M119.616 124.4L119.73 127.324C113.07 134.651 107.906 147.556 105.059 164.118C101.822 182.873 100.579 202.816 100.453 219.325C100.381 230.681 89.8839 230.537 84.6953 226.663C85.8003 211.716 90.1241 175.643 92.4661 164.623C94.7061 154.06 99.2581 123.385 119.616 124.4Z" fill="#2B459B"/>
<path d="M119.628 124.586L119.664 125.42C109.124 129.546 103.503 149.483 103.503 149.483C103.503 149.483 96.9397 170.087 90.9164 174.844C79.2302 184.086 70.5166 181.636 63.9348 174.645C60.4577 170.952 38.5205 135.941 38.5205 135.941L56.4642 121.709L76.7861 149.003C76.7861 149.003 94.0272 136.698 100.525 131.912C106.392 127.582 111.388 124.513 119.628 124.586Z" fill="#2B459B"/>
<path d="M140.605 163.528L139.688 163.886L150.741 192.247L151.658 191.89L140.605 163.528Z" fill="#BB4344"/>
<path d="M37.5667 102.299L19.1426 83.875V99.6568C19.1426 102.708 21.6167 105.182 24.6674 105.182H50.46C53.5107 105.182 55.9849 102.708 55.9849 99.6568V83.875L37.5667 102.299Z" fill="#3E4169"/>
<path d="M55.9907 83.881V81.2387C55.9907 78.188 53.5166 75.7139 50.4659 75.7139H24.6733C21.6226 75.7139 19.1484 78.188 19.1484 81.2387V83.881L37.5726 102.305L55.9907 83.881Z" fill="#454975"/>
<path d="M52.4598 86.0738C56.2075 86.0738 59.2457 83.0357 59.2457 79.2879C59.2457 75.5401 56.2075 72.502 52.4598 72.502C48.712 72.502 45.6738 75.5401 45.6738 79.2879C45.6738 83.0357 48.712 86.0738 52.4598 86.0738Z" fill="#2B459B"/>
<path d="M35.454 92.9443H23.3594V95.6467H35.454V92.9443Z" fill="#A6AFE2"/>
<path d="M52.827 117.331L47.8247 97.1777C47.5364 96.0127 46.3714 95.286 45.2004 95.5443C43.9753 95.8085 43.2126 97.0396 43.5189 98.2526L46.5455 110.293C46.5395 110.293 48.0889 119.824 52.827 117.331Z" fill="#FFB8B8"/>
<path d="M120.127 106.611C120.121 106.641 120.121 106.677 120.115 106.707C119.383 112.533 112.441 113.127 111.93 106.011C111.894 105.645 111.882 105.248 111.894 104.84C113.81 104.912 118.422 106.089 120.127 106.611Z" fill="#F18B8B"/>
<path d="M120.127 106.611C120.121 106.641 120.121 106.677 120.115 106.707C119.329 106.906 118.476 107.032 117.569 107.08C115.293 107.194 113.233 106.767 111.93 106.017C111.894 105.65 111.882 105.254 111.894 104.846C113.81 104.912 118.422 106.089 120.127 106.611Z" fill="#F3EDFF"/>
<path d="M145.711 102.714C144.979 104.599 143.754 106.113 142.312 107.092C140.469 108.359 138.271 108.761 136.283 107.992C132.74 106.623 131.215 102.023 132.884 97.7353C134.541 93.4475 138.763 91.0815 142.312 92.4567C142.33 92.4627 142.354 92.4687 142.372 92.4807C145.867 93.8859 147.363 98.4499 145.711 102.714Z" fill="#A6AFE2"/>
<path d="M140.114 92.5596C142.816 88.7583 139.754 81.4078 136.235 77.9608C136.235 77.9608 134.962 76.5736 134.535 76.2373C135.328 76.2493 135.616 76.3874 136.421 77.006C137.226 77.6185 147.915 84.0862 143.825 94.0009C143.825 93.9949 140.33 93.4244 140.114 92.5596Z" fill="#A6AFE2"/>
<path d="M145.712 102.714C144.979 104.6 143.754 106.113 142.313 107.092C137.358 108.209 133.467 103.243 136.86 97.3817C138.349 94.8175 140.325 93.2441 142.361 92.4814C145.868 93.8867 147.363 98.4507 145.712 102.714Z" fill="#BBC3ED"/>
<path d="M135.658 104.438C132.662 107.434 126.776 107.758 122.122 107.83C121.672 107.836 121.306 108.185 121.276 108.635C121.24 109.152 121.666 109.578 122.182 109.554C129.257 109.164 133.652 108.713 136.655 105.494L135.658 104.438Z" fill="#A6AFE2"/>
<path d="M122.147 110.479C123.152 110.479 123.966 109.664 123.966 108.659C123.966 107.655 123.152 106.84 122.147 106.84C121.142 106.84 120.327 107.655 120.327 108.659C120.327 109.664 121.142 110.479 122.147 110.479Z" fill="#4671FF"/>
<path d="M64.8869 54.5042C68.5982 54.5042 71.6068 51.4956 71.6068 47.7843C71.6068 44.0731 68.5982 41.0645 64.8869 41.0645C61.1756 41.0645 58.167 44.0731 58.167 47.7843C58.167 51.4956 61.1756 54.5042 64.8869 54.5042Z" fill="#DAD4F8"/>
<path d="M135.55 26.6578C135.55 28.1771 134.319 29.4142 132.794 29.4142C131.274 29.4142 130.037 28.1831 130.037 26.6578C130.037 25.1385 131.268 23.9014 132.794 23.9014C134.313 23.9014 135.55 25.1324 135.55 26.6578Z" fill="#DAD4F8"/>
<path d="M104.905 67.4756C105.993 67.4756 106.875 66.5937 106.875 65.5059C106.875 64.418 105.993 63.5361 104.905 63.5361C103.817 63.5361 102.936 64.418 102.936 65.5059C102.936 66.5937 103.817 67.4756 104.905 67.4756Z" fill="#DAD4F8"/>
<path d="M161.842 127.679C161.842 128.874 160.875 129.847 159.674 129.847C158.479 129.847 157.506 128.88 157.506 127.679C157.506 126.484 158.473 125.511 159.674 125.511C160.875 125.511 161.842 126.484 161.842 127.679Z" fill="#DAD4F8"/>
<path d="M172.781 168.148V209.843C172.781 213.962 169.442 217.307 165.316 217.307H91.3256C87.206 217.307 83.873 213.962 83.873 209.843V168.148C83.873 164.029 87.212 160.684 91.3256 160.684H165.316C169.442 160.69 172.781 164.029 172.781 168.148Z" fill="#454975"/>
<path d="M147.823 217.308H121.021L120.072 185.954H136.575L147.823 217.308Z" fill="#393C61"/>
<path d="M156.35 230.525H142.358L136.575 185.954H120.072L114.289 230.525H100.297C99.138 230.525 98.2012 231.462 98.2012 232.621V234.681H158.434V232.621C158.44 231.462 157.503 230.525 156.35 230.525ZM134.371 208.294C134.371 211.633 131.662 214.341 128.324 214.341C124.985 214.341 122.276 211.633 122.276 208.294V205.771C122.276 202.433 124.985 199.724 128.324 199.724C131.662 199.724 134.371 202.433 134.371 205.771V208.294Z" fill="#A6AFE2"/>
<path d="M128.253 207.386C114.315 207.386 119.179 224.615 119.179 234.271" stroke="#F3EDFF" stroke-width="2.1742" stroke-miterlimit="10"/>
<path d="M197.249 74.9287C194.079 74.9287 191.082 75.3251 188.422 76.0217C187.058 76.382 186.104 77.6071 186.104 79.0183V99.5623V102.205C186.104 104.174 187.923 105.628 189.851 105.219C192.139 104.733 194.637 104.463 197.255 104.463C201.381 104.463 205.224 105.129 208.413 106.276V99.5683V76.7423C205.218 75.6013 201.375 74.9287 197.249 74.9287Z" fill="#454975"/>
<path d="M219.558 74.9287C215.433 74.9287 211.589 75.5953 208.4 76.7423V99.5683V106.276C211.589 105.129 215.433 104.463 219.558 104.463C222.17 104.463 224.669 104.733 226.963 105.219C228.89 105.628 230.71 104.18 230.71 102.205V99.5623V79.0183C230.71 77.6071 229.755 76.382 228.392 76.0217C225.726 75.3251 222.729 74.9287 219.558 74.9287Z" fill="#3E4169"/>
<path d="M230.097 237.521H18.2492C17.4505 237.521 16.7959 236.866 16.7959 236.073C16.7959 235.275 17.4505 234.62 18.2492 234.62H230.097C230.896 234.62 231.55 235.275 231.55 236.073C231.544 236.866 230.89 237.521 230.097 237.521Z" fill="#454975"/>
</svg>
