<svg width="24" height="19" viewBox="0 0 24 19" fill="none" xmlns="http://www.w3.org/2000/svg">
<path d="M11.461 15.586L22.7891 3.0291C22.9669 2.77103 23.069 2.42428 23.0741 2.06076C23.0792 1.69724 22.987 1.34486 22.8165 1.07669L22.8049 1.05937C22.7223 0.928921 22.6221 0.824052 22.5104 0.751138C22.3987 0.678223 22.2779 0.638788 22.1553 0.635232C22.0327 0.631676 21.9109 0.664073 21.7972 0.730452C21.6836 0.796831 21.5805 0.895804 21.4943 1.02135L11.461 15.586L1.84846 0.451515C1.76582 0.32107 1.66561 0.216201 1.55392 0.143287C1.44224 0.0703725 1.32143 0.030937 1.19883 0.0273809C1.07622 0.0238248 0.954402 0.0562225 0.840767 0.122601C0.727132 0.18898 0.624061 0.287953 0.537823 0.4135L0.525795 0.430135C0.347918 0.688201 0.245843 1.03495 0.240743 1.39847C0.235642 1.76199 0.327908 2.11438 0.4984 2.38255L10.7112 18.4545C10.801 18.5958 10.9098 18.7094 11.031 18.7884C11.1522 18.8674 11.2833 18.9101 11.4163 18.914C11.5493 18.9178 11.6815 18.8827 11.8049 18.8109C11.9282 18.739 11.3673 15.7221 11.461 15.586Z" fill="white"/>
</svg>
