<svg width="22" height="23" viewBox="0 0 22 23" fill="none" xmlns="http://www.w3.org/2000/svg">
<path d="M21.5392 22.3648C21.2723 22.6396 20.8312 22.6399 20.564 22.3655L14.5289 16.1678C13.4715 15.0818 11.7487 15.0706 10.3266 15.5949C9.4537 15.9167 8.57637 16.0776 7.69456 16.0776C5.5442 16.0776 3.72419 15.3131 2.23451 13.7842C0.744837 12.2544 0 10.3858 0 8.17835C0 5.97095 0.743941 4.10142 2.23183 2.56975C3.7206 1.03717 5.53973 0.270874 7.68919 0.270874C9.83955 0.270874 11.6605 1.03579 13.1519 2.56561C14.6434 4.09544 15.3891 5.96497 15.3891 8.17421C15.3891 9.13219 15.224 10.0594 14.8936 10.9558C14.371 12.3699 14.3928 14.0793 15.4447 15.1593L21.5385 21.4164C21.7954 21.6802 21.7958 22.1006 21.5392 22.3648ZM7.69456 14.6971C9.47608 14.6971 10.9805 14.0674 12.2079 12.8078C13.4344 11.5483 14.0476 10.0033 14.0476 8.17283C14.0476 6.34329 13.4344 4.79876 12.2079 3.53922C10.9814 2.27969 9.47743 1.64992 7.6959 1.64992C5.91438 1.64992 4.40994 2.27969 3.18257 3.53922C1.95609 4.79876 1.34286 6.34329 1.34286 8.17283C1.34286 10.0024 1.95609 11.5469 3.18257 12.8064C4.40904 14.066 5.91304 14.6971 7.69456 14.6971Z" fill="#8196DB"/>
</svg>
