<svg width="42" height="29" viewBox="0 0 42 29" fill="none" xmlns="http://www.w3.org/2000/svg">
<path fill-rule="evenodd" clip-rule="evenodd" d="M1.05508 12.9347L13.3664 0.995367C14.1176 0.267122 15.3358 0.267122 16.087 0.995367C16.8384 1.72453 16.8384 2.90547 16.087 3.63371L7.05948 12.3883H39.9394C41.0018 12.3883 41.8632 13.2233 41.8632 14.2539C41.8632 15.2837 41.0018 16.1195 39.9394 16.1195H7.05948L16.0868 24.8741C16.8379 25.6015 16.8379 26.7833 16.0868 27.5116C15.711 27.8752 15.2187 28.0571 14.7264 28.0571C14.2341 28.0571 13.7418 27.8752 13.3662 27.5116L1.05508 15.5722C0.303699 14.8449 0.303699 13.663 1.05508 12.9347Z" fill="#BBC7D7"/>
</svg>
