<svg width="48" height="28" viewBox="0 0 48 28" fill="none" xmlns="http://www.w3.org/2000/svg">
<path fill-rule="evenodd" clip-rule="evenodd" d="M47.5978 12.6629L38.811 0.553942C38.2749 -0.184647 37.4053 -0.184647 36.8694 0.553942C36.3331 1.29346 36.3331 2.49117 36.8694 3.22976L43.3124 12.1087H1.37285C0.614732 12.1087 0 12.9555 0 14.0008C0 15.0452 0.614732 15.8929 1.37285 15.8929H43.3124L36.8695 24.7719C36.3332 25.5095 36.3332 26.7082 36.8695 27.4467C37.1375 27.8156 37.489 28 37.8404 28C38.1917 28 38.5431 27.8156 38.8112 27.4467L47.5978 15.3378C48.1341 14.6002 48.1341 13.4015 47.5978 12.6629Z" fill="#254989"/>
</svg>
