<svg width="252" height="168" viewBox="0 0 252 168" fill="none" xmlns="http://www.w3.org/2000/svg">
<path d="M252 146.839H0V146.951H252V146.839Z" fill="#EBEBEB"/>
<path d="M226.75 154.031H210.057V154.143H226.75V154.031Z" fill="#EBEBEB"/>
<path d="M166.934 155.247H162.555V155.359H166.934V155.247Z" fill="#EBEBEB"/>
<path d="M209.553 149.883H199.881V149.995H209.553V149.883Z" fill="#EBEBEB"/>
<path d="M48.2077 150.634H26.4399V150.746H48.2077V150.634Z" fill="#EBEBEB"/>
<path d="M55.8881 150.634H52.6978V150.746H55.8881V150.634Z" fill="#EBEBEB"/>
<path d="M113.475 152.521H66.2607V152.632H113.475V152.521Z" fill="#EBEBEB"/>
<path d="M119.448 126.902H22.1306C21.3682 126.901 20.6375 126.631 20.0989 126.153C19.5603 125.674 19.2578 125.026 19.2578 124.349V3.01738C19.2644 2.34509 19.5699 1.70227 20.1078 1.22855C20.6457 0.754822 21.3726 0.488456 22.1306 0.487305H119.448C120.211 0.487305 120.943 0.756221 121.483 1.23489C122.023 1.71357 122.326 2.36279 122.326 3.03973V124.349C122.326 125.026 122.023 125.676 121.483 126.154C120.943 126.633 120.211 126.902 119.448 126.902ZM22.1306 0.576707C21.4017 0.577891 20.703 0.835555 20.188 1.29314C19.673 1.75073 19.3838 2.37085 19.3838 3.01738V124.349C19.3838 124.996 19.673 125.616 20.188 126.074C20.703 126.531 21.4017 126.789 22.1306 126.79H119.448C120.177 126.789 120.877 126.531 121.392 126.074C121.908 125.617 122.198 124.996 122.2 124.349V3.01738C122.198 2.37044 121.908 1.75033 121.392 1.29287C120.877 0.83541 120.177 0.577889 119.448 0.576707H22.1306Z" fill="#EBEBEB"/>
<path d="M228.468 126.902H131.146C130.383 126.901 129.652 126.631 129.112 126.153C128.573 125.675 128.269 125.026 128.268 124.349V3.01738C128.276 2.34468 128.583 1.70187 129.121 1.22827C129.66 0.754666 130.387 0.488444 131.146 0.487305H228.468C229.225 0.489631 229.951 0.756516 230.488 1.23011C231.025 1.70371 231.329 2.34586 231.336 3.01738V124.349C231.336 125.025 231.034 125.673 230.497 126.151C229.959 126.63 229.23 126.9 228.468 126.902ZM131.146 0.576707C130.416 0.577889 129.717 0.83541 129.202 1.29287C128.686 1.75033 128.395 2.37044 128.394 3.01738V124.349C128.395 124.996 128.686 125.617 129.202 126.074C129.717 126.531 130.416 126.789 131.146 126.79H228.468C229.198 126.789 229.897 126.531 230.413 126.074C230.928 125.617 231.219 124.996 231.22 124.349V3.01738C231.219 2.37044 230.928 1.75033 230.413 1.29287C229.897 0.83541 229.198 0.577889 228.468 0.576707H131.146Z" fill="#EBEBEB"/>
<path d="M43.0305 130.491C43.0305 130.312 43.7109 112.754 46.9315 109.978C50.0613 107.296 53.6549 109.875 53.8061 109.978L54.1286 109.634C54.0883 109.607 50.0311 106.67 46.5686 109.634C43.2019 112.535 42.5366 129.722 42.5366 130.451L43.0305 130.491Z" fill="#E0E0E0"/>
<path d="M42.7591 133.938C42.7591 133.732 44.9566 112.861 36.3634 104.113L35.9854 104.408C44.4374 113.009 42.2803 133.688 42.2551 133.911L42.7591 133.938Z" fill="#E0E0E0"/>
<path d="M43.077 131.734L43.581 131.703C43.581 131.466 41.9027 107.975 48.2027 102.835L47.865 102.504C41.3785 107.792 43.0014 130.755 43.077 131.734Z" fill="#E0E0E0"/>
<path d="M42.2555 131.721H42.7595C42.7595 131.073 42.5529 115.857 37.6742 113.394C37.2115 113.129 36.6843 112.966 36.1364 112.919C35.5885 112.871 35.0358 112.941 34.5242 113.121C31.5758 114.203 30.1142 118.856 30.0537 119.053L30.5577 119.173C30.5577 119.124 32.0143 114.533 34.7308 113.537C35.1722 113.383 35.6485 113.326 36.1202 113.368C36.5918 113.411 37.0451 113.553 37.4424 113.782C42.0489 116.111 42.2555 131.565 42.2555 131.721Z" fill="#E0E0E0"/>
<path d="M44.1501 131.73L44.6541 131.703C44.6541 131.587 43.9182 119.679 47.542 115.486C48.419 114.475 49.3917 113.984 50.3997 114.028C52.7735 114.176 54.7643 117.256 54.7845 117.287L55.223 117.068C55.1373 116.93 53.081 113.747 50.435 113.581C49.2556 113.505 48.1518 114.028 47.164 115.195C43.4042 119.54 44.1198 131.234 44.1501 131.73Z" fill="#E0E0E0"/>
<path d="M43.3446 133.348C43.4404 132.194 45.7134 105.007 41.7167 100.22L41.3135 100.483C45.1943 105.141 42.8658 133.035 42.8255 133.316L43.3446 133.348Z" fill="#E0E0E0"/>
<path d="M33.4354 115.856C33.4354 115.856 35.8344 116.638 35.1188 118.489C34.4031 120.34 26.833 123.379 26.833 123.379C26.833 123.379 23.6578 120.8 26.5709 116.607C29.484 112.414 33.3699 114.533 33.4354 115.856Z" fill="#EBEBEB"/>
<path d="M43.8475 112.334C43.8475 112.334 41.3275 112.24 41.1561 114.189C40.9848 116.138 46.7001 121.534 46.7001 121.534C46.7001 121.534 50.7321 120.237 49.8804 115.369C49.0286 110.501 44.4876 111.136 43.8475 112.334Z" fill="#EBEBEB"/>
<path d="M46.0106 103C46.0106 103 44.3121 102.839 44.4482 101.919C44.5843 100.998 51.0607 98.6375 54.881 102.459C54.881 102.459 52.4366 106.188 48.8985 106.237C45.3604 106.286 46.0106 103 46.0106 103Z" fill="#EBEBEB"/>
<path d="M42.8401 100.77C42.8401 100.77 44.3823 101.427 44.8157 100.586C45.2492 99.746 41.1617 94.6948 35.6379 96.1476C35.6379 96.1476 35.4917 100.461 38.4653 102.16C41.4389 103.859 42.8401 100.77 42.8401 100.77Z" fill="#EBEBEB"/>
<path d="M50.9041 115.11C50.9041 115.11 49.7298 114.27 50.9999 113.863C52.27 113.456 58.4792 113.568 58.5599 119.03C58.5599 119.03 51.3224 120.094 50.4253 118.016C49.5282 115.937 50.9041 115.11 50.9041 115.11Z" fill="#EBEBEB"/>
<path d="M36.1307 102.853C36.1307 102.853 37.305 102.013 36.04 101.602C34.7749 101.19 28.5556 101.311 28.48 106.769C28.48 106.769 35.7225 107.837 36.6145 105.759C37.5066 103.68 36.1307 102.853 36.1307 102.853Z" fill="#EBEBEB"/>
<path d="M39.9568 107.26C39.9568 107.26 40.0626 106.241 39.1302 106.639C38.1978 107.037 34.9621 110.144 38.3188 113.085C38.3188 113.085 42.8548 110.112 42.0282 108.566C41.2016 107.019 39.9568 107.26 39.9568 107.26Z" fill="#EBEBEB"/>
<path d="M51.9469 108.718C51.9469 108.718 51.2413 107.904 52.2695 107.801C53.2977 107.699 57.9042 108.789 56.8307 112.871C56.8307 112.871 51.2212 112.495 50.9793 110.801C50.7373 109.107 51.9469 108.718 51.9469 108.718Z" fill="#EBEBEB"/>
<path d="M32.9871 146.856H52.2399L54.3164 128.162H30.9106L32.9871 146.856Z" fill="#F0F0F0"/>
<path d="M29.887 130.228H55.3491V126.102H29.887V130.228Z" fill="#E6E6E6"/>
<path d="M208.767 130.491C208.767 130.312 208.092 112.754 204.871 109.978C201.741 107.296 198.143 109.875 197.997 109.978L197.669 109.634C197.714 109.607 201.766 106.67 205.229 109.634C208.596 112.535 209.261 129.722 209.261 130.451L208.767 130.491Z" fill="#E0E0E0"/>
<path d="M209.045 133.938C209.045 133.732 206.847 112.861 215.44 104.113L215.818 104.408C207.366 113.009 209.523 133.688 209.549 133.911L209.045 133.938Z" fill="#E0E0E0"/>
<path d="M208.727 131.734L208.223 131.703C208.223 131.466 209.906 107.975 203.601 102.835L203.944 102.504C210.425 107.792 208.802 130.755 208.727 131.734Z" fill="#E0E0E0"/>
<path d="M209.547 131.721H209.043C209.043 131.073 209.25 115.857 214.123 113.394C214.587 113.129 215.115 112.966 215.664 112.919C216.212 112.871 216.766 112.941 217.278 113.121C220.227 114.203 221.688 118.856 221.749 119.053L221.245 119.173C221.245 119.124 219.788 114.534 217.072 113.537C216.63 113.383 216.154 113.326 215.682 113.368C215.211 113.411 214.757 113.553 214.36 113.783C209.749 116.111 209.547 131.565 209.547 131.721Z" fill="#E0E0E0"/>
<path d="M207.648 131.73L207.144 131.703C207.144 131.587 207.88 119.678 204.256 115.485C203.38 114.466 202.422 113.983 201.419 114.046C199.045 114.194 197.054 117.273 197.034 117.305L196.596 117.086C196.681 116.947 198.738 113.764 201.384 113.599C202.563 113.523 203.667 114.046 204.655 115.213C208.394 119.54 207.684 131.234 207.648 131.73Z" fill="#E0E0E0"/>
<path d="M208.444 133.348C208.344 132.194 206.076 105.007 210.072 100.22L210.476 100.483C206.59 105.141 208.923 133.035 208.964 133.316L208.444 133.348Z" fill="#E0E0E0"/>
<path d="M218.369 115.856C218.369 115.856 215.97 116.638 216.686 118.489C217.401 120.34 224.971 123.379 224.971 123.379C224.971 123.379 228.147 120.8 225.228 116.607C222.31 112.414 218.429 114.533 218.369 115.856Z" fill="#EBEBEB"/>
<path d="M207.951 112.334C207.951 112.334 210.502 112.24 210.648 114.189C210.794 116.138 205.104 121.534 205.104 121.534C205.104 121.534 201.072 120.237 201.929 115.369C202.785 110.501 207.316 111.136 207.951 112.334Z" fill="#EBEBEB"/>
<path d="M205.792 103C205.792 103 207.491 102.839 207.355 101.919C207.219 100.998 200.742 98.6375 196.922 102.459C196.922 102.459 199.366 106.188 202.904 106.237C206.442 106.286 205.792 103 205.792 103Z" fill="#EBEBEB"/>
<path d="M208.958 100.77C208.958 100.77 207.421 101.427 206.988 100.586C206.554 99.746 210.642 94.6948 216.165 96.1476C216.165 96.1476 216.312 100.461 213.338 102.16C210.364 103.859 208.958 100.77 208.958 100.77Z" fill="#EBEBEB"/>
<path d="M200.91 115.11C200.91 115.11 202.084 114.27 200.814 113.863C199.544 113.456 193.33 113.568 193.254 119.03C193.254 119.03 200.491 120.094 201.388 118.016C202.286 115.937 200.91 115.11 200.91 115.11Z" fill="#EBEBEB"/>
<path d="M215.671 102.853C215.671 102.853 214.497 102.013 215.762 101.602C217.027 101.19 223.247 101.311 223.322 106.769C223.322 106.769 216.08 107.837 215.188 105.759C214.295 103.68 215.671 102.853 215.671 102.853Z" fill="#EBEBEB"/>
<path d="M211.841 107.26C211.841 107.26 211.74 106.241 212.667 106.639C213.595 107.037 216.841 110.144 213.484 113.085C213.484 113.085 208.948 110.112 209.774 108.566C210.601 107.019 211.841 107.26 211.841 107.26Z" fill="#EBEBEB"/>
<path d="M199.856 108.718C199.856 108.718 200.562 107.904 199.534 107.801C198.506 107.699 193.899 108.789 194.998 112.871C194.998 112.871 200.607 112.495 200.849 110.801C201.091 109.107 199.856 108.718 199.856 108.718Z" fill="#EBEBEB"/>
<path d="M218.813 146.856H199.565L197.488 128.162H220.894L218.813 146.856Z" fill="#F0F0F0"/>
<path d="M221.922 126.098H196.459V130.224H221.922V126.098Z" fill="#E6E6E6"/>
<path d="M119.821 33.0166H68.5542V124.448H119.821V33.0166Z" fill="#FAFAFA"/>
<path d="M121.005 31.7734H67.3696V36.2614H121.005V31.7734Z" fill="#F0F0F0"/>
<path d="M121.005 36.7578H67.3696V39.0018H121.005V36.7578Z" fill="#F0F0F0"/>
<path d="M121.005 40.0879H67.3696V42.3319H121.005V40.0879Z" fill="#F0F0F0"/>
<path d="M121.005 43.418H67.3696V45.662H121.005V43.418Z" fill="#F0F0F0"/>
<path d="M121.005 46.748H67.3696V48.992H121.005V46.748Z" fill="#F0F0F0"/>
<path d="M121.005 50.0742H67.3696V52.3182H121.005V50.0742Z" fill="#F0F0F0"/>
<path d="M121.005 53.4043H67.3696V55.6483H121.005V53.4043Z" fill="#F0F0F0"/>
<path d="M121.005 56.7344H67.3696V58.9784H121.005V56.7344Z" fill="#F0F0F0"/>
<path d="M121.005 60.0645H67.3696V62.3084H121.005V60.0645Z" fill="#F0F0F0"/>
<path d="M121.005 63.3955H67.3696V65.6395H121.005V63.3955Z" fill="#F0F0F0"/>
<path d="M121.005 66.7256H67.3696V68.9696H121.005V66.7256Z" fill="#F0F0F0"/>
<path d="M121.005 70.0508H67.3696V72.2948H121.005V70.0508Z" fill="#F0F0F0"/>
<path d="M121.005 73.3809H67.3696V75.6248H121.005V73.3809Z" fill="#F0F0F0"/>
<path d="M121.005 76.7119H67.3696V78.9559H121.005V76.7119Z" fill="#F0F0F0"/>
<path d="M121.005 80.042H67.3696V82.286H121.005V80.042Z" fill="#F0F0F0"/>
<path d="M121.005 83.3721H67.3696V85.6161H121.005V83.3721Z" fill="#F0F0F0"/>
<path d="M121.005 86.6973H67.3696V88.9413H121.005V86.6973Z" fill="#F0F0F0"/>
<path d="M121.005 90.0283H67.3696V92.2723H121.005V90.0283Z" fill="#F0F0F0"/>
<path d="M121.005 93.3584H67.3696V95.6024H121.005V93.3584Z" fill="#F0F0F0"/>
<path d="M121.005 96.6885H67.3696V98.9325H121.005V96.6885Z" fill="#F0F0F0"/>
<path d="M121.005 100.019H67.3696V102.263H121.005V100.019Z" fill="#F0F0F0"/>
<path d="M121.005 103.349H67.3696V105.593H121.005V103.349Z" fill="#F0F0F0"/>
<path d="M121.005 106.675H67.3696V108.919H121.005V106.675Z" fill="#F0F0F0"/>
<path d="M121.005 110.005H67.3696V112.249H121.005V110.005Z" fill="#F0F0F0"/>
<path d="M121.005 113.335H67.3696V115.579H121.005V113.335Z" fill="#F0F0F0"/>
<path d="M121.005 116.665H67.3696V118.909H121.005V116.665Z" fill="#F0F0F0"/>
<path d="M121.005 119.995H67.3696V122.239H121.005V119.995Z" fill="#F0F0F0"/>
<path d="M121.005 123.321H67.3696V125.565H121.005V123.321Z" fill="#F0F0F0"/>
<path d="M183.445 33.0166H132.178V124.448H183.445V33.0166Z" fill="#FAFAFA"/>
<path d="M184.63 31.7734H130.994V36.2614H184.63V31.7734Z" fill="#F0F0F0"/>
<path d="M184.63 36.7578H130.994V37.1691H184.63V36.7578Z" fill="#F0F0F0"/>
<path d="M184.63 37.6963H130.994V38.1075H184.63V37.6963Z" fill="#F0F0F0"/>
<path d="M184.63 38.6309H130.994V39.0421H184.63V38.6309Z" fill="#F0F0F0"/>
<path d="M184.63 39.5693H130.994V39.9806H184.63V39.5693Z" fill="#F0F0F0"/>
<path d="M184.63 40.5039H130.994V40.9152H184.63V40.5039Z" fill="#F0F0F0"/>
<path d="M184.63 41.4424H130.994V41.8536H184.63V41.4424Z" fill="#F0F0F0"/>
<path d="M184.63 42.377H130.994V42.7882H184.63V42.377Z" fill="#F0F0F0"/>
<path d="M184.63 43.3154H130.994V43.7267H184.63V43.3154Z" fill="#F0F0F0"/>
<path d="M184.63 44.2539H130.994V44.6652H184.63V44.2539Z" fill="#F0F0F0"/>
<path d="M184.63 45.1885H130.994V45.5997H184.63V45.1885Z" fill="#F0F0F0"/>
<path d="M184.63 46.127H130.994V46.5382H184.63V46.127Z" fill="#F0F0F0"/>
<path d="M184.63 47.0615H130.994V47.4728H184.63V47.0615Z" fill="#F0F0F0"/>
<path d="M184.63 48H130.994V48.4113H184.63V48Z" fill="#F0F0F0"/>
<path d="M184.63 48.9346H130.994V49.3458H184.63V48.9346Z" fill="#F0F0F0"/>
<path d="M184.63 49.873H130.994V50.2843H184.63V49.873Z" fill="#F0F0F0"/>
<path d="M184.63 50.8115H130.994V51.2228H184.63V50.8115Z" fill="#F0F0F0"/>
<path d="M184.63 51.7461H130.994V52.1573H184.63V51.7461Z" fill="#F0F0F0"/>
<path d="M184.63 52.6846H130.994V53.0958H184.63V52.6846Z" fill="#F0F0F0"/>
<path d="M133.553 20.0293C134.229 16.3326 131.399 12.8493 127.231 12.2492C123.063 11.6492 119.135 14.1595 118.459 17.8563C117.782 21.553 120.613 25.0363 124.781 25.6363C128.949 26.2364 132.876 23.726 133.553 20.0293Z" fill="#F0F0F0"/>
<path d="M132.424 19.8669C132.999 16.7233 130.592 13.7613 127.048 13.251C123.504 12.7407 120.164 14.8754 119.589 18.019C119.013 21.1626 121.42 24.1246 124.964 24.6349C128.509 25.1451 131.848 23.0104 132.424 19.8669Z" fill="#FAFAFA"/>
<path d="M125.693 14.9834V19.0154L122.684 17.5045" fill="#F0F0F0"/>
<path d="M125.693 14.9834V19.0154L122.684 17.5045" stroke="#E0E0E0" stroke-width="2" stroke-linecap="round" stroke-linejoin="round"/>
<path d="M125.999 167.026C179.969 167.026 223.72 164.76 223.72 161.965C223.72 159.171 179.969 156.905 125.999 156.905C72.0298 156.905 28.2788 159.171 28.2788 161.965C28.2788 164.76 72.0298 167.026 125.999 167.026Z" fill="#F5F5F5"/>
<path opacity="0.5" d="M220.994 44.6338H128.903C127.887 44.6338 127.063 45.3643 127.063 46.2654V135.426C127.063 136.327 127.887 137.058 128.903 137.058H220.994C222.01 137.058 222.834 136.327 222.834 135.426V46.2654C222.834 45.3643 222.01 44.6338 220.994 44.6338Z" fill="#407BFF"/>
<path d="M217.97 42.8457H125.879C124.863 42.8457 124.039 43.5762 124.039 44.4773V133.638C124.039 134.539 124.863 135.27 125.879 135.27H217.97C218.986 135.27 219.809 134.539 219.809 133.638V44.4773C219.809 43.5762 218.986 42.8457 217.97 42.8457Z" fill="#407BFF"/>
<path opacity="0.8" d="M217.97 42.8457H125.879C124.863 42.8457 124.039 43.5762 124.039 44.4773V133.638C124.039 134.539 124.863 135.27 125.879 135.27H217.97C218.986 135.27 219.809 134.539 219.809 133.638V44.4773C219.809 43.5762 218.986 42.8457 217.97 42.8457Z" fill="white"/>
<path opacity="0.5" d="M95.3053 42.4473H48.5745C47.5585 42.4473 46.7349 43.1778 46.7349 44.0789V119.829C46.7349 120.73 47.5585 121.461 48.5745 121.461H95.3053C96.3213 121.461 97.1449 120.73 97.1449 119.829V44.0789C97.1449 43.1778 96.3213 42.4473 95.3053 42.4473Z" fill="#407BFF"/>
<path d="M92.2819 39.7656H45.551C44.535 39.7656 43.7114 40.4961 43.7114 41.3972V117.148C43.7114 118.049 44.535 118.779 45.551 118.779H92.2819C93.2979 118.779 94.1215 118.049 94.1215 117.148V41.3972C94.1215 40.4961 93.2979 39.7656 92.2819 39.7656Z" fill="#407BFF"/>
<path opacity="0.8" d="M92.2819 39.7656H45.551C44.535 39.7656 43.7114 40.4961 43.7114 41.3972V117.148C43.7114 118.049 44.535 118.779 45.551 118.779H92.2819C93.2979 118.779 94.1215 118.049 94.1215 117.148V41.3972C94.1215 40.4961 93.2979 39.7656 92.2819 39.7656Z" fill="white"/>
<path d="M218.272 16.7178H45.6518C44.5802 16.7178 43.7114 17.4883 43.7114 18.4388V25.3943C43.7114 26.3447 44.5802 27.1152 45.6518 27.1152H218.272C219.343 27.1152 220.212 26.3447 220.212 25.3943V18.4388C220.212 17.4883 219.343 16.7178 218.272 16.7178Z" fill="#407BFF"/>
<path opacity="0.6" d="M202.3 21.9161C202.295 22.3121 202.158 22.698 201.906 23.0251C201.654 23.3522 201.299 23.6059 200.885 23.7544C200.472 23.9029 200.017 23.9395 199.58 23.8595C199.143 23.7796 198.742 23.5867 198.428 23.3051C198.114 23.0236 197.901 22.6659 197.816 22.2772C197.73 21.8885 197.777 21.4861 197.949 21.1206C198.121 20.7552 198.411 20.443 198.782 20.2235C199.154 20.0039 199.59 19.8867 200.037 19.8867C200.336 19.8879 200.631 19.9413 200.907 20.044C201.183 20.1467 201.433 20.2966 201.643 20.4851C201.853 20.6736 202.019 20.897 202.132 21.1426C202.245 21.3882 202.302 21.651 202.3 21.9161Z" fill="white"/>
<path opacity="0.6" d="M209.375 21.9161C209.37 22.3121 209.233 22.698 208.982 23.0251C208.73 23.3522 208.375 23.6059 207.961 23.7544C207.547 23.9029 207.093 23.9395 206.656 23.8595C206.218 23.7796 205.818 23.5867 205.504 23.3051C205.19 23.0236 204.977 22.6659 204.891 22.2772C204.806 21.8885 204.852 21.4861 205.024 21.1206C205.196 20.7552 205.486 20.443 205.858 20.2235C206.229 20.0039 206.666 19.8867 207.112 19.8867C207.411 19.8879 207.707 19.9413 207.983 20.044C208.258 20.1467 208.508 20.2966 208.719 20.4851C208.929 20.6736 209.095 20.897 209.208 21.1426C209.32 21.3882 209.377 21.651 209.375 21.9161Z" fill="white"/>
<path opacity="0.6" d="M216.448 21.9162C216.443 22.3127 216.306 22.6991 216.053 23.0265C215.801 23.3539 215.445 23.6076 215.03 23.7557C214.616 23.9038 214.161 23.9396 213.723 23.8585C213.285 23.7775 212.884 23.5832 212.571 23.3003C212.258 23.0174 212.046 22.6585 211.962 22.269C211.879 21.8794 211.927 21.4766 212.101 21.1114C212.276 20.7462 212.568 20.435 212.942 20.217C213.315 19.9991 213.753 19.8841 214.2 19.8868C214.801 19.8927 215.375 20.1095 215.797 20.4898C216.218 20.8702 216.452 21.383 216.448 21.9162Z" fill="white"/>
<path opacity="0.6" d="M53.6409 19.3057H47.8247V24.5223H53.6409V19.3057Z" fill="white"/>
<path d="M90.9764 52.3584H36.625V61.5802H90.9764V52.3584Z" fill="#407BFF"/>
<path opacity="0.2" d="M90.9764 52.3584H36.625V61.5802H90.9764V52.3584Z" fill="black"/>
<path d="M44.4474 55.0449H40.1079V58.8937H44.4474V55.0449Z" fill="white"/>
<path d="M41.0557 56.9803L41.8671 57.9011L43.5001 56.0371" stroke="#407BFF" stroke-width="1.5" stroke-linecap="round" stroke-linejoin="round"/>
<path d="M88.1137 59.1302H83.749V56.5108H88.1137V59.1302ZM85.9313 54.5752C85.4403 54.5752 84.9693 54.7479 84.6216 55.0554C84.274 55.363 84.078 55.7802 84.0766 56.2157H84.5806C84.6016 55.9112 84.7528 55.6253 85.0033 55.4163C85.2539 55.2073 85.5849 55.0909 85.9288 55.0909C86.2728 55.0909 86.6038 55.2073 86.8543 55.4163C87.1048 55.6253 87.256 55.9112 87.277 56.2157H87.781C87.7797 55.781 87.5844 55.3644 87.2378 55.057C86.8912 54.7496 86.4215 54.5764 85.9313 54.5752Z" fill="#407BFF"/>
<path d="M82.9876 69.4072H28.6362V78.6291H82.9876V69.4072Z" fill="#407BFF"/>
<path opacity="0.4" d="M82.9876 69.4072H28.6362V78.6291H82.9876V69.4072Z" fill="white"/>
<path d="M36.4586 72.0898H32.1191V75.9386H36.4586V72.0898Z" fill="white"/>
<path d="M80.1259 73.5605H75.7612V76.1756H80.1259V73.5605Z" fill="white"/>
<path d="M79.7926 73.2743H79.2886C79.2886 72.9578 79.1468 72.6542 78.8945 72.4304C78.6421 72.2065 78.2998 72.0808 77.9429 72.0808C77.586 72.0808 77.2438 72.2065 76.9914 72.4304C76.739 72.6542 76.5973 72.9578 76.5973 73.2743H76.0933C76.0933 72.8392 76.2881 72.4219 76.635 72.1143C76.9819 71.8066 77.4524 71.6338 77.9429 71.6338C78.4335 71.6338 78.904 71.8066 79.2509 72.1143C79.5977 72.4219 79.7926 72.8392 79.7926 73.2743Z" fill="white"/>
<path d="M91.2591 87.252H36.9077V96.4738H91.2591V87.252Z" fill="#407BFF"/>
<path opacity="0.4" d="M91.2591 87.252H36.9077V96.4738H91.2591V87.252Z" fill="white"/>
<path d="M44.7291 89.9385H40.3896V93.7872H44.7291V89.9385Z" fill="white"/>
<path d="M41.3374 91.8694L42.1488 92.7947L43.7818 90.9307" stroke="#407BFF" stroke-width="1.5" stroke-linecap="round" stroke-linejoin="round"/>
<g opacity="0.6">
<path d="M88.3959 91.4053H84.0312V94.0203H88.3959V91.4053Z" fill="white"/>
<path d="M88.0634 91.1233H87.5594C87.5706 90.9601 87.5441 90.7966 87.4814 90.6429C87.4188 90.4891 87.3213 90.3484 87.195 90.2293C87.0687 90.1102 86.9163 90.0154 86.7471 89.9505C86.5779 89.8856 86.3955 89.8522 86.2112 89.8522C86.0268 89.8522 85.8445 89.8856 85.6753 89.9505C85.5061 90.0154 85.3536 90.1102 85.2273 90.2293C85.101 90.3484 85.0036 90.4891 84.9409 90.6429C84.8782 90.7966 84.8517 90.9601 84.863 91.1233H84.359C84.3458 90.9004 84.384 90.6774 84.4712 90.468C84.5584 90.2585 84.6927 90.067 84.8659 89.9051C85.0392 89.7432 85.2479 89.6142 85.4791 89.5261C85.7104 89.438 85.9595 89.3926 86.2112 89.3926C86.4629 89.3926 86.7119 89.438 86.9432 89.5261C87.1745 89.6142 87.3831 89.7432 87.5564 89.9051C87.7297 90.067 87.864 90.2585 87.9511 90.468C88.0383 90.6774 88.0765 90.9004 88.0634 91.1233Z" fill="white"/>
</g>
<path d="M207.236 77.2031H164.794V101.686H207.236V77.2031Z" fill="#407BFF"/>
<path opacity="0.5" d="M207.236 77.2031H164.794V101.686H207.236V77.2031Z" fill="white"/>
<path d="M205.683 81.7891H166.346V100.456H205.683V81.7891Z" fill="#407BFF"/>
<path d="M198.646 84.5791H169.55V85.3837H198.646V84.5791Z" fill="white"/>
<path d="M183.511 87.042H169.55V87.8466H183.511V87.042Z" fill="white"/>
<path d="M187.135 89.5H169.55V90.3046H187.135V89.5Z" fill="white"/>
<path d="M175.749 91.959H169.55V92.7636H175.749V91.959Z" fill="white"/>
<path d="M173.562 94.418H169.55V95.2226H173.562V94.418Z" fill="white"/>
<path d="M208.45 125.481V139.132C208.451 139.502 208.301 139.859 208.029 140.139C207.757 140.419 207.38 140.603 206.968 140.657C206.881 140.663 206.793 140.663 206.706 140.657H186.934C186.473 140.657 186.031 140.494 185.705 140.205C185.379 139.916 185.195 139.523 185.195 139.114V125.481C185.194 125.247 185.254 125.015 185.372 124.806C185.514 124.545 185.735 124.325 186.012 124.171C186.288 124.017 186.608 123.935 186.934 123.934H194.686C195.048 123.929 195.399 123.826 195.694 123.639C195.99 123.447 196.212 123.179 196.329 122.87C196.443 122.56 196.664 122.289 196.962 122.097C197.26 121.905 197.619 121.802 197.987 121.802H202.105C202.473 121.801 202.832 121.904 203.13 122.096C203.428 122.288 203.65 122.559 203.763 122.87C203.877 123.18 204.1 123.449 204.397 123.64C204.695 123.832 205.053 123.934 205.421 123.934H206.686C206.917 123.932 207.146 123.97 207.359 124.047C207.573 124.123 207.768 124.237 207.932 124.381C208.096 124.524 208.226 124.696 208.315 124.885C208.404 125.073 208.45 125.276 208.45 125.481Z" fill="#407BFF"/>
<path opacity="0.3" d="M206.968 126.124V140.657H186.934C186.473 140.657 186.031 140.494 185.705 140.205C185.379 139.916 185.195 139.523 185.195 139.114V125.481C185.194 125.247 185.254 125.015 185.372 124.806H205.481C205.874 124.811 206.248 124.952 206.525 125.198C206.803 125.444 206.962 125.776 206.968 126.124Z" fill="white"/>
<path d="M161.265 105.387V122.458L157.505 125.793H143.716V105.387H161.265Z" fill="#407BFF"/>
<path opacity="0.4" d="M161.265 105.387V122.458L157.505 125.793H143.716V105.387H161.265Z" fill="white"/>
<path d="M161.266 122.459H157.506V125.794L161.266 122.459Z" fill="#407BFF"/>
<path d="M159.138 108.852H145.903V109.491H159.138V108.852Z" fill="#407BFF"/>
<path d="M157.036 110.813H145.903V111.453H157.036V110.813Z" fill="#407BFF"/>
<path d="M159.138 112.771H145.903V113.411H159.138V112.771Z" fill="#407BFF"/>
<path d="M150.842 114.734H145.903V115.374H150.842V114.734Z" fill="#407BFF"/>
<path d="M149.103 116.696H145.903V117.336H149.103V116.696Z" fill="#407BFF"/>
<path d="M173.093 40.2266H137.213V66.5197H173.093V40.2266Z" fill="#407BFF"/>
<path opacity="0.6" d="M137.213 40.2266V66.5197H173.093V40.2266H137.213ZM171.923 65.4827H138.387V41.2636H171.923V65.4827Z" fill="white"/>
<path opacity="0.3" d="M138.387 58.3034L148.668 51.6787L156.309 58.3034L163.95 54.4323L171.923 58.7862V65.4824H138.387V58.3034Z" fill="white"/>
<path opacity="0.6" d="M162.61 47.24C162.609 47.6704 162.464 48.0908 162.194 48.4482C161.924 48.8056 161.54 49.084 161.091 49.248C160.643 49.4121 160.15 49.4546 159.674 49.3701C159.198 49.2856 158.761 49.0779 158.418 48.7733C158.076 48.4687 157.842 48.0808 157.748 47.6586C157.654 47.2364 157.703 46.7989 157.888 46.4014C158.074 46.0039 158.389 45.6642 158.793 45.4252C159.196 45.1862 159.67 45.0586 160.156 45.0586C160.478 45.0586 160.798 45.115 161.096 45.2247C161.394 45.3344 161.665 45.4952 161.893 45.6978C162.121 45.9004 162.302 46.1409 162.425 46.4056C162.548 46.6702 162.611 46.9537 162.61 47.24Z" fill="white"/>
<path d="M175.437 67.6104V68.5044H174.429" stroke="#263238" stroke-miterlimit="10"/>
<path d="M172.845 68.5088H136.759" stroke="#263238" stroke-miterlimit="10" stroke-dasharray="4.18 3.14"/>
<path d="M135.968 68.5044H134.96V67.6104" stroke="#263238" stroke-miterlimit="10"/>
<path d="M134.96 66.318V39.8281" stroke="#263238" stroke-miterlimit="10" stroke-dasharray="3.85 2.89"/>
<path d="M134.96 39.1802V38.2861H135.968" stroke="#263238" stroke-miterlimit="10"/>
<path d="M137.55 38.2861H173.637" stroke="#263238" stroke-miterlimit="10" stroke-dasharray="4.18 3.14"/>
<path d="M174.429 38.2861H175.437V39.1802" stroke="#263238" stroke-miterlimit="10"/>
<path d="M175.437 40.4727V66.967" stroke="#263238" stroke-miterlimit="10" stroke-dasharray="3.85 2.89"/>
<path d="M176.228 37.5801H174.64V38.9882H176.228V37.5801Z" fill="#263238"/>
<path d="M176.228 67.8027H174.64V69.2108H176.228V67.8027Z" fill="#263238"/>
<path d="M135.752 67.8027H134.164V69.2108H135.752V67.8027Z" fill="#263238"/>
<path d="M135.752 37.5801H134.164V38.9882H135.752V37.5801Z" fill="#263238"/>
<path d="M155.947 37.5801H154.359V38.9882H155.947V37.5801Z" fill="#263238"/>
<path d="M155.992 67.8027H154.405V69.2108H155.992V67.8027Z" fill="#263238"/>
<path d="M176.228 52.6934H174.64V54.1014H176.228V52.6934Z" fill="#263238"/>
<path d="M135.752 52.6934H134.164V54.1014H135.752V52.6934Z" fill="#263238"/>
<path d="M88.1998 81.6729L82.8373 85.535C82.8373 85.535 81.5269 85.5574 81.1136 85.9418C80.7003 86.3262 79.0976 89.1826 79.3446 89.5715C79.5915 89.9604 82.2123 90.7293 82.7718 90.2689C83.3312 89.8084 84.2838 87.1666 84.2838 86.885L91.1382 82.8083L88.1998 81.6729Z" fill="#EBB376"/>
<path d="M85.3174 83.4564L86.5169 85.7764C86.5169 85.7764 93.8904 82.7368 95.4881 80.9487C95.8963 80.5017 96.4608 79.7552 97.0707 78.9193C98.0787 77.538 99.2076 75.8751 99.9939 74.7084C100.579 73.8368 100.972 73.2423 100.972 73.2423L96.7985 67.4043C95.8863 68.0256 93.0941 78.0029 92.5951 78.5393C92.0962 79.0757 85.3174 83.4564 85.3174 83.4564Z" fill="#407BFF"/>
<mask id="mask0_0_4604" style="mask-type:luminance" maskUnits="userSpaceOnUse" x="85" y="67" width="16" height="19">
<path d="M85.3169 83.4564L86.5164 85.7764C86.5164 85.7764 93.8899 82.7368 95.4876 80.9487C95.8959 80.5017 96.4603 79.7552 97.0702 78.9193C98.0782 77.538 99.2071 75.8751 99.9934 74.7084C100.578 73.8368 100.971 73.2423 100.971 73.2423L96.798 67.4043C95.8858 68.0256 93.0936 78.0029 92.5947 78.5393C92.0957 79.0757 85.3169 83.4564 85.3169 83.4564Z" fill="white"/>
</mask>
<g mask="url(#mask0_0_4604)">
<path opacity="0.1" d="M97.0708 78.9018C98.0788 77.5205 99.2077 75.8576 99.994 74.6909L98.0536 70.4443C98.0536 70.4443 97.0002 75.3168 97.0708 78.9018Z" fill="black"/>
</g>
<path d="M131.065 59.604L136.347 55.9654C136.347 55.9654 136.776 54.8657 137.315 54.6243C137.854 54.383 141.402 53.9315 141.75 54.2399C142.098 54.5484 142.113 57.0203 141.448 57.369C140.783 57.7177 137.653 57.7087 137.355 57.6059L131.585 61.3429L131.065 59.604Z" fill="#EBB376"/>
<path d="M86.4512 159.623L89.6113 160.119L90.9116 156.293L92.0909 152.779L88.447 151.648L87.3886 155.868L86.4512 159.623Z" fill="#EBB376"/>
<path opacity="0.2" d="M87.3687 155.957L90.8967 156.369L92.0861 152.819L88.4422 151.666L87.3687 155.957Z" fill="black"/>
<path d="M107.568 159.69H110.784L111.308 155.868L111.787 152.301L107.972 151.787L107.76 155.98L107.568 159.69Z" fill="#EBB376"/>
<path opacity="0.2" d="M107.761 156.23L111.309 156.092L111.788 152.413L107.972 151.841L107.761 156.23Z" fill="black"/>
<path d="M87.0713 152.886L92.2726 153.7C97.5192 142.104 101.254 132.422 103.865 124.389C105.286 120.053 106.41 116.2 107.262 112.767L107.04 125.395V153.874H112.286C125.133 99.7858 116.031 87.2114 116.031 87.2114L100.659 84.9316C100.05 87.456 99.6203 90.0121 99.3739 92.5845L98.6784 97.1037L92.6707 124.631L87.0713 152.886Z" fill="#263238"/>
<path d="M93.0894 153.132L86.6382 151.232L86.7239 153.669L92.0612 155.175L93.0894 153.132Z" fill="#407BFF"/>
<path opacity="0.6" d="M93.0894 153.132L86.6382 151.232L86.7239 153.669L92.0612 155.175L93.0894 153.132Z" fill="white"/>
<path d="M113.003 153.396L106.28 152.52L106.839 154.907L112.388 155.568L113.003 153.396Z" fill="#407BFF"/>
<path opacity="0.6" d="M113.003 153.396L106.28 152.52L106.839 154.907L112.388 155.568L113.003 153.396Z" fill="white"/>
<path opacity="0.2" d="M103.184 126.513C103.426 125.788 103.688 125.082 103.91 124.389C105.2 120.451 106.057 116.915 107.065 113.737L107.569 107.89C107.569 107.89 104.278 101.467 105.508 96.9473C105.397 97.2021 103.219 102.128 104.076 107.05C104.277 113.548 103.979 120.05 103.184 126.513Z" fill="black"/>
<path d="M102.741 61.5178C102.783 61.5445 102.829 61.5669 102.877 61.5849C103.519 61.9157 104.231 62.1285 104.968 62.2107C107.115 62.3984 108.496 61.9827 109.303 61.0395C110.422 59.6359 110.416 57.3785 109.842 54.7188C109.653 53.6565 109.275 52.6275 108.723 51.6702C108.723 51.6702 108.723 51.6299 108.723 51.621C108.723 51.6121 108.678 51.545 108.652 51.5137C108.315 50.9764 107.831 50.5226 107.244 50.1939C106.658 49.8651 105.988 49.6719 105.296 49.6318C104.693 49.5829 104.086 49.5933 103.486 49.6631C97.5796 50.2844 97.7762 59.0459 102.741 61.5178Z" fill="#EBB376"/>
<path opacity="0.2" d="M102.876 61.5845C103.521 61.8919 104.229 62.0805 104.957 62.1388C107.105 62.3265 108.485 61.8482 109.282 60.8916C108.077 61.3095 106.751 61.366 105.507 61.0525C105.052 60.9579 104.578 60.9566 104.122 61.0488C103.666 61.141 103.24 61.3242 102.876 61.5845Z" fill="black"/>
<path d="M102.433 65.863C101.904 67.3202 104.016 68.1204 104.016 68.1204C107.73 67.0788 108.577 65.4383 108.577 65.4383C105.755 63.8023 107.065 59.9893 107.065 59.9893L106.43 60.1994L102.101 60.5659C102.101 60.5659 103.058 62.6758 103.164 63.1452C103.683 65.635 102.433 65.863 102.433 65.863Z" fill="#EBB376"/>
<path d="M108.727 51.634C108.727 51.634 109.589 55.2593 105.905 57.2842C105.905 57.2842 104.786 61.2805 102.317 61.6202C98.9549 62.0673 95.3613 58.1693 95.8905 53.6992C96.581 47.906 106.117 46.3414 108.727 51.634Z" fill="#263238"/>
<path d="M107.735 56.0018C107.649 55.4296 106.989 54.5312 106.006 54.777C105.023 55.0229 104.751 57.3652 107.372 57.5753C107.745 57.6066 107.911 57.1953 107.735 56.0018Z" fill="#EBB376"/>
<path d="M111.122 159.176H107.539C107.464 159.175 107.391 159.197 107.333 159.239C107.275 159.281 107.235 159.339 107.221 159.404L106.485 162.35C106.47 162.413 106.469 162.478 106.481 162.541C106.494 162.604 106.521 162.665 106.561 162.719C106.6 162.773 106.651 162.819 106.711 162.856C106.771 162.892 106.838 162.918 106.909 162.931C106.949 162.935 106.99 162.935 107.03 162.931C108.496 162.931 108.617 162.833 110.457 162.833C111.591 162.833 115.018 162.936 116.586 162.936C118.153 162.936 118.355 161.563 117.715 161.438C114.837 160.879 112.675 160.097 111.752 159.377C111.579 159.242 111.353 159.17 111.122 159.176Z" fill="#263238"/>
<path d="M111.384 159.623C111.366 159.62 111.35 159.612 111.338 159.6C111.327 159.588 111.32 159.572 111.319 159.556C111.316 159.541 111.319 159.526 111.326 159.513C111.333 159.499 111.345 159.488 111.359 159.48C111.495 159.404 112.7 158.747 113.113 158.939C113.16 158.959 113.199 158.99 113.226 159.029C113.253 159.068 113.266 159.113 113.264 159.158C113.278 159.237 113.268 159.317 113.235 159.391C113.202 159.465 113.148 159.53 113.078 159.579C112.869 159.708 112.616 159.768 112.362 159.748C112.032 159.74 111.704 159.698 111.384 159.623ZM111.641 159.516C112.077 159.645 112.552 159.624 112.972 159.458C113.016 159.423 113.049 159.379 113.069 159.33C113.089 159.281 113.096 159.228 113.088 159.176C113.088 159.109 113.058 159.082 113.032 159.082C112.997 159.066 112.957 159.058 112.916 159.06C112.462 159.134 112.028 159.285 111.636 159.503L111.641 159.516Z" fill="#407BFF"/>
<path d="M111.353 159.623C111.34 159.615 111.33 159.604 111.323 159.592C111.315 159.579 111.312 159.565 111.313 159.551C111.313 159.506 111.409 158.554 111.817 158.241C111.868 158.202 111.929 158.173 111.994 158.156C112.059 158.139 112.128 158.134 112.195 158.143C112.262 158.142 112.327 158.162 112.379 158.2C112.431 158.238 112.465 158.29 112.477 158.349C112.558 158.697 111.812 159.426 111.424 159.609H111.384C111.375 159.615 111.364 159.62 111.353 159.623ZM111.953 158.335C111.689 158.633 111.535 158.994 111.51 159.372C111.898 159.113 112.372 158.563 112.326 158.349C112.326 158.326 112.326 158.268 112.195 158.268H112.155C112.08 158.269 112.008 158.294 111.953 158.34V158.335Z" fill="#407BFF"/>
<path d="M89.7371 159.176H86.1486C86.0744 159.177 86.0026 159.199 85.9449 159.241C85.8872 159.282 85.8471 159.34 85.8311 159.404L85.0953 162.35C85.0797 162.413 85.0784 162.478 85.0913 162.541C85.1042 162.604 85.1311 162.665 85.1705 162.719C85.2098 162.773 85.2608 162.819 85.3206 162.856C85.3804 162.892 85.4477 162.918 85.5186 162.931C85.5588 162.935 85.5994 162.935 85.6396 162.931C87.1113 162.931 87.2272 162.833 89.0718 162.833C90.2058 162.833 93.6078 162.936 95.1954 162.936C96.783 162.936 96.9695 161.563 96.3294 161.438C93.4516 160.879 91.2894 160.097 90.3621 159.377C90.1905 159.242 89.9668 159.17 89.7371 159.176Z" fill="#263238"/>
<path d="M89.9891 159.623C89.9713 159.62 89.9551 159.612 89.9432 159.6C89.9313 159.588 89.9244 159.572 89.9236 159.556C89.9223 159.541 89.9259 159.526 89.9339 159.512C89.9419 159.499 89.9541 159.488 89.969 159.48C90.1 159.404 91.3046 158.747 91.7229 158.939C91.7684 158.96 91.8066 158.991 91.8333 159.03C91.86 159.069 91.8741 159.113 91.8741 159.158C91.8879 159.237 91.8778 159.317 91.8451 159.391C91.8123 159.465 91.7579 159.53 91.6876 159.579C91.4782 159.707 91.2254 159.767 90.9719 159.748C90.64 159.74 90.3102 159.698 89.9891 159.623ZM90.2462 159.516C90.6823 159.645 91.157 159.624 91.5767 159.458C91.6209 159.423 91.655 159.379 91.6761 159.33C91.6971 159.281 91.7045 159.228 91.6977 159.176C91.6977 159.109 91.6624 159.082 91.6372 159.082C91.6034 159.066 91.5649 159.058 91.5263 159.06C91.0723 159.136 90.6381 159.286 90.2462 159.503V159.516Z" fill="#407BFF"/>
<path d="M89.9688 159.623C89.9544 159.616 89.9424 159.606 89.9343 159.593C89.9263 159.581 89.9225 159.566 89.9235 159.552C89.9235 159.507 90.0192 158.555 90.4527 158.242C90.5027 158.202 90.5622 158.172 90.6267 158.155C90.6912 158.138 90.7591 158.134 90.8256 158.143C90.8931 158.142 90.9589 158.162 91.0114 158.2C91.064 158.238 91.0999 158.29 91.1129 158.349C91.1885 158.698 90.4426 159.426 90.0596 159.61H90.0142L89.9688 159.623ZM90.5636 158.336C90.3012 158.633 90.1481 158.995 90.1251 159.373C90.5081 159.113 90.9819 158.564 90.9365 158.349C90.9365 158.327 90.9365 158.269 90.8105 158.269H90.7652C90.6902 158.269 90.6182 158.295 90.5636 158.34V158.336Z" fill="#407BFF"/>
<path d="M116.056 87.27C116.056 87.27 118.989 71.4234 113.949 64.3204C113.949 64.3204 103.869 63.7661 96.8135 67.3914C96.8135 67.3914 99.7367 74.4452 100.175 87.27H116.056Z" fill="#407BFF"/>
<mask id="mask1_0_4604" style="mask-type:luminance" maskUnits="userSpaceOnUse" x="96" y="64" width="21" height="24">
<path d="M116.056 87.27C116.056 87.27 118.989 71.4234 113.949 64.3204C113.949 64.3204 103.869 63.7661 96.813 67.3914C96.813 67.3914 99.7362 74.4452 100.175 87.27H116.056Z" fill="white"/>
</mask>
<g mask="url(#mask1_0_4604)">
<path opacity="0.1" d="M116.973 75.1378C117.189 72.9877 116.469 70.918 116.368 69.0942C115.107 68.1071 113.993 66.9821 113.051 65.7461C113.051 65.7461 112.139 72.1696 116.973 75.1378Z" fill="black"/>
</g>
<path d="M112.699 64.2893C112.699 64.2893 122.673 63.2523 124.175 62.6935C125.113 62.3448 132.446 58.0938 132.446 58.0938L134.165 60.3869C134.165 60.3869 126.665 65.751 125.395 66.3769C122.421 67.8252 115.738 69.8725 115.738 69.8725C115.738 69.8725 111.701 67.3603 112.699 64.2893Z" fill="#407BFF"/>
<path d="M108.576 54.0346C108.576 54.0346 112.724 50.3557 108.813 47.8793C104.902 45.4028 100.971 48.6347 100.971 48.6347C100.971 48.6347 91.6167 50.6373 93.6075 56.1579C95.5983 61.6785 96.8986 62.1434 93.9351 64.9729C90.9716 67.8025 87.9476 72.0089 90.9766 74.691C94.0056 77.373 104.585 74.615 107.805 70.5695C111.026 66.5241 105.336 57.8297 108.576 54.0346Z" fill="#263238"/>
<path d="M100.165 87.2695L100.1 85.7676L116.238 86.1297V87.5199L100.165 87.2695Z" fill="black"/>
<path d="M105.28 85.8711H104.63V87.3507H105.28V85.8711Z" fill="#263238"/>
<path d="M112.73 86.0361H112.155V87.6543H112.73V86.0361Z" fill="#263238"/>
<path d="M101.092 85.79H100.543V87.52H101.092V85.79Z" fill="#263238"/>
</svg>
