<svg width="69" height="69" viewBox="0 0 69 69" fill="none" xmlns="http://www.w3.org/2000/svg">
<path d="M68.7518 52.831L62.6085 45.1055V12.6158C62.6085 11.0442 61.334 9.76959 59.7624 9.76959H9.23764C7.66601 9.76959 6.39261 11.0442 6.39261 12.6158V45.1054L0.248104 52.831C0.0874629 53.0325 0 53.2818 0 53.5404V56.9598C0 58.2146 1.01721 59.2305 2.2708 59.2305H66.7292C67.9828 59.2305 69 58.2146 69 56.9598V53.5404C69 53.2818 68.9125 53.0325 68.7518 52.831ZM10.4074 13.7856H58.5925V41.0897H10.4074V13.7856ZM40.9852 56.53H28.0148V53.0965H40.9852V56.53Z" fill="white"/>
<path d="M39.2911 25.1088C39.2911 23.79 38.7529 22.5841 37.8873 21.7208C37.024 20.8564 35.8193 20.3171 34.4993 20.318C33.1805 20.3169 31.9746 20.8562 31.1125 21.7208C30.2481 22.5842 29.7086 23.79 29.7086 25.1088V26.7944H28.1626V32.6406C28.1626 34.3347 29.5363 35.7059 31.2301 35.7059H37.7707C39.4635 35.7059 40.8372 34.3347 40.8372 32.6406V26.7944H39.2911V25.1088ZM32.0341 25.1088C32.0341 24.7651 32.1041 24.4434 32.2275 24.1487C32.414 23.7083 32.7285 23.3285 33.1222 23.0628C33.5172 22.7959 33.9855 22.6434 34.4993 22.6423C34.8429 22.6423 35.1645 22.7121 35.4593 22.8357C35.9008 23.0221 36.2795 23.3366 36.5453 23.7316C36.8108 24.1242 36.9647 24.5925 36.9658 25.1086V26.7943H32.0341V25.1088Z" fill="white"/>
</svg>
