<svg width="73" height="73" viewBox="0 0 73 73" fill="none" xmlns="http://www.w3.org/2000/svg">
<path d="M20.8572 26.7232C20.8572 25.6433 21.7326 24.7679 22.8125 24.7679H48.884C49.9638 24.7679 50.8393 25.6433 50.8393 26.7232C50.8393 27.8031 49.9638 28.6786 48.884 28.6786H22.8125C21.7326 28.6786 20.8572 27.8031 20.8572 26.7232Z" fill="white"/>
<path d="M20.8572 38.4554C20.8572 37.3755 21.7326 36.5 22.8125 36.5H48.884C49.9638 36.5 50.8393 37.3755 50.8393 38.4554C50.8393 39.5352 49.9638 40.4107 48.884 40.4107H22.8125C21.7326 40.4107 20.8572 39.5352 20.8572 38.4554Z" fill="white"/>
<path d="M22.8125 48.2321C21.7326 48.2321 20.8572 49.1076 20.8572 50.1875C20.8572 51.2674 21.7326 52.1428 22.8125 52.1428H34.5447C35.6246 52.1428 36.5 51.2674 36.5 50.1875C36.5 49.1076 35.6246 48.2321 34.5447 48.2321H22.8125Z" fill="white"/>
<path d="M36.5 5.21429C37.5799 5.21429 38.4554 6.08975 38.4554 7.16965V10.4286H48.2322V7.16965C48.2322 6.08975 49.1077 5.21429 50.1875 5.21429C51.2674 5.21429 52.1429 6.08975 52.1429 7.16965V10.4286H54.0983C57.3379 10.4286 59.9643 13.0549 59.9643 16.2947V50.1768C59.9643 50.6954 59.7584 51.1928 59.3915 51.5594L45.0416 65.9094C44.6747 66.2762 44.1773 66.4822 43.6587 66.4822H17.5982C14.3585 66.4822 11.7322 63.8557 11.7322 60.6161V16.2947C11.7322 13.0549 14.3585 10.4286 17.5982 10.4286H20.8572V7.16965C20.8572 6.08975 21.7326 5.21429 22.8125 5.21429C23.8924 5.21429 24.7679 6.08975 24.7679 7.16965V10.4286H34.5447V7.16965C34.5447 6.08975 35.4202 5.21429 36.5 5.21429ZM15.6429 16.2947V60.6161C15.6429 61.696 16.5183 62.5714 17.5982 62.5714H41.7034V54.0875C41.7034 50.8476 44.3298 48.2215 47.5694 48.2215H56.0536V16.2947C56.0536 15.2147 55.1781 14.3393 54.0983 14.3393H17.5982C16.5183 14.3393 15.6429 15.2147 15.6429 16.2947ZM46.0017 52.0004C44.9218 52.0004 46.0017 51.4206 46.0017 52.5004V52.0004Z" fill="white"/>
</svg>
