<svg width="72" height="66" viewBox="0 0 72 66" fill="none" xmlns="http://www.w3.org/2000/svg">
<path d="M67.6736 0H4.32676C1.94051 0 0 1.94106 0 4.32695V61.0819C0 63.4678 1.94051 65.4087 4.32676 65.4087H67.6738C70.0593 65.4087 71.9998 63.4678 71.9998 61.0819V4.32695C72.0004 1.94124 70.0591 0 67.6736 0ZM54.628 7.2658C54.628 6.38348 55.3432 5.66805 56.2253 5.66805H57.8231C58.7058 5.66805 59.4205 6.3833 59.4205 7.2658V9.07651C59.4205 9.95882 58.7052 10.6741 57.8231 10.6741H56.2253C55.3432 10.6741 54.628 9.95882 54.628 9.07651V7.2658ZM47.1988 7.2658C47.1988 6.38348 47.9144 5.66805 48.7965 5.66805H50.3939C51.276 5.66805 51.9917 6.3833 51.9917 7.2658V9.07651C51.9917 9.95882 51.276 10.6741 50.3939 10.6741H48.7965C47.9144 10.6741 47.1988 9.95882 47.1988 9.07651V7.2658ZM66.8076 60.2163H5.19219V15.4734H66.8076V60.2163ZM66.8497 9.07651C66.8497 9.95882 66.1344 10.6741 65.2523 10.6741H63.6545C62.7717 10.6741 62.057 9.95882 62.057 9.07651V7.2658C62.057 6.38348 62.7722 5.66805 63.6545 5.66805H65.2523C66.1346 5.66805 66.8497 6.3833 66.8497 7.2658V9.07651Z" fill="white"/>
<path d="M15.4551 39.5322L27.0365 44.9179C27.3359 45.0565 27.6546 45.1268 27.9842 45.1268C28.4134 45.1268 28.8318 45.0049 29.1955 44.7736C29.8467 44.3574 30.2357 43.6482 30.2357 42.8764V42.8173C30.2357 41.9449 29.7244 41.1437 28.9329 40.7762L21.6895 37.4106L28.9329 34.0448C29.7244 33.6769 30.2357 32.8759 30.2357 32.0038V31.9453C30.2357 31.1724 29.8467 30.4628 29.1955 30.0481C28.8355 29.8181 28.416 29.6964 27.9829 29.6964C27.6563 29.6964 27.3288 29.7681 27.0356 29.9044L15.4549 35.2895C14.6642 35.6574 14.1533 36.4588 14.1533 37.3304V37.4914C14.1531 38.3618 14.6637 39.1628 15.4551 39.5322Z" fill="white"/>
<path d="M30.339 50.5018C30.7614 51.0799 31.4408 51.4253 32.1565 51.4253H32.2145C33.197 51.4253 34.0579 50.7963 34.3573 49.8617L41.9862 26.2229C42.2051 25.5407 42.0837 24.7876 41.6611 24.2084C41.2387 23.6301 40.5592 23.285 39.8434 23.285H39.7856C38.8026 23.285 37.9409 23.9138 37.6415 24.8484L30.0118 48.489C29.7946 49.1721 29.9169 49.9241 30.339 50.5018Z" fill="white"/>
<path d="M41.7642 32.0037C41.7642 32.8748 42.2751 33.676 43.0667 34.0457L50.3101 37.4106L43.0667 40.7758C42.2754 41.1437 41.7642 41.9449 41.7642 42.8169V42.876C41.7642 43.648 42.1528 44.3572 42.8047 44.7736C43.1671 45.0045 43.5857 45.1268 44.0155 45.1268C44.3447 45.1268 44.6632 45.0565 44.9646 44.9171L56.5452 39.5316C57.336 39.1628 57.8469 38.3618 57.8469 37.4911V37.3301C57.8469 36.4584 57.336 35.657 56.5445 35.2891L44.9639 29.904C44.6718 29.7681 44.3446 29.6964 44.018 29.6964C43.5857 29.6964 43.1657 29.8177 42.8056 30.0474C42.1537 30.4628 41.7647 31.1722 41.7647 31.9451V32.0035H41.7642V32.0037Z" fill="white"/>
</svg>
