<svg width="24" height="29" viewBox="0 0 24 29" fill="none" xmlns="http://www.w3.org/2000/svg">
<path d="M14.3312 28.4805L24.0053 14.6839L14.4599 0.703241C14.3738 0.538545 14.2642 0.402348 14.1384 0.303871C14.0125 0.205393 13.8735 0.146935 13.7306 0.132452C13.5877 0.117969 13.4443 0.1478 13.3101 0.219926C13.1759 0.292052 13.0541 0.404788 12.9528 0.550503C12.8516 0.696218 12.7733 0.87151 12.7232 1.06451C12.6732 1.25751 12.6526 1.46372 12.6628 1.66916C12.673 1.87461 12.7138 2.07451 12.7824 2.25532C12.851 2.43613 12.9459 2.59363 13.0605 2.71716L20.2021 13.2096L1.0725 13.0266C0.807293 13.024 0.552245 13.1731 0.363464 13.4409C0.174684 13.7087 0.0676355 14.0734 0.06587 14.4547C0.0641045 14.836 0.167767 15.2028 0.35405 15.4742C0.540335 15.7456 0.79398 15.8995 1.05919 15.9021L20.1888 16.0851L12.9507 26.44C12.7624 26.7089 12.6562 27.0744 12.6554 27.4559C12.6546 27.8375 12.7592 28.2038 12.9462 28.4745C13.1333 28.7451 13.3875 28.8978 13.6528 28.899C13.9182 28.9002 14.173 28.7498 14.3612 28.4808L14.3312 28.4805Z" fill="white"/>
</svg>
