<svg width="79" height="57" viewBox="0 0 79 57" fill="none" xmlns="http://www.w3.org/2000/svg">
<rect x="0.884766" width="78" height="57" rx="5" fill="#DBB178"/>
<path fill-rule="evenodd" clip-rule="evenodd" d="M33.8291 10H46.9412C49.1191 10 50.8848 11.6954 50.8848 13.7818V41.2188C50.8848 43.3066 49.1191 45 46.9412 45H33.8291C31.6512 45 29.8848 43.3066 29.8848 41.2188V13.777C29.8848 11.6845 31.6476 10 33.8291 10ZM33.8041 28.6428C33.5298 28.6428 33.3069 28.4292 33.3069 28.1663C33.3069 27.9033 33.5298 27.6904 33.8041 27.6904H46.9655C47.2398 27.6904 47.4626 27.9033 47.4626 28.1663C47.4626 28.4292 47.2398 28.6428 46.9655 28.6428H33.8041ZM33.8041 31.249C33.5298 31.249 33.3069 31.0353 33.3069 30.7724C33.3069 30.5094 33.5298 30.2958 33.8041 30.2958H44.6291C44.9033 30.2958 45.1262 30.5094 45.1262 30.7724C45.1262 31.0353 44.9033 31.249 44.6291 31.249H33.8041ZM33.8041 36.4599C33.5298 36.4599 33.3069 36.2469 33.3069 35.984C33.3069 35.721 33.5298 35.5074 33.8041 35.5074H37.2619C37.5362 35.5074 37.7591 35.721 37.7591 35.984C37.7591 36.2469 37.5362 36.4599 37.2619 36.4599H33.8041ZM33.8041 33.8544C33.5298 33.8544 33.3069 33.6408 33.3069 33.3778C33.3069 33.1149 33.5298 32.9019 33.8041 32.9019H39.3041C39.5783 32.9019 39.8012 33.1149 39.8012 33.3778C39.8012 33.6408 39.5783 33.8544 39.3041 33.8544H33.8041ZM42.5698 36.4291C42.6112 36.4639 42.6451 36.5061 42.6695 36.5535C42.694 36.6009 42.7084 36.6524 42.712 36.7051C42.7157 36.7578 42.7085 36.8107 42.6908 36.8607C42.6731 36.9108 42.6454 36.957 42.6091 36.9967C42.5728 37.0365 42.5286 37.069 42.4792 37.0924C42.4298 37.1158 42.3761 37.1296 42.3211 37.1331C42.2661 37.1366 42.211 37.1297 42.1588 37.1127C42.1066 37.0958 42.0584 37.0692 42.0169 37.0344L40.6933 35.923C40.6519 35.8882 40.618 35.846 40.5935 35.7986C40.5691 35.7512 40.5547 35.6997 40.551 35.647C40.5474 35.5943 40.5546 35.5414 40.5723 35.4914C40.59 35.4413 40.6177 35.3951 40.6541 35.3554L40.6962 35.315L42.0169 34.2057C42.0584 34.1709 42.1067 34.1443 42.1589 34.1275C42.2111 34.1106 42.2663 34.1037 42.3213 34.1073C42.3763 34.1108 42.43 34.1247 42.4794 34.1482C42.5287 34.1717 42.5728 34.2042 42.6091 34.244C42.6822 34.3244 42.7192 34.4292 42.7118 34.5357C42.7044 34.6421 42.6534 34.7413 42.5698 34.8117L41.6062 35.6204L42.5698 36.4291ZM45.7455 37.0344C45.704 37.0692 45.6558 37.0958 45.6036 37.1128C45.5514 37.1297 45.4963 37.1367 45.4413 37.1332C45.3863 37.1297 45.3325 37.1158 45.2831 37.0924C45.2337 37.069 45.1896 37.0365 45.1533 36.9967C45.117 36.957 45.0892 36.9108 45.0716 36.8607C45.0539 36.8107 45.0467 36.7578 45.0503 36.7051C45.054 36.6524 45.0684 36.6009 45.0928 36.5535C45.1172 36.5061 45.1512 36.4639 45.1926 36.4291L46.1555 35.6204L45.1926 34.8117C45.1512 34.7769 45.1172 34.7346 45.0928 34.6873C45.0684 34.6399 45.054 34.5884 45.0503 34.5357C45.0467 34.483 45.0539 34.4301 45.0716 34.38C45.0892 34.33 45.117 34.2838 45.1533 34.244C45.3055 34.0763 45.5712 34.0598 45.7455 34.2057L47.0655 35.315L47.1083 35.3554C47.1446 35.3952 47.1723 35.4414 47.19 35.4915C47.2076 35.5415 47.2147 35.5944 47.211 35.6472C47.2073 35.6999 47.1928 35.7514 47.1683 35.7987C47.1438 35.846 47.1099 35.8883 47.0683 35.923L45.7455 37.0344ZM43.8048 33.9763C43.8569 33.7599 44.0833 33.625 44.3098 33.675C44.5355 33.7257 44.6769 33.9428 44.6241 34.1591L43.8676 37.2644C43.8421 37.3685 43.7746 37.4585 43.68 37.515C43.5853 37.5714 43.4712 37.5897 43.3626 37.5657C43.1362 37.5151 42.9955 37.298 43.0483 37.0816L43.8048 33.9763ZM46.1276 20.9182C46.0698 20.8799 46.0091 20.8662 45.9426 20.8772C45.8762 20.8888 45.8226 20.9217 45.7826 20.9764L45.5662 21.2709C45.4876 21.2387 45.4062 21.2134 45.3219 21.1921C45.2383 21.1709 45.1533 21.1552 45.0683 21.1428L44.9976 20.7573C44.9862 20.6923 44.9533 20.6416 44.8976 20.6039C44.8419 20.5663 44.7812 20.554 44.7133 20.5656L44.2076 20.6498C44.1433 20.6608 44.0912 20.6923 44.0505 20.7457C44.0105 20.7991 43.9969 20.858 44.0083 20.923L44.0726 21.2757C43.9919 21.3092 43.9141 21.3469 43.8405 21.3893C43.7662 21.4318 43.6976 21.4777 43.6326 21.527L43.2926 21.301C43.2383 21.2627 43.1783 21.2483 43.1112 21.2592C43.0448 21.2702 42.9926 21.3038 42.9519 21.3578L42.6598 21.7571C42.6198 21.8118 42.6055 21.8707 42.6169 21.9344C42.6291 21.9974 42.6633 22.0494 42.7205 22.0871L43.0276 22.2953C42.9941 22.3706 42.9676 22.448 42.9455 22.5288C42.9233 22.6096 42.9069 22.691 42.8941 22.7725L42.4919 22.8396C42.4241 22.8506 42.3705 22.8828 42.3319 22.9362C42.2926 22.9889 42.2798 23.0478 42.2912 23.1128L42.3798 23.597C42.3912 23.6593 42.4241 23.7093 42.4798 23.7483C42.5355 23.7859 42.5962 23.7996 42.6641 23.788L43.0326 23.7264C43.0676 23.8044 43.1069 23.8784 43.1512 23.9489C43.1955 24.0201 43.2441 24.0879 43.2955 24.153L43.0591 24.4748C43.0191 24.5268 43.0041 24.5837 43.0155 24.648C43.0269 24.7117 43.0619 24.7624 43.1183 24.8014L43.5355 25.0856C43.5919 25.1212 43.6533 25.1328 43.7191 25.1219C43.7855 25.1109 43.8398 25.0794 43.8798 25.0281L44.0962 24.7288C44.1741 24.7603 44.2555 24.7864 44.3398 24.8069C44.4241 24.8281 44.5083 24.8446 44.5933 24.8562L44.6641 25.2424C44.6755 25.3075 44.7091 25.3581 44.7641 25.3958C44.8198 25.4328 44.8812 25.4458 44.9491 25.4341L45.4541 25.3499C45.5191 25.3389 45.5712 25.3075 45.6112 25.254C45.6512 25.2006 45.6655 25.1417 45.6533 25.0767L45.5891 24.7234C45.6692 24.6911 45.7467 24.6533 45.8212 24.6104C45.8955 24.5672 45.9662 24.5214 46.0341 24.4714L46.3698 24.6987C46.4241 24.7371 46.4841 24.7514 46.5519 24.7398C46.6212 24.7282 46.6726 24.6953 46.7098 24.6419L47.0069 24.242C47.0441 24.1872 47.0562 24.129 47.0448 24.0653C47.0333 24.0016 47.0005 23.9503 46.9469 23.9113L46.6341 23.7045C46.6676 23.6291 46.6941 23.5511 46.7162 23.4703C46.7383 23.3902 46.7555 23.3087 46.7676 23.2272L47.1705 23.1601C47.2383 23.1485 47.2912 23.117 47.3305 23.0635C47.3691 23.0108 47.3826 22.9519 47.3705 22.8869L47.2826 22.4028C47.2712 22.3405 47.2383 22.2905 47.1826 22.2514C47.1269 22.2131 47.0655 22.2001 46.9976 22.211L46.6291 22.2727C46.5945 22.1972 46.5551 22.1238 46.5112 22.0529C46.4662 21.9803 46.4183 21.9132 46.3669 21.8515L46.6033 21.5249C46.6433 21.4729 46.6583 21.4154 46.6462 21.351C46.6348 21.288 46.5998 21.2373 46.5433 21.1983L46.1276 20.9182ZM44.6833 22.1891C44.7998 22.17 44.9133 22.1727 45.0248 22.1973C45.1355 22.2227 45.2362 22.2651 45.3255 22.3254C45.4148 22.3856 45.4905 22.4617 45.5533 22.5534C45.6148 22.6459 45.6562 22.7472 45.6762 22.8588C45.6969 22.9697 45.6941 23.0786 45.6683 23.1854C45.6419 23.2916 45.5969 23.3881 45.5348 23.4737C45.4702 23.5602 45.3893 23.6343 45.2962 23.6921C45.2005 23.7517 45.0948 23.7907 44.9783 23.8099C44.8626 23.8298 44.7491 23.827 44.6369 23.8024C44.5262 23.777 44.4262 23.7346 44.3362 23.6743C44.2469 23.6141 44.1712 23.5381 44.1091 23.4463C44.0469 23.3539 44.0055 23.2525 43.9855 23.1409C43.9655 23.03 43.9683 22.9211 43.9941 22.8143C44.0205 22.7075 44.0648 22.6116 44.1276 22.5253C44.1905 22.4404 44.2698 22.3678 44.3655 22.3076C44.4619 22.248 44.5676 22.209 44.6833 22.1891ZM40.8083 16.2805C40.7833 16.2565 40.7591 16.2394 40.7355 16.2305C40.7133 16.2216 40.6862 16.2168 40.6548 16.2168C40.6233 16.2168 40.5955 16.2216 40.5726 16.2305C40.5491 16.2401 40.5248 16.2565 40.5019 16.2784L40.0162 16.7427C39.9775 16.7793 39.9267 16.8018 39.8725 16.8062C39.8183 16.8106 39.7643 16.7966 39.7198 16.7666C39.6648 16.7331 39.6055 16.7002 39.5433 16.6674C39.4762 16.6331 39.4105 16.6016 39.3462 16.5735C39.2791 16.5434 39.2098 16.516 39.1419 16.4907C39.0798 16.4674 39.0083 16.4434 38.9319 16.4188C38.8854 16.4042 38.8449 16.3758 38.8161 16.3379C38.7874 16.2999 38.7719 16.2541 38.7719 16.2072V15.4964C38.7719 15.4649 38.7669 15.4376 38.7569 15.4136C38.746 15.3894 38.7303 15.3675 38.7105 15.3492C38.6913 15.3302 38.6685 15.3148 38.6433 15.304C38.6183 15.2951 38.5898 15.2903 38.5569 15.2903H37.6255C37.5955 15.2903 37.5691 15.2944 37.5469 15.3033C37.5219 15.3136 37.4969 15.3294 37.4733 15.352C37.4519 15.3718 37.4362 15.393 37.4269 15.4156C37.4169 15.4382 37.4119 15.4656 37.4119 15.4964V16.1476C37.4119 16.2572 37.3291 16.3483 37.2205 16.3667C37.1462 16.3839 37.0783 16.401 37.0176 16.4188C36.9491 16.4393 36.8798 16.4626 36.8119 16.4879L36.8005 16.4921C36.7383 16.5147 36.6755 16.5407 36.6112 16.5694L36.5998 16.5735C36.5376 16.6016 36.4783 16.6304 36.4212 16.6598C36.3298 16.7078 36.2191 16.6899 36.1483 16.6235L35.6069 16.112C35.5862 16.0908 35.5641 16.075 35.5419 16.0661C35.5205 16.0572 35.4948 16.0525 35.4648 16.0525C35.4348 16.0525 35.4076 16.0579 35.3848 16.0668C35.3591 16.0771 35.3341 16.0942 35.3098 16.1168L34.6598 16.742C34.6355 16.7653 34.6176 16.7886 34.6076 16.8118C34.5983 16.8337 34.5933 16.8598 34.5933 16.8899C34.5933 16.92 34.5983 16.9467 34.6076 16.9686C34.6183 16.9912 34.6348 17.0138 34.6576 17.0357L35.1419 17.5014C35.2226 17.5794 35.2312 17.6999 35.1669 17.7862C35.1319 17.8383 35.0976 17.8951 35.0641 17.9554C35.0276 18.0197 34.9948 18.0827 34.9655 18.1443C34.9035 18.2735 34.8499 18.4061 34.8048 18.5415C34.7895 18.586 34.7599 18.6248 34.7203 18.6522C34.6806 18.6796 34.6329 18.6943 34.5841 18.6942L33.8419 18.6949C33.8091 18.6949 33.7805 18.6997 33.7562 18.7093C33.7319 18.7182 33.7091 18.7332 33.6883 18.7531C33.6669 18.7736 33.6519 18.7949 33.6419 18.8181C33.6319 18.8421 33.6269 18.8695 33.6269 18.901V19.7939C33.6269 19.8227 33.6312 19.848 33.6405 19.8692C33.6512 19.8932 33.6683 19.9165 33.6912 19.9397C33.7126 19.9596 33.7348 19.9747 33.7576 19.9843C33.7812 19.9932 33.8098 19.9979 33.8419 19.9979H34.5212C34.6355 19.9979 34.7312 20.0774 34.7505 20.1821C34.7676 20.2527 34.7862 20.3177 34.8048 20.3766C34.8262 20.4423 34.8498 20.5081 34.8762 20.5731L34.8819 20.5889C34.9048 20.6443 34.9319 20.7053 34.9619 20.7703C34.9948 20.8395 35.0269 20.9032 35.0576 20.96C35.1055 21.0483 35.0855 21.1531 35.0162 21.2202L34.4841 21.7283C34.4619 21.7488 34.4455 21.7694 34.4362 21.7906C34.4269 21.8118 34.4226 21.8365 34.4226 21.8646C34.4226 21.894 34.4276 21.9193 34.4376 21.9412C34.4483 21.9659 34.4662 21.9906 34.4898 22.0131L35.1369 22.6411C35.1598 22.6616 35.1848 22.6773 35.2091 22.6863C35.2341 22.6952 35.2626 22.7006 35.2955 22.7006C35.3283 22.7006 35.3583 22.6952 35.3833 22.6863L35.3905 22.6835C35.4119 22.6746 35.4326 22.6609 35.4519 22.6431L35.9319 22.1761C36.0105 22.0994 36.1319 22.0892 36.2219 22.1446C36.2826 22.1816 36.3448 22.2172 36.4069 22.2494C36.4741 22.2843 36.5398 22.3151 36.6041 22.3439C36.7392 22.4023 36.8775 22.4537 37.0183 22.4979C37.1162 22.5288 37.1783 22.6157 37.1783 22.7095V23.4203C37.1783 23.4518 37.1833 23.4799 37.1933 23.5031L37.1969 23.5114C37.2062 23.5305 37.2205 23.549 37.2398 23.5675C37.2619 23.5881 37.2848 23.6038 37.3076 23.6127C37.3319 23.6223 37.3605 23.6271 37.3933 23.6271H38.3248C38.3548 23.6271 38.3812 23.6223 38.4033 23.6141C38.4283 23.6038 38.4533 23.5874 38.4769 23.5655C38.4983 23.5449 38.5141 23.5237 38.5233 23.5011C38.5333 23.4785 38.5383 23.4518 38.5383 23.4203V22.7691C38.5383 22.6595 38.6212 22.5685 38.7298 22.55C38.8048 22.5329 38.8733 22.5151 38.9355 22.4973C39.0055 22.476 39.0741 22.4534 39.1391 22.4295C39.2041 22.4048 39.2726 22.3774 39.3433 22.3466C39.4162 22.3151 39.4826 22.2843 39.5412 22.2555C39.6333 22.209 39.7433 22.2282 39.8126 22.2953L40.3433 22.8047C40.3633 22.8253 40.3848 22.8403 40.4083 22.8499L40.4198 22.8554C40.4391 22.8615 40.4619 22.8643 40.4883 22.8643C40.5212 22.8643 40.5491 22.8595 40.5698 22.8506C40.5933 22.8403 40.6148 22.8253 40.6348 22.8047L41.2955 22.1795C41.3169 22.1569 41.3326 22.1337 41.3419 22.1104C41.3519 22.0864 41.3569 22.0583 41.3569 22.0275C41.3569 21.9953 41.3519 21.9673 41.3419 21.9433L41.3391 21.9358C41.3298 21.9159 41.3155 21.8954 41.2969 21.8769L40.8098 21.4174C40.7719 21.3816 40.748 21.3343 40.7421 21.2835C40.7363 21.2328 40.7488 21.1817 40.7776 21.1387C40.8162 21.0812 40.8526 21.0216 40.8862 20.9614C40.9226 20.897 40.9555 20.834 40.9848 20.7731C41.0155 20.708 41.0441 20.6423 41.0712 20.5766C41.0955 20.517 41.1205 20.4492 41.1462 20.3752C41.1614 20.3308 41.1909 20.2922 41.2304 20.2647C41.2699 20.2373 41.3174 20.2226 41.3662 20.2225H42.1083C42.1412 20.2225 42.1698 20.2171 42.1941 20.2082L42.2033 20.2047C42.2241 20.1952 42.2433 20.1815 42.2619 20.1637C42.2833 20.1431 42.2991 20.1212 42.3091 20.0986C42.3183 20.0753 42.3233 20.0472 42.3233 20.0157V19.1235C42.3233 19.0948 42.3191 19.0694 42.3098 19.0475C42.2991 19.0236 42.2819 19.0003 42.2591 18.977C42.2376 18.9571 42.2155 18.9421 42.1926 18.9332C42.1691 18.9236 42.1405 18.9188 42.1083 18.9188H41.4291C41.3126 18.9188 41.2162 18.8366 41.1991 18.7298C41.1833 18.6695 41.1648 18.6065 41.1441 18.5429C41.1241 18.4799 41.1005 18.4141 41.0733 18.3463L41.0691 18.3347C41.0433 18.2703 41.0169 18.2087 40.9891 18.1505C40.9583 18.0868 40.9269 18.0259 40.8941 17.969C40.8448 17.8814 40.8633 17.7753 40.9326 17.7075L41.4662 17.1884C41.4883 17.1686 41.5048 17.1474 41.5141 17.1261C41.5233 17.1056 41.5276 17.0809 41.5276 17.0522C41.5276 17.0234 41.5226 16.9974 41.5133 16.9755C41.5019 16.9508 41.4848 16.9262 41.4612 16.9036L40.8083 16.2805ZM40.9155 15.8217C40.9976 15.8546 41.0719 15.9032 41.1369 15.9655L41.7912 16.592C41.8555 16.655 41.9055 16.7249 41.9398 16.8016C41.9748 16.8803 41.9926 16.9638 41.9926 17.0522C41.9926 17.1419 41.9741 17.2261 41.9383 17.3042C41.9033 17.3809 41.8519 17.4486 41.7869 17.5089L41.3798 17.9047L41.4098 17.9663C41.4426 18.0348 41.4733 18.1053 41.5019 18.1765L41.5069 18.1875C41.5348 18.2587 41.5619 18.334 41.5869 18.4121L41.6062 18.473H42.1083C42.2012 18.473 42.2883 18.4895 42.3705 18.5223C42.452 18.5556 42.5258 18.604 42.5876 18.6647L42.5926 18.6695C42.6562 18.7325 42.7048 18.8017 42.7376 18.8777C42.7712 18.9564 42.7883 19.0386 42.7883 19.1235V20.0157C42.7883 20.1048 42.7712 20.1876 42.7383 20.2657C42.7038 20.3447 42.6536 20.4166 42.5905 20.4773C42.5291 20.5355 42.4619 20.58 42.3883 20.6122L42.3683 20.6204C42.2876 20.6519 42.2005 20.6676 42.1083 20.6676H41.5305L41.5026 20.7368C41.4726 20.8107 41.4405 20.8847 41.4062 20.9573C41.3715 21.0301 41.3343 21.1018 41.2948 21.1723L41.2655 21.2236L41.6319 21.5694C41.6898 21.6283 41.7348 21.6941 41.7662 21.7653L41.7741 21.7817C41.8055 21.8591 41.8219 21.9412 41.8219 22.0275C41.8219 22.1131 41.8055 22.1946 41.7741 22.272C41.7414 22.35 41.694 22.4215 41.6341 22.4829L40.9698 23.1122C40.9062 23.1765 40.8333 23.2258 40.7533 23.2587C40.6698 23.2922 40.5819 23.3101 40.4883 23.3101C40.4041 23.3101 40.3241 23.2957 40.2483 23.2669L40.2248 23.2587C40.1427 23.2243 40.0688 23.1742 40.0076 23.1115L39.6019 22.7219L39.5341 22.752C39.4633 22.7828 39.3869 22.8136 39.3062 22.8431C39.2276 22.8725 39.1491 22.8985 39.0712 22.9218L39.0026 22.9403V23.4203C39.0035 23.5059 38.9863 23.5908 38.952 23.6699C38.9178 23.749 38.8672 23.8206 38.8033 23.8804L38.7983 23.8852C38.7326 23.9462 38.6598 23.9927 38.5812 24.0236C38.4983 24.0557 38.4133 24.0722 38.3248 24.0722H37.3933C37.3012 24.0722 37.2141 24.0564 37.1333 24.0249C37.05 23.9923 36.9745 23.9439 36.9112 23.8825C36.8529 23.8265 36.8057 23.7609 36.7719 23.6887L36.7633 23.6702C36.7305 23.5922 36.7133 23.5093 36.7133 23.4203V22.8663L36.6419 22.8403C36.5641 22.8116 36.4876 22.7801 36.4119 22.7472C36.3326 22.7123 36.2569 22.6767 36.1876 22.6411L36.1341 22.6123L35.7726 22.9636C35.7119 23.019 35.6433 23.0629 35.5691 23.093L35.5519 23.0998C35.4703 23.1306 35.3832 23.1462 35.2955 23.1457C35.2062 23.1457 35.1212 23.1306 35.0405 23.0998C34.9586 23.0691 34.8837 23.0235 34.8198 22.9656L34.1591 22.3247C34.0948 22.2617 34.0448 22.1919 34.0105 22.1152C33.9753 22.036 33.9573 21.9507 33.9576 21.8646C33.9576 21.7749 33.9762 21.6906 34.0119 21.6126C34.0477 21.5348 34.0997 21.4649 34.1648 21.4071L34.5712 21.0182L34.5391 20.9532C34.5112 20.8922 34.4812 20.8244 34.4512 20.7491L34.4448 20.7347C34.4148 20.6615 34.3869 20.5848 34.3619 20.5067L34.3426 20.4437H33.8419C33.7491 20.4437 33.6619 20.4273 33.5798 20.3944C33.4991 20.3622 33.4269 20.3143 33.3619 20.252L33.3576 20.2479C33.2933 20.1842 33.2455 20.115 33.2126 20.039C33.1791 19.9603 33.1626 19.8788 33.1626 19.7939V18.901C33.1626 18.812 33.1791 18.7284 33.2119 18.6511C33.2459 18.5719 33.2962 18.5002 33.3598 18.4402C33.4269 18.3758 33.5005 18.3285 33.5819 18.2964C33.6626 18.2649 33.7498 18.2491 33.8419 18.2491H34.4198L34.4476 18.18C34.4773 18.1054 34.5097 18.0319 34.5448 17.9595C34.5805 17.8835 34.6176 17.8116 34.6555 17.7445L34.6862 17.6917L34.3326 17.3521C34.2679 17.292 34.2164 17.22 34.1812 17.1405C34.1462 17.0612 34.1282 16.976 34.1283 16.8899C34.1283 16.8029 34.1462 16.7194 34.1812 16.64C34.2165 16.5608 34.2674 16.489 34.3312 16.4284L34.9848 15.8005C35.0505 15.7388 35.1233 15.6909 35.2033 15.658C35.2862 15.6245 35.3733 15.6074 35.4648 15.6074C35.5583 15.6074 35.6462 15.6245 35.7283 15.6594C35.8076 15.693 35.8791 15.7416 35.9412 15.8046L36.3541 16.1942L36.4169 16.1654C36.4841 16.136 36.5569 16.1065 36.6333 16.0778L36.6433 16.0737C36.7198 16.0449 36.7998 16.0189 36.8819 15.9949L36.9476 15.9764V15.4964C36.9468 15.4108 36.964 15.3259 36.9982 15.2468C37.0325 15.1678 37.083 15.0962 37.1469 15.0363L37.1519 15.0315C37.2176 14.9706 37.2905 14.9247 37.3691 14.8932C37.4519 14.861 37.5369 14.8446 37.6255 14.8446H38.5569C38.6491 14.8446 38.7362 14.8603 38.8169 14.8918C38.9005 14.9254 38.9741 14.9719 39.0391 15.0342C39.1041 15.0965 39.1533 15.1678 39.1869 15.2465C39.2198 15.3239 39.2369 15.4074 39.2369 15.4964V16.0504L39.3083 16.0764C39.3855 16.1052 39.4633 16.1367 39.5383 16.1695C39.6176 16.2045 39.6933 16.2401 39.7626 16.2757L39.8176 16.3051L40.1726 15.9669C40.2376 15.9032 40.3119 15.8546 40.3926 15.8217C40.4762 15.7881 40.5641 15.771 40.6548 15.771C40.7455 15.771 40.8326 15.7875 40.9155 15.8217ZM38.7783 17.6411C39.0305 17.7458 39.2498 17.8862 39.4319 18.0615L39.4455 18.0752C39.6226 18.2484 39.7655 18.4538 39.8712 18.6887L39.8783 18.7079C39.9805 18.9469 40.0319 19.2036 40.0319 19.4584C40.0319 19.7193 39.9783 19.9822 39.8712 20.2267V20.2287C39.7633 20.4684 39.6155 20.6779 39.4319 20.8546C39.2476 21.0312 39.0291 21.1723 38.7783 21.2757L38.7583 21.2832C38.2501 21.4821 37.6802 21.4794 37.1741 21.2757H37.1719C36.9212 21.1723 36.7026 21.0312 36.5191 20.8552C36.3341 20.6779 36.1876 20.4684 36.0791 20.2287L36.0719 20.2095C35.9691 19.9699 35.9183 19.7131 35.9183 19.4584C35.9183 19.1975 35.9719 18.9345 36.0791 18.6901V18.6887C36.1876 18.4477 36.3348 18.2382 36.5183 18.0622C36.7005 17.8862 36.9198 17.7458 37.1719 17.6411L37.1919 17.6342C37.4412 17.5356 37.7091 17.4863 37.9755 17.4863C38.2476 17.4863 38.5212 17.5377 38.7762 17.6411H38.7783ZM39.1033 18.3765C38.9619 18.2409 38.7919 18.1313 38.5948 18.0498C38.4012 17.9711 38.1891 17.9321 37.9755 17.9321C37.7662 17.9321 37.5591 17.969 37.3691 18.0437L37.3555 18.0498C37.1583 18.1313 36.9883 18.2409 36.8469 18.3765C36.7048 18.5114 36.5912 18.6743 36.5055 18.864C36.4233 19.0503 36.3826 19.2536 36.3826 19.4584C36.3826 19.6583 36.4219 19.8569 36.4991 20.0397L36.5055 20.0527C36.5912 20.2424 36.7048 20.4054 36.8455 20.5403C36.9869 20.6758 37.1576 20.7854 37.3555 20.8669C37.5491 20.9456 37.7612 20.9847 37.9755 20.9847C38.1841 20.9847 38.3912 20.9477 38.5812 20.873L38.5948 20.8669C38.7926 20.7854 38.9633 20.6758 39.1033 20.5409C39.2455 20.4054 39.3591 20.2424 39.4448 20.0527C39.5262 19.8665 39.5676 19.6631 39.5676 19.4584C39.5676 19.2584 39.5283 19.0598 39.4505 18.877L39.4448 18.864C39.3612 18.6798 39.2519 18.5203 39.1162 18.3874L39.1033 18.3765ZM31.2433 39.7473H49.5205V13.7455H31.2433V39.7473ZM40.3798 40.9306C41.2719 40.9306 42.0012 41.6194 42.0012 42.4849C42.0012 43.3415 41.2833 44.04 40.3798 44.04C39.4876 44.04 38.7576 43.3518 38.7576 42.4849C38.7576 41.6304 39.4762 40.9306 40.3798 40.9306Z" fill="white"/>
</svg>
