<svg width="78" height="55" viewBox="0 0 78 55" fill="none" xmlns="http://www.w3.org/2000/svg">
<rect width="77.4979" height="54.5378" rx="5" fill="#001647"/>
<path fill-rule="evenodd" clip-rule="evenodd" d="M32.7065 30.242C32.6613 30.5052 32.6821 30.8093 32.7551 31.1179C32.7864 31.254 32.8281 31.3856 32.8768 31.5172C32.9255 31.6534 32.9846 31.785 33.0541 31.9121C33.1202 32.0392 33.1932 32.1617 33.2732 32.2706C33.3497 32.3795 33.4331 32.4794 33.5166 32.5611L33.52 32.5656C33.7252 32.7744 33.9546 32.9151 34.1876 32.9423C34.4901 32.9786 34.9316 32.6609 35.1993 32.4295L35.2584 32.3795L35.2654 32.375C35.3697 32.2842 35.474 32.2025 35.5748 32.1163C35.6339 32.0709 35.7035 32.0573 35.7661 32.0755C35.8286 32.0936 35.8843 32.139 35.919 32.2116C35.9295 32.2298 35.9364 32.2434 35.9399 32.2615L36.0407 32.4975L36.0442 32.5021C36.1763 32.8152 36.305 33.1193 36.444 33.4188C36.5762 33.7093 36.7083 33.977 36.8439 34.213L36.8473 34.2176L36.8647 34.2448C36.8786 34.272 36.8995 34.3083 36.9238 34.3492L36.9273 34.3537C37.0108 34.499 37.0942 34.6533 37.1811 34.7894C37.2646 34.921 37.3515 35.0345 37.4315 35.1116C37.4871 35.1616 37.5462 35.1888 37.6018 35.1706C37.6644 35.1525 37.7339 35.0799 37.8139 34.9392C37.8313 34.9029 37.8487 34.8666 37.8661 34.8303L37.9182 34.7259L37.9217 34.7213C37.9738 34.617 38.026 34.5126 38.0642 34.4036C38.0921 34.3265 38.1129 34.2448 38.1199 34.1586C38.0886 34.1495 38.0503 34.1404 38.0121 34.1359H38.0086C37.7305 34.095 37.4593 34.0497 37.3689 33.3507V33.3462L37.3584 33.26C37.348 33.1692 37.3411 33.1011 37.3341 33.0603C37.3306 33.0331 37.3272 33.0104 37.3237 33.0013V33.0058C37.3237 33.0104 37.3237 33.0104 37.3237 33.0104C37.2993 32.9922 37.2715 32.9741 37.2368 32.9514L37.2055 32.9332H37.202C37.1116 32.8742 37.0386 32.7925 36.9829 32.6881C36.9204 32.5792 36.8786 32.4522 36.8508 32.316C36.823 32.1798 36.8056 32.0346 36.7987 31.8894C36.7917 31.7215 36.7952 31.5581 36.8091 31.4174V31.4129C36.8161 31.3539 36.83 31.3039 36.8543 31.2586L36.8578 31.2495C36.8821 31.2086 36.9169 31.1723 36.9551 31.1496C36.9586 31.1496 36.9621 31.1451 36.9656 31.1451C37.7409 30.6913 38.398 30.4598 38.9647 30.3373C39.4376 30.2374 39.8513 30.2193 40.2233 30.2147C39.455 29.5521 38.6692 28.4902 38.0051 27.3102C37.3237 26.0984 36.7743 24.7551 36.5066 23.5797C36.3293 24.2604 36.0755 25.0818 35.6444 25.9804C35.1402 27.0107 32.8351 29.5068 32.7065 30.242ZM24.1778 14.1852V40.3035H54.228V14.1852H24.1778ZM54.9616 12.2383C55.3753 12.2383 55.7161 12.683 55.7161 13.2231V40.9797C55.7161 41.4381 55.4762 41.8239 55.1493 41.9328H59.7248C60.2116 41.9328 60.6079 42.4502 60.6079 43.0855C60.6079 43.7209 60.2116 44.2383 59.7248 44.2383H18.7679C18.2811 44.2383 17.8848 43.7209 17.8848 43.0855C17.8848 42.4502 18.2811 41.9328 18.7679 41.9328H23.1452C22.8219 41.8239 22.5785 41.4336 22.5785 40.9797V13.2231C22.5785 12.683 22.9192 12.2383 23.3329 12.2383H54.9616ZM38.0051 42.3685H40.4876C40.7205 42.3685 40.9118 42.6181 40.9118 42.9222C40.9118 43.2262 40.7205 43.4758 40.4876 43.4758H38.0051C37.7722 43.4758 37.581 43.2262 37.581 42.9222C37.581 42.6135 37.7722 42.3685 38.0051 42.3685ZM39.3472 20.9066C39.2185 20.8112 39.1768 20.5979 39.2498 20.43C39.3228 20.2621 39.4863 20.2076 39.6149 20.303C40.3242 20.8385 41.2316 21.9776 41.9965 23.2892C42.678 24.4556 43.2482 25.7717 43.4742 26.929C43.5089 27.115 43.4255 27.3056 43.2795 27.3556C43.1369 27.401 42.9909 27.292 42.9526 27.1014C42.744 26.0349 42.2086 24.8095 41.5689 23.7113C40.8492 22.4723 40.0008 21.4012 39.3472 20.9066ZM43.9853 20.1396C43.8844 19.9989 43.8914 19.7765 44.0026 19.6449C44.1104 19.5133 44.2808 19.5224 44.3816 19.6676C44.5833 19.9535 44.7815 20.253 44.9762 20.5707C45.1639 20.8793 45.3447 21.197 45.5185 21.5238C45.602 21.6826 45.5707 21.9005 45.449 22.0094C45.3273 22.1183 45.1604 22.0775 45.077 21.9186C44.9136 21.61 44.7397 21.3014 44.5589 21.0064C44.3677 20.7023 44.1765 20.4119 43.9853 20.1396ZM41.7288 20.4799C41.6175 20.3529 41.6071 20.1305 41.7045 19.9898C41.8018 19.8446 41.9722 19.831 42.08 19.958C42.5598 20.5117 43.0604 21.2197 43.5194 21.9912C43.9505 22.7174 44.3399 23.5025 44.6354 24.2695C44.7015 24.4419 44.6493 24.6507 44.5172 24.7369C44.3851 24.8232 44.2252 24.7551 44.1591 24.5826C43.881 23.861 43.5089 23.1122 43.0987 22.4178C42.6606 21.6781 42.1808 21.0019 41.7288 20.4799ZM37.7722 25.7127C38.0295 25.5765 38.2868 25.5175 38.5371 25.5538C39.2429 25.6537 39.754 26.3798 39.6949 27.3238C39.674 27.6823 39.5767 28.0726 39.4028 28.5038C39.5454 28.6853 39.6983 28.8668 39.8652 29.0529C40.1017 29.3207 40.3381 29.5521 40.578 29.7473C40.7935 29.9243 41.0126 30.065 41.2281 30.1694C41.249 30.1648 41.2699 30.1603 41.2872 30.1512C41.3081 30.1421 41.3255 30.1285 41.3429 30.1149C41.3568 30.1013 41.3742 30.0877 41.3881 30.065C41.4228 29.9742 41.4472 29.8653 41.4576 29.7427C41.468 29.6066 41.468 29.4568 41.4507 29.2935C41.402 28.7988 41.2386 28.1997 40.9987 27.5643C40.7344 26.8654 40.3763 26.1257 39.9765 25.4177C39.5836 24.7233 39.1525 24.0607 38.7248 23.5116C38.318 22.9851 37.9182 22.5585 37.5671 22.2953L37.5636 22.2908C37.4349 22.1954 37.3132 22.1228 37.2055 22.082L37.1985 22.0775C37.1046 22.0411 37.0212 22.0275 36.9517 22.0411C36.9343 22.0457 36.9238 22.0457 36.9134 22.0502L36.9099 22.0548C36.903 22.0684 36.8925 22.0865 36.8856 22.1092C36.8821 22.1183 36.8752 22.1319 36.8682 22.1501L36.8578 22.1773V22.1864V22.1909C36.823 22.4632 36.8578 22.8263 36.9412 23.2484C37.0351 23.6976 37.1881 24.2105 37.3897 24.7505C37.5219 25.1 37.647 25.4177 37.7722 25.7127ZM40.4285 30.8864H40.4215C39.6427 30.8955 38.6692 30.9091 37.2889 31.6852C37.2889 31.7532 37.2889 31.8259 37.2924 31.8985C37.2959 31.9847 37.3063 32.0664 37.3237 32.139C37.3376 32.1935 37.3515 32.2388 37.3689 32.2752C37.3828 32.3024 37.3967 32.3251 37.4141 32.3342L37.4419 32.3523H37.4454L37.4523 32.3568C37.6018 32.4522 37.6783 32.5021 37.7513 32.6518V32.6564C37.807 32.7744 37.8243 32.9014 37.8521 33.1329L37.8556 33.1556V33.1601L37.8661 33.2464V33.2509C37.8939 33.4506 37.9773 33.4642 38.0608 33.4778C38.478 33.5414 38.6275 33.7955 38.624 34.1313C38.624 34.4309 38.4884 34.7803 38.332 35.0935C38.3146 35.1298 38.2972 35.1661 38.2833 35.1933C38.2694 35.2251 38.252 35.2569 38.2381 35.2841L38.2311 35.2977C38.2276 35.3022 38.2276 35.3068 38.2242 35.3113C38.0434 35.6472 37.8591 35.8151 37.6714 35.8605C37.4801 35.9058 37.2993 35.8242 37.122 35.6653C36.8995 35.4611 36.7048 35.1252 36.524 34.8076L36.4962 34.7576L36.4684 34.7077L36.4197 34.6215L36.4162 34.6124C36.2737 34.3628 36.1346 34.0769 35.999 33.7774C35.8704 33.496 35.7382 33.1874 35.6026 32.8697L35.5992 32.8742C35.5714 32.8969 35.547 32.9196 35.5262 32.9378L35.4288 33.024L35.4219 33.0285C35.0185 33.3734 34.6639 33.6866 34.1215 33.614C33.7912 33.5686 33.4748 33.378 33.1967 33.0921C33.0889 32.9831 32.9881 32.8606 32.8942 32.7245C32.7969 32.5883 32.7099 32.4431 32.6265 32.2888C32.5465 32.1345 32.477 31.9756 32.4144 31.8122C32.3553 31.6489 32.3031 31.4809 32.2614 31.313V31.3085C32.1641 30.8864 32.1363 30.4553 32.2058 30.0786C32.4944 28.4765 35.1993 26.7656 36.1659 22.7401V22.7355C36.2111 22.5449 36.2528 22.3724 36.298 22.2091C36.3397 22.0502 36.3849 21.9095 36.4336 21.7915L36.4371 21.787C36.4614 21.728 36.4823 21.6826 36.5066 21.6418C36.5344 21.5964 36.5657 21.5555 36.604 21.5192C36.6422 21.4829 36.6839 21.4557 36.7291 21.433C36.7743 21.4149 36.823 21.4012 36.8786 21.3922C37.0177 21.3695 37.1672 21.3876 37.3271 21.4466C37.4836 21.5056 37.647 21.6009 37.8174 21.728L37.8209 21.7325C38.2068 22.0185 38.6344 22.4768 39.069 23.0305C39.5175 23.6114 39.973 24.3013 40.3833 25.0319C40.804 25.7808 41.1829 26.5659 41.4646 27.3147C41.7219 28.0046 41.8992 28.6581 41.9548 29.2208C41.9791 29.4568 41.9791 29.6792 41.9583 29.8834C41.9374 30.0831 41.8922 30.2647 41.8192 30.4235L41.8157 30.428C41.6106 30.9 40.957 30.891 40.5606 30.8864C40.5119 30.891 40.4667 30.8864 40.4285 30.8864Z" fill="white"/>
</svg>
