<svg width="79" height="58" viewBox="0 0 79 58" fill="none" xmlns="http://www.w3.org/2000/svg">
<rect x="0.210938" y="0.753906" width="78" height="57" rx="5" fill="#994C5A"/>
<path fill-rule="evenodd" clip-rule="evenodd" d="M35.6347 18.4176L44.8696 14.7721L52.8329 22.5347L49.1165 31.2459C42.8141 32.8984 36.9437 35.3101 31.4011 38.2996L30.276 36.9777L41.2679 26.6646C41.4891 26.7604 41.7291 26.8083 41.9717 26.8083H41.9744C42.9234 26.8083 43.6912 26.0818 43.6912 25.1837C43.6912 24.2881 42.9234 23.559 41.9744 23.559C41.0279 23.559 40.2575 24.2856 40.2575 25.1837C40.2575 25.4738 40.3374 25.7463 40.4787 25.9809L29.6015 36.2083L28.0926 34.904C31.4117 29.7625 33.9498 24.2805 35.6347 18.4176ZM47.5009 12.7539L55.2136 20.2314L54.5098 20.8798L53.806 21.5282L46.0933 14.0481L46.7971 13.3997L47.5009 12.7539ZM29.2736 39.8385C32.8887 42.987 35.0161 41.6146 38.026 39.667C40.5161 38.0575 43.526 36.1124 48.0901 35.4691C48.4154 34.4347 49.4284 33.6804 50.6255 33.6804C52.0864 33.6804 53.2701 34.8005 53.2701 36.183C53.2701 37.5655 52.0864 38.6856 50.6255 38.6856C49.5991 38.6856 48.7086 38.1331 48.2714 37.3233C44.1871 37.9364 41.4225 39.7225 39.1324 41.2008C35.2747 43.6934 32.5794 45.4341 27.8553 41.1403C27.5381 41.2614 27.1995 41.3245 26.8583 41.3245H26.8556C25.3946 41.3245 24.2109 40.2043 24.2109 38.8219C24.2109 37.4394 25.3946 36.3193 26.8556 36.3193C28.3165 36.3193 29.5002 37.4394 29.5002 38.8219V38.8244C29.5002 39.175 29.4229 39.5181 29.2736 39.8385Z" fill="white"/>
</svg>
