<svg width="78" height="57" viewBox="0 0 78 57" fill="none" xmlns="http://www.w3.org/2000/svg">
<rect width="78" height="57" rx="5" fill="#FF8888"/>
<path fill-rule="evenodd" clip-rule="evenodd" d="M23.8426 13H53.1574C53.6216 13 54 13.4563 54 14.0161V37.4349C54 37.9947 53.6216 38.451 53.1574 38.451H23.8426C23.3784 38.451 23 37.9947 23 37.4349V14.0161C23 13.4563 23.3784 13 23.8426 13ZM26.1711 16.5533H28.6485V17.3321H26.1711V16.5533ZM29.8292 24.8037H26.1711V24.0219H29.8292V24.8037ZM34.8066 24.8068H30.5734V24.0219H34.8066V24.8068ZM42.0874 24.8068H35.5231V24.0249H42.0899V24.8068H42.0874ZM32.3974 21.5394H45.3014V22.3091H32.3974V21.5394ZM29.3625 21.5334H31.6986V22.3122H29.3625V21.5334ZM26.1711 21.5334H28.6485V22.3122H26.1711V21.5334ZM31.7717 19.8176H26.1711V19.0448H31.7743V19.8176H31.7717ZM34.8066 19.8206H32.4705V19.0418H34.8066V19.8206ZM42.0874 19.8237H35.5231V19.0418H42.0899V19.8237H42.0874ZM32.3974 16.5533H38.0005V17.326H32.3974V16.5533ZM29.3625 16.5533H31.6986V17.3321H29.3625V16.5533ZM46.0078 31.886L43.7121 30.3344V29.4461L46.0078 27.8946V28.9168L44.4084 29.8781L46.0078 30.8699V31.886ZM46.4342 32.5765L47.2642 27.128H47.746L46.911 32.5765H46.4342ZM48.0967 31.892V30.876L49.6987 29.9025L48.0967 28.9168V27.9068L50.3924 29.4705V30.3466L48.0967 31.892ZM34.678 39.8535H42.322C42.3422 41.4476 42.8871 42.8744 44.363 44H32.637C33.8177 42.9687 34.683 41.7153 34.678 39.8535ZM38.5 35.0286C39.0979 35.0286 39.5823 35.6127 39.5823 36.3337C39.5823 37.0547 39.0979 37.6388 38.5 37.6388C37.9021 37.6388 37.4177 37.0547 37.4177 36.3337C37.4177 35.6127 37.9021 35.0286 38.5 35.0286ZM25.5354 14.9135H51.4671C51.8783 14.9135 52.2113 15.3182 52.2113 15.811V33.3097C52.2113 33.8026 51.8758 34.2072 51.4671 34.2072H25.5354C25.1267 34.2072 24.7912 33.8026 24.7912 33.3097V15.811C24.7887 15.3182 25.1242 14.9135 25.5354 14.9135Z" fill="white"/>
</svg>
