<svg width="78" height="53" viewBox="0 0 78 53" fill="none" xmlns="http://www.w3.org/2000/svg">
<rect y="0.398438" width="78" height="51.9568" rx="5" fill="#339572"/>
<path d="M44.4905 23.437H44.2612V22.8034C44.2612 21.6188 43.7143 20.5087 42.7223 19.678C41.7277 18.8427 40.4046 18.3828 38.9961 18.3828C37.593 18.3828 36.2707 18.8427 35.2728 19.678C34.2782 20.5133 33.7305 21.6234 33.7305 22.8034V23.437H33.5046C32.7225 23.437 32.0859 23.9714 32.0859 24.628V27.396C32.0859 30.597 35.1857 33.2018 38.9956 33.2018C42.8089 33.2018 45.9112 30.597 45.9112 27.396V24.628C45.9117 23.9714 45.2739 23.437 44.4905 23.437ZM34.3729 22.8034C34.3729 21.7671 34.8538 20.793 35.7263 20.0594C36.6027 19.3258 37.7638 18.9221 38.9956 18.9221C40.2325 18.9221 41.3945 19.3258 42.2679 20.0594C43.1392 20.7884 43.6188 21.7629 43.6188 22.8034V23.437H42.3403V22.8034C42.3403 21.2564 40.8413 19.998 38.9986 19.998C37.1563 19.998 35.6569 21.2564 35.6569 22.8034V23.437H34.3725L34.3729 22.8034ZM36.2993 23.437V22.8034C36.2993 21.5534 37.5101 20.5369 38.999 20.5369C40.4875 20.5369 41.6987 21.5538 41.6987 22.8034V23.437H36.2993ZM45.2697 27.396C45.2697 30.3003 42.4555 32.6624 38.9961 32.6624C35.5404 32.6624 32.7288 30.3003 32.7288 27.396V24.628C32.7288 24.2684 33.0771 23.976 33.505 23.976H34.0418C34.0485 23.976 34.0557 23.976 34.062 23.976H43.9301C43.9368 23.976 43.9436 23.976 43.9507 23.976H44.4905C44.92 23.976 45.2697 24.2684 45.2697 24.628V27.396Z" fill="white"/>
<path d="M40.9915 27.1102C40.9915 26.188 40.0954 25.4375 38.9944 25.4375C37.896 25.4375 37.002 26.188 37.002 27.1102C37.002 27.6591 37.3187 28.1649 37.8434 28.4746L37.4302 29.8535C37.4029 29.9457 37.4349 30.0424 37.5148 30.1099C37.7849 30.3363 38.3907 30.45 38.9961 30.45C39.6023 30.45 40.2077 30.3363 40.4778 30.1099C40.5574 30.0435 40.5902 29.946 40.5624 29.8538L40.1535 28.4743C40.676 28.1638 40.9915 27.6584 40.9915 27.1102ZM39.6356 28.1108C39.5052 28.1687 39.4387 28.2941 39.4745 28.4139L39.8863 29.8023C39.4761 29.9538 38.5186 29.9538 38.108 29.8026L38.5237 28.4146C38.5598 28.2938 38.4929 28.168 38.3617 28.1101C37.9191 27.9144 37.644 27.5312 37.644 27.1102C37.644 26.4851 38.2494 25.9765 38.994 25.9765C39.7412 25.9765 40.3487 26.4851 40.3487 27.1102C40.3491 27.5309 40.0761 27.9144 39.6356 28.1108Z" fill="white"/>
<path d="M56.984 32.944V29.6205C56.984 29.4718 56.8401 29.3513 56.6626 29.3513H51.2935C51.6498 28.4867 51.8804 27.5733 51.9658 26.6268H54.0079C54.1526 27.1153 54.6785 27.479 55.3045 27.479C56.042 27.479 56.6415 26.9754 56.6415 26.3566C56.6415 25.7374 56.042 25.2338 55.3045 25.2338C54.6781 25.2338 54.1522 25.5979 54.0079 26.0875H51.999C52.0024 25.9893 52.0041 25.8911 52.0041 25.7925C52.0041 24.9834 51.8976 24.1947 51.6974 23.435H54.2889C54.4665 23.435 54.6099 23.3142 54.6099 23.1655V20.3643C55.1926 20.2432 55.6259 19.8017 55.6259 19.2758C55.6259 18.6566 55.0256 18.1533 54.2885 18.1533C53.551 18.1533 52.9507 18.6566 52.9507 19.2758C52.9507 19.8017 53.3844 20.2432 53.9675 20.3647V22.896H51.5383C50.3936 19.4089 47.2366 16.6152 43.1856 15.456V11.8181H46.8231C46.9678 12.3069 47.4937 12.671 48.1193 12.671C48.8572 12.671 49.4571 12.1674 49.4571 11.5482C49.4571 10.9294 48.8568 10.4258 48.1193 10.4258C47.4937 10.4258 46.9678 10.7896 46.8231 11.2784H42.8642C42.6867 11.2784 42.5432 11.3992 42.5432 11.5479V15.2879C41.5074 15.0413 40.4199 14.9004 39.2974 14.8792V13.7772C39.8801 13.6561 40.3139 13.2146 40.3139 12.6887C40.3139 12.0699 39.7135 11.5662 38.9764 11.5662C38.2389 11.5662 37.639 12.0699 37.639 12.6887C37.639 13.2146 38.0728 13.6561 38.6554 13.7772V14.8799C37.5637 14.9036 36.5052 15.0417 35.4959 15.279V13.542C35.4959 13.3933 35.352 13.2725 35.1745 13.2725H31.8387C31.6944 12.7833 31.1685 12.4192 30.5417 12.4192C29.8042 12.4192 29.2042 12.9229 29.2042 13.542C29.2042 14.1608 29.8042 14.6648 30.5417 14.6648C31.1681 14.6648 31.694 14.3007 31.8387 13.8115H34.8535V15.445C30.7962 16.5936 27.6291 19.3803 26.4722 22.8632H21.658V19.8094C22.2407 19.6883 22.6744 19.2468 22.6744 18.7209C22.6744 18.1021 22.0745 17.5984 21.337 17.5984C20.5999 17.5984 20 18.1021 20 18.7209C20 19.2468 20.4337 19.6879 21.016 19.8094V23.1326C21.016 23.2817 21.1599 23.4025 21.337 23.4025H26.3115C26.1057 24.1721 25.9963 24.9721 25.9963 25.7933C25.9963 25.9049 25.9989 26.0161 26.0031 26.127H23.9917C23.8469 25.6382 23.3215 25.2744 22.695 25.2744C21.958 25.2744 21.358 25.7781 21.358 26.3969C21.358 27.0164 21.9575 27.52 22.695 27.52C23.3219 27.52 23.8474 27.1562 23.9917 26.667H26.0376C26.1251 27.5875 26.3489 28.4761 26.6922 29.3188H23.7115C23.5344 29.3188 23.3905 29.4396 23.3905 29.5887V32.3898C22.8078 32.5106 22.374 32.9521 22.374 33.4784C22.374 34.0972 22.974 34.6012 23.7115 34.6012C24.449 34.6012 25.0485 34.0972 25.0485 33.4784C25.0485 32.9521 24.6147 32.5106 24.0321 32.3898V29.8585H26.9312C28.3397 32.795 31.2262 35.1038 34.814 36.1305V40.9368H31.1765C31.0322 40.4473 30.5063 40.0835 29.8799 40.0835C29.1428 40.0835 28.5429 40.5875 28.5429 41.2063C28.5429 41.8254 29.1428 42.3291 29.8799 42.3291C30.5059 42.3291 31.0318 41.9653 31.1765 41.4765H35.135C35.3125 41.4765 35.4564 41.355 35.4564 41.2059V36.2979C36.4917 36.5445 37.5801 36.6857 38.7026 36.7069V38.9766C38.1203 39.0977 37.6861 39.5396 37.6861 40.0651C37.6861 40.6843 38.2861 41.1876 39.0236 41.1876C39.7606 41.1876 40.361 40.6843 40.361 40.0651C40.361 39.5392 39.9272 39.0977 39.3446 38.9766V36.7059C40.4359 36.6822 41.494 36.5445 42.5032 36.3071V39.2121C42.5032 39.2761 42.531 39.3343 42.5764 39.381C42.5836 39.3884 42.5899 39.3965 42.5979 39.4032C42.6585 39.4537 42.7401 39.4823 42.8251 39.4823L46.1613 39.4816C46.306 39.9708 46.8315 40.3349 47.4583 40.3349C48.1954 40.3349 48.7953 39.8309 48.7953 39.2121C48.7953 38.593 48.1954 38.089 47.4583 38.089C46.8319 38.089 46.306 38.4531 46.1617 38.9423H43.1465V36.1404C46.7385 35.1236 49.633 32.8218 51.0524 29.8903H56.3424V32.944C55.7593 33.0652 55.3256 33.5066 55.3256 34.0322C55.3256 34.6517 55.9259 35.1554 56.663 35.1554C57.4005 35.1554 58 34.6513 58 34.0322C57.9996 33.507 57.5667 33.0655 56.984 32.944ZM55.3045 25.7735C55.6878 25.7735 55.9995 26.0352 55.9995 26.3569C55.9995 26.6787 55.6878 26.9404 55.3045 26.9404C54.9225 26.9404 54.6112 26.6798 54.6095 26.3587L54.6099 26.3573C54.6099 26.3566 54.6095 26.3555 54.6095 26.3555C54.6108 26.0341 54.9217 25.7735 55.3045 25.7735ZM53.5935 19.2761C53.5935 18.9544 53.9053 18.6926 54.2885 18.6926C54.6718 18.6926 54.9835 18.9544 54.9835 19.2761C54.9835 19.5979 54.6718 19.8596 54.2885 19.8596C53.9053 19.8596 53.5935 19.5979 53.5935 19.2761ZM30.5421 14.1251C30.1588 14.1251 29.8471 13.8631 29.8471 13.5417C29.8471 13.2199 30.1588 12.9578 30.5421 12.9578C30.9254 12.9578 31.2375 13.2195 31.2375 13.5417C31.2375 13.8631 30.9254 14.1251 30.5421 14.1251ZM20.642 18.7205C20.642 18.3988 20.9537 18.1374 21.3366 18.1374C21.7203 18.1374 22.032 18.3991 22.032 18.7205C22.032 19.0423 21.7203 19.304 21.3366 19.304C20.9537 19.304 20.642 19.0423 20.642 18.7205ZM24.4061 33.4773C24.4061 33.7987 24.0943 34.0605 23.7111 34.0605C23.3278 34.0605 23.0161 33.7987 23.0161 33.4773C23.0161 33.1556 23.3278 32.8935 23.7111 32.8935C24.0943 32.8935 24.4061 33.1552 24.4061 33.4773ZM29.8799 41.7883C29.4966 41.7883 29.1853 41.5266 29.1853 41.2052C29.1853 40.8835 29.4966 40.6214 29.8799 40.6214C30.2632 40.6214 30.5749 40.8835 30.5749 41.2052C30.5753 41.5266 30.2636 41.7883 29.8799 41.7883ZM48.1193 10.9648C48.5025 10.9648 48.8139 11.2265 48.8139 11.5479C48.8139 11.8696 48.5025 12.1314 48.1193 12.1314C47.7364 12.1314 47.4247 11.8696 47.4247 11.5479C47.4247 11.2265 47.7364 10.9648 48.1193 10.9648ZM38.2814 12.688C38.2814 12.3662 38.5932 12.1045 38.9769 12.1045C39.3601 12.1045 39.6714 12.3662 39.6714 12.688C39.6714 13.0097 39.3601 13.2715 38.9769 13.2715C38.5932 13.2718 38.2814 13.0101 38.2814 12.688ZM22.6946 26.98C22.3118 26.98 22 26.7183 22 26.3961C22 26.0747 22.3118 25.813 22.6946 25.813C23.0779 25.813 23.3901 26.0747 23.3901 26.3961C23.3901 26.7183 23.0779 26.98 22.6946 26.98ZM39.7186 40.0651C39.7186 40.3869 39.4068 40.6486 39.0231 40.6486C38.6399 40.6486 38.3281 40.3869 38.3281 40.0651C38.3281 39.7441 38.639 39.4827 39.0215 39.4816H39.0227C39.0236 39.4816 39.0244 39.4816 39.0244 39.4816C39.4072 39.4823 39.7186 39.7437 39.7186 40.0651ZM47.4575 38.6283C47.8408 38.6283 48.1525 38.89 48.1525 39.2118C48.1525 39.5335 47.8408 39.7953 47.4575 39.7953C47.0746 39.7953 46.7629 39.5335 46.7629 39.2118C46.7629 38.89 47.0746 38.6283 47.4575 38.6283ZM39 36.1708C32.1837 36.1708 26.6379 31.515 26.6379 25.7925C26.6379 20.0701 32.1837 15.4146 39 15.4146C45.8167 15.4146 51.3617 20.0701 51.3617 25.7925C51.3617 31.5153 45.8163 36.1708 39 36.1708ZM56.663 34.616C56.2797 34.616 55.968 34.3543 55.968 34.0326C55.968 33.7115 56.2797 33.4498 56.663 33.4498C57.0463 33.4498 57.3576 33.7115 57.3576 34.0326C57.358 34.3543 57.0463 34.616 56.663 34.616Z" fill="white"/>
</svg>
