<svg width="78" height="55" viewBox="0 0 78 55" fill="none" xmlns="http://www.w3.org/2000/svg">
<rect y="0.192383" width="78" height="54.5378" rx="5" fill="#707EFF"/>
<path d="M24.646 11.001V12.8047H27.8285V11.001H29.4745V15.316H48.5255V11.001H50.1715V12.8047H53.354V11.001H55V43.001H53.354V40.916H50.1715V43.001H48.5255V38.4888H29.4771V43.001H27.8311V40.916H24.646V43.001H23V11.001H24.646ZM36.2563 27.6491L39.6185 23.7633L41.7958 26.0977L38.3971 30.0328L36.2563 27.6491ZM41.6812 22.1684C41.5796 22.0611 41.4624 22.006 41.3296 22.0118C41.1968 22.0118 41.0796 22.0698 40.9858 22.1829L40.2097 23.0818L42.387 25.4249L43.1709 24.5114C43.2673 24.4041 43.3037 24.2679 43.3037 24.12C43.3037 23.9721 43.2516 23.8329 43.1579 23.7372L41.6812 22.1684ZM37.6054 30.952C37.3189 31.0593 37.0272 31.155 36.7407 31.2623C36.4542 31.3696 36.1677 31.474 35.876 31.5813C35.1937 31.8249 34.8213 31.9641 34.7405 31.9902C34.6598 32.0134 34.7119 31.6625 34.8786 30.9288L35.4203 28.6177L35.4646 28.5655L37.6054 30.952ZM48.5255 17.1487H29.4771V36.6561H48.5281V17.1487H48.5255ZM53.3566 39.0833V35.6614H50.1741V39.0833H53.3566ZM53.3566 33.8287V30.4069H50.1741V33.8287H53.3566ZM53.3566 28.5713V25.1494H50.1741V28.5713H53.3566ZM53.3566 23.3167V19.8949H50.1741V23.3167H53.3566ZM53.3566 18.0621V14.6403H50.1741V18.0621H53.3566ZM27.8285 39.0833V35.6614H24.646V39.0833H27.8285ZM27.8285 33.8287V30.4069H24.646V33.8287H27.8285ZM27.8285 28.5713V25.1494H24.646V28.5713H27.8285ZM27.8285 23.3167V19.8949H24.646V23.3167H27.8285ZM27.8285 18.0621V14.6403H24.646V18.0621H27.8285Z" fill="white"/>
</svg>
