<svg width="79" height="56" viewBox="0 0 79 56" fill="none" xmlns="http://www.w3.org/2000/svg">
<rect x="0.853516" y="0.839844" width="77.3319" height="54.5378" rx="5" fill="#2B459B"/>
<path d="M47.2246 40.1811C47.08 40.1278 46.9231 40.097 46.757 40.097C46.5909 40.097 46.434 40.1278 46.2894 40.1811C46.1449 40.2371 46.0126 40.3156 45.9049 40.4165L45.8957 40.4221C45.8342 40.4782 45.7757 40.5426 45.7296 40.6127C45.705 40.6492 45.6804 40.6884 45.6588 40.7304H43.7178V39.1944C43.4194 39.3206 43.1087 39.4159 42.7919 39.4747C42.7365 39.4859 42.6842 39.4944 42.6288 39.5028V41.2237C42.6288 41.3611 42.6904 41.4844 42.7888 41.5741C42.8872 41.6638 43.0226 41.7199 43.1733 41.7199H45.6773C45.6958 41.7535 45.7173 41.7871 45.7419 41.8208C45.785 41.8796 45.8342 41.9357 45.8895 41.9861L45.8988 41.9945C46.0095 42.0954 46.1449 42.1795 46.2956 42.2356C46.4402 42.2889 46.5971 42.3197 46.7632 42.3197C46.9231 42.3197 47.08 42.2917 47.2215 42.2384L47.2307 42.2356C47.3815 42.1795 47.5138 42.0954 47.6276 41.9945C47.7383 41.8936 47.8306 41.7703 47.8921 41.633C47.9506 41.5012 47.9844 41.3583 47.9844 41.2069C47.9844 41.0584 47.9506 40.9154 47.8921 40.7809C47.8306 40.6435 47.7383 40.5202 47.6276 40.4193C47.5107 40.3212 47.3753 40.2371 47.2246 40.1811ZM38.3499 29.6702H36.0736L35.7475 30.6456H33.6988L36.1443 24.7258H38.3407L40.777 30.6456H38.676L38.3499 29.6702ZM37.9254 28.3864L37.2148 26.259L36.5011 28.3864H37.9254ZM41.343 24.723H43.3579V30.6428H41.343V24.723ZM39.808 18.6547C39.4758 18.8734 39.1682 19.1677 38.9005 19.5489C38.8882 19.5685 38.8698 19.5853 38.8482 19.5965C38.7652 19.6442 38.6544 19.6217 38.6022 19.5489C38.3345 19.1677 38.0269 18.8734 37.6947 18.6547C37.3379 18.4193 36.9533 18.2707 36.5565 18.1979H36.5504C36.1628 18.125 35.7659 18.125 35.3845 18.1867C34.9815 18.2511 34.5909 18.3857 34.2402 18.5707C33.8926 18.7556 33.5788 18.9939 33.3173 19.2686C33.0651 19.5349 32.8621 19.8404 32.7298 20.1683C32.7083 20.2188 32.6898 20.272 32.6713 20.3281C32.656 20.3785 32.6375 20.4346 32.6252 20.4906C32.6098 20.5635 32.5421 20.6168 32.456 20.6196C32.0438 20.6756 31.6347 20.813 31.2532 21.0176C30.8656 21.2278 30.5057 21.5137 30.195 21.8557C29.8874 22.1976 29.629 22.6012 29.4445 23.0497C29.2722 23.4701 29.1676 23.9326 29.1461 24.4231C29.143 24.4876 29.143 24.5493 29.143 24.6137C29.143 24.6726 29.1461 24.7342 29.1461 24.7987C29.1492 24.852 29.1245 24.908 29.0722 24.9417C28.82 25.107 28.5924 25.278 28.3893 25.4546C28.1832 25.6368 28.0017 25.8246 27.8449 26.018C27.5895 26.3347 27.4019 26.6654 27.2758 26.999C27.1435 27.3466 27.0789 27.7025 27.0728 28.0529C27.0697 28.3892 27.1189 28.7228 27.2235 29.0451C27.3281 29.3731 27.488 29.6926 27.6941 29.9897C27.811 30.1607 27.9433 30.3288 28.0879 30.4858C28.2355 30.6456 28.3955 30.7969 28.5678 30.9399C28.6108 30.9763 28.6354 31.0352 28.6231 31.0912C28.5739 31.3043 28.5493 31.5145 28.5401 31.7219C28.5339 31.9349 28.5462 32.1451 28.577 32.3497C28.6354 32.7253 28.7554 33.0841 28.9246 33.4148C29.103 33.768 29.3368 34.0903 29.6075 34.3734C29.869 34.6509 30.1674 34.892 30.4873 35.091C30.8103 35.2928 31.1517 35.4498 31.5024 35.5591C31.6593 35.6067 31.8192 35.646 31.9823 35.674C32.1361 35.702 32.2899 35.7188 32.4406 35.7244C32.5237 35.7216 32.6006 35.7749 32.619 35.8534C32.699 36.1869 32.8467 36.5008 33.0497 36.7839C33.262 37.081 33.5296 37.3445 33.8372 37.5631C34.2248 37.8378 34.6801 38.0452 35.1599 38.1546C35.6121 38.2583 36.0889 38.2779 36.5565 38.1882C36.9749 38.1097 37.3809 37.9471 37.7562 37.6893C38.1007 37.451 38.4207 37.1315 38.6883 36.7167C38.7037 36.6914 38.7283 36.6718 38.759 36.6578C38.8452 36.6158 38.9528 36.6466 38.999 36.7251C39.2205 37.1007 39.4912 37.4006 39.7926 37.6276C40.1187 37.8715 40.4786 38.0368 40.857 38.1321C41.3399 38.2527 41.8444 38.2527 42.3335 38.1602C42.8565 38.0621 43.361 37.8547 43.7947 37.5688C44.1361 37.3473 44.4376 37.0754 44.6775 36.7671C44.9052 36.4784 45.0744 36.1561 45.1728 35.8169C45.1851 35.7525 45.2405 35.6964 45.3174 35.6852C45.7696 35.6123 46.2156 35.4413 46.6247 35.1863C47.0339 34.9312 47.4061 34.5949 47.7106 34.1941C47.9906 33.8241 48.2151 33.398 48.3597 32.9327C48.495 32.4983 48.5596 32.0274 48.5381 31.5313C48.532 31.4752 48.5596 31.4192 48.615 31.3855C48.8796 31.2202 49.1133 31.0464 49.3225 30.8698C49.5348 30.6848 49.7224 30.4942 49.8824 30.2952C50.1285 29.9925 50.31 29.6786 50.4361 29.3562C50.5653 29.0227 50.633 28.6835 50.6453 28.3444C50.6545 28.0164 50.6114 27.6913 50.5191 27.3718C50.4269 27.0494 50.2823 26.7383 50.0946 26.444L50.0885 26.4384C49.9654 26.245 49.8209 26.06 49.6609 25.8806C49.5009 25.7012 49.3195 25.5331 49.1257 25.3733C49.0795 25.3369 49.0549 25.278 49.0672 25.2191C49.1103 25.0257 49.138 24.8323 49.1472 24.6417C49.1564 24.4483 49.1503 24.2578 49.1287 24.07C49.0826 23.6804 48.9688 23.3104 48.8027 22.9656C48.6273 22.6012 48.3935 22.2649 48.1198 21.9706C47.8552 21.6847 47.5507 21.4352 47.2246 21.2278C46.8985 21.0204 46.5509 20.8578 46.1972 20.7485L46.1879 20.7457C46.0003 20.6868 45.8096 20.6448 45.6219 20.6168H45.6158C45.4312 20.5887 45.2466 20.5775 45.0651 20.5803C44.9821 20.5859 44.9021 20.5355 44.8806 20.457C44.8498 20.3421 44.8098 20.23 44.7637 20.1207C44.7145 20.0085 44.6591 19.8992 44.5945 19.7899C44.4284 19.5096 44.21 19.2518 43.9547 19.0303C43.6932 18.8033 43.3948 18.6099 43.0749 18.4613C42.7457 18.31 42.3858 18.2035 42.0167 18.1558C41.666 18.111 41.3061 18.1166 40.9523 18.1839C40.5555 18.2707 40.1648 18.4193 39.808 18.6547ZM44.8375 21.8108C44.859 21.7491 44.9206 21.7015 44.9975 21.6959C45.1267 21.6875 45.2589 21.6931 45.3912 21.7127C45.5266 21.7323 45.6619 21.7632 45.7973 21.8052C46.0526 21.8837 46.3079 22.0042 46.5448 22.1556C46.7786 22.3041 47 22.4863 47.1908 22.6937L47.1938 22.6993C47.3938 22.9152 47.563 23.1562 47.6891 23.4197C47.8091 23.6663 47.889 23.9298 47.9229 24.2073C47.9444 24.3923 47.9444 24.5857 47.9198 24.7819C47.8983 24.9641 47.8521 25.1519 47.7814 25.3397L47.7783 25.3509C47.7352 25.4686 47.7383 25.5919 47.7783 25.7012C47.8214 25.8134 47.9013 25.9143 48.0152 25.9815L48.0244 25.9871C48.2397 26.1329 48.4304 26.2927 48.5966 26.4608C48.7688 26.6318 48.9165 26.8168 49.0395 27.0074C49.1749 27.2176 49.2795 27.4362 49.3441 27.6605C49.4117 27.8819 49.4425 28.1061 49.4333 28.3276C49.4271 28.5574 49.3779 28.7872 49.2887 29.0143C49.2026 29.2301 49.0764 29.4431 48.9103 29.6505L48.9072 29.6533C48.7565 29.8411 48.5658 30.0261 48.3412 30.2027C48.1259 30.3709 47.8767 30.5307 47.5907 30.6848L47.5814 30.6904C47.4676 30.7493 47.3846 30.839 47.3353 30.9427C47.2861 31.0464 47.2707 31.1613 47.2953 31.2734L47.2984 31.2959C47.3569 31.7247 47.3292 32.1339 47.2338 32.5067C47.1292 32.9131 46.9477 33.2775 46.7109 33.5886C46.5294 33.8269 46.3202 34.0315 46.0956 34.1941C45.8649 34.3622 45.6158 34.4856 45.3605 34.5612H45.3574C45.2651 34.5865 45.1636 34.5388 45.1359 34.4547C44.7883 33.4205 44.1884 33.0869 43.1733 32.6104L43.1518 32.5992C43.0103 32.5375 42.8565 32.5319 42.718 32.5712C42.5796 32.6104 42.4596 32.6973 42.3889 32.8234L42.3797 32.8403C42.312 32.9692 42.3058 33.1093 42.3489 33.2355C42.395 33.3616 42.4935 33.4737 42.635 33.541C43.484 33.9362 44.1115 34.2361 44.1023 35.2059C44.0992 35.4946 44.0008 35.7749 43.8347 36.0272C43.6593 36.2934 43.4071 36.5317 43.1149 36.7251C42.8165 36.9213 42.4812 37.0642 42.1366 37.1343C41.8075 37.2044 41.4691 37.2072 41.1523 37.1287C40.617 36.9942 40.2694 36.669 40.0356 36.2738C39.8142 35.8982 39.6911 35.461 39.6019 35.063C39.5958 35.0489 39.5958 35.0321 39.5958 35.0181C39.5958 34.8163 39.4235 34.6846 39.1989 34.6257C39.1005 34.5977 38.9928 34.5865 38.8882 34.5865C38.7806 34.5865 38.676 34.6005 38.5775 34.6257C38.3561 34.6874 38.1838 34.8191 38.1838 35.0181C38.1838 35.0321 38.1807 35.0433 38.1776 35.0574C38.0054 35.6796 37.7562 36.1477 37.464 36.484C37.1225 36.8792 36.7226 37.0951 36.3104 37.1735C36.009 37.2296 35.6983 37.2156 35.403 37.1455C35.0923 37.0698 34.797 36.9325 34.5386 36.7531C34.2832 36.5709 34.071 36.3495 33.9233 36.1C33.7818 35.8618 33.6988 35.5983 33.6988 35.3292C33.6988 34.309 34.3755 33.967 35.2707 33.5494C35.4122 33.4821 35.5106 33.37 35.5568 33.2439C35.6029 33.1149 35.5937 32.972 35.5229 32.8403C35.4491 32.7113 35.3261 32.6216 35.1876 32.5796C35.0492 32.5403 34.8954 32.5459 34.7539 32.6076L34.7447 32.6104C33.6895 33.1009 33.0589 33.4597 32.6806 34.5276C32.659 34.5977 32.5852 34.6509 32.5022 34.6481C32.3976 34.6453 32.293 34.6341 32.1853 34.6145C32.0807 34.5949 31.9761 34.5696 31.8777 34.536C31.6285 34.4575 31.3794 34.3426 31.1456 34.1969C30.9149 34.0511 30.6995 33.8773 30.5088 33.6755C30.3119 33.4681 30.1427 33.2355 30.0135 32.9804C29.8905 32.7421 29.8044 32.4871 29.7613 32.2208V32.2152C29.7305 32.019 29.7244 31.8144 29.749 31.6042C29.7705 31.408 29.8167 31.2034 29.8936 31.0015L29.8967 30.9931C29.9397 30.8782 29.9366 30.7577 29.8997 30.6512L29.8967 30.6456C29.8567 30.5335 29.7767 30.4354 29.6659 30.3653L29.6598 30.3597C29.4629 30.2251 29.2845 30.0822 29.1276 29.9252C28.9677 29.7683 28.8262 29.6001 28.7093 29.4263C28.5678 29.2161 28.457 28.9919 28.3832 28.762C28.3124 28.5378 28.2755 28.308 28.2786 28.0725C28.2817 27.8343 28.3278 27.5904 28.4201 27.3522C28.5093 27.1251 28.6385 26.8981 28.8169 26.6767C28.9677 26.4889 29.1522 26.3039 29.3737 26.1273C29.586 25.9563 29.8259 25.7937 30.1028 25.6396C30.2043 25.5835 30.2781 25.505 30.3273 25.4153L30.3304 25.4069C30.3796 25.3144 30.3981 25.2107 30.3827 25.107C30.3796 25.0958 30.3796 25.0846 30.3796 25.0734V25.0678C30.3642 24.9697 30.355 24.8716 30.3489 24.7763C30.3427 24.6726 30.3427 24.5689 30.3458 24.468C30.3612 24.1008 30.4381 23.756 30.5642 23.4449C30.6995 23.1114 30.8903 22.8115 31.1179 22.5564C31.3055 22.3462 31.5209 22.1696 31.7454 22.0322C31.97 21.8949 32.2068 21.7968 32.4499 21.7407C32.5421 21.7155 32.6437 21.7632 32.6713 21.8472C32.8621 22.3966 33.102 22.7414 33.5603 23.131L33.5788 23.145C33.6926 23.2403 33.8403 23.2851 33.9849 23.2795C34.1294 23.2739 34.2709 23.2207 34.3755 23.117L34.3848 23.1058C34.4893 23.002 34.5386 22.8675 34.5324 22.7358C34.5263 22.604 34.4647 22.4723 34.3478 22.3714C33.9787 22.0603 33.8956 21.8669 33.7849 21.5529C33.6557 21.1914 33.6772 20.8382 33.8034 20.5243C33.8895 20.3085 34.0248 20.1066 34.1971 19.9301C34.3663 19.7535 34.5724 19.5965 34.8 19.476L34.8093 19.4704C35.0431 19.3471 35.2953 19.2574 35.5568 19.2125C35.8059 19.1705 36.0613 19.1677 36.3104 19.2153C36.6611 19.2826 37.0056 19.4508 37.3102 19.7423C37.5778 19.9973 37.8147 20.3505 38.0023 20.8158L38.0054 20.8214C38.07 21.0036 38.2792 21.1101 38.5253 21.1521C38.636 21.1718 38.7529 21.1774 38.8667 21.1717H38.8698C38.9867 21.1661 39.0974 21.1465 39.202 21.1157C39.3866 21.0596 39.5312 20.9699 39.565 20.855V20.7906C39.565 20.4654 39.7772 20.1207 40.0695 19.8376C40.3894 19.5292 40.817 19.2854 41.1769 19.2181C41.4045 19.1761 41.6352 19.1733 41.8598 19.2041C42.0936 19.2377 42.3212 19.305 42.5365 19.4031L42.555 19.4087C42.7734 19.5096 42.9734 19.6386 43.1487 19.7899C43.321 19.9413 43.4686 20.1123 43.5794 20.3C43.7547 20.5944 43.8347 20.9307 43.7793 21.2867C43.7301 21.5978 43.7178 21.794 43.4317 22.1051L43.4286 22.1079C43.3271 22.2172 43.2841 22.3546 43.2964 22.4891C43.3087 22.618 43.3733 22.7442 43.4871 22.8339L43.5055 22.8479C43.6255 22.9376 43.7732 22.974 43.9177 22.9628C44.0592 22.9516 44.1977 22.8927 44.2961 22.789L44.3115 22.7694C44.6068 22.4499 44.7022 22.2144 44.8375 21.8108ZM51.5927 35.5282C51.5343 35.3965 51.5004 35.2536 51.5004 35.1022C51.5004 34.9508 51.5343 34.8079 51.5927 34.6762C51.6543 34.5444 51.7404 34.4239 51.8511 34.3258L51.8573 34.3174C51.9188 34.2613 51.9895 34.2081 52.0665 34.166C52.1064 34.1436 52.1495 34.1212 52.1957 34.1016V32.3329H49.8086C49.8116 32.218 49.8116 32.1031 49.8055 31.9854C49.7993 31.9209 49.8301 31.8564 49.8916 31.82C50.1377 31.6658 50.3623 31.5061 50.5653 31.3407H52.7371C52.8878 31.3407 53.0231 31.3968 53.1216 31.4864C53.22 31.5761 53.2815 31.6995 53.2815 31.8368V34.1184C53.3184 34.1352 53.3554 34.1548 53.3923 34.1772C53.4569 34.2165 53.5184 34.2613 53.5738 34.3118L53.583 34.3202C53.6937 34.4211 53.786 34.5444 53.8475 34.6818C53.906 34.8135 53.9398 34.9564 53.9398 35.1078C53.9398 35.2536 53.9091 35.3937 53.8506 35.5254L53.8475 35.5338C53.786 35.6712 53.6937 35.7917 53.583 35.8954C53.4723 35.9963 53.3369 36.0804 53.1862 36.1365C53.0416 36.1897 52.8847 36.2206 52.7186 36.2206C52.5556 36.2206 52.3987 36.1897 52.251 36.1365C52.1003 36.0804 51.9649 35.9963 51.8542 35.8954C51.7465 35.7889 51.6543 35.6656 51.5927 35.5282ZM55.0503 29.8524H51.805C51.8603 29.743 51.9096 29.6337 51.9526 29.5216C52.0388 29.303 52.1003 29.0816 52.1372 28.8601H55.0503C55.0718 28.8237 55.0934 28.7872 55.118 28.7508C55.1641 28.6835 55.2195 28.6219 55.278 28.5686C55.3918 28.4649 55.524 28.3836 55.6748 28.3276C55.8194 28.2743 55.9762 28.2435 56.1423 28.2435C56.3023 28.2435 56.4561 28.2715 56.6007 28.3248L56.6099 28.3276C56.7607 28.3836 56.8929 28.4677 57.0067 28.5686C57.1175 28.6695 57.2098 28.7929 57.2713 28.9302C57.3297 29.0619 57.3636 29.2049 57.3636 29.3562C57.3636 29.5048 57.3297 29.6477 57.2713 29.7823C57.2098 29.9196 57.1175 30.0429 57.0067 30.1439C56.896 30.2448 56.7607 30.3288 56.6099 30.3849C56.4653 30.4382 56.3085 30.469 56.1423 30.469C55.9824 30.469 55.8286 30.441 55.684 30.3877L55.6748 30.3849C55.524 30.3288 55.3918 30.2448 55.278 30.1439C55.2195 30.0906 55.1672 30.0317 55.1211 29.9673L55.1149 29.9589C55.0934 29.9252 55.0718 29.8888 55.0503 29.8524ZM56.0839 27.1391H52.0019C51.8973 26.8252 51.7496 26.5197 51.565 26.2282L51.5589 26.2198C51.5435 26.1946 51.5281 26.1721 51.5127 26.1469H55.5425V22.9096C55.5117 22.8927 55.481 22.8759 55.4502 22.8563C55.3887 22.8171 55.3333 22.775 55.281 22.7274C55.1703 22.6265 55.078 22.5031 55.0165 22.3658C54.958 22.2341 54.9242 22.0911 54.9242 21.9397C54.9242 21.7912 54.958 21.6454 55.0165 21.5137C55.078 21.3764 55.1703 21.2558 55.281 21.1521C55.3918 21.0512 55.5271 20.9671 55.6779 20.9111C55.8224 20.8578 55.9793 20.827 56.1454 20.827C56.3085 20.827 56.4653 20.8578 56.613 20.9111C56.7637 20.9671 56.8991 21.0512 57.0098 21.1521C57.1206 21.253 57.2128 21.3764 57.2744 21.5137C57.3328 21.6454 57.3667 21.7884 57.3667 21.9397C57.3667 22.0855 57.3359 22.2256 57.2774 22.3574L57.2744 22.3658C57.2128 22.5031 57.1206 22.6237 57.0098 22.7274C56.9421 22.789 56.8622 22.8451 56.7791 22.8927C56.733 22.918 56.6807 22.9432 56.6315 22.9628V26.6402C56.6315 26.7776 56.5699 26.9009 56.4715 26.9906C56.37 27.0831 56.2346 27.1391 56.0839 27.1391ZM51.8173 24.7455H50.4269C50.4638 24.5605 50.4853 24.3755 50.4945 24.1905C50.5007 24.0419 50.5007 23.8962 50.4915 23.7532H51.2728V22.2901C51.2297 22.2705 51.1898 22.2509 51.1498 22.2256C51.0759 22.1836 51.0083 22.1331 50.9437 22.0743C50.8329 21.9734 50.7406 21.8501 50.6791 21.7127C50.6207 21.581 50.5868 21.438 50.5868 21.2895C50.5868 21.1409 50.6207 20.998 50.6791 20.8634C50.7406 20.7317 50.8268 20.6112 50.9344 20.5103L50.9437 20.5019C51.0544 20.401 51.1898 20.3169 51.3405 20.2608C51.4851 20.2075 51.6419 20.1767 51.8081 20.1767C51.9742 20.1767 52.1311 20.2075 52.2756 20.2608C52.4202 20.3169 52.5525 20.3953 52.6632 20.4962L52.6725 20.5019C52.7832 20.6028 52.8724 20.7205 52.9339 20.855L52.937 20.8634C52.9954 20.9952 53.0293 21.1381 53.0293 21.2895C53.0293 21.438 52.9954 21.5838 52.937 21.7155C52.8755 21.8472 52.7893 21.9678 52.6817 22.0687L52.6725 22.0771C52.614 22.1303 52.5494 22.178 52.4756 22.2228C52.4387 22.2453 52.4018 22.2649 52.3618 22.2817V24.2493C52.3618 24.3867 52.3002 24.51 52.2018 24.5997C52.1034 24.6894 51.9649 24.7455 51.8173 24.7455ZM30.2596 16.2611C30.4042 16.3143 30.5611 16.3451 30.7272 16.3451C30.8933 16.3451 31.0502 16.3143 31.1948 16.2611C31.3394 16.205 31.4716 16.1265 31.5793 16.0256L31.5885 16.02C31.6501 15.9639 31.7085 15.8995 31.7547 15.8294C31.7793 15.793 31.8039 15.7537 31.8254 15.7117H33.7664V17.2393C34.1079 17.0739 34.477 16.9534 34.8554 16.8833V15.2156C34.8554 15.0782 34.7939 14.9549 34.6954 14.8652C34.597 14.7755 34.4617 14.7195 34.3109 14.7195H31.8069C31.7885 14.6858 31.767 14.6522 31.7423 14.6186C31.6993 14.5597 31.6501 14.5036 31.5947 14.4532L31.5855 14.4448C31.4747 14.3439 31.3394 14.2598 31.1886 14.2037C31.0441 14.1505 30.8872 14.1196 30.7211 14.1196C30.5611 14.1196 30.4042 14.1477 30.2627 14.2009L30.2535 14.2037C30.1028 14.2598 29.9705 14.3439 29.8567 14.4448C29.7459 14.5457 29.6536 14.669 29.5921 14.8063C29.5337 14.9381 29.4998 15.081 29.4998 15.2324C29.4998 15.3809 29.5337 15.5239 29.5921 15.6584C29.6536 15.7958 29.7459 15.9191 29.8567 16.02C29.9766 16.1209 30.1089 16.205 30.2596 16.2611ZM36.4919 13.1106V16.9394C36.8549 17.0347 37.2087 17.186 37.5409 17.4046L37.5778 17.4299C37.5778 17.4215 37.5809 17.4131 37.5809 17.4046V13.1106C37.6209 13.091 37.6609 13.0713 37.7008 13.0489C37.7747 13.0069 37.8423 12.9564 37.9008 12.9032C38.0115 12.7995 38.1038 12.6789 38.1653 12.5416C38.2238 12.4099 38.2576 12.2669 38.2576 12.1156C38.2576 11.9698 38.2269 11.8297 38.1684 11.6979L38.1653 11.6895C38.1038 11.5522 38.0115 11.4316 37.9008 11.3279C37.7901 11.227 37.6547 11.1429 37.504 11.0869C37.3594 11.0336 37.2025 11.0028 37.0364 11.0028C36.8734 11.0028 36.7165 11.0336 36.5688 11.0869C36.4181 11.1429 36.2827 11.227 36.172 11.3279C36.0613 11.4288 35.969 11.5522 35.9074 11.6895C35.849 11.8213 35.8152 11.9642 35.8152 12.1156C35.8152 12.2613 35.8459 12.4015 35.9044 12.5332L35.9074 12.5416C35.969 12.6789 36.0613 12.7995 36.172 12.9032C36.2304 12.9564 36.295 13.0041 36.3658 13.0461L36.3719 13.0489C36.4119 13.0713 36.4489 13.091 36.4919 13.1106ZM39.4666 12.1688V17.769C39.6142 17.6317 39.7711 17.5112 39.931 17.4046C40.131 17.2729 40.3402 17.1636 40.5555 17.0795V12.6621H44.1085C44.1269 12.6902 44.1454 12.7182 44.1669 12.7462C44.21 12.8023 44.2561 12.8527 44.3084 12.9004C44.4192 13.0013 44.5545 13.0854 44.7052 13.1414C44.8498 13.1947 45.0067 13.2255 45.1728 13.2255C45.3358 13.2255 45.4958 13.1947 45.6404 13.1414C45.7911 13.0854 45.9265 13.0013 46.0372 12.9004C46.1479 12.7995 46.2402 12.6761 46.3018 12.5388C46.3602 12.4071 46.394 12.2641 46.394 12.1128C46.394 11.9642 46.3602 11.8213 46.3018 11.6867C46.2402 11.5494 46.1479 11.426 46.0372 11.3251C45.9203 11.2242 45.785 11.1401 45.6342 11.0841C45.4896 11.0308 45.3328 11 45.1697 11C45.0098 11 44.856 11.028 44.7114 11.0813L44.7022 11.0841C44.5514 11.1401 44.4191 11.2242 44.3053 11.3251C44.2377 11.3868 44.1761 11.4597 44.1238 11.5354C44.0962 11.5774 44.0685 11.625 44.0469 11.6699H40.011C39.8603 11.6699 39.7249 11.726 39.6265 11.8156C39.5281 11.9081 39.4666 12.0315 39.4666 12.1688ZM42.0936 16.0564V16.8244C42.2043 16.83 42.3181 16.8385 42.4289 16.8553C42.6873 16.8889 42.9395 16.9478 43.1825 17.0291V16.5554H44.7883C44.8098 16.5946 44.8314 16.631 44.859 16.6675C44.9052 16.7347 44.9606 16.7964 45.0252 16.8553C45.1359 16.9562 45.2712 17.0403 45.422 17.0963C45.5666 17.1496 45.7234 17.1804 45.8865 17.1804C46.0495 17.1804 46.2064 17.1496 46.354 17.0963C46.4986 17.0403 46.6309 16.9618 46.7416 16.8637L46.7509 16.8553C46.8616 16.7544 46.9539 16.631 47.0154 16.4937C47.0739 16.362 47.1077 16.219 47.1077 16.0677C47.1077 15.9163 47.0739 15.7734 47.0154 15.6416C46.9539 15.5099 46.8678 15.3894 46.757 15.2884L46.7509 15.28C46.6401 15.1791 46.5109 15.0978 46.3633 15.0418L46.354 15.039C46.2095 14.9857 46.0526 14.9549 45.8865 14.9549C45.7234 14.9549 45.5635 14.9857 45.4189 15.039C45.2743 15.095 45.142 15.1735 45.0313 15.2716L45.0221 15.28C44.9636 15.3333 44.9113 15.3922 44.8621 15.4594C44.8375 15.4931 44.816 15.5267 44.7975 15.5631H42.6381C42.4873 15.5631 42.352 15.6192 42.2535 15.7089C42.1551 15.7958 42.0936 15.9191 42.0936 16.0564ZM26.4575 20.8662C26.516 20.998 26.5498 21.1409 26.5498 21.2923C26.5498 21.4436 26.516 21.5866 26.4575 21.7183C26.396 21.8501 26.3099 21.9706 26.1991 22.0687L26.193 22.0771C26.1315 22.1331 26.0607 22.1864 25.9838 22.2284C25.9438 22.2509 25.9007 22.2733 25.8546 22.2929V24.0615H27.8695V24.1484C27.8695 24.2157 27.8726 24.2858 27.8756 24.3587C27.8818 24.4203 27.851 24.482 27.7926 24.5212C27.528 24.6922 27.2912 24.8716 27.0758 25.0538H25.3163C25.1655 25.0538 25.0302 24.9977 24.9318 24.908C24.8333 24.8183 24.7718 24.695 24.7718 24.5577V22.2761C24.7349 22.2593 24.698 22.2397 24.6611 22.2172C24.5965 22.178 24.5349 22.1331 24.4796 22.0827L24.4703 22.0743C24.3596 21.9734 24.2673 21.8501 24.2058 21.7127C24.1473 21.581 24.1135 21.438 24.1135 21.2867C24.1135 21.1409 24.1443 21.0008 24.2027 20.869L24.2058 20.8606C24.2673 20.7233 24.3596 20.6028 24.4703 20.4991C24.5811 20.3981 24.7164 20.3141 24.8672 20.258C25.0117 20.2047 25.1686 20.1739 25.3347 20.1739C25.4978 20.1739 25.6546 20.2047 25.8023 20.258C25.953 20.3141 26.0884 20.3981 26.1991 20.4991C26.3037 20.6056 26.396 20.7289 26.4575 20.8662ZM22.9999 26.5421H25.8915C25.8423 26.643 25.7992 26.7467 25.7592 26.8476C25.6731 27.0747 25.6116 27.3017 25.5747 27.5315H22.9999C22.9784 27.568 22.9569 27.6044 22.9323 27.6409C22.8861 27.7081 22.8307 27.7698 22.7723 27.823C22.6585 27.9268 22.5262 28.008 22.3755 28.0641C22.2309 28.1174 22.074 28.1482 21.9079 28.1482C21.7479 28.1482 21.5941 28.1202 21.4496 28.0669L21.4403 28.0641C21.2896 28.008 21.1573 27.924 21.0435 27.823C20.9328 27.7221 20.8405 27.5988 20.779 27.4615C20.7205 27.3297 20.6867 27.1868 20.6867 27.0354C20.6867 26.8869 20.7205 26.7439 20.779 26.6094C20.8405 26.472 20.9328 26.3487 21.0435 26.2478C21.1542 26.1469 21.2896 26.0628 21.4403 26.0068C21.5849 25.9535 21.7418 25.9227 21.9079 25.9227C22.0679 25.9227 22.2217 25.9507 22.3662 26.004L22.3755 26.0068C22.5262 26.0628 22.6585 26.1469 22.7723 26.2478C22.8307 26.3011 22.883 26.3599 22.9292 26.4244L22.9353 26.4328C22.9569 26.4692 22.9784 26.5057 22.9999 26.5421ZM21.9663 29.2553H25.7285C25.8454 29.5945 26.0146 29.9224 26.2299 30.2335V30.2363L26.236 30.2476H22.5077V33.4849C22.5385 33.5017 22.5693 33.5186 22.6 33.5382C22.6616 33.5774 22.7169 33.6195 22.7692 33.6671C22.88 33.768 22.9722 33.8913 23.0338 34.0287C23.0922 34.1604 23.1261 34.3034 23.1261 34.4547C23.1261 34.6033 23.0922 34.749 23.0338 34.8808C22.9722 35.0181 22.88 35.1386 22.7692 35.2423C22.6585 35.3432 22.5231 35.4273 22.3724 35.4834C22.2278 35.5366 22.0709 35.5675 21.9048 35.5675C21.7418 35.5675 21.5849 35.5366 21.4372 35.4834C21.2865 35.4273 21.1512 35.3432 21.0404 35.2423C20.9297 35.133 20.8374 35.0097 20.7759 34.8752C20.7174 34.7434 20.6836 34.6005 20.6836 34.4491C20.6836 34.3034 20.7144 34.1632 20.7728 34.0315L20.7759 34.0231C20.8374 33.8857 20.9297 33.7652 21.0404 33.6615C21.1081 33.5998 21.1881 33.5438 21.2711 33.4961C21.3173 33.4709 21.3696 33.4457 21.4188 33.4261V29.7486C21.4188 29.6113 21.4803 29.488 21.5788 29.3983C21.6803 29.3114 21.8156 29.2553 21.9663 29.2553ZM26.233 31.649H27.2481C27.2143 31.834 27.1958 32.0162 27.1896 32.1956C27.1835 32.3469 27.1866 32.4955 27.1989 32.6412H26.7774V34.1044C26.8205 34.124 26.8605 34.1436 26.9005 34.1688C26.9743 34.2109 27.042 34.2613 27.1066 34.3202C27.2173 34.4211 27.3096 34.5444 27.3711 34.6818C27.4296 34.8135 27.4634 34.9564 27.4634 35.1078C27.4634 35.2592 27.4296 35.3993 27.3711 35.5338C27.3096 35.6656 27.2235 35.7861 27.1158 35.887L27.1066 35.8954C26.9958 35.9963 26.8605 36.0804 26.7098 36.1365C26.5652 36.1897 26.4083 36.2206 26.2422 36.2206C26.0761 36.2206 25.9192 36.1897 25.7746 36.1365C25.63 36.0804 25.4978 36.0019 25.387 35.901L25.3778 35.8954C25.2671 35.7945 25.1778 35.6768 25.1163 35.5423L25.1132 35.5338C25.0548 35.4021 25.021 35.2592 25.021 35.1078C25.021 34.9592 25.0548 34.8135 25.1132 34.6818C25.1748 34.55 25.2609 34.4295 25.3686 34.3286L25.3778 34.3202C25.4362 34.2669 25.5008 34.2193 25.5747 34.1744C25.6116 34.152 25.6485 34.1324 25.6885 34.1156V32.1479C25.6885 32.0106 25.75 31.8873 25.8484 31.7976C25.9469 31.7023 26.0822 31.649 26.233 31.649ZM40.9954 43.3315V39.4103C40.6109 39.301 40.2479 39.1244 39.9157 38.8749L39.9095 38.8693V43.3343C39.8695 43.354 39.8295 43.3736 39.7895 43.396C39.7157 43.438 39.648 43.4885 39.5896 43.5417C39.4789 43.6455 39.3866 43.766 39.325 43.9033C39.2666 44.0351 39.2328 44.178 39.2328 44.3294C39.2328 44.4751 39.2635 44.6153 39.322 44.747L39.325 44.7554C39.3866 44.8927 39.4789 45.0133 39.5896 45.117C39.7003 45.2179 39.8357 45.302 39.9864 45.358C40.131 45.4113 40.2879 45.4421 40.454 45.4421C40.617 45.4421 40.7739 45.4113 40.9216 45.358C41.0723 45.302 41.2077 45.2179 41.3184 45.117C41.4291 45.0161 41.5214 44.8927 41.5829 44.7554C41.6414 44.6237 41.6752 44.4807 41.6752 44.3294C41.6752 44.1836 41.6445 44.0435 41.586 43.9117L41.5829 43.9033C41.5214 43.766 41.4291 43.6455 41.3184 43.5417C41.2599 43.4885 41.1953 43.4408 41.1246 43.3988L41.1154 43.3932C41.0754 43.3708 41.0354 43.3512 40.9954 43.3315ZM38.0177 44.2733V38.6226C37.8885 38.7432 37.7531 38.8497 37.6116 38.9478C37.3932 39.0991 37.1656 39.2197 36.9287 39.315V43.7828H33.3758C33.3573 43.7548 33.3389 43.7267 33.3173 43.6987C33.2743 43.6427 33.2281 43.5922 33.1758 43.5446C33.0651 43.4436 32.9297 43.3596 32.779 43.3035C32.6344 43.2502 32.4775 43.2194 32.3114 43.2194C32.1484 43.2194 31.9884 43.2502 31.8439 43.3035C31.6931 43.3596 31.5609 43.4436 31.447 43.5446C31.3363 43.6455 31.244 43.7688 31.1825 43.9061C31.124 44.0379 31.0902 44.1808 31.0902 44.3322C31.0902 44.4807 31.124 44.6237 31.1825 44.7582C31.244 44.8956 31.3363 45.0189 31.447 45.1198C31.5578 45.2207 31.6931 45.3048 31.8439 45.3608C31.9884 45.4141 32.1453 45.4449 32.3114 45.4449C32.4714 45.4449 32.6252 45.4169 32.7698 45.3636L32.779 45.3608C32.9297 45.3048 33.062 45.2207 33.1758 45.1198C33.2435 45.0581 33.305 44.9852 33.3573 44.9096C33.385 44.8675 33.4127 44.8199 33.4342 44.775H37.4701C37.6209 44.775 37.7562 44.719 37.8547 44.6293C37.9562 44.534 38.0177 44.4107 38.0177 44.2733ZM35.3907 40.3857V39.57C35.1507 39.5588 34.9108 39.5252 34.677 39.4719C34.5509 39.4439 34.4247 39.4075 34.3017 39.3682V39.8924H32.696C32.6744 39.8531 32.6529 39.8167 32.6252 39.7802C32.5791 39.713 32.5237 39.6513 32.4591 39.5925C32.3483 39.4916 32.213 39.4075 32.0623 39.3514C31.9177 39.2981 31.7608 39.2673 31.5978 39.2673C31.4347 39.2673 31.2778 39.2981 31.1302 39.3514C30.9856 39.4075 30.8533 39.4859 30.7426 39.584L30.7334 39.5897C30.6226 39.6906 30.5303 39.8139 30.4688 39.9512C30.4104 40.083 30.3765 40.2259 30.3765 40.3773C30.3765 40.5286 30.4104 40.6716 30.4688 40.8033C30.5303 40.935 30.6165 41.0556 30.7272 41.1565L30.7334 41.1649C30.8441 41.2658 30.9733 41.3471 31.121 41.4031L31.1302 41.4059C31.2748 41.4592 31.4317 41.49 31.5978 41.49C31.7608 41.49 31.9177 41.4592 32.0653 41.4059C32.2099 41.3499 32.3422 41.2714 32.4529 41.1733L32.4622 41.1649C32.5206 41.1116 32.5729 41.0528 32.6221 40.9855C32.6467 40.9519 32.6683 40.9182 32.6867 40.8818H34.8462C34.9969 40.8818 35.1323 40.8257 35.2307 40.736C35.3291 40.6463 35.3907 40.523 35.3907 40.3857Z" fill="white"/>
</svg>
