<svg width="78" height="57" viewBox="0 0 78 57" fill="none" xmlns="http://www.w3.org/2000/svg">
<rect width="78" height="57" rx="5" fill="#FF5740"/>
<path fill-rule="evenodd" clip-rule="evenodd" d="M21.8021 42.395H25.8094C25.6616 42.3395 25.5307 42.2164 25.437 42.0448C25.3432 41.8732 25.2918 41.6625 25.2906 41.4453V18.1406C25.2914 17.8799 25.3649 17.6303 25.4949 17.4464C25.625 17.2625 25.801 17.1592 25.9844 17.1592H30.3769L30.0936 18.7783H26.5287V41.1649H54.4938V18.7738H50.9926L50.6743 17.1547H54.9585C55.1401 17.1594 55.313 17.2655 55.4398 17.4501C55.5667 17.6346 55.6374 17.8826 55.6365 18.1406V41.4408C55.6364 41.6584 55.5853 41.8698 55.4914 42.0417C55.3975 42.2136 55.266 42.3363 55.1177 42.3905H59.3096C60.379 42.3905 60.379 45 59.3096 45H21.8021C20.7326 45 20.7326 42.395 21.8021 42.395ZM39.3686 10H42.0995C42.1966 10 42.2897 10.0548 42.3584 10.1524C42.427 10.2499 42.4656 10.3822 42.4656 10.5201V11.809H46.7816C46.8543 11.5107 46.974 11.24 47.1317 11.0176C47.269 10.8215 47.4322 10.6659 47.6119 10.5597C47.7916 10.4535 47.9843 10.3989 48.1789 10.3989C48.3736 10.3989 48.5663 10.4535 48.746 10.5597C48.9257 10.6659 49.0889 10.8215 49.2261 11.0176C49.3641 11.2126 49.4736 11.4444 49.5483 11.6998C49.6231 11.9551 49.6615 12.229 49.6615 12.5055C49.6615 12.7821 49.6231 13.0559 49.5483 13.3112C49.4736 13.5666 49.3641 13.7984 49.2261 13.9934C49.0889 14.1895 48.9257 14.3451 48.746 14.4513C48.5663 14.5575 48.3736 14.6121 48.1789 14.6121C47.9843 14.6121 47.7916 14.5575 47.6119 14.4513C47.4322 14.3451 47.269 14.1895 47.1317 13.9934C46.9711 13.7603 46.8511 13.4768 46.7816 13.1658H44.5536C45.2732 13.7567 45.9239 14.5028 46.4824 15.3773C47.5968 17.1264 48.3328 19.2949 48.6022 21.623H49.2006C49.259 21.6211 49.317 21.636 49.3712 21.6666C49.4254 21.6972 49.4748 21.7429 49.5163 21.8011C49.5579 21.8593 49.5908 21.9288 49.6131 22.0054C49.6354 22.082 49.6467 22.1642 49.6462 22.2471V25.0918C49.6467 25.1735 49.6357 25.2546 49.614 25.3303C49.5922 25.4059 49.5602 25.4748 49.5197 25.5328C49.4791 25.5908 49.4309 25.6369 49.3778 25.6683C49.3247 25.6997 49.2677 25.7159 49.2102 25.7159H47.2209C47.1632 25.7159 47.1061 25.6997 47.0528 25.6684C46.9995 25.637 46.9511 25.591 46.9103 25.5331C46.8695 25.4751 46.8371 25.4063 46.8151 25.3306C46.793 25.2549 46.7816 25.1737 46.7816 25.0918V22.2471C46.7816 22.0815 46.8279 21.9228 46.9103 21.8058C46.9926 21.6887 47.1044 21.623 47.2209 21.623H47.6792C47.4168 19.6247 46.7689 17.7693 45.8076 16.2637C44.9116 14.8575 43.7525 13.8426 42.4656 13.3377V14.4457C42.4664 14.5147 42.4576 14.5833 42.4396 14.6475C42.4216 14.7116 42.3947 14.77 42.3607 14.8193C42.3266 14.8686 42.2859 14.9077 42.2411 14.9344C42.1963 14.9611 42.1482 14.9748 42.0995 14.9748H39.3686C39.3204 14.9754 39.2726 14.9624 39.228 14.9365C39.1834 14.9105 39.1429 14.8722 39.1088 14.8238C39.0748 14.7754 39.0478 14.7178 39.0296 14.6545C39.0113 14.5911 39.0021 14.5232 39.0026 14.4547V13.3377C37.6818 13.8582 36.4977 14.9181 35.5969 16.3859C34.6802 17.8732 34.0594 19.681 33.7985 21.623H34.2473C34.305 21.623 34.3621 21.6391 34.4154 21.6705C34.4687 21.7018 34.5171 21.7478 34.5579 21.8058C34.5987 21.8637 34.631 21.9325 34.6531 22.0082C34.6752 22.084 34.6865 22.1651 34.6865 22.2471V25.0918C34.6865 25.1737 34.6752 25.2549 34.6531 25.3306C34.631 25.4063 34.5987 25.4751 34.5579 25.5331C34.5171 25.591 34.4687 25.637 34.4154 25.6684C34.3621 25.6997 34.305 25.7159 34.2473 25.7159H32.2675C32.2093 25.7171 32.1515 25.7018 32.0975 25.671C32.0434 25.6402 31.9943 25.5944 31.9528 25.5363C31.9113 25.4782 31.8784 25.409 31.8559 25.3327C31.8335 25.2564 31.8219 25.1745 31.8219 25.0918V22.2471C31.8219 22.1643 31.8335 22.0824 31.8559 22.0061C31.8784 21.9298 31.9113 21.8606 31.9528 21.8025C31.9943 21.7445 32.0434 21.6987 32.0975 21.6678C32.1515 21.637 32.2093 21.6218 32.2675 21.623H32.8755C33.1472 19.363 33.8545 17.2543 34.9189 15.5311C35.4889 14.5934 36.1631 13.7944 36.9146 13.1658H34.3396C34.2669 13.4628 34.1471 13.7321 33.9895 13.9527C33.8524 14.1492 33.6893 14.3051 33.5095 14.4114C33.3298 14.5178 33.137 14.5724 32.9423 14.5723C32.5484 14.5703 32.171 14.3477 31.8919 13.9527C31.7539 13.7577 31.6444 13.5259 31.5697 13.2705C31.495 13.0152 31.4565 12.7414 31.4565 12.4648C31.4565 12.1883 31.495 11.9144 31.5697 11.6591C31.6444 11.4037 31.7539 11.1719 31.8919 10.9769C32.0292 10.7808 32.1924 10.6252 32.3721 10.519C32.5518 10.4128 32.7445 10.3582 32.9391 10.3582C33.1337 10.3582 33.3265 10.4128 33.5062 10.519C33.6859 10.6252 33.8491 10.7808 33.9863 10.9769C34.1489 11.2104 34.2701 11.4957 34.3396 11.809H39.0026V10.5201C39.0021 10.4516 39.0113 10.3837 39.0296 10.3204C39.0478 10.257 39.0748 10.1994 39.1088 10.151C39.1429 10.1026 39.1834 10.0643 39.228 10.0384C39.2726 10.0125 39.3204 9.99942 39.3686 10ZM44.7637 28.4249L43.3473 33.5715L38.1241 33.4766L36.679 28.4249C37.9204 25.2591 39.184 21.4194 39.8333 18.023L40.5208 18.1316L40.4954 27.2309C40.3441 27.3089 40.2174 27.4612 40.1382 27.6603C40.059 27.8593 40.0324 28.0921 40.0634 28.3165C40.0943 28.5409 40.1807 28.7422 40.3069 28.8841C40.4331 29.026 40.5909 29.0991 40.7517 29.0902C40.9125 29.0814 41.0658 28.9911 41.1839 28.8358C41.302 28.6805 41.3772 28.4703 41.3958 28.2431C41.4144 28.016 41.3753 27.7868 41.2855 27.5971C41.1956 27.4073 41.061 27.2694 40.906 27.2083L40.9251 18.2039L41.7144 18.1406C42.2905 21.537 43.5414 25.3767 44.7637 28.4113V28.4249ZM43.2231 35.7785H38.1496V34.3404H43.2231V35.7785ZM39.4195 42.8247H41.689C42.2014 42.8247 42.2014 44.2402 41.689 44.2402H39.4195C38.9071 44.2402 38.9039 42.8247 39.4195 42.8247Z" fill="white"/>
</svg>
