<svg width="78" height="57" viewBox="0 0 78 57" fill="none" xmlns="http://www.w3.org/2000/svg">
<rect width="77.4958" height="57" rx="5" fill="#61ABA2"/>
<path d="M56.7738 26.2723C56.7738 23.1901 54.4348 20.6479 51.4425 20.338C50.8103 15.0446 46.3313 11 40.9298 11C36.2729 11 32.2481 13.9812 30.8503 18.3521C30.2626 18.1948 29.6562 18.115 29.0428 18.115C25.1585 18.115 22 21.2817 22 25.1761C22 28.6268 24.4818 31.5047 27.748 32.115V32.9742C26.8372 33.3122 26.184 34.1878 26.184 35.2183C26.184 36.5376 27.254 37.6103 28.5675 37.6103C29.8833 37.6103 30.9533 36.5376 30.9533 35.2183C30.9533 34.1878 30.3001 33.3122 29.387 32.9742V32.2371H31.7072V38C31.7072 38.8357 31.0283 39.5164 30.1947 39.5164H28.8578C28.5207 38.6009 27.6473 37.946 26.6195 37.946C25.3036 37.946 24.2337 39.0188 24.2337 40.338C24.2337 41.6573 25.3036 42.73 26.6195 42.73C27.6473 42.73 28.523 42.0751 28.8578 41.1596H30.1947C31.932 41.1596 33.3462 39.7418 33.3462 38V32.2371H35.6641V41.3638C34.751 41.7019 34.0978 42.5775 34.0978 43.608C34.0978 44.9272 35.1678 46 36.4836 46C37.7971 46 38.8671 44.9272 38.8671 43.608C38.8671 42.5775 38.2139 41.7019 37.3031 41.3638V32.2371H41.4707V41.3357C40.5599 41.6714 39.9067 42.5493 39.9067 43.5775C39.9067 44.8967 40.9767 45.9695 42.2902 45.9695C43.606 45.9695 44.676 44.8967 44.676 43.5775C44.676 42.5493 44.0228 41.6714 43.1096 41.3357V32.2371H45.4276V37.9718C45.4276 39.7136 46.8418 41.1291 48.579 41.1291H49.9159C50.2531 42.0446 51.1264 42.6995 52.1543 42.6995C53.4701 42.6995 54.5401 41.6268 54.5401 40.3075C54.5401 38.9906 53.4701 37.9178 52.1543 37.9178C51.1264 37.9178 50.2531 38.5728 49.9159 39.4859H48.579C47.7455 39.4859 47.0665 38.8075 47.0665 37.9718V32.2371H49.3868V32.946C48.4737 33.2817 47.8204 34.1596 47.8204 35.1878C47.8204 36.507 48.8904 37.5798 50.2063 37.5798C51.5198 37.5798 52.5898 36.507 52.5898 35.1878C52.5898 34.1596 51.9365 33.2817 51.0257 32.946V32.2324C54.2123 32.1244 56.7738 29.493 56.7738 26.2723ZM26.6195 41.0869C26.2074 41.0869 25.8726 40.7512 25.8726 40.338C25.8726 39.9249 26.2074 39.5892 26.6195 39.5892C27.0316 39.5892 27.3664 39.9249 27.3664 40.338C27.3664 40.7512 27.0316 41.0869 26.6195 41.0869ZM52.1543 39.561C52.5664 39.561 52.9012 39.8967 52.9012 40.3075C52.9012 40.7207 52.5664 41.0563 52.1543 41.0563C51.7422 41.0563 51.4074 40.7207 51.4074 40.3075C51.4074 39.8967 51.7422 39.561 52.1543 39.561ZM28.5675 35.9671C28.1578 35.9671 27.8229 35.6315 27.8229 35.2183C27.8229 34.8052 28.1578 34.4695 28.5675 34.4695C28.9796 34.4695 29.3144 34.8052 29.3144 35.2183C29.3144 35.6315 28.9796 35.9671 28.5675 35.9671ZM36.4836 44.3568C36.0715 44.3568 35.7367 44.0211 35.7367 43.608C35.7367 43.1948 36.0715 42.8592 36.4836 42.8592C36.8933 42.8592 37.2282 43.1948 37.2282 43.608C37.2282 44.0211 36.8933 44.3568 36.4836 44.3568ZM42.2902 44.3263C41.8804 44.3263 41.5456 43.9906 41.5456 43.5775C41.5456 43.1667 41.8804 42.831 42.2902 42.831C42.7022 42.831 43.0371 43.1667 43.0371 43.5775C43.0371 43.9906 42.7022 44.3263 42.2902 44.3263ZM46.425 30.5939C46.3665 30.5798 46.3079 30.5728 46.247 30.5728C46.1885 30.5728 46.1276 30.5798 46.0714 30.5939H42.4681C42.4096 30.5798 42.351 30.5728 42.2902 30.5728C42.2293 30.5728 42.1708 30.5798 42.1146 30.5939H29.0428C26.0622 30.5939 23.6389 28.1643 23.6389 25.1761C23.6389 22.1878 26.0622 19.7582 29.0428 19.7582C29.7499 19.7582 30.4429 19.8967 31.0985 20.1667C31.3209 20.2582 31.5715 20.2488 31.7869 20.1385C31.9999 20.0258 32.1544 19.8263 32.2083 19.5915C33.1519 15.5 36.7365 12.6432 40.9298 12.6432C45.7085 12.6432 49.6373 16.3897 49.8691 21.1737C49.8902 21.6197 50.2601 21.9577 50.7073 21.9554C50.7401 21.9554 50.7729 21.9531 50.8057 21.9507L50.8291 21.9484C53.2032 21.9507 55.1348 23.8897 55.1348 26.2723C55.1348 28.6549 53.2009 30.5939 50.8244 30.5939H46.425ZM50.2063 35.9366C49.7942 35.9366 49.4594 35.6009 49.4594 35.1878C49.4594 34.777 49.7942 34.4413 50.2063 34.4413C50.616 34.4413 50.9508 34.777 50.9508 35.1878C50.9508 35.6009 50.616 35.9366 50.2063 35.9366Z" fill="white"/>
</svg>
